<?xml version="1.0" encoding="UTF-8"?> <svg xmlns="http://www.w3.org/2000/svg" id="layer" viewBox="0 0 652 200"><path d="m339.25173,22.99054h11.82527c1.4841,0,1.3805.98328,1.3805,1.9752,0,4.23426.10359,8.57321.10359,12.81719l.29253,11.92888c0,1.48302.5958,1.87158,1.97518,1.87158h30.95662c1.68268,0,2.07018-.58716,2.07018-2.16516v-26.52268c4.24398,0,8.28934-.10363,12.23111.09498.39721,0,1.08689,1.08582,1.08689,1.67298.095,2.26877-.10359,4.53648-.10359,6.80524v60.93849c0,2.07019-.49112,2.85508-2.65626,2.7602-2.95847-.19838-5.91698-.09487-8.87546,0-1.87264.09487-2.37239-.59515-2.37239-2.46684.19862-7.98714.19862-16.06914.39721-24.05606,0-1.87157-.58717-2.56236-2.46739-2.56236-10.05731.095-20.20961.095-30.26691,0-1.77659,0-2.4663.49218-2.75989,2.16516-1.6816,9.76417-5.32978,18.6397-11.93752,26.13519-8.17709,9.16879-18.0358,15.87076-30.26691,17.94083-9.85872,1.77682-19.62244.79353-28.98898-2.95858-10.45452-4.23503-19.32994-10.54884-25.73909-20.0109-6.99522-10.25559-9.0654-21.79624-8.37462-34.01871.68971-12.03251,5.02865-22.38233,13.01581-31.25885,8.47825-9.36652,18.82914-15.3871,31.44771-17.15507,12.13615-1.68271,23.76283-.10361,34.51089,6.10692,2.4663,1.3794,2.4663,1.57799,1.08583,3.84678-1.578,2.56128-3.15601,5.13227-4.63148,7.78853-.78467,1.3794-1.37938,1.483-2.75985.79332-7.40105-3.75179-15.28458-5.71836-23.66783-5.02866-13.50799,1.18187-23.27171,8.28072-30.06832,19.71742-3.55427,5.91695-5.82199,12.23111-5.42583,19.22633.78467,11.54033,3.94173,22.18459,13.2144,29.78359,9.06538,7.48686,19.71743,11.92889,31.44771,9.85882,14.89603-2.66522,26.03159-10.74724,31.25883-25.63472,2.95851-8.28935,2.95851-16.86257,2.86351-25.53939-.10363-7.89215,0-15.77675,0-23.66891.095-.19752.19859-.4911.19859-1.18079m-40.13426,65.66471c-4.24289-.98328-8.38325-1.87169-12.52361-2.94984-2.2688-.59515-2.36376-1.38868-.8883-3.15696.59471-.69004,1.08689-1.48355,1.6816-1.9752,2.75989-2.16494,2.85488-5.62381,4.43394-8.38412,1.18079-2.07018-.39718-3.25206-2.76094-3.05346-2.07018.1986-4.24289-.09498-6.20948-.59472-1.97518-.49217-2.17377-2.07018-1.68268-4.03674.30221-1.2855-.09496-2.75988-.49109-4.04538-.39721-1.7766-1.18188-3.45066-1.47547-5.12363-.10363-.59472.8883-1.38049,1.47547-1.9752,1.97518-1.7766,2.56126-3.44958,1.6816-5.42478-.19859-.3972-.39718-.88938-.68971-1.0869-3.26069-1.57908-2.66598-4.72752-2.26877-7.19382.38858-2.46738,2.5613-3.84678,5.02865-4.63253,1.27688-.39612,2.45876-.99193,3.54456-1.7766,3.25206-2.36269,6.80633-2.36269,10.54951-1.47439,2.66489.58608,5.42478.38749,7.98713,1.18188,6.21053,1.67298,11.34173,4.72644,12.62723,11.73029.38855,1.9752.18996,4.04538.09496,6.11555-.09496,1.76796-.59471,3.54456-.39718,5.22617.10359,1.18187.5958,2.56236,1.38047,3.54564,1.28551,1.48302,1.08689,2.6649-.19859,3.75179-2.45767,2.16516-5.32118,3.63954-8.67684,4.14036-3.14843.49109-3.25206,1.07826-2.26014,3.94176,1.37184,4.14013,4.43394,6.90034,7.29742,9.96233,1.56937,1.67331,1.56937,2.26845-.5008,3.14833-5.22619,2.26845-10.54842,4.04527-16.36175,3.75201-.30221-.10349-.30221.19839-.39721.38813m-47.60332,82.18285c.35403-.24144.65516-.53471,1.00918-.65548,1.88885-.53481,2.30332-.94885,2.30332-2.95847,0-6.74513.06044-13.42982,0-20.17486,0-2.54455-.46625-3.01892-2.95847-3.49329-.23314-.06044-.47491-.18111-.64761-.53481,3.49383-.53481,6.97794-.23293,10.41133-.3536.06044.18111.06044.3536.12089.53471-.41447.17258-.8883.3537-1.30277.47449-1.59526.41393-2.07018.94011-2.07018,2.60478-.06044,2.65669,0,5.32191-.06044,7.9268,0,1.00055.47491,1.36278,1.36321,1.36278h13.78319c.8883,0,1.25095-.47437,1.25095-1.36278-.06044-2.54455,0-5.02865,0-7.5731,0-2.19085-.36266-2.54455-2.43284-3.07926-.29358-.06044-.58608-.24156-.8883-.53481,3.49383-.53481,6.92616-.23293,10.35955-.3536.06044.18111.06044.3536.12089.53471-.36266.11214-.77713.3537-1.19051.41404-1.82841.41404-2.42421,1.061-2.48465,3.01892,0,6.85717-.06044,13.72298,0,20.52844,0,1.83725.65624,2.95847,2.66598,3.07926.2925,0,.64653.41404.94874.64695-.30221.12077-.5958.42267-.88938.42267h-8.87542c-.24072,0-.41338-.06044-.82785-.47449.35403-.24144.70805-.53471,1.061-.65548,1.95792-.41404,2.37239-.82807,2.37239-2.8378,0-2.89815-.06048-5.85662,0-8.7634,0-1.06088-.47491-1.41458-1.42365-1.41458h-13.55005c-.94874,0-1.42365.3537-1.42365,1.41458.06044,2.90678,0,5.74458,0,8.64273,0,2.07006.53536,2.60478,2.60553,2.95847.41338.06033.76741.41404,1.18083.65548-.41338.17258-.76741.47449-1.18083.47449-3.01892.0517-6.08965,0-9.10857,0-.06044-.18121-.12089-.30189-.24177-.47449m294.27295-.82797c-.23314.29326-.46628.76762-.82789.87977-1.65676.47437-3.37295.8366-5.20132,1.25066-.12089-.71594-.18136-1.42324-.36266-2.37198-.76741.41404-1.35353.76762-1.94933,1.06953-4.79551,2.54453-10.41025-.47437-11.17766-5.86525-1.13007-8.15961,5.7961-12.48098,12.12643-11.23887.23314.06033.53532.06033.94877.12077.05178-.47449.11226-.88851.11226-1.30244v-6.74513c0-1.12985-.17161-2.07006-1.30168-2.72555-.58717-.3537-.76853-.88851-.05178-1.18177,1.35353-.59516,2.77715-1.00918,4.43285-1.59569v1.94941c0,7.92668-.06048,15.91383-.06048,23.84926,0,.64685,0,1.30244.12089,2.00974.18136,1.53525.76741,1.94929,2.30329,1.59569.18136-.06044.42201,0,.65516-.06044.06048.18111.12089.24156.23314.36233m-6.33145-7.27985v-4.14889c0-1.65604-.94008-2.95847-2.48353-3.48466-2.07021-.76762-4.55479-.06033-5.91695,1.82862-1.88885,2.66522-2.13062,5.56337-.94877,8.52184,1.2412,3.31217,3.55319,4.67495,6.86566,4.14889,1.71618-.24156,2.42312-1.06963,2.42312-2.78601.06048-1.30244.06048-2.71703.06048-4.07981m-376.34293-8.81521c0-3.1397.06044-6.09818-.06044-8.99633,0-.53481-.5958-1.00918-.94874-1.48355-.23314-.29326-.5958-.47437-1.18188-.94885,1.82841-.76762,3.43232-1.35414,5.20135-2.13041.06044.71593.11982,1.1903.11982,1.71648-.05937,8.22859-.11982,16.45727-.11982,24.67723,0,2.89815.36159,3.20003,3.5532,3.07926-.53429.59516-.76743,1.061-1.12144,1.18177-1.65572.47437-3.3125.82797-5.14955,1.24201-.12089-.7073-.24068-1.41459-.35294-2.24256-1.06963.52607-1.95792,1.06088-2.95847,1.41448-5.44312,1.89763-10.83443-2.13041-10.29909-8.75477.59473-6.8658,6.86571-9.76395,12.1275-8.70305.35294-.11204.7156-.11204,1.19051-.0517m.06044,8.92724v-4.26091c0-1.70785-.83757-2.89815-2.49328-3.48466-1.88885-.71593-4.26124-.06033-5.61473,1.53537-2.13062,2.42366-2.49328,6.45176-.8883,9.59147,1.35349,2.65659,3.48411,3.83826,6.50303,3.42421,1.83704-.23281,2.544-1.00055,2.544-2.8377-.05936-1.30244-.05936-2.66533-.05936-3.96777h.00863Zm290.48557-4.55418c.35403-.12077.70805-.29326,1.061-.41404,2.95847-.82797,4.85595-2.60489,5.27042-5.79628.35403-2.89815-.18133-5.50302-2.72533-7.27985-1.71724-1.18167-3.66653-1.18167-5.62445-.88841-.35294.06044-.82785.88841-.87967,1.42322-.12089,1.36278-.06044,2.71703-.06044,4.07981,0,5.85662.06044,11.66155.06044,17.51817,0,2.19085.64761,2.8378,2.83759,3.1914.41447.06044.7685.41404,1.12144.6556-.41338.17248-.76741.47437-1.18188.47437-2.83759.06044-5.74425,0-8.58184,0-.29358,0-.58608-.06033-.88833-.12077l-.17267-.3536c.35403-.24156.64653-.59516,1.061-.6556,1.89748-.41393,2.31195-.82797,2.37239-2.71692.11222-6.03784.1727-12.07557.23205-18.16512,0-1.00918-.11983-2.01837-.23205-3.01892-.12089-1.65604-.5958-2.07006-2.31195-2.31162-.41447-.06033-.82785-.3536-1.24232-.47437.41447-.23293.82785-.64695,1.24232-.7073,2.60445-.12077,5.20998-.24156,7.81443-.06033,2.00974.12067,4.01947.3536,5.97739.88841,2.95847.88841,4.78688,3.49329,4.90777,6.39143.12089,3.90733-1.36212,6.45176-4.4933,7.80591-2.13062.94885-3.73452,1.19041-5.56401.53481m-346.64616-15.80179c1.94951-.76762,3.54476-1.41448,5.32137-2.18222v15.43956c.71668-.3537,1.06963-.58663,1.4841-.76774,1.30277-.47437,2.544-1.18167,3.84677-1.30244,3.49383-.29326,5.91695,1.24211,6.03784,5.27021.05181,2.89803-.06044,5.73583.05181,8.63398.06044,1.60434-.23314,2.37196,2.07881,2.66522.29358.06044.52564.47437,1.061.88841h-4.38213c-1.12144,0-2.19106.12077-3.31142.06044-.35403,0-.70805-.30189-1.061-.47449.2925-.24144.52564-.59516.82785-.59516,1.00055-.11204,1.59526-.70718,1.59526-1.59569,0-3.37252,0-6.68469-.24177-10.05721-.11117-1.59569-1.24124-2.66522-2.83761-2.89815-1.94929-.36223-3.72589.05181-4.90777,1.76829-.30114.41393-.36158,1.00908-.36158,1.48355-.0518,2.89815-.0518,5.73583,0,8.64261,0,1.76818.30114,2.13052,2.01837,2.71703.23205.12077.41338.47437.64653.65548-.23314.11214-.47491.3537-.70697.3537-2.31197,0-4.61527.06033-6.86623,0-.23281,0-.53471-.30189-.76762-.47449.23292-.18111.47437-.53471.76762-.59516,1.89802-.52607,2.06964-.64685,2.06964-2.60478,0-7.2195,0-14.439.06044-21.59808-.06044-1.47492-.76742-2.4841-2.42334-3.43296m219.65504,39.59067c-.35403.06038-.70805.12075-1.061.12075h-6.86569c-.30221,0-.5958-.29327-.94874-.41403.2925-.18113.53427-.41403.82785-.4744,1.42257-.35363,1.83704-.88841,1.83704-2.60488v-18.69987c0-1.73659-.61233-3.2748-1.83704-4.61463,1.53482-.88841,3.01892-1.71648,4.73507-2.66522v1.36278l.1727,1.24211c.47383-.12077.8883-.12077,1.36212-.29326,1.00918-.3537,1.95792-.82807,2.95847-1.12132,4.08858-1.25074,7.98716,1.41458,8.76426,5.91706.82789,4.96821-1.83704,9.87609-6.45231,11.2992-1.65571.53481-3.49274.59516-5.20998.59516-1.12144,0-1.53482.2933-1.53482,1.41461,0,1.83722-.06044,3.72617,0,5.56338.06044,1.94934.41338,2.31162,2.42312,2.60488.35403.06038.64761.18113,1.00918.29327-.1198.12075-.18024.30189-.18024.47439m-3.37295-22.96081v7.63343c0,1.42322.64653,2.37196,1.94929,3.07926,2.54509,1.30244,5.33087.64695,6.7448-1.89759,1.4841-2.65659,1.83707-5.44258.71668-8.40105-1.06963-2.8378-3.1398-4.20058-6.09828-3.90733-2.25151.24144-3.25206,1.25064-3.3125,3.49329M29.60826,142.19302c1.36278-.53471,2.95848-1.18167,4.79573-1.88896v15.20665c1.53537-.59516,2.95848-1.30244,4.3817-1.65604,3.89869-1.00918,6.74503,1.24199,6.80547,5.26146.0517,2.84633,0,5.68414,0,8.4615,0,2.07006.0517,2.13052,2.07007,2.66522.29326.06044.52618.3537,1.12133.76774-.64696.18111-.94885.30189-1.18167.30189h-6.74513c-.30189,0-.59515-.24156-.88841-.36233.23292-.23293.47437-.64685.76774-.7073,1.53526-.12077,1.83715-1.18167,1.89748-2.42366.05181-2.66533.05181-5.33055,0-7.93543-.06034-1.65604-.59515-3.25173-2.37196-3.95903-1.71648-.6556-3.43285-.53481-4.84743.64685-.59515.47449-1.06952,1.36288-1.06952,2.13052-.12078,3.07926-.06044,6.15851-.06044,9.28958,0,1.1903.30189,2.19085,1.77681,2.31162.24156,0,.47448.41393.70729.58651-.23281.18111-.46574.42267-.64685.42267h-7.15906c-.18122,0-.3537-.12077-.59515-.24156-.06044-.12077-.06044-.23293-.12078-.41404.47437-.18111.88841-.41404,1.36278-.53481.88841-.11204,1.36278-.58651,1.42322-1.47492,0-.24144.12078-.53471.12078-.76762,0-7.40062.06034-14.85293-.06044-22.25356.06044-1.00918-.82807-2.07006-1.48356-3.43296m566.60259.06044c1.59629-.64695,3.25199-1.30244,4.90882-1.94941v15.26697c1.71612-.65548,3.19053-1.36278,4.67463-1.77681,3.66544-.94874,6.68436,1.30244,6.74484,5.14944.06041,3.01882.06041,6.02911,0,8.98758,0,1.30244.35403,2.13052,1.77659,2.25129.35403,0,.70805.3536,1.06096.59516-.05178.11214-.05178.23293-.11226.41404-.35291.06033-.71557.12077-1.06959.12077-2.06909,0-4.1393,0-6.20945-.06044-.35403,0-.70805-.30189-1.06966-.41404.3616-.24144.65516-.41404.94877-.71593.53427-.47437,1.48298-.94011,1.48298-1.41448.06048-3.49329.11226-7.04703-.30113-10.54032-.23314-2.13041-2.13062-2.95847-4.73615-2.59625-2.00974.23293-3.19053,1.65614-3.19053,3.66587v8.22859c0,1.35425.11983,2.59625,1.94926,2.71703.24072,0,.41345.3536.59475.59516-.29355.17248-.53427.47437-.82789.47437-2.19103.06044-4.38213.06044-6.62494,0-.30119,0-.65522-.30189-.94877-.47437.23314-.18111.47491-.59516.76846-.59516,1.77659-.06044,2.13062-1.24211,2.13062-2.60489.05942-7.2195,0-14.37856,0-21.59808,0-1.47492-.5958-2.66522-2.13062-3.31207.12089-.06044.18031-.23293.18031-.41404m-118.82269,28.58456c.29253-.24144.58608-.59516.8883-.65548,1.30171-.12077,1.76796-.94885,1.76796-2.07006.06044-2.89815.12089-5.73595,0-8.64273-.06044-1.71648-.76741-3.31217-2.60445-3.78654-1.8899-.52618-3.72697-.29326-5.08047,1.30244-.4231.47437-.5958,1.30244-.65624,1.95804-.06044,2.8377-.06044,5.67551,0,8.4615,0,1.35414.12089,2.71692,2.00974,2.8377.24177,0,.41447.3537.5958.82807h-8.2289c-.05181-.12077-.11226-.18111-.1727-.29326.35403-.24156.70697-.59516,1.061-.59516,1.24232-.06044,1.65571-.82807,1.77659-1.88896.06044-.41404.06044-.88841.06044-1.30244v-19.35542c0-1.88896.35403-3.90733-2.19106-4.90788.06044-.12077.12089-.29326.18133-.41404,1.59635-.65548,3.19162-1.30244,5.0891-2.07006v15.26697c1.65574-.6556,3.07073-1.36278,4.61422-1.71648,3.60605-.82807,6.56456,1.06088,6.68545,5.02865.06044,2.95847,0,5.91695,0,8.87554,0,1.83715.18133,2.00974,1.94929,2.4841.30113.06033.53427.3536.77604.53471-.18133.17258-.41447.47449-.59471.53481-2.54509.06044-5.08913,0-7.63419,0-.18133-.12077-.24072-.24144-.29253-.41404m97.51859-15.50842c1.53482-.82807,3.01892-1.65614,4.67463-2.54455.06048,1.06963.12089,1.89759.17273,2.78601,1.66434-.59516,3.01892-1.30244,4.44148-1.60434,4.14036-.94011,7.6946,1.1903,8.52248,5.33055,1.00055,5.02865-1.00918,9.99686-6.15872,11.77369-1.71618.59516-3.60503.65548-5.44204.65548-1.06103.05181-1.41506.35368-1.36321,1.35423.06041,1.89759,0,3.78654,0,5.68414,0,1.83722.41444,2.25124,2.25151,2.5445.35291.06038.65516.35365,1.00918.53478-.35403.11214-.65627.35365-1.00918.35365-2.36376.06038-4.67575,0-7.03839,0-.30225,0-.5958-.24151-.8883-.35365.23202-.18113.47379-.53478.70694-.53478,1.36321-.12075,1.89748-.94879,1.89748-2.25123,0-2.60488.06048-5.20975.06048-7.80601v-10.59202c-.04032-2.05285-.65265-3.82966-1.83707-5.33044m4.79551,7.40062c0,1.30234.05185,2.65659,0,3.95903-.12089,1.71648.82789,2.72566,2.24288,3.37252,2.48359,1.06953,5.02865.24156,6.39081-2.13052,1.4841-2.59625,1.71724-5.38225.82894-8.15961-1.12144-3.55363-4.26124-4.97684-7.63419-3.73475-1.24232.47437-1.82844,1.30244-1.82844,2.60489v4.08844Zm-475.06155,1.71636c0,2.00974-.58652,3.8987-1.65604,5.56347-.47448.70718-1.77692.94011-2.71703,1.18167-4.50248.94876-8.936,1.00052-13.31768-.6556-4.96821-1.88896-8.58228-6.9175-8.81511-12.18771-.18122-3.96766.64685-7.5731,3.1914-10.65235,3.07925-3.66577,7.10725-5.20977,11.72187-5.56337,3.25185-.23293,6.50359.18111,9.64317,1.06953.29336.06044.70729.52618.76774.88841.24145,1.65614.35359,3.31217.47437,5.02865,0,.23293-.29326.41404-.41403.64695-.23281-.17258-.58652-.29337-.64685-.52618-1.0092-4.62326-5.20978-6.15851-9.76394-5.86525-5.74458.36223-9.94516,4.44203-10.77313,10.35909-.64696,4.84744.06034,9.34991,3.37252,13.13647,3.55362,4.07981,10.65235,5.14937,14.67182,2.00974,1.1903-.94885,2.01827-2.42378,2.96711-3.60543.23292-.3536.52618-.65548.76762-1.00918.29327.06044.41405.12077.52618.18111M.08352,147.75648c.41403-1.94941.82804-3.84699,1.30243-5.79628.17251-.6556.41403-.71593,1.00055-.30189.71591.47437,1.54395.94874,2.31161.94874,6.4518.06044,12.90357.06044,19.34681,0,.88841,0,1.83715-.58651,2.90678-.94874-.24156,2.13041-.47448,4.3817-.71593,6.63288-.11214.06044-.23292.06044-.29326.11214-.18111-.29326-.41403-.64685-.47437-1.00055-.59515-2.72555-1.18177-3.01892-4.26103-3.43284-1.5957-.24156-3.25173-.06044-4.90788-.06044-.76763,0-1.12985.3537-1.12985,1.12132,0,7.5214,0,15.03405.06034,22.54682,0,1.77681.71593,2.37196,2.54455,2.54445h.12067c.41403.24156.82807.41404,1.30244.6556-.41393.17248-.88841.47437-1.30244.47437-2.19085,0-4.32126-.06033-6.51211-.06033-1.00057,0-2.00975.12077-3.01892.12077-.23289,0-.47439-.24156-.70728-.36233.23289-.23293.41401-.52618.70728-.64685,1.00917-.3537,2.37198-.41404,2.90678-1.12132.58651-.71593.58651-2.07871.64685-3.1397.06044-6.8658,0-13.79195,0-20.64923,0-.94874-.35359-1.48355-1.42315-1.42311-1.30243.06033-2.65662,0-3.95906,0-2.31161.06033-4.08844,1.00908-5.08899,3.1914-.18112.41393-.59515.65548-.94878,1.00908-.24151-.18111-.29327-.29326-.41403-.41393m423.09358,7.86636h-3.605c-.24177-1.12132.2925-1.29381,1.06854-1.35425,1.97228-.12074,3.27218-1.12702,3.89967-3.01882.94874-2.89815,2.25042-5.68414,4.38104-7.93543,1.94929-2.07006,4.32168-3.25173,7.21972-2.77736.8883.18111,2.07018.88841,2.42312,1.65604.35403.7073-.11117,1.89759-.41338,2.8378-.12089.30189-.70697.47437-1.061.65548-.18133-.3536-.47491-.7073-.53536-1.12122-.23205-1.25074-.64653-2.37206-1.94929-2.78601-1.30168-.47449-2.37131.18111-3.13872,1.18167-.88938,1.1903-1.77768,2.43229-2.36376,3.78654-1.00918,2.31162-1.71615,4.7353-2.72533,7.52129,1.71615,0,3.07936-.06033,4.38104,0,.35403,0,.70805.3537,1.12144.52618-.35294.24156-.76741.71593-1.12144.71593-1.06963.11214-2.13062.11214-3.19916,0-1.00055-.06033-1.53591.29326-1.77768,1.30244-.94011,3.48466-1.82841,6.97794-2.83759,10.4109-1.12144,3.78654-2.30332,7.57305-3.72589,11.24749-.94874,2.48412-3.01892,3.95906-5.79606,4.20057-1.83704.17252-3.20025-1.00918-2.90669-2.48412.06044-.41403.5343-.88841.88833-1.19031.18133-.11214.7156.30189,1.00918.53476.41338.29327.70697.76766,1.18188,1.06956,1.12035.76766,2.00865.70728,2.72533-.47439.76741-1.24206,1.35349-2.66525,1.71615-4.08844,1.47547-5.56337,2.77715-11.1181,4.14036-16.68157.23314-1.06953.58608-2.31152,1.00055-3.73475m-202.19646,15.56886h-4.32168c-.94011,0-1.82841.12077-2.77715.06033-.29358,0-.5958-.24144-.8883-.36223.23205-.23293.41338-.64695.64653-.64695,1.54345-.12077,1.77659-1.24199,1.77659-2.42366,0-2.66533.06044-5.33055,0-7.93543,0-1.59569-.41338-3.07062-2.07018-3.84689-1.71615-.76774-3.4323-.64695-4.84732.53471-.7156.59516-1.30277,1.71648-1.36321,2.66533-.18026,2.89815-.05937,5.85662-.05937,8.75477,0,1.1903.35296,2.07006,1.71617,2.25118.23313.06044.47383.41404.70697.64695-.1727.18111-.35403.42267-.52564.42267h-7.52195c-.06044-.18121-.12089-.36233-.17268-.47449.41445-.24144.82785-.53471,1.24232-.59516,1.00054-.18111,1.47545-.7073,1.47545-1.71648,0-3.55363.11982-7.09862-.06044-10.5919-.06044-.82807-.82892-1.59569-1.41501-2.60489,1.30277-.64695,2.77715-1.41458,4.43392-2.25129.06044.94885.12089,1.77681.2407,2.84645.70805-.3537,1.24232-.6556,1.77768-.82807,1.59526-.47437,3.13009-1.30244,4.72644-1.30244,2.90666-.06033,4.56239,1.71648,4.61418,4.61463.06044,2.89815,0,5.73583,0,8.64261,0,.41404,0,.87977.06044,1.29381.12089,1.06963.53536,1.83725,1.77661,1.95804.35401.06033.59578.41393.94874.64685,0,.06044-.05937.12077-.11982.24156m71.78058.58651c-5.02865,0-8.58293-3.72621-8.52248-8.98768,0-5.14932,3.96766-9.23777,8.93587-9.23777,4.90777,0,8.64337,3.84689,8.58293,8.99621-.12089,5.62381-3.67516,9.17744-8.99631,9.22924m5.68381-8.69442c-.41444-1.65604-.7156-3.49329-1.42365-5.20977-.70697-1.83715-2.18998-3.07926-4.26015-3.07926-1.94929-.0517-3.3125,1.06953-4.07991,2.84645-1.60498,3.66577-1.42365,7.27985.70697,10.7645,1.00918,1.65604,2.544,2.43229,4.49438,2.19085,1.77659-.23293,2.90666-1.36288,3.49274-2.89815.47491-1.42322.70697-2.95859,1.06963-4.61463m80.41427,6.56392c-.53427,2.13052-4.0281,2.95854-5.56292,1.24211-1.12144-1.24211-1.83707-.82807-2.89806-.17258-1.42365.88851-2.89803,1.475-4.61527.76774-1.54345-.59516-2.544-1.77681-2.60445-3.31217-.12089-1.77681.47491-2.72566,2.25151-3.49329,1.88885-.82807,3.89858-1.42322,5.73562-2.30299.5343-.24144,1.18188-.88841,1.24232-1.42322.12089-1.24199,0-2.54445-.23311-3.78654-.30221-1.42311-1.48304-2.13041-3.01895-2.00974-1.48301.05181-2.31195.76774-2.60445,2.30299-.24177,1.24211-1.36321,2.07018-2.60553,1.89759-.23205-.06033-.70697-.71581-.64653-.94874.82785-3.1397,7.39242-5.85662,10.17822-4.26091,1.35349.76762,1.82841,2.07006,1.82841,3.60533,0,2.43241-.05181,4.85618-.11226,7.27985v1.48367c0,3.01882.64653,3.60533,3.66544,3.13096v-.00005Zm-6.62392-3.95903c0-.12077,0-.53481.05178-1.00918.12089-.82807-.29355-1.24211-1.061-.94874-1.30273.41393-2.60445.88841-3.78633,1.5439-1.18188.64695-1.36321,1.94941-.82785,3.13106.59471,1.24199,1.77659,1.77681,3.07936,1.42311,2.18138-.64685,2.48359-1.12122,2.54404-4.14014m271.90687,3.95903c-1.06959,2.31162-4.44148,2.84642-5.8651,1.12997-.76748-.94885-1.414-.88841-2.3023-.30189-1.59629,1.00918-3.26069,1.77682-5.20995.94874-1.47547-.64685-2.25151-1.71636-2.36376-3.37252-.12089-1.59569.52669-2.66522,1.94926-3.25173,2.00974-.82807,3.96769-1.65614,6.0379-2.31162.8883-.29326,1.24232-.76762,1.24232-1.59569,0-1.00918,0-2.00974-.06048-3.01892-.17267-1.59569-1.24232-2.54445-2.77715-2.66522-1.60498-.11214-2.72537.65548-3.01892,2.31162-.24177,1.18167-.8883,1.65604-1.95796,1.83715-.41444.06044-.82782-.12067-1.24232-.18111.06048-.47437,0-1.00918.24177-1.36278,1.36216-2.07006,3.37189-3.1914,5.67518-3.78654.8883-.23293,1.83707-.41404,2.72537-.23293,2.42424.41404,3.43342,1.88896,3.37295,4.7354-.06041,2.60489-.1813,5.20114-.23314,7.80591,0,.53481.05185,1.06963.11226,1.59569.24177,1.77692,1.18191,2.37206,2.95851,1.89759.12089-.18111.29355-.18111.71557-.18111m-6.69299-3.78654v-1.18167c.06041-.82807-.35403-1.18167-1.12144-.94874-1.30168.47437-2.66489.94874-3.8468,1.60422-1.12144.64695-1.30273,1.88906-.76741,3.01029.59475,1.1903,1.77659,1.77681,3.07939,1.48355,2.13062-.59516,2.60448-1.24199,2.65626-3.96766Zm-112.48366,3.78654c-1.13007,2.31162-4.20943,2.84642-5.86514,1.06953-.76741-.82797-1.30277-.94874-2.18243-.29326-1.71615,1.12132-3.49383,1.88901-5.56295.88851-1.24232-.59526-1.89857-1.60434-2.07018-3.01892-.12089-1.48355.17161-2.66522,1.59526-3.32082,2.07018-.87977,4.20083-1.76818,6.33145-2.54445.82785-.29326,1.24124-.82807,1.24124-1.65614,0-1.06088,0-2.13041-.1198-3.1914-.1727-1.5439-1.24232-2.4841-2.77823-2.54445-1.54348-.06044-2.66492.64685-2.95847,2.19085-.24072,1.35414-1.06966,1.82852-2.25045,2.00974-.94983.12067-1.36321-.41404-.94983-1.24211.35403-.65548.82894-1.24211,1.42365-1.71648,2.30332-1.83715,4.7351-3.31217,7.81446-2.4841,1.65679.47437,2.5969,1.53537,2.65735,3.1914.05936,2.66522-.06044,5.39088-.06044,8.04747,0,.88851-.05181,1.77692.06044,2.66533.18024,1.83715,1.12898,2.42366,2.89803,1.94929.18024,0,.41338.06044.77604,0m-6.63255-3.7261c0-.41404-.06048-.76774,0-1.18177.1198-1.00908-.41447-1.30244-1.30277-1.00908-1.18188.41393-2.42421.82797-3.54564,1.42311-1.18946.64695-1.48304,1.89759-1.00918,3.07926.53532,1.24211,1.7172,1.82862,3.01892,1.59569,2.25151-.47437,2.7782-1.24199,2.83868-3.90721m-116.92627-.17258c.58608-4.14877,2.544-8.34936,6.86572-11.06639.94008-.59516,2.13062-.94874,3.19162-1.06953,3.01892-.29326,5.02865,2.13052,4.61418,5.62381-.52564,4.44203-2.48356,8.22859-6.15009,11.00595-1.71615,1.30244-3.67411,2.00975-5.80473,1.24211-1.94929-.7073-2.77715-2.25129-2.7167-5.73595m12.01526-8.70296c-.36266-.53481-.71668-1.77692-1.42365-2.00974-.65516-.24156-1.77659.29326-2.544.76762-.5958.29326-1.00922,1.00918-1.36321,1.59569-1.00922,1.89759-2.00974,3.78654-2.77718,5.80492-.59577,1.59569-1.00918,3.31217-1.13007,4.96821-.06044.7073.47386,1.83725,1.06963,2.19085.58608.29326,1.5953-.12077,2.42315-.3536.29358-.06044.5958-.41404.82891-.6556,2.78581-3.49329,4.08858-7.5731,4.91643-12.30838m158.69894,14.08521c-.23314.06044-.46628.18121-.70805.18121h-6.74484c-.29355,0-.59468-.24156-.8883-.36233.24177-.23293.47386-.58651.76741-.7073,1.83707-.53471,1.89755-.64685,1.89755-2.54445v-19.34679c0-2.07018.76846-4.44214-2.37134-5.80492,2.07014-.82807,3.61366-1.47492,5.39026-2.19085.06041.53471.11226.94874.11226,1.30244,0,8.4615-.05185,16.98345-.05185,25.44495,0,1.54108.72749,2.60776,2.18247,3.20003.30218.12067.59468.23281.82782.3536-.17267.12077-.29355.29326-.41338.47437m-67.81293-30.77539c-.12089,2.07871-.23314,3.90733-.23314,5.80492v20.00227c0,.88841.11226,1.76818.1727,2.65669.12089.94874.7156,1.30234,1.60389,1.48355.35403.06033.70697.47437,1.00055.7073-.35403.12067-.76741.3536-1.12144.3536-2.07018.06033-4.14036,0-6.21053,0-.36157,0-.65516-.0517-1.48301-.17248.59471-.47449.82785-.88841,1.18188-.88841,1.60389-.12077,1.89748-1.18177,1.89748-2.4841v-21.4256c0-1.24199-.18133-2.36333-1.30277-3.07926-.59471-.3536-.65516-.94011,0-1.24199,1.36321-.7073,2.77715-1.12132,4.49438-1.71648m-364.39786,1.89759c1.54345-.59516,3.07936-1.24211,4.97684-1.94941v2.89815l-.18133,20.23518c0,1.59569.06044,3.20003.18133,4.7354.05181,1.12132.4652,1.94929,1.82841,2.00974.30221,0,.59473.3536.8883.53471,0,.12077-.06044.23293-.06044.3537-.35294.06033-.70697.18111-1.061.18111h-6.21916c-.35294,0-.76741-.24144-1.12035-.41404.2925-.24144.59471-.65548.94874-.65548,1.42257-.17248,1.65571-1.12132,1.65571-2.30299v-20.59753c0-1.83715.29358-3.7261-1.94929-4.67495.05181-.06033.05181-.17248.11226-.3536m421.98075,25.44495c-.1813,1.30244-1.13007,2.07006-2.13925,2.72556-2.94981,1.82864-5.96873,1.88901-8.81498-.06033-2.95851-2.07006-3.72592-5.14932-3.25206-8.58228.47491-3.43296,2.00974-6.21032,5.38268-7.63343,2.95851-1.24211,6.03784-.59516,7.8749,1.59569.35291.47437.70694,1.00908.8883,1.59569.58605,2.13041.11226,2.72556-2.07884,2.72556-2.65626,0-5.3222.06044-7.92662,0-1.06096,0-1.42362.41404-1.42362,1.42322-.11226,3.95903,2.13925,6.97794,5.80575,7.9268,1.65571.41393,3.01892-.06044,4.3206-1.06963l1.06103-.87977c.06041.05181.1813.17248.30218.23293m-10.83335-8.87554c2.13062,0,4.14036.06033,6.15872-.06044.52564,0,1.41394-.3536,1.47441-.7073.1813-.65548,0-1.5439-.35403-2.07006-.707-1.1903-2.60448-1.5439-4.19971-.94874-1.95796.7073-3.13987,2.07006-3.07939,3.78654m-162.55434,12.36883h-8.63474c-.06044-.12077-.12089-.18111-.18133-.30189.29358-.23293.5958-.64695.94983-.64695,1.47438-.18111,1.82841-1.18167,1.82841-2.42366v-21.59808c0-1.24211-.23314-2.25118-1.30277-2.95847-.46628-.30189-.87967-.88841-.11226-1.1903,1.36321-.58651,2.83759-1.061,4.38213-1.59569v26.98885c0,2.13052.05181,2.13052,2.18243,2.89815.24068,0,.41338.3536.8883.82807m-189.24219-3.43296c-.52564.7073-.94011,1.47492-1.59526,2.07006-4.38213,3.90735-11.29963,1.65614-12.60133-4.07981-.94874-4.32126.06044-8.04747,3.60502-10.71269,2.37239-1.77692,5.0891-2.00974,7.75399-.6556,1.65679.88841,2.66598,2.25129,2.60553,4.26103,0,1.00908-.24177,1.42311-1.36321,1.42311-2.83759-.06033-5.68381,0-8.46204,0-1.53482,0-1.77659.29326-1.71615,1.77681.12089,3.78666,2.25151,6.56402,5.68381,7.51276,1.77768.47437,3.19162,0,4.55483-1.12132.35403-.30189.70697-.59516,1.061-.82797.18133.11214.36159.23281.47383.3536v.00003Zm-11.06649-8.99633c2.25151,0,4.50301.06044,6.75452,0,.94011-.06033,1.47438-.82797,1.061-1.71636-.29358-.7073-.82894-1.47504-1.4841-1.83725-2.12199-1.12132-5.55429.41404-6.33142,2.72566-.05181.23281,0,.53471,0,.82797m-123.19626,8.93598c-.18111,1.24199-1.12122,2.00974-2.07007,2.66522-2.54444,1.77684-5.33055,1.94934-8.16825.58651-2.77736-1.35414-3.90733-3.84689-4.07981-6.74503-.24156-3.60543.76762-6.74513,3.72611-8.99633,3.43296-2.65659,8.58228-1.76818,10.23843,1.83725.35359.70718.35359,1.65604.29326,2.42366,0,.24156-.76762.6556-1.18167.6556-2.89814.06033-5.80492,0-8.7634.06033-1.53537,0-1.76828.29326-1.65614,1.77681.24156,3.95914,2.43241,6.68469,6.03784,7.51276,1.71637.41404,3.13959-.18111,4.3817-1.24211.29326-.24144.58652-.53471.94874-.76762.11214,0,.23292.11214.29326.23293m-11.00595-8.93598c2.36333,0,4.67495.06044,6.97795-.06033,1.06952-.06033,1.242-1.06088.8884-1.77681-.3537-.7073-1.00055-1.41458-1.71648-1.82862-2.24265-1.24199-6.14988,1.18167-6.14988,3.66577m177.64032,12.96398c-.41447,0-.76741.05181-1.18188,0-2.89803-.30189-4.32168-2.19085-3.78633-5.03718.06044-.23293.29358-.41404.41338-.58651.23314.17248.53536.3536.70805.64685.76741,1.06963,1.42257,2.31162,2.37131,3.26048.87967.87977,2.71779.82797,3.72697.11204,1.12144-.70718,1.47438-1.94929,1.061-3.01882-.41447-1.00055-1.36321-1.94941-2.19106-2.65669-1.00055-.88841-2.24288-1.42311-3.25206-2.25118-1.71615-1.36278-2.19106-3.1397-1.59526-5.20977.53427-1.82862,1.82841-2.8377,3.605-3.07062,1.54345-.18111,3.1398-.06033,4.67463.11214.82894.06033,1.8975,2.89815,1.42365,3.61407-.06044.11204-.76741.06033-1.00918-.12077-.58608-.59516-.94011-1.42322-1.53591-1.94941-1.71615-1.42311-3.90721-.88841-4.67463,1.061-.41338,1.06953-.06044,1.94929.64653,2.66522.53536.58651,1.25095,1.00055,1.89857,1.41458.82785.53471,1.65571,1.00918,2.42312,1.5439,2.13062,1.53537,3.01892,3.90733,2.31195,6.14999-.59578,1.77681-2.78578,3.26038-5.14954,3.37252-.35403,0-.59471,0-.8883-.05181,0,.05181,0,0,0,0v-.00003Zm78.64631.05181h-1.77659c-3.01892-.11214-4.50301-2.00974-3.96766-4.96821.06044-.23293.24177-.41404.35294-.64695.24177.17248.53536.29326.65624.52618.35294.59516.53427,1.36278.94874,1.89759.52564.64685,1.12144,1.24199,1.82841,1.65604,1.24232.76774,3.07936.41404,3.90721-.59516.8883-1.06088.8883-2.59625-.18133-3.84689-.52564-.64695-1.29305-1.12132-2.00974-1.65614-1.061-.76762-2.24179-1.47492-3.19053-2.36333-2.54509-2.36333-1.59635-6.57255,1.71615-7.69387,1.77659-.59516,3.54456-.53471,5.32115,0,.7685.24156,1.95792,2.95859,1.4841,3.61407-.12089.11214-.82785,0-1.06963-.24156-.70697-.64685-1.24232-1.65604-2.07018-2.19085-1.30277-.88841-3.01892-.47437-3.78633.59516-.8883,1.30244-.70697,2.77748.70697,3.84699,1.06963.82807,2.19106,1.42322,3.32113,2.19085,1.53482,1.00055,2.77715,2.19085,3.01029,4.14014.53427,4.01947-2.36376,5.38225-5.20135,5.73595m51.0626-2.18222c-.35403.3536-.58717.76762-1.00055,1.06088-1.42365,1.00918-3.01892,1.30244-4.67463,1.00918-2.07018-.3536-3.01892-1.60434-3.07936-3.96766-.06044-3.25185,0-6.45188,0-9.70361,0-1.26505-.63246-1.99534-1.89748-2.19085-.1727,0-.29358-.12077-.7685-.29326.47491-.30189.7685-.59516,1.06963-.71593,1.47547-.52618,2.60553-1.47492,3.37295-2.8377.1727-.29337.53427-.47449.82785-.7073.12089.29326.29358.58651.29358.94874.08057,1.33982.79083,2.00974,2.13062,2.00974.94874,0,1.83704-.06033,2.78578.06033.35294.06044.58608.47449.87967.7073-.29358.29326-.58608.82807-.87967.82807-1.13007.12077-2.31195.06033-3.43339.06033-1.00918,0-1.54345.3537-1.48301,1.47504.06044,2.90666,0,5.74448,0,8.64261,0,3.66577,2.66489,4.90788,5.0891,3.37252.12089-.06033.2925-.06033.47383-.06033.18133.12077.23314.24144.29358.30189m-188.82771-14.439c1.25095-.65548,2.72533-1.36278,4.38213-2.19085.06044,1.061.06044,1.94941.12089,3.13106.94874-.64685,1.59526-1.24211,2.36268-1.59569.94874-.41404,2.07018-.76762,3.07936-.7073,1.061.06044,1.36321,1.00055,1.12144,2.00974-.23313,1.00918-1.00055,1.48355-2.00974,1.24211-.53427-.12077-1.061-.41404-1.59526-.64695-1.12144-.47437-2.13062-.12077-2.60553,1.00055-.2925.65548-.41338,1.42322-.41338,2.19085-.06044,2.72566,0,5.50302,0,8.22868,0,1.77681.35294,2.07006,2.13062,2.36333.41338.06033.76741.3536,1.18079.59516-.41338.17248-.76741.47437-1.18079.47437-2.25151.06044-4.50301.06044-6.74589,0-.2925,0-.59471-.24144-.8883-.36223.23314-.23293.47491-.7073.76741-.7073,1.42365-.17248,1.77768-1.061,1.77768-2.36333,0-3.26048.12089-6.45188-.06044-9.65191-.06044-.87977-.82785-1.76818-1.42365-3.01029m323.92683,15.97427h-8.16737c-.06044-.12067-.12089-.18111-.23314-.29326.35403-.24144.64653-.59516,1.00055-.65548,1.18188-.12077,1.65571-.82807,1.65571-1.88896.06044-3.43296.18133-6.8658,0-10.29876-.06044-.88841-.94011-1.77681-1.53482-2.78601,1.42257-.64695,2.89803-1.41458,4.55374-2.18222.06044.46574.12089.76762.12089,1.12132,0,4.55418,0,9.10835-.06044,13.61084,0,1.36278.24177,2.36333,1.83704,2.4841.29358,0,.52673.29326.82785.47437.06044.12077.06044.29337,0,.41404m129.35593.06044h-8.04757c-.06041-.12077-.12089-.18111-.1813-.30189.29355-.23293.59468-.64695.8883-.64695,1.24232-.12077,1.71612-.82797,1.77659-1.94929.06041-3.49329.06041-6.98659-.06048-10.47988,0-.58651-.58605-1.24211-1.06096-1.71648-.53427-.47437-.71563-.82807,0-1.18167,1.30273-.64695,2.65731-1.24211,4.20077-1.94941v15.56023c0,.94885.47491,1.42322,1.41506,1.59569.41338.06044.77604.3537,1.19048.53481,0,.23293-.06041.3537-.12089.53481m-496.95295-.30189c.30221-.23293.59471-.58651.94876-.64695,1.12142-.18111,1.59526-.76762,1.65571-1.89759.06044-3.37252.12089-6.79683.06044-10.17798,0-.64685-.59471-1.41458-1.12144-1.94929-.41338-.47437-.7156-.88841,0-1.24211,1.30277-.64685,2.66598-1.18167,4.07991-1.83715.06044.3536.24177.59516.24177.88841l-.18133,13.67128c0,1.36278.23314,2.4841,1.94929,2.60489.24179,0,.41447.3536.5958.58651-.18133.18111-.35403.47437-.53536.47437-2.48356.06033-4.96821,0-7.51223,0-.06044-.17248-.12089-.3536-.18133-.47437v-.00002Zm216.58408-17.92366c-.06044,1.41458-.18133,2.54455-.18133,3.66587v10.59202c0,1.48355.06044,2.89803,2.07018,3.07926.18133,0,.36266.41393.53427.64685-.23205.12077-.47383.36233-.70697.36233h-6.63255c-.29358,0-.52673-.30189-.76744-.47449.24072-.24144.47386-.59516.71563-.59516,1.41394-.06033,1.76796-1.00918,1.76796-2.13041,0-3.37262.06044-6.80548-.05181-10.17798,0-.59516-.53427-1.30244-1.00918-1.71648-.59471-.59516-.59471-.94885.12089-1.30244,1.24232-.64695,2.48356-1.18167,4.14036-1.94941m-124.03371-2.72556c.35401-.23293.7156-.47437,1.00918-.7073.6476-.59516,1.42365-1.12997,1.82841-1.83725,1.00918-1.53525.30221-3.31217-1.4744-3.7261-1.06963-.24156-1.47545-.76774-1.18186-1.77692.29357-1.00055,1.18186-1.47492,2.07018-1.18167.8883.3537,1.88885.94885,2.3033,1.77681,1.77661,3.49329-.46627,6.86592-3.7874,7.9268-.17163.06033-.4134-.06033-.58608-.06033-.06044-.17258-.12089-.29326-.18133-.41404m124.20641-5.44269c0,1.24211-.7685,2.07018-2.07018,2.07018-1.24232,0-2.13062-.82807-2.19106-2.00974,0-1.30244.94874-2.25129,2.25151-2.25129,1.24124.06044,2.00974.88841,2.00974,2.19085m144.32858.06044c0-1.30244.82785-2.13052,2.13062-2.19085,1.18188,0,2.00974.82797,2.00974,2.07006,0,1.30244-.82785,2.19085-2.07018,2.13052-1.30277,0-2.07018-.76774-2.07018-2.00974m133.55568-.18111c0,1.48355-.64653,2.19085-2.00974,2.19085-1.24232,0-2.07021-.76774-2.07021-2.00974,0-1.42322.76741-2.19085,2.1911-2.19085,1.24232,0,1.82837.7073,1.88885,2.00974Zm-492.804.12067c0-1.36278.82785-2.19085,2.13062-2.13041,1.18188,0,2.00974.88841,1.94929,2.19085,0,1.24199-.82785,2.07006-2.07018,2.07006-1.30277-.06033-2.00974-.76762-2.00974-2.13052"></path></svg> 