<?xml version="1.0" encoding="UTF-8"?> <svg xmlns="http://www.w3.org/2000/svg" id="Layer_1" data-name="Layer 1" viewBox="0 0 500 172"><path d="m62.34327,137.097h3.06364V17.2233h-15.25403v136.74195h11.45749c4.84294,0,8.76485-1.79581,8.76485-8.43355,0-5.62308-2.81161-8.4347-8.03196-8.4347Zm-1.86625,13.08836h-4.70219v-9.30848h4.25321c2.99974,0,4.53598,1.48884,4.53598,4.63061,0,2.31523-.87492,4.67787-4.08699,4.67787Zm12.50902-13.08836h5.62308v16.86825h-5.62308v-16.86825Zm27.8584,11.62371c0,5.71657-7.41789,5.76396-9.73327,5.76396-5.71772,0-9.85209-1.01567-10.18212-5.71672h6.66194c.14188,1.27538.85058,2.07871,3.77988,2.07871,1.4174,0,2.95349-.33002,2.95349-1.77162,0-.89798-.70856-1.20494-2.66959-1.51204l-5.62308-.85058c-3.47293-.51943-4.81989-2.26799-4.81989-4.7725,0-2.22074,1.37115-5.36237,8.76486-5.36237,6.11945,0,9.80471,1.46465,10.15906,5.45701h-6.37918c-.16508-1.1577-1.0861-1.96102-3.66105-1.96102-1.89059,0-2.9293.54363-2.9293,1.65392,0,.56683.40174.89798,1.25119,1.04,1.41726.23538,5.74078.87364,7.39484,1.15755,3.14163.54363,5.03222,1.81901,5.03221,4.7957Zm59.97215-11.62371h-7.77552l-48.68343-78.96096h-.33585v78.96096h4.6245c-3.74289.9438-6.4203,3.34798-6.4203,8.43469,0,6.99195,5.03222,8.95298,10.98545,8.95298s10.98545-1.96102,10.98545-8.95298c0-5.08672-2.67741-7.49089-6.4203-8.43469h8.96181v16.86825h5.62195v-5.62308h5.15119c1.41726,0,2.29105.47319,2.29105,3.11857,0,.78014.02305,1.77162.33116,2.5045h6.16571c-.7087-.85058-.80334-1.91364-1.06305-5.24454-.14188-1.81901-.96828-2.66959-2.03247-3.02393v-.04739c1.5119-.37741,2.69378-1.60653,2.69378-3.85034,0-2.81161-1.5119-4.70205-5.64614-4.70205h8.37464v16.86825h11.45749c4.84294,0,8.76485-1.79581,8.76485-8.43355,0-5.62308-2.81161-8.4347-8.03195-8.4347Zm-47.60515,13.60779c-2.99974,0-5.03107-1.62973-5.03107-5.17309,0-3.52017,2.03133-5.17423,5.03107-5.17423,3.02393,0,5.03222,1.65406,5.03222,5.17424,0,3.54337-2.00827,5.17309-5.03222,5.17309h0Zm24.55966-6.14266h-5.41076v-3.68525h5.41076c1.37002,0,2.10177.70871,2.10177,1.81901,0,1.1577-.73176,1.86625-2.10177,1.86625Zm21.17924,5.62323h-4.70205v-9.30848h4.25307c2.99974,0,4.53598,1.48884,4.53598,4.63061,0,2.31523-.87493,4.67787-4.087,4.67787Zm12.43858-13.08836h16.89145v3.63915h-11.2695v3.04699h10.56081v3.49598h-10.56081v3.04813h11.2695v3.638h-16.89145v-16.86825Zm35.72983,8.59977v-.04739c1.51204-.37741,2.69392-1.60653,2.69392-3.85034,0-2.81161-1.51204-4.70205-5.64628-4.70205h-13.51301v16.86825h5.62194v-5.62308h5.14991c1.41854,0,2.29218.47319,2.29218,3.11857,0,.78014.0232,1.77162.3313,2.5045h6.16556c-.70856-.85058-.80319-1.91364-1.06292-5.24454-.14203-1.81901-.96842-2.66959-2.03261-3.02393h.00001Zm-5.43267-1.13463h-5.41075v-3.68525h5.41075c1.37002,0,2.10177.70871,2.10177,1.81901,0,1.1577-.73176,1.86625-2.10177,1.86625Zm29.6128,4.15857c0,5.71657-7.4179,5.76396-9.73328,5.76396-5.71772,0-9.85196-1.01567-10.18212-5.71672h6.66194c.14203,1.27538.85058,2.07871,3.77988,2.07871,1.41741,0,2.95364-.33002,2.95364-1.77162,0-.89798-.70871-1.20494-2.66972-1.51204l-5.62308-.85058c-3.47293-.51943-4.81988-2.26799-4.81988-4.7725,0-2.22074,1.37116-5.36237,8.76485-5.36237,6.11945,0,9.80471,1.46465,10.15906,5.45701h-6.37918c-.16494-1.1577-1.08611-1.96102-3.66105-1.96102-1.89044,0-2.9293.54363-2.9293,1.65392,0,.56683.40174.89798,1.25119,1.04,1.41726.23538,5.74091.87364,7.39484,1.15755,3.14163.54363,5.03221,1.81901,5.03221,4.7957h-.00001Zm45.29218-4.7957c-1.65393-.28391-5.97743-.92217-7.39483-1.15755-.84945-.14203-1.25104-.47319-1.25104-1.04,0-1.11031,1.03871-1.65392,2.9293-1.65392,2.57496,0,3.49598.80334,3.66107,1.96102h6.37918c-.23937-2.69663-2.02904-4.21976-5.0315-4.93758h3.00102v-14.89498c-5.89305,8.30321-17.02779,14.89498-37.38604,14.89498h6.18876l-7.32326,16.86825h6.02369l1.0168-2.74003h7.37064l1.01567,2.74003h6.02369l-7.25168-16.86825h11.73031c-3.52557.98435-4.30203,3.17351-4.30203,4.84294,0,2.5045,1.34682,4.25307,4.81975,4.7725l5.62324.85058c1.96088.3071,2.66959.61407,2.66959,1.51204,0,1.4416-1.53623,1.77162-2.9535,1.77162-2.9293,0-3.63801-.80334-3.78002-2.07871h-6.6618c.33002,4.70105,4.46426,5.71672,10.1821,5.71672,2.31525,0,9.73313-.04739,9.73313-5.76396,0-2.97669-1.89045-4.25207-5.03221-4.7957h-.00002Zm-27.86408,3.80308l2.33829-6.37803h.04739l2.33942,6.37803h-4.72511.00001Zm53.91047.99261c0,5.71657-7.41788,5.76396-9.73313,5.76396-5.71787,0-9.85211-1.01567-10.18225-5.71672h6.66194c.14203,1.27538.85072,2.07871,3.78002,2.07871,1.41725,0,2.9535-.33002,2.9535-1.77162,0-.89798-.70983-1.20494-2.66959-1.51204l-5.62324-.85058c-3.47293-.51943-4.8199-2.26799-4.8199-4.7725,0-2.22074,1.37129-5.36237,8.76485-5.36237,6.11946,0,9.80485,1.46465,10.15905,5.45701h-6.37903c-.16508-1.1577-1.08611-1.96102-3.66107-1.96102-1.89059,0-2.9293.54363-2.9293,1.65392,0,.56683.40045.89798,1.25104,1.04,1.41854.23538,5.74092.87364,7.39483,1.15755,3.14164.54363,5.03221,1.81901,5.03221,4.7957h.00005Zm12.367-12.14314c-5.95323,0-10.98544,1.96102-10.98544,8.95412,0,6.99195,5.03221,8.95298,10.98544,8.95298,5.95438,0,10.98544-1.96102,10.98544-8.95298,0-6.9931-5.03106-8.95412-10.98544-8.95412Zm0,14.12723c-2.99961,0-5.03106-1.62973-5.03106-5.17309,0-3.52017,2.03148-5.17424,5.03106-5.17424,3.02393,0,5.03221,1.65406,5.03221,5.17424,0,3.54337-2.00828,5.17309-5.03221,5.17309Zm101.54236-14.12723c-5.95323,0-10.98544,1.96102-10.98544,8.95412,0,6.99195,5.03221,8.95298,10.98544,8.95298s10.98544-1.96102,10.98544-8.95298c0-6.9931-5.03221-8.95412-10.98544-8.95412Zm0,14.12723c-3.00088,0-5.03221-1.62973-5.03221-5.17309,0-3.52017,2.03133-5.17424,5.03221-5.17424,3.02393,0,5.03221,1.65406,5.03221,5.17424,0,3.54337-2.00828,5.17309-5.03221,5.17309Zm27.86652-13.60779h5.43381v16.86825h-6.21409l-8.0792-10.65415h-.04625v10.65415h-5.43381v-16.86825h6.47266l7.82063,10.56066h.04625v-10.56066Zm-94.964-119.87371l-30.60683,70.49353V17.2233h30.60683Zm-70.56511,31.11786v32.16327c-3.60869-4.73464-8.64973-7.84454-14.72009-9.22053v-.33585c8.1609-3.04045,14.17278-12.03199,14.72009-22.60689Zm-34.02751-31.11786h34.02753v27.53622c-.59115-11.53805-6.61598-27.53622-34.02752-27.53622h-.00001Zm-2.18246,81.59468c0,7.89079-5.70833,12.42421-14.10346,12.42421h-21.29821v-24.34407h21.29821c8.39513,0,14.10346,4.02907,14.10346,11.91986Zm147.73979-6.04417h-33.57824l16.62178-45.32962h.337l16.61949,45.32962h-.00002Zm59.43307-75.5505v119.8737l-51.54114-119.8737h51.54114Zm-224.46634,46.16982h-18.10819v-20.31385h18.10819c8.56249,0,12.25685,4.70077,12.25685,10.07324,0,5.53984-3.69435,10.24061-12.25685,10.24061Zm174.43479,54.2291h-52.38134l-7.05856,19.04488c-.68436-.05663-1.3861-.08952-2.11215-.08952-7.32211,0-10.6069,3.30785-10.6069,8.95412,0,5.81135,3.47293,8.95298,10.6069,8.95298,7.98457,0,9.99284-3.37829,10.67835-7.0163h-6.23715c-.37854,1.96102-1.89059,3.2364-4.41815,3.2364-3.63687,0-4.67557-2.38582-4.67557-5.17309,0-2.78855,1.15642-5.17424,4.67557-5.17424,3.19016,0,4.01656,2.03147,4.34899,3.2364h6.2602c-.83037-3.93842-3.05452-5.73096-5.9847-6.49686h8.45235v16.86825h5.62309v-16.86825h8.43712l-7.3244,16.86825h6.02483l1.01565-2.74003h7.37051l1.01565,2.74003h6.02483l-7.2528-16.86825h5.27926v3.77988h6.18863v13.08836h5.62324v-13.08836h6.18863v-3.77988h1.75896v16.86825h5.62094v-16.86825h4.0783l-7.22021-19.4748-.00007.00002Zm-33.35327,30.1059l2.34071-6.37803h.04611l2.33845,6.37803h-4.72527Zm-199.48273-55.01152L120.10976,17.2233h47.20569v75.4933h-.33589Z"></path></svg> 