<?xml version="1.0" encoding="UTF-8"?> <svg xmlns="http://www.w3.org/2000/svg" id="layer" viewBox="0 0 360 360"><path d="m197.97869,268.54362c20.286-.1962,40.489.9089,60.63,3.3052l-3.563,10.1016c-20.27499-3.6254-40.706-5.8771-61.281-6.7757-30.4489-.9399-60.6502,1.2911-90.6243,6.7034l-1.1982-3.3776c27.2886-6.2592,61.0637-10.0292,96.0365-10.0292v.0723Zm-2.757-16.2988c.00999-.0826-.011-.15491,0-.2376v.2376Zm-107.29564-116.4154v-.052c.08263-1.332.24789-2.65401.4648-3.95601.06197-.36099.12394-.72299.19625-1.084.22723-1.157.50611-2.293.8263-3.41899.08263-.27901.1446-.548.22723-.826.45447-1.47701,1.00189-2.903,1.59063-4.31799.08263-.175.16526-.36101.24789-.537,6.67244-15.20401,20.88474-26.71001,27.82574-31.916l2.7578-2.01401c-.093.062-.1963.155-.2892.23801,3.739-2.77901,7.7052-5.56801,12.1982-8.418h.0207c78.2303-47.99802,70.9173-53.57599,67.9733-57.94501l.217-.155c5.65,4.875,19.945,25.55402-44.0313,65.34-12.3119,7.664-22.0519,14.677-29.7262,21.246,4.462,4.42101,12.1466,10.608,24.6754,19.356,6.7551-7.02299,17.1768-14.78999,32.5873-24.293,68.29381-42.09001,28.0838-80.88399,17.22881-89.726l.206-.12399c12.736,7.065,65.061,53.01801-6.249,97.741-13.9952,8.78999-25.4705,16.00999-34.01241,23.075,6.2489,4.183,13.4997,8.903,21.7524,14.14,57.61401-39.797,50.89001-46.33501,48.359-50.41501l.207-.13399c5.082,4.689,19.563,24.23099-32.443,61.30099,13.696,10.23599,22.063,20.658,26.28699,30.821,59.886-48.297,18.726-89.664,4.731-99.765l.299-.166c17.34201,8.625,81.72101,59.92799-1.653,117.366-.144,20.276-14.48,38.1858-30.91399,49.3718-.01-.1859.269-.3718.269-.6094,9.203-14.4912,15.596-27.0097,15.834-39.3634-7.674,4.524-15.101,8.563-21.825,12.4053,3.998,8.02551,4.71,15.71011,1.457,23.0125.795-6.3522-2.231-12.8283-7.7056-19.3148-14.5739,8.8828-24.21059,17.4143-22.2791,29.9845l.0619.1032c-11.97099-6.4245-56.519-31.0379-31.9469-70.09069-.0206-.011-.031-.02101-.0413-.02101l-.0103.01001c-3.2329-2.05501-11.0931-6.455-19.3768-12.869-.7333-.56801-1.4357-1.136-2.1381-1.694-.2995-.248-.5887-.496-.8882-.744-17.97211-14.75999-23.70458-28.951-22.97123-41.54199m90.95524,88.17699c-8.5832-7.52-19.6764-15.019-31.2136-22.352-16.5983,20.327-8.6452,34.59109,14.8011,55.9097l.1446.2789c-3.7183-9.8123,1.7869-21.0294,16.2679-33.8366m5.2986-53.54501c-11.4029,8.04601-20.4613,15.132-27.3919,21.54601,12.6114,8.945,22.6613,17.58,29.5713,25.863,6.0424-4.64799,13.1074-9.492,21.3084-14.543l.041.021c1.529-.94,2.923-1.88,4.369-2.83-4.379-9.42-13.2-19.201-27.8978-30.05701m-63.6459-55.073c-19.7693,20.48201-16.681,36.399,1.0122,52.59401,4.3278,3.57399,9.3269,7.179,15.204,10.804,1.2808.78499,2.4789,1.56,3.7183,2.34499.4029.248.7437.444,1.1775.71201l-.0206.021.0619.041c6.3936-7.054,15.0491-14.50099,26.4211-22.34099-.09299-.06201-.1653-.11301-.2583-.16501-6.6104-4.11099-12.2086-7.963-17.2387-11.661-2.9644,5.216-4.3691,10.752-3.4808,17.177-3.708-8.315-5.34-15.38-3.4291-22.496-13.4998-10.939-20.3064-19.914-23.1675-27.03101m24.0557,192.6628c.062.63.093,1.2601.093,1.8901,0,.6301-.031,1.2601-.093,1.8902-.0619.6301-.1549,1.2601-.2892,1.8798-.1239.6198-.2789,1.2292-.4648,1.8386-.1859.599-.4028,1.1981-.6507,1.7765-.2479.5784-.5164,1.1568-.816,1.70426-.3098.55775-.6403,1.09485-.9915,1.62162-.3615.51643-.7437,1.02254-1.1465,1.508-.4132.48545-.8366.95024-1.2911,1.38405-.4545.44414-.9296.85729-1.4254,1.24978-.4958.40283-1.0122.76433-1.539,1.10518-.5267.34085-1.0845.66105-1.6422.95025-.5578.28921-1.1362.54743-1.7249.77466-.5888.22723-1.1879.43381-1.7973.59907-.6094.17559-1.2291.30986-1.8488.42348-.6301.10329-1.2498.17559-1.8798.22723-.6301.04132-1.2705.06197-1.9005.04132-.6301.02066-1.2602,0-1.8902-.04132-.6301-.05164-1.2601-.12394-1.8798-.22723-.6301-.11362-1.2395-.24789-1.8489-.42348-.6094-.16526-1.2085-.37184-1.7972-.59907-.5887-.22723-1.1672-.48545-1.7352-.77466-.5578-.2892-1.1052-.6094-1.6423-.95025-.5268-.34085-1.0432-.70235-1.539-1.10518-.4958-.39249-.9709-.80564-1.4254-1.24978-.4441-.43381-.8779-.8986-1.2911-1.38405-.4028-.48546-.785-.99157-1.1361-1.508-.3615-.52677-.6921-1.06387-.9916-1.62162-.2995-.54746-.5784-1.12586-.8263-1.70426s-.4648-1.1775-.6507-1.7765c-.1859-.6094-.3409-1.2188-.4648-1.8386-.1239-.6197-.2169-1.2497-.2789-1.8798s-.1033-1.2601-.1033-1.8902c0-.63.0413-1.2601.1033-1.8901.062-.6301.155-1.2498.2789-1.8695.1239-.6198.2789-1.2395.4648-1.8386.1859-.6094.4028-1.1981.6507-1.7868.2479-.5785.5268-1.1465.8263-1.7043.2995-.5577.6301-1.0948.9916-1.6113.3511-.5267.7333-1.0329,1.1361-1.508.4132-.4854.847-.9502,1.2911-1.3944.4545-.4338.9296-.8573,1.4254-1.2497.4958-.3925,1.0122-.7644,1.539-1.1052.5371-.3409,1.0845-.6611,1.6423-.9399.568-.2892,1.1465-.5475,1.7352-.785.5887-.2273,1.1878-.4235,1.7972-.5991.6094-.1653,1.2188-.3099,1.8489-.4131.6197-.1137,1.2497-.186,1.8798-.2376.63-.0413,1.2601-.0517,1.8902-.0413.63-.0104,1.2704,0,1.9005.0413.63.0516,1.2497.1239,1.8798.2376.6197.1032,1.2394.2478,1.8488.4131.6094.1756,1.2085.3718,1.7973.5991.5887.2375,1.1671.4958,1.7249.785.568.2788,1.1155.599,1.6422.9399.5268.3408,1.0432.7127,1.539,1.1052.4958.3924.9709.8159,1.4254,1.2497.4545.4442.8779.909,1.2911,1.3944.4028.4751.785.9813,1.1465,1.508.3512.5165.6817,1.0536.9915,1.6113.2996.5578.5681,1.1258.816,1.7043.2479.5887.4648,1.1774.6507,1.7868.1859.5991.3409,1.2188.4648,1.8386.1343.6197.2273,1.2394.2892,1.8695m-8.2423,1.8798c0-6.9719-4.71-12.4255-11.1654-12.4255v.0103c-6.4865,0-11.2171,5.4639-11.2171,12.4152,0,6.9616,4.7306,12.42552,11.2171,12.42552,6.4968,0,11.1654-5.44322,11.1654-12.42552m37.5761-3.7184h-15.5552v-14.6048h-7.4883v36.67744h7.4986v-15.72044h15.5552v15.72044h7.4883v-36.67744h-7.4986v14.6048Zm30.4592-.5577c-2.82999-1.0122-6.29-1.7869-6.29-4.617,0-2.4169,2.25201-3.677,4.762-3.677,1.43501.0929,2.80901.4235,4.121.9915,1.322.5681,2.499,1.3428,3.553,2.324l4.235-5.3503c-1.705-1.4047-3.605-2.4892-5.691-3.2329-2.087-.754-4.235-1.1258-6.456-1.1258-6.084,0-12.002,3.2432-12.002,10.2668,0,7.0339,5.34,9.1306,10.112,10.9072,3.698,1.3014,7.065,2.4066,7.065,5.6601s-2.882,4.66864-5.826,4.66864c-3.821,0-6.125-1.79721-9.11-4.62734l-4.978,4.87523c.899.98123,1.88,1.84885,2.954,2.61318,1.074.77466,2.21,1.41504,3.419,1.95214,1.208.52677,2.458.91926,3.759,1.18781,1.292.26855,2.593.39249,3.915.39249,6.394,0,13.872-3.35685,13.872-11.32035,0-7.6536-6.239-10.1119-11.414-11.8884m39.704,6.3315c0,7.01327-2.83,10.37012-7.282,10.37012-4.451,0-7.28101-3.29488-7.28101-10.37012v-20.3786h-7.489v19.3871c0,11.52688,4.40001,17.9204,14.66701,17.9204,10.48399,0,14.88399-6.39352,14.88399-17.9204v-19.3871h-7.49899v20.3786Z"></path></svg> 