<?xml version="1.0" encoding="UTF-8"?> <svg xmlns="http://www.w3.org/2000/svg" id="layer" viewBox="0 0 600 200"><path d="m240.93648,175.16357v1.74734c-1.9658-.2912-5.75177-.2912-8.95525-.2912-3.71318,0-7.64473.2912-9.61053.50966v-1.9658c1.96575-.29125,3.20348-.50966,4.14996-1.45614,1.23773-1.23773,1.23773-4.15001,1.23773-10.62985v-10.41139c0-4.44121,0-6.69825-.80086-7.64473-.50966-.80086-1.45614-1.23773-4.15001-1.45614v-2.257c1.45614.2912,5.46052-.29125,8.3728-.8009,1.45614-.2912,2.91228-.80086,4.00438-1.23773l.80086.8009c-.2912,2.40262-.2912,7.64473-.2912,14.5614v10.6298c0,4.95087.2912,7.20791.80086,8.15439.8009.94648,2.25704,1.74739,4.44125,1.74739Zm40.62633-34.72894c-1.45614,0-4.65966.2912-7.20791.2912-1.23773,0-2.40262,0-3.71314-.2912-.94648,0-2.40262-.29125-3.49473-.29125v1.9658c1.23773,0,2.40262.50966,2.91228.94648.2912.29125.80086.94648.80086,1.45614,0,.8009-.2912,1.45614-.94648,3.71318l-7.20786,17.47367c-.29125-.94648-.8009-2.40262-1.45614-4.44125l-4.95087-13.10526c-.8009-1.9658-.94648-2.69387-.94648-3.71314,0-.50966,0-.94648.50966-1.23773.80086-.8009,1.9658-1.23773,3.20348-1.23773v-1.9658h-.00009v.14562c-.80086,0-2.40262,0-3.49473.29125-1.9658,0-4.00438.2912-5.46052.2912-2.69387,0-6.69825-.2912-7.86314-.2912v2.257c.50966,0,2.40262-.2912,3.71314,2.25704.50966.94648.8009,1.74734.94653,2.257.2912.50966.50961.94648.50961,1.23773l11.86757,29.63245,3.71314-.80086,13.10526-29.12279c0-.29125.29125-.50966.50966-.94648.29125-.29125.29125-.8009,1.23773-2.25704.8009-1.45614,2.40262-2.257,3.71318-2.257v-2.25704Zm-66.76405,25.11841v-10.6298c0-2.03863-.21841-5.24211-.50966-6.69825-1.31052-5.46052-5.46052-8.66405-12.15873-8.66405-4.87808,0-8.88246,2.03859-10.62985,3.49473v-2.91228l-.80086-.50966c-1.74739.65528-2.69387.94648-4.95091,1.45614-2.59833.49157-5.19007.7746-7.13503.53308v2.81603c2.40262-.21841,3.64035.43687,4.14996,1.23773.8009.94653.8009,2.91228.8009,7.35353v10.41139c0,6.18859-.29125,9.39207-1.23773,10.6298-.80086.94648-2.54824,1.45614-4.00438,1.45614v1.74739c2.69387-.50966,4.15001-.50966,9.10087-.50966,2.47545,0,6.18859,0,9.39212.80086v-1.74734c-1.52897,0-2.98511-.43682-3.49477-.94648-1.16489-1.31052-1.45614-3.0579-1.45614-8.95525v-19.36664c1.45614-.65528,3.71318-1.45614,6.91666-1.45614,4.73245,0,7.13512,2.257,7.64473,6.91666.29125,2.62103.29125,5.67894.29125,8.3728v6.40701c-.21841,4.44121-.50966,6.69825-1.45614,7.64473-.8009.43682-1.9658.94648-3.71318,1.23773v1.74734c1.89301-.21841,5.60615-.50966,9.10087-.50966,2.40267,0,6.69825.29125,9.10087.29125v-1.74739c-1.52893,0-2.98507-.43682-3.49473-.94648-1.16489-1.31052-1.45614-3.05786-1.45614-8.95525Zm172.77095-32.61752c2.91228,0,4.95087-1.74739,4.95087-4.65966,0-2.69387-1.74734-4.44121-4.65962-4.44121-2.98507,0-4.95087,1.96575-4.95087,4.65962s1.74734,4.44125,4.65962,4.44125Zm-227.08493-7.35353v1.9658c1.52893.29125,2.69382.72807,3.49473,1.23773,1.16489.94648,1.45614,1.96575,1.45614,7.86314v19.22102c0,10.55701-.72807,17.47367-12.5956,17.47367-11.64912,0-12.59564-6.69825-12.59564-17.10964v-17.47367c0-6.40701,0-8.664,1.23773-9.90173,1.0921-.94648,2.25704-1.45614,4.00438-1.45614v-2.25704c-2.69387.50966-5.24211.50966-9.39207.50966-2.40267,0-6.69825-.21841-9.10087-.50966v1.9658c1.74734.29125,2.98507.72807,3.49473,1.23773,1.16489.94648,1.45614,1.9658,1.45614,7.86314v19.73072c0,3.49473,0,7.86314,1.23773,11.35787,2.257,6.91666,8.37276,10.12019,18.78419,10.12019,10.3386,0,16.30874-3.20352,18.63857-9.53774,1.45614-4.15001,1.45614-9.39212,1.45614-14.05174v-14.85264c0-6.40701,0-8.664,1.23773-9.90173,1.0921-.94648,2.257-1.45614,4.00438-1.45614v-2.25704c-3.20352.50966-5.97018.50966-8.66405.50966-2.98507,0-5.89735-.2912-8.15435-.2912Zm70.9868,7.35353c2.91228,0,4.87803-1.74739,4.95087-4.65966,0-2.69387-1.74739-4.44121-4.65966-4.44121-2.98507,0-4.95087,1.96575-4.95087,4.65962s1.74739,4.44125,4.65966,4.44125Zm161.12183,40.48066c-.50966-.94648-.80086-3.20352-.80086-8.15439v-10.6298c0-6.91666,0-12.15877.2912-14.5614l-.80086-.8009c-.8009.43687-2.54824.94653-4.00438,1.23773-2.91228.50966-6.91666,1.0921-8.3728.8009v2.257c2.69387.21841,3.64035.65528,4.15001,1.45614.80086.94648.80086,3.20352.80086,7.64473v10.41139c0,6.47984,0,9.39212-1.23773,10.62985-.94648.94648-2.18421,1.16489-4.15001,1.45614h-.14558v1.9658c1.9658-.21846,5.89735-.50966,9.61053-.50966,3.20348,0,6.84383,0,9.10087.2912v-1.74734c-2.18421,0-3.64035-.8009-4.44125-1.74739Zm21.33244-41.28152h-1.74739c-2.257,4.00438-4.2228,6.69821-6.91666,8.95525-1.45614.94648-2.69382,1.60172-4.65962,2.40262v1.45614h4.95087v18.42016c0,1.89296,0,5.60615.50966,7.35349,1.16489,4.73245,4.36842,6.69825,10.12014,6.69825,5.89739,0,8.66405-2.91228,9.90178-4.15001l-.58249-1.67451c-1.01927.65524-2.76666,1.45614-5.16928,1.45614-5.46052,0-6.40701-3.34915-6.40701-9.10087v-19.22106h12.30435v-4.44121h-12.30435v-8.15439Zm48.27106,8.51838c-1.23773,0-2.69387-.29125-3.49473-.29125-.8009-.2912-2.40267-.2912-3.20352-.2912v2.257c1.16489,0,2.11142.43682,2.91228.94648.50961.50966.80086.94648.80086,1.45614,0,1.01932-.14562,1.45614-.94648,3.71318l-6.69825,19.51226c-.29125-1.16494-.94653-2.91228-1.74739-5.16932l-5.46052-14.27015c-.65524-1.9658-.94648-2.7667-.94648-3.71318,0-.50961,0-1.23768.80086-1.74734.65528-.65528,1.9658-.94648,2.91228-.94648h.14562v-.14562h.29125v-1.9658c-.80086,0-2.54824.29125-3.49473.29125-1.96575.2912-3.93155.2912-5.16928.2912-1.9658,0-5.89735,0-8.15439-.2912v2.257c1.52893,0,2.69387.50966,3.49473,1.9658,0,0,.65528,1.45614.94648,2.25704.21846.43682.50966.94648.50966,1.23773l11.79474,30.79734-.80086,2.257c-2.98511,7.86314-4.95091,11.86753-9.39212,11.86753-2.83945,0-4.80524-.94648-5.75172-3.20348h-.94648l-3.49473,4.15001v.94648c2.257,1.9658,4.95087,2.91228,8.95525,2.91228,9.61049,0,12.30435-6.69825,14.27015-12.15877l14.05174-37.49559c1.96575-5.75177,4.2228-5.16932,5.16928-5.46052v-2.25704c-1.45614,0-4.95087.29125-7.35349.29125Zm-97.34298,15.36221l-4.95087-2.91228h-.2912c-1.74739-1.23773-3.71318-2.54824-3.71318-4.95087,0-3.20352,2.03859-4.65966,5.75177-4.65966,2.69387,0,4.95087.72807,5.89735,1.9658s1.45614,2.69387,1.45614,4.15001h2.40262c-.2912-.80086-.2912-4.14996-.2912-4.95087,0-.94648,0-3.49473.2912-4.44121-2.40262-.43682-6.69825-.94648-9.61053-.94648-1.60176,0-5.09649,0-7.35349,1.23773-3.42194,1.74734-5.16932,4.95087-5.16932,9.10087,0,5.24207,3.20352,7.64473,5.89739,9.39207l5.16928,3.20352c2.91228,1.74734,4.65966,3.05786,4.65966,5.75172,0,3.42194-2.18421,5.16932-6.18859,5.16932h-.50966c-3.20352,0-4.95087-.65528-6.40701-2.40262-.94648-.94648-1.45614-2.69387-1.45614-4.65966h-2.40262c.21841,1.9658.50966,5.89739.50966,9.61053,3.49473,1.23773,6.69825,1.45614,9.61053,1.52888,5.09649,0,14.05174-1.45614,14.05174-11.06667,0-5.67894-4.15001-8.15435-7.35353-10.12014Zm-54.96922-11.2122c2.257,3.49473,2.40262,6.91666,2.40262,9.90173v2.25704h-22.9342c0,1.9658.2912,3.49473.50966,4.65962,1.23773,7.20791,5.16928,10.62985,12.15877,10.62985,4.00438,0,6.40701-.8009,8.664-2.25704l.94648,1.74739c-2.32983,3.27631-7.2807,5.67894-13.25088,5.67894-11.06667,0-17.10964-6.40701-17.10964-18.05612,0-1.9658.50966-20.02192,17.25526-20.02192,4.95087,0,9.39212,1.9658,11.35791,5.46052Zm-6.1158,7.93593c0-4.44121-.8009-9.39207-7.20791-9.39207-5.60615.2912-6.77104,5.60615-7.06229,9.39207h14.27019Zm34.07366-13.17804c-3.93155,0-6.62542,1.74734-8.3728,3.49473v-3.20352l-.80086-.2912c-.94653.43682-2.18421.72807-4.44125,1.23773-2.56015.48437-5.18239,1.02531-7.49911.82868v2.81167c2.18421,0,3.64035.43687,4.15001,1.23773.80086.94653.80086,2.91228.80086,7.35353v10.41139c0,6.47979,0,9.39207-1.23773,10.6298-.80086.65528-2.03859,1.45614-4.00438,1.45614v1.9658c2.69387-.50966,6.40705-.50966,9.90178-.50966,2.98507,0,7.49911,0,9.90173.29125v-1.9658c-1.74734,0-4.80524-.29125-5.75172-1.74739-.50966-.94648-.8009-3.20352-.8009-8.15439v-18.56578c1.31052-.72807,2.54824-1.23773,4.00438-1.23773,3.49473,0,5.24211,1.45614,6.18859,3.20352h1.45614l2.91228-5.75177v-1.23773c-1.74734-1.45614-3.49473-2.257-6.40701-2.257Zm-108.84643-54.38682l1.74734,2.257c-2.91228,4.00438-6.40701,7.20791-12.15873,7.20791-4.44125,0-7.64473-2.25704-8.95529-5.89739-1.82013,2.54829-6.55258,5.75177-13.6877,5.75177-15.58067,0-16.81839-11.86753-16.81839-15.36225,0-4.15001.94648-11.86753,11.06667-15.58071,10.12014-3.71314,12.30435-4.15001,19.51226-6.40701v-1.74734c0-3.49473,0-4.15001-.8009-6.40701-1.23768-4.00438-5.16928-6.69825-10.6298-6.69825-5.16932,0-9.61053,2.91228-11.64912,7.20786l-2.91228-1.74734c1.74734-6.40701,8.3728-12.81405,19.73067-12.81405,7.86319,0,13.32371,2.25704,16.52719,7.20791,2.40262,4.00438,2.69387,9.39207,2.69387,14.8526,0,4.95087-.29125,10.41139-.29125,14.85264,0,2.91228-.2912,5.75172-.2912,7.35349,0,4.00438.80086,7.20791,4.00438,7.20791,1.45614,0,1.74734-.50966,2.91228-1.23773Zm-19.07544-20.9684h-.21841v.07279c-7.64473,2.25704-10.41139,3.49473-12.5956,4.65966-3.49477,1.74734-4.95091,4.95087-4.95091,9.10087,0,3.20348,1.23773,8.3728,8.66405,8.3728,2.40262,0,5.89735-.50966,9.10087-2.69387v-19.51226Zm83.36403,11.86753v-16.81839c0-3.0579-.29125-8.15439-.8009-10.41139-1.89296-8.66405-8.59121-13.61491-19.0026-13.61491-8.15439,0-13.90616,3.20348-16.81844,5.46052v-4.44125l-1.23773-.80086c-2.69387,1.16489-3.93155,1.60176-7.64473,2.40262-3.95168.73678-8.02659,1.0422-10.92105.85969v2.99907c4.00438,0,5.89735,1.01932,6.69825,2.25704.94648,1.52893,1.23773,4.44121,1.23773,11.64912v17.10964c0,9.61053-.21846,14.5614-1.9658,16.52719-1.23773,1.45614-3.78597,2.40262-6.18859,2.40262v2.83945c4.44121-.21841,6.91666-.50966,14.5614-.50966,3.64035,0,9.39212.21846,14.05174.50966v-2.69387c-2.257,0-4.51404-.94648-5.46052-1.74734-1.74734-1.67455-2.257-4.44125-2.257-13.83333v-30.14211c2.47541-1.16489,5.67894-2.40262,10.84821-2.40262,7.49915,0,11.35791,3.49473,12.15877,10.84821.50966,4.44125.50966,8.95525.50966,13.10526,0,3.20352-.2912,7.64473-.2912,9.90178-.29125,7.20791-.50966,10.41139-2.25704,12.15877-1.0921.72807-2.83945,1.67455-5.75172,1.9658v2.69387c3.20348-.21846,9.10087-.50966,14.27015-.50966,3.85881,0,10.55701.21841,14.27019.50966v-2.69387c-2.83949,0-4.80529-.94648-5.75177-1.74739-1.74734-1.67455-2.257-4.44121-2.257-13.83333Zm-179.178-27.52103l-8.66405-5.75172c-7.57194-4.95087-11.06667-7.35353-11.06667-14.05174,0-4.95091,1.45614-11.35791,14.27019-11.35791,5.46052,0,10.55701,1.23773,12.81401,3.49473,1.67455,1.74739,2.91228,4.15001,2.91228,8.15439h2.91228c-.29125-4.44121-.29125-5.38769-.29125-9.10087,0-3.20348.29125-6.84383.29125-7.64473-4.73245-.65524-12.5956-1.45614-18.78419-1.45614-23.95351,0-25.91931,16.30878-25.91931,21.25965,0,10.12014,4.95091,15.07105,14.5614,21.47806l6.91666,4.65962.94653.8009c6.40701,4.51404,11.06662,7.71752,11.06662,15.36225,0,8.95525-5.16928,13.10526-16.01753,13.10526-5.16928,0-10.92105-1.74734-13.32367-4.44121-1.74734-1.74739-2.69387-4.44125-2.69387-8.15439h-3.49473c.50966,5.89735.50966,10.77542.50966,16.52719,5.89735,1.96575,12.15877,3.05786,19.65788,2.03859,8.15439,0,27.66665-2.18421,27.66665-22.9342,0-12.37719-6.91666-17.03685-14.27015-21.98772Zm49.72716,39.24293c-8.3728,0-10.12019-4.95087-10.12019-14.05174v-30.14206h19.51231v-7.20791h-19.51231v-12.81401h-2.40262c-3.27631,6.18859-6.18859,10.3386-10.6298,13.83333-2.03863,1.60176-4.29563,2.76666-7.20791,4.00438v2.257h7.71752v4.00438c-.2912,8.66405-.2912,16.09037-.2912,25.19124,0,3.27631,0,8.95525.94648,11.64912,2.18421,7.20786,7.06229,10.41139,16.01753,10.41139,9.39212,0,13.83333-4.44125,15.58071-6.69825l-1.45614-2.69387c-1.45614,1.01927-4.15001,2.257-8.15439,2.257ZM331.36275,11.63907c1.60172-1.45614,4.00438-1.9658,5.75172-1.9658,5.16932,0,8.15439,2.69387,10.12019,7.35353h1.45614l5.75172-7.86314-.2912-1.23773c-3.49473-2.69387-8.80967-4.65966-14.5614-4.65966-13.03247,0-20.6772,5.89739-22.9342,17.76492-.65528,3.71314-.94648,10.19298-.94648,15.36225-1.45614,1.31056-4.15001,2.7667-7.35353,4.00438v3.20352h7.35353v28.75876c0,9.61053-.21846,14.5614-1.9658,16.52719-1.23773,1.60172-3.78597,2.40262-6.18859,2.40262l.07283,2.54824c3.71314-.21846,8.3728-.50966,15.58067-.50966,4.73245,0,11.4307.21841,15.58071.50966v-2.91228c-2.40262,0-7.64473-.29125-9.10087-2.69387-.94653-1.45614-1.23773-5.16932-1.23773-12.81405v-31.88945h12.81401v-7.20786h-12.81401v-11.06667c0-7.42632.50966-11.21229,2.91228-13.61491Zm186.09457,77.32102v2.91228c-3.71314,0-7.86314.50966-12.3044,1.23773-2.91228.50966-5.16928.94648-6.40701,1.45614l-1.45614-.50966v-4.95087c-2.91228,2.25704-8.3728,5.46052-16.01753,5.46052-15.79912,0-25.91927-10.84821-25.91927-27.88506,0-5.75172.94648-10.84821,2.91228-15.58067,4.95087-10.41139,14.85264-16.30878,27.37541-16.30878,4.65966,0,8.66405.50966,11.06667.94653v-12.15877c0-7.20791,0-10.84826-1.23773-12.5956-.80086-1.23773-1.9658-1.74739-6.18859-1.9658v-2.32983h.29125v.07274c3.49473,0,7.86314-.80086,13.61491-1.74734,3.20352-.50966,5.16928-1.23773,6.18859-1.45614l.94648.50966c-.50966,4.65962-.50966,15.36225-.50966,22.9342v46.88767c0,6.91666,0,11.35791.94648,12.81405.94648,1.23773,2.91228,2.257,6.69825,2.257Zm-20.53153-43.17453c-.94648-.94648-4.44121-4.00438-11.35787-4.00438-11.06667,0-16.52719,7.64473-16.52719,23.51664-.21846,6.62542,1.74734,21.18681,18.49295,21.18681,4.00438,0,6.69825-.50966,9.39212-2.257v-38.44207Zm-67.71049-4.87808v-4.95087l-.94648-.50966c-1.16494.72807-3.42194,1.45614-6.91666,1.9658-4.38762.64737-8.49038,1.22031-12.44998.95324v3.99763c3.78597,0,5.75177.72807,6.69825,1.96575,1.23773,1.52897,1.23773,4.44125,1.23773,11.64912v16.01753c0,9.82894-.21841,14.5614-1.9658,16.52719-1.23773,1.45614-2.98507,2.11142-6.18859,2.40262v2.91228c4.51404-.50966,10.12019-.50966,15.58071-.50966,4.73245,0,11.57628.21846,15.58067.50966v-3.20348c-2.69387.29125-7.64473,0-9.10087-2.40262-.94648-1.52893-1.23773-4.95087-1.23773-12.5956v-29.41404c1.74739-1.23773,3.78597-1.74734,6.18859-1.74734,5.16932,0,8.15439,2.47541,9.61053,5.16928h2.40262l4.95087-8.95525v-1.74739c-2.7667-2.257-5.67898-3.49473-10.12019-3.49473-6.1158,0-10.6298,2.76666-13.32367,5.46052Zm-26.35613,23.15261c0,14.27019-7.71752,30.87018-29.12279,30.87018-17.47367,0-27.88506-10.84826-27.88506-29.12279,0-14.27019,7.64473-30.87018,29.12279-30.87018,17.47367,0,27.88506,10.84826,27.88506,29.12279Zm-13.54208.72807c-.07283-3.93155-.72807-23.2254-14.85264-23.2254-3.49473,0-6.18859.94648-8.15439,2.69382-4.65962,4.00438-6.91666,10.84826-6.91666,20.9684,0,4.00438.8009,23.22544,14.85264,23.22544,3.49473,0,6.18859-.94648,8.15439-2.69387,4.65962-4.00438,6.91666-10.84826,6.91666-20.9684Z"></path></svg> 