<?xml version="1.0" encoding="UTF-8"?> <svg xmlns="http://www.w3.org/2000/svg" id="layer" viewBox="0 0 652 200"><path d="m499.09483,125.42607l7.58327-20.05705,1.32092,1.13944c4.65573,3.79764,10.9671,7.02847,16.93176,7.15381,5.32612.12421,7.93302-1.29479,7.22354-5.80344-.52754-3.36977-4.3311-3.9616-6.70262-4.4302l-5.216-1.04135c-10.14214-1.89364-18.67341-8.15375-18.67341-20.00092,0-17.91979,15.45187-27.96985,30.98875-27.96985,8.16723,0,15.65015,2.07834,22.66437,6.63554l-6.58472,17.77326c-3.61185-2.60095-9.07636-6.26122-15.99901-6.513-2.27553-.08548-7.48071,1.1073-5.81541,6.39581.72151,2.24997,3.94851,3.19545,5.93088,3.67824l5.87977,1.419c10.99768,2.55944,18.95355,8.81632,18.95355,21.61108,0,18.01298-15.54339,26.93018-30.98985,26.93018-9.00537,0-19.44178-2.56336-27.4958-6.92056m-31.599-69.77972h26.00702v75.57123h-26.00702V55.64635Zm-29.82912,0h27.10775l-27.68104,75.57123h-21.99097l-27.59052-75.57123h27.01289l11.57421,45.5987,11.56769-45.5987Zm-114.33818,75.57123h27.49044l2.08703-9.4915h19.6227l2.60364,9.4915h27.50013l-25.74443-75.57123h-28.83521l-24.7243,75.57123Zm39.43288-53.75892h0c.4828,3.21666,5.2171,26.34484,5.2171,26.34484h-10.39827l5.18117-26.34484Zm-80.77293,32.05833h1.77971c8.72259,0,15.19139-5.23284,15.19139-15.09328,0-10.61834-5.73482-16.54219-15.31236-16.54219h-1.65871v31.63548h-.00003Zm-26.16841-53.87063h26.64193c24.17992,0,42.65826,11.10011,42.65826,38.87333,0,22.37722-15.0655,36.6979-36.21021,36.6979l-33.08998-.0414V55.64635Zm-15.8295,2.37049l1.41085,12.39703c.33245,2.9458,2.00913,10.0091-.05826,9.06362-1.30405-.58357-2.37263-3.78828-3.43853-6.62673-.53836-1.44523-3.11745-8.2698-3.79051-8.77278-3.25539-2.43748-11.37744-5.18116-16.8703-5.20671-16.66696-.06272-27.68917,12.22806-27.68917,34.03645,0,15.64103,7.49163,34.4082,26.54482,34.4082,6.82794,0,19.90561-2.1492,23.46499-11.8619,1.60594-4.3965,3.08106-8.30028,4.14684-7.11843.78801.86926-.2386,4.38723-.71323,6.28199-2.24617,9.00593-2.36828,11.73266-3.0805,12.08365-8.60919,4.31792-19.6467,5.74351-29.31308,5.74351-30.72226,0-41.33791-17.92314-41.33791-35.83969,0-31.09612,19.10442-43.96721,48.72708-42.85121,7.48615.28067,14.97833,1.61307,21.99689,4.26301m-90.72866,1.37481l-4.91578-1.7143c-1.6576-1.48663.35533-1.89855.35533-1.89855,0,0,7.10962,1.31599,24.82998-.18202,0,0,1.53831.3041.46973,1.55135l-5.80568,2.48768c-3.79039,1.65436-3.79039.70621-3.79039,4.85418l-.03058,38.51241c0,30.11794-30.64324,29.44231-36.61565,29.44231-2.839,0-30.71836,0-30.71836-24.18214v-40.76351c0-7.10973.75844-6.919-1.60648-7.75433l-7.11073-2.66636s-1.1977-1.70559.94324-1.59656c5.80891.29697,14.22414,1.54209,33.77989.11495,0,0,1.71597.4185.58791,1.66151l-5.6857,1.66151c-4.5032,2.01617-3.90758.47184-4.02755,5.09657l.13895,40.19634c0,9.85823,5.07323,22.05906,20.80745,22.05906,21.71733,0,21.91899-18.78291,21.91899-22.95598l.03973-39.82361c.23224-3.74743-.24139-2.67886-3.56428-4.10054"></path></svg> 