<?xml version="1.0" encoding="UTF-8"?> <svg xmlns="http://www.w3.org/2000/svg" id="layer" viewBox="0 0 652 200"><path d="m110.86585,54.17124v-.34309c0-3.00205-2.40164-5.40369-5.40369-5.40369s-5.40369,2.40164-5.40369,5.40369v.34309h0v14.8387h10.80737v-14.8387Zm0,44.68763v-15.01024h-10.80737v15.01024h0v.25731h10.80737v-.25731Zm-10.80737,29.93469v.08578c0,3.00204,2.40164,5.40369,5.40369,5.40369s5.40369-2.40163,5.40369-5.40369v-14.83868h-10.80737v14.75291Zm15.09601-46.06h0v1.28659h10.80737v-30.27781c0-3.00205-2.40164-5.40369-5.40369-5.40369s-5.40369,2.40164-5.40369,5.40369v.34309h0v13.46633h0v15.18181h0Zm10.80737,16.12529h-10.80737v16.12528h0v13.89521c0,3.00204,2.40164,5.40369,5.40369,5.40369s5.40369-2.40163,5.40369-5.40369v-12.9517h0v-17.06879Zm4.28864,2.40162h-2.2301v10.80738h30.02049c2.91628-.08578,5.31792-2.48741,5.31792-5.40368,0-3.00205-2.40164-5.40368-5.40369-5.40368-.08578,0-.25732,0-.42887.08578h-16.46838l-10.80737-.0858h0Zm0,27.61885h0c0,3.08784,2.40164,5.48945,5.40369,5.48945s5.40369-2.40163,5.40369-5.40369v-14.75291h-10.80738v14.66713h0Zm10.80737-30.02047v-15.01024h-10.72161v15.01024h-.08577v.25731h10.80737s0-.25731,0-.25731Zm0-44.68763v-.34309c0-3.00205-2.40164-5.40369-5.40369-5.40369s-5.40369,2.40164-5.40369,5.40369v.34309h0v14.8387h10.80737v-14.8387Zm-27.96193,57.81086v-10.80738h-29.84894c-3.00205,0-5.40369,2.40162-5.40369,5.40368s2.40164,5.40368,5.40369,5.40368h29.84894s0,.00003,0,.00002Zm-.17154-15.09602h.08577v-.08576h15.26756v-10.72161h-15.35333v10.80735h0Zm-29.24853-10.80734h-.42887c-3.00205,0-5.40369,2.40162-5.40369,5.40368s2.40164,5.40368,5.40369,5.40368h14.75292v-10.80738h-14.32406s0,.00003,0,.00002Zm74.19348,10.80735h.08578c2.91628,0,5.31792-2.40162,5.31792-5.40368s-2.40164-5.40368-5.40369-5.40368h-14.75292v10.80738h14.75292v-.00003h-.00001Zm-29.59162-15.09599h29.76316c2.91628-.08578,5.31792-2.48741,5.31792-5.40369,0-3.00205-2.40164-5.40369-5.40369-5.40369-.17154,0-.25732,0-.42887.08578h-29.50584v10.80738h.25732s0-.08578,0-.08579Zm-16.03952,0h.85772v-10.80738h-29.50584c-.08577,0-.25732-.08578-.34309-.08578-3.00205,0-5.40369,2.40164-5.40369,5.40369s2.40164,5.40369,5.40369,5.40369h28.99121v.08579Zm479.72729,44.08721l-2.91628-.34309c-3.94552-.42887-4.11708-1.62968-4.11708-9.43501v-18.09807c0-7.63378-3.68821-13.98095-13.98096-13.98095-5.48949,0-10.72162,2.57318-14.66714,5.66101-.34312-.25731-.42887-1.11504-.42887-2.05854v-22.81557c0-4.80328.25731-10.20695.34312-13.46633-.25731-.42887-.68618-.68619-1.11505-.68619-3.94552,2.05854-9.00614,3.68824-11.75086,4.54596-.51462.34309-.51462,1.80124,0,2.14432l1.11505.68619c3.25934,1.97277,3.34515,2.57318,3.34515,9.00614v49.06205c0,2.83049,0,4.80329-.25731,6.08988-1.20086,3.1736-4.37439,2.91628-6.69024,2.91628-9.69232-.17156-10.89318-5.74679-10.89318-12.00819v-20.32816c0-2.31588.08575-2.57318,1.97279-2.57318h8.23416c.94349-.68617,1.20086-3.60247-.08575-4.54595h-8.06271c-1.88703,0-1.97279-.08578-1.97279-2.05854v-9.00614c-.42887-.77195-2.23004-.42887-2.57316,0-1.28661,2.48741-2.31585,7.46225-4.4602,9.86387-.85774,1.02928-3.51665,2.31588-6.69024,3.25936-.42887.68617-.42887,1.97277.25731,2.48741h3.00203c2.14435,0,2.31585.17156,2.31585,3.1736v24.87412c.08575,3.94555,4.03133,10.03542,13.55209,10.29273h1.62972c4.54595-.08578,11.23624-.08578,14.75295-.08578,3.77402,0,6.9476.08578,10.207.34309.77199-.34309.94349-2.48741.25731-2.91628l-2.31585-.34309c-3.94552-.51463-4.11708-1.62968-4.11708-9.43501v-18.18384c0-3.774.34312-4.37442,2.31585-6.00409s4.80326-2.91627,8.49152-2.91627c6.9476,0,10.29275,4.63173,10.29275,11.57933v15.52488c0,7.80533-.08575,8.74883-4.11708,9.43501l-2.14435.34309c-.77199.51463-.51462,2.57317.25731,2.91628,2.91628-.25731,6.17567-.34309,10.12119-.34309,3.77402,0,6.9476.08578,10.80737.34309.68613-.34312.85768-2.40166.08575-2.9163m-77.79595.08578l-2.57316-.34309c-3.85977-.51463-4.11708-1.62968-4.11708-9.34923v-50.77749c0-4.7175.17156-10.12119.34312-13.29478-.25731-.42887-.68618-.68619-1.11505-.68619-3.85977,2.05854-8.92039,3.68824-11.57936,4.54596-.51462.34309-.51462,1.80124,0,2.14432l1.11505.68619c3.25934,1.97277,3.34515,2.57318,3.34515,8.92037v48.54741c0,7.71955-1.71548,8.83458-4.03133,9.34923-.60043.17156-1.37236.17156-2.05854.25731-1.97279.08578-3.60248,0-5.23215-.25731-6.43296-.9435-7.03338-4.63173-7.03338-9.86387l.68618-18.69847c.34309-8.06264-3.43093-12.60861-11.15046-12.60861-7.80534,0-19.98505,7.63378-19.98505,13.209,0,.94351.51465,1.45815,1.54389,1.45815,1.62967,0,4.4602-.77195,6.08987-2.05854.85774-.68617.94352-1.97277,1.02927-3.68822.25731-3.34513,3.85977-4.80329,6.86182-4.80329,6.69027,0,7.97687,5.40368,7.80534,9.34923l-.08578,3.94555c-.08578,1.62968-.77196,2.57318-1.88701,2.91627-.85774.34308-6.17564,1.71546-12.69435,4.4602-6.60451,2.91627-9.00614,6.17565-9.00614,10.37851,0,3.00205,1.28661,5.661,3.34512,7.548,1.80123,1.62968,4.37442,2.48741,7.548,2.48741,3.00206,0,5.40369-1.37237,7.71954-2.65897,2.14432-1.20081,3.43093-2.14432,4.20286-2.14432.68618,0,1.2008.85772,1.97276,1.45815,2.14432,1.97276,4.37442,2.14432,6.69027,2.14432h11.15049l10.46425-.17156c3.77402,0,10.46431.34309,10.46431.34309.68618-.25734.94349-2.23012.17156-2.74475m-40.74208-8.74884c0,2.23009-.08578,3.774-1.37236,5.06059-1.11505,1.02928-4.37442,2.65897-6.51873,2.65897-5.48946,0-6.86182-4.63173-6.77605-6.43296.17156-5.57524,3.08784-6.51873,9.34923-8.92037,2.14432-.85772,3.94555-1.11504,4.54595-1.11504.68618,0,1.02927.77195,1.02927,1.97277l-.25731,6.77605Zm-234.9317-33.1083c0-6.69027-.25732-19.21311-2.05854-22.47247-.77196-1.28659-2.74473-2.05854-5.40369-2.31586l-2.74473-.25732c-.68619-.77195-.42887-2.14432.25732-2.57318,4.11709.17155,8.14842.34309,12.35128.34309,4.54596,0,7.46223-.08578,11.40779-.34309.85772.51464.77196,1.97277.25732,2.57318l-2.57317.25732c-2.74473.25732-4.80329,1.20081-5.40369,2.57318-1.54392,3.60245-1.54392,16.03953-1.54392,22.12937v12.2655c0,9.43501-1.54392,19.38466-7.548,25.9034-4.63173,5.06058-12.69438,7.89111-20.67125,7.89111-7.46223,0-14.92446-1.37237-20.24238-5.91832-5.74678-4.80329-8.49149-12.69436-8.49149-25.56028v-25.5603c0-11.23625-.25732-13.12323-6.51873-13.63787l-2.74473-.25732c-.68619-.42887-.42887-2.31586.25732-2.57318,5.40369.17155,9.09192.34309,13.46632.34309,4.46018,0,8.06264-.08578,13.29478-.34309.68619.34309.85772,2.14432.25732,2.57318l-2.57317.25732c-6.26141.51464-6.51873,2.40164-6.51873,13.63787v23.41597c0,17.49764,5.40369,28.90544,22.0436,28.90544,15.69642,0,21.70052-12.35128,21.70052-28.81966v-12.43708h-.25734Zm53.69377,28.04772c0,11.40777.25731,13.03748,6.51873,13.5521l3.43093.34309c.68618.42887.42887,2.40163-.25731,2.74475-6.17564-.25731-9.86388-.34309-14.2383-.34309s-8.1484.08578-15.09601.34309c-.68618-.34309-.85774-2.14432,0-2.74475l3.94555-.34309c6.17564-.51463,6.69027-2.14432,6.69027-13.5521v-48.46164c0-3.34513,0-3.43092-3.25937-3.43092h-6.00409c-4.63173,0-10.63583.25732-13.29478,2.74473-2.57317,2.40164-3.68824,4.80329-4.88905,7.46223-.85772.68619-2.40164.08578-2.83051-.77195,1.71545-4.88905,3.34513-11.83665,4.11709-16.12529.34309-.25732,1.71545-.34309,2.05854,0,.68619,3.43092,4.20286,3.34513,9.17769,3.34513h43.91569c5.83253,0,6.86182-.25732,8.49149-3.00205.51465-.25732,1.71545-.08578,1.97276.34309-1.2008,4.46018-1.97276,13.209-1.62967,16.46838-.42887.85772-2.31588.85772-2.8305.25732-.34309-2.74473-1.11505-6.69028-2.74475-7.89109-2.48741-1.80124-6.60451-2.74473-12.60863-2.74473h-7.71954c-3.25937,0-3.17362.08578-3.17362,3.68824v48.11855h.25736Zm57.63934-18.69848c-5.23215,0-5.40369.25731-5.40369,3.43091v15.26755c0,11.40777.51465,12.86592,6.60451,13.5521l3.17362.34309c.68618.42887.42887,2.40163-.25731,2.74475-5.83253-.25731-9.52079-.34309-13.72365-.34309-4.63173,0-8.31996.25731-12.6086.34309-.68618-.34309-.85774-2.05854-.25731-2.74475l1.88701-.34309c6.08987-1.11504,6.2614-2.14432,6.2614-13.5521v-39.02662c0-11.40779-.77196-13.209-6.43296-13.63787l-2.8305-.25732c-.68618-.42887-.42887-2.40164.25731-2.74473,5.31793.08578,9.00614.34309,13.63787.34309,4.20286,0,7.89109-.08578,12.60863-.34309.68618.34309.85774,2.31586.25731,2.74473l-2.05854.25732c-6.2614.68619-6.51873,2.31586-6.51873,13.63787v12.43706c0,3.34513.25731,3.43091,5.40369,3.43091h30.96398c5.23215,0,5.40369-.08578,5.40369-3.43091v-12.43706c0-11.40779-.25731-13.03746-6.60451-13.63787l-2.05854-.25732c-.68618-.42887-.42887-2.40164.25731-2.74473,4.97482.17155,8.66305.34309,13.12322.34309,4.20286,0,7.89109-.08578,12.78013-.34309.68618.34309.85774,2.31586.25731,2.74473l-2.31588.25732c-6.2614.68619-6.51873,2.31586-6.51873,13.63787v39.02663c0,11.40777.17156,12.78015,6.51873,13.55209l2.57319.34309c.68618.42887.42887,2.40163-.25731,2.74475-5.23215-.25731-8.92036-.34309-13.12322-.34309-4.4602,0-8.31996.08578-13.12322.34309-.68618-.34309-.85774-2.05854-.25731-2.74475l2.05854-.34309c6.60451-1.11504,6.60451-2.14432,6.60451-13.5521v-15.26755c0-3.25936-.25731-3.43091-5.40369-3.43091h-30.87825Zm66.13084,7.20493c-2.8305,0-2.91628.25731-2.91628,2.91627,0,10.97891,6.43296,20.24238,18.01229,20.24238,3.60248,0,6.60451-1.11504,9.94966-5.31793,1.11505-.34308,1.80123.34308,1.97276,1.28659-3.60248,7.37647-11.40777,10.12119-16.98299,10.12119-7.03338,0-12.6086-3.00204-15.69641-7.11914-3.25937-4.20286-4.54595-9.34923-4.54595-14.06674,0-13.29479,8.74883-24.53103,21.78627-24.53103,9.34923,0,15.35332,6.43296,15.35332,12.86592,0,1.5439-.25731,2.40162-.42887,2.83049-.34309.68617-1.88701.77195-6.43296.77195h-20.07085v.00003Zm6.69027-3.1736c8.06265,0,10.3785-.42887,11.23624-1.11504.34309-.25731.68618-.68617.68618-2.05854,0-3.00205-2.05854-6.86182-8.31996-6.86182-6.34718,0-11.92242,5.83254-12.0082,9.43501,0,.25731,0,.51464.77196.51464h7.63381v.08576h-.00003Z"></path></svg> 