<?xml version="1.0" encoding="utf-8"?>
<!-- Generator: Adobe Illustrator 27.2.0, SVG Export Plug-In . SVG Version: 6.00 Build 0)  -->
<svg version="1.1" id="Layer_1" xmlns="http://www.w3.org/2000/svg" xmlns:xlink="http://www.w3.org/1999/xlink" x="0px" y="0px"
	 viewBox="0 0 480 800" style="enable-background:new 0 0 480 800;" xml:space="preserve">
<style type="text/css">
	.st0{fill:#CDB78D;}
	.st1{fill:#FFFFFF;}
	.st2{fill:#0867E8;}
</style>
<rect x="125.6" y="541.4" class="st0" width="354.4" height="126.6"/>
<path class="st1" d="M450.3,309.3l0-0.4l-0.6-0.3l0.4-0.4l-14.4-30.5L411,244.3l0,0l0,0l-29.1-30.9l-30.4-32.1L317,148.7l-31.8-30.6
	l-30-34.9l0,0l0,0l-21.6-32.8l-0.1-0.1l0-0.2l-3.1-15.3l0-0.2l0-0.2l5.9-22.6h0l-35.1,67.6l-5.9,22.8l2.3,17.2l0,0l14.5,30.9
	l24.8,33.4l0,0l0,0l29.1,31l30.2,31.8h0l0.2,0.2l0,0l34.4,32.5l31.8,30.6l30,34.9l0,0l0,0l4.3,6.5l0.4,0.7l-0.6,0.5l-36.9,26
	l-19.6,18.1l-18,18.2l88,1.5l1.4,0l0,0l35.1-67.6l5.9-22.8L450.3,309.3L450.3,309.3L450.3,309.3z M246.2,506l88,1.5l-18,18.2
	l-19.6,18.1l-36.9,26l-0.6,0.5l0.4,0.7l4.3,6.5l0,0l0,0l30,34.9l31.8,30.6l34.4,32.5l0,0l26.9,33.4l20.9,38.1l-61.4,37.1l-19.7-20.3
	l-52.1-54.9l-29.1-31l0,0l0,0l-24.8-33.4l-14.5-30.8l0-0.6h0V613h0v-0.1H206l-2.2-16.6l5.9-22.8l34.8-67.2h0.3V506L246.2,506
	L246.2,506L246.2,506z"/>
<path class="st2" d="M442.6,343.4h-1v2l-22.2,42.8h-2l-1.1-5.3h3.3v-10.3H418l30.6-58.9h1.6l0.9,6.9h-3.7V331h1.6L442.6,343.4
	L442.6,343.4z M447.2,343.4h-2.8l5.7-10.9L447.2,343.4z M422.7,393.1v-4.8h-1.6l20.4-39.3v4.8h1.6L422.7,393.1L422.7,393.1z
	 M414.2,409.4l2.8-10.9h2.8L414.2,409.4L414.2,409.4z M406.5,411v4.3l-79.1-1.4v-3.4l8.9-9h9.1V396l63.8-16.1v3h5.4l1.1,5.3h-3.3
	v10.3h3l-3.2,12.5H406.5z M398.9,364.9v2.4h7.6l3.5,5.3h-0.8v5.6l-63.8,16.1v-1.5l10.1-9.3h9.6v-6.2L398.9,364.9L398.9,364.9z
	 M392.2,356.6v0.5h6.7v6.1l-33.6,12.3L392.2,356.6L392.2,356.6z M216.9,155.4h0.3v-10.3h-0.9l36.5-56.8h5.7l21.4,24.9v9.9h0.4
	l-40.7,55.4h-5.6L216.9,155.4L216.9,155.4L216.9,155.4z M200.8,124.5h1.8v-10.3h-1.6l30.6-58.9h4.2L250.9,78h-0.8v10.3h0.9
	l-36.5,56.8h-3.9L200.8,124.5L200.8,124.5z M196.7,107.2h3.7V96.9h-1.6l6.5-12.5h1v-2l22.2-42.8h2l1.1,5.3h-3.3v10.3h1.6l-30.6,58.9
	h-1.6L196.7,107.2L196.7,107.2L196.7,107.2z M200.7,84.4h2.8l-5.7,10.9L200.7,84.4z M225.2,34.8v4.8h1.6L206.3,79v-4.8h-1.6
	L225.2,34.8L225.2,34.8L225.2,34.8z M233.7,18.4l-2.8,10.9H228L233.7,18.4L233.7,18.4z M262.3,209.5L242.1,188v-9.5h-0.4l40.7-55.4
	h7l22.5,21.7v9h0.1l-43,55.6L262.3,209.5L262.3,209.5L262.3,209.5z M292.6,241.5l-21.5-22.6v-9.4H271l43-55.6h7.3l25,23.6v8.6
	l-46.6,55.4L292.6,241.5L292.6,241.5L292.6,241.5z M326.6,274l-25-23.6v-8.6l46.6-55.4h7.1l21.5,22.6v9.4h0.1l-43,55.6L326.6,274
	L326.6,274z M358.5,304.7L336,283v-9h-0.1l43-55.6h6.7l20.2,21.5v9.5h0.4l-40.7,55.4L358.5,304.7L358.5,304.7z M431,272.5h-0.3v10.3
	h0.9L395,339.6h-5.7l-21.4-24.9v-9.9h-0.4l40.7-55.4h5.6L431,272.5L431,272.5z M447,303.4h-1.8v10.3h1.6l-30.6,58.9h-4.2l-3.5-5.3
	h0.8V357h-6.7v-10.2h-4.8v-7.2h-0.9l36.5-56.8h3.9L447,303.4L447,303.4z M329,508.3v3.4l-8.9,9h-9.1v5.6l-63.8,16.1v-3h-5.4
	l-1.1-5.3h3.3v-10.3h-3l3.2-12.5h5.7v-4.3L329,508.3L329,508.3L329,508.3z M257.5,557.3v-2.4h-7.6l-3.5-5.3h0.8V544l63.8-16.1v1.5
	l-10.1,9.3h-9.6v6.2L257.5,557.3z M264.2,565.6v-0.5h-6.7V559l33.6-12.3L264.2,565.6L264.2,565.6L264.2,565.6z M404,741.9h-1.4v7.3
	l-51.1,30.9V779h-9L331.9,768v-7.8l50.6-46.2h6.4L404,741.9L404,741.9z M363.1,680.7l18.6,23.1v8.8l-50.6,46.2h-8.2l-12.8-13.5v-9.2
	l46.6-55.4L363.1,680.7L363.1,680.7L363.1,680.7z M329.9,648.1l25,23.6v8.6l-46.6,55.4h-7.1l-21.5-22.6v-9.4h-0.1l43-55.6
	L329.9,648.1L329.9,648.1L329.9,648.1z M297.9,617.5l22.5,21.7v9h0.1l-43,55.6h-6.7l-20.2-21.5v-9.5h-0.4l40.7-55.4H297.9
	L297.9,617.5z M225.5,649.7h0.3v-10.3h-0.9l36.5-56.8h5.7l21.4,24.9v9.9h0.4l-40.7,55.4h-5.6L225.5,649.7L225.5,649.7L225.5,649.7z
	 M209.4,618.8h1.8v-10.3h-1.6l30.6-58.9h4.2l3.5,5.3h-0.8v10.3h6.7v10.2h4.8v7.2h0.9L223,639.4h-3.9L209.4,618.8L209.4,618.8z
	 M205.3,601.5h3.7v-10.3h-1.6l6.5-12.5h1v-2l22.2-42.8h2l1.1,5.3h-3.3v10.3h1.6l-30.6,58.9h-1.6L205.3,601.5L205.3,601.5
	L205.3,601.5z M209.2,578.7h2.8l-5.7,10.9L209.2,578.7L209.2,578.7L209.2,578.7z M233.7,529.1v4.8h1.6l-20.4,39.3v-4.8h-1.6
	L233.7,529.1L233.7,529.1L233.7,529.1z M242.2,512.7l-2.8,10.9h-2.8L242.2,512.7L242.2,512.7z M457.8,331v-10.3h-5l-0.9-6.9h3.7
	v-10.3h-6.7l-9.7-20.6h1.8v-10.3h-8l-17.2-23.1h0.3V239h-8.9L387,217.6v-9.5h-8.9l-21.5-22.6V176h-9.4l-25-23.6v-8.9h-9.3
	l-22.5-21.7v-9h-8.5l-21.4-24.9V78h-7.6l-14.9-22.7h0.8V45h-5.4l-1.1-5.3h3.3V29.3h-3l3.2-12.5h5.7V6.5h-10.3v10.3h1.6l-6.5,12.5h-1
	v2l-22.2,42.8H196v10.3h3l-3.2,12.5h-5.7v10.3h5l0.9,6.9h-3.7v10.3h6.7l9.7,20.6h-1.8v10.3h8l17.2,23.1h-0.3v10.3h8.9l20.2,21.5v9.5
	h8.9l21.5,22.6v9.4h9.4l25,23.6v8.9h9.3l22.5,21.7v9h8.5l21.4,24.9v9.9h4.8v4.7L365,373.7v-0.5h-10.3v8.8l-10.1,9.3H335v9.2l-8.9,9
	h-9.1v10.3h10.3v-4.3l79.1,1.4v4.4h1.2l-14.2,24h-7.3v2.9L311,427.1v-5.8h-10.3v8l-5.2,3.8v-0.3h-10.3v10.3h10.3v-1.1l65.5,40v5
	l-5.2,3.8v-0.3h-10.3v2.9l-75.1-21.1v-5.8H260v10.3h1.2l-14.2,24h-7.3v10.3h1.6l-6.5,12.5h-1v2l-22.2,42.8h-6.9v10.3h3l-3.2,12.5
	h-5.7v10.3h5l0.9,6.9h-3.7v10.3h6.7l9.7,20.6h-1.8v10.3h8l17.2,23.1h-0.3v10.3h8.9l20.2,21.5v9.5h8.9l21.5,22.6v9.4h8.9l12.8,13.5
	v9.4h9l10.6,11v9.3h10.3V782l51.1-30.9v1.1h10.3v-10.3h-7.1l-15.2-27.8h1.4v-10.3h-8.3l-18.6-23.1v-10.3h-9.4l-25-23.6v-8.9h-9.3
	l-22.5-21.7v-9h-8.5L269,582.2v-9.9h-4.8v-4.7l27.2-19.2v0.5h10.3v-8.8l10.1-9.3h9.6v-9.2l8.9-9h9.1v-10.3H329v4.3l-79.1-1.4v-4.4
	h-1.2l14.2-24h7.3V474l75.1,21.1v5.8h10.3v-8l5.2-3.8v0.3h10.3v-10.3h-10.3v1.1l-65.5-40v-5l5.2-3.8v0.3H311v-2.9l75.1,21.1v5.8
	h10.3v-10.3h-1.2l14.2-24h7.3V411h-1.6l6.5-12.5h1v-2l22.2-42.8h6.9v-10.3h-3l3.2-12.5L457.8,331L457.8,331L457.8,331z M35.6,223v-1
	h2.3v-7.5h-2.3v-1h5.9v1h-2.3v7.5h2.3v1H35.6z M44.5,222.7c-0.6-0.3-1-0.7-1.4-1.2l0.9-0.8c0.4,0.5,0.8,0.8,1.2,1
	c0.4,0.2,0.9,0.3,1.4,0.3c0.6,0,1.1-0.2,1.5-0.5c0.3-0.3,0.5-0.7,0.5-1.3c0-0.4-0.1-0.8-0.4-1s-0.7-0.4-1.3-0.5l-1-0.2
	c-0.9-0.1-1.5-0.4-1.9-0.9c-0.4-0.5-0.6-1-0.6-1.7c0-0.9,0.3-1.5,0.9-2s1.4-0.7,2.4-0.7c0.7,0,1.4,0.1,1.9,0.4
	c0.5,0.2,1,0.6,1.3,1.1l-0.9,0.8c-0.3-0.4-0.6-0.6-1-0.8c-0.4-0.2-0.8-0.3-1.3-0.3c-0.6,0-1.1,0.1-1.4,0.4c-0.3,0.3-0.5,0.6-0.5,1.2
	c0,0.4,0.1,0.8,0.4,1s0.7,0.4,1.3,0.5l1,0.2c0.9,0.1,1.5,0.4,1.9,0.9c0.4,0.5,0.6,1,0.6,1.7c0,0.6-0.1,1.1-0.4,1.5s-0.6,0.8-1.1,1
	c-0.5,0.2-1.1,0.3-1.8,0.3C45.7,223.1,45,223,44.5,222.7z M57.1,223l-0.8-2.6h-3.2l-0.8,2.6H51l2.8-9.5h1.7l2.9,9.5H57.1z
	 M54.8,214.8h-0.1l-1.3,4.4H56L54.8,214.8z M69,223v-9.5h5.9v1.1h-4.6v3h4.4v1.1h-4.4v3.2h4.6v1.1H69z M77.6,223v-9.5h1.3v8.4h4.4
	v1.1H77.6z M89.9,223l-0.8-2.6h-3.2l-0.8,2.6h-1.3l2.8-9.5h1.7l2.9,9.5H89.9z M87.6,214.8h-0.1l-1.3,4.4h2.6L87.6,214.8z M92.4,223
	v-1h2.3v-7.5h-2.3v-1h5.9v1H96v7.5h2.3v1H92.4z M101.6,215.2L101.6,215.2l-0.1,7.8h-1.2v-9.5h1.8l3.1,7.7h0.1v-7.7h1.2v9.5h-1.8
	L101.6,215.2z M108.7,223v-9.5h5.9v1.1H110v3h4.4v1.1H110v3.2h4.6v1.1H108.7z M125.9,223v-9.5h6v1.1h-4.7v3h4.3v1.1h-4.3v4.3H125.9z
	 M134,221.9c-0.6-0.8-0.8-2.1-0.8-3.7c0-1.6,0.3-2.8,0.8-3.7c0.6-0.8,1.4-1.3,2.6-1.3c1.2,0,2,0.4,2.6,1.3c0.6,0.8,0.8,2.1,0.8,3.7
	c0,1.6-0.3,2.8-0.8,3.7c-0.6,0.8-1.4,1.3-2.6,1.3C135.4,223.1,134.6,222.7,134,221.9z M138.1,221.2c0.3-0.5,0.5-1.3,0.5-2.2v-1.6
	c0-1-0.2-1.7-0.5-2.2s-0.8-0.8-1.5-0.8c-0.7,0-1.2,0.3-1.5,0.8s-0.5,1.3-0.5,2.2v1.6c0,1,0.2,1.7,0.5,2.2s0.8,0.8,1.5,0.8
	C137.3,222,137.8,221.8,138.1,221.2z M143,213.5v5.8c0,0.7,0,1.2,0.1,1.6c0.1,0.4,0.2,0.7,0.5,0.9c0.3,0.2,0.6,0.3,1.2,0.3
	c0.5,0,0.9-0.1,1.2-0.3c0.3-0.2,0.4-0.5,0.5-0.9c0.1-0.4,0.1-0.9,0.1-1.6v-5.8h1.3v5.5c0,1-0.1,1.8-0.2,2.4s-0.4,1-0.9,1.3
	s-1.1,0.4-1.9,0.4c-0.9,0-1.5-0.1-1.9-0.4c-0.4-0.3-0.7-0.7-0.9-1.3s-0.2-1.4-0.2-2.4v-5.5H143z M151.1,215.2L151.1,215.2L151,223
	h-1.2v-9.5h1.8l3.1,7.7h0.1v-7.7h1.2v9.5h-1.8L151.1,215.2z M158.2,213.5h2.7c1.2,0,2,0.4,2.6,1.2c0.6,0.8,0.9,2,0.9,3.5
	c0,1.6-0.3,2.7-0.9,3.5c-0.6,0.8-1.5,1.2-2.6,1.2h-2.7V213.5z M160.8,221.9c0.7,0,1.3-0.2,1.6-0.7c0.4-0.5,0.6-1.2,0.6-2.1v-1.5
	c0-0.9-0.2-1.6-0.6-2.1c-0.4-0.5-0.9-0.7-1.6-0.7h-1.4v7.3H160.8z M171.3,223l-0.8-2.6h-3.2l-0.8,2.6h-1.3l2.8-9.5h1.7l2.9,9.5
	H171.3z M169,214.8h-0.1l-1.3,4.4h2.6L169,214.8z M176.8,214.6v8.4h-1.3v-8.4h-3.1v-1.1h7.5v1.1H176.8z M181,223v-1h2.3v-7.5H181v-1
	h5.9v1h-2.3v7.5h2.3v1H181z M189.2,221.9c-0.6-0.8-0.8-2.1-0.8-3.7c0-1.6,0.3-2.8,0.8-3.7c0.6-0.8,1.4-1.3,2.6-1.3
	c1.2,0,2,0.4,2.6,1.3c0.6,0.8,0.8,2.1,0.8,3.7c0,1.6-0.3,2.8-0.8,3.7c-0.6,0.8-1.4,1.3-2.6,1.3C190.6,223.1,189.8,222.7,189.2,221.9
	z M193.3,221.2c0.3-0.5,0.5-1.3,0.5-2.2v-1.6c0-1-0.2-1.7-0.5-2.2s-0.8-0.8-1.5-0.8c-0.7,0-1.2,0.3-1.5,0.8s-0.5,1.3-0.5,2.2v1.6
	c0,1,0.2,1.7,0.5,2.2s0.8,0.8,1.5,0.8C192.5,222,193,221.8,193.3,221.2z M198.2,215.2L198.2,215.2l-0.1,7.8h-1.2v-9.5h1.8l3.1,7.7
	h0.1v-7.7h1.2v9.5h-1.8L198.2,215.2z"/>
</svg>
