<?xml version="1.0" encoding="UTF-8"?> <svg xmlns="http://www.w3.org/2000/svg" xmlns:xlink="http://www.w3.org/1999/xlink" version="1.1" id="thereisacure" x="0px" y="0px" viewBox="0 0 200 200" style="enable-background:new 0 0 200 200;" xml:space="preserve"> <style type="text/css"> .st0{fill:#0867E8;} .st1{fill:#FFFFFF;} </style> <rect id="_0867E8" class="st0" width="200" height="200"></rect> <path id="thereisacure_FBFAF1" class="st1" d="M149.2,107c-1.3,0.5-3.1,1.2-4.4,1.2c-1.4,0-1.8-6.7,0.7-13.4 c0.6-1.7,1.7-3.9,1.7-4.3c0-0.3-3.8-1.6-8.4-1.6c-6.5,0-10.6,4.5-12.1,8c-0.8,1.9-1.3,3.6-1.5,5.1c-3.7,0.9-7.4,1.7-10.9,2.4 c-1,0.2-2,0.4-2.8,0.6c0.2-0.5,0.3-1.4,0.3-3c0-1.2-1.1-2.3-3.7-5c-2.6-2.7-2.9-3.2-2.9-3.7c0-0.9,2.1-2.4,4.1-2.4s5.3,1.2,5.7,0.8 c1.4-1.2,3-3,3-3.3c0-0.3-2.1-1-5.3-1c-5.4,0-8.1,2.3-13.2,7.2c-3.8,3.7-8.7,8.6-17.4,12.9c-2,0.8-0.3-3.5,5.7-17.5 c0.8-1.8,0-1.8-2.2-1c-2.4,0.8-4.4,1.6-6.6,2.7c-2.2,1-3.3,1.7-3.3,2s1.4,0,3.2-0.3c1.8-0.3,3-0.4,3,0c0,0.4-0.5,1.6-3,8 c-2.4,6.2-4.4,11.2-2.4,10.5l0,0c12.9-5,19.3-11.2,24-15.8l0,0c0.5-0.5,0.7-0.5,1,0l0,0c0.8,1.2,2.3,2.8,3.8,4.2 c1.3,1.3,2.2,2.2,2.7,2.8c1,1.1,1.1,2.2-1.2,2.8c-5.1,1.3-7.2,2.4-7.2,3.3c0,1.3,1.4,2.6,2.4,2.6c0.9,0,4.7-2.7,7.3-4.7 c1.8-0.4,3.7-0.8,5.5-1.1c3.3-0.6,6.9-1.4,10.5-2.2c0,0.2,0,0.3,0,0.4c0,3.5,1.2,8.3,2.3,7.3c0.8-0.8,1.5-1.5,2.2-2.2 c0.6-0.6,1.3-1.4,2.3-2.4c1.6-1.8,4-4.4,7.6-8.1c0.5-0.5,0.7-0.5,0.6,0l0,0c-1.4,7.2,0.3,13.2,2.5,12.7c1.4-0.3,3.7-1.4,7.2-3.6 c1.2-0.7,1.7-1.2,1.7-1.5C151.4,106.1,150.5,106.5,149.2,107L149.2,107z M137.2,91c2.2,0,4.9,1,4.9,2.2c0,1.4-3.6,4.9-12.8,7.7 C130.8,92.8,135,91,137.2,91L137.2,91z M134.9,100.6L134.9,100.6c0.4-0.2,0.6-0.1,0.2,0.3l0,0c-1.9,2-3.4,3.6-4.4,4.8 c0,0,0,0-0.1,0.1c-1.2,1.2-1.7-0.5-1.5-3.1C131.1,102.1,133,101.4,134.9,100.6L134.9,100.6z M85.6,80.7c0.2-0.8,1.2-1.6,4.1-3.3 c1.6-1,2-0.9,2-0.1c0,2.8-0.2,3.8-0.7,4c-1.4,0.7-3.6,1.6-5.5,2.1C85.2,83.5,85.1,82.4,85.6,80.7L85.6,80.7z M48.2,71 c-1.9,0-3.5-0.5-4.7-1.8c-0.8-0.8-1.3-2.1-1.3-4c0-4.1,0-9.2,0.1-13.4c-0.3,0-3.3,0-3.9,0c-0.3,0-0.3-1.7,0-1.7 c2.7-0.2,3.4-0.3,3.8-0.6c0.9-0.9,2.1-3.7,2.6-7c0-0.3,1.4-0.3,1.4,0c0,1.4-0.1,6-0.2,7.5c2.1,0,5.9,0,6.4,0c0.4,0,0.3,1.9-0.1,1.9 c-4.3,0-5.5,0-6.2,0c-0.1,1.4-0.2,5.6-0.2,9.6c0,4.6,0.1,5.6,0.5,6.3c0.4,0.7,1.2,1.3,2.3,1.3c1.6,0,3-1.6,3.8-4.8 c0-0.2,1.6,0.1,1.6,0.4C53.2,68.8,50.7,71,48.2,71L48.2,71z M55.3,70.6c-0.3,0-0.3-1.5,0-1.5c2.8-0.1,3.7-0.1,4-0.3 c0.2-0.2,0.3-1,0.3-3.2c0-2.1-0.1-22.7-0.2-24.3c0-2-0.2-2.4-0.4-2.7s-0.8-0.2-3.6-0.3c-0.2,0-0.3-1.4,0-1.4 c1.8-0.1,6.4-0.2,7.7-0.2c0.4,0,0.6,0.1,0.5,0.8c-0.2,4.3-0.3,11.9-0.3,18h0.2c2.6-4,4.6-6.4,8-6.4c2.1,0,3.5,0.7,4.6,1.9 c1.3,1.3,1.8,3.1,1.8,6.5c0,3.2,0,5,0,7c0,2.5,0.3,3.9,0.8,4.4c0.2,0.2,0.6,0.2,3.6,0.3c0.2,0,0.3,1.5,0,1.5c-4.5-0.1-8-0.1-11.5,0 c-0.3,0-0.4-1.4-0.1-1.4c2.4-0.2,2.9-0.2,3-0.3s0.2-0.5,0.2-2.7c0-1.7,0.1-3.7,0.1-7.7c0-3.2-0.1-4.4-0.5-5.2 c-0.6-1.2-1.4-1.9-3-1.9c-2.8,0-5.6,3.9-6.2,5.3c-0.8,1.6-1,2.4-1,4.4c0,2.1,0,4.4,0,5.7c0,1.1,0,1.6,0.3,2c0.3,0.3,0.6,0.4,3.1,0.4 c0.3,0,0.3,1.5,0,1.4C66.2,70.6,55.8,70.6,55.3,70.6L55.3,70.6z M104.5,64.8c-1.6,4.6-5.6,6.6-8.8,6.6c-3.5,0-6.4-1.3-8.6-3.6 c-2-2-3-4.6-3-7.6c0-2.9,1.3-5.8,3.2-7.6c2.1-2.1,4.4-3.5,7.5-3.5c3.2,0,5.6,1.3,7.2,3c1.4,1.4,2.7,4.3,2.8,7.6 c0,0.3-0.1,0.4-0.3,0.5c-8.4,0-13,0-16,0.1c0,2.7,0.4,4.2,1.2,5.7c1.1,2.2,3.2,3.4,6.2,3.4c3.2,0,5.4-1.5,6.9-5.2 C103.3,63.9,104.6,64.4,104.5,64.8L104.5,64.8z M89.9,53.7c-0.8,1.6-1.1,3-1.2,4.8l12,0c-0.4-5.3-2.4-7.6-6.2-7.6 C92.3,50.9,90.6,52.2,89.9,53.7z M111,68.8c0.2-0.2,0.3-0.8,0.3-2.4c0-1.9,0-7.2,0-9.8c0-3.4-0.3-4.4-0.5-4.6 c-0.2-0.2-1-0.2-3.7-0.2c-0.3,0-0.3-1.6,0-1.6c3,0,6.3-0.2,7.2-0.2c0.5,0,0.8,0.2,0.7,0.8c0,1.2-0.1,3-0.1,5.4h0.2 c1.9-4,3.8-6.7,6.9-6.7c2.9,0,4.6,1.8,4.6,3.9c0,1.9-1.3,3.1-2.8,3.1c-1.4,0-2.4-0.8-2.4-2.2c0-1.4,1.1-2,1.1-2.4 c0-0.2-0.3-0.4-1.1-0.4c-2.1,0-3.7,2.1-5,4.8c-1,1.9-1.3,3.3-1.3,4.8v3.8c0,2.4,0.3,3.7,0.4,3.8c0.2,0.2,1.2,0.2,4.2,0.3 c0.4,0,0.5,1.6,0.2,1.6h-13c-0.2,0-0.2-1.6,0-1.6C110.6,68.9,110.9,68.9,111,68.8L111,68.8z M149.4,64.8c-1.6,4.6-5.6,6.6-8.8,6.6 c-3.5,0-6.4-1.3-8.6-3.6c-2-2-3-4.6-3-7.6c0-2.9,1.3-5.8,3.2-7.6c2.1-2.1,4.4-3.5,7.5-3.5c3.2,0,5.6,1.3,7.2,3 c1.4,1.4,2.7,4.3,2.8,7.6c0,0.3-0.1,0.4-0.3,0.5c-8.4,0-13,0-16,0.1c0,2.7,0.4,4.2,1.2,5.7c1.1,2.2,3.2,3.4,6.2,3.4 c3.2,0,5.4-1.5,6.9-5.2C148.2,63.9,149.4,64.4,149.4,64.8L149.4,64.8z M134.7,53.7c-0.8,1.6-1.1,3-1.2,4.8l12,0 c-0.4-5.3-2.4-7.6-6.2-7.6C137.2,50.9,135.5,52.2,134.7,53.7z M61.4,147.6c-1.9-1.9-3.2-4.3-3.2-7.4c0-2.8,1.2-5.8,3.2-7.8 c2-2,4.6-3.6,8.1-3.6c4.6,0,8.3,2.8,8.3,5.7c0,1.8-1.3,2.8-2.7,2.8c-1.4,0-2.4-1.2-2.4-2.2c0-0.8,0.2-1.2,0.6-1.6 c0.4-0.4,1-0.6,1.2-0.8c0.3-0.3-0.8-2.1-4.9-2.1c-3,0-4.8,1.6-5.7,3.4c-0.8,1.7-1.1,3.2-1.1,5.5c0,3,0.3,4.7,1,6.1 c0.9,1.8,2.4,3.3,5.5,3.3c3.2,0,5.7-1.8,7.4-5.8c0.2-0.4,1.6,0.3,1.5,0.6c-1.8,4.3-5.2,7-9.3,7C66,150.8,63.4,149.6,61.4,147.6 L61.4,147.6z M97.8,144.8h-0.3c-1.8,3.4-4.6,6.1-7.6,6.1c-1.8,0-3.7-0.6-4.8-1.7c-1.2-1.2-1.6-2.5-1.6-4.8c0-2.6,0.1-8.6,0.1-9.8 c0-2.4-0.2-2.9-0.4-3.2c-0.2-0.2-0.8-0.2-3.8-0.3c-0.3,0-0.4-1.6,0-1.6c3.6,0.1,6.2,0,7.4-0.1c0.5,0,0.6,0.2,0.6,0.8V144 c0,2.8,1.4,4.5,3.7,4.5c2.3,0,4.3-2.5,5.7-5.3c0.7-1.4,0.9-2.3,0.9-3.4c0-2.6,0-4.1,0-5.1c0-1.5-0.1-2.8-0.4-3.1 c-0.3-0.3-0.8-0.4-4.6-0.4c-0.2,0-0.3-1.7,0-1.7c1.6,0,7.9-0.1,8.2-0.1c0.6,0,0.8,0.2,0.8,0.5c0,0.3-0.3,11.8-0.3,17 c0,0.8,0,1.2,0.2,1.3c0.2,0.2,0.9,0.2,4,0.3c0.3,0,0.3,1.7,0,1.7c-4,0-5.5,0.2-7.5,0.2C97.9,150.4,97.6,149.5,97.8,144.8z M111,148.4c0.2-0.2,0.3-0.8,0.3-2.4c0-1.9,0-7.2,0-9.8c0-3.4-0.3-4.4-0.5-4.6c-0.2-0.2-1-0.2-3.7-0.2c-0.3,0-0.3-1.6,0-1.6 c3,0,6.3-0.2,7.2-0.2c0.5,0,0.8,0.2,0.7,0.8c0,1.2-0.1,3-0.1,5.4h0.2c1.9-4,3.8-6.7,6.9-6.7c2.9,0,4.6,1.8,4.6,3.9 c0,1.9-1.3,3.1-2.8,3.1c-1.4,0-2.4-0.8-2.4-2.2c0-1.4,1.1-2,1.1-2.4c0-0.2-0.3-0.4-1.1-0.4c-2.1,0-3.7,2.1-5,4.8 c-1,1.9-1.3,3.3-1.3,4.8v3.8c0,2.4,0.3,3.7,0.4,3.8c0.2,0.2,1.2,0.2,4.2,0.3c0.4,0,0.5,1.6,0.2,1.6h-13c-0.2,0-0.2-1.6,0-1.6 C110.6,148.5,110.9,148.5,111,148.4L111,148.4z M149.4,144.4c-1.6,4.6-5.6,6.6-8.8,6.6c-3.5,0-6.4-1.3-8.6-3.6c-2-2-3-4.6-3-7.6 c0-2.9,1.3-5.8,3.2-7.6c2.1-2.1,4.4-3.5,7.5-3.5c3.2,0,5.6,1.3,7.2,3c1.4,1.4,2.7,4.3,2.8,7.6c0,0.3-0.1,0.4-0.3,0.5 c-8.4,0-13,0-16,0.1c0,2.7,0.4,4.2,1.2,5.7c1.1,2.2,3.2,3.4,6.2,3.4c3.2,0,5.4-1.5,6.9-5.2C148.2,143.5,149.4,144,149.4,144.4 L149.4,144.4z M134.7,133.3c-0.8,1.6-1.1,3-1.2,4.8l12,0c-0.4-5.3-2.4-7.6-6.2-7.6C137.2,130.5,135.5,131.8,134.7,133.3z"></path> </svg> 