<?xml version="1.0" encoding="UTF-8"?> <svg xmlns="http://www.w3.org/2000/svg" xmlns:xlink="http://www.w3.org/1999/xlink" id="Layer_1" data-name="Layer 1" viewBox="0 0 300 300"><defs><style> .cls-1 { fill: #fff; } .cls-2 { fill: #0867e8; } .cls-3 { clip-path: url(#clippath); } .cls-4 { fill: none; } </style><clipPath id="clippath"><rect class="cls-4" x="30.93103" y="21.5307" width="249.93795" height="249.93788"></rect></clipPath></defs><g class="cls-3"><g><polygon class="cls-1" points="154.6243 193.00754 57.00063 264.90178 57.00063 23.48974 154.6243 95.38388 154.6243 193.00754"></polygon><path class="cls-1" d="m131.73202,116.75654l.44441,3.38863-1.21412,4.66985-7.18474,13.84805-.28442-.0045-18.03107-.31189,3.68409-3.72855,4.02456-3.70356,7.55915-5.31919.131-.09252-.08801-.13395-.87977-1.33616-.0055-.009-.00702-.00799-6.14053-7.14316-6.51239-6.27592-7.04322-6.65388-.00755-.00754-.04549-.04952h-.00148l-6.18498-6.51532-5.95548-6.34244-.00506-.00799-.00553-.00754-5.08417-6.83881-2.97881-6.3224-.00429-.00945-.46238-3.53067,1.21391-4.66986,7.18402-13.84759h.00045l-1.20423,4.63237-.01003.03692.008.03748.63729,3.13627.00608.03095.01745.0269,4.42988,6.72885.00608.00901.00698.00799,6.14053,7.14316,6.51239,6.27603,7.04976,6.66086,6.23348,6.56643,5.95399,6.33996.00494.00901.00605.00799,5.08476,6.83938,2.94176,6.2444-.08251.08251.12201.05954v.08701h.01992l-.00021-.00012.00003-.00002Zm-42.11253,40.30644v.08891l-.06495.00045-7.1382,13.75855-1.2137,4.66985.44439,3.39369h.02047v.01654h.0035v.01846h.00653v.12898l2.97081,6.30495,5.08417,6.83881.00608.00799.00506.00855,5.95604,6.34244,10.68094,11.25767,4.02998,4.15198,12.57943-7.6006-4.27342-7.81355-5.51412-6.84432-.00148-.00203-7.0493-6.66086-6.51284-6.27593-6.14053-7.14316-.00653-.00799-.00608-.009-.87973-1.33616-.08801-.13395.131-.09195,7.55919-5.31919,4.02456-3.70457,3.68409-3.72809-18.03107-.31145-.26587-.00507h-.00024l-.00014.00003h-.00003.00003Zm84.66241,88.62689c.04156-.01407.07845-.03871.1069-.07158l9.16121-10.42069c.03298-.03748.054-.08397.06046-.1335l2.45139-19.24478c.01092.00146.0215.00203.03195.00203.10051,0,.19291-.061.23145-.15646.04252-.10547.00859-.22647-.08299-.29388l7.4921-10.10103c.04404.03298.09645.04897.14901.04897.05853,0,.11693-.02049.16343-.061.08848-.07699.11198-.2044.05592-.30796l5.81454-3.14775c.05956-.03253.10353-.08802.12201-.15353.018-.0655.00845-.13597-.02597-.1945l-5.48912-9.24065.04342-.27442-.17099-.19045c-.01395,0-.02803.00101-.04252.00349l-1.07933-6.23495c-.01395-.08149-.06753-.15049-.14248-.18494l-18.73132-8.52738c.02851-.06246.03002-.13395.00392-.19799-.02597-.06348-.07701-.11346-.1409-.13845l8.27692-21.37221c.03792-.09793.01044-.20902-.06856-.27847l-8.39144-7.35015c.05448-.06202.0744-.147.054-.22691l15.84006-4.09142c.09096-.02353.16096-.09544.18143-.18696l2.41443-10.67383c.01848.00405.03689.00608.05496.00608.088,0,.1714-.04649.21702-.1255l5.16025,2.96125c.03895.02252.08196.03354.12393.03354.08601,0,.16941-.044.21599-.12302l3.33369-5.65753c.04445-.07552.04603-.16895.00453-.24594l-4.93279-9.10919c.07392-.04052.1229-.11548.12998-.19945.00701-.08397-.02892-.16603-.09556-.21747l12.78137-16.43942c.04459.035.09893.05245.15299.05245.04301,0,.08553-.01047.12448-.03298.088-.04998.13644-.14846.12345-.24886l16.55288-2.16198c.00495.03602.01759.07046.03648.10096l-28.77078,18.19698c-.10195.06449-.14351.19248-.09851.30446.03895.09645.13149.15701.23186.15701.01656,0,.03346-.00203.04994-.00551l22.26953-4.55932v.00045c.02398.11796.1284.19944.2445.19944.01656,0,.03353-.00146.05056-.00507.13492-.02746.22197-.15949.19497-.29444l12.07851-2.46184c.01944.09499.09199.16996.18638.19292.01944.0045.03895.00698.05853.00698.07495,0,.14702-.03399.19497-.09399.0485-.05999,23.91507,19.13628,23.91507,19.13628-.07.08701-.07337.20991-.00859.30097.04795.06753.12448.10502.20342.10502.02803,0,.05647-.00507.0845-.01451l6.70227,18.70934c-.09357.03354-.15794.11897-.16501.21747-.00701.09894.04493.19292.13245.23895l-3.46868,6.56891c-.03751.07-.03895.15397-.00392.22545l2.0991,4.34243c-.07653.03693-.12902.11042-.13946.19438-.01003.08453.02295.16793.088.22241l-22.87483,27.38868c-.03751.04501-.05853.10198-.05853.16039v11.69011c-.10751,0-.20294.06899-.23694.17097l-7.46071-2.48738c-.02597-.009-.05242-.01295-.079-.01295-.07296,0-.14351.03196-.19201.08948l-14.51389,17.37814c-.04548-.03794-.10195-.05796-.15993-.05796-.01656,0-.03249.00146-.0485.0045-.07392.01451-.1374.06202-.17298.12843v.00045l-6.159-3.24917c-.03648-.01903-.07653-.02848-.11651-.02848-.03648,0-.07296.00799-.1069.02353-.07103.03354-.12201.09848-.13802.17547l-4.2515,20.45915c-.01656-.00349-.03346-.00517-.05056-.00517-.0709,0-.13946.03016-.18741.08441-.05956.06719-.07797.16106-.04898.24605v.00034l-31.42023,10.72133c-.04156.01407-.07859.03871-.10751.07158"></path><path class="cls-2" d="m260.85688,156.83607h-.50796l-9.17062-18.9733,11.99106,12.39596v1.79009h.21599l-2.52833,4.78736h0l-.00014-.0001Zm1.17475,4.63136l-32.50595-30.56694v-.08453l19.69366,5.70909v1.10272h1.28969l9.28467,19.2082h-.26903v2.11392h1.29072l1.21673,2.51732h-.00048v.00024-.00002Zm-22.53099,39.73172h-.8068v.44134l-5.74509-1.91605v-.96428l6.24494-7.47814h.30695v9.917h0v.00012Zm-28.00953,12.89131v-1.33166h-2.11394v2.11347h.58181l-3.92999,18.91566h-1.02121v1.15337l-29.60616,10.10261v-.19911l7.63156-8.68058h1.62858v-1.85223l10.86481-12.35846h1.65358v-1.8806l20.90984-23.78406h1.65358v-.44088l11.09117,3.6986v.96428l-13.16918,15.76803h-1.61408v.217l-4.56092-2.40544h.00055Zm-25.28019,2.53793h.93925v-.2124l7.91598,4.20297v1.10124l-10.84028,12.33043h-.23447l2.21939-17.42214h0l.00014-.0001Zm.93925-2.06203l6.26047-8.43993h.36988l1.94102,13.71364h-.65532v.2124l-7.91549-4.20297v-1.28314h-.00055Zm11.93851-12.03104v.20002h2.11394v-1.34471l12.3204-6.67088v.20002h2.11345v-.44088l1.99303.66487v.91284l-20.9097,23.78362h-.49333l-1.94102-13.71365h.65443v-1.34516l4.14894-2.24596h0l-.00014-.00012Zm-3.77357-9.47972h.13843v-2.11347h-.98624l-.77774-4.49843h.61987v-2.11347h-2.11345v.30087l-16.87027-7.67962h16.05357v.8068h2.11394v-.39935l10.33102,3.82354v1.18173h2.11345v-1.40268l11.95946-7.21914v.12696h.58181l-3.93494,18.93637h-1.0208v1.34516l-12.3204,6.67088v-.20046h-1.3937l-4.49381-7.56559h-.00014l-.00007-.00009Zm-20.46487-17.41067l7.61219-19.6546h1.19818v-1.05972l3.01774-.74288v.53881h1.01771l4.26895,20.91827h-.58586v.8068h-16.149v-.8068h-.37997l.00007.00012Zm11.82797-22.18599v.21396l-3.01719.74288v-.53937h-1.88455l-6.42335-5.62614,11.32523,5.20865-.00014.00002Zm2.28197-9.78904v.52586h.6613l-1.90358,8.41741h-1.03969v.29546l-11.72863-5.39416v-.22545l14.01047-3.61913h.00014v.00002Zm3.51512,31.97513l-4.26895-20.91827h.58586v-2.11347h-.15602l3.89606-6.72985h1.37975v-.49941l16.201,4.56889v.49333l-15.6681,11.3117h-2.09353v2.11347h1.41863l10.16106,16.37898h-.1069v.39935l-10.33102-3.82354v-1.18116h-1.01784v.00002-.00003Zm.1679-42.5435h1.03969v-.16197l3.47768,1.99596v1.3751h2.11394v-.16242l23.73666,13.62213v1.37566h2.11345v-.16242l10.01445,5.74713v1.37566h.0575l-6.13344,9.25574h-1.45772v.8068h-12.14598v-.8068h-1.07672l-1.19667-4.54739h.52033v-1.28416l7.76065-3.70062v.27644h.56635l-1.12172,5.05626h-1.03529v2.11392h2.11394v-2.11392h-.56635l1.12172-5.05626h1.03529v-2.11392h-2.11394v1.28416l-7.76065,3.70062v-.27644h-2.11345v2.11392h1.07624l1.19667,4.54739h-.52033v2.11347h2.11394v-.8068h12.14598v.8068h.94578l2.4204,18.16052h-.66384v1.12072l-14.67142,4.51936v-.46982h-.58195l3.93453-18.93682h1.02121v-2.11392h-2.11345v1.40268l-11.95898,7.21925v-.12696h-1.41863l-10.16106-16.37898h.1069v-1.51163l15.66762-11.31123h2.09388v-2.11392h-2.11394v.49886l-16.201-4.56889v-1.09528h-2.11394v2.11392h.15643l-3.61315,6.24147,1.79304-7.92903h.93925v-2.11392h-.46138l2.03095-8.98019h.00034l.00021-.00024v.00002Zm8.77286-2.78274h1.38916v-1.51208l7.88053-5.6931h2.09298v-.57887l10.04399,2.11797v1.02427h1.59608l2.99321,3.67158v1.06872l-10.86282,4.50191v-.34848h-2.11394v2.11347h1.39322l7.32214,12.34788h-.13946v.16197l-23.73666-13.62213v-1.3751h-.14399l2.28548-3.87802h0l.00007-.00002v.00002Zm-3.92999-9.45372h.20046v-1.01774l21.73814-4.45082v.06652l-6.8003,5.5371h-1.95902v1.51163l-7.88053,5.6931h-1.3241l-3.97451-7.33923v-.00045h0l-.00014-.00012Zm11.72671-16.83382h1.5616v-.94266l14.89978-1.94598-27.969,17.69015,11.50763-14.80128h0v-.00022Zm22.78085,8.80224v.58687h1.9775l22.32744,17.86552v.04299l-31.3617-6.73729v-1.02832h-2.11394v.57843l-10.04399-2.11797v-.50538l6.80079-5.53666h1.95902v-1.01729l10.45488-2.13092h0v.00003Zm-4.06354,16.35951l-2.99321-3.67158v-.14846l22.05697,9.98656-17.46815-5.06368v-1.10272h-1.5956v-.00012Zm-11.38067,7.49154v-1.22416l10.86282-4.50238v.34848h.56635l-3.93205,17.7256h-.31492l-7.32214-12.34744h.14001l-.00007-.00012v.00002Zm15.89948,61.89365h-1.61408v.44134l-11.09117-3.6986v-1.14571h-2.11394v.44088l-1.99303-.66442v-.15296l14.67142-4.51891v.46982h2.11345v-.60982l6.27242,1.14616v.81434l-6.24494,7.47768h0l-.00014.00022Zm29.33872-35.12716l-21.47914,25.71756h-1.61408v.60982l-6.27242-1.14672v-.99567h-.94626l-2.41985-18.16052h.66384v-2.11347h-.05647l6.13296-9.25574h1.45717v-2.11392h-2.11394v.16197l-10.01445-5.74713v-1.3751h-.56635l3.93205-17.7256h.73783l32.55939,30.61738v1.52716h-.00027v-.00002Zm1.79462-13.51611h-.0305l-12.219-12.63041v-1.79009h-2.11345v.30391l-23.11232-10.46392,30.19148,6.48596v1.0282h1.16967l6.11352,17.06625h.00069l-.00007.00012v-.00002Zm1.70106,2.11392v-2.11392h-1.17022l-6.11352-17.06625h.4124v-2.11392h-1.97702l-22.32792-17.86608v-1.58209h-2.11345v1.01729l-10.45488,2.13092v-.58642h-2.11394v1.01773l-21.50717,4.40343,27.79162-17.57759v.09298h2.11394v-2.11392h-2.11394v.94322l-14.93488,1.95049v-.6669h-2.11345v2.00902l-11.52611,14.82481h-1.56215v2.11347h1.34519l3.97451,7.33969h-.20046v2.11392h.14399l-2.28548,3.87802h-1.38964v.16242l-3.47768-1.99596v-1.3751h-2.11345v2.11347h.56189l-2.0315,8.98076h-1.13972v1.07121l-14.00999,3.61913v-.52586h-2.11394v2.11394h1.88455l6.82634,5.97944v1.65008h.37942l-7.61164,19.6546h-1.19818v2.11347h2.11394v-.30087l16.96528,7.72305v1.26367h.98624l.77836,4.49786h-.62042v2.11392h1.39425l4.49339,7.56559h-.13898v1.34471l-4.14852,2.24651v-.20046h-2.11394v2.06293l-6.25951,8.43936h-1.53006v2.11392h.6703l-2.21939,17.42182h-.93925v1.90851l-7.60711,8.65255h-1.6531v2.11382h2.11394v-1.15315l29.60561-10.10261v.432h2.11394v-2.11382h-.58181l3.92999-18.91566h1.02121v-.21645l4.56092,2.40544v1.33166h2.11345v-1.93259l13.1698-15.76803h1.6136v-.44088l5.74557,1.91605v1.14514h2.11394v-2.11347h-.80735v-9.917h.80735v-1.93204l21.47914-25.71813h1.61408v-2.11392h-1.28975l-1.24118-2.56786h.26799v-2.11347h-.21599l2.52833-4.7878h1.33242l-.00021.00026v-.00005Zm-135.26339-28.29049h-.115v.2214l-4.64694,8.95678h-.22643l-.22142-1.09123h.58683v-2.11392h-.22499l6.27345-12.06053h.15457l.18549,1.41765h-.66631v2.11347h.22698l-1.3261,2.55637h-.00014Zm.56333,0l.79231-1.52716-.39687,1.52716h-.39543Zm-4.53489,9.9851v-.8068h-.22691l4.08347-7.87106v.80635h.22698l-4.08347,7.87151h-.00007Zm-1.47009,2.83485l.39687-1.52817h.39543l-.79231,1.52817Zm-1.85755,1.02832v.78834l-16.20203-.27993v-.48242l1.93405-1.95701h1.75004v-1.06568l13.08025-3.29712v.53285h1.01674l.22197,1.09123h-.58683v2.11347h.52342l-.66384,2.55637h-1.0737v-.00012h-.00007v.00002Zm-1.5436-9.36334v.40295h1.45366l.71426,1.08527h-.06203v1.06568l-13.08028,3.29722v-.10896l2.18845-2.01443h1.83615v-1.17824l6.94979-2.5494h0v-.00012.00002Zm-1.37316-1.69104v.00754h1.37315v1.15122l-6.3089,2.31438,4.93568-3.47314h.00007Zm-39.11853-47.65323h.28273v-2.11347h-.22534l6.2732-12.06053h.66531l3.06322,4.65038h-.06392v2.11392h.07945l-7.48311,11.62763h-.60441l-1.98728-4.21794h.00016Zm-.8463-3.53111h.66635v-2.11347h-.22702l1.32592-2.55638h.11493v-.22151l4.6469-8.95679h.22647l.22196,1.09123h-.58731v2.11392h.22544l-6.27345,12.06053h-.15429l-.18573-1.41765h0s-.00017.0001-.00017.00012Zm1.20244-4.66973l-.79241,1.52716.39698-1.52716h.39543Zm4.53443-9.98499v.8068h.22691l-4.08343,7.87152v-.8068h-.22691l4.08343-7.87152Zm1.47054-2.83372l-.39742,1.52716h-.39495l.79227-1.52716h.0001Zm27.76061,57.98804l8.36197-11.38271h.94069l3.56356,4.78837v2.06642h.07948l-7.48262,11.62763h-.96165l-4.50136-5.23668v-1.86303h-.00007Zm-27.29266-25.89553l-3.56366-4.78837v-2.06653h-.07945l7.48306-11.62763h.96223l4.50033,5.23669v1.86303l-8.36135,11.38271h-.94131s.00014.00011.00015.0001Zm5.78157,6.34244l-4.24989-4.52488v-1.77749l8.36194-11.38215h1.20278l4.72882,4.55729v1.62959l-8.89229,11.49764h-1.15136Zm6.22303,6.56485l-4.51644-4.75776v-1.70805l8.89229-11.49763h1.25623l5.23915,4.95034v1.52413l-9.65114,11.48919h-1.22023s.00014-.00022.00014-.00023Zm6.95474,6.66188l-5.23915-4.95023v-1.52413l9.65114-11.48919h1.22023l4.51641,4.75731v1.7086l-8.89229,11.49763h-1.25623l-.00014.00003s.00003-.00003.00003-.00002Zm6.54042,6.28593l-4.72882-4.55786v-1.62903l8.89233-11.49763h1.15126l4.24992,4.52544v1.77704l-8.36197,11.38215h-1.20278l.00014-.0001h-.00007Zm17.925-.27004h-.28242v2.11392h.22547l-6.274,12.06053h-.66439l-.71481-1.08527h.06203v-2.11392h-1.37364v-2.08601h-.97327v-1.47911h-.07948l7.48262-11.62763h.60489l1.98698,4.21794v-.00045h.00007-.00007.00002Zm-24.07954,42.05399v.48242l-1.93449,1.95758h-1.74959v1.06568l-13.08073,3.29722v-.53285h-1.01671l-.22139-1.09123h.58686v-2.11392h-.52383l.66432-2.55593h1.07366v-.7888l16.20203.27993h0s-.00014-.0001-.00013-.0001Zm-14.65888,9.87209v-.40295h-1.45309l-.71485-1.08572h.06203v-1.06523l13.08073-3.29712v.10851l-2.18845,2.01453h-1.83602v1.17869l-6.95024,2.5494h0l-.00014-.0001h.00003Zm1.37364,1.69104v-.00754h-1.37364v-1.15122l6.3089-2.31438s-4.93526,3.47314-4.93527,3.47314Zm28.55194,36.21952h-.19394v1.40325l-10.46539,6.32341v-.12641h-1.73403l-2.29547-2.36493v-1.35665l10.49139-9.5781h1.08022l3.11722,5.69952h0s0-.0001,0-.0001Zm-23.55567-25.53465l-8.36149,11.38271h-.94131l-3.56366-4.78837v-2.06698h-.07945l7.48306-11.62708h.96179l4.50092,5.23668v1.86303h.00015Zm15.16066,12.98833l3.92814,4.87077v1.54518l-10.49184,9.57854h-1.44467l-2.73477-2.88426v-1.62114l9.65114-11.48964h1.09224v.00045h-.0001l-.0001.0001h-.00003Zm-6.82676-6.66188l5.23915,4.94978v1.52412l-9.65114,11.48964h-1.22068l-4.5159-4.75776v-1.70805l8.89229-11.49763h1.25623l.00003-.0001h.00002Zm-6.54042-6.28604l4.72882,4.55785v1.62902l-8.89275,11.49763h-1.15078l-4.24989-4.52487v-1.77704l8.36194-11.38271h1.20278l-.00014.00012h.00002Zm-17.92508.26945h.2824v-2.11347h-.22499l6.27345-12.06053h.66432l.71485,1.08527h-.06203v2.11392h1.37319v2.08601h.97383v1.47911h.07945l-7.48306,11.62764h-.60441l-1.98695-4.21794h-.00005Zm-.8463-3.53113h.66635v-2.11347h-.22746l1.32613-2.55637h.11493v-.2214l4.6469-8.95678h.22647l.22196,1.09123h-.58686v2.11392h.22499l-6.27287,12.06053h-.15444l-.18593-1.41765s-.00017,0-.00016,0Zm1.20224-4.66985l-.79227,1.52716.39687-1.52716h.3954Zm4.53443-9.9851v.8068h.22746l-4.08398,7.87151v-.8068h-.22691l4.08343-7.87151h0Zm1.47054-2.83485l-.39687,1.52817h-.39589l.79276-1.52817Zm43.30419-41.47714h.6659v-2.11347h-1.27821l-1.98753-4.21749h.28283v-2.11392h-1.53157l-3.56355-4.79277v-2.06203h-1.70654l-4.24944-4.52544v-1.81711h-1.71555l-4.51643-4.75776v-1.80755h-1.81204l-5.23871-4.94978v-1.71164h-1.7936l-4.72882-4.55685v-1.72965h-1.63554l-4.50092-5.23668v-1.90299h-1.45357l-3.06177-4.65083h.06203v-2.11392h-1.01671l-.22139-1.09067h.58686v-2.11392h-.52383l.66432-2.55638h1.07366v-2.11347h-2.11394v2.11347h.22691l-1.32613,2.55638h-.11493v.2214l-4.64632,8.95679h-1.32365v2.11392h.52398l-.66453,2.55593h-1.07335v2.11392h.94333l.18573,1.41709h-.66645v2.11392h1.27863l1.98719,4.21749h-.28287v2.11347h1.53109l3.56409,4.79332v2.06203h1.70658l4.24944,4.52488v1.81756h1.71558l4.51689,4.75776v1.80709h1.81159l5.23871,4.94978v1.71153h1.7936l4.72882,4.55685v1.72955h1.63551l4.50095,5.23725v1.903h.97381v.86027l-5.57664,3.92395v-.00799h-2.11346v1.69003l-2.18845,2.01398h-1.83659v1.77108l-1.93405,1.95758h-1.75004v2.11347h2.11394v-.78834l16.20203.27993v.82526h.13946l-2.91634,4.9177h-1.39322v.49941l-15.39117-4.33195v-1.09472h-2.11394v1.5301l-1.1143.82729h-2.06148v2.11347h2.11394v-.11897l13.4111,8.18644v.82526l-1.11474.82729h-2.06148v.49987l-15.39117-4.33241v-1.09472h-2.11394v2.11392h.13946l-2.91634,4.9177h-1.39311v2.11347h.22691l-1.32613,2.55637h-.1145v.22095l-4.6469,8.95735h-1.32365v2.11347h.52383l-.66487,2.55637h-1.07301v2.11347h.943l.18593,1.41765h-.66645v2.11347h1.27876l1.98695,4.21748h-.28287v2.11392h1.53154l3.56366,4.79277v2.06191h1.70658l4.24944,4.52544v1.81757h1.71558l4.51689,4.76034v1.8045h1.71163l2.73783,2.88482v1.80811h1.73403l2.29537,2.36493v1.78707h2.11346v-1.40369l10.46539-6.32297v.12594h2.11394v-2.11347h-1.3502l-3.11667-5.69952h.19353v-2.11392h-1.5866l-3.92856-4.87629v-1.97053h-1.81159l-5.23915-4.94978v-1.71165h-1.7936l-4.72882-4.55684v-1.72955h-1.63554l-4.50092-5.23725v-1.903h-.97383v-.86027l5.5766-3.92348v.00754h2.11346v-1.69003l2.18845-2.01398h1.8366v-1.77108l1.93405-1.95758h1.75004v-2.11347h-2.11394v.78834l-16.20203-.27993v-.82526h-.13946l2.91679-4.9177h1.39266v-.49941l15.39117,4.33195v1.09472h2.11394v-1.5301l1.1143-.82729h2.06145v-2.11347h-2.11346v.11897l-13.4111-8.18644v-.82526l1.1143-.82729h2.06148v-.49941l15.39117,4.33195v1.09472h2.11394v-2.11392h-.13946l2.91634-4.9177h1.39322v-2.11347h-.22698l1.3261-2.55637h.115v-.22095l4.64694-8.95735h1.32314v-2.11347h-.52383l.66487-2.55637h1.07322v-2.11347h-.94324l-.18549-1.41765h0l-.00027.00017.00007.00003-.00003-.0001Zm22.26994,74.28012h-.8068v1.52458l-95.55295,70.36957h-.76393V24.54698h.7636l95.55335,70.36958v1.52458h.8068v95.50973h0l-.00007.0001v-.00003ZM58.05753,23.95809v-1.52514h-2.1137v2.11392h.8069v239.29814h-.8069v2.1137h2.1137v-1.5247l95.55291-70.36924h2.07045v-2.11392h-.8068v-95.50984h.8068v-2.11392h-2.07004L58.05736,23.95807h.00017v.00002Z"></path></g></g></svg> 