<?xml version="1.0" encoding="UTF-8"?> <svg xmlns="http://www.w3.org/2000/svg" id="Layer_1" data-name="Layer 1" viewBox="0 0 300 250"><defs><style> .cls-1 { fill: #fff; } .cls-2 { fill: #0867e8; } </style></defs><path class="cls-1" d="m167.85677,86.71744h0Zm8.25642,1.38521l5.07187-2.92849,2.9285-5.07188v-5.85697l-2.9285-5.07188-2.38268-1.3757,2.63091-4.86454-.35303-2.78053.03699.02186,1.31184-2.27231-2.13837-1.23447.60239.34743,15.9671-27.65581-6.71542-3.87718,7.77679,4.48966,1.31184-2.27229-15.55354-8.97987-1.31184,2.27226,1.06137.61305-15.9671,27.65581-1.53653-.88652-1.31184,2.27176.28973.16753-3.01587.74529-19.59608,33.94201.60971.36369-3.79202,6.56752-11.38123-6.57088-1.6536,2.86403-1.49013-.86016-1.6536,2.86405-2.32724,1.77412,1.11946,1.46817-10.06355,7.67256,4.64274,6.08952,10.06355-7.672,1.11941,1.46816,2.72124-2.07448-.80479,1.46705,1.80702,1.0434-7.15035,12.38466,2.98372,3.02767,4.51078,1.29949,7.15034-12.38469-3.74722-2.16357,5.55437,3.20699.61189-1.06078-.38943,2.77439,4.57875.64329-2.75026-.38665-1.7618,12.5315,7.58347,1.06583,1.76122-12.5315,1.82849.25722.40739-2.89767,1.65366-2.8646-1.49004-.86016.86633-1.50065,3.26414,1.8845,4.5838-7.93983.73465.42419h7.11894l4.2532,22.1928-22.17314,38.40479-5.77013-7.04774,2.19778-3.80656,2.68861,1.5528,2.19778-3.80659-4.93407-2.84891-1.21544-3.99037-3.97469.99408-39.3498-22.71842-2.19755,3.80601,36.91534,21.31303-2.72847-1.5752-2.19753,3.80659,5.03918,2.90944-34.07476,59.01901,44.32946-24.27792,42.05054,24.27792-8.4946-42.65572,16.69672-28.91943-22.2567-45.40208-.00011-.00009v-.00005Z"></path><path class="cls-2" d="m198.32503,28.85165h-1.52361v.23087l-13.26675-7.65967c-.00111-.00111-.00223-.00168-.0033-.00224l-.04369-.02522v-1.52363h-.23032l.01849-.03193h1.52367v-.23088l13.31432,7.68712v1.52363h.22974l-.01849.03195h-.00006Zm-17.02843,27.04332h-1.52367v.23088l-11.19109-6.46105v-1.52419h-.23085l15.02849-26.02908h.10815v-.18716l.01903-.03308,13.06609,7.54481-15.27614,26.45886h-.00002Zm.22469,3.15936h-1.52367v.23088l-14.26413-8.23572v-1.52366h-.23027l.01903-.03193h.81984v.88705h2.23978v-.23086l11.19109,6.46103v1.52363h1.53653v.88706h.23027l-.01903.0325h.00058l-.00002.00002Zm-.35303,2.7587h-.69936v.19165l-5.41428-3.52301-.1143.17595.1048-.18158-6.15398-3.56616-.10533.18212.09529-.18717-5.87321-3.00805v-.49144l.48582-.16251v.52282h2.23982v-.23086l14.26413,8.23572v1.52363h1.08714l.08354.5189h-.00011l.00002-.00002Zm-2.45946,5.68773l-1.47604-.85175v-1.52419h-2.23978v.91004h-3.61661v-.91004h-2.23982v1.52419l-2.83269,1.63515v-.23087h-2.23982v2.23978h.23032l-1.63457,2.83211h-1.5242v2.23979h.91002v3.61716h-.91002v2.23979h1.5242l1.63516,2.83266h-.23091v2.23979h2.23982v-.23088l1.26587.73073-5.17332,8.96084h-1.5242v.2303l-17.46106-10.08101v-1.5242h-.22974l18.30211-31.70167h1.52425v-.30989l5.67706,2.90777,6.14563,3.56056,5.63837,3.66929v1.54662h.23027l-1.99037,3.44792s.00005-.00002.00005,0l.00003.00004Zm1.35664,1.26811v1.5242h1.52361l1.63512,2.83211h-.23027v2.23979h.90944v3.61716h-.90944v2.23979h.23027l-1.63512,2.83266h-1.52361v1.52363l-2.83269,1.63516v-.23087h-2.23978v.91004h-3.61661v-.91004h-2.23982v.23087l-2.83269-1.63516v-1.52363h-1.52367l-1.63512-2.83266h.23085v-2.23979h-.91002v-3.61716h.91002v-2.23979h-.23085l1.63512-2.83211h1.52367v-1.52363l2.83269-1.63515v.23031h2.23982v-.90948h3.61661v.90948h2.23978v-.23031l2.83269,1.63515s0-.00058,0-.00057Zm17.52101,63.61629h-.33678v.23032l-22.76549-13.14397v-1.52365h-1.12073l-3.82396-19.95299h.6915v-2.18657l5.25681-6.58545h.94026l21.15839,43.16231h0Zm-15.50932,28.91946h-.40511l-7.87936-41.11696h.69154v-.23087l22.76549,13.14454v1.52365h.23027l-15.40283,26.67966h0v-.00002Zm7.65298,42.65532h-.2079l-25.01195-30.55141v-1.34488l16.04272-8.786v.26674h1.12914l8.04803,40.41554h-.00005Zm-40.49333-22.75388v-.77724l13.03362-7.13852v.25443h1.8083l24.96884,30.49893v.14697l-39.81076-22.98457Zm-44.32925,23.02095v-.26707h-.23069l32.78158-56.77939h1.52367v-.23032l5.31956,3.07082v1.52364h1.76515l4.00438,4.89146v2.1563h1.76573l10.43349,12.74387v1.47488l-13.03362,7.13797v-.2673h-2.23978v1.49396l-42.08953,23.05116.00005.00005h0v-.00002Zm29.03568-60.67151v-1.5242h-.23064l.9045-1.56622h1.52399v-.23088l10.35838,5.9808v1.52365h.23032l-.90443,1.56622h-1.52361v.23032l-5.31956-3.07082v-1.52365h-2.23982v.23088l-2.79915-1.61665.00005.00056h0l-.00002-.00002Zm-31.98935-23.54442v-1.5242h-.23069l.90431-1.56623h1.52393v-.23031l37.11024,21.42508v1.5242h2.23982v-.23032l2.94975,1.70296v1.52364h2.23982v-.23032l2.69424,1.55559v1.52307h.23085l-.90497,1.56622h-1.52309v.23088l-.4489-.25945v-1.52364h-2.23982v.23087l-10.35838-5.9808v-1.52364h-2.2401v.23087l-31.9471-18.44505.00005.00056s0-.00002,0,0v.00003Zm43.28252,18.01079v.62367h1.24121l.53345,1.7506h-.55981v.23032l-2.94975-1.70296v-.46735l1.73491-.43427h0v-.00002Zm27.72417-17.83427h.40459l7.8793,41.11696h-.69096v1.49396l-16.04326,8.78545v-.27963h-1.722l-10.47662-12.79599v-2.15575h-.23032s20.87927-36.16498,20.87927-36.16499Zm-9.84789-23.52311v-.90947h-.23085l5.05226-8.75071,1.20251.69429v1.5242h2.23982v-.91004h3.61719v.85568l-5.25739,6.58657h-1.74495v.90947h-4.8786Zm-6.03456,6.60618h-1.52425v.23031l-1.0238-.59118v-.64722h.78677v-2.23979h-2.23982v.23087l-12.8475-7.41759v-1.52363h-.23091l1.8896-3.27197h1.52309v-.23088l16.11165,9.30211v1.5242h.23085l-2.6757,4.63479.00003-.00002Zm-3.41487.47688v-.12161h.86687v-.23087l.60971.35248s-1.47658,0-1.47658,0Zm-.87978,2.86403h-1.52367v.23032l-27.2091-15.70933v-1.52366h-.23048l.36042-.62423h.77387v.86016h2.23987v-.23088l24.22905,13.98901v1.52365h1.49004v.86016h.2308l-.36084.6248h.00005l-.00002-.00002Zm-.86581,2.89766h-.6534v-.25663h-2.23978v.75032l-6.43419-.90444-.01173-.00167-.72626-.10199v-1.06526h-.22192v-.65785h.62932v-.75089l9.00005,1.2653v1.06525h.75034l-.09247.65786h.00005v.00002Zm-3.58913,12.27429h-1.06525v.75034l-5.3437-.75089v-1.06526h-.75034l1.57076-11.17373,6.28455.88313v1.06526h.74974l-1.44576,10.29115s0-.00002,0,0Zm-16.37148-4.22629h-1.52403v.57887l-2.27103-.65451v-1.22385h-1.92851l-1.05521-1.0703v-1.95736h-.2308l5.8576-10.14489h1.52367v-.23087l5.25484,3.03437v1.52366h.23032l-5.85674,10.14488-.00011-.00002h0v.00002Zm-14.53479-10.94173v-.00167h-1.70945l-2.93525-3.8503h.00197v-1.70967l7.82367-5.96455v.00225h1.70924l2.93536,3.84973h-.00186v1.70968s-7.82367,5.96454-7.82367,5.96453h-.00002Zm4.38877-14.76903v.00225h1.70935l5.174,6.7866h-.00169v1.16668h-.4109v.60802h-.79598v-1.46872h-1.7094l-2.93525-3.84973h.00191v-2.23979h-1.11941v-.93862l.08742-.06669s-.00005,0-.00005,0Zm9.12148,8.99894v-1.66764h1.24271v-.23032l8.86916,5.12063v.96328h-1.02438v1.18462h-.19669v-1.0434h-2.23982v.23087l-5.25484-3.03438v-1.52365h-1.39622.00011-.00002Zm20.32787,6.51595l-9.00063-1.26477v-.50489h1.02432v-2.23977h-2.23978v.23087l-8.86916-5.12063v-1.5242h-2.23982v1.69735h-.71281l-5.17374-6.7866h.00207v-.23032l27.20947,15.70879v.03419s.00005-.00002.00005,0h.00003Zm-23.93602-20.38058h1.52373v-.2303l9.14168,5.27811v1.52363h2.23982v-.23087l12.8475,7.41757v.64722h-.78673v1.50067h-.86691v.23087l-24.22894-13.98901v-1.52363h-.23048l.36031-.62427h.00005-.00004Zm32.19923,9.41532v.23031l-16.11171-9.3021v-.9347l17.33109,10.00648h-1.21938v.00002Zm40.83003-67.57639v-2.23978h-2.23982v.23087l-13.31378-7.68712v-1.52363h-2.24036v2.2398h.23085l-.01903.03193h-1.52367v2.24035h1.64638l-15.02791,26.02907h-.82037v-.88706h-2.24036v2.2398h.23085l-.01849.03249h-1.52425v1.27315l-.48582.16308v-.52339h-2.23982v2.2398h.23032l-18.30273,31.70165h-1.5242v3.66033h.23085l-1.88902,3.27142h-1.52361v.23088l-9.14172-5.27811v-1.5242h-2.23987v2.24033h.23038l-.36031.62427h-.77387v-.86073h-2.23987v2.23979h.23059l-.36036.62423h-1.52372v1.7097l-.08742.06667v-.00167h-2.23987v2.23977h1.11941v.93806l-7.82367,5.96399v-.0017h-2.23979v2.23979h1.70953l2.9352,3.8503h-.00197v2.23979h2.23982v-1.70968l7.82367-5.96455v.00224h1.11946v1.46817h2.23987v-.60743h1.48364v1.04284h.23042l-5.85754,10.14546h-1.52329v2.23978h1.92824l1.05542,1.07087v1.9568h2.23988v-.57887l2.27103.65395v1.22384h2.23987v-2.23979h-.23042l5.85722-10.14488h1.09108v1.0434h.22186v1.71359h2.23982v-.75032l.47127.06612-1.57851,11.23313h-1.06525v2.23979h2.23978v-.75032l5.3437.75089v1.06526h2.23982v-2.23978h-.75034l1.44629-10.29171h.65398v.25721h2.23978v-2.23979h-.75027l.09242-.65843h1.06531v-2.23979h-.23091l.36031-.62425h1.52367v-2.23192l.40065.23143v1.52363h2.24036v-2.23979h-.23027l2.67575-4.63479h1.52367v-.64105h1.34937v-.91005h4.87859v.91005h1.12068l3.82396,19.95355h-.6915v2.23978h.23085l-20.87981,36.16443h-1.04958l-4.00438-4.89088v-2.15685h-.23091l.90503-1.56622h1.52361v-.23088l.4489.25945v1.52364h2.23978v-2.23978h-.23027l.90439-1.56622h1.52309v-2.23979h-2.23978v.23032l-2.69424-1.55502v-1.52419h-1.24121l-.53291-1.7506h.55922v-2.23978h-2.23978v1.1835l-1.73491.43373v-.62312h-2.23982v.23087l-37.11019-21.42565v-1.52363h-2.23985v2.23978h.23064l-.90423,1.56623h-1.52393v2.23979h2.23985v-.23031l31.94712,18.44447v1.52365h.23022l-.90434,1.56677h-1.52345v2.23981h2.23987v-.23032l2.79947,1.61609v1.52364h.23032l-32.78144,56.77911h-1.52388v2.23985h2.23985v-1.49361l42.08932-23.05045v.26617h2.23978v-.23032l39.81076,22.98438v1.5238h2.23978v-2.23985h-1.12802l-8.0491-40.41583h.68304v-2.23978h-.23085l15.40395-26.67966h1.52367v-2.23979h-1.43507l-21.15839-43.16231h.33678v-1.5242l2.83215-1.63516v.23088h2.23978v-2.23979h-.23032l1.63516-2.83209h1.52367v-2.23979h-.90948v-3.61718h.90948v-2.23978h-1.52367l-1.63516-2.83211h.23032v-2.24034h-2.23978v.23087l-.99245-.57268,2.11208-3.65808h1.52367v-2.23978h-1.11456l-.08354-.5189h.72684v-2.2398h-.23027l.01849-.03249h1.52367v-2.2398h-1.53653v-.88706h-.23027l15.01952-26.01447v1.21093h2.23978v-2.23978h-.23085l.01903-.0325h1.52367l-.00027.00003-.00005-.00011Zm-56.85204,142.92957v-.34743h-2.23982v.34743l-3.43671-1.6553v-1.42613h-1.15994l-.89047-3.9024h.64841v-2.18655l2.18434-2.73907h1.74384v-.90948h4.06104v.90948h1.74384l2.18434,2.73907v2.18655h.64893l-.89101,3.9024h-1.15994v1.42613l-3.43671,1.6553h-.00012Zm5.67653-.84109v-2.24034h-.64893l.89041-3.9024h1.16054v-2.23978h-1.74448l-2.18376-2.73796v-2.18767h-2.23978v.91005h-4.06104v-.91005h-2.23978v2.18767l-2.18344,2.73796h-1.74463v2.23978h1.16032l.8911,3.90295h-.64935v2.23979h2.23965v-.34744l3.43671,1.65477v1.42613h2.23982v-1.42557l3.43671-1.65533v.34744h2.23982l.00005-.00003.00005.00003Zm30.69188-93.00643h-.90948v2.23979h.23032l-.55423.95992h-1.5242v1.5242l-.95992.55419v-.23087h-2.23982v.91004h-1.45528v-.91004h-2.23982v.23087l-.96045-.55419v-1.5242h-1.52361l-.55476-.95992h.23085v-2.24035h-.90944v-1.45472h.90944v-2.24035h-.23085l.55476-.9599h1.52361v-1.5242l.96045-.55422v.23088h2.23982v-.91005h1.45528v.91005h2.23982v-.23088l.95992.55422v1.5242h1.5242l.55423.96047h-.23091v2.23979h.91008v1.45526Zm-.74809-4.65553h.23085v-2.23979h-2.23978v.23088l-.96045-.55479v-1.52363h-2.23982v.90948h-1.45528v-.90948h-2.23982v1.52363l-.96045.55479v-.23088h-2.23978v2.23979h.23027l-.55418.96047h-1.52361v2.23979h.91002v1.45526h-.91002v2.23979h1.52361l.55418.95992h-.23027v2.23977h2.23978v-.2303l.96045.55419v1.52363h2.23982v-.90947h1.45528v.90947h2.23982v-1.52363l.96045-.55419v.2303h2.23978v-2.23977h-.23085l.55476-.95992h1.52361v-2.23979h-.90997v-1.45526h.90997v-2.24035h-1.52361l-.55476-.9599s0-.00002,0-.00002Z"></path></svg> 