<?xml version="1.0" encoding="UTF-8"?> <svg xmlns="http://www.w3.org/2000/svg" id="Layer_1" data-name="Layer 1" viewBox="0 0 300 100"><defs><style> .cls-1 { fill: #fff; } .cls-2 { fill: #0867e8; } </style></defs><polygon class="cls-1" points="202.72809 51.81722 202.72809 51.7254 199.28473 35.19729 199.2388 35.05956 199.92746 35.05956 199.92746 33.269 197.99918 33.269 197.95328 33.2231 177.5686 16.09814 177.52271 16.05222 177.52271 14.44532 175.73215 14.44532 175.73215 15.1799 175.54851 15.1799 149.79218 12.01202 149.60855 12.01202 149.60855 11.04787 147.86392 11.04787 147.86392 12.14975 147.77209 12.19566 117.47055 20.55154 117.241 20.59745 117.241 19.90878 115.45044 19.90878 115.45044 21.69933 115.40454 21.74524 98.14185 38.77837 98.09592 38.82429 96.35129 38.82429 96.35129 40.56892 97.22362 40.56892 97.22362 57.51025 96.35129 57.51025 96.35129 59.25487 98.09592 59.25487 98.09592 58.97941 98.32549 59.16306 115.54227 71.10003 115.63409 71.14594 115.63409 72.6151 117.47055 72.6151 117.47055 71.32958 117.51645 71.28368 123.57677 68.39124 123.80632 68.29944 123.80632 68.75854 125.59686 68.75854 125.59686 68.48308 125.82642 68.66672 137.53384 77.20625 137.62567 77.29807 137.62567 78.76723 139.37032 78.76723 139.37032 77.57353 139.50804 77.48171 151.81229 71.28368 152.08775 71.14594 152.08775 71.55914 153.74059 71.55914 153.74059 71.60505 169.30453 90.10736 169.30453 90.15326 169.30453 92.08154 171.09509 92.08154 171.09509 91.16331 173.29884 91.16331 173.29884 92.08154 175.04347 92.08154 175.04347 90.291 173.71205 90.291 173.66612 90.19917 166.54985 76.2421 166.45805 75.96664 167.05489 75.96664 167.1008 76.01254 174.63028 82.57789 174.72211 82.62379 174.72211 84.2766 176.51265 84.2766 176.51265 83.17474 176.60448 83.12881 185.46538 81.15463 185.64902 81.10872 185.64902 81.79739 187.43954 81.79739 187.43954 80.05276 187.16411 80.05276 187.34775 79.77728 191.43385 74.17609 191.43385 74.08427 192.99484 74.08427 192.99484 72.33962 192.35208 72.33962 192.39801 72.11007 193.36215 68.85036 193.40805 68.75854 194.50992 68.75854 194.50992 66.96799 192.76529 66.96799 192.76529 67.47301 192.53574 67.33529 189.04645 65.86612 189.00055 65.77431 189.00055 65.40701 197.31052 65.40701 197.31052 66.27933 199.10107 66.27933 199.10107 64.53468 198.55011 64.53468 198.59604 64.30512 202.54443 53.7455 202.59033 53.60777 203.78403 53.60777 203.78403 51.81722 202.72809 51.81722"></polygon><path class="cls-2" d="m203.90002,53.76092v-2.0966h-1.09946l-3.43658-16.48059h.66205v-2.09662h-2.04105l-20.38422-17.12543v-1.71467h-2.09659v.75567l-25.7579-3.12823v-1.01022h-2.09659v1.1664l-30.31438,8.33734v-.58981h-2.0966v1.852l-17.26152,17.02838h-1.87721v2.0966h.88419v16.56566h-.88419v2.09662h2.0966v-.12395l17.23225,11.91374v1.57365h2.0966v-1.36649l6.06377-2.89199v.36661h2.0966v-.08167l11.71802,8.53556v1.60881h2.0966v-1.33064l12.35349-6.22302v.33636h1.71344l15.48883,18.45988v2.04256h2.09659v-.8842h1.88641v.8842h2.09659v-2.09659h-1.39378l-7.07352-14.00585h.24664l7.57188,6.55685v1.73884h2.09659v-1.11783l8.83028-2.00309v.64249h2.0966v-2.09659h-.08774l4.0519-5.60227h1.60417v-2.09659h-.57787l.93452-3.26719h1.17752v-2.09659h-2.09659v.412l-3.47054-1.51436v-.11418h8.03368v.88406h2.09662v-2.09659h-.48309l3.94379-10.6024h1.26315l.00003-.00002Zm-14.9285,10.60238h-2.02226v.88434h-22.43848v-.00142l37.29265-12.02322v.16994l-12.83189,10.97036h-.00002Zm2.0107,7.79285v.88433h-11.05177v-.51614l7.09383-6.06445h1.33105l2.94795,5.69626h-.32106Zm-5.56833,8.27917l-18.41029-5.22245v-.11359l10.83025-1.57631v.72979h1.85005l5.73003,5.81969v.36288h-.00003Zm-19.5593-6.39759l-1.95251-7.57784h.6087v-.33448l13.32309,6.73332v.33273l-10.83025,1.57627v-.73h-1.14903Zm-26.66612,2.81731h-.80646l-5.24937-23.09414h.64168v-1.27827l42.45374-16.45377v.3207l-37.03955,40.50549s-.00003,0-.00003,0Zm-15.44905-10.06268l-14.50926-13.33872v-.57679h22.44756v.88405h.30183l-6.96764,13.03147h-1.27249Zm-8.25597-44.91764l-6.87831,11.75263h-1.4716v1.34592l-8.93697,4.07514v-.14526l17.26155-17.02842s.02533,0,.02533,0Zm16.19427,30.67393h-22.44756v-.88436h-.88428v-15.94034h.88428v-.07432l22.44756,16.49638s0,.40265,0,.40264Zm-33.48114-13.13957l8.93697-4.0752v.39006h.88414v15.94034h-.51016l-9.31094-10.97553s0-1.27968,0-1.27966Zm33.48114,12.2552v.07451l-22.44756-16.49636v-.86453l28.27541-12.89313v.38994h.68985l-5.4445,29.78956h-1.07318l-.00002.00002Zm6.8513-29.78956h1.0731v-.76113l25.81412,3.00428v.63134l-31.70859,26.91509h-.62312l5.4445-29.78956h0l-.00002-.00002Zm37.06888-5.53114h.82805l.64871,18.0546h-.56844l-8.99342-9.45925v-1.55903l8.08508-7.03633h.00002Zm1.42537.00001l12.69585,20.00433h-.18835v.72893l-11.20616-1.64242v-1.03624h-.92172l-.64871-18.0546h.26912-.00002Zm.52177,0l20.38438,17.12543v.8971l-6.30206,2.44512v-.46331h-1.51956l-12.69576-20.00433h.133v-.00002Zm-43.77074,35.69458l31.70866-26.91525h1.75172l8.9933,9.45919v1.09483l-42.45374,16.45349v-.09226h.00005Zm44.55031-15.54338v-.72875l11.20616,1.64244v.83461l-25.28214,26.1202h-.12428l12.7986-27.8685h1.40169-.00003Zm8.62459,29.59733l-7.09319,6.06402h-2.02222v.33463l-13.32309-6.73312v-.18184h22.43848v.51631h.00002Zm-22.43848-1.19077v-.33662l25.28197-26.12022h1.42151l10.58916,13.2221v1.21179s-37.29263,12.02295-37.29263,12.02294Zm37.95465-13.23706h-.24329l-10.59474-13.22885v-1.27214l6.30205-2.44506v.46546h1.09933l3.43661,16.48059h.00003Zm-26.96121-35.67413l-8.08479,7.03617h-2.0031v.76113l-25.59875-2.97918,35.68668-5.1946v.37648h-.00003Zm-.19202-.68013l-35.71001,5.19793v-.38432l8.15144-7.16284h1.99268v-.75569s25.56589,3.10492,25.56589,3.10492Zm-27.66248-2.93906v.24424l-8.15155,7.16292h-1.99258v.88417h-20.00298s30.14711-8.29132,30.14711-8.29133Zm-10.14413,8.61951v.13352l-28.27541,12.89323v-.38988h-.24472l6.87822-11.75263h1.47165v-.88424s20.17026,0,20.17026,0Zm-40.19321,19.76461h.51009l9.3111,10.97567v1.335l-8.93697,4.58152v-.32652h-.88422v-16.56567Zm.88422,17.26091l8.93697-4.58162v.32649h1.94608l14.50957,13.33754v.2074l-25.39262-8.74916v-.54065h.00002Zm19.32886,13.03465v-.36645h-2.0966v.12403l-17.20499-11.89489,25.36536,8.73966v.50566s-6.06377,2.89199-6.06377,2.89198Zm8.16035-2.64819v-1.61013h-.30177l6.9678-13.03147h.44434l5.24927,23.09414h-.64159v.08201l-11.71802-8.53455h-.00003Zm13.81462,8.85111v-.25341l37.03963-40.50539h.02184l-12.79851,27.8685h-1.34921v1.38849l-8.46362,4.22729v-.3413h-2.0966v1.39253l-12.35349,6.22331v-.00002h-.00003Zm33.53877,12.8866v.8842h-1.88641v-.8842h-1.14893l-3.51103-13.62556,6.88156,13.62556h-.33519Zm-3.37421,0h-.2258l-15.48863-18.45985v-1.33448l8.46362-4.22715v.34117h1.14891l1.95267,7.57784h-.60872v2.09662h1.14909l3.60889,14.00585h-.00003Zm6.91866-7.16453v-.64223h-2.00842l-7.57159-6.55664v-.2228l18.41029,5.22247v.19632l-8.83028,2.00289h0v-.00002Zm10.43411-3.12067h-1.35716l-5.7301-5.81977v-.66659h11.05177v.88408h.08763l-4.05214,5.60227h0Zm5.49867-12.29257v1.32652h.57765l-.93445,3.26719h-.48701l-2.94768-5.69626h.32097v-.4119l3.47054,1.51444h-.00002Zm5.8264-3.19913h-1.26324v.88434h-8.03369v-.51606l12.83261-10.97069h.40839l-3.94409,10.6024h.00003Z"></path></svg> 