<?xml version="1.0" encoding="UTF-8"?> <svg xmlns="http://www.w3.org/2000/svg" id="Layer_1" data-name="Layer 1" viewBox="0 0 300 150"><defs><style> .cls-1 { fill: #fff; } .cls-2 { fill: #0867e8; } </style></defs><path class="cls-1" d="m161.88809,53.91296h0Zm5.5072.92397l3.38304-1.95336,1.95337-3.38304v-3.90671l-1.95337-3.38305-1.58929-.91762,1.75487-3.24474-.23547-1.85467.02467.01458.87502-1.51568-1.42635-.82342.40179.23174,10.65038-18.44698-4.47932-2.58616,5.18729,2.99469.87502-1.51566-10.37453-5.98976-.87502,1.51565.70796.40892-10.65038,18.44699-1.02489-.59132-.87502,1.51531.19325.11175-2.01164.49712-13.07098,22.64001.40669.24259-2.52936,4.38066-7.59151-4.38291-1.10298,1.91037-.99396-.57374-1.10298,1.91038-1.55232,1.18337.7467.9793-6.71259,5.11775,3.0968,4.06183,6.71259-5.11738.74667.97929,1.81512-1.38372-.53682.97855,1.20532.69597-4.76942,8.26082,1.9902,2.01952,3.00877.86678,4.76942-8.26084-2.49947-1.44315,3.70486,2.13912.40814-.70756-.25977,1.85057,3.05412.42909-1.83447-.2579-1.17516,8.35876,5.05832.71093,1.17477-8.35877,1.21964.17157.27174-1.9328,1.10303-1.91074-.99388-.57374.57787-1.00097,2.17726,1.257,3.0575-5.29603.49004.28295h4.74847l2.83698,14.80304-14.78993,25.61676-3.84879-4.70099,1.46597-2.53906,1.79337,1.03574,1.46597-2.53907-3.29112-1.90028-.81071-2.66166-2.65118.66307-26.24712-15.15364-1.46581,2.53868,24.62328,14.21622-1.81995-1.05068-1.46579,2.53907,3.36124,1.94065-22.72855,39.36688,29.56863-16.19387,28.04855,16.19387-5.66608-28.45223,11.13704-19.28985-14.84566-30.2841-.00008-.00006h-.00006Z"></path><path class="cls-2" d="m182.21103,15.31531h-1.01628v.15399l-8.8492-5.10916c-.00073-.00074-.0015-.00112-.0022-.00149l-.02914-.01682v-1.01629h-.15363l.01234-.0213h1.01633v-.154l8.88091,5.12747v1.01629h.15324l-.01234.02131h-.00005.00002Zm-11.35831,18.03844h-1.01633v.154l-7.46468-4.30965v-1.01667h-.15398l10.02431-17.36192h.07214v-.12484l.0127-.02206,8.71535,5.03254-10.18948,17.64859h-.00003Zm.14987,2.10736h-1.01633v.154l-9.51447-5.49339v-1.01631h-.15359l.0127-.0213h.54684v.59168h1.49397v-.15399l7.46468,4.30963v1.01629h1.02489v.59169h.15359l-.0127.02168h.0004l.00002.00002Zm-.23547,1.84011h-.46649v.12783l-3.61143-2.34992-.07625.11736.0699-.12112-4.10481-2.3787-.07027.12148.06355-.12485-3.91756-2.00643v-.3278l.32407-.1084v.34873h1.494v-.15399l9.51447,5.49339v1.01629h.72514l.05573.34612h-.00008l.00003.00002Zm-1.6405,3.79383l-.98454-.56813v-1.01667h-1.49397v.60701h-2.41234v-.60701h-1.494v1.01667l-1.88947,1.09068v-.15399h-1.494v1.49398h.15363l-1.09029,1.88907h-1.01666v1.49399h.60699v2.41272h-.60699v1.49399h1.01666l1.09068,1.88944h-.15402v1.49399h1.494v-.154l.84436.48741-3.45071,5.97706h-1.01666v.15362l-11.64688-6.72424v-1.01667h-.15324l12.20787-21.14565h1.01671v-.2067l3.78671,1.93954,4.09926,2.37497,3.76091,2.44749v1.03162h.15359l-1.32762,2.29983s.00005-.00001.00005,0l-.00002-.00002Zm.90491.84585v1.01667h1.01628l1.09065,1.88907h-.15359v1.49399h.60661v2.41272h-.60661v1.49399h.15359l-1.09065,1.88944h-1.01628v1.01629l-1.88947,1.09068v-.154h-1.49397v.60702h-2.41234v-.60702h-1.494v.154l-1.88947-1.09068v-1.01629h-1.01633l-1.09065-1.88944h.15398v-1.49399h-.60699v-2.41272h.60699v-1.49399h-.15398l1.09065-1.88907h1.01633v-1.01629l1.88947-1.09068v.15362h1.494v-.60664h2.41234v.60664h1.49397v-.15362l1.88947,1.09068s0-.00039,0-.00038Zm11.68687,42.43334h-.22462v.15362l-15.18504-8.76729v-1.01631h-.74754l-2.55066-13.30905h.46124v-1.45848l3.50639-4.39263h.62717l14.11307,28.79013h0v.00002Zm-10.34505,19.28986h-.27022l-5.25571-27.42584h.46127v-.154l15.18504,8.76767v1.01631h.15359l-10.274,17.79587h.00002Zm5.10469,28.45196h-.13867l-16.68349-20.3784v-.89706l10.70082-5.86044v.17792h.75314l5.36821,26.95798h-.00005.00003Zm-27.00987-15.17729v-.51843l8.69368-4.76154v.1697h1.20618l16.65472,20.3434v.09804l-26.55458-15.33118v.00002Zm-29.5685,15.35542v-.17815h-.15388l21.86597-37.87299h1.01633v-.15362l3.54826,2.04829v1.01629h1.17738l2.67101,3.2627v1.43829h1.17778l6.95934,8.50042v.98378l-8.69368,4.76117v-.17829h-1.49397v.99649l-28.07457,15.3756.00005.00005h0v-.00003Zm19.36739-40.46912v-1.01667h-.15384l.60332-1.0447h1.01653v-.154l6.90926,3.98932v1.01631h.15363l-.60329,1.0447h-1.01628v.15362l-3.54826-2.0483v-1.01631h-1.494v.154l-1.8671-1.07834.00005.00038h0Zm-21.33754-15.70461v-1.01667h-.15388l.6032-1.0447h1.01649v-.15362l24.75328,14.29096v1.01667h1.494v-.15362l1.96754,1.13591v1.01629h1.494v-.15362l1.79712,1.03761v1.01592h.15398l-.60364,1.0447h-1.01593v.154l-.29942-.17305v-1.01629h-1.494v.15399l-6.90926-3.98932v-1.01629h-1.49419v.15399l-21.30936-12.30322.00005.00038s0,0,0,0l.00002-.00004Zm28.87032,12.01355v.416h.82791l.35582,1.16769h-.3734v.15362l-1.96754-1.13591v-.31173l1.15723-.28967h-.00002Zm18.49257-11.89581h.26987l5.25566,27.42584h-.46089v.99649l-10.70119,5.86007v-.18652h-1.14861l-6.98811-8.53518v-1.43792h-.15363s13.9269-24.12277,13.9269-24.12278Zm-6.56874-15.69039v-.60664h-.15398l3.36996-5.8369.80211.46311v1.01667h1.494v-.60701h2.41273v.57076l-3.50679,4.39337h-1.16393v.60664s-3.25412,0-3.25412,0Zm-4.02518,4.40645h-1.01671v.15362l-.68291-.39433v-.43171h.5248v-1.49399h-1.494v.15399l-8.56953-4.94768v-1.01629h-.15402l1.26041-2.18247h1.01593v-.154l10.7468,6.2047v1.01667h.15398l-1.78474,3.0915.00002-.00002Zm-2.27779.31809v-.08112h.57822v-.15399l.40669.23511s-.98491,0-.98491,0Zm-.58682,1.91036h-1.01633v.15363l-18.14902-10.47844v-1.01631h-.15375l.2404-.41637h.51619v.57374h1.49403v-.154l16.16125,9.33095v1.01631h.99388v.57374h.15395l-.24069.41675h.00008Zm-.57751,1.9328h-.43584v-.17118h-1.49397v.50048l-4.29173-.60328-.00783-.00112-.48444-.06803v-.71055h-.14803v-.4388h.41977v-.50086l6.0032.84398v.71055h.50047l-.06168.43881h.00006Zm-2.39403,8.1872h-.71056v.50049l-3.56435-.50086v-.71055h-.50047l1.04771-7.4531,4.19193.58907v.71055h.50009l-.96436,6.86441h0Zm-10.9201-2.81903h-1.01656v.38612l-1.51482-.43657v-.81633h-1.28635l-.70386-.71391v-1.3056h-.15395l3.90714-6.76684h1.01633v-.15399l3.50508,2.02399v1.01631h.15363l-3.90656,6.76684h-.00008l-.00002-.00002Zm-9.69501-7.29836v-.00112h-1.14024l-1.95787-2.56823h.00131v-1.14038l5.21855-3.97848v.0015h1.14011l1.95795,2.56785h-.00124v1.14039s-5.21855,3.97847-5.21855,3.97846l-.00002.00002Zm2.9274-9.85124v.0015h1.14017l3.45117,4.5268h-.00113v.7782h-.27408v.40556h-.53093v-.97966h-1.1402l-1.95787-2.56785h.00128v-1.49399h-.74667v-.62608l.0583-.04448s-.00005,0-.00005,0Zm6.08421,6.00248v-1.11235h.8289v-.15363l5.91591,3.41557v.64253h-.68329v.79016h-.1312v-.69597h-1.494v.15399l-3.50508-2.024v-1.01631h-.9313.00008-.00002Zm13.5591,4.34628l-6.0036-.84362v-.33677h.68324v-1.49397h-1.49397v.15399l-5.91591-3.41557v-1.01667h-1.494v1.13217h-.47546l-3.45099-4.5268h.00137v-.15363l18.14926,10.47808v.02281s.00005,0,.00005,0l.00002-.00002Zm-15.96581-13.59426h1.01636v-.15362l6.09769,3.52061v1.01629h1.494v-.154l8.56953,4.94767v.43171h-.52477v1.00098h-.57826v.154l-16.16119-9.33095v-1.01629h-.15375l.24033-.4164h.00006Zm21.47754,6.2802v.15362l-10.74683-6.20469v-.62346l11.56018,6.67453h-.81335Zm27.23447-45.07483v-1.49398h-1.494v.15399l-8.88055-5.12747v-1.01629h-1.49435v1.494h.15398l-.0127.0213h-1.01633v1.49436h1.09816l-10.02393,17.36191h-.5472v-.59169h-1.49435v1.494h.15398l-.01234.02167h-1.01671v.84922l-.32407.10878v-.34911h-1.494v1.494h.15363l-12.2083,21.14564h-1.01666v2.44151h.15398l-1.26003,2.1821h-1.01628v.154l-6.09772-3.52061v-1.01667h-1.49403v1.49435h.15366l-.24033.4164h-.51619v-.57412h-1.49403v1.49399h.15381l-.24037.41637h-1.01636v1.1404l-.0583.04447v-.00112h-1.49403v1.49397h.74667v.62571l-5.21855,3.9781v-.00113h-1.49399v1.49399h1.14029l1.95784,2.56823h-.00131v1.49399h1.494v-1.14039l5.21855-3.97848v.00149h.7467v.9793h1.49403v-.40517h.98962v.6956h.1537l-3.9071,6.76723h-1.01607v1.49398h1.28618l.70399.71429v1.30523h1.49403v-.38612l1.51482.43619v.81633h1.49403v-1.49399h-.1537l3.90688-6.76684h.72777v.69597h.14799v1.143h1.494v-.50048l.31435.04411-1.0529,7.49272h-.71056v1.49399h1.49397v-.50048l3.56435.50086v.71055h1.494v-1.49398h-.50047l.96471-6.86478h.43622v.17157h1.49397v-1.49399h-.50044l.06165-.43919h.71059v-1.49399h-.15402l.24033-.41639h1.01633v-1.48873l.26724.15437v1.01629h1.49435v-1.49399h-.15359l1.78477-3.0915h1.01633v-.42759h.90005v-.60702h3.25412v.60702h.74751l2.55066,13.30942h-.46124v1.49398h.15398l-13.92725,24.1224h-.70009l-2.67101-3.26231v-1.43866h-.15402l.60367-1.0447h1.01628v-.154l.29942.17305v1.01629h1.49397v-1.49398h-.15359l.60326-1.0447h1.01593v-1.49399h-1.49397v.15362l-1.79712-1.03723v-1.01666h-.82791l-.35547-1.16769h.37302v-1.49398h-1.49397v.78942l-1.15723.2893v-.41563h-1.494v.15399l-24.75323-14.29134v-1.01629h-1.49402v1.49398h.15384l-.60313,1.04471h-1.01649v1.49399h1.49402v-.15362l21.30937,12.30284v1.01631h.15356l-.60321,1.04507h-1.01617v1.494h1.49403v-.15363l1.86729,1.07797v1.01629h.15363l-21.86588,37.87282h-1.01646v1.49402h1.49402v-.99626l28.07443-15.37511v.17754h1.49397v-.15362l26.55458,15.33104v1.0164h1.49397v-1.49402h-.75241l-5.36891-26.95817h.45561v-1.49398h-.15398l10.27473-17.79587h1.01633v-1.49399h-.95721l-14.11307-28.79013h.22462v-1.01667l1.8891-1.09068v.154h1.49397v-1.49399h-.15363l1.09068-1.88906h1.01633v-1.49399h-.60664v-2.41273h.60664v-1.49398h-1.01633l-1.09068-1.88908h.15363v-1.49435h-1.49397v.15399l-.66199-.38199,1.40878-2.44002h1.01633v-1.49398h-.74344l-.05573-.34612h.48482v-1.494h-.15359l.01234-.02167h1.01633v-1.494h-1.02489v-.59169h-.15359l10.01833-17.35218v.80771h1.49397v-1.49398h-.15398l.0127-.02168h1.01633l-.00018.00002-.00003-.00003Zm-37.92146,95.3369v-.23174h-1.494v.23174l-2.29234-1.10413v-.95126h-.77371l-.59396-2.60298h.4325v-1.45848l1.457-1.82702h1.16318v-.60664h2.70879v.60664h1.16318l1.457,1.82702v1.45848h.43285l-.59431,2.60298h-.77371v.95126l-2.29234,1.10413h-.00009Zm3.78636-.56103v-1.49435h-.43285l.59392-2.60298h.77409v-1.49398h-1.1636l-1.4566-1.82627v-1.45922h-1.49397v.60702h-2.70879v-.60702h-1.49397v1.45922l-1.45641,1.82627h-1.16371v1.49398h.77396l.59438,2.60335h-.43314v1.49399h1.4939v-.23175l2.29234,1.10376v.95126h1.494v-.95088l2.29234-1.10414v.23175h1.494l.00005-.00002.00006.00002Zm20.47211-62.03716h-.60664v1.49399h.15363l-.36967.64028h-1.01666v1.01667l-.64029.36966v-.15399h-1.494v.60701h-.97069v-.60701h-1.494v.15399l-.64064-.36966v-1.01667h-1.01628l-.37004-.64028h.15398v-1.49436h-.60661v-.97033h.60661v-1.49436h-.15398l.37004-.64027h1.01628v-1.01667l.64064-.36967v.154h1.494v-.60702h.97069v.60702h1.494v-.154l.64029.36967v1.01667h1.01666l.36967.64065h-.15402v1.49399h.60704v.97069Zm-.49899-3.10533h.15398v-1.49399h-1.49397v.154l-.64064-.37005v-1.01629h-1.494v.60664h-.97069v-.60664h-1.494v1.01629l-.64064.37005v-.154h-1.49397v1.49399h.15359l-.36964.64065h-1.01628v1.49399h.60699v.97069h-.60699v1.49399h1.01628l.36964.64028h-.15359v1.49397h1.49397v-.15362l.64064.36966v1.01629h1.494v-.60664h.97069v.60664h1.494v-1.01629l.64064-.36966v.15362h1.49397v-1.49397h-.15398l.37004-.64028h1.01628v-1.49399h-.60696v-.97069h.60696v-1.49436h-1.01628l-.37004-.64027s0-.00001,0,0v-.00002Z"></path></svg> 