<?xml version="1.0" encoding="UTF-8"?> <svg xmlns="http://www.w3.org/2000/svg" id="Layer_1" data-name="Layer 1" viewBox="0 0 300 200"><defs><style> .cls-1 { fill: #fff; } .cls-2 { fill: #0867e8; } </style></defs><polygon class="cls-1" points="236.03789 102.0892 236.03789 101.93939 230.41995 74.97334 230.34503 74.74863 231.46861 74.74863 231.46861 71.8273 228.32256 71.8273 228.24768 71.7524 194.98953 43.81257 194.91464 43.73767 194.91464 41.11597 191.9933 41.11597 191.9933 42.31446 191.69371 42.31446 149.67159 37.14597 149.37199 37.14597 149.37199 35.57295 146.52559 35.57295 146.52559 37.37068 146.37576 37.44559 96.93801 51.07842 96.56348 51.15333 96.56348 50.02973 93.64214 50.02973 93.64214 52.95107 93.56725 53.02596 65.40271 80.81599 65.3278 80.89089 62.48139 80.89089 62.48139 83.73731 63.90459 83.73731 63.90459 111.37752 62.48139 111.37752 62.48139 114.22391 65.3278 114.22391 65.3278 113.77448 65.70233 114.07411 93.79196 133.54959 93.94178 133.62448 93.94178 136.02147 96.93801 136.02147 96.93801 133.92412 97.0129 133.84921 106.90046 129.13014 107.27499 128.98035 107.27499 129.7294 110.1963 129.7294 110.1963 129.27997 110.57083 129.57958 129.67178 143.51204 129.82159 143.66185 129.82159 146.05882 132.66803 146.05882 132.66803 144.11128 132.89275 143.96149 152.96745 133.84921 153.41687 133.62448 153.41687 134.29865 156.11351 134.29865 156.11351 134.37355 181.50652 164.56056 181.50652 164.63545 181.50652 167.78148 184.42786 167.78148 184.42786 166.28337 188.02332 166.28337 188.02332 167.78148 190.86972 167.78148 190.86972 164.86017 188.69748 164.86017 188.62254 164.71034 177.01218 141.93901 176.8624 141.48958 177.83617 141.48958 177.91104 141.56449 190.19559 152.27602 190.34541 152.35091 190.34541 155.0475 193.26671 155.0475 193.26671 153.24979 193.41653 153.17487 207.87332 149.95395 208.17296 149.87903 208.17296 151.00261 211.09425 151.00261 211.09425 148.15619 210.64484 148.15619 210.94447 147.70677 217.61105 138.56825 217.61105 138.41846 220.15787 138.41846 220.15787 135.57202 219.10918 135.57202 219.18411 135.1975 220.75711 129.87921 220.83199 129.7294 222.62975 129.7294 222.62975 126.80808 219.78334 126.80808 219.78334 127.63204 219.40881 127.40732 213.71594 125.01033 213.64107 124.86054 213.64107 124.26128 227.19897 124.26128 227.19897 125.6845 230.12032 125.6845 230.12032 122.83806 229.22144 122.83806 229.29637 122.46353 235.73825 105.23523 235.81313 105.01053 237.76071 105.01053 237.76071 102.0892 236.03789 102.0892"></polygon><path class="cls-2" d="m237.94994,105.26038v-3.42065h-1.79378l-5.60686-26.88852h1.08015v-3.42069h-3.33002l-33.25737-27.94058v-2.79753h-3.42064v1.23289l-42.02469-5.10379v-1.6482h-3.42064v1.90302l-49.45869,13.60258v-.96229h-3.42066v3.02158l-28.16262,27.78224h-3.06273v3.42065h1.44257v27.02731h-1.44257v3.42068h3.42066v-.20222l28.11487,19.43758v2.56744h3.42066v-2.22948l9.89318-4.71835v.59813h3.42066v-.13326l19.11826,13.92599v2.62482h3.42065v-2.17097l20.15504-10.15303v.54878h2.79552l25.27043,30.1178v3.33247h3.42064v-1.4426h3.07774v1.4426h3.42064v-3.42065h-2.27402l-11.54062-22.85091h.40242l12.35371,10.69766v2.83698h3.42064v-1.82378l14.40681-3.2681v1.04823h3.42068v-3.42065h-.14314l6.61076-9.14024h2.61726v-3.42065h-.94281l1.52467-5.33051h1.92114v-3.42065h-3.42064v.67218l-5.66228-2.4707v-.18628h13.10718v1.44237h3.42068v-3.42065h-.78819l6.43442-17.2981h2.06087v-.00002l.00002.00008Zm-24.35625,17.2981h-3.29939v1.44283h-36.60896v-.00232l60.8439-19.6162v.27727l-20.93556,17.89842h.00002Zm3.28052,12.71423v1.44281h-18.03127v-.84209l11.57376-9.8943h2.17165l4.80966,9.29359h-.5238v-.00002Zm-9.08488,13.50768l-30.0369-8.52055v-.18533l17.66982-2.57179v1.19067h3.0184l9.34866,9.49496v.59206l.00002-.00002Zm-31.9115-10.43782l-3.18559-12.36345h.9931v-.54572l21.73695,10.9856v.54288l-17.66982,2.57173v-1.19102h-1.87465v-.00002Zm-43.50647,4.59651h-1.31573l-8.5645-37.6787h1.04691v-2.08554l69.26437-26.84475v.52322l-60.43098,66.08575h-.00005l-.00002.00002Zm-25.20553-16.41753l-23.67224-21.76247v-.94106h36.62378v1.44234h.49244l-11.36789,21.26118h-2.07609Zm-13.46983-73.28427l-11.22214,19.17472h-2.40097v2.1959l-14.58089,6.64869v-.237l28.16267-27.7823s.04133,0,.04132,0Zm26.42138,50.04532h-36.62378v-1.44286h-1.44273v-26.00708h1.44273v-.12125l36.62378,26.91428v.65694-.00003Zm-54.62536-21.43755l14.58089-6.64879v.6364h1.4425v26.00706h-.83236l-15.19103-17.90687v-2.08782.00002Zm54.62536,19.99469v.12157l-36.62378-26.91423v-1.41051l46.13206-21.03548v.6362h1.1255l-8.88287,48.60245h-1.75092.00002Zm11.17809-48.60245h1.75079v-1.24181l42.11639,4.90156v1.03004l-51.73339,43.91265h-1.01665l8.88284-48.60245h0s.00002.00002.00002.00002Zm60.47885-9.0242h1.35098l1.0584,29.45655h-.92741l-14.67299-15.43301v-2.54359s13.19102-11.47995,13.19102-11.47996Zm2.32553,0l20.71359,32.63758h-.30733v1.18926l-18.28313-2.67965v-1.69065h-1.50383l-1.0584-29.45655s.43909,0,.43909,0Zm.85127,0l33.25764,27.94058v1.46365l-10.28198,3.98927v-.75591h-2.47919l-20.71346-32.63759s.21698,0,.21698,0Zm-71.41309,58.23665l51.73353-43.91292h2.85797l14.67281,15.43291v1.78625l-69.26436,26.84431v-.15053h.00005v-.00002Zm72.68499-25.35943v-1.18897l18.28313,2.67968v1.36169l-41.24847,42.61578h-.20276l20.88124-45.46819h2.2869-.00005.00002Zm14.07124,48.28882l-11.57271,9.89362h-3.2993v.54596l-21.73695-10.98526v-.29668h36.60898v.84238l-.00002-.00002Zm-36.60896-1.94275v-.54919l41.2482-42.61582h2.31921l17.2765,21.5722v1.97707l-60.84392,19.61575Zm61.92397-21.59662h-.39693l-17.28558-21.58321v-2.07554l10.28198-3.98917v.75941h1.79359l5.60695,26.88851h-.00002Zm-43.98795-58.20327l-13.19057,11.47969h-3.26813v1.24181l-41.76505-4.86061,58.22372-8.47513v.61424h.00002Zm-.31326-1.10966l-58.26181,8.48055v-.62702l13.29929-11.68636h3.25111v-1.23292l41.71143,5.06575h-.00002Zm-45.13205-4.79515v.39848l-13.29945,11.6865h-3.25095v1.44254h-32.63539l49.18581-13.52751-.00002-.00002Zm-16.55042,14.06296v.21785l-46.13206,21.03565v-.6361h-.39926l11.222-19.17472h2.40104v-1.44267h32.90829Zm-65.57627,32.24648h.83222l15.19131,17.90709v2.1781l-14.58089,7.47485v-.53273h-1.44263v-27.02732h-.00002Zm1.44263,28.16164l14.58089-7.47502v.53267h3.17508l23.67274,21.76054v.33838l-41.42871-14.27448s0-.8821,0-.8821Zm31.53553,21.26637v-.59785h-3.42066v.20236l-28.07039-19.40681,41.38423,14.25899v.825l-9.89318,4.71835v-.00003Zm13.31384-4.32059v-2.62697h-.49237l11.36814-21.26118h.72494l8.56432,37.6787h-1.04678v.1338l-19.11826-13.92435h.00002Zm22.53891,14.44081v-.41345l60.43112-66.0856h.03561l-20.8811,45.46819h-2.20126v2.26537l-13.80862,6.89693v-.55684h-3.42068v2.27196l-20.15504,10.1535v-.00003l-.00002-.00002Zm54.71938,21.02483v1.4426h-3.07774v-1.4426h-1.87453l-5.72833-22.23045,11.22745,22.23045h-.54684Zm-5.5051,0h-.36839l-25.27011-30.11772v-2.17725l13.80862-6.8967v.55663h1.87447l3.18582,12.36345h-.99315v3.42068h1.87479l5.88799,22.85091h-.00005.00002Zm11.28796-11.68912v-1.04782h-3.27679l-12.35327-10.69733v-.36351l30.0369,8.52058v.32031l-14.40681,3.26778h0l-.00002-.00002Zm17.02353-5.09145h-2.21425l-9.34882-9.49512v-1.08755h18.03127v1.44241h.14296l-6.61118,9.14024h0l.00002.00002Zm8.97122-20.05566v2.16426h.94244l-1.5246,5.33051h-.79459l-4.8092-9.29359h.52367v-.67203l5.66228,2.47086Zm9.50591-5.21948h-2.061v1.44283h-13.10716v-.84196l20.93674-17.89896h.66631l-6.43488,17.2981Z"></path></svg> 