<?xml version="1.0" encoding="UTF-8"?> <svg xmlns="http://www.w3.org/2000/svg" id="Layer_1" data-name="Layer 1" viewBox="0 0 300 225"><defs><style> .cls-1 { fill: #fff; } .cls-2 { fill: #0867e8; } </style></defs><path class="cls-1" d="m131.45922,138.19946l21.992.37436-4.49849,4.548-4.89838,4.52357-9.22131,6.49715-.14977.12546.09962.17497,1.07462,1.62495,7.49736,8.72098,7.94646,7.64737,8.59683,8.12279,6.72298,8.34592,5.22282,9.52122-15.34424,9.271-4.92305-5.07294-13.02007-13.71928-7.27191-7.74776-6.19793-8.34659-3.62335-7.69756v-.1994h-.05012l-.54961-4.14853,1.47386-5.69756,8.69703-16.79288h.07488v-.07529h.34982-.00007v.00003Zm51.00535-49.15587v-.10104l-.14989-.07392.09969-.10037-3.59782-7.62297-6.17297-8.34591-7.27232-7.72196-7.59718-8.02243-8.62193-8.14585-7.94659-7.64805-7.49736-8.72162-5.39745-8.19671-.02536-.02511v-.04951l-.77443-3.82436v-.09971l1.47393-5.64736-8.77129,16.89327-1.47454,5.69753.57504,4.29913,3.62335,7.72196,6.19792,8.34661,7.27186,7.74638,7.54753,7.94712.04945.05019,8.59657,8.12212,7.94783,7.64669,7.49612,8.72231,1.07497,1.62363.10037.17497-.14989.12544-9.22214,6.49716-4.89795,4.52426-4.49783,4.54732,21.99127.37505h.34995l8.77116-16.89326,1.47441-5.69822-.57378-4.12279h-.0007Z"></path><path class="cls-2" d="m184.33845,94.46582v-2.57378h-1.24925l-.22447-1.72397h.92438v-2.57378h-1.67378l-2.42387-5.14821h.44966v-2.57375h-1.99934l-4.29842-5.77283h.07462v-2.62464h-2.22382l-5.04851-5.34758v-2.37438h-2.22382l-5.3727-5.64874v-2.37369h-2.34929l-6.24757-5.89761v-2.22447h-2.32417l-5.62308-5.4222v-2.24961h-2.12404l-5.34787-6.22178v-2.47406h-1.89929l-3.72353-5.67313h.19994v-2.57446h-1.34955l-.2748-1.32453h.82455v-2.59885h-.74967l.79979-3.12311h1.42443v-2.57512h-2.57404v2.57377h.4l-1.62449,3.12445h-.25005v.49983l-5.54794,10.69588h-1.77423v2.57446h.74975l-.7998,3.12308h-1.42449v2.57446h1.24992l.22462,1.72467h-.92479v2.57374h1.67454l2.42422,5.14822h-.45005v2.57377h1.99947l4.2981,5.77284h-.07494v2.57377h2.22428l5.04838,5.37269v2.37369h2.22353l5.37338,5.6487v2.34862h2.34926l6.24757,5.89897v2.22312h2.3235l5.62296,5.42356v2.24822h2.1248l5.3476,6.22314v2.47408h1.19908v1.17532l-6.79692,4.82268v-.12546h-2.57376v2.19872l-2.52426,2.3242h-2.39948v2.29976l-2.22382,2.24892h-2.274v2.57375h2.57443v-1.07426l19.76678.34926v1.09937h.29974l-3.54832,5.99867h-1.82436v.72499l-18.76779-5.27299v-1.45065h-2.57378v2.00002l-1.30002.94948v-.07529h-2.57397v2.57512h2.57397v-.27534l16.36893,9.99529v1.2506l-1.29945.94881v-.07393h-2.57376v.72499l-18.76793-5.27299v-1.45068h-2.59933v2.57378h.30023l-3.54902,5.99867h-1.82368v2.57375h.39925l-1.62435,3.12379h-.24952v.49983l-5.54787,10.69591h-1.72466v2.57375h.74962l-.79919,3.12376h-1.42442v2.57378h1.24924l.22475,1.72533h-.92431v2.57376h1.67393l2.42416,5.14755h-.44938v2.57443h1.99885l4.2987,5.77216h-.07488v2.57445h2.22422l5.04777,5.3727v2.37506h2.22421l5.3727,5.64668v2.34927h2.22403l3.19974,3.37402v2.3486h2.24889l2.64838,2.74942v2.3235h2.57445v-1.79857l12.76981-7.72198v.27467h2.57376v-2.57376h-1.77419l-3.79858-6.94814h.34995v-2.57376h-2.07394l-4.64836-5.77283v-2.57376h-2.34929l-6.24756-5.89761v-2.22449h-2.3235l-5.62302-5.4222v-2.24959h-2.12466l-5.37268-6.24825v-2.47408h-1.19968v-1.17397l6.7971-4.79825v.12479h2.57404v-2.19872l2.52432-2.32419h2.39879v-2.29976l2.22449-2.24892h2.27402v-2.57378h-2.59885v1.07426l-19.76768-.34927v-1.09935h-.29962l3.54841-5.99869h1.8243v-.69855l18.76787,5.27299v1.44864h2.57376v-1.99866l1.30009-.95015v.07529h2.57376v-2.57378h-2.57376v.27402l-16.36888-9.99597v-1.24857l1.29936-.95016v.07529h2.62389v-.72499l18.76781,5.27299v1.44864h2.57375v-2.57378h-.29907l3.54832-5.99733h1.82437v-2.5995h-.40015l1.6243-3.12379h.25026v-.49983l5.54834-10.69519h1.72398v-2.57443h-.75011l.79962-3.12379,1.47508.02511h-.00145l.00012-.00004Zm-53.87903,45.40745l-.69949,2.72432h-.6995l1.39973-2.72432s-.00074,0-.00073,0Zm-2.12392,4.09903v1.19907h.4l-5.09795,9.82169v-1.19974h-.39979l5.09774-9.82101Zm-6.12237,12.39476h.69949l-1.42442,2.72433.72493-2.72433Zm-.97498,5.69891h.92486v-2.57513h-.39987l1.62435-3.12376h.25005v-.49916l5.54795-10.69521h.49956l.2748,1.32317h-.82449v2.57375h.39994l-7.64711,14.72031h-.4l-.25006-1.72398.00002.00003Zm1.02456,4.32285h.45005v-2.57376h-.4l7.6471-14.72031h1.05005l.87399,1.32452h-.19993v2.57446h1.67447v2.54933h1.19981v1.79929h.22475l-9.1217,14.19402h-.97444l-2.42415-5.14752s0-.00003,0-.00003Zm4.02382,7.72198h.07488v-2.57446h-.22468l9.12103-14.19402h1.42442l5.34796,6.22247v2.47475h.1003l-10.17095,13.84341h-1.39966l-4.27326-5.77216h-.00004Zm18.09286-8.04752l5.62254,5.42288v2.24959h.02577l-10.74612,13.89491h-1.67461l-5.04763-5.3727v-2.37506h-.10031l10.17103-13.84341h1.74933v.02379Zm7.99692,7.64804l6.24756,5.89761v2.14923l-11.64603,13.84409h-1.77383l-5.3727-5.64804v-2.3486h-.02544l10.74606-13.89493h1.82436v.00067-.00002l.00002-.00002Zm8.29707,8.14584l4.64771,5.7735v2.19872l-12.64433,11.54633h-2.0502l-3.19839-3.37402v-2.29909l11.64536-13.84544h1.59985l.00002.00002Zm10.22115,15.29475h-.34995v1.82436l-12.77051,7.72198v-.27534h-2.24889l-2.64903-2.74873v-1.94914l12.64502-11.54498h1.59985l3.77351,6.97188v-.00002h-.00002Zm-34.93661-44.05852v-.12411h-1.67447v-1.5246l8.39673-3.07359-6.72224,4.72231h-.00002Zm-1.67447-2.07393v-.6002h-1.89929l-.87467-1.32452h.19993v-1.39844l15.94324-4.02444v.37572l-2.52359,2.3235h-2.39873v1.54968l-8.44695,3.09869h.00005v.00002h.00002Zm17.86838-12.24556v.84911l-2.22449,2.24957h-2.27467v1.39983l-15.94324,4.02374v-.75009h-1.34954l-.2748-1.32452h.82455v-2.57376h-.74968l.7998-3.12378h1.42442v-1.07494l19.76768.32553v-.00069h-.00003Zm29.48808-51.20605h-.44963v2.57378h.40015l-7.64737,14.72031h-1.04987l-.87421-1.32452h.1994v-2.57445h-1.6738v-2.54868h-1.19974v-1.79927h-.22449l9.12109-14.1947h.97525l2.4232,5.14754h0Zm-3.99866-7.72197h-.07462v2.57442h.22516l-9.14685,14.1947h-1.42422l-5.34827-6.22315v-2.4734h-.09972l10.17097-13.84475h1.3998l4.29774,5.77217h-.00002.00002Zm-18.11742,8.04751l-5.62296-5.42356v-2.24822h-.0251l10.74608-13.89492h1.67448l5.04784,5.37335v2.37369h.10037l-10.17162,13.84475-1.74908-.02509h-.00002Zm-7.97223-7.67178l-6.2473-5.89761v-2.1499l11.64577-13.84477h1.77415l5.3727,5.64874v2.3486h.02509l-10.74606,13.89493h-1.82436.00002v.00002Zm-8.49689-8.12209l-5.3727-5.64737v-2.3486h-.02489l10.74559-13.89492h1.82436l6.24757,5.89761v2.14853l-11.64514,13.84477h-1.7748v-.00002Zm-7.57161-7.99598l-5.04838-5.37471v-2.37369h-.1003l10.17169-13.84475h1.74867l5.62369,5.42353v2.24824h.02441l-10.74586,13.89495-1.67392.02644v-.00002Zm-7.14755-47.7574l-.69948,2.72364h-.72493l1.42442-2.72364h-.00002Zm-2.12391,4.09834v1.19976h.39925l-5.12264,9.84607v-1.19973h-.39987s5.12326-9.8461,5.12327-9.8461Zm-6.12306,12.39547h.69957l-1.4245,2.72364.72493-2.72364Zm-.99973,5.69753h.92486v-2.57446h-.39987l1.62436-3.12308h.25005v-.49983l5.54793-10.69588h.49956l.27494,1.32453h-.8247v2.57374h.4l-7.6471,14.71965h-.4l-.25005-1.72467h.00003Zm1.02456,4.32353h.44997v-2.57377h-.39985l7.6471-14.71962h1.0499l3.77309,5.67314h-.2v2.57374h.22529l-9.12163,14.19473h-.9743l-2.44958-5.14822h0Zm4.02375,7.72195h.07488v-2.57374h-.22461l9.12096-14.19473h1.42442l5.34801,6.2225v2.4734h.10031l-10.17095,13.84475h-1.39972l-4.27328-5.77218h-.00003Zm43.80786,50.28101v.12546h1.67514v1.52324l-8.39677,3.07497,6.72163-4.72366h0Zm1.67514,2.07462v.59885h1.89894l.87489,1.32452h-.20007v1.40048l-15.94444,4.0224v-.37436l2.52493-2.32486h2.39877v-1.54968l8.44696-3.09734.00002-.00002Zm1.89894,11.5199v1.07562l-19.76744-.35201v-.84843l2.22449-2.24889h2.27332v-1.3754l15.94444-4.0224v.74944h1.34961l.27467,1.32452h-.82468v2.57442h.75008l-.80026,3.12312h-1.42424.00002Zm1.92406-.39946l.69923-2.72432h.70058l-1.39981,2.72432Zm2.1248-4.07326v-1.19974h-.40015l5.09802-9.821v1.19904h.39946l-5.09735,9.82169h0l.00002.00002Zm6.12141-12.4212h-.69853l1.42354-2.72298-.72501,2.72298Zm-1.14886,0h-.25026v.5005l-5.54765,10.69591h-.49985l-.27467-1.32452h.82471v-2.57445h-.40015l7.64737-14.71896h.39946l.22516,1.724h-.92506v2.59887h.39946l-1.59851,3.09869h0v-.00003Z"></path></svg> 