<?xml version="1.0" encoding="UTF-8"?> <svg xmlns="http://www.w3.org/2000/svg" id="Layer_1" data-name="Layer 1" viewBox="0 0 200 300"><defs><style> .cls-1 { fill: #fff; } .cls-2 { fill: #0867e8; } </style></defs><path class="cls-1" d="m121.05809,107.1941h0Zm9.73945,1.63402l5.98288-3.45451,3.45452-5.98289v-6.90901l-3.45452-5.98289-2.81065-1.62281,3.10347-5.73831-.41644-3.27997.04363.02578,1.54748-2.68046-2.52246-1.45621.71059.40984,18.83513-32.62337-7.92165-4.5736,9.17367,5.2961,1.54748-2.68044-18.34729-10.59284-1.54748,2.68041,1.25202.72317-18.83513,32.62337-1.81252-1.04576-1.54748,2.67981.34178.19762-3.55758.87916-23.11595,40.03871.71923.42902-4.47315,7.74718-13.42554-7.75114-1.95062,3.37847-1.75779-1.01466-1.95062,3.3785-2.74526,2.09279,1.32054,1.73188-11.87118,9.05071,5.47667,7.18333,11.87118-9.05005,1.32048,1.73188,3.21004-2.4471-.94935,1.73056,2.1316,1.23082-8.43471,14.6092,3.51966,3.57151,5.32101,1.53291,8.4347-14.60924-4.4203-2.55219,6.55205,3.78304.7218-1.25132-.45939,3.27273,5.40119.75884-3.24426-.4561-2.07825,14.78242,8.94562,1.25727,2.07757-14.78242,2.15693.30342.48057-3.41815,1.95069-3.37914-1.75768-1.01466,1.02194-1.7702,3.85045,2.22299,5.40715-9.36599.86661.50038h8.39765l5.01717,26.1791-26.1559,45.30309-6.80656-8.31367,2.59255-4.4903,3.17155,1.83171,2.59255-4.49034-5.82033-3.36063-1.43376-4.70713-4.68862,1.17264-46.41785-26.79913-2.59227,4.48965,43.54611,25.1413-3.21856-1.85813-2.59225,4.49034,5.94433,3.43204-40.1953,69.62007,52.29196-28.63875,49.6037,28.63875-10.02041-50.31758,19.6958-34.11397-26.25447-53.55725-.00013-.00011v-.00005Z"></path><path class="cls-2" d="m156.99909,38.93441h-1.79728v.27234l-15.64974-9.03551c-.00131-.00131-.00263-.00198-.00389-.00264l-.05153-.02975v-1.79731h-.27169l.02182-.03767h1.79735v-.27235l15.70585,9.06789v1.79731h.271l-.02182.03769h-.00007Zm-20.08709,31.90087h-1.79735v.27235l-13.20124-7.62159v-1.79797h-.27232l17.72792-30.70445h.12758v-.22078l.02245-.03902,15.41303,8.90002-18.02005,31.21143h-.00002Zm.26504,3.72685h-1.79735v.27235l-16.82627-9.71503v-1.79734h-.27163l.02245-.03766h.9671v1.04638h2.64209v-.27233l13.20124,7.62157v1.7973h1.81252v1.04639h.27163l-.02245.03834h.00068l-.00002.00002Zm-.41644,3.25422h-.82498v.22607l-6.38679-4.15582-.13483.20755.12362-.2142-7.25936-4.20672-.12425.21483.11241-.22079-6.92817-3.54836v-.57971l.57309-.1917v.61673h2.64214v-.27233l16.82627,9.71503v1.7973h1.28242l.09855.61211h-.00013l.00002-.00002Zm-2.90123,6.70937l-1.74117-1.00475v-1.79797h-2.64209v1.0735h-4.26623v-1.0735h-2.64214v1.79797l-3.3415,1.92885v-.27234h-2.64214v2.64209h.27169l-1.92817,3.34081h-1.79798v2.64211h1.07348v4.26687h-1.07348v2.64211h1.79798l1.92887,3.34146h-.27239v2.64211h2.64214v-.27235l1.49325.86198-6.10256,10.57039h-1.79798v.27167l-20.59743-11.89177v-1.79798h-.271l21.58955-37.39595h1.79803v-.36555l6.69678,3.43006,7.24951,4.20011,6.65114,4.32837v1.82442h.27163l-2.34788,4.06724s.00005-.00003.00005,0l.00004.00004Zm1.60033,1.49589v1.79798h1.79728l1.92882,3.34081h-.27163v2.64211h1.07279v4.26687h-1.07279v2.64211h.27163l-1.92882,3.34146h-1.79728v1.7973l-3.3415,1.92887v-.27234h-2.64209v1.0735h-4.26623v-1.0735h-2.64214v.27234l-3.3415-1.92887v-1.7973h-1.79735l-1.92882-3.34146h.27232v-2.64211h-1.07348v-4.26687h1.07348v-2.64211h-.27232l1.92882-3.34081h1.79735v-1.7973l3.3415-1.92885v.27168h2.64214v-1.07284h4.26623v1.07284h2.64209v-.27168l3.3415,1.92885s0-.00068,0-.00067Zm20.66815,75.04311h-.39727v.27169l-26.85465-15.5049v-1.79733h-1.32203l-4.51082-23.53696h.81571v-2.57932l6.20104-7.76833h1.10915l24.95888,50.91516h0Zm-18.29512,34.11401h-.47787l-9.29466-48.50243h.81576v-.27234l26.85465,15.50557v1.79733h.27163l-18.1695,31.47188h0v-.00002Zm9.02762,50.31711h-.24524l-29.50462-36.03908v-1.58645l18.92433-10.36414v.31465h1.33195l9.49363,47.67502h-.00005Zm-47.76678-26.84095v-.91685l15.37473-8.42075v.30013h2.13311l29.45377,35.97718v.17337l-46.96161-27.11309Zm-52.29172,27.156v-.31505h-.27213l38.66984-66.97816h1.79735v-.27169l6.27507,3.6224v1.79731h2.08221l4.72365,5.77007v2.54361h2.08289l12.30756,15.03293v1.7398l-15.37473,8.4201v-.31532h-2.64209v1.7623l-49.64969,27.19164.00006.00005h0v-.00002Zm34.25109-71.56938v-1.79798h-.27206l1.06696-1.84755h1.79773v-.27235l12.21897,7.05508v1.79733h.27169l-1.06689,1.84755h-1.79728v.27169l-6.27507-3.6224v-1.79733h-2.64214v.27235l-3.30193-1.90704.00005.00067h0l-.00002-.00002Zm-37.73531-27.77349v-1.79798h-.27213l1.06675-1.84756h1.79766v-.27168l43.77602,25.27347v1.79798h2.64214v-.27169l3.47959,2.00884v1.79731h2.64214v-.27169l3.17819,1.835v1.79665h.27232l-1.06752,1.84755h-1.79666v.27235l-.52953-.30605v-1.79731h-2.64214v.27233l-12.21897-7.05508v-1.79731h-2.64247v.27233l-37.68547-21.75817.00006.00066s0-.00003,0,0v.00004Zm51.05697,21.2459v.7357h1.46416l.62927,2.06504h-.66037v.27169l-3.47959-2.00884v-.55129l2.04654-.51227h0v-.00002Zm32.70401-21.03768h.47726l9.29459,48.50243h-.81508v1.7623l-18.92496,10.3635v-.32986h-2.03131l-12.35844-15.09442v-2.54296h-.27169s24.62963-42.66097,24.62963-42.66098Zm-11.61677-27.74835v-1.07283h-.27232l5.95975-10.32252,1.41851.819v1.79798h2.64214v-1.0735h4.26691v1.00938l-6.20172,7.76966h-2.05838v1.07283h-5.7549Zm-7.11849,7.79279h-1.79803v.27168l-1.2077-.69737v-.76347h.92809v-2.64211h-2.64214v.27234l-15.15518-8.74994v-1.7973h-.27239l2.22901-3.85969h1.79666v-.27235l19.00564,10.97296v1.79798h.27232l-3.15632,5.46729.00004-.00003Zm-4.02825.56254v-.14346h1.02257v-.27234l.71923.41579s-1.7418,0-1.7418,0Zm-1.0378,3.37847h-1.79735v.27169l-32.09642-18.53105v-1.79734h-.27187l.42516-.73635h.91288v1.01466h2.6422v-.27235l28.5811,16.50173v1.79733h1.75768v1.01466h.27226l-.42565.73703h.00005l-.00002-.00002Zm-1.02133,3.41814h-.77076v-.30273h-2.64209v.88509l-7.5899-1.0669-.01384-.00197-.85671-.12031v-1.25661h-.26179v-.77602h.74236v-.88577l10.61664,1.49257v1.25659h.88511l-.10908.77603h.00005v.00002Zm-4.23381,14.47901h-1.25659v.88512l-6.30355-.88577v-1.25661h-.88511l1.8529-13.18077,7.41338,1.04176v1.25661h.88441l-1.70544,12.13966s0-.00003,0,0Zm-19.31214-4.98542h-1.79778v.68285l-2.67895-.77207v-1.44367h-2.27491l-1.24474-1.26255v-2.30894h-.27225l6.90974-11.96712h1.79735v-.27234l6.19872,3.57941v1.79734h.27169l-6.90873,11.96712-.00013-.00003h0v.00002Zm-17.14554-12.90709v-.00197h-2.0165l-3.46248-4.5419h.00232v-2.01676l9.22896-7.0359v.00265h2.01626l3.46262,4.54122h-.0022v2.01677s-9.22896,7.03589-9.22896,7.03589h-.00002Zm5.17709-17.42185v.00265h2.01639l6.10336,8.00561h-.002v1.37624h-.48471v.71723h-.93896v-1.73253h-2.01644l-3.46248-4.54122h.00225v-2.64211h-1.32048v-1.10722l.10312-.07867s-.00006,0-.00005,0Zm10.75989,10.61534v-1.96718h1.46592v-.27169l10.46224,6.0404v1.1363h-1.20838v1.39741h-.23201v-1.23082h-2.64214v.27234l-6.19872-3.57942v-1.79733h-1.64702.00013-.00002Zm23.97918,7.68635l-10.61733-1.49195v-.59558h1.20831v-2.64208h-2.64209v.27234l-10.46224-6.0404v-1.79798h-2.64214v2.00223h-.84085l-6.10305-8.00561h.00244v-.27169l32.09686,18.53041v.04033s.00005-.00003.00005,0h.00004Zm-28.23543-24.04137h1.79742v-.27167l10.78372,6.22617v1.7973h2.64214v-.27234l15.15518,8.74992v.76347h-.92804v1.77022h-1.02263v.27234l-28.58097-16.50173v-1.7973h-.27187l.42503-.7364h.00006-.00004Zm37.98289,11.10651v.27168l-19.00571-10.97295v-1.10259l20.44411,11.80385h-1.4384v.00002Zm48.16396-79.71453v-2.64209h-2.64214v.27234l-15.70522-9.06789v-1.79731h-2.64277v2.64211h.27232l-.02245.03767h-1.79735v2.64276h1.9421l-17.72724,30.70443h-.96773v-1.04639h-2.64277v2.64211h.27232l-.02182.03833h-1.79803v1.50184l-.57309.19237v-.6174h-2.64214v2.64211h.27169l-21.59029,37.39593h-1.79798v4.3178h.27232l-2.22833,3.85904h-1.79728v.27235l-10.78377-6.22617v-1.79798h-2.6422v2.64274h.27176l-.42503.7364h-.91288v-1.01534h-2.6422v2.64211h.27201l-.42509.73635h-1.79741v2.0168l-.10312.07865v-.00197h-2.6422v2.64208h1.32048v1.10655l-9.22896,7.03525v-.00201h-2.64211v2.64211h2.0166l3.46243,4.5419h-.00232v2.64211h2.64214v-2.01677l9.22896-7.0359v.00265h1.32054v1.73188h2.6422v-.71654h1.75014v1.23015h.27181l-6.90968,11.9678h-1.79691v2.64209h2.27459l1.245,1.26322v2.30829h2.6422v-.68285l2.67895.77142v1.44367h2.6422v-2.64211h-.27181l6.9093-11.96712h1.28706v1.23082h.26171v2.02139h2.64214v-.88509l.55592.07799-1.86204,13.25084h-1.25659v2.64211h2.64209v-.88509l6.30355.88577v1.25661h2.64214v-2.64209h-.88511l1.70607-12.14032h.77144v.30341h2.64209v-2.64211h-.88504l.10902-.7767h1.25666v-2.64211h-.27239l.42502-.73638h1.79735v-2.63282l.47262.273v1.7973h2.64277v-2.64211h-.27163l3.15637-5.46729h1.79735v-.7562h1.59174v-1.07351h5.75488v1.07351h1.32198l4.51082,23.53763h-.81571v2.64209h.27232l-24.63026,42.66032h-1.2381l-4.72365-5.76939v-2.54426h-.27239l1.06759-1.84755h1.79728v-.27235l.52953.30605v1.79731h2.64209v-2.64209h-.27163l1.06684-1.84755h1.79666v-2.64211h-2.64209v.27169l-3.17819-1.83434v-1.79796h-1.46416l-.62864-2.06504h.65967v-2.64209h-2.64209v1.39608l-2.04654.51164v-.73505h-2.64214v.27233l-43.77596-25.27415v-1.7973h-2.64218v2.64209h.27206l-1.06665,1.84756h-1.79766v2.64211h2.64218v-.27168l37.68549,21.75749v1.79733h.27158l-1.06678,1.8482h-1.7971v2.64212h2.6422v-.27169l3.30231,1.90637v1.79731h.27169l-38.66968,66.97783h-1.7976v2.64218h2.64218v-1.76189l49.64944-27.19079v.31398h2.64209v-.27169l46.96161,27.11285v1.79751h2.64209v-2.64218h-1.33064l-9.49489-47.67536h.80573v-2.64209h-.27232l18.17082-31.47188h1.79735v-2.64211h-1.69284l-24.95888-50.91516h.39727v-1.79798l3.34087-1.92887v.27235h2.64209v-2.64211h-.27169l1.92887-3.3408h1.79735v-2.64211h-1.07285v-4.2669h1.07285v-2.64209h-1.79735l-1.92887-3.34081h.27169v-2.64275h-2.64209v.27234l-1.17071-.67554,2.49145-4.31515h1.79735v-2.64209h-1.31476l-.09855-.61211h.85739v-2.64211h-.27163l.02182-.03833h1.79735v-2.64211h-1.81252v-1.04639h-.27163l17.71734-30.68721v1.42844h2.64209v-2.64209h-.27232l.02245-.03834h1.79735l-.00032.00004-.00005-.00013Zm-67.06385,168.60272v-.40983h-2.64214v.40983l-4.05401-1.95263v-1.6823h-1.36829l-1.05042-4.60336h.76487v-2.5793l2.57669-3.23107h2.05706v-1.07285h4.79048v1.07285h2.05706l2.57669,3.23107v2.5793h.76549l-1.05105,4.60336h-1.36829v1.6823l-4.05401,1.95263h-.00014Zm6.69615-.99217v-2.64275h-.76549l1.05035-4.60336h1.36899v-2.64209h-2.05782l-2.57601-3.22976v-2.58062h-2.64209v1.07351h-4.79048v-1.07351h-2.64209v2.58062l-2.57563,3.22976h-2.058v2.64209h1.36874l1.05116,4.60401h-.76599v2.64211h2.64194v-.40985l4.05401,1.952v1.6823h2.64214v-1.68163l4.05401-1.95267v.40985h2.64214l.00005-.00004.00005.00004Zm36.20478-109.71234h-1.07285v2.64211h.27169l-.65378,1.13235h-1.79798v1.79798l-1.13234.65374v-.27234h-2.64214v1.0735h-1.71667v-1.0735h-2.64214v.27234l-1.13297-.65374v-1.79798h-1.79728l-.65441-1.13235h.27232v-2.64276h-1.07279v-1.71602h1.07279v-2.64276h-.27232l.65441-1.13232h1.79728v-1.79798l1.13297-.65377v.27235h2.64214v-1.07351h1.71667v1.07351h2.64214v-.27235l1.13234.65377v1.79798h1.79798l.65378,1.13299h-.27239v2.64211h1.07355v1.71666Zm-.88247-5.49176h.27232v-2.64211h-2.64209v.27235l-1.13297-.65444v-1.7973h-2.64214v1.07284h-1.71667v-1.07284h-2.64214v1.7973l-1.13297.65444v-.27235h-2.64209v2.64211h.27163l-.65373,1.13299h-1.79728v2.64211h1.07348v1.71666h-1.07348v2.64211h1.79728l.65373,1.13235h-.27163v2.64208h2.64209v-.27167l1.13297.65374v1.7973h2.64214v-1.07283h1.71667v1.07283h2.64214v-1.7973l1.13297-.65374v.27167h2.64209v-2.64208h-.27232l.65441-1.13235h1.79728v-2.64211h-1.07342v-1.71666h1.07342v-2.64276h-1.79728l-.65441-1.13232s0-.00003,0-.00002Z"></path></svg> 