<?xml version="1.0" encoding="UTF-8"?> <svg xmlns="http://www.w3.org/2000/svg" id="layer" viewBox="0 0 652 200"><path d="m337.02296,28.24649h10.95599c1.375,0,1.27902.911,1.27902,1.83,0,3.923.09598,7.94299.09598,11.875l.27103,11.05199c0,1.374.552,1.734,1.82999,1.734h28.681c1.55899,0,1.918-.544,1.918-2.006v-24.573c3.93201,0,7.67999-.09601,11.332.088.36801,0,1.00699,1.006,1.00699,1.55.08801,2.10199-.09598,4.203-.09598,6.30499v56.4589c0,1.91801-.45502,2.6452-2.461,2.5573-2.741-.1838-5.48203-.0879-8.22302,0-1.73499.0879-2.198-.5514-2.198-2.2855.18402-7.4.18402-14.8879.36801-22.2877,0-1.73399-.54401-2.374-2.28601-2.374-9.31799.08801-18.724.08801-28.04199,0-1.646,0-2.285.456-2.55701,2.006-1.55798,9.0464-4.93799,17.2695-11.06,24.214-7.57599,8.4948-16.70999,14.7041-28.04199,16.622-9.134,1.6462-18.17999.7352-26.858-2.7411-9.686-3.92371-17.909-9.7734-23.847-18.5399-6.481-9.5017-8.399-20.194-7.759-31.518.63901-11.148,4.659-20.73701,12.05901-28.96101,7.855-8.67799,17.44501-14.256,29.13599-15.894,11.24402-1.55901,22.01602-.09599,31.974,5.658,2.285,1.278,2.285,1.46199,1.00601,3.564-1.46201,2.373-2.92401,4.755-4.29102,7.216-.72699,1.278-1.27798,1.37399-2.55698.735-6.85699-3.476-14.16101-5.298-21.92801-4.659-12.51501,1.09499-21.561,7.672-27.858,18.26799-3.293,5.482-5.394,11.332-5.02699,17.813.72699,10.692,3.65199,20.5538,12.243,27.5942,8.39899,6.9365,18.26801,11.052,29.13599,9.1341,13.80103-2.4693,24.11801-9.95721,28.961-23.75031,2.74103-7.68,2.74103-15.623,2.65302-23.66199-.09601-7.312,0-14.617,0-21.92901.08801-.183.18399-.455.18399-1.09399m-37.18399,60.8377c-3.931-.911-7.767-1.7341-11.603-2.733-2.10202-.5514-2.19-1.2866-.823-2.9249.55099-.63931,1.00699-1.3745,1.55798-1.83,2.55701-2.0058,2.64502-5.2104,4.108-7.7678,1.09399-1.918-.36798-3.013-2.55798-2.829-1.918.184-3.931-.088-5.75302-.551-1.82999-.45599-2.01398-1.918-1.55899-3.74.28-1.191-.08798-2.557-.45499-3.748-.36801-1.646-1.095-3.197-1.367-4.74699-.09601-.551.823-1.27901,1.367-1.83,1.82999-1.646,2.37299-3.196,1.55798-5.026-.18399-.368-.36798-.824-.63901-1.007-3.021-1.463-2.47-4.38-2.10199-6.665.36002-2.286,2.37302-3.564,4.659-4.29199,1.18301-.367,2.27802-.91901,3.284-1.646,3.013-2.18901,6.306-2.18901,9.77402-1.36601,2.46899.543,5.026.35901,7.39999,1.095,5.754,1.55,10.508,4.379,11.69901,10.868.35999,1.83.17599,3.748.08798,5.666-.08798,1.638-.55099,3.284-.36798,4.842.09598,1.09499.552,2.374,1.27899,3.285,1.19101,1.374,1.00699,2.469-.18399,3.476-2.27701,2.006-4.93002,3.372-8.039,3.83601-2.91699.45499-3.013.99899-2.09399,3.652,1.271,3.83579,4.108,6.3931,6.76099,9.23,1.45401,1.5503,1.45401,2.1017-.46399,2.9169-4.84201,2.1017-9.77301,3.7479-15.159,3.4762-.28-.09589-.28.18381-.36801.3596m-44.104,76.1416c.328-.2237.60699-.4954.935-.6073,1.75-.4955,2.134-.8791,2.134-2.741,0-6.2493.056-12.4426,0-18.6918,0-2.3575-.43199-2.797-2.741-3.2365-.216-.056-.44-.1678-.60001-.4955,3.237-.4955,6.46501-.2158,9.64601-.3276.056.1678.056.3276.112.4954-.384.1599-.82301.3277-1.207.4396-1.47801.3835-1.918.871-1.918,2.4133-.056,2.4614,0,4.9307-.056,7.3441,0,.927.43999,1.2626,1.263,1.2626h12.76999c.823,0,1.15901-.4395,1.15901-1.2626-.056-2.3575,0-4.659,0-7.0164,0-2.0298-.33601-2.3575-2.25401-2.8529-.27199-.056-.543-.2238-.823-.4955,3.237-.4955,6.41701-.2158,9.59801-.3276.056.1678.056.3276.112.4954-.336.1039-.72.3277-1.103.3836-1.694.3836-2.246.983-2.302,2.797,0,6.3531-.056,12.7142,0,19.0194,0,1.7022.608,2.741,2.47,2.8529.271,0,.599.3836.879.5994-.28.1119-.552.3916-.82401.3916h-8.22299c-.22301,0-.38301-.056-.76701-.4396.328-.2237.65601-.4954.983-.6073,1.81401-.3836,2.19801-.7672,2.19801-2.6292,0-2.6851-.05602-5.4261,0-8.1192,0-.9829-.44-1.3106-1.319-1.3106h-12.554c-.87901,0-1.319.3277-1.319,1.3106.056,2.6931,0,5.3223,0,8.0074,0,1.9179.49599,2.4133,2.41399,2.741.38301.0559.71101.3836,1.09401.6073-.383.1599-.711.4396-1.09401.4396-2.797.0479-5.642,0-8.439,0-.056-.1679-.112-.2797-.224-.4396m272.64099-.7671c-.216.2717-.43198.7112-.767.8151-1.535.4395-3.125.7751-4.819,1.15872-.112-.66332-.168-1.31862-.336-2.19762-.711.3836-1.254.7112-1.806.9909-4.44299,2.35748-9.64499-.4395-10.35599-5.4341-1.047-7.5598,5.37-11.5635,11.23499-10.4127.216.0559.496.0559.879.1119.048-.4396.104-.8232.104-1.2067v-6.2493c0-1.0468-.159-1.9179-1.20599-2.5252-.54401-.3277-.71201-.8232-.048-1.0949,1.254-.5514,2.573-.935,4.10699-1.4784v1.8061c0,7.344-.056,14.744-.056,22.0961,0,.5993,0,1.2067.112,1.862.168,1.4224.711,1.806,2.134,1.4784.168-.056.39102,0,.60699-.056.056.1678.112.2238.216.3357m-5.866-6.7447v-3.8439c0-1.5343-.871-2.741-2.30099-3.2285-1.918-.7112-4.22-.0559-5.48199,1.6942-1.75,2.4693-1.974,5.1544-.879,7.8954,1.14999,3.0687,3.29199,4.3313,6.36099,3.8439,1.59-.2238,2.245-.991,2.245-2.5812.056-1.2067.056-2.5173.056-3.7799m-348.67799-8.1672c0-2.9089.056-5.6499-.056-8.335,0-.4955-.552-.935-.879-1.3745-.216-.2717-.552-.4395-1.095-.8791,1.694-.7112,3.18001-1.2546,4.819-1.9738.056.6633.11101,1.1028.11101,1.5903-.05501,7.6237-.11101,15.2475-.11101,22.8632,0,2.6851.33501,2.9648,3.29201,2.8529-.49501.5514-.71101.983-1.039,1.0949-1.53401.4395-3.069.7671-4.77101,1.15071-.112-.65531-.22299-1.31061-.327-2.07771-.991.4874-1.814.9829-2.741,1.3105-5.043,1.75814-10.03799-1.9738-9.54201-8.1112.55101-6.3611,6.36101-9.0462,11.23601-8.0633.327-.1038.66299-.1038,1.103-.0479m.056,8.271v-3.9477c0-1.5823-.776-2.6851-2.31-3.2285-1.75-.6633-3.948-.0559-5.202,1.4225-1.974,2.2455-2.31,5.9775-.823,8.8864,1.254,2.4613,3.228,3.5561,6.02499,3.1725,1.702-.2157,2.35699-.927,2.35699-2.6291-.05499-1.2067-.05499-2.4694-.05499-3.6761h.008Zm269.132-4.2194c.328-.1119.65601-.2717.983-.3836,2.741-.7671,4.49899-2.4134,4.883-5.3702.328-2.6851-.168-5.0985-2.52499-6.7447-1.591-1.0948-3.397-1.0948-5.211-.8231-.327.056-.767.8231-.815,1.3186-.112,1.2626-.056,2.5173-.056,3.7799,0,5.4261.056,10.8043.056,16.2304,0,2.0298.60001,2.6292,2.629,2.9568.384.056.71201.3836,1.039.6074-.383.1598-.711.4395-1.095.4395-2.629.056-5.32199,0-7.95099,0-.272,0-.543-.0559-.82303-.1119l-.15997-.3276c.328-.2238.599-.5514.983-.6074,1.758-.3835,2.142-.7671,2.198-2.5172.10397-5.594.16-11.1879.215-16.8298,0-.935-.11102-1.87-.215-2.797-.112-1.5343-.552-1.9179-2.142-2.1417-.384-.0559-.767-.3276-1.151-.4395.384-.2158.767-.5994,1.151-.6553,2.41299-.1119,4.827-.2238,7.23999-.0559,1.862.1118,3.724.3276,5.53799.8231,2.741.8231,4.435,3.2365,4.547,5.9216.112,3.6201-1.26199,5.9775-4.16299,7.2321-1.974.8791-3.45999,1.1029-5.155.4955m-321.1642-14.6402c1.8062-.7112,3.28419-1.3105,4.9302-2.0218v14.3046c.664-.3277.991-.5435,1.375-.7113,1.207-.4395,2.357-1.0948,3.564-1.2067,3.237-.2717,5.48199,1.1508,5.59399,4.8828.048,2.685-.056,5.3142.048,7.9993.056,1.4864-.216,2.1976,1.92599,2.4693.272.056.487.4395.983.8231h-4.06c-1.039,0-2.03.1119-3.068.056-.328,0-.656-.2797-.983-.4396.271-.2237.487-.5514.767-.5514.927-.1038,1.478-.6552,1.478-1.4784,0-3.1246,0-6.1933-.224-9.3179-.103-1.4784-1.15-2.4693-2.62901-2.6851-1.806-.3356-3.452.048-4.547,1.6383-.279.3835-.335.9349-.335,1.3745-.048,2.6851-.048,5.3142,0,8.0073,0,1.6382.279,1.9739,1.87,2.5173.215.1119.383.4395.599.6073-.216.1039-.44.3277-.655.3277-2.14201,0-4.276.0559-6.3615,0-.2157,0-.4954-.2797-.7112-.4396.2158-.1678.4395-.4954.7112-.5514,1.7585-.4874,1.9175-.5993,1.9175-2.4133,0-6.6888,0-13.3776.056-20.0104-.056-1.3665-.71101-2.3015-2.2452-3.1806m203.50819,36.68036c-.328.05594-.65601.11188-.983.11188h-6.36099c-.28,0-.552-.27171-.879-.38359.271-.16782.495-.38359.767-.43953,1.31799-.32764,1.702-.82311,1.702-2.41339v-17.32524q0-2.4134-1.702-4.2754c1.422-.8231,2.797-1.5903,4.38699-2.4693v1.2626l.16,1.1508c.439-.1119.823-.1119,1.26199-.2717.935-.3277,1.814-.7672,2.741-1.0389,3.78802-1.1588,7.40002,1.3106,8.12,5.4821.76703,4.603-1.702,9.1501-5.978,10.4686-1.534.4955-3.23599.5514-4.827.5514-1.039,0-1.422.27174-1.422,1.31062,0,1.70216-.056,3.45226,0,5.15442.056,1.80605.383,2.14169,2.245,2.41339.328.05594.60001.16782.935.27171-.11099.11188-.16699.27969-.16699.43952m-3.125-21.27296v7.0723c0,1.3186.599,2.1976,1.806,2.8529,2.358,1.2067,4.939.5994,6.24899-1.7581,1.375-2.4613,1.70203-5.0425.664-7.7835-.991-2.6292-2.909-3.8918-5.64999-3.6201-2.086.2237-3.013,1.1587-3.069,3.2365m-272.0976-15.6791c1.2626-.4954,2.741-1.0948,4.4432-1.7501v14.0888c1.4225-.5514,2.741-1.2067,4.0596-1.5343,3.6121-.935,6.2492,1.1507,6.3052,4.8747.0479,2.6371,0,5.2663,0,7.8395,0,1.9179.0479,1.9739,1.9179,2.4693.2717.056.4875.3277,1.0389.7113-.5994.1678-.8791.2797-1.0948.2797h-6.2493c-.2797,0-.5514-.2238-.8231-.3357.2158-.2158.4395-.5993.7113-.6553,1.4224-.1119,1.7021-1.0948,1.758-2.2455.048-2.4694.048-4.9387,0-7.3521-.0559-1.5343-.5514-3.0127-2.1976-3.668-1.5903-.6074-3.1805-.4955-4.4911.5993-.5514.4396-.9909,1.2627-.9909,1.9739-.1119,2.8529-.056,5.7058-.056,8.6067,0,1.1028.2797,2.0298,1.6462,2.1417.2238,0,.4396.3835.6553.5434-.2157.1678-.4315.3916-.5993.3916h-6.6328c-.1679,0-.3277-.1119-.5514-.2238-.056-.1119-.056-.2158-.1119-.3836.4395-.1678.8231-.3836,1.2626-.4955.8231-.1038,1.2626-.5434,1.3186-1.3665,0-.2237.1119-.4954.1119-.7112,0-6.8566.0559-13.7611-.056-20.6177.056-.935-.7672-1.9179-1.3745-3.1806m524.95163.056c1.47894-.5994,3.01294-1.2067,4.54797-1.8061v14.1447c1.58997-.6073,2.95599-1.2626,4.33099-1.6462,3.396-.879,6.19299,1.2067,6.24902,4.7709.05597,2.7969.05597,5.5859,0,8.3269,0,1.2067.328,1.9739,1.646,2.0858.328,0,.65601.3276.98297.5514-.04797.1039-.04797.2158-.104.3836-.32697.0559-.66296.1119-.99097.1119-1.91699,0-3.83502,0-5.75299-.056-.328,0-.65601-.2797-.99103-.3836.33502-.2237.60699-.3836.87903-.6633.495-.4395,1.37396-.871,1.37396-1.3105.05603-3.2365.104-6.529-.27899-9.7655-.216-1.9738-1.974-2.741-4.388-2.4054-1.862.2158-2.95599,1.5344-2.95599,3.3964v7.6237c0,1.2547.11102,2.4054,1.80597,2.5173.22302,0,.38306.3276.55103.5514-.27197.1598-.495.4395-.76703.4395-2.02997.056-4.06.056-6.13794,0-.27905,0-.60706-.2797-.87903-.4395.216-.1678.44-.5514.71198-.5514,1.646-.056,1.974-1.1508,1.974-2.4134.05505-6.6888,0-13.3216,0-20.0104,0-1.3665-.552-2.4693-1.974-3.0686.112-.056.16705-.2158.16705-.3836m-110.08804,26.4833c.27103-.2237.543-.5514.823-.6073,1.20602-.1119,1.638-.8791,1.638-1.9179.056-2.6851.112-5.3143,0-8.0074-.056-1.5903-.711-3.0687-2.41299-3.5082-1.75098-.4875-3.453-.2717-4.707,1.2067-.392.4395-.552,1.2067-.608,1.8141-.056,2.6291-.056,5.2583,0,7.8395,0,1.2546.112,2.5172,1.862,2.6291.224,0,.384.3277.552.7672h-7.62399c-.048-.1119-.104-.1678-.16-.2717.328-.2238.655-.5514.983-.5514,1.151-.056,1.534-.7672,1.646-1.7501.056-.3836.056-.8231.056-1.2067v-17.9326c0-1.7501.328-3.6201-2.03-4.5471.056-.1119.112-.2717.168-.3836,1.479-.6073,2.957-1.2067,4.715-1.9179v14.1447c1.53403-.6074,2.845-1.2626,4.27502-1.5903,3.34097-.7672,6.082.9829,6.194,4.659.056,2.741,0,5.482,0,8.2231,0,1.7021.168,1.862,1.806,2.3015.27899.0559.495.3276.71899.4954-.168.1599-.384.4396-.55099.4955-2.358.056-4.71503,0-7.073,0-.168-.1119-.22302-.2237-.27103-.3836m90.35001-14.3684c1.422-.7672,2.797-1.5344,4.33099-2.3575.05603.991.112,1.7581.16003,2.5812,1.54199-.5514,2.797-1.2067,4.11499-1.4864,3.836-.871,7.12897,1.1028,7.896,4.9387.927,4.659-.935,9.262-5.70599,10.9082-1.59003.5514-3.34003.6073-5.04199.6073-.98303.048-1.31104.32768-1.263,1.25468.05597,1.7581,0,3.5082,0,5.2663,0,1.70216.38397,2.08575,2.086,2.35745.32697.05594.60699.32765.935.49547-.328.10389-.60803.32765-.935.32765-2.19.05594-4.33203,0-6.521,0-.28003,0-.552-.22376-.823-.32765.21497-.16782.43896-.49547.65497-.49547,1.263-.11188,1.758-.87905,1.758-2.08574,0-2.41339.05603-4.82678.05603-7.23219v-9.8134q-.05603-2.8529-1.70203-4.9386m4.44299,6.8566c0,1.2066.04803,2.4613,0,3.668-.112,1.5903.76703,2.5253,2.078,3.1246,2.30103.9909,4.659.2238,5.92102-1.9739,1.375-2.4054,1.591-4.9866.76801-7.5598-1.039-3.2924-3.948-4.611-7.073-3.4602-1.151.4395-1.69403,1.2067-1.69403,2.4134v3.7879Zm-440.13979,1.5902c0,1.862-.5434,3.6121-1.5343,5.1545-.4396.6552-1.6463.871-2.5173,1.0948-4.1715.87902-8.27911.92697-12.3387-.6074-4.603-1.7501-7.9514-6.409-8.16711-11.2918-.1679-3.676.5993-7.0164,2.9568-9.8693,2.8529-3.3963,6.5848-4.8268,10.8602-5.1544,3.0128-.2158,6.02551.1678,8.9343.9909.2718.056.6553.4875.7113.8231.2237,1.5344.3276,3.0687.4395,4.659,0,.2158-.2717.3836-.3836.5994-.2157-.1599-.5434-.2718-.5993-.4875-.93501-4.2834-4.82681-5.7058-9.0462-5.4341-5.3223.3356-9.2141,4.1155-9.9812,9.5976-.5994,4.4911.0559,8.6626,3.1246,12.1708,3.2924,3.7799,9.8693,4.77084,13.5933,1.862,1.1028-.8791,1.8699-2.2456,2.749-3.3404.2158-.3276.4875-.6073.7112-.935.27171.056.38361.1119.4875.1678m-96.8712-15.4632c.38359-1.8061.76717-3.5642,1.20669-5.3702.15983-.6074.38359-.6633.927-.2797.66328.4395,1.43045.879,2.14168.879,5.97753.056,11.95503.056,17.92463,0,.8231,0,1.7021-.5434,2.6931-.879-.2238,1.9738-.4396,4.0596-.6633,6.1453-.1039.056-.2158.056-.2717.1039-.1678-.2717-.3836-.5993-.4395-.927-.5514-2.5252-1.0949-2.797-3.9478-3.1805-1.4784-.2238-3.0127-.056-4.5471-.056-.7112,0-1.0468.3277-1.0468,1.0389,0,6.9685,0,13.9289.0559,20.8894,0,1.6462.6633,2.1976,2.3575,2.3574h.1118c.3836.2238.7672.3836,1.2067.6074-.3835.1598-.8231.4395-1.2067.4395-2.0298,0-4.0036-.0559-6.0334-.0559-.92702,0-1.86201.1119-2.797.1119-.21577,0-.43952-.2238-.65529-.3357.21577-.2158.38358-.4875.65529-.5993.93499-.3277,2.19762-.3836,2.6931-1.0389.5434-.6633.5434-1.9259.5993-2.9089.056-6.3611,0-12.7781,0-19.1313,0-.879-.3276-1.3745-1.31854-1.3185-1.20669.0559-2.46133,0-3.66803,0-2.14168.0559-3.7879.9349-4.7149,2.9568-.16781.3835-.5514.6073-.87904.9349-.22376-.1678-.27171-.2717-.38359-.3835m391.992,7.2881h-3.34c-.224-1.0389.271-1.1987.98999-1.2547q2.741-.1678,3.61301-2.7969c.879-2.6851,2.08499-5.2663,4.05899-7.3521,1.806-1.9179,4.004-3.0127,6.689-2.5732.823.1678,1.918.8231,2.245,1.5343.328.6553-.103,1.7581-.383,2.6292-.112.2797-.655.4395-.983.6073-.168-.3276-.44-.6553-.496-1.0388-.215-1.1588-.599-2.1977-1.806-2.5812-1.20599-.4396-2.19699.1678-2.90799,1.0948-.82401,1.1028-1.647,2.2535-2.19,3.5082-.935,2.1417-1.59,4.3872-2.52499,6.9684,1.59,0,2.853-.0559,4.05899,0,.328,0,.65601.3277,1.039.4875-.327.2238-.711.6633-1.039.6633-.991.1039-1.974.1039-2.96399,0-.927-.0559-1.423.2717-1.647,1.2067-.871,3.2285-1.694,6.465-2.629,9.6456-1.039,3.5082-2.134,7.01636-3.452,10.42068-.879,2.30151-2.797,3.66803-5.37,3.89179-1.702.15983-2.965-.93499-2.69302-2.30151.056-.38359.49503-.82311.82303-1.10281.168-.10389.66299.2797.935.49546.383.27171.655.71123,1.095.99093,1.03799.71123,1.86099.65529,2.52499-.43952.711-1.15076,1.254-2.46933,1.59-3.78791,1.367-5.15441,2.573-10.30081,3.836-15.45531.216-.9909.543-2.1416.927-3.4602m-187.33301,14.4244h-4.004c-.871,0-1.694.1119-2.573.0559-.272,0-.552-.2237-.823-.3356.215-.2158.383-.5994.599-.5994,1.42999-.1119,1.646-1.1507,1.646-2.2455,0-2.4694.056-4.9387,0-7.3521,0-1.4784-.383-2.8449-1.918-3.5641-1.59-.7113-3.17999-.5994-4.491.4954-.66299.5514-1.207,1.5903-1.263,2.4694-.16701,2.6851-.05501,5.4261-.05501,8.1112,0,1.1028.32701,1.9179,1.59001,2.0857.21599.056.439.3836.655.5994-.16.1678-.328.3916-.487.3916h-6.96901c-.056-.1679-.112-.3357-.15999-.4396.38399-.2237.767-.4954,1.151-.5514.92699-.1678,1.36699-.6553,1.36699-1.5903,0-3.2924.11101-6.5768-.056-9.8133-.056-.7672-.76799-1.4784-1.31099-2.4134,1.207-.5994,2.573-1.3106,4.10799-2.0858.056.8791.112,1.6462.22301,2.6372.65601-.3277,1.151-.6074,1.647-.7672,1.478-.4395,2.89999-1.2067,4.379-1.2067,2.69299-.0559,4.22701,1.5903,4.27499,4.2754.056,2.6851,0,5.3142,0,8.0073,0,.3836,0,.8151.056,1.1987.112.991.496,1.7022,1.64601,1.8141.32799.0559.55199.3835.879.5993,0,.056-.05501.1119-.11101.2238m66.504.5434c-4.659,0-7.952-3.4523-7.896-8.327,0-4.7708,3.67599-8.5587,8.27899-8.5587,4.547,0,8.008,3.5641,7.952,8.3349-.112,5.2104-3.405,8.5028-8.33499,8.5508m5.26599-8.0553c-.38397-1.5343-.66299-3.2365-1.319-4.8268-.655-1.7021-2.02899-2.8529-3.94699-2.8529-1.806-.0479-3.069.9909-3.78,2.6372-1.487,3.3963-1.319,6.7447.655,9.9732.935,1.5343,2.35699,2.2535,4.164,2.0298,1.646-.2158,2.69299-1.2627,3.23599-2.6851.44-1.3186.655-2.7411.991-4.2754m74.50302,6.0814c-.495,1.9739-3.73199,2.74106-5.15399,1.1508-1.039-1.1508-1.70203-.7672-2.68503-.1599-1.319.8232-2.685,1.36657-4.276.7113-1.42999-.5514-2.35699-1.6462-2.41299-3.0687-.112-1.6462.44-2.5253,2.086-3.2365,1.75-.7672,3.612-1.3186,5.314-2.1337.49503-.2237,1.095-.8231,1.151-1.3186.112-1.1507,0-2.3574-.21597-3.5082-.28-1.3185-1.37402-1.9738-2.79703-1.862-1.37399.048-2.142.7113-2.41299,2.1337-.224,1.1508-1.263,1.918-2.414,1.7581-.215-.0559-.655-.6632-.599-.879.767-2.9089,6.849-5.4261,9.43002-3.9477,1.254.7112,1.694,1.9179,1.694,3.3403,0,2.2536-.048,4.4992-.104,6.7447v1.3746c0,2.7969.599,3.3403,3.396,2.9008Zm-6.13699-3.668c0-.1119,0-.4955.04797-.935.112-.7672-.27197-1.1508-.983-.879-1.20697.3835-2.41299.8231-3.508,1.4304-1.095.5994-1.263,1.8061-.767,2.9009.55099,1.1507,1.646,1.6462,2.853,1.3185,2.02103-.5993,2.30103-1.0388,2.35703-3.8358m251.91898,3.668c-.99097,2.1417-4.11499,2.63717-5.43396,1.0469-.71106-.8791-1.31006-.8231-2.13306-.2797-1.47894.935-3.021,1.64621-4.82697.879-1.367-.5993-2.086-1.5902-2.19-3.1246-.112-1.4784.48798-2.4693,1.80597-3.0127,1.862-.7672,3.67603-1.5344,5.59406-2.1417.823-.2717,1.151-.7112,1.151-1.4784,0-.935,0-1.862-.05603-2.797-.15997-1.4784-1.151-2.3574-2.573-2.4693-1.487-.1039-2.52502.6073-2.797,2.1417-.224,1.0948-.823,1.5343-1.81403,1.7021-.38397.056-.76697-.1118-1.151-.1678.05603-.4395,0-.935.224-1.2626,1.26202-1.9179,3.12402-2.9568,5.258-3.5082.823-.2158,1.70203-.3836,2.52502-.2158,2.24603.3836,3.18103,1.7501,3.125,4.3873-.05597,2.4134-.16797,4.8188-.216,7.2321,0,.4955.04803.991.104,1.4784.224,1.6463,1.09503,2.1977,2.74103,1.7581.112-.1678.27197-.1678.66296-.1678m-6.20099-3.5082v-1.0948c.05597-.7672-.328-1.0948-1.039-.879-1.20599.4395-2.46899.879-3.56403,1.4863-1.039.5994-1.20697,1.7502-.711,2.789.55103,1.1028,1.646,1.6462,2.85303,1.3745,1.974-.5514,2.41302-1.1507,2.461-3.676Zm-104.215,3.5082c-1.047,2.1417-3.89999,2.63717-5.43399.9909-.711-.7671-1.207-.879-2.022-.2717-1.59,1.0389-3.237,1.75015-5.15402.8232-1.151-.5515-1.759-1.4864-1.918-2.797-.112-1.3745.159-2.4693,1.478-3.0767,1.918-.8151,3.89203-1.6382,5.86603-2.3574.767-.2717,1.14999-.7672,1.14999-1.5344,0-.9829,0-1.9738-.11099-2.9568-.16-1.4304-1.151-2.3015-2.57401-2.3574-1.43002-.056-2.46902.5993-2.741,2.0298-.22302,1.2546-.99103,1.6941-2.08502,1.862-.88.1118-1.263-.3836-.88-1.1508.328-.6073.76801-1.1508,1.319-1.5903,2.134-1.7021,4.38702-3.0687,7.24002-2.3015,1.535.4395,2.40601,1.4225,2.46201,2.9568.05499,2.4693-.056,4.9946-.056,7.4559,0,.8232-.048,1.6463.056,2.4694.16699,1.7021,1.04599,2.2455,2.685,1.806.16699,0,.383.056.71899,0m-6.14499-3.4522c0-.3836-.05603-.7113,0-1.0949.11099-.9349-.384-1.2067-1.207-.9349-1.095.3835-2.246.7671-3.285,1.3185-1.10202.5994-1.37402,1.7581-.935,2.8529.49597,1.1508,1.59097,1.6942,2.797,1.4784,2.086-.4395,2.57397-1.1507,2.63-3.62m-108.33102-.1599c.543-3.8438,2.35699-7.7356,6.36102-10.2529.87097-.5514,1.974-.879,2.957-.9909,2.797-.2717,4.659,1.9739,4.27499,5.2104-.487,4.1155-2.30099,7.6237-5.698,10.1969-1.59,1.2067-3.40402,1.86201-5.37802,1.1508-1.806-.6553-2.573-2.0858-2.517-5.3143m11.13202-8.0632c-.336-.4955-.664-1.6463-1.319-1.862-.60699-.2238-1.646.2717-2.35699.7112-.552.2717-.93503.935-1.263,1.4784-.93503,1.7581-1.862,3.5082-2.57303,5.3782-.55197,1.4784-.935,3.0687-1.047,4.603-.056.6553.43903,1.7022.991,2.0298.543.2717,1.47803-.1119,2.24503-.3276.272-.056.552-.3836.76797-.6074,2.58102-3.2365,3.78802-7.0164,4.55502-11.4036m147.03299,13.0498c-.216.056-.43201.1679-.65601.1679h-6.24902c-.27197,0-.55096-.2238-.823-.3357.224-.2158.43903-.5434.711-.6553,1.70203-.4954,1.75806-.5993,1.75806-2.3574v-17.9246c0-1.918.71198-4.1156-2.19702-5.3782,1.91797-.7672,3.34802-1.3665,4.99402-2.0298.05597.4954.104.879.104,1.2067,0,7.8395-.04803,15.735-.04803,23.5745q0,2.1417,2.02203,2.9648c.27997.1118.55096.2157.76697.3276-.15997.1119-.27197.2717-.383.4395m-62.828-28.5131c-.112,1.9259-.216,3.6201-.216,5.3782v18.5319c0,.8231.104,1.6382.16,2.4614.112.879.66299,1.2066,1.48599,1.3745.328.0559.655.4395.927.6553-.328.1118-.711.3276-1.039.3276-1.918.0559-3.836,0-5.754,0-.33499,0-.60699-.0479-1.37399-.1598.55099-.4396.767-.8231,1.095-.8231,1.48599-.1119,1.758-1.0949,1.758-2.3015v-19.8506c0-1.1507-.168-2.1896-1.207-2.8529-.55099-.3276-.60699-.871,0-1.1507,1.263-.6553,2.573-1.0389,4.164-1.5903m-337.61099,1.7581c1.42999-.5514,2.853-1.1508,4.61099-1.8061v2.6851l-.168,18.7477c0,1.4784.056,2.9648.168,4.3873.048,1.0389.431,1.806,1.694,1.862.28,0,.55101.3276.823.4954,0,.1119-.056.2158-.056.3277-.327.0559-.655.1678-.983.1678h-5.76199c-.327,0-.711-.2237-1.03799-.3836.271-.2237.55099-.6073.879-.6073,1.31799-.1598,1.534-1.0389,1.534-2.1337v-19.0834c0-1.7021.272-3.4522-1.806-4.3313.048-.0559.048-.1598.104-.3276m390.96097,23.5745c-.16797,1.2067-1.047,1.9179-1.98199,2.5252-2.73297,1.69421-5.52997,1.75015-8.16699-.0559-2.741-1.9179-3.452-4.7708-3.013-7.9514.44-3.1806,1.86203-5.7538,4.987-7.0723,2.74103-1.1508,5.59399-.5514,7.29602,1.4784.32697.4395.65497.9349.823,1.4784.54297,1.9738.104,2.5252-1.92603,2.5252-2.461,0-4.93097.056-7.34396,0-.983,0-1.319.3836-1.319,1.3186-.104,3.668,1.98199,6.465,5.37897,7.3441,1.534.3835,2.797-.056,4.00299-.991l.98303-.8151c.05597.048.16797.1598.27997.2158m-10.03699-8.2231c1.974,0,3.836.0559,5.70599-.056.487,0,1.31-.3276,1.36603-.6553.16797-.6073,0-1.4304-.328-1.9179-.65503-1.1028-2.41302-1.4304-3.89099-.879-1.81403.6553-2.90903,1.9179-2.85303,3.5082m-150.60498,11.4596h-8c-.056-.1119-.112-.1678-.168-.2797.272-.2158.552-.5994.88-.5994,1.366-.1678,1.694-1.0948,1.694-2.2455v-20.0104c0-1.1508-.216-2.0857-1.207-2.741-.43201-.2797-.815-.8231-.104-1.1028,1.263-.5434,2.629-.983,4.06-1.4784v25.0049c0,1.9739.048,1.9739,2.022,2.6851.22299,0,.383.3276.823.7672m-175.33101-3.1806c-.487.6553-.871,1.3665-1.478,1.9179-4.06,3.62012-10.46899,1.5344-11.675-3.7799-.879-4.0036.056-7.4559,3.34001-9.9252,2.198-1.6463,4.715-1.862,7.18399-.6074,1.535.8231,2.47,2.0858,2.414,3.9478,0,.9349-.224,1.3185-1.263,1.3185-2.629-.0559-5.26599,0-7.84,0-1.422,0-1.646.2717-1.59,1.6462.112,3.5083,2.086,6.0815,5.26599,6.9605,1.647.4395,2.957,0,4.22-1.0389.328-.2797.655-.5514.983-.7671.168.1039.33501.2157.439.3276Zm-10.25299-8.335c2.086,0,4.172.056,6.258,0,.871-.0559,1.366-.7671.983-1.5902-.272-.6553-.76801-1.3666-1.375-1.7022-1.966-1.0389-5.146.3836-5.866,2.5253-.048.2157,0,.4954,0,.7671m-114.14011,8.2791c-.1678,1.1507-1.0388,1.862-1.9179,2.4693-2.3574,1.64622-4.9387,1.80605-7.5678.5434-2.5732-1.2546-3.6201-3.5641-3.7799-6.2492-.2238-3.3404.7112-6.2493,3.4522-8.335,3.1806-2.4613,7.9514-1.6382,9.4858,1.7022.3276.6552.3276,1.5343.2717,2.2455,0,.2238-.7112.6074-1.0948.6074-2.6851.0559-5.3782,0-8.1192.0559-1.4225,0-1.6383.2717-1.5344,1.6462.2238,3.6681,2.2536,6.1933,5.594,6.9605,1.5902.3836,2.9088-.1678,4.0596-1.1508.2717-.2237.5434-.4954.879-.7112.1039,0,.2158.1039.2717.2158m-10.1969-8.2791c2.1896,0,4.3313.056,6.465-.0559.9909-.0559,1.1507-.9829.8231-1.6462-.3277-.6553-.927-1.3106-1.5903-1.6942-2.0778-1.1507-5.6978,1.0948-5.6978,3.3963m164.582,12.011c-.384,0-.711.048-1.095,0-2.685-.2797-4.004-2.0298-3.508-4.6669.056-.2158.272-.3836.383-.5434.216.1598.496.3276.65601.5993.711.991,1.31799,2.1417,2.19699,3.0208.815.8151,2.51801.7671,3.453.1038,1.039-.6552,1.366-1.806.983-2.7969-.384-.927-1.263-1.8061-2.03-2.4614-.927-.8231-2.078-1.3185-3.013-2.0857-1.59-1.2626-2.03-2.9089-1.478-4.8268.495-1.6942,1.694-2.6291,3.34-2.8449,1.42999-.1678,2.909-.0559,4.33099.1039.76801.0559,1.75801,2.6851,1.319,3.3484-.056.1038-.711.0559-.935-.1119-.543-.5514-.871-1.3186-1.423-1.8061-1.59-1.3185-3.62-.8231-4.33099.983-.383.9909-.056,1.806.599,2.4693.496.5434,1.159.927,1.759,1.3106.767.4954,1.534.935,2.245,1.4304,1.974,1.4225,2.797,3.6201,2.142,5.6979-.55199,1.6462-2.58099,3.0207-4.771,3.1246-.328,0-.55099,0-.823-.048,0,.048,0,0,0,0Zm72.86501.048h-1.646c-2.797-.1039-4.172-1.862-3.67599-4.603.056-.2158.224-.3836.327-.5994.224.1598.496.2717.608.4875.327.5514.495,1.2626.879,1.7581.487.5993,1.039,1.1507,1.694,1.5343,1.151.7113,2.853.3836,3.62-.5514.823-.9829.823-2.4054-.168-3.5641-.487-.5994-1.198-1.0389-1.862-1.5344-.983-.7112-2.077-1.3665-2.95599-2.1896-2.358-2.1896-1.479-6.0894,1.59-7.1283,1.646-.5514,3.284-.4954,4.92999,0,.71201.2238,1.814,2.7411,1.375,3.3484-.112.1039-.767,0-.991-.2238-.655-.5993-1.151-1.5343-1.918-2.0298-1.207-.8231-2.797-.4395-3.508.5514-.823,1.2067-.655,2.5733.655,3.5642.991.7672,2.03,1.3186,3.077,2.0298,1.422.927,2.573,2.0298,2.789,3.8358.495,3.724-2.19,4.9866-4.819,5.3143m47.30899-2.0218c-.328.3276-.54401.7112-.927.9829-1.319.935-2.797,1.2067-4.33099.935-1.918-.3276-2.797-1.4864-2.853-3.676-.056-3.0128,0-5.9776,0-8.9903q0-1.7581-1.758-2.0298c-.16,0-.272-.1119-.71201-.2717.44-.2797.71201-.5514.991-.6633,1.367-.4875,2.414-1.3665,3.125-2.6291.16-.2718.495-.4396.767-.6553.112.2717.272.5434.272.879q.112,1.862,1.974,1.862c.879,0,1.702-.0559,2.58099.0559.327.056.543.4396.815.6553-.272.2717-.543.7672-.815.7672-1.047.1119-2.142.0559-3.181.0559-.935,0-1.42999.3277-1.37399,1.3666.056,2.693,0,5.3222,0,8.0073,0,3.3963,2.46899,4.5471,4.715,3.1246.112-.0559.271-.0559.439-.0559.168.1119.216.2237.272.2797m-174.94699-13.3776c1.159-.6073,2.52499-1.2626,4.06-2.0298.056.983.056,1.8061.112,2.9009.879-.5993,1.478-1.1508,2.189-1.4784.879-.3836,1.918-.7112,2.853-.6553.983.056,1.263.927,1.039,1.862-.21599.935-.927,1.3745-1.862,1.1508-.495-.1119-.983-.3836-1.478-.5994-1.039-.4395-1.974-.1119-2.414.927-.271.6073-.383,1.3186-.383,2.0298-.056,2.5253,0,5.0985,0,7.6238,0,1.6462.327,1.9179,1.974,2.1896.383.0559.711.3276,1.09399.5514-.383.1598-.711.4395-1.09399.4395-2.086.056-4.172.056-6.25,0-.271,0-.55099-.2237-.823-.3356.216-.2158.44-.6553.711-.6553,1.319-.1598,1.647-.983,1.647-2.1896,0-3.0208.112-5.9776-.056-8.9424-.056-.8151-.767-1.6382-1.319-2.789m300.11499,14.8h-7.56699c-.056-.1118-.112-.1678-.216-.2717.328-.2237.599-.5514.927-.6073,1.095-.1119,1.534-.7672,1.534-1.7501.056-3.1806.168-6.3611,0-9.5417-.056-.8231-.871-1.6462-1.422-2.5812,1.31799-.5994,2.685-1.3106,4.21899-2.0218.056.4315.112.7112.112,1.0389,0,4.2194,0,8.4388-.056,12.6103,0,1.2626.224,2.1896,1.702,2.3015.272,0,.48801.2717.767.4395.056.1119.056.2718,0,.3836m119.84698.056h-7.45599c-.05597-.1119-.112-.1678-.16797-.2797.27197-.2158.55096-.5994.823-.5994,1.151-.1119,1.58997-.7671,1.646-1.806.05597-3.2365.05597-6.473-.05603-9.7095,0-.5434-.54297-1.1508-.98297-1.5903-.495-.4395-.66302-.7672,0-1.0948,1.20697-.5994,2.46198-1.1508,3.89197-1.8061v14.4164c0,.8791.44,1.3186,1.31104,1.4784.383.056.71899.3277,1.10297.4955,0,.2158-.05597.3277-.112.4955m-460.42198-.2797c.28-.2158.551-.5434.87901-.5994,1.03899-.1678,1.478-.7112,1.534-1.7581.056-3.1246.112-6.2972.056-9.4298,0-.5993-.551-1.3106-1.039-1.806-.383-.4395-.663-.8231,0-1.1508,1.207-.5993,2.47-1.0948,3.78-1.7021.056.3276.224.5514.224.8231l-.168,12.6663c0,1.2626.216,2.3015,1.806,2.4134.22401,0,.384.3276.552.5434-.168.1678-.328.4395-.496.4395-2.30099.0559-4.603,0-6.96,0-.056-.1598-.112-.3276-.168-.4395Zm200.66301-16.6061c-.056,1.3106-.168,2.3575-.168,3.3964v9.8134c0,1.3745.056,2.685,1.918,2.8529.168,0,.336.3835.495.5993-.215.1119-.439.3357-.655.3357h-6.14499c-.272,0-.48801-.2797-.71103-.4396.22302-.2237.43903-.5514.66302-.5514,1.31-.0559,1.638-.935,1.638-1.9738,0-3.1247.056-6.3052-.048-9.4298,0-.5514-.495-1.2067-.935-1.5903-.55099-.5514-.55099-.8791.112-1.2067,1.151-.5994,2.30099-1.0948,3.836-1.8061m-114.916-2.5252c.32799-.2158.66299-.4395.935-.6553.59999-.5514,1.319-1.0469,1.694-1.7022.935-1.4224.28-3.0687-1.36601-3.4522-.991-.2238-1.36699-.7113-1.09499-1.6463.27199-.927,1.09499-1.3665,1.918-1.0948.823.3277,1.75.8791,2.13399,1.6462,1.64601,3.2365-.43199,6.3612-3.50899,7.3441-.15901.0559-.38301-.0559-.543-.0559-.056-.1599-.112-.2717-.168-.3836m115.076-5.0426c0,1.1508-.71201,1.918-1.918,1.918-1.151,0-1.974-.7672-2.03-1.862,0-1.2067.879-2.0858,2.086-2.0858,1.14999.056,1.862.8231,1.862,2.0298m133.71899.056c0-1.2067.767-1.9739,1.974-2.0298,1.095,0,1.862.7671,1.862,1.9179,0,1.2067-.767,2.0298-1.918,1.9739-1.207,0-1.918-.7113-1.918-1.862m123.73801-.1678c0,1.3745-.599,2.0298-1.862,2.0298-1.151,0-1.91803-.7113-1.91803-1.862,0-1.3186.711-2.0298,2.03003-2.0298,1.151,0,1.69397.6553,1.75,1.862Zm-456.57801.1118c0-1.2626.767-2.0298,1.974-1.9738,1.095,0,1.862.8231,1.806,2.0298,0,1.1507-.767,1.9179-1.918,1.9179-1.207-.0559-1.862-.7112-1.862-1.9739"></path></svg> 