<?xml version="1.0" encoding="UTF-8"?> <svg xmlns="http://www.w3.org/2000/svg" xmlns:xlink="http://www.w3.org/1999/xlink" version="1.1" id="Layer_1" x="0px" y="0px" viewBox="0 0 400 200" style="enable-background:new 0 0 400 200;" xml:space="preserve"> <style type="text/css"> .st0{fill:#6096EF;} </style> <path class="st0" d="M194.43,53.55c0.8,0,3.4,0.12,5.52,0.12c2.16,0,4.64-0.12,5.72-0.12c0.16,0.24,0.2,1.28,0,1.56 c-1.08,0.12-1.8,0.2-2.36,0.36c-0.96,0.24-1.12,0.72-1.2,1.92c-0.12,1.72-0.08,4.6-0.08,8.11c0,3.72,0.04,7.47,0.12,8.87 c0.04,1.24,0.24,1.8,1.52,2.12c0.6,0.12,1.52,0.28,2.68,0.44c0.2,0.16,0.08,1.44-0.12,1.6c-0.88,0-3.76-0.12-5.87-0.12 c-2.36,0-5.32,0.12-6.04,0.12c-0.24-0.12-0.24-1.44-0.04-1.6c1.08-0.12,1.64-0.2,2.24-0.32c1.28-0.32,1.44-0.88,1.56-1.68 c0.16-1.16,0.12-3.52,0.12-10.07c0-3.36,0.04-5.64-0.08-7.51c-0.08-1.08-0.2-1.52-1.04-1.76c-0.72-0.2-1.48-0.32-2.68-0.48 C194.19,54.91,194.27,53.75,194.43,53.55z M219.81,66.66c-0.2,0.2-1.24,0.24-1.44,0.08c-0.32-1.68-0.6-2.44-1.32-2.96 c-0.48-0.36-1.16-0.64-2.12-0.64c-1.4,0-2.44,0.92-2.44,2.2c0,1.36,0.84,2.16,4,3.48c3.44,1.44,4.36,2.92,4.36,4.96 c0,3.08-2.92,5.12-6.75,5.12c-1.68,0-3.6-0.4-4.44-0.8c-0.32-0.92-0.76-3.56-0.8-4.6c0.16-0.2,1.28-0.6,1.52-0.48 c0.6,1.88,1.28,2.92,2.32,3.6c0.6,0.32,1.52,0.56,2.2,0.56c1.68,0,2.56-0.84,2.56-2.04c0-1.36-0.72-2.12-3.52-3.36 c-3.16-1.44-4.56-2.92-4.56-5.2c0-2.56,2.08-4.96,6.27-4.96c1.08,0,2.24,0.16,2.92,0.28c0.72,0.12,1.32,0.24,1.72,0.28 C220.09,63.35,219.93,64.87,219.81,66.66z M232.51,65.58c-0.64-1-1.88-1.48-2.96-1.48c-1.08,0-1.68,0.28-1.8,0.4 c-0.48,0.4-1.12,1.76-1.68,2.88c-0.16,0.2-1.6-0.48-1.52-0.84c0.16-0.68,0.8-2.52,1.12-2.76c1.72-1.12,4.4-2.16,5.44-2.16 c1.88,0,3.32,0.88,4.2,2.2c0.76,1.24,1,2.44,1,4.04c0,2.04-0.16,5.16-0.16,6.83c0,0.92,0.36,1.48,1.56,1.48 c0.6,0,0.92-0.08,1.44-0.2c0.04,0.2-0.04,1.4-0.2,1.56c-0.96,0.96-2.48,1.36-3.48,1.36c-1.24,0-1.96-0.56-2.2-1.16 c-0.16-0.24-0.24-0.6-0.32-0.88c0-0.04-0.16-0.08-0.2-0.04c-2.28,1.4-3.76,2.08-5,2.08c-0.76,0-1.6-0.48-2.28-1.12 c-0.88-0.92-1.4-2.2-1.4-3.6c0-1.12,0.76-2.4,0.92-2.56c1.52-0.76,6.03-1.72,7.67-2.56c0.08-0.04,0.24-0.28,0.28-0.4 c0.08-0.24,0.08-0.6,0.08-0.68C233.03,67.22,232.99,66.34,232.51,65.58z M232.71,70.62c-1.12,0.44-3.68,1.2-4.6,1.72 c-0.2,0.08-0.48,0.84-0.48,1.32c0,1.48,1.04,2.6,2.8,2.6c0.48,0,1.4-0.24,1.92-0.64c0.36-0.24,0.44-0.52,0.52-1 c0.08-0.52,0.08-3.08,0.08-3.8C232.95,70.78,232.83,70.58,232.71,70.62z M250.21,53.55c1.08,0,3.72,0.12,5.99,0.12h8.07 c1.56,0,3.68-0.04,4.64-0.12c0.08,0.04,0.2,0.16,0.2,0.24c-0.28,1.12-0.64,4-0.68,5.72c-0.24,0.28-1.6,0.24-1.8,0.08 c-0.04-1.12-0.24-1.68-0.44-2.36c-0.32-1-0.72-1.36-1.84-1.44c-0.6-0.04-5.83-0.04-6.19,0c-0.32,0.08-0.56,0.64-0.56,0.88 c0,2.76-0.04,5.12-0.04,7.79c0,0.08,0.12,0.28,0.24,0.28c2.08,0,4.4,0.04,5.99-0.12c0.6-0.08,0.92-0.44,1.12-1.04 c0.16-0.48,0.32-1.12,0.44-1.76c0.4-0.16,1.64-0.08,1.84,0.16c-0.08,0.92-0.28,2.44-0.28,3.96c0,1.36,0.04,2.68,0.08,3.92 c-0.24,0.2-1.64,0.24-1.88,0c-0.2-0.96-0.2-1.32-0.4-1.84c-0.16-0.6-0.56-0.88-1.12-0.96c-1.32-0.16-3.96-0.12-5.79-0.12 c-0.12,0-0.24,0.16-0.24,0.32c0,2.6,0,5.71,0.08,7.31c0,0.64,0.4,1.4,0.92,1.6c0.8,0.24,5.88,0.2,6.75,0.2 c1.08,0,1.68-0.32,2.52-1.52c0.64-0.84,1.4-2.48,1.84-3.44c0.32-0.04,1.48,0.32,1.68,0.6c-0.2,1.32-1.04,4.32-1.76,5.75 c-0.2,0.48-0.52,0.8-2.56,0.8c-4.24,0-8.11-0.16-11.03-0.16c-2.68,0-5.4,0.12-7.07,0.12c-0.2-0.16-0.24-1.36-0.04-1.6 c1.4-0.16,2.68-0.28,3.44-0.48c0.96-0.24,1.24-0.76,1.32-2.04c0.08-0.68,0.04-4.87,0.04-9.31c0-3.52,0-6.91-0.04-7.63 c-0.08-1.32-0.24-1.68-1.16-1.96c-0.56-0.16-1.32-0.28-2.4-0.44C249.89,54.83,249.97,53.75,250.21,53.55z M273.88,76.93 c0.8-0.12,1.28-0.2,1.76-0.4c0.48-0.2,0.64-0.64,0.68-1.08c0.16-1,0.2-3.68,0.2-10.39c0-2.92,0-7.47-0.08-8.79 c-0.04-0.32-0.08-1.24-0.64-1.36c-0.4-0.12-1.32-0.24-2.44-0.4c-0.2-0.12-0.2-1.16,0.08-1.32c2.2-0.24,5.12-0.92,6.51-1.52 c0.12,0.04,0.36,0.4,0.36,0.52c-0.28,0.76-0.36,1.2-0.36,2.64c-0.04,2-0.04,6.71-0.08,10.23c0,6.11,0.04,8.71,0.08,9.79 c0.04,0.96,0.12,1.52,0.96,1.72c0.56,0.16,0.68,0.24,1.72,0.36c0.12,0.28,0.08,1.32-0.2,1.6c-0.92,0-2-0.12-4.48-0.12 c-1.6,0-3.6,0.12-4.12,0.12C273.72,78.29,273.64,77.26,273.88,76.93z M293.64,65.58c-0.64-1-1.88-1.48-2.96-1.48 c-1.08,0-1.68,0.28-1.8,0.4c-0.48,0.4-1.12,1.76-1.68,2.88c-0.16,0.2-1.6-0.48-1.52-0.84c0.16-0.68,0.8-2.52,1.12-2.76 c1.72-1.12,4.4-2.16,5.44-2.16c1.88,0,3.32,0.88,4.2,2.2c0.76,1.24,1,2.44,1,4.04c0,2.04-0.16,5.16-0.16,6.83 c0,0.92,0.36,1.48,1.56,1.48c0.6,0,0.92-0.08,1.44-0.2c0.04,0.2-0.04,1.4-0.2,1.56c-0.96,0.96-2.48,1.36-3.48,1.36 c-1.24,0-1.96-0.56-2.2-1.16c-0.16-0.24-0.24-0.6-0.32-0.88c0-0.04-0.16-0.08-0.2-0.04c-2.28,1.4-3.76,2.08-5,2.08 c-0.76,0-1.6-0.48-2.28-1.12c-0.88-0.92-1.4-2.2-1.4-3.6c0-1.12,0.76-2.4,0.92-2.56c1.52-0.76,6.03-1.72,7.67-2.56 c0.08-0.04,0.24-0.28,0.28-0.4c0.08-0.24,0.08-0.6,0.08-0.68C294.16,67.22,294.12,66.34,293.64,65.58z M293.84,70.62 c-1.12,0.44-3.68,1.2-4.6,1.72c-0.2,0.08-0.48,0.84-0.48,1.32c0,1.48,1.04,2.6,2.8,2.6c0.48,0,1.4-0.24,1.92-0.64 c0.36-0.24,0.44-0.52,0.52-1c0.08-0.52,0.08-3.08,0.08-3.8C294.08,70.78,293.96,70.58,293.84,70.62z M311.38,78.53 c-0.76,0-1.72-0.12-4.44-0.12c-1.8,0-3.48,0.12-4.12,0.12c-0.24-0.16-0.28-1.4-0.04-1.6c0.84-0.12,1.32-0.24,1.8-0.4 c0.6-0.16,0.68-0.48,0.72-1.24c0.08-1,0.08-3.2,0.08-5.32v-4c0-0.2-0.08-0.64-0.36-0.88c-0.44-0.48-1.24-0.76-2.12-1.12 c-0.16-0.24,0-1.08,0.24-1.24c1.28-0.04,4.08-0.6,5.75-1.2v7.23c0,2.2,0,4.76,0.04,6.48c0,0.64,0.2,1.12,0.8,1.32 c0.6,0.16,0.8,0.2,1.84,0.36C311.74,77.18,311.62,78.33,311.38,78.53z M308.23,58.15c-0.2,0.16-1.84,0.28-2.08,0.12 c-0.64-0.4-1-0.92-1.24-1.84c-0.04-0.2,0-1.2,0.24-1.4c0.4-0.36,1.4-0.84,2.24-0.84c0.72,0,1.16,0.2,1.28,0.36 c0.2,0.28,0.44,0.88,0.44,1.32C309.11,56.67,308.83,57.63,308.23,58.15z M315.74,76.65c0.56-0.12,0.84-0.56,0.88-1.24 c0.08-1.12,0.08-3.96,0.08-6.52v-2.88c-0.16-0.56-0.88-1.12-2.28-1.76c-0.08-0.32,0.08-1.08,0.28-1.2c1.64-0.16,4.24-0.96,5.2-1.48 c0.08,0.04,0.24,0.2,0.24,0.32c0,0.2-0.04,1.6-0.04,2.24c0,0.08,0.2,0.08,0.24,0.04c1.72-1.48,3.8-2.56,5.36-2.56 c1.76,0,3.12,0.8,4.08,2.16c0.8,1.2,1.12,2.88,1.12,4.8c0,2.36,0,5.95,0.08,7.19c0,0.12,0.16,0.48,0.28,0.56 c0.76,0.36,1.4,0.48,2.28,0.6c0.16,0.28,0.08,1.32-0.16,1.6c-0.56,0-1.96-0.12-4.16-0.12c-1.76,0-2.96,0.12-4,0.12 c-0.16-0.24-0.24-1.36,0-1.6c0.76-0.08,1.4-0.2,1.64-0.32c0.52-0.16,0.64-0.52,0.64-1.96c0-2.64,0.04-5.68-0.12-7.19 c-0.08-0.68-0.36-1.6-1.12-2.24c-0.56-0.48-1.32-0.84-2.44-0.84c-1.16,0-2.48,0.48-3.28,1.2c-0.24,0.2-0.44,0.56-0.44,1.32 c0,2.72,0,6.71,0.08,8.59c0.04,0.72,0.2,1.04,0.84,1.2c0.48,0.12,0.96,0.2,1.64,0.24c0.16,0.24,0.08,1.32-0.16,1.6 c-0.6,0-1.8-0.12-4.12-0.12c-1.68,0-3.72,0.12-4.12,0.12c-0.2-0.24-0.2-1.4,0-1.6C314.86,76.85,315.26,76.77,315.74,76.65z M348.44,74.54c0.08,0.32-0.2,1.24-0.28,1.44c-1.64,1.92-4.76,2.92-6.52,2.92c-2.16,0-3.8-0.64-5.08-1.88 c-1.72-1.64-2.48-4.2-2.48-6.59c0-3.72,1.6-6.08,3.64-7.43c1.36-0.84,3.04-1.36,4.56-1.36c4,0,5.56,3.36,5.87,5.92 c0.04,0.12,0.28,0.36,0.68,0.48c0,0.24-0.28,1.16-0.44,1.28c-1.76,0.44-7.11,0.76-10.67,0.88c-0.16,0.04-0.2,0.24-0.2,0.44 c0.08,1.12,0.68,2.76,1.76,3.72c1.2,1.08,2.4,1.52,4.28,1.52c1.64,0,3.2-0.56,4.68-1.64C348.28,74.26,348.4,74.42,348.44,74.54z M337.53,67.9c0,0.08,0.08,0.32,0.28,0.32c1.44,0.04,5.91-0.12,6.67-0.28c0.12-0.08,0.2-0.2,0.2-0.36c-0.24-2-1.6-4.04-3.68-4.04 C339.09,63.55,337.73,65.38,337.53,67.9z M194.63,92.34c0.92,0,3.28,0.12,5.36,0.12h9.95c1.36,0,3.28,0,4.16-0.12 c0.12,0,0.24,0.24,0.24,0.32c-0.24,0.96-0.52,3.6-0.56,5.84c-0.2,0.28-1.56,0.4-1.8,0.16c-0.24-1.2-0.32-1.72-0.56-2.6 c-0.4-1-0.72-1.4-1.88-1.44c-1.56-0.08-5.68-0.16-6.96-0.04c-0.24,0.04-0.48,0.52-0.48,0.72c0,2.88-0.08,5.64-0.04,8.51 c0,0.12,0.12,0.24,0.16,0.24c2.56,0,5.32,0,6.71-0.12c0.72-0.04,0.96-0.56,1.24-1.4c0.16-0.44,0.32-0.96,0.44-1.72 c0.4-0.12,1.56-0.08,1.96,0.16c-0.12,1.04-0.28,2.88-0.28,4.2c0,1.52,0.04,2.92,0.12,4.36c-0.32,0.2-1.36,0.24-1.84,0.04 c-0.2-0.88-0.32-1.28-0.48-1.8c-0.28-0.96-0.64-1.36-1.48-1.4c-1.44-0.08-5.28-0.08-6.39-0.08c-0.12,0-0.16,0.12-0.16,0.2 c0,2.48-0.04,5.28,0.04,6.91c0.04,1.2,0.28,1.64,1.48,1.88c1.04,0.2,1.96,0.32,3.12,0.44c0.2,0.2,0.16,1.4-0.12,1.6 c-1.32,0-3.12-0.12-6.72-0.12c-2.88,0-4.08,0.12-5.52,0.12c-0.24-0.16-0.28-1.36-0.04-1.56c1-0.12,1.84-0.28,2.36-0.4 c1.2-0.32,1.4-0.6,1.48-2c0.08-1.48,0.04-3.96,0.04-8.83c0-4.56,0-7.11-0.08-8.35c-0.04-1.32-0.28-1.64-1.16-1.88 c-0.6-0.12-1.4-0.28-2.36-0.4C194.31,93.7,194.47,92.54,194.63,92.34z M233.25,108.65c0,3.28-1.28,5.87-3.76,7.51 c-1.16,0.72-3.2,1.52-4.92,1.52c-6.03,0-8.27-4.52-8.27-8.75c0-3.24,1.44-5.44,3.56-6.87c1.48-0.92,3.48-1.64,5.48-1.64 C230.25,100.41,233.25,104.09,233.25,108.65z M222.1,102.89c-1.04,0.64-2.04,2-2.04,4.96c0,4.8,2.44,7.83,5.52,7.83 c0.88,0,1.68-0.24,2.36-0.84c0.92-0.76,1.52-2.32,1.52-4.88c0-4.72-2.32-7.59-5.52-7.59C223.3,102.37,222.62,102.53,222.1,102.89z M235.6,101.25c1.64,0,4.96-0.32,5.99-0.6c-0.2,1.32-0.28,4.32-0.28,7.99c0,2.48,0.04,3.44,0.16,4c0.32,1.28,1.32,2.2,3.28,2.2 c0.92,0,2.16-0.32,3.28-1.28c0.24-0.24,0.36-0.44,0.4-0.8s0.04-1.28,0.04-8.35c0-0.56-0.2-1.04-0.76-1.2 c-0.52-0.16-1.4-0.28-2.52-0.48c-0.08-0.36,0.04-1.28,0.24-1.48c2.2,0,5.76-0.24,6.63-0.48c-0.08,0.64-0.08,1.52-0.12,2.88 l-0.08,9.91c0.04,0.52,0.2,1,0.6,1.04c0.64,0.08,1.4,0,2.08-0.08c0.04,0.32-0.04,1.4-0.28,1.6c-1.48,0.72-4.84,1.68-5.48,1.68 c-0.08,0-0.2-0.28-0.24-0.44c-0.04-0.36-0.12-1.6-0.12-2.16c0-0.08-0.16-0.12-0.24-0.08c-2.32,1.92-4.08,2.56-5.36,2.56 c-4.04,0-4.91-2.72-4.91-5.4c-0.04-2,0.12-6.23,0-7.87c0-0.6-0.2-1.12-0.76-1.28c-0.32-0.12-1.08-0.24-1.84-0.36 C235.28,102.41,235.4,101.49,235.6,101.25z M258.7,115.44c0.56-0.12,0.84-0.56,0.88-1.24c0.08-1.12,0.08-3.96,0.08-6.52v-2.88 c-0.16-0.56-0.88-1.12-2.28-1.76c-0.08-0.32,0.08-1.08,0.28-1.2c1.64-0.16,4.24-0.96,5.2-1.48c0.08,0.04,0.24,0.2,0.24,0.32 c0,0.2-0.04,1.6-0.04,2.24c0,0.08,0.2,0.08,0.24,0.04c1.72-1.48,3.8-2.56,5.36-2.56c1.76,0,3.12,0.8,4.08,2.16 c0.8,1.2,1.12,2.88,1.12,4.8c0,2.36,0,5.95,0.08,7.19c0,0.12,0.16,0.48,0.28,0.56c0.76,0.36,1.4,0.48,2.28,0.6 c0.16,0.28,0.08,1.32-0.16,1.6c-0.56,0-1.96-0.12-4.16-0.12c-1.76,0-2.96,0.12-4,0.12c-0.16-0.24-0.24-1.36,0-1.6 c0.76-0.08,1.4-0.2,1.64-0.32c0.52-0.16,0.64-0.52,0.64-1.96c0-2.64,0.04-5.68-0.12-7.19c-0.08-0.68-0.36-1.6-1.12-2.24 c-0.56-0.48-1.32-0.84-2.44-0.84c-1.16,0-2.48,0.48-3.28,1.2c-0.24,0.2-0.44,0.56-0.44,1.32c0,2.72,0,6.71,0.08,8.59 c0.04,0.72,0.2,1.04,0.84,1.2c0.48,0.12,0.96,0.2,1.64,0.24c0.16,0.24,0.08,1.32-0.16,1.6c-0.6,0-1.8-0.12-4.12-0.12 c-1.68,0-3.72,0.12-4.12,0.12c-0.2-0.24-0.2-1.4,0-1.6C257.82,115.64,258.22,115.56,258.7,115.44z M296.9,116.48 c-1.32,0.52-4.44,1.28-5.56,1.36c-0.12,0-0.28-0.24-0.32-0.52c-0.08-0.36-0.12-1.44-0.12-1.92c0-0.16-0.16-0.24-0.2-0.24 c-2.04,1.4-4.44,2.4-5.64,2.4c-1.84,0-3.48-0.8-4.6-2.2c-1.2-1.48-1.84-3.6-1.84-5.87c0-2.6,1.2-5.04,3.04-6.52 c1.64-1.36,4.84-2.56,7.51-2.56c0.52,0,1.16,0.08,1.68,0.16c0.08,0,0.2-0.16,0.2-0.24c0-3.72,0-4.64-0.08-5.56 c-0.04-0.72-0.2-1-0.8-1.24c-0.56-0.12-1.76-0.36-2.72-0.44c-0.16-0.32-0.12-1.32,0.2-1.52c2.72,0,5.79-0.68,7.11-1.12 c0.12,0.04,0.32,0.64,0.24,0.76c-0.36,0.6-0.44,1.24-0.48,2.6c-0.08,2.12-0.12,3.72-0.12,11.07v8.83c0.04,1,0.36,1.08,0.76,1.16 c0.4,0.12,1.12,0.12,2,0.04C297.22,115.16,297.06,116.24,296.9,116.48z M283.99,103.57c-1,0.92-1.8,2.68-1.8,4.8 c0,4.16,2.2,6.27,5.36,6.27c1.2,0,2.28-0.48,3.12-1.16c0.2-0.2,0.28-0.6,0.28-0.88c0.04-0.88,0.04-5.4,0.04-7.43 c0-0.76-0.24-1.36-0.8-1.76c-0.88-0.64-2.08-0.92-3.32-0.92C285.75,102.49,284.79,102.85,283.99,103.57z M308.33,104.37 c-0.64-1-1.88-1.48-2.96-1.48c-1.08,0-1.68,0.28-1.8,0.4c-0.48,0.4-1.12,1.76-1.68,2.88c-0.16,0.2-1.6-0.48-1.52-0.84 c0.16-0.68,0.8-2.52,1.12-2.76c1.72-1.12,4.4-2.16,5.44-2.16c1.88,0,3.32,0.88,4.2,2.2c0.76,1.24,1,2.44,1,4.04 c0,2.04-0.16,5.16-0.16,6.83c0,0.92,0.36,1.48,1.56,1.48c0.6,0,0.92-0.08,1.44-0.2c0.04,0.2-0.04,1.4-0.2,1.56 c-0.96,0.96-2.48,1.36-3.48,1.36c-1.24,0-1.96-0.56-2.2-1.16c-0.16-0.24-0.24-0.6-0.32-0.88c0-0.04-0.16-0.08-0.2-0.04 c-2.28,1.4-3.76,2.08-5,2.08c-0.76,0-1.6-0.48-2.28-1.12c-0.88-0.92-1.4-2.2-1.4-3.6c0-1.12,0.76-2.4,0.92-2.56 c1.52-0.76,6.03-1.72,7.67-2.56c0.08-0.04,0.24-0.28,0.28-0.4c0.08-0.24,0.08-0.6,0.08-0.68 C308.85,106.01,308.81,105.13,308.33,104.37z M308.53,109.41c-1.12,0.44-3.68,1.2-4.6,1.72c-0.2,0.08-0.48,0.84-0.48,1.32 c0,1.48,1.04,2.6,2.8,2.6c0.48,0,1.4-0.24,1.92-0.64c0.36-0.24,0.44-0.52,0.52-1c0.08-0.52,0.08-3.08,0.08-3.8 C308.77,109.57,308.65,109.37,308.53,109.41z M322.08,103.33c-0.04,0-0.16,0.16-0.16,0.2c-0.04,1.52-0.04,4.28-0.04,6.39 c0,1.88,0.08,2.68,0.28,3.32c0.32,1.2,1.48,1.68,2.56,1.68c1.12,0,1.68-0.12,2.68-0.68c0.12,0.16-0.08,1.48-0.24,1.72 c-1,1.24-2.8,1.76-4.2,1.76c-1.8,0-3.16-0.8-3.84-2.08c-0.56-1.04-0.64-2.08-0.64-4.64c0-2.36,0.04-5.68,0.04-7.27 c0-0.12-0.08-0.36-0.28-0.4l-2.32-0.16c-0.04-0.32,0.16-1.4,0.4-1.64c0.64-0.08,1.64-0.36,2-0.48c0.04,0,0.2-0.16,0.2-0.36v-3.64 c0.6-0.32,2.16-1.2,2.76-1.72c0.2-0.12,0.76-0.12,0.88-0.08c-0.04,0.72-0.2,2.68-0.2,5.44c0,0.12,0.08,0.28,0.2,0.28 c1.84,0,4.56-0.12,5.32-0.2c-0.16,0.68-0.4,1.88-0.44,2.6C326.28,103.37,323.76,103.33,322.08,103.33z M338.5,117.32 c-0.76,0-1.72-0.12-4.44-0.12c-1.8,0-3.48,0.12-4.12,0.12c-0.24-0.16-0.28-1.4-0.04-1.6c0.84-0.12,1.32-0.24,1.8-0.4 c0.6-0.16,0.68-0.48,0.72-1.24c0.08-1,0.08-3.2,0.08-5.32v-4c0-0.2-0.08-0.64-0.36-0.88c-0.44-0.48-1.24-0.76-2.12-1.12 c-0.16-0.24,0-1.08,0.24-1.24c1.28-0.04,4.08-0.6,5.76-1.2v7.23c0,2.2,0,4.76,0.04,6.48c0,0.64,0.2,1.12,0.8,1.32 c0.6,0.16,0.8,0.2,1.84,0.36C338.87,115.96,338.75,117.12,338.5,117.32z M335.35,96.94c-0.2,0.16-1.84,0.28-2.08,0.12 c-0.64-0.4-1-0.92-1.24-1.84c-0.04-0.2,0-1.2,0.24-1.4c0.4-0.36,1.4-0.84,2.24-0.84c0.72,0,1.16,0.2,1.28,0.36 c0.2,0.28,0.44,0.88,0.44,1.32C336.23,95.46,335.95,96.42,335.35,96.94z M357.7,108.65c0,3.28-1.28,5.87-3.76,7.51 c-1.16,0.72-3.2,1.52-4.92,1.52c-6.03,0-8.27-4.52-8.27-8.75c0-3.24,1.44-5.44,3.56-6.87c1.48-0.92,3.48-1.64,5.48-1.64 C354.7,100.41,357.7,104.09,357.7,108.65z M346.55,102.89c-1.04,0.64-2.04,2-2.04,4.96c0,4.8,2.44,7.83,5.52,7.83 c0.88,0,1.68-0.24,2.36-0.84c0.92-0.76,1.52-2.32,1.52-4.88c0-4.72-2.32-7.59-5.52-7.59C347.75,102.37,347.07,102.53,346.55,102.89z M361.75,115.44c0.56-0.12,0.84-0.56,0.88-1.24c0.08-1.12,0.08-3.96,0.08-6.52v-2.88c-0.16-0.56-0.88-1.12-2.28-1.76 c-0.08-0.32,0.08-1.08,0.28-1.2c1.64-0.16,4.24-0.96,5.2-1.48c0.08,0.04,0.24,0.2,0.24,0.32c0,0.2-0.04,1.6-0.04,2.24 c0,0.08,0.2,0.08,0.24,0.04c1.72-1.48,3.8-2.56,5.36-2.56c1.76,0,3.12,0.8,4.08,2.16c0.8,1.2,1.12,2.88,1.12,4.8 c0,2.36,0,5.95,0.08,7.19c0,0.12,0.16,0.48,0.28,0.56c0.76,0.36,1.4,0.48,2.28,0.6c0.16,0.28,0.08,1.32-0.16,1.6 c-0.56,0-1.96-0.12-4.16-0.12c-1.76,0-2.96,0.12-4,0.12c-0.16-0.24-0.24-1.36,0-1.6c0.76-0.08,1.4-0.2,1.64-0.32 c0.52-0.16,0.64-0.52,0.64-1.96c0-2.64,0.04-5.68-0.12-7.19c-0.08-0.68-0.36-1.6-1.12-2.24c-0.56-0.48-1.32-0.84-2.44-0.84 c-1.16,0-2.48,0.48-3.28,1.2c-0.24,0.2-0.44,0.56-0.44,1.32c0,2.72,0,6.71,0.08,8.59c0.04,0.72,0.2,1.04,0.84,1.2 c0.48,0.12,0.96,0.2,1.64,0.24c0.16,0.24,0.08,1.32-0.16,1.6c-0.6,0-1.8-0.12-4.12-0.12c-1.68,0-3.72,0.12-4.12,0.12 c-0.2-0.24-0.2-1.4,0-1.6C360.87,115.64,361.27,115.56,361.75,115.44z M161.23,136.91c2.52,0.07,5.86-1.58,7.48-3.83 c-0.83-1.79-1.63-3.6-2.38-5.42c-1.6-3.94-3.03-7.94-4.18-11.99c-3.7-12.39-3.97-25.15-4.03-38.05c0-4.26-0.16-8.54-0.52-12.83h0 c-0.66-8.05-1.18-9.58-5.46-15.24c-4.17-5.52-6.87-8.58-9.08-9.86c-10.44-6.03-26.64,1.48-38.12,21.36l-2.49,4.32l-9.54,16.53 L76.76,61.11c10.94-7.94,20.05-17.85,27.51-29.12c-1.2-2.22-4.3-4.28-7.06-4.57c-1.14,1.62-2.3,3.21-3.5,4.77 c-2.61,3.36-5.36,6.59-8.29,9.61c-8.88,9.39-19.79,16.02-30.94,22.52c-3.68,2.13-7.32,4.41-10.85,6.86l0,0 c-6.64,4.6-7.71,5.81-10.47,12.35c-2.7,6.37-4,10.24-4,12.79c0,12.05,14.6,22.33,37.56,22.33h24.07l-9.91,24.38 c-12.34-5.5-25.49-8.43-38.98-9.26c-1.32,2.15-1.56,5.86-0.43,8.39c1.97,0.18,3.93,0.39,5.88,0.65c4.22,0.58,8.39,1.34,12.47,2.37 c12.58,2.99,23.77,9.13,34.97,15.53c3.69,2.12,7.48,4.13,11.37,5.97l0,0c7.3,3.45,8.89,3.77,15.93,2.89 c6.87-0.85,10.87-1.65,13.08-2.93c10.44-6.03,12.04-23.81,0.56-43.69l-2.49-4.32l-9.54-16.53l26.07-3.61 C151.16,111.96,155.19,124.81,161.23,136.91 M144.07,46.06L144.07,46.06c2.9,5.19,4.02,13.79,4.38,18.79 c0.01,0.1,0.01,0.21,0.02,0.31l-24.95-13.52C130.58,45.58,137.97,44.16,144.07,46.06 M120.76,54.28l27.94,15.14 c0.17,3.83,0.22,7.64,0.28,11.47l-38.42-8.1c0.11-2.88,1.15-5.5,2.97-8.65C115.82,60.18,118.26,56.92,120.76,54.28 M73.78,63.19 l17.18,22.09l-2.73,4.74c-4.61,7.99-7.85,12.83-11.05,15.71L65.07,68.69c1.84-1.11,3.68-2.24,5.51-3.41 C71.67,64.6,72.73,63.9,73.78,63.19 M34.17,92.27L34.17,92.27c3.05-5.11,9.94-10.38,14.09-13.19c0.09-0.06,0.17-0.11,0.26-0.17 l0.77,28.37C40.5,104.19,35.58,98.5,34.17,92.27 M65.1,109.68c-4.58,0-8.62-0.48-12.16-1.33l-0.86-31.76 c3.24-2.06,6.51-4.01,9.8-5.98l12.2,37.32C71.52,109.27,68.74,109.68,65.1,109.68 M102.46,82.77l15.7,27.19H86.76L102.46,82.77z M84.16,144.57l10.54-25.92h5.47c9.23,0,15.04,0.38,19.14,1.72l-26.03,29.01c-1.88-1.04-3.78-2.06-5.71-3.07 C86.43,145.71,85.3,145.13,84.16,144.57 M129.14,164.34L129.14,164.34c-5.95-0.08-13.95-3.42-18.46-5.61 c-0.09-0.05-0.19-0.09-0.28-0.14l24.18-14.85C136.3,152.9,133.83,160.01,129.14,164.34 M133.68,140.05l-27.08,16.63 c-3.4-1.77-6.73-3.63-10.08-5.49l26.22-29.23c2.44,1.54,4.19,3.75,6.01,6.9C131.04,132.82,132.65,136.56,133.68,140.05 M121.73,98.74l-2.74-4.74c-4.61-7.98-7.18-13.21-8.08-17.42l38.13,8.04c0.04,2.15,0.1,4.31,0.2,6.48c0.04,1.28,0.11,2.55,0.19,3.82 L121.73,98.74z"></path> </svg> 