<?xml version="1.0" encoding="UTF-8"?> <svg xmlns="http://www.w3.org/2000/svg" id="Layer_1" data-name="Layer 1" viewBox="0 0 500 240"><defs><style> .cls-1 { fill: #fff; } .cls-2 { fill: #0867e8; } .cls-3 { fill: #b5defa; } </style></defs><rect class="cls-3" x="130.8" width="369.2" height="131.89999"></rect><polygon class="cls-1" points="439.26868 138.19589 439.26868 137.9959 431.76868 101.99589 431.66864 101.69589 433.16864 101.69589 433.16864 97.79589 428.96863 97.79589 428.86865 97.69589 384.46863 60.39589 384.36865 60.29589 384.36865 56.79589 380.46863 56.79589 380.46863 58.39589 380.06866 58.39589 323.96863 51.49589 323.56866 51.49589 323.56866 49.39589 319.76868 49.39589 319.76868 51.79589 319.56866 51.89589 253.56866 70.09589 253.06866 70.19589 253.06866 68.69589 249.16866 68.69589 249.16866 72.59589 249.06866 72.69589 211.46866 109.79589 211.36867 109.89589 207.56866 109.89589 207.56866 113.69589 209.46866 113.69589 209.46866 150.5959 207.56866 150.5959 207.56866 154.39589 211.36867 154.39589 211.36867 153.79588 211.86867 154.19589 249.36867 180.19589 249.56866 180.29588 249.56866 183.4959 253.56866 183.4959 253.56866 180.69589 253.66866 180.5959 266.86865 174.29588 267.36865 174.0959 267.36865 175.0959 271.26865 175.0959 271.26865 174.4959 271.76865 174.89589 297.26865 193.4959 297.46866 193.69589 297.46866 196.89589 301.26868 196.89589 301.26868 194.29588 301.56866 194.0959 328.36865 180.5959 328.96863 180.29588 328.96863 181.19589 332.56866 181.19589 332.56866 181.29588 366.46863 221.5959 366.46863 221.69589 366.46863 225.89589 370.36865 225.89589 370.36865 223.89589 375.16864 223.89589 375.16864 225.89589 378.96863 225.89589 378.96863 221.9959 376.06866 221.9959 375.96863 221.79588 360.46863 191.39589 360.26868 190.79588 361.56866 190.79588 361.66864 190.89589 378.06866 205.19589 378.26868 205.29588 378.26868 208.89589 382.16864 208.89589 382.16864 206.4959 382.36865 206.39589 401.66864 202.0959 402.06866 201.9959 402.06866 203.4959 405.96863 203.4959 405.96863 199.69589 405.36865 199.69589 405.76868 199.0959 414.66864 186.89589 414.66864 186.69589 418.06866 186.69589 418.06866 182.89589 416.66864 182.89589 416.76868 182.39589 418.86865 175.29588 418.96863 175.0959 421.36865 175.0959 421.36865 171.19589 417.56866 171.19589 417.56866 172.29588 417.06866 171.9959 409.46863 168.79588 409.36865 168.5959 409.36865 167.79588 427.46863 167.79588 427.46863 169.69589 431.36865 169.69589 431.36865 165.89589 430.16864 165.89589 430.26868 165.39589 438.86865 142.39589 438.96863 142.0959 441.56866 142.0959 441.56866 138.19589 439.26868 138.19589"></polygon><path class="cls-2" d="m441.82126,142.42946v-4.5666h-2.39474l-7.4852-35.89648h1.44199v-4.56666h-4.44559l-44.39902-37.30101v-3.73473h-4.56662v1.64592l-56.10345-6.81362v-2.20037h-4.56662v2.54055l-66.02795,18.15961v-1.28467h-4.5666v4.03385l-37.59743,37.08963h-4.08878v4.56661h1.92586v36.08177h-1.92586v4.56667h4.5666v-.26997l37.53369,25.9494v3.42758h4.5666v-2.97636l13.20752-6.29906v.79851h4.56662v-.17789l25.5231,18.59137v3.50415h4.56662v-2.89827l26.90723-13.55441v.73264h3.73203l33.73636,40.20761v4.4489h4.56662v-1.92589h4.1088v1.92589h4.56662v-4.5666h-3.03583l-15.40686-30.50624h.53726l16.49234,14.28151v3.78738h4.56662v-2.43475l19.23328-4.36295v1.39941h4.56665v-4.5666h-.1911l8.82541-12.20235h3.49408v-4.5666h-1.25867l2.03549-7.11629h2.56476v-4.5666h-4.56662v.89737l-7.5592-3.29843v-.24869h17.49823v1.92558h4.56665v-4.5666h-1.05225l8.59003-23.09315h2.75128l.00006-.00005Zm-32.51587,23.09315h-4.40475v1.92619h-48.87338v-.0031l81.22739-26.18787v.37015l-27.94925,23.89462Zm4.37952,16.97366v1.92616h-24.07196v-1.12421l15.45108-13.20901h2.89917l6.42096,12.40706h-.69925Zm-12.12845,18.03291l-40.09958-11.37505v-.24742l23.58942-3.43338v1.58955h4.02957l12.48056,12.6759v.79039h.00003Zm-42.6022-13.93462l-4.25284-16.50536h1.32581v-.72853l29.01907,14.66589v.72473l-23.58942,3.43329v-1.59003h-2.50262Zm-58.08167,6.1364h-1.75653l-11.43372-50.30151h1.39764v-2.78423l92.46875-35.83807v.69851l-80.67612,88.22529-.00003.00002Zm-33.64969-21.91759l-31.60272-29.05316v-1.25632h48.89319v1.92555h.65741l-15.17627,28.38393h-2.77161Zm-17.98238-97.83539l-14.98167,25.59848h-3.20532v2.93155l-19.46567,8.87608v-.3164l37.59752-37.08971h.05515Zm35.27284,66.8111h-48.8932v-1.92624h-1.92607v-34.71976h1.92607v-.16187l48.8932,35.93087v.877Zm-72.92551-28.61939l19.46567-8.87621v.8496h1.92577v34.71976h-1.11121l-20.28023-23.90588v-2.78727Zm72.92551,26.69315v.16229l-48.8932-35.93083v-1.88305l61.58687-28.08262v.84934h1.50256l-11.85873,64.88485h-2.33749v.00002Zm14.92291-64.88485h2.33737v-1.65783l56.22589,6.54364v1.37512l-69.0647,58.62393h-1.35724l11.85867-64.88485v-.00002Zm80.73999-12.04742h1.80359l1.41293,39.32485h-1.23807l-19.58862-20.60325v-3.39573l17.61014-15.32587h.00003Zm3.10458,0l27.65292,43.57157h-.41025v1.58768l-24.40817-3.57736v-2.25704h-2.00766l-1.41293-39.32485h.58612-.00003Zm1.13647,0l44.39935,37.30101v1.95399l-13.72653,5.32572v-1.00915h-3.30978l-27.65274-43.57157s.2897,0,.2897,0Zm-95.33734,77.74662l69.06491-58.62428h3.81543l19.58838,20.60312v2.38466l-92.46875,35.83746v-.20096h.00003Zm97.03537-33.85515v-1.58729l24.40817,3.5774v1.81787l-55.0672,56.89258h-.27072l27.87668-60.70057s3.05307,0,3.05307,0Zm18.78531,64.46614l-15.44968,13.20808h-4.40463v.72887l-29.01907-14.66545v-.39607h48.87338v1.12457Zm-48.87338-2.5936v-.73318l55.06683-56.89263h3.09622l23.06436,28.79914v2.6394l-81.22739,26.18726-.00003.00002Zm82.66925-28.83174h-.52988l-23.07648-28.81385v-2.77087l13.72653-5.32559v1.01382h2.39447l7.48535,35.89649Zm-58.72443-77.70207l-17.60956,15.32552h-4.36301v1.65783l-55.75681-6.48897,77.72937-11.3144v.82002Zm-.41824-1.4814l-77.78021,11.32164v-.83708l17.75473-15.60143h4.34027v-1.64597l55.68521,6.76284Zm-60.25183-6.40158v.53197l-17.75494,15.60161h-4.34006v1.92581h-43.56865s65.66365-18.05939,65.66365-18.05939Zm-22.095,18.77422v.29083l-61.58685,28.08284v-.8492h-.53302l14.98151-25.59848h3.20541v-1.92598h43.93295v-.00002Zm-87.5451,43.04946h1.11102l20.28056,23.90618v2.90778l-19.46565,9.97903v-.7112h-1.92593v-36.08179Zm1.92593,37.59612l19.46567-9.97925v.71112h4.23878l31.60338,29.05058v.45174l-55.30783-19.05659v-1.1776Zm42.1003,28.39085v-.79816h-4.5666v.27016l-37.4743-25.90834,55.24844,19.0359v1.10138l-13.20753,6.29906Zm17.77412-5.76804v-3.50703h-.65732l15.17661-28.38393h.9678l11.43347,50.30151h-1.39746v.17862l-25.5231-18.58919v.00002Zm30.08972,19.27866v-.55196l80.6763-88.22507h.04755l-27.8765,60.70056h-2.93875v3.02428l-18.43469,9.20749v-.74339h-4.56665v3.03308l-26.90723,13.55504-.00003-.00003Zm73.05103,28.06839v1.92589h-4.1088v-1.92589h-2.5025l-7.64743-29.67793,14.98874,29.67793h-.73001Zm-7.3494,0h-.49185l-33.7359-40.20752v-2.90665l18.43469-9.20718v.7431h2.50247l4.25308,16.50536h-1.32587v4.56667h2.50284l7.8605,30.50624.00003-.00002Zm15.06955-15.6051v-1.39885h-4.37457l-16.49173-14.28107v-.48529l40.09958,11.37509v.42761l-19.23328,4.36252v-.00002Zm22.72662-6.79713h-2.95605l-12.4808-12.67609v-1.4519h24.07196v1.92563h.19089l-8.82599,12.20235v.00002Zm11.97668-26.77457v2.88931h1.25818l-2.03531,7.11629h-1.06082l-6.42035-12.40706h.69907v-.89716l7.5592,3.29861h.00003Zm12.69046-6.96806h-2.75146v1.92619h-17.49823v-1.12402l27.95081-23.89532h.88953l-8.59064,23.09315Z"></path></svg> 