<?xml version="1.0" encoding="UTF-8"?> <svg xmlns="http://www.w3.org/2000/svg" id="Layer_1" data-name="Layer 1" viewBox="0 0 800 220"><defs><style> .cls-1 { fill: #fff; } .cls-2 { fill: #0867e8; } .cls-3 { fill: #b5defa; } </style></defs><rect id="block" class="cls-3" x="207.8" width="592.2" height="149.99998"></rect><polygon class="cls-1" points="652.40002 123.8 652.40002 123.6 644.90002 87.6 644.79999 87.3 646.29999 87.3 646.29999 83.4 642.09998 83.4 642 83.3 597.59998 46 597.5 45.9 597.5 42.4 593.59998 42.4 593.59998 44 593.20001 44 537.09998 37.1 536.70001 37.1 536.70001 35 532.90002 35 532.90002 37.4 532.70001 37.5 466.70001 55.7 466.20001 55.8 466.20001 54.3 462.29999 54.3 462.29999 58.2 462.20001 58.3 424.60001 95.4 424.5 95.5 420.70001 95.5 420.70001 99.3 422.60001 99.3 422.60001 136.20001 420.70001 136.20001 420.70001 139.99998 424.5 139.99998 424.5 139.39999 425 139.8 462.5 165.8 462.70001 165.89999 462.70001 169.10001 466.70001 169.10001 466.70001 166.3 466.79999 166.20001 480 159.89999 480.5 159.70001 480.5 160.70001 484.39999 160.70001 484.39999 160.10001 484.89999 160.49998 510.39999 179.10001 510.60001 179.3 510.60001 182.49998 514.40002 182.49998 514.40002 179.89999 514.70001 179.70001 541.5 166.20001 542.09998 165.89999 542.09998 166.8 545.70001 166.8 545.70001 166.89999 579.59998 207.20001 579.59998 207.3 579.59998 211.49998 583.5 211.49998 583.5 209.49998 588.29999 209.49998 588.29999 211.49998 592.09998 211.49998 592.09998 207.60001 589.20001 207.60001 589.09998 207.39999 573.59998 176.99998 573.40002 176.39999 574.70001 176.39999 574.79999 176.49998 591.20001 190.8 591.40002 190.89999 591.40002 194.49998 595.29999 194.49998 595.29999 192.10001 595.5 191.99998 614.79999 187.70001 615.20001 187.60001 615.20001 189.10001 619.09998 189.10001 619.09998 185.3 618.5 185.3 618.90002 184.70001 627.79999 172.49998 627.79999 172.3 631.20001 172.3 631.20001 168.49998 629.79999 168.49998 629.90002 167.99998 632 160.89999 632.09998 160.70001 634.5 160.70001 634.5 156.8 630.70001 156.8 630.70001 157.89999 630.20001 157.60001 622.59998 154.39999 622.5 154.20001 622.5 153.39999 640.59998 153.39999 640.59998 155.3 644.5 155.3 644.5 151.49998 643.29999 151.49998 643.40002 150.99998 652 127.99999 652.09998 127.70001 654.70001 127.70001 654.70001 123.8 652.40002 123.8"></polygon><path class="cls-2" d="m654.95264,128.03357v-4.56661h-2.39471l-7.48523-35.89649h1.44202v-4.56666h-4.44562l-44.39899-37.30101v-3.73473h-4.56659v1.64592l-56.10345-6.81362v-2.20037h-4.56659v2.54055l-66.02795,18.15961v-1.28467h-4.56662v4.03385l-37.59744,37.08963h-4.08878v4.56661h1.92584v36.08178h-1.92584v4.56667h4.56662v-.26997l37.53369,25.9494v3.42758h4.56662v-2.97636l13.20752-6.29906v.79851h4.56662v-.17789l25.5231,18.59137v3.50415h4.56662v-2.89827l26.90723-13.55441v.73264h3.73206l33.73633,40.20761v4.4489h4.56659v-1.92589h4.10883v1.92589h4.56659v-4.5666h-3.03583l-15.40686-30.50624h.53723l16.49237,14.28151v3.78738h4.56659v-2.43475l19.23328-4.36295v1.39941h4.56665v-4.5666h-.1911l8.82544-12.20235h3.49408v-4.5666h-1.25867l2.03546-7.11629h2.56476v-4.5666h-4.56659v.89737l-7.5592-3.29843v-.24869h17.49823v1.92558h4.56665v-4.5666h-1.05225l8.59003-23.09315h2.75128v-.00003Zm-32.51587,23.09315h-4.40472v1.92619h-48.87341v-.0031l81.22736-26.18787v.37015l-27.94922,23.89462Zm4.37952,16.97366v1.92616h-24.07196v-1.12421l15.45111-13.20901h2.89917l6.42096,12.40706h-.69928Zm-12.12842,18.03291l-40.09961-11.37505v-.24742l23.58942-3.43338v1.58955h4.0296l12.48059,12.6759v.79039Zm-42.60223-13.93462l-4.25281-16.50536h1.32581v-.72853l29.0191,14.66589v.72473l-23.58942,3.43329v-1.59003h-2.50269Zm-58.08167,6.1364h-1.75653l-11.43372-50.30151h1.39764v-2.78422l92.46875-35.83807v.69851l-80.67609,88.22529h-.00006Zm-33.64969-21.91759l-31.60272-29.05316v-1.25631h48.89319v1.92554h.65741l-15.17627,28.38393h-2.77161Zm-17.98239-97.83539l-14.98169,25.59848h-3.20532v2.93155l-19.46567,8.87608v-.3164l37.5975-37.08971h.05518Zm35.27286,66.81109h-48.89319v-1.92624h-1.92606v-34.71976h1.92606v-.16187l48.89319,35.93087v.877Zm-72.92551-28.61939l19.46567-8.87621v.8496h1.92575v34.71976h-1.11121l-20.28021-23.90588v-2.78727Zm72.92551,26.69315v.1623l-48.89319-35.93082v-1.88305l61.58685-28.08262v.84934h1.50256l-11.85873,64.88485h-2.33749Zm14.92288-64.88485h2.33734v-1.65783l56.22589,6.54364v1.37512l-69.0647,58.62393h-1.35724l11.8587-64.88485v-.00002Zm80.73999-12.04742h1.80359l1.41296,39.32485h-1.2381l-19.58862-20.60325v-3.39573l17.61017-15.32587Zm3.10461,0l27.65289,43.57157h-.41028v1.58768l-24.4082-3.57736v-2.25704h-2.00763l-1.41296-39.32485h.58618Zm1.13647,0l44.39935,37.30101v1.95399l-13.72656,5.32572v-1.00915h-3.30975l-27.65271-43.57157s.28967,0,.28967,0Zm-95.33734,77.74662l69.06488-58.62428h3.81543l19.58838,20.60312v2.38466l-92.46875,35.83746v-.20096h.00006Zm97.03534-33.85515v-1.58729l24.4082,3.5774v1.81787l-55.0672,56.89258h-.27069l27.87671-60.70057h3.05304-.00006Zm18.78528,64.46615l-15.44971,13.20808h-4.4046v.72887l-29.0191-14.66545v-.39607h48.87341v1.12457Zm-48.87341-2.5936v-.73318l55.06683-56.89263h3.09619l23.06433,28.79914v2.63941l-81.22736,26.18726Zm82.66925-28.83174h-.52991l-23.07648-28.81385v-2.77087l13.72656-5.32559v1.01382h2.39447l7.48535,35.89649Zm-58.72443-77.70207l-17.60956,15.32552h-4.36298v1.65783l-55.75684-6.48897,77.72937-11.3144v.82002Zm-.41821-1.4814l-77.78021,11.32164v-.83708l17.7547-15.60143h4.34027v-1.64597l55.68524,6.76284Zm-60.25183-6.40158v.53197l-17.75494,15.60161h-4.34006v1.92581h-43.56863s65.66364-18.05939,65.66364-18.05939Zm-22.095,18.77422v.29083l-61.58685,28.08284v-.8492h-.53302l14.98151-25.59848h3.20541v-1.92598h43.93295Zm-87.5451,43.04945h1.11102l20.28058,23.90618v2.90778l-19.46567,9.97903v-.7112h-1.92593v-36.0818Zm1.92593,37.59612l19.46567-9.97925v.71112h4.23877l31.60339,29.05058v.45174l-55.30783-19.05659v-1.1776Zm42.10031,28.39085v-.79816h-4.56662v.27016l-37.4743-25.90834,55.24844,19.0359v1.10138l-13.20752,6.29906Zm17.77414-5.76804v-3.50703h-.65732l15.17661-28.38393h.9678l11.43347,50.30151h-1.39746v.17862l-25.5231-18.58917Zm30.08972,19.27866v-.55196l80.67627-88.22507h.04755l-27.87653,60.70058h-2.93872v3.02428l-18.43469,9.20749v-.74339h-4.56665v3.03308l-26.90723,13.55504v-.00005Zm73.05103,28.06839v1.92589h-4.10883v-1.92589h-2.5025l-7.6474-29.67793,14.98877,29.67793h-.73004Zm-7.34937,0h-.49182l-33.7359-40.20752v-2.90665l18.43469-9.20718v.7431h2.50244l4.25311,16.50536h-1.32587v4.56667h2.50287l7.86053,30.50624-.00006-.00002Zm15.06958-15.6051v-1.39885h-4.37457l-16.49176-14.28107v-.48529l40.09961,11.37509v.42761l-19.23328,4.36252v-.00002Zm22.72662-6.79713h-2.95605l-12.48077-12.67609v-1.4519h24.07196v1.92563h.19086l-8.82599,12.20235v.00002Zm11.97668-26.77457v2.88931h1.25818l-2.03534,7.11629h-1.06079l-6.42035-12.40706h.6991v-.89716l7.5592,3.29861Zm12.69049-6.96806h-2.75146v1.92619h-17.49823v-1.12402l27.95081-23.89532h.88953l-8.59064,23.09315Z"></path></svg> 