<?xml version="1.0" encoding="UTF-8"?>
<svg id="Layer_1" data-name="Layer 1" xmlns="http://www.w3.org/2000/svg" xmlns:xlink="http://www.w3.org/1999/xlink" viewBox="0 0 500 400">
  <defs>
    <style>
      .cls-1 {
        fill: #ef6565;
      }

      .cls-2 {
        fill: #fff;
      }

      .cls-3 {
        fill: #0867e8;
      }

      .cls-4 {
        clip-path: url(#clippath);
      }

      .cls-5 {
        fill: none;
      }
    </style>
    <clipPath id="clippath">
      <rect class="cls-5" x="130.787" y="11.6215" width="369.213" height="369.213"/>
    </clipPath>
  </defs>
  <rect class="cls-1" x="130.787" y="83.76615" width="369.213" height="131.87661"/>
  <g class="cls-4">
    <g>
      <polygon class="cls-2" points="313.509 264.93039 169.2975 371.134 169.2975 14.5154 313.509 120.7188 313.509 264.93039"/>
      <path class="cls-2" d="m279.69211,152.29089l.65649,5.0058-1.79361,6.89841-10.6134,20.4566-.4202-.0067-26.6358-.4608,5.4422-5.5079,5.9451-5.47099,11.1665-7.8576.19351-.1366-.13-.19791-1.29959-1.9738-.00809-.01331-.01031-.0118-9.0708-10.55209-9.62019-9.2709-10.4044-9.82919-.01109-.01109-.0672-.0731h-.0022l-9.1366-9.6246-8.79759-9.3692-.0074-.0118-.0081-.0111-7.5105-10.1024-4.40041-9.3396-.00639-.014-.68311-5.2155,1.7932-6.8984,10.6124-20.4559h.0007l-1.7789,6.843-.0148.0546.0118.0554.9415,4.6329.0089.0458.0258.0398,6.5439,9.94.0089.0133.0103.0118,9.0708,10.5521,9.62019,9.271,10.414,9.8395,9.20819,9.7,8.79541,9.3655.00739.01331.00891.0118,7.51129,10.1032,4.34561,9.2244-.12189.1218.18021.08791v.12849h.02951l-.00012-.00011Zm-62.2094,59.5415v.13139l-.09599.0007-10.54469,20.3244-1.79289,6.89841.65649,5.0132h.0303v.0244h.0052v.0273h.0096v.19051l4.3885,9.3138,7.5105,10.10239.0089.01181.0074.0126,8.79829,9.3692,15.778,16.6301,5.9532,6.13339,18.58249-11.22781-6.31281-11.5423-8.1456-10.1105-.0022-.00299-10.4133-9.83951-9.6209-9.2709-9.0708-10.55209-.0096-.0118-.0089-.01331-1.29961-1.9738-.13-.19791.1935-.13589,11.1665-7.8576,5.9451-5.4725,5.4422-5.5072-26.6358-.4601-.39281-.0074-.00029.00003Zm125.06502,130.92139c.06131-.02081.11591-.05719.15799-.10571l13.53311-15.39371c.04871-.05539.0798-.12411.08929-.1972l3.62119-28.42871c.0162.0022.0318.00299.0473.00299.14841,0,.285-.09009.34189-.23111.06281-.15579.0126-.3345-.12259-.4342l11.0675-14.92139c.065.04871.14249.07239.22009.07239.0864,0,.17279-.0303.24149-.09009.13071-.11371.16541-.302.0827-.4549l8.58939-4.6499c.08789-.048.15289-.13.18021-.22672.02661-.09671.01251-.2009-.03839-.28729l-8.10861-13.65051.06421-.4054-.2525-.28131c-.02069,0-.04141.0015-.06281.00519l-1.5943-9.2104c-.02069-.12041-.0997-.22231-.21051-.27319l-27.67029-12.5968c.04211-.0923.04431-.19791.00589-.2924-.03839-.0938-.11371-.1676-.20819-.2045l12.22681-31.5714c.05609-.1447.0155-.3087-.1012-.4113l-12.3959-10.8578c.08051-.0916.10999-.2171.0798-.33521l23.3992-6.04401c.1344-.0347.23779-.14101.2681-.2762l3.56659-15.76759c.02731.00591.0546.0089.08121.0089.13,0,.2533-.0687.3205-.18539l7.6228,4.3744c.05759.0332.12109.0495.18311.0495.12701,0,.25031-.065.319-.1817l4.92459-8.3575c.0657-.1115.06799-.2496.00659-.3633l-7.2868-13.4563c.10931-.0598.18161-.17059.19199-.29469.01031-.12399-.04279-.24519-.14111-.3212l18.8808-24.28461c.0658.0517.14621.0775.22601.0775.06351,0,.12631-.0155.1839-.04871.13-.07381.2016-.2193.1824-.36771l24.45221-3.1937c.00739.05321.02591.1041.05389.1492l-42.50079,26.88091c-.1507.09531-.21191.2843-.14551.44971.05759.1425.19421.2319.34259.2319.02441,0,.04941-.00301.07379-.0081l32.89691-6.7352v.0007c.0354.1743.18979.2946.36111.2946.02441,0,.0495-.0022.07458-.0074.1994-.0406.32791-.2356.28799-.43491l17.84259-3.6367c.02881.1403.13589.25101.27539.285.02881.0067.05759.0103.0864.0103.11081,0,.2171-.0502.28799-.13879.07159-.08859,35.32779,28.2684,35.32779,28.2684-.10339.12849-.10849.3101-.0126.4446.07089.0997.1839.15511.30051.15511.04141,0,.0835-.0074.12479-.02139l9.90079,27.6378c-.13809.0495-.23331.1757-.24371.3212-.01031.14619.06641.285.19571.353l-5.1239,9.7037c-.05539.10339-.05759.2274-.00589.33299l3.10071,6.4147c-.11301.0546-.19049.16319-.20599.2872-.0148.1248.034.24809.13.3286l-33.79111,40.45911c-.05539.0665-.0864.1507-.0864.237v17.2688c-.15881,0-.2998.1019-.35001.25259l-11.021-3.67441c-.03839-.01331-.07751-.0192-.1167-.0192-.10779,0-.21191.0473-.2836.1322l-21.44019,25.67139c-.0672-.05609-.1507-.08569-.2363-.08569-.02441,0-.048.0022-.07159.00659-.10931.02139-.20309.09161-.25549.18979v.0007l-9.09821-4.7998c-.05389-.02811-.11301-.04211-.17209-.04211-.05389,0-.10779.01181-.15799.0347-.10489.0495-.18021.14551-.2038.25919l-6.2803,30.2226c-.02441-.00519-.04941-.00769-.07458-.00769-.1048,0-.20599.04459-.27689.12469-.08789.0993-.1152.23792-.07239.3634v.00049l-46.41449,15.8378c-.06131.02081-.116.05719-.15881.10571"/>
      <path class="cls-3" d="m470.4379,211.49719h-.75031l-13.54709-28.02769,17.71341,18.31151v2.6443h.319l-3.73489,7.0719-.00012-.00002Zm1.73529,6.84151l-48.0184-45.15401v-.1248l29.0918,8.4335v1.629h1.90509l13.71552,28.37469h-.39731v3.1228h1.90659l1.7973,3.7187h-.0007l.00012.00011Zm-33.28311,58.69231h-1.1918v.65201l-8.48669-2.83041v-1.42441l9.22519-11.04681h.4534v14.6496l-.00009.00003Zm-41.37619,19.0433v-1.96719h-3.1228v3.1221h.8595l-5.80551,27.9425h-1.50861v1.7038l-43.7348,14.92371v-.2941l11.2735-12.82309h2.40579v-2.73621l16.04971-18.2561h2.44269v-2.77802l30.8884-35.13431h2.44269v-.65131l16.38419,5.46359v1.42441l-19.4538,23.29291h-2.3844v.3205l-6.7374-3.55331h.0007l.00015.00012Zm-37.34439,3.74899h1.38751v-.31381l11.6937,6.20871v1.6268l-16.01349,18.21481h-.34631l3.27859-25.73639v-.00012Zm1.38751-3.04599l9.24811-12.46759h.54639l2.86731,20.258h-.96811v.31381l-11.69299-6.20871v-1.89551h-.0007Zm17.6358-17.7724v.29541h3.1228v-1.98639l18.20001-9.85431v.29541h3.1221v-.65131l2.94409.98209v1.34839l-30.88831,35.13361h-.72879l-2.86731-20.258h.96661v-1.98709l6.12891-3.31769-.00012-.00012Zm-5.5744-14.00351h.20459v-3.1221h-1.45691l-1.14899-6.6451h.91571v-3.1221h-3.1221v.4445l-24.92111-11.34441h23.7146v1.1918h3.1228v-.59l15.26111,5.64819v1.74561h3.1221v-2.07201l17.66681-10.66431v.18761h.8595l-5.8129,27.9731h-1.5079v1.98709l-18.20001,9.85431v-.29611h-2.05869l-6.6384-11.17609h-.00021Zm-30.2312-25.71941l11.24481-29.03419h1.76999v-1.56551l4.45789-1.09731v.79601h1.50339l6.30621,30.90089h-.86539v1.1918h-23.85559v-1.1918h-.56119l-.00012.00011Zm17.4726-32.77361v.3161l-4.45709,1.09731v-.7968h-2.78391l-9.4888-8.311,16.7298,7.6944Zm3.37091-14.4606v.77679h.9769l-2.81189,12.4343h-1.53589v.4364l-17.32571-7.9684v-.33299l20.69659-5.34621v.00011Zm5.1926,47.23419l-6.30621-30.90089h.86539v-3.1221h-.23041l5.75531-9.94141h2.03809v-.7377l23.9324,6.74921v.72881l-23.1452,16.70981h-3.09259v3.1221h2.0957l15.01001,24.1953h-.15799v.59l-15.26111-5.64819v-1.7449h-1.50339v-.00002Zm.24811-62.84601h1.53589v-.2393l5.13721,2.9485v2.0314h3.1228v-.24001l35.06421,20.1228v2.0321h3.1221v-.24001l14.79361,8.4897v2.0322h.0849l-9.06049,13.6727h-2.15329v1.1918h-17.94229v-1.1918h-1.59061l-1.76779-6.7175h.76871v-1.897l11.46411-5.4666v.4084h.83661l-1.65701,7.46919h-1.5293v3.1228h3.1228v-3.1228h-.83661l1.65701-7.46921h1.5293v-3.1228h-3.1228v1.897l-11.46411,5.4666v-.4084h-3.1221v3.1228h1.58981l1.76779,6.7175h-.76871v3.1221h3.1228v-1.1918h17.94229v1.1918h1.39709l3.5755,26.827h-.98059v1.65561l-21.67279,6.67609v-.69409h-.85959l5.81219-27.9738h1.50861v-3.1228h-3.1221v2.07201l-17.66611,10.6644v-.18761h-2.0957l-15.01001-24.1953h.15799v-2.233l23.1445-16.70911h3.0932v-3.1228h-3.1228v.73689l-23.9324-6.74921v-1.6179h-3.1228v3.1228h.23111l-5.3374,9.22,2.64871-11.71291h1.38751v-3.1228h-.68161l3.00021-13.26579.00043.00015Zm12.95941-4.11079h2.05209v-2.2337l11.6413-8.4099h3.0918v-.8551l14.83719,3.12869v1.513h2.35779l4.42169,5.42371v1.5788l-16.04669,6.6503v-.51469h-3.1228v3.1221h2.05801l10.81641,18.2406h-.20599v.2393l-35.06421-20.1228v-2.0314h-.21271l3.3761-5.7287.00003-.0002Zm-5.80551-13.9651h.29611v-1.5034l32.11191-6.57491v.09821l-10.04559,8.1795h-2.89389v2.233l-11.6413,8.41h-1.95609l-5.87119-10.8416v-.0007l.00003-.00011Zm17.32281-24.8672h2.30679v-1.39259l22.01028-2.87469-41.31641,26.1322,16.9993-21.86481.00003-.00011Zm33.65231,13.00301v.8669h2.9212l32.98251,26.3913v.06351l-46.32809-9.9525v-1.519h-3.1228v.8544l-14.83719-3.12869v-.7466l10.0463-8.1788h2.89389v-1.5027l15.44421-3.1479-.00003.00009Zm-6.00269,24.1665l-4.42169-5.42371v-.2193l32.58301,14.7523-25.80429-7.48019v-1.629h-2.35709l.00006-.00011Zm-16.81171,11.0668v-1.8084l16.04669-6.651v.51469h.83661l-5.8085,26.1846h-.46521l-10.81641-18.2399h.20682Zm23.48709,91.43039h-2.3844v.65201l-16.38419-5.46359v-1.6925h-3.1228v.65131l-2.94409-.98141v-.22601l21.67279-6.67542v.69409h3.1221v-.90091l9.26581,1.69321v1.20291l-9.22519,11.04611-.00003.00021Zm43.33969-51.8907l-31.7294,37.99049h-2.3844v.90091l-9.26581-1.694v-1.47089h-1.3978l-3.57471-26.827h.98059v-3.1221h-.0834l9.05981-13.6727h2.1525v-3.1228h-3.1228v.2392l-14.79361-8.4897v-2.0314h-.83661l5.8085-26.1846h1.0899l48.09741,45.22859v2.25591l-.00018.00009Zm2.651-19.96629h-.04501l-18.05011-18.65781v-2.6443h-3.1221v.44901l-34.14191-15.4575,44.5994,9.5811v1.51891h1.72791l9.03091,25.2106h.00092Zm2.51291,3.1228v-3.1228h-1.7287l-9.03101-25.2106h.60919v-3.1228h-2.9205l-32.98331-26.39211v-2.3371h-3.1221v1.5027l-15.44421,3.1479v-.8662h-3.1228v1.5034l-31.77081,6.50481,41.05429-25.966v.13741h3.1228v-3.1228h-3.1228v1.3934l-22.06201,2.8813v-.98511h-3.1221v2.9677l-17.02661,21.89951h-2.30759v3.1221h1.98709l5.87119,10.8423h-.29611v3.1228h.21271l-3.3761,5.7287h-2.0528v.24001l-5.13721-2.9485v-2.0314h-3.1221v3.1221h.82999l-3.00101,13.2666h-1.68359v1.5824l-20.69589,5.34621v-.77679h-3.1228v3.1228h2.78391l10.08398,8.83299v2.4375h.56049l-11.24399,29.03419h-1.76999v3.1221h3.1228v-.4445l25.0614,11.40871v1.8667h1.45691l1.14969,6.64439h-.91641v3.1228h2.05951l6.6377,11.17609h-.20529v1.98639l-6.1282,3.31851v-.29611h-3.1228v3.04749l-9.24661,12.4668h-2.26031v3.1228h.9902l-3.27859,25.73581h-1.38751v2.81921l-11.2374,12.78171h-2.44199v3.1225h3.1228v-1.70349l43.73401-14.92371v.63821h3.1228v-3.1225h-.8595l5.80551-27.9426h1.50861v-.3197l6.7374,3.55331v1.96719h3.1221v-2.8548l19.45459-23.29291h2.38361v-.65131l8.48749,2.83041v1.69171h3.1228v-3.1221h-1.1926v-14.6496h1.1926v-2.854l31.7294-37.9913h2.3844v-3.1228h-1.90521l-1.8335-3.7933h.39581v-3.1221h-.319l3.73499-7.0726h1.9679l.00043-.00003Zm-199.8136-41.7912h-.16989v.3271l-6.86441,13.23109h-.3345l-.32709-1.612h.86691v-3.1228h-.33231l9.26721-17.81599h.22821l.27399,2.09419h-.98431v3.1221h.3353l-1.95901,3.77631h-.00009Zm.83221,0l1.17041-2.25591-.5863,2.25591h-.58411Zm-6.69901,14.75011v-1.1918h-.33521l6.0322-11.6273v1.1911h.3353l-6.0322,11.62801h-.00009Zm-2.17169,4.18761l.5863-2.2574h.58411l-1.17041,2.2574Zm-2.74399,1.519v1.16451l-23.9339-.4135v-.7126l2.85699-2.8909h2.58521v-1.5743l19.32239-4.87061v.7872h1.50189l.32791,1.612h-.86691v3.1221h.7731l-.98059,3.77631h-1.58609v-.00021Zm-2.2803-13.8315v.5952h2.14731l1.05521,1.6031h-.09161v1.5743l-19.3224,4.8707v-.161l3.2328-2.9758h2.7123v-1.74049l10.26631-3.76601h.00009Zm-2.0285-2.49809v.01109h2.0285v1.70061l-9.3197,3.4189,7.2912-5.1306Zm-57.78659-70.3942h.4176v-3.1221h-.33279l9.267-17.816h.9828l4.5251,6.8696h-.0945v3.1228h.1174l-11.0542,17.1765h-.89281l-2.93559-6.2308h-.00002Zm-1.25011-5.2162h.9843v-3.1221h-.3354l1.95869-3.7763h.1698v-.3272l6.8644-13.2311h.3345l.3279,1.612h-.8676v3.1228h.33299l-9.2673,17.816h-.228l-.27431-2.0942.00003.0001Zm1.7762-6.8984l-1.1705,2.2559.5864-2.2559h.58411Zm6.6983-14.7501v1.1918h.33521l-6.0322,11.628v-1.1918h-.33521l6.0322-11.628Zm2.17239-4.1861l-.5871,2.2559h-.5834l1.17039-2.2559h.00011Zm41.0085,85.6611l12.3524-16.8147h1.38971l5.26419,7.07339v3.0526h.1174l-11.0535,17.1765h-1.42068l-6.64951-7.73579v-2.75211l-.00002.00011Zm-40.31731-38.2534l-5.26421-7.0734v-3.0527h-.1174l11.0542-17.1765h1.42149l6.64799,7.7358v2.7521l-12.35159,16.8147h-1.3905.00002Zm8.5406,9.3692l-6.27811-6.6842v-2.6258l12.3524-16.8139h1.7767l6.9855,6.7322v2.4073l-13.13589,16.9845h-1.70061v-.00011Zm9.1927,9.6978l-6.67171-7.0283v-2.5232l13.13589-16.9846h1.8557l7.7394,7.3127v2.2514l-14.25681,16.972h-1.80251.00003Zm10.2737,9.841l-7.7394-7.31261v-2.2515l14.25681-16.972h1.80251l6.67171,7.0276v2.5239l-13.13589,16.9846h-1.85573Zm9.66161,9.28571l-6.9855-6.733v-2.40649l13.13589-16.9846h1.70059l6.27811,6.685v2.62511l-12.3524,16.814h-1.7767.00002Zm26.47919-.3988h-.41721v3.1228h.33301l-9.26801,17.81599h-.98141l-1.056-1.6031h.09161v-3.1228h-2.02921v-3.0815h-1.43771v-2.185h-.1174l11.0535-17.1765h.89349l2.93521,6.2309v-.0007l.00012-.00009Zm-35.57071,62.123v.7126l-2.8577,2.89169h-2.5845v1.5743l-19.3231,4.8707v-.7872h-1.502l-.3271-1.612h.8669v-3.1228h-.7739l.9814-3.7756h1.58611v-1.16521l23.9339.4135v.00003Zm-21.6544,14.58321v-.5952h-2.14661l-1.056-1.6039h.0916v-1.57359l19.3231-4.87061v.1602l-3.2328,2.97591h-2.7122v1.7412l-10.26711,3.76601.00002-.00002Zm2.02921,2.49809v-.01109h-2.02921v-1.70061l9.3197-3.4189-7.2905,5.1306Zm42.17741,53.50409h-.2865v2.07281l-15.4597,9.34109v-.1868h-2.5616l-3.3909-3.4935v-2.00409l15.49811-14.14899h1.5957l4.6048,8.41949.00009-.00003Zm-34.79691-37.72031l-12.3517,16.8147h-1.3905l-5.26421-7.07339v-3.05341h-.1174l11.0542-17.1758h1.4207l6.6488,7.7357v2.75211l.00011.00009Zm22.39571,19.18649l5.8026,7.19519v2.2825l-15.49879,14.14969h-2.134l-4.0399-4.26071v-2.39471l14.25681-16.97269h1.61349v.0007l-.0002.00003Zm-10.0847-9.841l7.7394,7.31189v2.2515l-14.25681,16.97269h-1.80321l-6.6709-7.02829v-2.52319l13.13589-16.9845h1.8557l-.00008-.00009Zm-9.66161-9.28571l6.9855,6.733v2.40649l-13.1366,16.9845h-1.69991l-6.27811-6.6842v-2.62509l12.3524-16.8147h1.7767Zm-26.4792.39799h.41721v-3.1221h-.33231l9.2672-17.81599h.9814l1.056,1.6031h-.0916v3.1228h2.0285v3.0815h1.43851v2.185h.1174l-11.0542,17.1765h-.89281l-2.9352-6.2308h-.00011Zm-1.2502-5.2162h.9843v-3.1221h-.336l1.959-3.77631h.1698v-.3271l6.8644-13.23109h.3345l.3279,1.612h-.8669v3.1228h.33231l-9.26649,17.81599h-.2282l-.2747-2.09419h.00009Zm1.77589-6.89841l-1.17039,2.25591.5863-2.25591h.58411-.00002Zm6.6983-14.75011v1.1918h.336l-6.0329,11.62801v-1.1918h-.33521l6.0322-11.62801h-.00009Zm2.17239-4.18761l-.5863,2.2574h-.58479l1.1711-2.2574Zm63.96979-61.2709h.98361v-3.1221h-1.88809l-2.936-6.2301h.41791v-3.1228h-2.26251l-5.26419-7.08v-3.04601h-2.521l-6.2774-6.685v-2.6842h-2.5343l-6.67171-7.0283v-2.6702h-2.6768l-7.73869-7.3119v-2.5284h-2.64951l-6.9855-6.7315v-2.555h-2.41611l-6.6488-7.7358v-2.8112h-2.14729l-4.5229-6.8703h.0916v-3.1228h-1.502l-.3271-1.6112h.8669v-3.1228h-.7739l.9814-3.7763h1.58611v-3.1221h-3.1228v3.1221h.33521l-1.959,3.7763h-.1698v.3271l-6.86369,13.2311h-1.9554v3.1228h.774l-.9817,3.7756h-1.5856v3.1228h1.39349l.27431,2.0934h-.98441v3.1228h1.88879l2.9355,6.2301h-.41789v3.1221h2.2618l5.265,7.0808v3.046h2.521l6.2774,6.6843v2.6849h2.5343l6.67239,7.0283v2.6694h2.6761l7.73869,7.3119v2.52831h2.64951l6.9855,6.73151v2.55499h2.41611l6.64879,7.7365v2.8112h1.43851v1.2708l-8.2379,5.7966v-.0118h-3.1221v2.4966l-3.2328,2.9751h-2.713v2.6162l-2.85699,2.89169h-2.58521v3.1221h3.1228v-1.16451l23.93391.4135v1.2191h.20599l-4.30801,7.2646h-2.05801v.7377l-22.7361-6.3992v-1.6171h-3.1228v2.2603l-1.646,1.22211h-3.0453v3.1221h3.1228v-.1757l19.8112,12.0932v1.2191l-1.6467,1.22211h-3.0453v.7384l-22.7361-6.3999v-1.6171h-3.1228v3.1228h.20599l-4.308,7.2646h-2.058v3.1221h.33521l-1.959,3.77631h-.1691v.3264l-6.8644,13.2319h-1.9554v3.1221h.7739l-.9821,3.77631h-1.58501v3.1221h1.39301l.2747,2.09419h-.98441v3.1221h1.88901l2.9352,6.2301h-.41789v3.1228h2.2625l5.26421,7.07999v3.04599h2.521l6.2774,6.685v2.68491h2.5343l6.67239,7.03201v2.66571h2.5284l4.0444,4.26151v2.6709h2.5616l3.39079,3.4935v2.63989h3.1221v-2.07349l15.45969-9.34039v.1861h3.1228v-3.1221h-1.99451l-4.6041-8.41949h.2858v-3.1228h-2.34381l-5.8033-7.2034v-2.91089h-2.6761l-7.7394-7.3119v-2.5284h-2.64951l-6.9855-6.73151v-2.5549h-2.41611l-6.6488-7.7365v-2.8112h-1.43851v-1.2708l8.2379-5.7959v.01109h3.1221v-2.4966l3.2328-2.9751h2.713v-2.6162l2.85699-2.89169h2.58521v-3.1221h-3.1228v1.16451l-23.9339-.4135v-1.2191h-.20599l4.3087-7.2646h2.0573v-.7377l22.7361,6.3992v1.6171h3.1228v-2.2603l1.646-1.22211h3.0453v-3.1221h-3.1221v.1757l-19.8112-12.0932v-1.2191l1.646-1.22211h3.0453v-.7377l22.73608,6.3992v1.6171h3.1228v-3.1228h-.20599l4.30801-7.2646h2.05801v-3.1221h-.3353l1.95901-3.77631h.16989v-.3264l6.86441-13.2319h1.95459v-3.1221h-.7739l.98209-3.77631h1.58539v-3.1221h-1.3934l-.27399-2.09419-.00006.00015Zm32.89761,109.72791h-1.1918v2.2522l-141.15269,103.9512h-1.12849V16.0772h1.1279l141.15332,103.9512v2.2522h1.1918v141.08881l-.00003.00003ZM170.8588,15.2073v-2.2529h-3.12241v3.1228h1.192v353.49571h-1.192v3.12241h3.12241v-2.25229l141.15268-103.95081h3.05859v-3.1228h-1.1918V122.2805h1.1918v-3.1228h-3.0578L170.8588,15.2073Z"/>
    </g>
  </g>
</svg>