<?xml version="1.0" encoding="UTF-8"?> <svg xmlns="http://www.w3.org/2000/svg" id="Layer_1" data-name="Layer 1" viewBox="0 0 200 300"><defs><style> .cls-1 { fill: #fff; } .cls-2 { fill: #0867e8; } .cls-3 { fill: #cdb78d; } </style></defs><rect class="cls-3" x="133.35401" y="166.70801" width="66.64599" height="66.646"></rect><rect class="cls-3" x="66.70839" y="233.354" width="66.646" height="66.646"></rect><path class="cls-1" d="m173.84135,86.75636l-.00047-.12126-.16985-.08376.11524-.11524-4.11505-8.73508-7.11284-9.56677-.00832-.01157-.00741-.01251-8.3287-8.86836-8.71979-9.18541-9.86123-9.3173-9.10982-8.77858-8.5896-9.99258-.00968-.01112-.0081-.01248-6.19652-9.41265-.02462-.0375-.00888-.04396-.89157-4.38675-.01064-.05228.01347-.05186,1.68448-6.48014h-.00047l-10.04914,19.37053-1.69804,6.53245.64686,4.93845.00611.01387,4.16662,8.84384,7.11255,9.56632.00768.01065.00653.0111,8.33119,8.87207,8.65186,9.11364h.00157l.06448.06989.01005.00973,9.85188,9.30804,9.11042,8.77905,8.58927,9.99211.00972.01159.00832.01204,1.23023,1.86938.1231.18743-.18328.12913-10.5739,7.44054-5.62945,5.18096-5.15366,5.2152,25.22261.43646.39757.00695.00047-.00047,10.04952-19.371,1.69859-6.53242-.62112-4.74036h-.02823Zm-58.50855,56.38893l25.22292.43645-5.15375,5.21476-5.62973,5.18188-10.57377,7.44053-.18347.12912.12335.18746,1.23031,1.86893.0081.01248.00968.01111,8.5896,9.99212,9.11001,8.77918,9.86115,9.31725.0023.00274,7.71312,9.57465,5.97797,10.92954-17.59695,10.6319-5.63684-5.80792-14.94135-15.7477-8.33124-8.8717-.00685-.01194-.00824-.01102-7.11255-9.56664-4.15523-8.81939-.00015-.1805h-.00903v-.02593h-.00518v-.02313h-.02842l-.62177-4.74683,1.69805-6.53289,9.98485-19.24603h.09085v-.1245l.37231.00648-.00004-.00046Z"></path><path class="cls-2" d="m171.6077,96.55086h-.29343v.56606l-6.36721,12.27249h-.57067l-.3101-1.52641h.94187v-2.95658h-.44895l8.77626-16.87077h.4684l.25964,1.98278h-1.05109v2.95658h.45034l-1.85505,3.57584Zm1.3302,0h-.80858l1.61992-3.12319-.81134,3.12319Zm-7.01842,14.22429v-1.38574h-.45126l5.84604-11.26769v1.38574h.4508l-5.84559,11.26769Zm-2.43543,4.69405l.81135-3.12273h.80856l-1.61991,3.12273Zm-2.21975.45266v1.22142l-22.66406-.39157v-.96083l2.53957-2.57012h2.61363v-1.61251l18.29814-4.61213v.86733h1.54216l.31056,1.52644h-.94187v2.95659h.85485l-.92937,3.57539h-1.62362Zm-2.15912-13.22363v.6896h2.17439l.99971,1.51858h-.2277v1.61205l-18.29814,4.6126v-.43507l2.88716-2.65666h2.74275v-1.77452l9.72183-3.56658Zm-1.92123-2.38358v.15504h1.92123v1.73562l-9.62787,3.53237,7.70664-5.42303Zm-50.24826-57.658h.09608v-2.95707h-.25182l10.46768-16.26446h1.64172l6.14033,7.14433v2.84318h.10529l-11.65556,15.86641h-1.60996l-4.93381-6.63238h.00004Zm-4.60256-8.85634h.526v-2.95705h-.44844l8.77576-16.87077h1.20476l4.28413,6.5056h-.22999v2.95703h.25192l-10.46772,16.26446h-1.11706l-2.77936-5.89927Zm-1.17232-4.93983h1.05128v-2.95658h-.45057l1.85499-3.57587h.29371v-.56604l6.36706-12.27249h.57049l.31024,1.52641h-.94182v2.95658h.44853l-8.77575,16.87124h-.4684l-.25974-1.98325h-.00004Zm1.12585-6.53245h.80848l-1.62034,3.12321.81187-3.12321Zm7.01832-14.2238v1.38527h.45089l-5.84563,11.26769v-1.38574h-.45071l5.8455-11.26722h-.00004Zm2.43558-4.69455l-.81185,3.12276h-.80843l1.62029-3.12276Zm8.20105,54.75142l-5.78237-6.15709v-2.71498h-.10543l11.65554-15.86594h1.99898l6.44496,6.2117v2.58169h.04231l-12.33217,15.94463h-1.92188.00006Zm8.7042,9.18354l-6.15492-6.48383v-2.6997h-.04248l12.3323-15.94463h2.07882l7.15634,6.76154v2.47846l-13.34633,15.88771h-2.02379l.00006.00045Zm9.71933,9.31826l-7.15662-6.76156v-2.47893l13.34609-15.88769h2.02398l6.15476,6.48383v2.6997h.04257l-12.3322,15.94465h-2.07858Zm9.15069,8.79336l-6.4445-6.2117v-2.58167h-.0426l12.33223-15.94465h1.92169l5.78264,6.15711v2.71496h.10506l-11.65509,15.86594h-1.99943Zm20.77291-9.23401h-.09628v2.95707h.25179l-10.467,16.26489h-1.64166l-6.14089-7.14431v-2.84365h-.10506l11.65556-15.86594h1.61019l4.93336,6.63194Zm4.60242,8.85681h-.52578v2.95658h.44849l-8.77626,16.87077h-1.20429l-.99926-1.51809h.22817v-2.95707h-1.92123v-2.91864h-1.36212v-2.0684h-.25178l10.46791-16.26489h1.11681l2.77933,5.89974Zm-33.81374,58.70863v.96085l-2.54002,2.5701h-2.61367v1.61205l-18.29777,4.61215v-.8669h-1.54262l-.31025-1.52641h.94164v-2.95658h-.85485l.92942-3.57587h1.62358v-1.22141l22.66411.39202h.00045Zm-20.50534,14.05303v-.68962h-2.17449l-.99948-1.51856h.22789v-1.61251l18.29777-4.61168v.4346l-2.88692,2.65713h-2.74299v1.77404l-9.72178,3.5666Zm1.92132,2.38406v-.15506h-1.92132v-1.73656l9.62847-3.53188-7.7072,5.4235h.00004Zm40.07481,50.52049h-.40638v2.1009l-14.6399,8.84517v-.31468h-2.59048l-3.0459-3.13811v-2.22761l14.50105-13.23835h1.82126l4.36036,7.97268Zm-11.72637-17.55053l5.3425,6.62798v2.50773l-14.50105,13.23857h-2.35906l-3.66274-3.86323v-2.6232l13.34661-15.8878h1.83374v-.00004Zm-9.52928-9.31842l7.15634,6.76145v2.47847l-13.34615,15.88812h-2.0243l-6.15462-6.4837v-2.69962h-.0424l12.33207-15.94476h2.07905v.00004Zm-9.15121-8.79365l6.44502,6.21169v2.58201h.04212l-12.33194,15.94477h-1.92179l-5.7826-6.1575v-2.71461h-.10515l11.65522-15.86636h1.99916-.00004Zm-20.77254,9.234h.09604v-2.95659h-.2516l10.4675-16.26491h1.64157l6.14042,7.14431v2.8432h.10525l-11.65504,15.86631h-1.61048l-4.93367-6.63227v-.00004Zm-4.60256-8.85633h.52593v-2.95658h-.44854l8.77589-16.87123h1.20439l.99954,1.51856h-.22817v2.95658h1.92132v2.91863h1.36184v2.06887h.25182l-10.4674,16.26491h-1.11715l-2.77946-5.89974Zm-1.1725-4.93983h1.05133v-2.95658h-.45052l1.85499-3.5754h.29371v-.56651l6.36693-12.27249h.57058l.3102,1.52641h-.94174v2.95659h.44853l-8.77575,16.87123h-.46843l-.25979-1.98325h-.00006Zm1.12594-6.53198h.80848l-1.62038,3.12321.81194-3.12321h-.00004Zm7.01833-14.22427v1.38527h.45098l-5.84578,11.26769v-1.38571h-.45062l5.84536-11.26724h.00006Zm2.43548-4.69452l-.81177,3.12321h-.80843l1.6202-3.12321Zm61.77551-52.09474v-2.95658h-1.43849l-.25965-1.98278h1.05111v-2.95705h-1.91938l-2.77933-5.89927h.52625v-2.95707h-2.28918l-4.93103-6.63194h.09257v-2.95703h-2.54928l-5.78218-6.15756v-2.71451h-2.56319l-6.15429-6.48338v-2.6997h-2.70619l-7.15681-6.76201v-2.5567h-2.67883l-6.44455-6.21031v-2.58308h-2.444l-6.14023-7.14431v-2.84365h-2.17458l-4.2827-6.5056h.22804v-2.95658h-1.54268l-.31019-1.52641h.94164v-2.95705h-.85485l.92942-3.5754h1.62358V0h-2.95677v2.95705h.45061l-1.85498,3.5754h-.29381v.56651l-6.36688,12.27249h-1.98463v2.95705h.85504l-.92947,3.5754h-1.62372v2.95658h1.43877l.2597,1.98278h-1.05137v2.95705h1.91924l2.77945,5.89974h-.52605v2.9566h2.28898l4.93109,6.63238h-.09271v2.95658h2.54934l5.78233,6.15756v2.71451h2.56257l6.15504,6.48383v2.6997h2.70619l7.15634,6.76156v2.5567h2.67887l6.44497,6.21031v2.58308h2.44376l6.14042,7.14431v2.84365h1.36165v1.34777l-7.80061,5.48921v-.15551h-2.95658v2.52475l-2.88669,2.65668h-2.74322v2.64555l-2.53957,2.57012h-2.61386v2.95658h2.95682v-1.22142l22.66452.39156v1.2728h.33231l-4.07987,6.87909h-2.086v.82199l-21.53001-6.06034v-1.65371h-2.95677v2.28733l-1.4857,1.10247v-.09257h-2.95682v2.95658h2.95682v-.30501l18.76014,11.45144v1.44035l-1.4857,1.10246v-.09257h-2.95704v.82199l-21.52984-6.06034v-1.65417h-2.95677v2.95705h.33251l-4.07983,6.87909h-2.086v2.95658h.45071l-1.85499,3.57586h-.2938v.56651l-6.36688,12.27251h-1.98469v2.95658h.85504l-.92947,3.57539h-1.62371v2.95704h1.43871l.25974,1.98278h-1.05133v2.95658h1.91928l2.77955,5.89975h-.52615v2.95682h2.28923l4.93099,6.63227h-.09284v2.95682h2.54924l5.78246,6.15763v2.71448h2.56207l6.15555,6.48792v2.69536h2.55729l3.66675,3.86462v2.69998h2.59048l3.04638,3.13857v2.66911h2.95658v-2.10136l14.63943-8.84494v.31491h2.95705v-2.95682h-2.02304l-4.36036-7.97268h.4059v-2.95682h-2.37202l-5.34342-6.63274v-2.94506h-2.70619l-7.15633-6.76163v-2.5566h-2.6789l-6.44477-6.21077v-2.58308h-2.44381l-6.14046-7.14384v-2.84367h-1.36184v-1.34777l7.80051-5.48874v.15504h2.95677v-2.52475l2.88669-2.65713h2.74323v-2.6451l2.53956-2.57011h2.61408v-2.95658h-2.95705v1.22141l-22.66423-.39202v-1.27233h-.33255l4.07975-6.87909h2.08613v-.822l21.53006,6.06035v1.65371h2.95659v-2.28734l1.4857-1.10293v.09303h2.95705v-2.95705h-2.95705v.30547l-18.75992-11.45144v-1.44034l1.4857-1.10293v.09302h2.95677v-.82199l21.53025,6.06035v1.6537h2.95659v-2.95658h-.33278l4.07942-6.87956h2.08645v-2.95658h-.4508l1.85504-3.57539h.2939v-.56698l6.36675-12.27203h1.98509v-2.95705h-.85485l.92938-3.5754h1.62362-.00047Z"></path><path class="cls-2" d="m14.90158,56.17561v-.44614h.81049v-3.07868h-.81049v-.44616h2.12147v.44616h-.81049v3.07868h.81049v.44614h-2.12147Zm5.23301-.25545c.22123-.20736.33184-.48413.33184-.83217,0-.27584-.07433-.51371-.22308-.71274-.14505-.20364-.34989-.34156-.61462-.41376l-.62018-.17401c-.14144-.03982-.25205-.11109-.33184-.21197-.07609-.10554-.11422-.23048-.11422-.37581,0-.18142.05989-.32768.17957-.4406.11969-.1157.27556-.17401.46782-.17401.19216,0,.34989.0583.47319.17401.1233.11293.18494.25918.18494.4406h.48957c0-.20642-.04887-.38784-.14681-.54334-.09793-.16016-.23391-.28325-.40802-.37026-.17041-.09073-.36803-.13609-.59287-.13609-.22123,0-.41709.04536-.5875.13609-.1705.087-.30287.2101-.3971.37026-.09432.15921-.14144.34433-.14144.55446,0,.25362.07072.47484.21216.66368.14505.18513.34267.31378.59287.38598l.60389.16847c.15949.0435.28102.1259.36442.24529.08701.1157.13052.25362.13052.41376,0,.21012-.06702.38045-.20123.51095-.13422.13053-.3137.19532-.53854.19532-.23206,0-.41885-.06108-.56029-.1842-.14144-.12682-.21216-.30176-.21216-.52207h-.48957c0,.35453.11422.63407.34267.83771.22854.20273.53493.30454.91935.30454.36989,0,.66544-.10366.88667-.31008Zm2.15961-2.44277c.05794-.22863.1033-.42024.13598-.57667.03258-.1555.05258-.25733.0598-.30454.00731.04721.02721.14904.05989.30454.03258.15643.07794.34989.13598.58223l.30463,1.22369h-1.00089l.30463-1.22925Zm-.66368,2.69823l.26112-1.05522h1.20213l.26112,1.05522h.49503l-1.02811-3.97098h-.65822l-1.03357,3.97098h.50049Zm9.65201,0v-.44614h-1.80055v-1.41438h1.61015v-.43505h-1.61015v-1.22925h1.80055v-.44616h-2.28466v3.97098h2.28466Zm3.42709,0v-.44614h-1.79519v-3.52484h-.48957v3.97098h2.28476Zm1.70799-2.69823c.05804-.22863.10339-.42024.13607-.57667.03258-.1555.05258-.25733.0598-.30454.00722.04721.02721.14904.0598.30454.03267.15643.07803.34989.13607.58223l.30463,1.22369h-1.00099l.30463-1.22925Zm-.66359,2.69823l.26112-1.05522h1.20213l.26112,1.05522h.49503l-1.02811-3.97098h-.65822l-1.03357,3.97098h.50049Zm5.18404,0v-.44614h-.81049v-3.07868h.81049v-.44616h-2.12147v.44616h.81049v3.07868h-.81049v.44614h2.12147Zm1.53397,0v-2.23078c0-.13421-.00361-.27306-.01083-.41839-.00361-.14904-.00907-.28881-.01638-.41932-.00722-.13421-.01444-.24436-.02175-.33139l1.20768,3.39987h.65276v-3.97098h-.47328v2.22987c0,.13051.00185.27028.00546.41932.00722.14531.01444.28415.02175.41839.01083.13051.0199.24158.02721.33229l-1.21305-3.39987h-.65285v3.97098h.47328Zm5.12971,0v-.44614h-1.80055v-1.41438h1.61015v-.43505h-1.61015v-1.22925h1.80055v-.44616h-2.28475v3.97098h2.28475Zm5.77349,0v-1.7624h1.70808v-.44616h-1.719v-1.31626h1.86044v-.44616h-2.33909v3.97098h.48957Zm3.39978-.56555c-.11598-.12404-.17402-.29805-.17402-.52207v-1.79573c0-.22492.05804-.3971.17402-.51651.11608-.12309.27927-.18513.48957-.18513.21401,0,.3772.06203.48957.18513.11608.11941.17411.29159.17411.51651v1.79573c0,.22402-.05803.39803-.17411.52207-.11237.11941-.27556.17957-.48957.17957-.2103,0-.37349-.06016-.48957-.17957Zm1.33274.3101c.2067-.20736.31009-.50264.31009-.88677v-1.69207c0-.38045-.10339-.67479-.31009-.88121-.20669-.20642-.48772-.3101-.84317-.3101-.35535,0-.63638.10368-.84317.3101-.20669.20642-.31.50262-.31.88677v1.68651c0,.38413.1033.6794.31.88677.20679.20642.48781.31008.84317.31008.35545,0,.63647-.10366.84317-.31008Zm3.26927.00554c.19586-.20364.29379-.48318.29379-.83771v-2.88336h-.48957v2.88336c0,.21753-.05442.38971-.16319.51651-.10885.12682-.27204.18976-.48957.18976-.22122,0-.38627-.06294-.49503-.18976-.10515-.1268-.15773-.29898-.15773-.51651v-2.88336h-.48957v2.88336c0,.35175.09784.63037.29371.83771.19586.20273.47874.30454.84862.30454.3735,0,.65637-.10181.84854-.30454Zm1.74622.24992v-2.23078c0-.13421-.00371-.27306-.01093-.41839-.00361-.14904-.00907-.28881-.01629-.41932-.00732-.13421-.01453-.24436-.02175-.33139l1.20758,3.39987h.65276v-3.97098h-.47328v2.22987c0,.13051.00185.27028.00546.41932.00722.14531.01454.28415.02176.41839.01092.13051.01999.24158.02721.33229l-1.21305-3.39987h-.65276v3.97098h.47328Zm3.29101-3.53594h.53854c.23927,0,.42607.06664.56029.20088.13773.13421.20669.31934.20669.55538v1.58283c0,.23975-.06896.4258-.20669.56002-.13422.13421-.32101.20178-.56029.20178h-.53854v-3.10089Zm.53854,3.53594c.25742,0,.47864-.04904.66359-.14716.18856-.09812.3337-.23512.43524-.41283.10515-.18142.15773-.39432.15773-.63685v-1.58283c0-.24345-.05258-.45358-.15773-.63129-.10154-.17772-.24668-.31563-.43524-.41283-.18494-.09812-.40617-.14718-.66359-.14718h-1.02811v3.97098h1.02811Zm3.08312-2.69823c.05804-.22863.1033-.42024.13598-.57667.03267-.1555.05258-.25733.0598-.30454.00731.04721.02721.14904.05989.30454.03268.15643.07794.34989.13598.58223l.30462,1.22369h-1.00089l.30463-1.22925Zm-.66368,2.69823l.26112-1.05522h1.20222l.26103,1.05522h.49503l-1.02811-3.97098h-.65822l-1.03347,3.97098h.5004Zm4.06369,0v-3.52482h1.088v-.44616h-2.66547v.44616h1.08791v3.52482h.48956Zm4.07985,0v-.44614h-.81058v-3.07868h.81058v-.44616h-2.12157v.44616h.81058v3.07868h-.81058v.44614h2.12157Zm1.71345-.56555c-.11598-.12404-.17402-.29805-.17402-.52207v-1.79573c0-.22492.05804-.3971.17402-.51651.11607-.12309.27926-.18513.48957-.18513.21401,0,.3772.06203.48957.18513.11607.11941.17411.29159.17411.51651v1.79573c0,.22402-.05804.39803-.17411.52207-.11237.11941-.27556.17957-.48957.17957-.21031,0-.3735-.06016-.48957-.17957Zm1.33274.3101c.20669-.20736.31009-.50264.31009-.88677v-1.69207c0-.38045-.10339-.67479-.31009-.88121-.2067-.20642-.48772-.3101-.84317-.3101-.35535,0-.63638.10368-.84317.3101-.20669.20642-.31.50262-.31.88677v1.68651c0,.38413.1033.6794.31.88677.20679.20642.48781.31008.84317.31008.35544,0,.63647-.10366.84317-.31008Zm1.75158.25545v-2.23078c0-.13421-.00361-.27306-.01083-.41839-.00361-.14904-.00907-.28881-.01638-.41932-.00722-.13421-.01444-.24436-.02175-.33139l1.20768,3.39987h.65276v-3.97098h-.47328v2.22987c0,.13051.00185.27028.00546.41932.00722.14531.01444.28415.02176.41839.01082.13051.0199.24158.02721.33229l-1.21305-3.39987h-.65285v3.97098h.47328Z"></path></svg> 