<?xml version="1.0" encoding="UTF-8"?>
<svg id="Layer_1" data-name="Layer 1" xmlns="http://www.w3.org/2000/svg" viewBox="0 0 200 420">
  <defs>
    <style>
      .cls-1 {
        fill: #fff;
      }

      .cls-2 {
        fill: #0867e8;
      }

      .cls-3 {
        fill: #cdb78d;
      }
    </style>
  </defs>
  <rect class="cls-3" y="320" width="100" height="100"/>
  <rect class="cls-3" x="100" y="220" width="100" height="100"/>
  <path class="cls-1" d="m153.21799,119.91601v-.14909l-.22144-.10924.14761-.14762-5.30536-11.23959-9.10223-12.30688-10.72247-11.38571-11.20166-11.8286-12.71325-12.01161-11.71743-11.27648-11.05476-12.86044-7.9585-12.08545-.03735-.0369v-.07381l-1.14197-5.63898v-.14614l2.17337-8.32708-12.9332,24.90896-2.17426,8.40089.84791,6.33872,5.34257,11.38571,9.13884,12.30688,10.72233,11.42262,11.12873,11.71785.07292.07381,12.6759,11.97622,11.71831,11.27502,11.05374,12.86044,1.58453,2.39435.1479.25833-.22083.18452-13.59777,9.58037-7.22189,6.67082-6.63229,6.70479,32.42563.55357h.51666l12.9326-24.90897,2.17442-8.40239-.84586-6.07887s-.00148,0-.00148,0Zm-75.20706,72.48014l32.42667.55209-6.63229,6.70625-7.22292,6.66936-13.59675,9.58037-.22083.18452.14688.25833,1.58453,2.39583,11.05477,12.85895,11.71742,11.27649,12.67576,11.9762,9.9128,12.30687,7.7012,14.03812-22.62517,13.67068-7.25938-7.48022-19.19764-20.22861-10.72233-11.4241-9.13884-12.30685-5.34257-11.3503v-.29376h-.07395l-.81042-6.11726,2.17323-8.40091,12.82367-24.76134h.11042v-.1107h.51577-.00004Z"/>
  <path class="cls-2" d="m150.38077,132.47972h-.36903v.73808l-8.17992,15.77144h-.7366l-.40521-1.95299h1.21577v-3.79671h-.58958l11.27589-21.70271h.58899l.33214,2.54197h-1.36398v3.83216h.58899l-2.35745,4.56876Zm1.69464,0h-1.03036l2.09911-4.01518-1.06876,4.0152.00002-.00002Zm-9.02679,18.31488v-1.76845h-.58974l7.51741-14.48126v1.76845h.58899l-7.51666,14.48126Zm-3.13274,6.00656l1.0314-4.01666h1.03244l-2.06384,4.01666Zm-2.83691.58899v1.5854l-29.1469-.51814v-1.25179l3.27961-3.31548h3.35254v-2.02826l23.5097-5.93127v1.10565h1.98988l.40535,1.95299h-1.21593v3.79526h1.10536l-1.17932,4.60567h-2.1003v-.00003Zm-2.80045-16.98634v.88277h2.80045l1.28973,1.95299h-.29478v2.06517l-23.50969,5.93126v-.55209l3.72247-3.42767h3.53691v-2.28511l12.45493-4.56729-.00002-.00002Zm-2.46904-3.05862v.18452h2.46904v2.24673l-12.38096,4.53334,9.91192-6.9646ZM67.21462,63.20583h.11042v-3.79524h-.33125l13.44883-20.9292h2.1003l7.88556,9.17441v3.64766h.14791l-14.99704,20.41398h-2.06384l-6.3009-8.51161h.00002Zm-5.93304-11.3857h.66354v-3.79527h-.58958l11.27561-21.70415h1.54806l5.5634,8.36547h-.29494v3.79524h.33228l-13.44986,20.9292h-1.43662l-3.6119-7.59047v-.00002Zm-1.51071-6.37562h1.36369v-3.79524h-.58958l2.39509-4.60566h.36875v-.73661l8.18036-15.77145h.73661l.40536,1.95298h-1.21592v3.79527h.58973l-11.27561,21.70415h-.58973s-.36875-2.54344-.36875-2.54344Zm1.47411-8.40089h1.03155l-2.10045,4.01666s1.0689-4.01666,1.0689-4.01666Zm9.02842-18.27652v1.76845h.5887l-7.55329,14.51818v-1.76845h-.58958s7.55417-14.51818,7.55417-14.51818Zm3.1317-6.04345l-1.0314,4.01666h-1.0689l2.1003-4.01666Zm10.53899,70.41793l-7.44375-7.92409v-3.50004h-.14791l14.99808-20.41398h2.57843l8.29182,7.99642v3.31548h.03646l-15.84496,20.48782s-2.46817.03838-2.46816.03838Zm11.1643,11.79018l-7.92203-8.32708v-3.4631h-.03662l15.84407-20.48782h2.69003l9.21265,8.69613v3.1679l-17.17115,20.41398h-2.61696v-.00002Zm12.52888,11.97622l-9.21191-8.69613v-3.16938l17.1713-20.41398h2.61607l7.92204,8.32856v3.4631h.03735l-15.84496,20.48782h-2.6899Zm11.75477,11.31193l-8.29078-7.99644v-3.31548h-.0375l15.84496-20.48782h2.46919l7.44272,7.92261v3.50004h.1479l-14.99704,20.414s-2.57947-.0369-2.57946-.03691Zm26.7143-11.86549h-.11041v3.79524h.33229l-13.48737,20.93066h-2.1003l-7.88542-9.1759v-3.64762h-.14703l14.99704-20.414h2.06384s6.33736,8.51161,6.33736,8.51162Zm5.89523,11.38573h-.6628v3.79524h.59047l-11.27576,21.70419h-1.54822l-1.28973-1.95297h.29478v-3.79526h-2.468v-3.75833h-1.76904v-2.65268h-.33125l13.44882-20.93067h1.43839l3.57233,7.59049.00002-.00002Zm-43.47995,75.50334v1.25179l-3.27962,3.31696h-3.35357v2.06369l-23.50865,5.93275v-1.10565h-1.98988l-.40521-1.95297h1.21577v-3.79526h-1.10536l1.17932-4.60567h2.1003v-1.5854s29.14691.47977,29.1469.47977Zm-26.34646,18.05507v-.88423h-2.80045l-1.28973-1.95297h.29479v-2.06221l23.50865-5.9342v.55357l-3.72143,3.42619h-3.53692v2.28511l-12.45492,4.56876v-.00002Zm2.46905,3.05865v-.18304h-2.46905v-2.24823l12.38097-4.53185s-9.91192,6.96312-9.91193,6.96312Zm51.51373,64.96346h-.51562v2.68988l-18.82993,11.38617v-.40536h-3.31608l-3.90581-4.05371v-2.87338l18.64451-17.02368h2.35863l5.56429,10.28009h.00002Zm-15.07085-22.55151l6.85314,8.51309v3.24167l-18.64452,17.02472h-3.02232l-4.71622-4.9747v-3.39001l17.17114-20.41473h2.35878v-.00003Zm-12.23408-12.01163l9.21176,8.69614v3.16934l-17.1713,20.41296h-2.61593l-7.92203-8.32755v-3.4631h-.0375l15.84496-20.48782h2.69003v.00003Zm-11.79139-11.27649l8.29078,7.99644v3.31696h.0375l-15.84496,20.48781h-2.46919l-7.44272-7.92264v-3.50148h-.14791l14.99704-20.41254h2.57947v.03545Zm-26.67785,11.86549h.11042v-3.79524h-.33125l13.44883-20.9292h2.1003l7.88557,9.17442v3.64909h.14791l-14.99704,20.41254h-2.06384l-6.30089-8.51163v.00002Zm-5.93304-11.38573h.66354v-3.79524h-.58973l11.27561-21.70419h1.54821l1.2887,1.95299h-.29479v3.79526h2.46905v3.75981h1.76905v2.65268h.3314l-13.44986,20.9292h-1.43676l-3.57441-7.59048v-.00002Zm-1.51073-6.37411h1.36369v-3.79672h-.58958l2.39509-4.60567h.36875v-.7366l8.18037-15.76996h.73661l.40521,1.95151h-1.21578v3.79524h.58973l-11.27561,21.70419h-.58973l-.36875-2.54198v-.00002Zm1.43764-8.40239h1.0314l-2.1003,4.01666,1.0689-4.01666Zm9.02739-18.2765v1.76845h.58973l-7.51682,14.48126v-1.76845h-.58958l7.51667-14.48126Zm3.13171-6.04346l-1.03141,4.01666h-1.0314l2.06384-4.01666h-.00103Zm79.44458-66.95333v-3.79526h-1.84225l-.33067-2.54197h1.36252v-3.79524h-2.46819l-3.57381-7.59049h.6628v-3.79524h-2.94777l-6.33839-8.51164h.11041v-3.87052h-3.27873l-7.44376-7.88423v-3.50148h-3.27962l-7.92203-8.32856v-3.50004h-3.46399l-9.21177-8.69613v-3.28005h-3.42753l-8.29078-7.99494v-3.31699h-3.13185l-7.88543-9.17441v-3.64762h-2.80045l-5.49033-8.36547h.29479v-3.79527h-1.98988l-.40521-1.95298h1.21578v-3.83214h-1.10536l1.17932-4.60566h2.1003v-3.79671h-3.79539v3.79524h.58973l-2.39524,4.60713h-.36875v.73661l-8.18037,15.77145h-2.61607v3.79524h1.1055l-1.17931,4.60566h-2.10045v3.79524h1.843l.33126,2.54344h-1.36369v3.79527h2.46919l3.57441,7.59047h-.66354v3.79524h2.94821l6.33751,8.51161h-.11056v3.79527h3.27977l7.44375,7.92261v3.5h3.27859l7.92306,8.32856v3.46313h3.46399l9.21177,8.6976v3.27858h3.42664l8.29078,7.99644v3.31548h3.13259l7.88557,9.1759v3.64761h1.76802v1.73303l-10.02234,7.11073v-.18452h-3.79539v3.24167l-3.72128,3.42767h-3.53794v3.39078l-3.27977,3.31548h-3.35254v3.79524h3.79539v-1.58392l29.1469.51518v1.62083h.44183l-5.23216,8.84525h-2.68988v1.06876l-27.6728-7.77501v-2.13898h-3.79539v2.94939l-1.91695,1.39943v-.1107h-3.79525v3.79671h3.79525v-.40594l24.13588,14.73811v1.84373l-1.91593,1.39941v-.10924h-3.79539v1.06876l-27.6728-7.77499v-2.13898h-3.83274v3.79524h.4427l-5.23303,8.84525h-2.689v3.79524h.58869l-2.39509,4.60567h-.36786v.7366l-8.18036,15.77145h-2.543v3.79524h1.10536l-1.17843,4.60567h-2.1003v3.79526h1.84197l.3314,2.54344h-1.36281v3.79524h2.46816l3.57441,7.59048h-.66266v3.79524h2.94733l6.3384,8.51163h-.11042v3.79523h3.27962l7.44287,7.92264v3.50146h3.27961l7.92204,8.32666v3.46399h3.27961l4.71727,4.9747v3.4631h3.31622l3.90566,4.05371v3.42648h3.79539v-2.65253l18.8289-11.38602v.40536h3.79539v-3.79538h-2.61607l-5.60091-10.24466h.51578v-3.79523h-3.05774l-6.85417-8.51163v-3.79524h-3.46399l-9.21177-8.69614v-3.28004h-3.42664l-8.29078-7.99496v-3.31696h-3.13273l-7.92204-9.21281v-3.64761h-1.76889v-1.73155l10.02233-7.07532v.18452h3.79539v-3.24167l3.72232-3.42767h3.53706v-3.39078l3.27961-3.31548h3.35357v-3.79524h-3.83288v1.58392l-29.14691-.51518v-1.62083h-.44182l5.23215-8.84525h2.68989v-1.03036l27.67279,7.77499v2.13605h3.79539v-2.94646l1.91682-1.40089v.1107h3.79539v-3.79524h-3.79539v.40446l-24.13574-14.73959v-1.84077l1.91593-1.40089v.1107h3.86934v-1.06877l27.6728,7.77501v2.13602h3.79526v-3.79524h-.44167l5.23199-8.84229h2.69003v-3.83362h-.58974l2.39523-4.60567h.36874v-.7366l8.18051-15.76997h2.54198v-3.79671h-1.10565l1.17946-4.60566,2.17442.0369h-.00148l-.00002.00002ZM0,88.11479v-.36757h.84704v-2.76487h-.84704v-.36757h2.17427v.36757h-.848v2.76487h.848v.36757H0Zm3.27964-.10924c-.22089-.11071-.36878-.25833-.51572-.44285l.33133-.29523c.14692.18452.29482.29523.44176.36904.1479.07381.33229.11071.51572.11071.22184,0,.40623-.07381.55317-.18452.11045-.11071.18439-.25833.18439-.47976,0-.14614-.03745-.29523-.1479-.36757-.11043-.07381-.25737-.14762-.47921-.18452l-.36782-.07381c-.33229-.0369-.55318-.14762-.70011-.33066-.1479-.18452-.22089-.36904-.22089-.62737,0-.33214.11045-.55209.33133-.73661s.51572-.25833.88449-.25833c.25739,0,.51572.0369.70011.14762.18439.07381.36782.22143.47922.40447l-.33229.29523c-.11045-.14614-.22088-.21995-.36782-.29523-.1479-.07381-.29484-.10924-.47923-.10924-.22088,0-.40527.0369-.51572.14762-.11139.11071-.18439.21995-.18439.44137,0,.14762.03649.29523.14694.36904.11045.07233.25835.14614.47923.18452l.36878.07233c.33133.03838.55221.14762.7001.33214.14694.18452.22088.36757.22088.6259,0,.22143-.03649.40595-.1479.55357-.11045.14762-.22088.29376-.40527.36757s-.40527.11071-.66265.11071c-.36878,0-.62711-.0369-.81054-.14614v-.00002Zm4.6424.10924l-.29484-.95804h-1.17933l-.29482.95804h-.47827l1.03143-3.5h.62615l1.06888,3.5s-.47921,0-.4792,0Zm-.84704-3.02172h-.03745l-.47827,1.62231h.95748l-.44176-1.62231m5.23205,3.02172v-3.5h2.17427v.40595h-1.69505v1.10565h1.62109v.40447h-1.62109v1.17946h1.69505v.40447s-2.17427,0-2.17427,0Zm3.16921,0v-3.5h.47917v3.09553h1.62113v.40447h-2.1003Zm4.53185,0l-.29479-.95804h-1.17932l-.29479.95804h-.47828l1.0314-3.5h.62619l1.0689,3.5h-.47931Zm-.84703-3.02172h-.03735l-.47828,1.62231h.95745l-.44182-1.62231m1.76816,3.02172v-.36757h.84791v-2.76487h-.84791v-.36757h2.17426v.36757h-.84718v2.76487h.84718v.36757h-2.17426Zm3.39003-2.87411l-.03646,2.87411h-.44182v-3.5h.66265l1.14285,2.8372h.03646v-2.8372h.44182v3.5h-.66265l-1.14285-2.87411Zm2.61696,2.87411v-3.5h2.17322v.40595h-1.69494v1.10565h1.62202v.40447h-1.62202v1.17946h1.69494v.40447s-2.17322,0-2.17322,0Zm6.33736,0v-3.5h2.21086v.40595h-1.73155v1.10565h1.58453v.40447h-1.58453v1.58393s-.47931,0-.47931,0Zm2.98482-.40447c-.22084-.29523-.29479-.77351-.29479-1.36398,0-.58899.11042-1.03184.29479-1.36398.22098-.29376.51578-.47828.95848-.47828.44182,0,.73661.14762.95745.47828.22098.29523.29479.77499.29479,1.36398,0,.59047-.11042,1.03184-.29479,1.36398-.22084.29523-.51562.47976-.95745.47976-.4427-.03838-.7375-.18452-.95848-.47976m1.51072-.25833c.11042-.18452.18437-.47976.18437-.81042v-.59047c0-.36757-.07395-.6259-.18437-.81042-.11042-.18452-.29479-.29376-.55224-.29376-.25833,0-.4427.10924-.55312.29376s-.18438.47976-.18438.81042v.59047c0,.36904.07396.6259.18438.81042s.29479.29523.55312.29523c.25744,0,.44182-.07381.55224-.29523m1.80551-2.8372v2.1375c0,.25833,0,.44285.03735.58899.03661.14762.07307.25833.18349.33214.11145.07381.22187.10924.44271.10924.18437,0,.3314-.03543.44182-.10924.11042-.07381.14791-.18452.18437-.33214.03646-.14614.03646-.33066.03646-.58899v-2.1375h.47917v2.02678c0,.36904-.03646.6628-.07292.88423-.03749.22143-.14791.36904-.33229.47976-.18437.10924-.40521.14614-.70015.14614-.33125,0-.55224-.0369-.7-.14614-.14702-.11071-.25744-.25833-.3314-.47976-.07395-.22143-.07395-.51518-.07395-.88423v-2.02678s.40535,0,.40535,0Zm2.98468.6259l-.03646,2.87411h-.4427v-3.5h.66369l1.14182,2.8372h.03749v-2.8372h.44167v3.5h-.66265s-1.14285-2.87411-1.14286-2.87411Zm2.61607-.6259h.99494c.44271,0,.7375.14762.95848.44137.22084.29523.33126.73809.33126,1.29017,0,.59047-.11042.99494-.33126,1.29017-.22098.29523-.55312.44137-.95848.44137h-.99494v-3.4631.00002Zm.95848,3.09553c.25833,0,.47917-.07381.58958-.25833.14703-.18452.22098-.44137.22098-.77351v-.55209c0-.33214-.07396-.59047-.22098-.77499-.14777-.18452-.33125-.25833-.58958-.25833h-.51578v2.68958h.51578v-.07233Zm3.86935.40447l-.29494-.95804h-1.17931l-.29479.95804h-.47917l1.0314-3.5h.62708l1.06787,3.5h-.47814Zm-.84807-3.02172h-.03646l-.47932,1.62231h.95848l-.44271-1.62231h.00001Zm2.87441-.07233v3.09405h-.47932v-3.09405h-1.14182v-.40595h2.76384v.40595h-1.14271.00001Zm1.54703,3.09405v-.36757h.84806v-2.76487h-.84806v-.36757h2.17425v.36757h-.84703v2.76487h.84703v.36757h-2.17425Zm3.02232-.40447c-.22084-.29523-.29479-.77351-.29479-1.36398,0-.58899.11042-1.03184.29479-1.36398.22084-.29376.51577-.47828.95745-.47828.4427,0,.73765.14762.95848.47828.22084.29523.29479.77499.29479,1.36398,0,.59047-.11042,1.03184-.29479,1.36398-.22083.29523-.51577.47976-.95848.47976-.44167-.03838-.73661-.18452-.95745-.47976m1.51071-.25833c.11042-.18452.18438-.47976.18438-.81042v-.59047c0-.36757-.07396-.6259-.18438-.81042-.11056-.18452-.29494-.29376-.55327-.29376-.2573,0-.44167.10924-.55224.29376-.11042.18452-.18437.47976-.18437.81042v.59047c0,.36904.07395.6259.18437.81042.11056.18452.29494.29523.55224.29523.25833,0,.4427-.07381.55327-.29523m1.80536-2.21131l-.03646,2.87411h-.4427v-3.5h.66354l1.14197,2.8372h.0375v-2.8372h.44167v3.5h-.66354s-1.14197-2.87411-1.14198-2.87411Z"/>
</svg>