<?xml version="1.0" encoding="UTF-8"?> <svg xmlns="http://www.w3.org/2000/svg" id="Layer_1" data-name="Layer 1" viewBox="0 0 800 400"><defs><style> .cls-1 { fill: #fff; } .cls-2 { fill: #0867e8; } .cls-3 { fill: #cdb78d; } </style></defs><rect id="block" class="cls-3" x="207.8" y="214.9106" width="592.2" height="150"></rect><path class="cls-1" d="m253.4059,116.6404v-.1535l-.2302-.1151.1535-.1535-5.5252-11.7026-9.4772-12.8153h0l-11.1654-11.8561-11.6642-12.3165-13.2374-12.5084-12.2014-11.741-11.5107-13.3908h0l-8.2877-12.5851-.0384-.0384v-.0767l-1.1894-5.8705v-.1535l2.2638-8.6714h0l-13.4676,25.9375-2.2638,8.7482.8825,6.5995h0l5.5635,11.8561,9.5155,12.8153h0l11.1654,11.8944,11.5875,12.2014h0l.0767.0767h0l13.199,12.47,12.2014,11.741,11.5107,13.3908h0l1.6499,2.494.1535.2686-.2302.1918-14.1582,9.976-7.5204,6.9448-6.9064,6.9832,33.7649.5755h.5372l13.4676-25.9375,2.2638-8.7482-.8825-6.3309h0Zm-78.3114,75.4721l33.7649.5755-6.9064,6.9832-7.5204,6.9448-14.1582,9.976-.2302.1918.1535.2686,1.6499,2.494h0l11.5107,13.3908,12.2014,11.7409,13.199,12.47h0l10.3213,12.8153,8.0191,14.6186-23.5587,14.2349-7.5587-7.7889-19.9903-21.0647-11.1654-11.8944h0l-9.5155-12.8153-5.5635-11.8177v-.2302h0v-.0384h0v-.0384h-.0767l-.8441-6.3693,2.2638-8.7482,13.3525-25.7841h.1151v-.1151h.5372Z"></path><path class="cls-2" d="m250.4515,129.7243h-.3837v.7674l-8.518,16.422h-.7674l-.4221-2.0336h1.2662v-3.952h-.6139l11.741-22.5994h.6139l.3453,2.6475h-1.4197v3.9904h.6139l-2.4556,4.7578h0Zm1.765,0h-1.0743l2.187-4.1822-1.1127,4.1822Zm-9.4004,19.0695v-1.8417h-.6139l7.8273-15.0791v1.8417h.6139l-7.8273,15.0791h0Zm-3.2614,6.2542l1.0743-4.1822h1.0743l-2.1487,4.1822h0Zm-2.9544.6139v1.6499l-30.35-.5372v-1.3045l3.4149-3.4532h3.4916v-2.1103l24.4795-6.1774v1.1511h2.0719l.4221,2.0336h-1.2662v3.952h1.1511l-1.2278,4.7961h-2.187Zm-2.9161-17.6882v.9209h2.9161l1.3429,2.0336h-.3069v2.1487l-24.4795,6.1774v-.5755l3.8753-3.5683h3.6834v-2.3789l12.9688-4.7578h0Zm-2.5707-3.1846v.1918h2.5707v2.3405l-12.892,4.7194,10.3213-7.2518h0Zm-67.2611-77.1987h.1151v-3.952h-.3453l14.0047-21.7937h2.187l8.211,9.5539v3.7985h.1535l-15.6162,21.2565h-2.1487l-6.5611-8.8633h0Zm-6.1774-11.8561h.6906v-3.952h-.6139l11.741-22.5994h1.6115l5.7937,8.7098h-.307v3.952h.3453l-14.0047,21.7937h-1.4964l-3.7602-7.904h0Zm-1.5731-6.6379h1.4197v-3.952h-.6139l2.494-4.7961h.3837v-.7674l8.5179-16.422h.7674l.4221,2.0336h-1.2662v3.952h.6139l-11.741,22.5994h-.6139l-.3837-2.6475h0Zm1.5348-8.7482h1.0743l-2.187,4.1822,1.1127-4.1822Zm9.4004-19.0311v1.8417h.6139l-7.8657,15.1174v-1.8417h-.6139l7.8657-15.1174h0Zm3.2614-6.2925l-1.0743,4.1822h-1.1127l2.187-4.1822h0Zm10.9736,73.3234l-7.7506-8.2494v-3.6451h-.1535l15.6162-21.2565h2.6858l8.6331,8.3261v3.4532h.0384l-16.4987,21.3332-2.5707.0384h0Zm11.6259,12.2781l-8.2494-8.6714v-3.6067h-.0384l16.4987-21.3332h2.8009l9.5923,9.0551v3.2997l-17.88,21.2565h-2.7242Zm13.0455,12.47l-9.5923-9.0551v-3.2997l17.88-21.2565h2.7242l8.2494,8.6714v3.6067h.0384l-16.4987,21.3332h-2.801Zm12.2398,11.7793l-8.6331-8.3261v-3.4532h-.0384l16.4987-21.3332h2.5707l7.7506,8.2494v3.6451h.1535l-15.6162,21.2565-2.6858-.0384h0Zm27.8176-12.3549h-.1151v3.952h.3453l-14.0431,21.7937h-2.187l-8.211-9.5539v-3.7985h-.1535l15.6162-21.2565h2.1487l6.5995,8.8633h0Zm6.1391,11.8561h-.6906v3.952h.6139l-11.741,22.5994h-1.6115l-1.3429-2.0336h.3069v-3.952h-2.5707v-3.9137h-1.8417v-2.7626h-.3453l14.0047-21.7937h1.4964l3.7218,7.904h0Zm-45.2756,78.6184v1.3045l-3.4149,3.4532h-3.4916v2.1487l-24.4795,6.1774v-1.1511h-2.0719l-.4221-2.0336h1.2662v-3.952h-1.1511l1.2278-4.7961h2.187v-1.6499l30.35.4988h0Zm-27.4339,18.8009v-.9209h-2.9161l-1.3429-2.0336h.307v-2.1487l24.4795-6.1774v.5755l-3.8753,3.5683h-3.6834v2.3789l-12.9688,4.7578Zm2.5707,3.1846v-.1918h-2.5707v-2.3405l12.892-4.7194-10.3213,7.2518h0Zm53.6401,67.6448h-.5372v2.8009l-19.6066,11.8561v-.4221h-3.4532l-4.0671-4.2206v-2.9928l19.4148-17.7266h2.4556l5.7937,10.705h0Zm-15.693-23.4819l7.1367,8.8633v3.3765l-19.4148,17.7266h-3.1463l-4.9112-5.1798v-3.53l17.88-21.2565h2.4556Zm-12.7386-12.5083l9.5923,9.0551v3.2997l-17.88,21.2565h-2.7242l-8.2494-8.6714v-3.6067h-.0384l16.4987-21.3332h2.801Zm-12.2781-11.7409l8.6331,8.3261v3.4532h.0384l-16.4987,21.3332h-2.5707l-7.7506-8.2494v-3.6451h-.1535l15.6162-21.2565h2.6858v.0384Zm-27.7793,12.3549h.1151v-3.952h-.3453l14.0047-21.7937h2.187l8.211,9.5539v3.7986h.1535l-15.6162,21.2565h-2.1487l-6.5611-8.8633h0Zm-6.1774-11.8561h.6906v-3.952h-.6139l11.741-22.5994h1.6115l1.3429,2.0336h-.307v3.952h2.5707v3.9137h1.8417v2.7626h.3453l-14.0047,21.7937h-1.4964l-3.7218-7.9041h0Zm-1.5731-6.6379h1.4197v-3.952h-.6139l2.494-4.7961h.3837v-.7674l8.5179-16.422h.7674l.4221,2.0336h-1.2662v3.952h.6139l-11.741,22.5994h-.6139l-.3837-2.6475h0Zm1.4964-8.7482h1.0743l-2.187,4.1822,1.1127-4.1822h0Zm9.4004-19.0311v1.8417h.6139l-7.8273,15.0791v-1.8417h-.6139l7.8273-15.0791h0Zm3.2614-6.2925l-1.0743,4.1822h-1.0743l2.1487-4.1822h0Zm82.7239-69.7167v-3.952h-1.9185l-.3453-2.6475h1.4197v-3.952h-2.5707l-3.7218-7.904h.6906v-3.952h-3.0695l-6.5995-8.8633h.1151v-4.0288h-3.4149l-7.7505-8.211v-3.6451h-3.4149l-8.2494-8.6714v-3.6451h-3.6067l-9.5923-9.0551v-3.4149h-3.5683l-8.6331-8.3261v-3.4532h-3.2614l-8.211-9.5539v-3.7985h-2.9161l-5.717-8.7098h.307v-3.952h-2.0719l-.4221-2.0336h1.2662v-3.9904h-1.1511l1.2278-4.7961h2.187V.4586h-3.952v3.952h.6139l-2.494,4.7961h-.3837v.7674l-8.5179,16.422h-2.7242v3.952h1.1511l-1.2278,4.7961h-2.187v3.952h1.9185l.3453,2.6475h-1.4197v3.952h2.5707l3.7218,7.904h-.6906v3.952h3.0695l6.5995,8.8633h-.1151v3.952h3.4149l7.7506,8.2494v3.6451h3.4149l8.2494,8.6714v3.6067h3.6067l9.5923,9.0551v3.4149h3.5683l8.6331,8.3261v3.4532h3.2614l8.211,9.5539v3.7985h1.8417v1.8034l-10.4364,7.4052v-.1918h-3.952v3.3765l-3.8753,3.5683h-3.6834v3.53l-3.4149,3.4532h-3.4916v3.952h3.952v-1.6499l30.35.5372v1.6882h.4604l-5.4484,9.2086h-2.8009v1.1127l-28.8152-8.0959v-2.2254h-3.952v3.0695l-1.9952,1.458v-.1151h-3.952v3.952h3.952v-.4221l25.1318,15.3477v1.9185l-1.9952,1.458v-.1151h-3.952v1.1127l-28.8152-8.0959v-2.2254h-3.9904v3.952h.4604l-5.4484,9.2086h-2.8009v3.952h.6139l-2.494,4.7961h-.3837v.7674l-8.5179,16.422h-2.6475v3.952h1.1511l-1.2278,4.7961h-2.187v3.952h1.9185l.3453,2.6475h-1.4197v3.952h2.5707l3.7218,7.904h-.6906v3.952h3.0695l6.5995,8.8633h-.1151v3.952h3.4149l7.7506,8.2494v3.6451h3.4149l8.2494,8.6714v3.6067h3.4149l4.9112,5.1798v3.6067h3.4532l4.0671,4.2206v3.5683h3.952v-2.7625l19.6066-11.8561v.4221h3.952v-3.952h-2.7242l-5.8321-10.6666h.5372v-3.952h-3.1846l-7.1367-8.8633v-3.952h-3.6067l-9.5923-9.0551v-3.4149h-3.5683l-8.6331-8.3261v-3.4532h-3.2614l-8.2494-9.5923v-3.7986h-1.8417v-1.8034l10.4364-7.3669v.1918h3.952v-3.3765l3.8753-3.5683h3.6834v-3.53l3.4149-3.4532h3.4916v-3.952h-3.9904v1.6499l-30.35-.5372v-1.6882h-.4604l5.4484-9.2086h2.8009v-1.0743l28.8152,8.0959v2.2254h3.952v-3.0695l1.9952-1.458v.1151h3.952v-3.952h-3.952v.4221l-25.1318-15.3477v-1.9185l1.9952-1.458v.1151h4.0288v-1.1127l28.8152,8.0959v2.2254h3.952v-3.952h-.4604l5.4484-9.2086h2.8009v-3.9904h-.6139l2.494-4.7961h.3837v-.7674l8.518-16.422h2.6475v-3.952h-1.1511l1.2278-4.7961,2.2638.0384h0Zm-161.9945-41.4387v-.3837h.8825v-2.8777h-.8825v-.3837h2.2638v.3837h-.8825v2.8777h.8825v.3837h-2.2638Zm3.4149-.1151c-.2302-.1151-.3837-.2686-.5372-.4604l.3453-.307c.1535.1918.307.307.4604.3837s.3453.1151.5372.1151c.2302,0,.4221-.0767.5755-.1918.1151-.1151.1918-.2686.1918-.4988,0-.1535-.0384-.307-.1535-.3837s-.2686-.1535-.4988-.1918l-.3837-.0767c-.3453-.0384-.5755-.1535-.729-.3453s-.2302-.3837-.2302-.6523c0-.3453.1151-.5755.3453-.7674s.5372-.2686.9209-.2686c.2686,0,.5372.0384.729.1535.1918.0767.3837.2302.4988.4221l-.3453.307c-.1151-.1535-.2302-.2302-.3837-.307s-.307-.1151-.4988-.1151c-.2302,0-.4221.0384-.5372.1535-.1151.1151-.1918.2302-.1918.4604,0,.1535.0384.307.1535.3837s.2686.1535.4988.1918l.3837.0767c.3453.0384.5755.1535.729.3453s.2302.3837.2302.6523c0,.2302-.0384.4221-.1535.5755s-.2302.307-.4221.3837-.4221.1151-.6906.1151c-.3837,0-.6523-.0384-.8441-.1535Zm4.8345.1151l-.307-.9976h-1.2278l-.307.9976h-.4988l1.0743-3.6451h.6523l1.1127,3.6451h-.4988Zm-.8825-3.1463h-.0384l-.4988,1.6882h.9976l-.4604-1.6882Zm5.4484,3.1463v-3.6451h2.2638v.4221h-1.765v1.1511h1.6882v.4221h-1.6882v1.2278h1.765v.4221h-2.2638Zm3.2997,0v-3.6451h.4988v3.223h1.6882v.4221h-2.187Zm4.7194,0l-.307-.9976h-1.2278l-.307.9976h-.4988l1.0743-3.6451h.6523l1.1127,3.6451h-.4988Zm-.8825-3.1463h-.0384l-.4988,1.6882h.9976l-.4604-1.6882Zm1.8417,3.1463v-.3837h.8825v-2.8777h-.8825v-.3837h2.2638v.3837h-.8825v2.8777h.8825v.3837h-2.2638Zm3.53-2.9928h0l-.0384,2.9928h-.4604v-3.6451h.6906l1.1894,2.9544h.0384v-2.9544h.4604v3.6451h-.6906l-1.1894-2.9928Zm2.7242,2.9928v-3.6451h2.2638v.4221h-1.765v1.1511h1.6882v.4221h-1.6882v1.2278h1.765v.4221h-2.2638Zm6.5995,0v-3.6451h2.3021v.4221h-1.8033v1.1511h1.6499v.4221h-1.6499v1.6499h-.4988Zm3.1079-.4221c-.2302-.307-.307-.8058-.307-1.4197s.1151-1.0743.307-1.4197c.2302-.307.5372-.4988.9976-.4988s.7674.1535.9976.4988c.2302.307.307.8058.307,1.4197s-.1151,1.0743-.307,1.4197c-.2302.307-.5372.4988-.9976.4988-.4604-.0384-.7674-.1918-.9976-.4988Zm1.5731-.2686c.1151-.1918.1918-.4988.1918-.8441v-.6139c0-.3837-.0767-.6523-.1918-.8441s-.307-.307-.5755-.307-.4604.1151-.5755.307-.1918.4988-.1918.8441v.6139c0,.3837.0767.6523.1918.8441s.307.307.5755.307.4604-.0767.5755-.307Zm1.8801-2.9544v2.2254c0,.2686,0,.4604.0384.6139.0384.1535.0767.2686.1918.3453s.2302.1151.4604.1151c.1918,0,.3453-.0384.4604-.1151s.1535-.1918.1918-.3453.0384-.3453.0384-.6139v-2.2254h.4988v2.1103c0,.3837-.0384.6906-.0767.9209s-.1535.3837-.3453.4988-.4221.1535-.729.1535c-.3453,0-.5755-.0384-.729-.1535-.1535-.1151-.2686-.2686-.3453-.4988s-.0767-.5372-.0767-.9209v-2.1103h.422Zm3.1079.6523h0l-.0384,2.9928h-.4604v-3.6451h.6906l1.1894,2.9544h.0384v-2.9544h.4604v3.6451h-.6906l-1.1894-2.9928Zm2.7242-.6523h1.036c.4604,0,.7674.1535.9976.4604s.3453.7674.3453,1.3429c0,.6139-.1151,1.036-.3453,1.3429-.2302.307-.5755.4604-.9976.4604h-1.036v-3.6067Zm.9976,3.223c.2686,0,.4988-.0767.6139-.2686.1535-.1918.2302-.4604.2302-.8058v-.5755c0-.3453-.0767-.6139-.2302-.8058-.1535-.1918-.3453-.2686-.6139-.2686h-.5372v2.8009h.5372v-.0767Zm4.0288.4221l-.307-.9976h-1.2278l-.307.9976h-.4988l1.0743-3.6451h.6523l1.1127,3.6451h-.4988Zm-.8825-3.1463h-.0384l-.4988,1.6882h.9976l-.4604-1.6882Zm2.9928-.0767v3.223h-.4988v-3.223h-1.1894v-.4221h2.8777v.4221h-1.1894Zm1.6115,3.223v-.3837h.8825v-2.8777h-.8825v-.3837h2.2638v.3837h-.8825v2.8777h.8825v.3837h-2.2638Zm3.1463-.4221c-.2302-.307-.307-.8058-.307-1.4197s.1151-1.0743.307-1.4197c.2302-.307.5372-.4988.9976-.4988s.7674.1535.9976.4988c.2302.307.307.8058.307,1.4197s-.1151,1.0743-.307,1.4197c-.2302.307-.5372.4988-.9976.4988-.4604-.0384-.7674-.1918-.9976-.4988Zm1.5731-.2686c.1151-.1918.1918-.4988.1918-.8441v-.6139c0-.3837-.0767-.6523-.1918-.8441s-.307-.307-.5755-.307-.4604.1151-.5755.307-.1918.4988-.1918.8441v.6139c0,.3837.0767.6523.1918.8441s.307.307.5755.307.4604-.0767.5755-.307Zm1.8801-2.3021h0l-.0384,2.9928h-.4604v-3.6451h.6906l1.1894,2.9544h.0384v-2.9544h.4604v3.6451h-.6906l-1.1894-2.9928Z"></path></svg> 