<?xml version="1.0" encoding="UTF-8"?> <svg xmlns="http://www.w3.org/2000/svg" id="Layer_1" data-name="Layer 1" viewBox="0 0 380 550"><defs><style> .cls-1 { fill: #fff; } .cls-2 { fill: #0867e8; } .cls-3 { fill: #cdb78d; } </style></defs><path class="cls-2" d="m1.08984,90.0918h5.21289v-33.69287H1.08984v-.92432h18.24463v.92432h-5.68652v33.69287h5.68652v.92432H1.08984v-.92432Zm26.65576,1.39844h-.8291v-11.13672h.92432c.58398,1.72217,1.35791,3.37646,2.32178,4.96436.96338,1.5874,2.19189,2.89062,3.68457,3.90918,1.49268,1.01904,3.3208,1.52832,5.48535,1.52832,2.24268,0,4.01953-.59229,5.33105-1.77686,1.31104-1.18506,1.9668-2.75635,1.9668-4.71533,0-1.29492-.34766-2.37305-1.04297-3.23438-.69531-.86084-1.60742-1.60693-2.73633-2.23877-1.12988-.63184-2.36963-1.22412-3.72021-1.77734-1.35059-.55273-2.70508-1.15674-4.06348-1.8125-1.35889-.65527-2.60254-1.44141-3.73193-2.35742s-2.0376-2.0498-2.72461-3.40039c-.6875-1.35059-1.03076-3.00488-1.03076-4.96387,0-1.97461.48926-3.66846,1.46875-5.08252.97949-1.41357,2.2666-2.49951,3.8623-3.25781,1.59521-.7583,3.3252-1.13721,5.18896-1.13721,2.78027,0,5.18115.89258,7.20312,2.67725l3.69629-2.67725h.80566v10.68604h-.94775c-.94775-3.01709-2.27881-5.38232-3.99268-7.09668-1.71387-1.71338-3.8501-2.5708-6.40918-2.5708-1.89551,0-3.34912.47021-4.35986,1.41016s-1.51611,2.18359-1.51611,3.73145c0,1.15332.34326,2.13281,1.03076,2.93848.68701.80518,1.59082,1.5127,2.71289,2.12061,1.12109.60791,2.35352,1.20068,3.69629,1.77686,1.34229.57666,2.68506,1.2124,4.02783,1.90723,1.34277.69531,2.57861,1.52051,3.7085,2.47607,1.12891.95605,2.0332,2.11719,2.71289,3.4834.67871,1.36621,1.01855,3.021,1.01855,4.96387,0,2.21143-.521,4.13086-1.56348,5.75781-1.04297,1.62695-2.45654,2.88672-4.24121,3.7793-1.78564.89209-3.7915,1.33838-6.01855,1.33838-1.73779,0-3.27002-.28418-4.59668-.85303-1.32715-.56836-2.49609-1.33447-3.50684-2.29834l-3.81494,2.93848Zm28.00635-1.39844h4.33594l12.46338-35.3042h3.08008l12.22656,35.3042h3.67236v.92432h-16.3252v-.92432h4.14648l-3.27002-10.11719h-11.37305l-3.53027,10.11719h5.02295v.92432h-10.44922v-.92432Zm14.87988-26.9873l-5.5918,15.9458h10.73389l-5.14209-15.9458Zm-50.61035,62.95117c-.36328-1.59521-1.09375-2.90234-2.19141-3.92139-1.09814-1.01855-2.31836-1.52832-3.66113-1.52832h-1.46875v16.98877h4.78613c3.23779,0,5.68652-.87256,7.34521-2.61816,1.65869-1.74512,2.66162-4.11865,3.00928-7.12012h.92383v10.6626H1.08984v-.92432h4.26514v-33.69287H1.08984v-.92432h27.22461v9.71484h-.94775c-.34766-2.54297-1.30713-4.64404-2.87891-6.30273s-3.74756-2.48779-6.52734-2.48779h-5.26025v15.78027h1.46875c1.34277,0,2.56299-.47754,3.66113-1.43359,1.09766-.95557,1.82812-2.22314,2.19141-3.80273h.94775v11.60986h-.94775Zm43.90527,12.46338h-27.58008v-.92432h4.26514v-33.69287h-4.26514v-.92432h15.87549v.92432h-4.26514v33.69287h4.66748c2.32227,0,4.19775-.39453,5.62744-1.18457,1.42969-.78955,2.51562-1.91113,3.2583-3.36426.74219-1.45312,1.23193-3.18311,1.46875-5.18945h.94775v10.6626Zm2.34521-.92432h4.33594l12.46338-35.3042h3.08008l12.22656,35.3042h3.67236v.92432h-16.3252v-.92432h4.14648l-3.27002-10.11719h-11.37305l-3.53027,10.11719h5.02295v.92432h-10.44922v-.92432Zm14.87988-26.9873l-5.5918,15.9458h10.73389l-5.14209-15.9458Zm25.37646,26.9873h5.21289v-33.69287h-5.21289v-.92432h18.24463v.92432h-5.68652v33.69287h5.68652v.92432h-18.24463v-.92432Zm25.0918,0h4.8335v-33.69287h-4.8335v-.92432h13.90869l15.06934,23.41016v-22.48584h-5.33105v-.92432h11.27832v.92432h-4.97559v35.09131h-1.30322l-22.84131-34.99658v33.59814h5.49707v.92432h-11.30225v-.92432Zm60.7041-11.53906c-.36328-1.59521-1.09375-2.90234-2.19141-3.92139-1.09814-1.01855-2.31836-1.52832-3.66113-1.52832h-1.46875v16.98877h4.78613c3.23828,0,5.68652-.87256,7.3457-2.61816,1.6582-1.74512,2.66113-4.11865,3.00879-7.12012h.92383v10.6626h-27.6748v-.92432h4.26514v-33.69287h-4.26514v-.92432h27.22461v9.71484h-.94727c-.34766-2.54297-1.30762-4.64404-2.87891-6.30273-1.57227-1.65869-3.74805-2.48779-6.52783-2.48779h-5.26025v15.78027h1.46875c1.34277,0,2.56299-.47754,3.66113-1.43359,1.09766-.95557,1.82812-2.22314,2.19141-3.80273h.94824v11.60986h-.94824ZM1.08984,185.09961h4.26514v-33.69287H1.08984v-.92432h26.49023v9.71484h-.92383c-.36377-2.54297-1.24414-4.64404-2.64209-6.30273s-3.42383-2.48779-6.07764-2.48779h-5.23633v16.46729h.99512c1.81641,0,3.23779-.46973,4.26514-1.40967,1.02637-.93945,1.71338-2.19971,2.06104-3.7793h.94775v11.58643h-.94775c-.34766-1.59521-1.03467-2.90234-2.06104-3.92139-1.02734-1.01855-2.44873-1.52832-4.26514-1.52832h-.99512v16.27783h4.73877v.92432H1.08984v-.92432Zm50.87109,1.39844c-3.34912,0-6.22803-.80566-8.63672-2.41699-2.40918-1.61133-4.25732-3.79102-5.54443-6.53955-1.2876-2.74854-1.93115-5.84424-1.93115-9.28809,0-2.57471.38672-4.97217,1.16113-7.19141.77344-2.21924,1.87158-4.1543,3.29346-5.80518,1.42139-1.65039,3.11963-2.93799,5.09424-3.8623,1.97412-.92383,4.16211-1.38574,6.56348-1.38574,2.4165,0,4.6084.46191,6.57471,1.38574,1.9668.92432,3.66455,2.21191,5.09473,3.8623,1.4292,1.65088,2.52686,3.58594,3.29346,5.80518.76562,2.21924,1.14893,4.6167,1.14893,7.19141,0,3.44385-.64355,6.53955-1.93115,9.28809s-3.13135,4.92822-5.53223,6.53955c-2.40137,1.61133-5.28418,2.41699-8.64844,2.41699Zm0-35.61279c-2.03809,0-3.62158.7666-4.75098,2.29834-1.12939,1.53223-1.92334,3.60986-2.38135,6.23145-.45801,2.62256-.68701,5.56836-.68701,8.83838,0,2.44824.10254,4.72705.30811,6.83545.20508,2.10889.58398,3.95361,1.13721,5.53271.55273,1.57959,1.34229,2.80762,2.36963,3.68457,1.02637.87646,2.36133,1.31494,4.00439,1.31494,1.6582,0,3.00098-.43848,4.02783-1.31494,1.02637-.87695,1.8125-2.10498,2.35742-3.68457.54492-1.5791.91992-3.42383,1.12549-5.53271.20508-2.1084.30811-4.38721.30811-6.83545,0-3.27002-.2251-6.21582-.67529-8.83838-.4502-2.62158-1.24414-4.69922-2.38135-6.23145-1.13721-1.53174-2.72461-2.29834-4.76221-2.29834Zm22.604-.40283h16.37256v.92432h-4.73877v23.24414c0,2.08496.18164,3.93701.54492,5.55615s1.06641,2.89062,2.10889,3.81494c1.04248.92383,2.58301,1.38574,4.62061,1.38574,2.59033,0,4.67139-.77783,6.24316-2.3335s2.35791-4.20605,2.35791-7.94971v-23.71777h-4.28906v-.92432h9.69141v.92432h-4.45459v23.71777c0,3.90186-.93262,6.80859-2.7959,8.71973-1.86426,1.91113-4.72363,2.8667-8.57764,2.8667-4.45459,0-7.70068-.9082-9.73828-2.72461s-3.05664-4.77051-3.05664-8.86182v-23.71777h-4.28857v-.92432Zm39.90039,34.61719h4.8335v-33.69287h-4.8335v-.92432h13.90869l15.06934,23.41016v-22.48584h-5.33105v-.92432h11.27832v.92432h-4.97559v35.09131h-1.30322l-22.84131-34.99658v33.59814h5.49707v.92432h-11.30225v-.92432Zm56.93701.92432h-15.16455v-.92432h4.26514v-33.69287h-4.26514v-.92432h15.16455c3.75928,0,6.98145.74658,9.66699,2.23926s4.74658,3.57422,6.18457,6.24316c1.43701,2.66992,2.15576,5.76611,2.15576,9.28857s-.75,6.61865-2.25098,9.28809c-1.50049,2.66943-3.60107,4.75049-6.30225,6.24316s-5.85254,2.23926-9.4541,2.23926Zm0-34.61719h-3.5542v33.69287h3.5542c1.81641,0,3.34863-.43408,4.59668-1.30273,1.24756-.86865,2.24658-2.07715,2.99707-3.62549.75-1.54785,1.2915-3.33691,1.62305-5.3667.33203-2.02979.49756-4.21338.49756-6.55127,0-3.11182-.33545-5.94336-1.00684-8.49463-.67139-2.55078-1.72168-4.58057-3.15137-6.08936-1.42969-1.5083-3.28174-2.2627-5.55615-2.2627Zm20.42383,33.69287h4.33594l12.46387-35.3042h3.08008l12.22559,35.3042h3.67285v.92432h-16.3252v-.92432h4.14648l-3.26953-10.11719h-11.37402l-3.53027,10.11719h5.02344v.92432h-10.44922v-.92432Zm14.87988-26.9873l-5.5918,15.9458h10.7334l-5.1416-15.9458Zm30.49414,26.9873h5.21289v-33.69287h-2.86719c-1.69043,0-3.08008.4541-4.16992,1.3623-1.08984.90869-1.93945,2.14844-2.54688,3.71973-.6084,1.57227-1.03125,3.36133-1.26758,5.36719h-.94824v-11.37354h30.96875v11.37354h-.92383c-.2373-2.00586-.66016-3.79492-1.26855-5.36719-.60742-1.57129-1.46094-2.81104-2.55859-3.71973-1.09766-.9082-2.49219-1.3623-4.18164-1.3623h-2.86719v33.69287h5.18848v.92432h-17.77051v-.92432Zm32.22363,0h5.21289v-33.69287h-5.21289v-.92432h18.24512v.92432h-5.6875v33.69287h5.6875v.92432h-18.24512v-.92432Zm40.94434,1.39844c-3.34961,0-6.22852-.80566-8.63672-2.41699-2.40918-1.61133-4.25684-3.79102-5.54492-6.53955-1.28711-2.74854-1.93066-5.84424-1.93066-9.28809,0-2.57471.38672-4.97217,1.16113-7.19141.77344-2.21924,1.87207-4.1543,3.29297-5.80518,1.42188-1.65039,3.12012-2.93799,5.09473-3.8623,1.97461-.92383,4.16211-1.38574,6.56348-1.38574,2.41699,0,4.6084.46191,6.5752,1.38574,1.9668.92432,3.66406,2.21191,5.09375,3.8623,1.42969,1.65088,2.52734,3.58594,3.29395,5.80518.76562,2.21924,1.14941,4.6167,1.14941,7.19141,0,3.44385-.64453,6.53955-1.93164,9.28809s-3.13184,4.92822-5.53223,6.53955c-2.40137,1.61133-5.28418,2.41699-8.64844,2.41699Zm0-35.61279c-2.03809,0-3.62207.7666-4.75098,2.29834-1.12988,1.53223-1.92285,3.60986-2.38086,6.23145-.45898,2.62256-.6875,5.56836-.6875,8.83838,0,2.44824.10254,4.72705.30762,6.83545.20508,2.10889.58496,3.95361,1.1377,5.53271.55273,1.57959,1.34277,2.80762,2.36914,3.68457,1.02734.87646,2.36133,1.31494,4.00488,1.31494,1.6582,0,3.00098-.43848,4.02734-1.31494,1.02734-.87695,1.81348-2.10498,2.3584-3.68457.54492-1.5791.91992-3.42383,1.125-5.53271.20508-2.1084.30859-4.38721.30859-6.83545,0-3.27002-.22559-6.21582-.67578-8.83838-.4502-2.62158-1.24414-4.69922-2.38086-6.23145-1.1377-1.53174-2.72559-2.29834-4.7627-2.29834Zm23.17188,34.21436h4.83398v-33.69287h-4.83398v-.92432h13.9082l15.07031,23.41016v-22.48584h-5.33105v-.92432h11.27832v.92432h-4.97656v35.09131h-1.30273l-22.84082-34.99658v33.59814h5.49707v.92432h-11.30273v-.92432Z"></path><rect class="cls-3" x="114.64057" y="417.32029" width="132.67972" height="132.67971"></rect><rect class="cls-3" x="247.32029" y="284.64058" width="132.67971" height="132.67971"></rect><path class="cls-1" d="m218.14522,248.01566l43.02417.73238-8.80064,8.89752-9.58295,8.84974-18.04016,12.71071-.29298.24546.19491.34231,2.10232,3.17899,14.66748,17.0613,15.54609,14.96096,16.81846,15.89104,13.15253,16.32757,10.21768,18.62689-30.01877,18.13733-9.63122-9.92444-25.47187-26.83978-14.22642-15.15734-12.12535-16.32889-7.08854-15.05913v-.3901h-.09805l-1.07524-8.11601,2.88339-11.14642,17.01446-32.85282h.14648v-.14728h.68437-.00013Zm99.78454-96.16628v-.19768l-.29321-.14461.19503-.19636-7.03864-14.91323-12.07653-16.32755-14.22722-15.10689-14.8628-15.69471-16.86757-15.93616-15.54635-14.9623-14.66748-17.06257-10.55932-16.03566-.04962-.04913v-.09686l-1.51506-7.4818v-.19506l2.88353-11.04824-17.15974,33.04921-2.88472,11.14639,1.12499,8.41062,7.08856,15.10689,12.12532,16.32892,14.22633,15.15467,14.76564,15.54738.09675.09818,16.81792,15.88975,15.54876,14.95963,14.66507,17.06392,2.10299,3.17637.19636.34231-.29321.24543-18.04179,12.71074-9.58212,8.85106-8.79934,8.89617,43.02275.73373h.6846l17.15951-33.04921,2.88445-11.14774-1.12251-8.06563h-.00132Z"></path><path class="cls-2" d="m321.59571,162.45718v-5.03522h-2.44396l-.43915-3.3727h1.80841v-5.03522h-3.27452l-4.74198-10.07172h.87969v-5.03517h-3.91142l-8.40924-11.2937h.14596v-5.13472h-4.35057l-9.87668-10.46176v-4.64513h-4.35057l-10.51089-11.05093v-4.64378h-4.59603l-12.22246-11.53781v-4.35186h-4.54692l-11.00074-10.60775v-4.40104h-4.15538l-10.46233-12.17201v-4.84014h-3.71569l-7.28454-11.09866h.39114v-5.03655h-2.6402l-.53761-2.59124h1.61311v-5.08427h-1.46663l1.56468-6.1099h2.78669V3.80805h-5.03574v5.0352h.78255l-3.17808,6.11254h-.48918v.97784l-10.85373,20.92492h-3.47103v5.03655h1.46678l-1.5647,6.10985h-2.7868v5.03655h2.44528l.43944,3.37407h-1.80922v5.03515h3.276l4.74263,10.07174h-.88047v5.0352h3.91166l8.4086,11.29372h-.14661v5.0352h4.35147l9.87642,10.51089v4.64378h4.35002l10.51224,11.05086v4.59473h4.596l12.22246,11.54048v4.34922h4.5456l11.00048,10.61041v4.39832h4.15685l10.46179,12.17468v4.84016h2.34581v2.29935l-13.29719,9.43484v-.24546h-5.0352v4.30149l-4.93834,4.54695h-4.6942v4.49914l-4.35057,4.39967h-4.44875v5.03517h5.03652v-2.10162l38.67083.68328v2.15075h.58643l-6.94178,11.73554h-3.56908v1.41834l-36.71647-10.31585v-2.83802h-5.0352v3.91272l-2.5433,1.85753v-.14728h-5.03561v5.03784h5.03561v-.53867l32.02343,19.55431v2.44663l-2.54216,1.85621v-.14464h-5.0352v1.41834l-36.7167-10.31583v-2.83804h-5.08521v5.0352h.58736l-6.94313,11.73554h-3.56776v5.03517h.78108l-3.17781,6.11124h-.48814v.97784l-10.85359,20.92495h-3.37405v5.03517h1.46652l-1.5635,6.11122h-2.78666v5.03522h2.44396l.43969,3.37534h-1.80828v5.0352h3.27479l4.74252,10.07042h-.87915v5.03649h3.91046l8.40978,11.29238h-.14649v5.03653h4.35137l9.87523,10.51088v4.64645h4.35135l10.51089,11.04692v4.59601h4.35098l6.25982,6.60081v4.5947h4.39964l5.18116,5.37883v4.5456h5.03652v-3.51866l24.98228-15.10692v.53735h5.0352v-5.0352h-3.47093l-7.43138-13.59303h.68463v-5.03518h-4.05736l-9.09385-11.29371v-5.0352h-4.59605l-12.22244-11.53783v-4.35189h-4.5456l-11.00061-10.60772v-4.40099h-4.1566l-10.51086-12.22378v-4.84016h-2.347v-2.2967l13.29755-9.38709v.24414h5.03574v-4.30147l4.93847-4.54695h4.69288v-4.49914l4.35189-4.39967h4.44875v-5.0352h-5.08427v2.10164l-38.67257-.68331v-2.15072h-.58617l6.94194-11.73554h3.56895v-1.36659l36.7166,10.31585v2.83405h5.0352v-3.9101l2.54346-1.85883v.14728h5.0352v-5.03522h-5.0352v.53605l-32.02332-19.55566v-2.44264l2.54201-1.85885v.14728h5.13325v-1.41834l36.71647,10.31583v2.83405h5.03517v-5.0352h-.58508l6.94178-11.73289h3.56911v-5.08557h-.78283l3.17769-6.11127h.4896v-.97784l10.85453-20.92357h3.37273v-5.03652h-1.46746l1.56432-6.11124,2.88577.04913h-.00267Zm-105.40645,88.83303l-1.36846,5.32973h-1.36847l2.73838-5.32973h-.00145Zm-4.15514,8.01915v2.34578h.78255l-9.97341,19.21469v-2.3471h-.78213l9.97299-19.21337Zm-11.97752,24.24854h1.36846l-2.78666,5.32976,1.41821-5.32976Zm-1.90741,11.14909h1.80936v-5.03787h-.78228l3.17781-6.11122h.48918v-.97652l10.85375-20.9236h.97731l.53762,2.5886h-1.61299v5.03517h.78243l-14.96045,28.79814h-.78254l-.48921-3.3727Zm2.0044,8.457h.88047v-5.0352h-.78255l14.96044-28.79814h2.05428l1.70984,2.59124h-.39113v5.03655h3.27587v4.98739h2.34723v3.52001h.43969l-17.84528,27.76852h-1.90635l-4.7425-10.07037Zm7.87202,15.10692h.14648v-5.03655h-.43956l17.84396-27.76852h2.78666l10.46249,12.17336v4.84148h.1962l-19.89798,27.0826h-2.73823l-8.36001-11.29238Zm35.39602-15.74376l10.99968,10.60907v4.40099h.05042l-21.02323,27.18339h-3.27613l-9.87495-10.51088v-4.64644h-.19625l19.89813-27.0826h3.42232v.04646Zm15.64481,14.96228l12.22244,11.53781v4.20464l-22.78375,27.08391h-3.47026l-10.51089-11.04957v-4.59469h-.04975l21.02312-27.18341h3.56908v.00132Zm16.23201,15.93616l9.09255,11.29502v4.30149l-24.73679,22.58871h-4.01092l-6.25718-6.60081v-4.49784l22.78245-27.08658h3.12988Zm19.99618,29.92193h-.68463v3.56909l-24.9836,15.10692v-.53868h-4.39964l-5.18248-5.37751v-3.81322l24.73814-22.58606h3.12988l7.38233,13.63946Zm-68.34837-86.19405v-.24279h-3.27587v-2.98266l16.42697-6.01304-13.1511,9.23849Zm-3.27587-4.05733v-1.17422h-3.71569l-1.71116-2.59124h.39113v-2.73585l31.19061-7.87322v.73505l-4.93702,4.5456h-4.69275v3.03173l-16.52522,6.06214h.0001Zm34.95688-23.95665v1.66115l-4.35189,4.40097h-4.45009v2.73855l-31.19061,7.87187v-1.46744h-2.64019l-.53762-2.59124h1.61312v-5.0352h-1.46665l1.5647-6.11122h2.78666v-2.10297l38.67257.63685v-.00132Zm57.68912-100.17718h-.87964v5.03522h.78281l-14.96098,28.79811h-2.05389l-1.71023-2.59124h.3901v-5.03652h-3.27455v-4.9861h-2.3471v-3.52001h-.43917l17.84409-27.76987h1.90793l4.74064,10.0704Zm-7.82277-15.10689h-.14596v5.03649h.44049l-17.89448,27.76987h-2.7863l-10.46311-12.17468v-4.83884h-.19506l19.898-27.08524h2.73849l8.40792,11.2924Zm-35.44406,15.74376l-11.00048-10.61041v-4.39832h-.0491l21.02312-27.18339h3.27587l9.87534,10.51218v4.64378h.19636l-19.8993,27.08524-3.4218-.04908Zm-15.59651-15.00874l-12.22192-11.53781v-4.20596l22.78323-27.08527h3.47088l10.51091,11.05093v4.5947h.04908l-21.0231,27.18339h-3.56908Zm-16.62291-15.8897l-10.51089-11.04826v-4.5947h-.04869l21.02217-27.18339h3.56908l12.22246,11.53781v4.20329l-22.78201,27.08527h-3.47212Zm-14.81274-15.64297l-9.87642-10.51483v-4.64378h-.19623l19.89943-27.08524h3.42102l11.00191,10.61034v4.39835h.04778l-21.02271,27.18345-3.27478.05172Zm-13.98314-93.43038l-1.36844,5.32841h-1.41822l2.78666-5.32841Zm-4.15512,8.0178v2.34715h.78108l-10.0217,19.2624v-2.3471h-.78229l10.0229-19.26245Zm-11.97886,24.24992h1.3686l-2.78682,5.32841,1.41822-5.32841Zm-1.95583,11.14639h1.80935v-5.03655h-.78228l3.17782-6.10985h.48918v-.97784l10.85372-20.92492h.97732l.53789,2.59124h-1.6134v5.03515h.78255l-14.96044,28.79684h-.78255l-.48918-3.37407Zm2.0044,8.45835h.88031v-5.0352h-.78226l14.96044-28.79679h2.05399l7.3815,11.09866h-.39126v5.03515h.44075l-17.84514,27.76992h-1.90608l-4.79225-10.07174Zm7.87187,15.10689h.14648v-5.03515h-.43943l17.84383-27.76992h2.78666l10.46259,12.17341v4.83884h.19625l-19.89798,27.08524h-2.73836l-8.36004-11.29243Zm85.70369,98.36743v.24546h3.27716v2.97999l-16.42707,6.01571,13.14991-9.24115Zm3.27716,4.05868v1.17156h3.71501l1.7116,2.59124h-.39142v2.73984l-31.19299,7.86923v-.73238l4.93966-4.54825h4.69288v-3.03173l16.52525-6.0595Zm3.71501,22.537v2.10431l-38.67213-.68865v-1.65983l4.35189-4.39962h4.44742v-2.69076l31.19299-7.86925v1.46614h2.64032l.53735,2.59124h-1.61334v5.03649h1.46741l-1.56562,6.10992h-2.7863Zm3.76414-.78151l1.36794-5.32973h1.37058l-2.73852,5.32973Zm4.15685-7.96873v-2.3471h-.78281l9.97354-19.21335v2.34575h.78149l-9.97222,19.21469Zm11.97566-24.30029h-1.36659l2.78495-5.32709-1.41836,5.32709Zm-2.24758,0h-.4896v.97916l-10.85318,20.92495h-.97787l-.53735-2.59124h1.6134v-5.03655h-.78283l14.96098-28.79549h.78149l.44049,3.37275h-1.80975v5.0843h.78149l-3.12727,6.06212Z"></path></svg> 