<?xml version="1.0" encoding="UTF-8"?>
<svg id="Layer_1" data-name="Layer 1" xmlns="http://www.w3.org/2000/svg" viewBox="0 0 500 400">
  <defs>
    <style>
      .cls-1 {
        fill: #fff;
      }

      .cls-2 {
        fill: #cdb78d;
      }

      .cls-3 {
        fill: #eac468;
      }

      .cls-4 {
        fill: #f8e8b2;
      }

      .cls-5 {
        fill: #b5defa;
      }

      .cls-6 {
        fill: #ccb266;
      }

      .cls-7 {
        fill: #fcf4e4;
      }
    </style>
  </defs>
  <rect class="cls-2" x="250" width="250" height="243.5993"/>
  <g>
    <path class="cls-7" d="m159.4632,253.7754c2.23.8318,4.6375,1.2974,6.964,1.1086,6.7537-.2319,13.259-1.4805,19.3987-3.8083,6.8051-2.58,9.1935-8.2034,9.4023-15.2454.0922-3.1077-.8283-5.2292-3.3491-7.017-1.5367-1.0899-2.6667-2.7554-3.9708-4.1704-1.4473-1.5704-2.1244-1.3482-3.0363.2549-2.0113,3.5358-4.8016,6.3742-8.5311,8.2247-2.3525,1.1673-4.8544,1.7174-7.2009.665-2.9784-1.3359-5.7877-.8091-8.6833-.1382-2.5708.5956-4.2207,2.1956-4.9495,4.7354-.6638,2.3129-1.3195,4.6282-1.9878,6.9398-.1824.6309-.3204,1.293-.0488,1.8901,1.2878,2.8307,2.9789,5.437,5.9926,6.561Zm26.8174-19.709c.9336-.0201,1.8529,1.0309,1.8474,2.112-.006,1.1756-.8107,1.9777-1.9376,1.9315-1.1033-.0453-1.7223-.7271-1.6838-1.8548.04-1.1741.8462-2.1686,1.774-2.1887Zm-15.0409,12.4516c.1738-.5849.7073-.6009,1.1901-.4727,2.1284.5651,4.2497.5179,6.4225.2088,1.2776-.1816,2.5386-.2565,3.6976-.8958.5-.2758,1.1721-.5192,1.5129.0779.4707.8245-.3764,1.0762-.8842,1.3956-.6779.4265-1.3763.8287-2.2013.9178-1.7511.1891-3.5018.3823-4.9153.5369-1.6343-.0219-2.9087-.163-4.1036-.681-.439-.1903-.8895-.5129-.7188-1.0875Zm-3.0537-8.9266c.932-.0187,1.7232.7385,1.7069,1.6335-.0155.8524-.8183,1.5588-1.7947,1.5795-.9871-.0044-1.4562-.5366-1.4877-1.4893-.0333-1.0076.6122-1.7044,1.5754-1.7237Z"/>
    <path class="cls-5" d="m184.7153,261.8027c.7302-.9521,1.4106-1.9423,2.1434-2.8923.59-.7649.6883-1.5059.3416-2.451-1.15-3.1347-1.4236-3.1885-4.7129-2.6706-2.2523.3547-3.3378,1.5098-3.8432,3.6012-.2472,1.0231-.2815,2.0583-.479,3.0758-.3938,2.0292-1.6136,2.5726-3.2437,1.4138-.5123-.3642-.9089-.8937-1.3489-1.3568-1.1572-1.218-2.2547-2.4993-3.4793-3.6451-1.1263-1.0539-1.8625-.9164-2.7504.3539-.4114.5887-.7407,1.2355-1.101,1.8595-1.1732,2.0323-1.116,2.4509,1.0047,3.4995,2.0056.9916,4.0875,1.8383,6.1695,2.6636,2.1626.8571,3.2675,2.3447,3.4634,4.6966.2249,2.6993.6752,5.3797,1.0275,8.0684.5046-3.8884,1.0292-7.636,3.4731-10.9858,1.1936-1.6361,2.0674-3.5778,3.3351-5.2307Z"/>
    <path class="cls-1" d="m176.9684,255.1197c-1.8113.4611-3.4156.195-4.9045,1.1547,1.1138,1.1334,2.2227,1.8597,3.4548,2.6136.6765-1.1484,1.2311-2.1697,1.4497-3.7684Z"/>
    <path class="cls-5" d="m172.2461,309.054c-3.3986-.5142-6.7979-1.0241-10.1943-1.5531-1.2639-.1969-2.5129-.5298-3.7824-.6362-.9141-.0766-1.9678-.3238-2.6945.5586-1.2495,1.5173-2.1194,3.2253-2.1417,5.2296-.027,2.4185.8767,3.6592,3.2264,4.4403,2.0693.6879,4.2022.9667,6.286.6353,3.4188.5784,6.5989-.6295,9.8658-.7732.6949-.0305,1.3853-.3688,2.0592-.6158.9268-.3397,1.3275-1.0414,1.4112-2.024.2419-2.8392-1.2745-4.8438-4.0358-5.2615Z"/>
    <path class="cls-5" d="m195.3738,306.9892c-1.8655.9231-3.7081,2.0388-5.845,1.9939-3.3525-.0703-6.6578.7812-10.3175.2521.8795,1.6436,1.2191,3.1928,1.282,4.7675.0521,1.3049.7405,1.5557,1.8462,1.6238,4.9818.307,9.4592-1.1047,13.5535-3.8677,1.0214-.6893,1.8492-1.5585,1.9974-2.8518.0911-.7943.142-1.6509-.5478-2.2328-.7238-.6108-1.3589.0132-1.9688.3151Z"/>
    <path class="cls-4" d="m159.2979,232.0781c2.3404-.6065,4.7078-.9562,7.0967-1.2244.975-.1095,1.9152-.01,2.7687.5565,2.104,1.3965,4.2429,1.1508,6.3795.0835,3.8475-1.9218,6.613-5.0066,8.9971-8.4753,1.3295-1.9344,1.8849-2.1298,3.8924-1.0042.5538.3105,1.1077.6744,1.5479,1.125,1.6786,1.7184,3.48,3.3163,4.9736,5.2179,1.7154,2.184,2.1652,2.0927,3.3283-.4225,1.2131-2.6232,1.2574-5.0974-.7474-7.389-.4501-.5145-.8487-.8788-1.6313-.5609-1.5474.6287-3.1542.4169-4.7355.0996-2.1273-.4268-4.2554-.8072-6.4437-.6563-4.2534.0493-8.4551.7058-12.65,1.3026-6.1376.8732-12.091,2.4594-17.6556,5.3071-.9218.4717-1.9128.8829-2.9197,1.0942-1.1425.2396-1.8386.8737-2.3753,1.8265-1.5093,2.6792-2.7657,5.4809-2.9109,8.5779-.1401,2.9877.6545,5.7267,3.2655,7.5892,1.0319.736,1.5196.6007,2.0355-.5624.2902-.6541.4481-1.3683.6487-2.0604.4908-1.693.9057-3.4113,1.4717-5.0786.936-2.7576,2.7463-4.59,5.6639-5.3461Z"/>
    <path class="cls-6" d="m112.7051,305.319c-.4335,2.1228-.602,3.7051.0157,5.252.2802.7015-.0236,1.1722-.7792.9959-1.4497-.3382-2.9771-.4107-4.4504-1.1024.487-1.0797,1.3517-1.6956,2.0526-2.4279.8151-.8517,1.5893-1.7703,3.1613-2.7176Zm-7.3104-25.4955c.1973-.113.5608-.2015.7188-.4314.8864-1.2889,2.2803-1.7074,3.6259-2.2295.4471-.1735.8784-.3958,1.2984-.6292.5118-.2844.5936-.7282.338-1.2261-.4604-.8969-2.5523-1.8487-3.5414-1.6277-1.8246.4075-3.6596,2.7892-3.5824,4.6665.0286.6937.2828,1.2474,1.1428,1.4774Zm7.4551,21.9758c.3233-.3427.5513-.7816.7918-1.1942.1766-.3029.1694-.7263-.1227-.8604-1.6429-.7533-3.2502-2.0737-5.1452-1.496-4.4357,1.3522-8.2452,3.8315-11.5421,7.0851-.9655.9529-1.2676,2.1909-1.3157,3.3407.0096,2.7289,2.002,4.0139,4.4299,2.9135,5.0349-2.2817,9.1489-5.808,12.9039-9.7888Zm24.1226-15.9461c1.0865,1.7363,1.1827,3.54.2139,5.2538-1.2247,2.1664-2.7335,4.1396-4.7177,5.724-2.9044,2.3191-6.2273,2.7985-9.6293,2.3956-5.6692.2983-10.5402-1.6495-15.158-4.406-1.7916-1.0694-3.6694-2.1241-3.9501-4.5284-.3472-2.9739.0515-5.7336,2.0588-8.1489,1.9982-2.4042,4.6688-3.6334,7.5403-4.4609,1.9978-.5757,4.0719-.9039,6.1255-1.2657,3.8873-.685,7.2778.8754,10.549,2.6076,2.9603,1.5676,5.1886,3.986,6.9677,6.8289Zm-17.4054,1.7626c.8267.0194,1.4926-.5978,1.5438-1.4683.0358-.608-.1475-1.1187-.8486-1.1897-.7181-.0728-1.7614.895-1.7599,1.6293.0014.6815.4523.9528,1.0647,1.0287Zm6.349,5.9125c-.2292-.3266-.4747-.6452-.7428-.9402-.5372-.5912-.3837-1.0692.0529-1.6871,1.0207-1.4447.7905-1.9339-.9368-2.2574-.391-.0732-.7958-.0724-1.04-.0928-2.1812.0071-2.4053.3575-1.4771,2.2946.2788.5819.3078,1.0475-.0743,1.5483-.3392.4448-.6876.8834-1.009,1.3408-.1967.2799-.2306.5976.0242.8681.2485.264.6534.3336.8748.1368,1.1504-1.0227,2.205-.9282,3.322.0669.2908.2591.7988.1755,1.0835-.1755.2901-.3575.1639-.7585-.0774-1.1024Zm1.615-7.1253c-.1966-.7513-.7457-1.1315-1.5613-1.08-.6167.039-1.095.3654-1.1052,1.0336-.0137.9069.6031,1.2618,1.4037,1.2818.7451.0186,1.1788-.3997,1.2628-1.2355Zm8.591-12.2515c-1.1723-.6093-2.3597-.2859-3.4444.3388-.7017.4041-1.228,1.0248-1.718,1.6672-.5799.7603-.644,1.428.2534,2.0252,1.0013.6663,1.9369,1.4358,2.9614,2.0618,1.1794.7207,2.0952.4129,2.7553-.7971.36-.66.3694-1.3855.4026-2.1539-.0601-1.1505.081-2.4708-1.2103-3.1419Zm-4.8625,27.4112c-1.148,1.4742-1.6961,4.4773.112,6.1142,1.7944,1.6244,3.8139,2.5941,6.125,3.004,1.6999.3016,2.5174-.4972,2.5358-2.2561-.0046-.8204-.21-1.6181-.6844-2.2571-1.7092-2.3023-4.2012-3.6054-6.6119-4.9931-.5483-.3156-1.0829-.1171-1.4764.3881Zm-10.4514,16.6675c-.3955-.0366-.8023-.0076-1.1986.0373-.322.0364-.5975.1939-.7811.489-.5894.9476.3926,3.7368,1.4854,4.071,1.7607.5385,3.5495.9854,5.3084,1.5292,1.1047.3416,1.4843-.1448,1.5272-1.1442.1251-2.908,1.7542-5.2403,2.8267-7.8699-2.6479,2.3918-5.7269,3.2066-9.168,2.8877Z"/>
    <path class="cls-3" d="m226.437,277.5685c-1.3729-.0817-2.7363-.7562-3.5272-2.1593-.7328-1.2998-.3339-2.6613.4425-3.8488.431-.6594,1.0028-1.235,1.5588-1.8018.4464-.455.9957-.5368,1.4812-.0466,1.4028,1.4164,2.7922,2.8462,4.1716,4.2853.2305.2405.2429.5626.115.8901-.4354,1.1152-2.7997,2.7141-4.2419,2.681Zm26.2003,25.3573c-1.1736,1.5461-1.5375,3.3225-1.5412,4.6016-.2173,5.139,2.6113,7.8176,5.9268,10.1135,1.18.817,2.3495.225,2.8357-1.1551.2487-.7059.2173-1.4406.0178-2.1371-1.1105-3.8752-2.8418-7.482-4.8264-10.9746-.1172-.2063-.2932-.3809-.451-.5621-.7012-.8045-1.3348-.7118-1.9615.1138Zm-20.5185,13.8015c2.2975-2.7963,3.7944-6.0814,5.4039-9.2885.5449-1.0858.2114-2.0084-.7258-2.7439-.9337-.7327-1.9257-1.2304-3.0643-.4968-3.2289,2.0804-4.8954,5.1268-5.4367,8.8455-.017,1.1808.3021,2.2543.7996,3.2638.8696,1.7646,1.7839,1.9284,3.0234.4199Zm26.5912-31.15c1.4238,1.594,1.3338,3.2797.5945,5.1379-1.8802,4.726-5.1328,7.8546-10.1514,9.0491-2.8237.672-5.6624,1.1495-8.5792,1.0146-.9629,0-1.9279-.0406-2.8883.0078-2.6367.1328-4.646-1.0043-6.2379-3.01-1.906-2.4013-3.415-5.0228-4.6129-7.8558-1.8835-4.4543-.4186-8.1221,2.4641-11.511.4135-.4861.9739-.8473,1.3867-1.3338.843-.9935,1.6732-1.055,2.9495-.6244,1.8057.6093,3.8145.8419,5.7013.6082,3.8484-.4766,7.6958-.248,11.5419-.3596.6417-.0186,1.2831-.0519,1.9244-.0825,1.2847-.061,2.5997-.39,3.4513-1.2207.5543-.5407,2.2279-1.3434,1.278,1.0424s-1.1317,5.5786-.0007,7.3231c.3929.606.7038,1.2829,1.1786,1.8145Zm-18.9205,1.1243c.0834-.8239-.2766-1.3629-1.0687-1.4965-1.0291-.0736-2.4725,1.2078-2.4937,2.2128-.0166.7853.3098,1.3896,1.1763,1.5103.9512.1324,2.2708-1.0873,2.3861-2.2267Zm4.5579,4.1242c-.5171-.2656-1.0707-.308-1.747-.3123-.8767-.0344-1.7987.2474-2.6586.6884-.8531.4376-1.1361,1.0977-.5228,1.9638.733,1.0352,1.6735,1.8163,2.9898,1.694,1.3278-.1234,2.0632-1.1539,2.6133-2.2475.3848-.765.0956-1.3909-.6746-1.7864Zm4.2532-6.8907c.0436-.8837-.8232-1.627-1.9423-1.6658-1.095-.038-1.9149.6772-1.8994,1.6572.014.8951.7061,1.4893,1.7643,1.5148,1.1411.0276,2.0338-.6196,2.0775-1.5062Z"/>
    <path class="cls-1" d="m156.1984,304.3939c.3669.1608.7419.3046,1.118.4431,4.9476,1.8206,10.2068,1.8555,15.3301,2.669,1.0236.1625,1.4807-.4045,1.6005-1.3337.0615-.4762.1133-.9578.1144-1.4371.0139-5.8696,1.0106-11.6423,1.7108-17.444.2325-1.9269.3139-3.8361-.3934-5.6943-.2889-.7591-.3555-1.5547-.4351-2.3553-.3093-3.1085-.671-6.2119-.961-9.322-.1396-1.4985-.8125-2.5794-2.1796-3.1958-.8026-.3619-1.6364-.6541-2.448-.9969-1.6234-.6857-3.3015-1.2725-4.8468-2.1049-2.2746-1.2253-2.4818-2.3336-1.0717-4.4518.3105-.4664.6928-.8856.9984-1.3549.6996-1.0744.6094-1.3518-.5844-1.6515-1.787-.4484-3.5887-.8379-5.3758-1.2861-.7225-.1812-1.4444-.3319-2.0849.1277-2.3896,1.7143-5.0713,3.0031-6.886,5.5139-2.7707,3.8333-5.7588,7.5073-9.2767,10.7078-.288.262-.6362.4974-.67,1.2333,4.2024,1.7472,8.0193,4.3378,11.5532,7.3587.6569.5615,1.1913.2728,1.6002-.3453,1.9413-2.9344,4.3287-5.5898,5.5876-8.9528.2236-.5974.4691-1.2042.817-1.7327.3851-.5851.9969-.8075,1.6829-.5103.6021.2608.8199.8116.6818,1.3929-.2401,1.0103-.4453,2.069-.9176,2.976-1.2271,2.3564-2.0377,4.8806-3.1199,7.2855-.9246,2.0546-1.2268,4.1169-1.1415,6.3016.0693,1.7746-.2145,3.4886-.5981,5.2294-.6536,2.9662-1.7218,5.8289-2.0599,8.8781-.2825,2.5478-.1273,3.0087,2.2556,4.0524Zm7.021-31.1495c1.308-.0693,2.3478-.3217,2.4882-1.9444.0716-.8271.7692-1.1762,1.5854-1.1318.7319.0397,1.2741.471,1.3132,1.1696.0779,1.3922.8205,1.9308,2.1069,2.1093.812.1127,1.5836.5081,1.6224,1.4912.0394.9969-.5197,1.7201-1.441,1.9805-1.2717.3594-2.4056.718-2.7255,2.2598-.1456.7017-.8518.8857-1.5459.8627-.7334-.0243-1.2855-.3875-1.3717-1.0969-.1602-1.3163-.8951-1.9433-2.1273-2.222-.9403-.2128-1.162-1.0004-1.1973-1.8541-.1164-.9766.3104-1.5718,1.2925-1.6239Zm-6.7401,22.1098c.4141-2.8772,1.6418-6.1768,3.1343-9.38.4739-1.0171,1.4288-1.3093,2.4464-.7843,2.3637,1.2196,4.9385,1.2879,7.4927,1.4506,4.1037.2614,4.431.6822,3.6763,4.6217-.4675,2.4406-.8464,4.8985-1.2327,7.3538-.2893,1.8394-.8065,2.4279-2.7269,2.1521-3.0106-.4323-6.0948-.3484-9.0385-1.2531-.3828-.1177-.7733-.2231-1.1678-.2882-2.4564-.4054-2.6666-.659-2.5839-3.8726Zm2.8588.8036c.4823-2.429.7996-4.8986,1.7177-7.2237.2755-.6977.5769-1.3947,1.5504-.9819,2.1973.9315,4.5128.9348,6.8411.9466,1.6868.0086,1.9011.3003,1.2435,1.8331-.7053,1.644-1.0452,3.3444-1.2498,5.1008-.2918,2.5062-.3141,2.5017-2.7376,2.422-.3995-.0132-.7997-.0019-1.6939-.0019-1.2047.1088-2.855-.209-4.492-.5961-.7582-.1793-1.3634-.5726-1.1794-1.4989Zm46.3297-25.1482c1.0402,1.2419.9728,2.3464.1845,3.7148-1.5363,2.6669-3.1642,5.1833-5.8452,6.893-2.4445,1.5588-2.7203,1.5453-3.7822-1.0734-.7234-1.7841-1.4151-3.5812-2.1118-5.3761-1.1004-2.8348-2.5261-5.4813-4.4155-7.9818-.5323.7817-.228,1.3996.0041,1.9553,2.639,6.3191,4.1998,12.9439,5.6074,19.6132.7358,3.4861,2.102,6.7397,3.8022,9.8411.5506,1.0043.432,1.5606-.4073,2.219-1.8927,1.4849-3.7208,3.0522-5.6152,4.5349-2.0778,1.6262-4.6163,1.7941-7.087,1.9539-4.3883.2838-3.7963.5191-5.4088-3.566-1.7446-4.4197-1.1756-8.8193-.7012-13.2845.5332-5.0188,1.3076-10.0392,1.2126-15.0839-.0858-4.5505,2.1272-7.9487,4.7123-11.2547,1.2321-1.5756,2.6664-2.9919,3.9894-4.4979,1.2955-1.4747,1.336-2.2781.0557-3.7718-.7711-.8995-1.6828-1.6784-2.7054-2.6825.511-.299.7076-.4286.9164-.5341,3.2302-1.6318,3.6122-1.5604,6.0257,1.2542,2.1469,2.5038,3.9812,5.2311,5.6813,8.0518,1.8627,3.0906,3.5584,6.2943,5.8879,9.0755Zm-89.2782,50.2092c.0594.6513.0175,1.3683-.4585,1.8129-1.5693,1.4656-3.0285,3.0942-5.054,3.9713-.4248.1838-.9342.1724-1.1359.2061-3.7488.0628-5.6229-1.5319-6.1654-4.9221-.2535-1.584-.3694-3.1698-.4426-4.7699-.071-1.5528.5344-2.786,1.4688-3.9374.5936-.7314,1.3344-1.1504,2.2759-1.1262,5.4753.1403,9.0057,3.2199,9.5117,8.7654Zm.5643-6.3854c-3.1345-3.3389-3.7125-9.0613-1.3213-12.9887.4832-.7935.9958-1.5023,2.061-1.3185,2.8657.4943,5.7585.305,8.6404.3478,1.0587.0158,1.5138.3301,1.1743,1.4294-.772,2.4994-.4787,4.914.6411,7.247.8135,1.6949.3699,3.1364-.927,4.3498-1.7428,1.6307-3.6941,2.837-6.1968,2.667-1.6697.1207-2.9703-.5605-4.0717-1.7337Zm24.4601,2.8279c.198.7678.199,1.5865.2438,1.9753-.0343,4.4321-1.8721,6.7938-5.4917,7.9072-2.4602.7567-4.2812-.2032-5.8318-1.8262-1.5641-1.6373-1.48-3.7379-.6567-5.6462,1.0716-2.4837,2.9178-4.4296,5.2991-5.7309,2.6451-1.4455,5.6116.1185,6.4373,3.3207Zm10.4528-92.408c2.2098-1.1422,4.4155-2.3093,6.7007-3.2841,3.242-1.3829,6.5004-2.8533,10.0567-3.1603,1.9267-.1663,3.8191-.4326,5.7081-.7984,6.1038-1.1819,12.2111-1.8387,18.3829-.4072,1.8473.4285,2.452.0041,3.0805-1.7802.8192-2.3258.8754-4.6978.4786-7.1231-.6234-3.8115-1.749-7.4863-2.7448-11.2048-.5991-2.2371-1.8212-3.4919-3.8347-4.1595-2.5853-.8571-5.184-1.687-7.8122-2.398-3.0989-.8385-6.2605-1.3235-9.4706-1.6148-3.3574-.3046-6.5497.0322-9.6369,1.3965-1.3939.616-2.8234,1.1508-4.2245,1.751-4.6862,2.0074-9.0022,4.549-12.5561,8.3037-1.1705,1.2368-1.6318,2.5167-1.3471,4.1314.2231,1.2654.4781,2.5267.2676,4.4014.5753,5.0785,2.1196,10.426,4.7659,15.4555.5596,1.0637,1.2572.9709,2.186.4909Zm14.1472-21.6259c.7147-.3354,1.5054-.5644,2.2866-.6892,1.1349-.1813,1.5229-.7444,1.2203-1.8298-.043-.154-.069-.3129-.0976-.4706-.3667-2.0189-.1975-2.4703,1.0783-2.8814,1.6979-.5472,3.3907-.0677,3.8036,1.447.5522,2.0256,1.7483,2.4678,3.5713,2.193.3846-.058.8074.0026,1.191.0965,1.5881.3884,2.0621,1.8436,1.0513,3.1357-.5859.7489-1.4133,1.0437-2.2916,1.188-1.1553.1899-1.4459.8395-1.1559,1.8896.0849.3076.1451.627.1718.9447.15,1.7903-.5552,2.5466-2.3252,2.5137-1.4932-.0278-2.081-.5046-2.7174-2.2047-.814-2.1741-.8122-2.1638-3.1069-1.7788-.627.1052-1.2672.1718-1.9023.1788-1.0338.0115-1.6058-.5625-1.8289-1.5544-.2293-1.0193.1741-1.7665,1.0516-2.1782Zm88.6423,55.3094c-2.6083-2.1439-5.4548-3.9343-8.1923-5.8858-1.2585-.8971-2.4373-.8874-3.7639-.0205-2.0098,1.3133-4.0799,2.5458-6.191,3.6898-3.465,1.8775-6.7534,3.9984-9.7728,6.5364-1.7106,1.4379-1.8203,1.5454-.4036,3.2303,2.1154,2.5157,4.6242,4.6537,7.0153,6.9025.9953.9362,2.1467,1.3256,3.4903,1.3146,2.4833-.0203,4.9669-.0058,7.4504-.0058,0,.0098,0,.0195,0,.0293,2.4841,0,4.9691-.0391,7.452.0152,1.4058.0308,2.4617-.4391,3.277-1.6014,1.5643-2.2299,3.1476-4.44,4.4438-6.8482.566-1.0519.5411-1.8563-.1888-2.8468-1.3029-1.7679-2.9386-3.1304-4.6166-4.5096Zm-6.2361,5.3714q-.4646,4.1539-4.5173,4.855c-3.5282.6105-4.0051.2758-4.6022-3.2289-.6222-3.652.2186-4.6182,4.4747-4.5712.5416.0797,1.5663.2233,2.5886.3828,2.1663.338,2.2875.4932,2.0562,2.5623Zm14.552,69.2693c.2349.8773-.1292,1.4-.9854,1.5856-1.0178.2208-2.0432.4066-3.0638.6146-2.5852.527-5.223.8141-7.6755,1.915-1.0267.4609-2.1798.4653-3.3098.5016-2.4819.0799-4.9622.1033-7.4425.3669-2.3391.2486-4.5977-.573-6.8641-1.0285-1.9562-.3932-3.8417-1.13-5.7693-1.6767-.9714-.2755-1.1527-.7487-.9584-1.7709.9366-4.9269,3.3369-9.1655,6.1535-13.1776,2.7948-3.9811,4.6521-8.3975,6.4796-12.8492.6851-1.6688.3768-3.1082-1.028-4.3795.1204-.168.2408-.3359.3611-.5039,1.8373,0,3.6746.0092,5.5118-.0027,1.7336-.0112,3.3973-.7596,5.0583-.6776.3262.5838.1135.9444-.0264,1.3104-2.0647,5.3998-.5873,9.9055,3.5571,13.6604,1.3631,1.2349,2.8688,2.2657,3.3221,4.2316.1583.6862.8329,1.1609,1.4047,1.6086,3.3385,2.6136,4.2563,6.4683,5.2748,10.2719Z"/>
  </g>
  <g id="girl_color" data-name="girl color">
    <path class="cls-4" d="m268.289,190.0344c-.3897-.2377-.8865-.4452-.8669-1.0328.1559-.264.4114-.2947.6216-.204,2.9202,1.2601,6.1143,1.2659,9.1387,2.0259,1.4288.3591,2.6663.1963,3.921-.4958,2.5333-1.3975,5.207-2.4995,7.8484-3.6705,4.1044-1.8196,8.0707-4.0677,12.3267-5.3905,3.257-1.0123,4.8401-3.4916,6.9583-5.5814.3428-.3382.5396-.8389.3196-1.3291-.301-.6707-.9206-.5257-1.4695-.447-2.0759.2974-4.1725.1229-6.2496.2744-3.2873.2397-6.5366.6519-9.3846,2.6027-1.4644,1.0031-3.1835,1.6047-4.9003,1.9407-2.6228.5132-5.1688.469-7.6425-1.0813-3.1043-1.9454-4.8674-4.8153-6.3714-7.952-.832-1.7355-1.4487-3.5847-2.387-5.2566-2.0308-3.6189-3.3832-7.4382-3.9357-11.5475-.1632-1.2136-.3627-2.4222-.5594-3.7255-.7264.4373-.6019.9811-.7485,1.4147-.1796.5311-.3185,1.0804-.5462,1.5902-2.1817,4.886-2.0834,9.8845-.2943,14.7758,1.6696,4.5646,2.6873,9.4189,5.8425,13.3892,1.252,1.5754.3385,2.8741-1.768,2.8818-1.957.0072-3.5832-.889-4.9869-2.1273-1.7427-1.5372-3.4586-3.1151-4.8256-5.0287-.3331-.4661-.5611-1.1759-1.5183-1.1381,0,.9124.0153,1.7875-.0026,2.662-.0804,3.9272.2264,7.8704-.5089,11.7708-.5469,2.9014-2.69,3.987-5.3003,2.6577-.8112-.4131-1.3306-1.1422-1.9167-1.8007-1.973-2.2172-2.6804-5.0803-3.9255-7.6685-.9771-2.0308-1.0206-4.178-.7708-6.3627.6661-5.8242,2.8815-11.1514,5.2873-16.4116.5725-1.2518,1.4294-2.386,2.5573-3.154,1.8715-1.2742,3.0586-3.0026,3.9926-5.0032.548-1.1737,1.4067-2.1445,2.5117-2.8636.3517-.2289.7573-.3813,1.1237-.1375.3687.2454.353.6908.3112,1.0959-.1258,1.2216-.8486,2.2476-1.1291,3.4183-.5153,2.1515-1.7825,3.7331-3.6487,4.8753-5.7471,3.5173-8.0713,8.8929-8.2579,15.3809-.0691,2.4055.0236,4.8157.0491,7.2238.0085.804-.0327,1.6524.5135,2.3063,1.445,1.73,3.086,3.3065,3.9182,5.7722.7967-1.1538.6885-2.0598.6997-2.918.0443-3.371.0468-6.7426.0748-10.114.0133-1.6052.0408-3.2072.3447-4.7963.2995-1.5661,1.1327-2.8125,2.2029-3.9293,1.241-1.2949,4.0452-1.1943,4.4659,1.2957.2134,1.2636.5128,2.5186.863,3.752.7701,2.7117,3.1124,5.554,5.2897,6.5145-1.8244-4.2095-2.9066-8.6627-4.2133-13.0376-1.027-3.4384-1.1072-6.9824-.2428-10.478.4406-1.7817,1.2177-3.4777,1.7177-5.2478.4595-1.6271,1.306-3.0079,2.7223-3.8169,1.1128-.6356,1.0204-1.3271.9241-2.3676-.3434-3.712-.0081-7.3737,1.3022-10.8986.2051-.5518.3346-1.2524,1.3209-1.2655-.3434,2.9953-.3112,5.946-.2859,8.8982.0308,3.6125,2.2769,5.7084,5.3013,8.1088-.4798-4.5122,1.2573-7.7596,3.2141-10.915.8023-1.2937,1.7563-2.4923,2.6121-3.7541,4.9494-7.2979,11.6788-12.2568,19.9708-15.1207,2.0405-.7048,4.2216-1.0267,6.2209-1.8199,2.0999-.8332,4.2297-1.5477,6.4116-2.0436,3.083-.7007,6.04-.3653,8.6844,1.621,2.6232,1.9705,5.3091,3.8574,7.9548,5.7983.7423.5446,1.5549.7569,2.4614.8374,2.8754.2553,5.7431.5978,8.6186.852,4.8991.433,8.325,3.4556,11.6796,6.5986.3356.3144.5305.8025.7239,1.2394.2629.5938.4799,1.249.0116,1.8219-.519.6351-1.1976.3315-1.7719.0892-.6592-.2783-1.3074-.6224-1.8882-1.0388-1.6948-1.2152-3.4166-2.4056-5.0108-3.7449-2.1207-1.7818-4.5443-2.6259-7.2582-2.8549-6.5592-.5537-12.488-2.6823-17.4847-7.0991-.2997-.265-.6445-.4784-.9568-.73-1.3842-1.1147-2.9568-1.5198-4.724-1.3943-1.3754.0977-2.7349.2807-3.9896.8278-4.2031,1.8328-8.7046,2.7508-13.0276,4.223-4.3393,1.4778-7.9182,3.7859-11.0499,6.9703-3.3725,3.429-5.6332,7.6081-7.5917,11.921-1.0171,2.2397-1.7954,4.684-.522,7.1943.1708.3367.1172.7866.17,1.1838.3807,2.8651,1.3102,5.433,3.686,7.3159,1.1292.895,2.1151,1.9681,3.2079,2.9117,2.6159,2.2586,5.2805,4.4526,8.4786,5.8754,2.0433.9089,4.0744,1.177,6.3032.5091,3.862-1.1573,7.697-2.4294,11.1111-4.5491,4.2169-2.6181,8.2388-5.5532,12.3073-8.4052.8531-.598,1.6448-1.2774,2.5942-1.7299,4.8666-2.3194,9.8277-3.3532,15.1361-1.4771,3.9439,1.3939,7.858,2.8055,11.3282,5.2136.6796.4717,1.3919.9443,1.2287,1.883-.1694.9741-1.0497,1.1068-1.8431,1.2615-.6299.1228-1.2697.195-1.8989.3207-2.8536.5698-5.7476.5671-8.635.5724-4.1429.0075-7.876,1.3114-11.379,3.4166-.4096.2462-.801.5616-1.2459.7023-.9521.301-2.53-.1273-2.5737-.6646-.0813-.999.7433-1.3555,1.4243-1.7359,3.8247-2.1364,7.8292-3.6716,12.2867-3.8525,2.379-.0966,4.749-.4126,7.3836-.6534-.5805-1.1686-1.4088-1.382-2.1175-1.6841-1.6966-.7232-3.4299-1.3614-5.1553-2.0157-5.1172-1.9406-9.5886-.7203-13.5444,2.8387-1.3245,1.1917-2.8297,2.1047-4.3113,3.0636-.7391.4783-1.5344.9067-2.1708,1.5005-5.1907,4.8439-11.4518,7.554-18.1968,9.4235-4.5584,1.2634-8.7283.4422-12.736-1.7861-5.9532-3.3099-10.269-8.3997-14.4603-13.5746-1.6584-2.0476-3.2972-4.0451-5.3515-5.6127-.4796.3554-.4708.6833-.424.9913.4711,3.0952.9457,6.1873,2.1183,9.1234,1.8511,4.6351,4.4669,8.883,6.7281,13.3096.6906,1.3519,1.6665,2.5459,2.894,3.506,2.0705,1.6195,4.2002,2.3118,6.6125.6802.7269-.4916,1.5949-.7798,2.3042-1.2915,1.7373-1.2533,3.7089-1.8159,5.7535-2.3303,3.6252-.9121,7.311-.8983,10.9969-1.0405,4.4421-.1713,8.7875.0275,12.9525,1.9283,2.2427,1.0235,4.4357,2.1392,5.7556,4.1824,1.449,2.2432,3.4299,3.5457,5.7903,4.4331,4.8245,1.8138,9.5433,1.7635,14.0677-.9678.4803-.2899.954-.6115,1.4714-.8148,1.1153-.4382,1.6954-.1197,1.8318,1.0799.1265,1.1129.0494,2.248.1557,3.3644.1338,1.4061.5795,2.6872,1.6751,3.692.568-.5658.4766-1.0757.5631-1.5367.3682-1.9638.4278-3.9917,1.3187-5.8445,1.2515-2.6027,2.5177-5.2005,3.68-7.8433,1.8715-4.2551,4.1413-8.3286,5.6227-12.7657.7538-2.2574,1.1165-4.5278.8661-6.848-.4214-3.9058-.9686-7.7999-1.5557-11.6849-.1779-1.1768-.5494-2.3571-1.0316-3.4477-.7841-1.7739-1.4095-3.5865-1.7784-5.4822-.8369-4.3002-2.9794-7.5804-6.704-10.0903-3.1758-2.1401-6.2614-4.4597-9.2007-6.9691-4.2659-3.642-8.4259-7.4393-13.1743-10.4825-2.6182-1.6779-5.1035-3.6129-8.5452-3.2903-.9801.0918-2.0161-.4595-3.032-.6909-.8579-.1954-1.7228-.4993-2.5867-.5067-6.18-.0529-12.3606-.066-18.5408-.0372-1.8824.0087-3.684.5568-5.2234,1.6287-2.7639,1.9247-5.4742,3.9298-8.1556,5.969-4.1198,3.1332-7.0675,7.4354-10.799,10.9647-1.3329,1.2607-2.5723,2.6771-3.5918,4.1984-1.3753,2.0522-2.8998,4.1193-3.1657,6.6788-.3065,2.951-1.7869,5.2764-3.5891,7.4697-2.6776,3.2587-6.2123,5.5466-9.3762,8.2562-3.2678,2.7985-5.8618,6.0354-7.3608,10.2065-2.4085,6.7017-3.6618,13.6418-4.6057,20.6342-.6486,4.8052.3542,9.2919,4.3382,12.6262.6345.5309.7491,1.1725.5153,1.9471-.3102,1.028.0478,1.8572.7872,2.6104,2.8205,2.8732,5.8735,5.4344,9.2471,7.6637,3.1693,2.0943,6.1317,1.6021,9.2491.0223-.1647-.2233-.2302-.3837-.3495-.4606-.3837-.2475-1.0236-.2996-.946-.9213.0895-.718.7535-.7715,1.3004-.7927.5539-.0214,1.1171.0682,1.669.155,1.0303.1622,2.0502.3983,3.0837.5306,2.0938.2681,4.1868.297,6.1097-.7407,1.9408-1.0473,2.0676-1.7089.5714-3.2652-1.9989-2.0792-3.9177-4.2576-6.4216-5.7852Z"/>
    <path class="cls-4" d="m370.0198,161.3828c2.2486,2.4009,3.485,5.1987,2.8095,8.5542-1.3112,6.5143-2.3083,13.1096-4.6875,19.3626-.969,2.5466-1.1646,5.1179-.7333,7.7983.667,4.1458,2.0185,8.0708,3.5959,11.9371.3726.9133,1.0149,1.4289,1.953,1.5771,3.1234.4935,5.9844,1.7798,8.892,2.9223,1.8021.7081,3.4173.7189,4.7782-.9313.4508-.5466,1.1282-.8994,1.645-1.3997,1.1472-1.1105,2.5925-2.0179,3.2385-3.5099.9219-2.1296,1.6671-4.3421,2.3774-6.5546.4362-1.3583.165-1.6866-1.2931-1.9091-1.187-.1811-2.4008-.2053-3.5776-.4307-2.1606-.4138-2.4729-1.0109-1.923-3.1929.28-1.1107.826-2.0769,1.4473-3.0204,1.7205-2.6127,3.5123-5.1836,5.1176-7.8658,3.2701-5.464,5.1749-11.3578,5.2264-17.7789-.0143-2.7434-.0559-5.4897-1.3663-7.9857-1.6788-3.1976-3.6364-6.1962-6.0993-8.8849-2.0439-2.2313-4.4112-3.9518-7.0416-5.3616-1.0006-.5363-2.0864-.8934-3.2361-.7775-3.9927.4028-7.9966.9215-11.8108,2.134-2.6337.8372-4.4749,2.7714-4.6228,5.8287-.0347.7183-.133,1.4402-.2776,2.1448-.2337,1.1382.1158,1.9745.9793,2.7676,1.5934,1.4636,3.1294,2.9964,4.6087,4.5759Zm5.8337-8.7773c2.7536-1.269,5.596-1.4838,8.4057-.3172,4.6322,1.9234,8.7797,4.619,12.3751,8.1448.9104.8928,1.4633,1.908,1.4258,3.1893-.0421,1.4421.1695,2.8673.1364,4.3188-.1078,4.7327-2.9669,8.0295-5.7617,11.3295-2.9641,3.4999-5.6301,7.1657-7.7688,11.2402-1.6416,3.1274-3.3149,6.2286-4.4285,9.5897-.6735,2.0323-.468,2.3705,1.4926,2.9327,1.6439.4713,1.7295.389,1.5495-1.4888-.1461-1.5251.7856-2.4578,2.2863-2.2888,2.5043.2822,4.2012,3.5274,2.9601,5.7078-.6301,1.1069-1.7227,1.4545-2.8882,1.3563-2.7463-.2312-5.3076-1.1963-7.8335-2.2242-.9675-.3938-1.185-1.2581-.9132-2.2177.4367-1.5421.8401-3.0988,1.3811-4.605.9758-2.7168,2.0233-5.4086,3.0786-8.0959.7961-2.0272,1.9888-3.8062,3.2913-5.5619,2.2015-2.9676,4.8099-5.5848,7.0392-8.5193,1.7224-2.2673,2.9566-4.7611,3.4968-7.5796.567-2.9583.1343-5.5283-2.4012-7.5549-3.0212-2.415-6.1628-4.6185-9.7446-6.1005-2.6452-1.0945-4.9563-.8879-7.1187.4755.9836.6569,2.0746.9161,3.1113,1.2582,4.1209,1.3597,7.1708,4.154,9.9668,7.3102.732.8264.744,1.7313.3868,2.697-.5286,1.4293-1.0303,2.8701-1.6089,4.2791-.5472,1.3323-1.1421,2.6035-1.2009,4.1158-.0596,1.5342-2.2684,2.383-3.4861,1.4425-.7925-.6122-.3614-1.3215-.0081-1.9318,1.2518-2.1624,2.0645-4.5205,3.107-6.7748.9829-2.1254.4561-3.8621-.993-5.5172-1.6716-1.9092-3.7043-3.306-5.9987-4.3322-1.097-.4906-2.2468-.8619-3.3563-1.3263-.7084-.2965-1.8738-.2369-1.9436-1.1312-.0892-1.142,1.1085-1.4264,1.9636-1.8205Z"/>
    <path class="cls-7" d="m315.9469,189.3952c.9076-.5016.802-1.1408.7723-1.7859-.0944-2.0504-1.2308-3.6152-2.4004-5.15-.4688-.6151-.9702-1.4958-1.8821-1.2357-.8764.2501-.8209,1.2822-1.0905,2.0146-.0275.0746-.0349.1565-.0533.2346-.2239.9518-.0314,1.4455,1.1232,1.5681,3.0811.3271,3.7069,1.1334,3.5307,4.3542Z"/>
    <path class="cls-7" d="m262.2367,271.8276c1.0949-.8823,2.1448-1.8201,3.2609-2.6712,3.5425-2.7014,8.9781-3.7496,12.2514,1.1469,1.4005,2.0951,3.4066,3.5986,5.2244,5.2905.8771.8165,1.6918.9115,2.8294.6081,8.2324-2.1957,16.1772-5.2583,24.2413-7.9594.9133-.3058,1.8168-.7179,2.3983-1.5385,1.4836-2.0937,2.9828-4.1793,4.3764-6.3324.7103-1.0976.4863-1.5887-.7422-2.3017-.9015-.5232-1.9018-.9045-2.7272-1.5236-1.2758-.9567-2.3063-.8913-3.6818-.024-3.7242,2.348-7.4126,4.7794-11.6444,6.2183-3.725,1.2665-7.4611,2.4903-11.2474,3.5546-.8401.2362-1.7327.318-2.6077.3921-3.2701.2769-6.3839-.4426-9.4261-1.5599-2.3749-.8721-4.5266-.5704-6.5695.9905-1.9127,1.4614-4.7362,3.6774-5.6864,4.4459-1.0173.8228-.8361,1.7368-.2493,1.2639Z"/>
    <path class="cls-7" d="m304.8553,288.1759c6.351-.2755,12.6065-1.1948,18.8059-2.5851,4.9969-1.1206,9.1409-3.6111,11.9648-7.8652,1.8951-2.855,3.3826-5.9922,4.9099-9.0739.6016-1.2137,1.1097-2.4821,1.7266-3.6994.9679-1.9103.8549-2.2276-1.0187-3.1266-1.2285-.5895-2.4879-1.1158-3.741-1.6527-2.6556-1.1376-5.3816-1.4672-8.2345-.8392-1.8785.4135-3.7786.8146-5.6894.9686-1.5074.1215-2.2817.7795-2.8456,2.1207-.968,2.3019-2.2651,4.4176-4.0281,6.2349-1.1107,1.1448-2.2925,1.9732-3.9838,1.8665-.8903-.0562-1.747.2476-2.576.5534-8.2133,3.0297-16.6088,5.4722-25.0411,7.7974-1.7809.4911-3.3123.3331-4.4169-1.4062-.3762-.5923-.965-1.0744-1.5255-1.5204-1.7052-1.3571-3.2175-2.8671-4.4799-4.668-1.7729-2.5291-3.5028-2.8808-6.2379-1.4691-.8632.4456-1.6295,1.0297-2.254,1.7805-.5247.6306-1.152,1.0349-1.9464,1.3267-3.2779,1.2043-4.3522,3.0965-3.8494,6.4976.2502,1.6927.696,3.2725,1.8988,4.5903.7538.8259,1.3749,1.7764,2.0258,2.6923,1.9194,2.7013,4.4229,3.6963,7.74,3.0722,5.2775-.9929,10.5609-2.1354,15.9948-1.6005,2.714.2672,5.4169.6849,8.1187.3586,2.94.337,5.801-.2283,8.683-.3533Z"/>
    <path class="cls-1" d="m350.9913,250.3589c2.6756-1.6561,4.4408-3.7152,6.2849-5.6808.4722-.5033.6157-1.1356.3096-1.7787-1.3369-2.8099-2.5875-5.6685-4.4869-8.1699-.6598-.869-1.4142-.9107-2.2807-.2965-1.3184.9343-2.3274,2.1671-3.3947,3.3571-1.0035,1.1188-1.034,2.1799-.3724,3.4894,1.4343,2.8392,3.0348,5.6086,3.9402,9.0793Z"/>
    <path class="cls-7" d="m333.6683,215.9101c1.047.9211,2.1347,1.7099,3.5266,1.9338,2.2946.3692,4.5934.7189,6.8983,1.016,2.1868.2819,4.4448.1588,6.3498-.8646,3.3911-1.8215,6.4832-4.145,9.2175-6.8831,1.253-1.2548,1.1673-1.6632-.5842-2.2919-1.9519-.7006-3.3373-1.9349-4.0318-3.8429-1.316-3.6155-3.8392-6.6573-4.8789-10.4019-.1229-.4426-.5202-.804-.762-1.2195-1.6534-2.8412-3.3861-5.6365-3.7357-9.0359-.1281-1.246-.4981-1.3744-1.8328-.8514-3.5067,1.374-7.0798,1.8718-10.8481,1.3259-2.13-.3087-3.99-1.074-5.8116-2.1365-1.0811-.6306-1.4265-.3979-1.4814.8489-.0564,1.2809.0682,2.5721-.0267,3.8484-.185,2.4885-.5615,4.8951-2.1275,7.0256-2.4256,3.2998-5.9621,4.1389-9.662,4.6852-.8337.1231-2.0884.337-2.2563-.7307-.1815-1.1544,1.1578-1.073,1.9408-1.3037,2.981-.8787,5.6559-2.2493,7.7693-4.5906.5423-.6007,1.0911-1.2007,1.259-2.0153,1.6283-7.9002-1.2045-13.4092-9.3867-16.1906-1.6858-.5731-2.7241.0226-3.4678,1.6576-.498,1.0948-.912,2.23-1.4502,3.3038-.698,1.3925-1.6304,2.6734-3.2094,3.0715-2.7493.6932-5.2227,2.0511-7.8049,3.1243-3.6974,1.5367-7.3654,3.2072-10.8564,5.1595-3.4724,1.9419-6.8702,3.5117-10.9291,2.1623-.0532-.0177-.1398.0649-.3749.1835.6752,1.1163,1.7296,1.853,2.5933,2.7471,2.274,2.3541,2.2139,2.9539-.9444,4.8525,1.6992.9404,2.4511,2.3977,3.5469,3.5545,1.9553,2.0642,2.9815,4.499,2.998,7.3872.0122,2.138.1992,2.2894,2.2988,2.5713,2.1694.2913,4.2289.8109,6.1017,2.0366,1.0663.6979,2.2669,1.2021,3.4356,1.7305,5.3581,2.4221,10.6776,3.0108,16.2062.2661,4.1472-2.0588,7.7739-4.7621,11.2231-7.7686,2.268-1.977,4.1675-1.883,6.2638.2914,1.668,1.7302,3.0145,3.743,4.8339,5.3438Zm-46.7319-10.0356c-2.5124-.0528-5.5842-3.2368-5.5667-5.7699.0149-2.1466,3.4524-4.4854,5.4845-3.6389,1.324.5516,2.5753,1.3036,3.6124,2.3298.3342.3306.6744.7197.8364,1.1484.7446,1.9705-2.2288,5.9754-4.3666,5.9305Zm24.4917-13.3586c.2784-.6765.7559-1.2136,1.1448-1.814,1.4096-2.1764.782-3.6229-1.73-4.0966-2.0699-.3904-2.1376-.4758-1.683-2.4749.3188-1.4021.6558-2.8076,1.2983-4.1017.5836-1.1755,1.2446-1.4297,2.3002-1.01,2.4052.9565,6.0316,6.4542,5.9616,9.2852-.0148.0805.0083.4392-.1418.6971-1.1727,2.0159-2.5873,3.8211-4.6906,4.9517-.4966.2669-1.0647.3222-1.6331.1648-.8576-.2375-1.1895-.7198-.8264-1.6017Z"/>
    <path class="cls-1" d="m329.3975,235.5661c.0469-.0638.085-.1367.1149-.2103.3317-.8175-.2613-2.4191-1.1105-2.9193-.8812-.5191-1.3251.2598-1.8124.7126-1.1133,1.0344-2.1628,2.1371-3.2518,3.1982-.6622.6451-1.0439,1.3892-1.0418,2.3357.0038,1.7708.2742,3.475,1.2945,5.654,1.9214-3.3441,3.8295-6.0818,5.8073-8.7708Z"/>
    <path class="cls-5" d="m440.1212,329.2292c-.4482-1.4746-.9929-1.6254-2.2975-.7418-1.0597.7177-1.9996,1.6097-3.0351,2.3663-1.7037,1.2449-3.2867.8228-3.9971-1.1-1.5882-4.2988-3.5765-8.4202-5.6693-12.4807-1.13-2.1923-2.4686-4.2969-4.1788-6.1452-2.6965-2.9144-4.7947-6.2694-6.0427-10.0207-1.7527-5.2684-3.7458-10.3965-6.6602-15.1465-1.0898-1.7761-1.948-3.6945-3.0411-5.4684-1.0975-1.7809-2.3493-3.5217-4.4834-4.1583-1.6812-.5014-3.3768-.9352-5.1642-1.0912-3.0307-.2645-6.0201-.8746-9.0854-.9614-2.1262-.0602-2.8647-1.6366-1.8779-3.5451.2176-.4208.5179-.8241.8611-1.1505,1.6447-1.5642,1.3593-3.2913.4568-5.062-.8289-1.6263-2.2239-2.7041-3.6732-3.7401-1.8265-1.3055-3.824-2.533-4.9399-4.5081-1.3732-2.4305-2.6124-4.9628-3.0131-7.8141-.3568-2.5383-.757-5.0803-1.3344-7.5753-.6179-2.6702-1.0527-5.3453-1.1056-8.0831-.0419-2.1675-.1904-4.2977-.788-6.4232-.4718-1.678-.6495-3.452-.7103-5.2315-.0737-2.1593-.3388-4.3147-.5851-6.4645-.1318-1.1506-.6819-2.1608-1.55-2.9197-.9045-.7905-1.8939-1.4852-2.8572-2.207-.7818-.5857-1.3194-.3904-1.6213.5364-.4967,1.5244-1.6456,2.5773-2.8057,3.5455-3.2043,2.6746-6.6955,4.941-10.5626,7.0845,2.6534,1.5284,5.0346,2.9982,7.6779,4.0146,2.6309,1.0115,5.042,2.4874,7.3683,4.0614,1.7394,1.1769,3.3058,2.5838,3.8168,4.7775.5459,2.3439,1.1965,4.6724,1.5764,7.0438.4729,2.9519.7136,6.0039-.9377,8.6828-2.1037,3.4127-4.1831,6.8519-6.6145,10.0533-.9388,1.2362-2.0789,2.2379-3.5132,2.8525-3.2166,1.3783-6.5758,2.0863-10.0728,1.7646-1.2151-.1118-1.7851.2975-2.1293,1.3729-.5656,1.7667-1.376,3.4286-2.3833,4.9838-1.5276,2.3586-2.8276,4.8646-4.3464,7.2097-2.554,3.9432-5.7772,7.2529-10.4498,8.8127-7.9238,2.6454-16.1395,3.4091-24.3984,3.8864-3.2941.1903-6.53.4299-9.5876,1.8924-2.0213.9669-4.1169,1.8822-6.2781,2.4327-5.7715,1.4699-11.2189,3.8663-16.8768,5.6472-1.6586.5221-2.7621,1.4816-3.2548,3.2092-.8149,2.8577-1.8203,5.65-3.165,8.3142-.4326.8569-.7374,1.792-.7424,2.7733-.0098,1.9291-.1702,3.8432-.4222,5.7549-.2005,1.5214.2778,2.8055,1.3411,3.9527,1.6356,1.7646,3.1697,3.5901,5.4533,4.6221,1.2319.5567,2.3259,1.4189,3.4802,2.1466,1.0429.6574,1.6569,1.6184,1.4429,2.8321-.5714,3.2417.2785,6.3859.5233,9.5703.0614.7979.1556,1.6041.346,2.3792.437,1.7791.8339,2.1074,2.6539,2.1023,1.602-.0045,3.2131.061,4.8013-.2623,4.512-.9185,8.8927-.5259,13.2382,1.0443,6.0455,2.1844,12.3409,3.5164,18.537,5.1871,1.3115.3536,2.5289.3726,3.7232-.2859,2.1161-1.1666,4.4253-1.5828,6.7617-1.2693,4.6184.6196,9.2571.8287,13.8993,1.0999,2.6364.1541,5.2659.549,7.8779.9655,3.9633.6318,7.9183,1.2044,11.9478,1.2865,4.2456.0865,8.4859.3666,12.7111.8699,3.3079.3939,6.528-.5342,9.7897-.8519,1.739-.1694,3.3246-.6975,4.632-1.819,2.4039-2.0623,5.0754-2.584,8.0911-1.7504,2.7029.7473,5.5723.7842,8.0662-.194,3.9424-1.5464,8.0981-2.6591,11.7264-4.9658,1.9155-1.2179,3.992-2.09,6.1964-2.5775,4.4572-.9858,8.9277-1.9155,13.4062-2.8,1.9205-.3793,3.7008-.8733,5.148-2.3518.7036-.7189,1.0568-1.3293.7886-2.3021-.7035-2.5526-1.3188-5.1312-2.0885-7.6632Zm-20.1464,6.9613c-1.7383.284-3.5104.7339-5.2401.6314-6.1231-.363-11.7227,1.5369-17.285,3.6708-1.5371.5898-3.0758.9436-4.7016.5931-1.4658-.316-1.8508-1.0903-1.2693-2.4665.3474-.822.8987-1.5181,1.506-2.1637,4.3627-4.6377,9.3612-8.2665,15.6135-9.9584,1.5797-.4275,1.7623-.7549,1.0042-2.2101-1.342-2.576-2.2517-5.3069-3.3032-7.9949-.7819-1.9992-2.1505-3.7528-3.8924-5.1198-1.1472-.9002-2.1652-1.9267-2.9298-3.1657-2.2617-3.6649-5.5927-6.1951-9.1816-8.3391-6.6122-3.9501-13.4401-7.5482-19.6019-12.2158-1.0123-.7668-1.9997-.9418-3.1221-.3582-1.0551.5486-2.3116.6863-3.3185,1.6375.2733.9149,1.1026,1.3077,1.8054,1.7581,2.6188,1.678,4.5258,3.892,6.1546,6.5911,2.9786,4.9361,5.2849,10.0712,6.4989,15.7089.3885,1.8037,1.0657,3.5298,1.7571,5.2454.8735,2.1672,1.493,4.3976,1.6417,6.7538.0961,1.5246-.3586,2.6757-1.7781,3.3584-2.9253,1.407-5.3588,3.5153-7.8598,5.525-1.8351,1.4748-3.7625,2.7452-6.1735,3.054-1.8097.2318-3.5533.042-5.0535-1.0566-1.9486-1.4269-4.0114-2.6558-6.1039-3.8511-1.8169-1.0379-3.4545-2.3163-4.9561-3.7936-1.3027-1.2817-1.6448-2.6226-.9814-4.3474.9597-2.4953,2.2949-4.7631,3.8002-6.9534,2.304-3.3525,2.1439-5.1086-.4256-8.148-2.4791-2.9322-5.362-5.5526-7.1341-9.0467-.4575-.9019-1.0512-.8201-1.7183-.1893-1.2402,1.1728-2.257,2.5225-2.9768,4.0554-1.362,2.9005-2.8828,5.7374-3.884,8.7921-.3991,1.2175-1.327,1.7531-2.3325,2.2679-3.1422,1.6087-6.343,3.1001-9.4023,4.874-6.0539,3.5099-11.8575,7.3636-16.9633,12.1846-1.118,1.0556-2.3393,1.6371-3.9002,1.4794-2.0393-.2061-2.8909-.8461-3.2399-2.8809-.6516-3.7989-.9999-7.6538-.759-11.4888.1166-1.8568-.5175-2.9117-1.9431-3.719-2.3052-1.3053-4.671-2.4885-7.116-3.5223-3.0282-1.2803-6.0712-2.5411-8.8716-4.2971-.395-.2476-.8503-.4211-1.0859-.8755.4369-.7997,1.0585-.4075,1.473-.2037,5.4957,2.7012,11.5046,4.0499,17.0876,6.5145.4404.1944.8888.3719,1.3229.5793,2.3632,1.1293,3.8538,2.6876,3.4338,5.6304-.3756,2.6321.2206,5.2772.4408,7.9122.1057,1.265.4684,1.4065,1.4808.6436,2.114-1.593,4.1821-3.2485,6.3222-4.8051,5.0136-3.6466,10.3905-6.7277,16.0162-9.2697,3.2898-1.4865,5.381-3.8502,7.2103-6.7398,1.9725-3.1159,3.9607-6.2397,6.7643-8.7197.3607-.319.7059-.6582,1.0854-.9531,1.3499-1.0487,2.1259-1.0291,3.3348.2233.7771.805,1.4698,1.6993,2.1384,2.5997,1.9795,2.6662,4.6198,4.6711,6.9393,6.9962.8539.856,1.6449,1.7522,2.2821,2.7858,1.4709,2.3858,1.6793,4.7663.2083,7.2632-1.2208,2.0723-2.5095,4.117-3.4366,6.348-.8566,2.0613-.7083,2.4095.9409,3.9557,2.4967,2.3409,5.7055,3.5692,8.4522,5.515.6116.4333,1.217.2701,1.7762-.1569.7653-.5845,1.542-1.1546,2.2932-1.7567,2.2567-1.8088,4.55-3.5546,7.1332-4.8956,1.5607-.8102,1.692-1.188,1.4052-2.8867-.0267-.1581-.0569-.3176-.1069-.4694-2.8301-8.5949-4.6479-17.5517-9.2618-25.5094-1.0095-1.7411-2.4092-2.9703-4.0129-4.0571-1.1943-.8093-2.4702-1.5084-3.454-2.5973-1.2779-1.4143-1.2626-2.4316.3524-3.3029,2.3967-1.293,4.8752-2.4716,7.5359-3.1379,1.379-.3454,2.7254-.0488,3.8785.8226,6.6888,5.0538,14.0669,8.9609,21.408,12.9362,4.2142,2.282,7.9335,5.1544,10.5609,9.2703.6933,1.0862,1.7262,1.8618,2.6729,2.7318,2.0667,1.8994,3.9701,4.0089,4.7613,6.8036.6197,2.1888,1.5883,4.183,2.7541,6.121.7413,1.2322,1.3405,2.5587,1.9099,3.8831.6644,1.5452.2731,2.3637-1.3011,3.0057-.8323.3395-1.7203.3549-2.5974.4555-3.6004.4131-6.639,2.1064-9.4825,4.3146,4.6184-1.2701,9.3409-.2964,13.9333-1.0013,1.0213-.1567,2.0907-.0605,3.0989.2664.7189.233,1.3589.6264,1.3788,1.4746.021.9016-.6891,1.2736-1.4099,1.3912Z"/>
    <path class="cls-5" d="m313.0881,249.6333c.4257,2.382,1.5627,4.1663,3.7679,5.2373.9379.4555,1.9025.8856,2.7641,1.4627,1.6646,1.1149,3.4232,1.2884,5.293.757,3.0427-.8646,6.209-.7044,9.3038-1.1374.8743-.1223,1.765-.0173,2.6228.2361,4.6885,1.3854,9.4983,2.3076,14.1561,3.8295,3.8107,1.2451,6.8434.1836,9.3209-3.0007,1.5271-1.9628,2.9506-4.0063,4.4814-5.9662,2.3053-2.9515,3.1991-6.2795,2.6183-9.9465-.5108-3.2248-.6613-6.7377-3.5567-8.9053-2.6063-1.951-5.3265-3.7982-8.0705-5.5261-2.2705-1.4298-4.7186-2.7659-7.2026-3.8199-4.5831-1.9449-9.0726-4.213-14.4768-3.2363-3.3979.614-6.4818,1.6761-9.4496,3.3082-3.6115,1.9861-5.7799,4.7896-5.2742,9.1446.0184.1583-.0054.321.0004.4813.0396,1.1053-.3898,1.7602-1.326,2.5441-2.9986,2.5107-6.3265,4.9994-5.3411,9.2671-.0408,2.0911.0839,3.6773.3686,5.2704Zm30.7896-11.3591c1.7438-2.748,3.8336-5.1172,6.9442-6.424,1.5473-.65,2.7489-.402,3.8859.8167.9885,1.0596,1.9787,2.1107,2.6946,3.3732.9882,1.7426,1.93,3.5118,2.8764,5.2777.3027.5649.5752,1.1496.6141,1.8105.018,1.0345-.4816,1.8633-1.1465,2.5713-1.9768,2.1047-3.9999,4.1644-6.3224,5.9016-.7167.5361-1.4842.9512-2.3835,1.0774-1.6001.2246-2.7882-.3109-3.2301-1.826-1.0378-3.5583-2.6-6.8962-4.0648-10.2773-.3536-.8162-.313-1.5994.1322-2.3011Zm-23.1804-3.1477c1.9382-1.9105,3.8173-3.8825,5.791-5.7552,1.4993-1.4225,2.5598-1.265,3.7064.4377.8934,1.3265,1.7188,2.6988,2.6008,4.0333.5637.853.4263,1.5571-.1237,2.4117-2.2078,3.4313-4.799,6.6122-6.6906,10.2507-.3763.7238-.9748,1.2974-1.7355,1.6034-.9354.3763-1.9152.2042-2.1919-.802-.8889-3.2321-1.8833-6.4476-2.3049-9.7869-.0318-.9501.2717-1.7255.9485-2.3927Z"/>
    <path class="cls-1" d="m287.4445,203.2117c-.1285.0851-.2872.1246-.4203.1804-1.1088.1124-3.5332-2.5906-3.2822-3.6417.0999-.4185.4056-.6707.729-.9052,1.1363-.8239,2.9476-.3665,3.9685.9985.5217.6976-.0844,2.7656-.995,3.3679Z"/>
  </g>
  <path id="lines" d="m203.3706,264.0654c-2.8285-4.805-6.0754-9.262-10.418-12.8202-.7875-.6453-.7335-.9879-.0489-1.668,2.3287-2.3135,3.5439-5.1378,3.4125-8.4455-.1647-4.1435,1.1854-7.8497,3.2373-11.3295,2.7344-4.637,2.5997-7.3263-.9547-11.5187-.8497-1.0023-.8398-1.9213-.2202-2.8297,1.3465-1.9738,1.0858-4.0701.8569-6.258-.4729-4.5216-1.985-8.7372-3.4451-12.9902-.826-2.4061-2.2908-3.9703-4.717-4.704-6.3708-1.9263-12.6924-4.0404-19.4514-4.2078-1.9515-.0483-3.8397.0463-5.6597.8036-7.2136,3.0019-14.0143,6.7533-20.4,11.253-.5853.4125-1.0831.9514-1.6104,1.4435-.7318.6829-.9982,1.4888-1.1239,2.5283-.6406,5.2966.5079,10.3993,1.6467,15.4721.5734,2.554,1.2293,5.169,2.6378,7.4576.5466.8881.0865,1.5301-.3246,2.2072-1.6516,2.7198-2.7328,5.6779-2.9969,8.8176-.3298,3.9188,1.0118,8.3227,5.0662,9.6991,2.2768.7729,3.9615,1.966,5.179,3.9678.6093,1.0018,2.2768,1.49,2.0153,2.8008-.2379,1.1919-1.7132,1.6098-2.7288,2.1867-3.1987,1.817-5.7666,4.2786-7.9561,7.1995-2.0735,2.7661-4.4368,5.2755-6.9052,7.6968-.9082.8908-1.8055,1.4142-3.1203,1.5026-2.2278.1497-4.3518.9446-5.6264,2.8261-.9382,1.385-1.8343,1.2897-3.023.7214-2.7985-1.3378-5.7049-1.493-8.6959-.8457-1.0188.2205-2.0562.3627-3.0652.6187-1.1234.2851-1.795-.0399-2.6575-.9265-3.7124-3.8162-7.1014-2.8399-9.3837,1.4982-.2214.4208-.324.9043-.4799,1.3593-.4065,1.1866-.208,2.3348.7619,3.0617,1.2247.918.987,1.6255.2853,2.7788-2.6947,4.429-1.8698,8.8296,2.1162,12.1317,1.2842,1.0639,1.3031,1.3275-.3314,2.1112-3.3585,1.6105-6.3286,3.7773-9.2363,6.066-1.5438,1.2151-2.3331,2.6547-2.4255,4.6794-.1736,3.8041,3.1173,6.3945,6.6884,5.0845.696-.2552,1.3819-.5379,2.0724-.8079-1.5612,1.9107-1.5724,4.0887-1.8844,6.2443-.6301,4.353,2.386,7.7736,5.2846,9.1991,3.3939,1.6691,6.701,1.111,9.6085-1.3898.4866-.4186.957-.8562,1.4327-1.2874,1.2433-1.127,2.6444-1.4412,4.2222-.8109,3.1969,1.2773,6.5156,2.262,9.4564,4.143,2.2358,1.4302,4.605,1.5735,7.1415.7014,3.001-1.0319,5.0961-3.0333,6.4901-5.7604,1.5517-3.0356,1.4207-6.1251-.6779-8.8471-.986-1.2788-1.0952-2.2015-.3888-3.6433,1.5198-3.102.8566-5.5271-1.9489-7.5434-2.4468-1.7585-4.7654-3.7181-7.5912-4.899.4335-.9308,1.1627-1.3395,1.7109-1.9117,1.222-1.2756,2.4709-2.5214,3.4067-4.041,1.5427-2.5049,1.7319-4.9557-.2022-7.3615-.3012-.3747-.5679-.778-.839-1.1758-.9448-1.3869-.9876-1.4433.2999-2.4895,1.29-1.0482,1.8171-2.4008,1.9416-3.9786.0378-.4794-.0032-.9664.0546-1.4424.0904-.7444.542-.9457,1.1946-.6382.4332.2042.846.4598,1.2457.7258,2.4042,1.6,4.7975,3.2162,7.2034,4.8137,1.6349,1.0855,3.3079,2.0208,5.412.7464.0569.6161.1376,1.0093.1193,1.3979-.0302.6392-.0579,1.291-.202,1.9106-1.1255,4.8437-2.5661,9.5905-4.3959,14.2188-1.1678,2.9541-1.0031,3.4052,1.6146,5.0771.3381.2159.6558.4846,1.0219.6324,1.2852.5193,1.1631,1.2064.4816,2.2255-1.1096,1.6591-2.2734,3.3118-2.5491,5.3907-.3372,2.5425.7895,4.6393,3.1295,5.5981,1.3386.5485,2.7253.9222,4.159,1.179,2.7114.4855,5.4561.4976,8.1639.3475,4.067-.2253,8.194-.328,12.0344-2.0029.8387-.3658,1.7187-.4246,2.5996-.3351,4.8109.489,9.4214-.6471,14.0186-1.7726,1.9515-.4778,3.7587-1.3568,5.2674-2.7795,2.8475-2.6854,2.9391-5.7128.1115-8.4934-.6229-.6126-.6241-.996-.0776-1.5804.8839-.9452,1.8947-1.7322,2.9439-2.4743.9252-.6544,1.0447-1.4074.2205-2.1901-1.2727-1.2086-1.8411-2.7893-2.4703-4.3563-.7192-1.7911-1.3009-3.6212-1.8154-5.4802-.749-2.7061-.6414-3.2233,1.845-4.6622,1.6651-.9636,2.8956-2.2657,3.8286-3.8935.9974-1.7399,1.9095-3.5308,2.9539-5.2413.8819-1.4445.6447-2.6534-.2794-3.9918-1.5034-2.1774-2.9241-4.4184-4.2666-6.6991Zm-95.5363,9.6141c.9891-.2209,3.0809.7308,3.5414,1.6277.2556.4979.1739.9418-.338,1.2261-.42.2333-.8513.4557-1.2984.6292-1.3456.5221-2.7395.9406-3.6259,2.2295-.158.2299-.5215.3184-.7188.4314-.86-.23-1.1142-.7838-1.1428-1.4774-.0772-1.8773,1.7578-4.259,3.5824-4.6665Zm-7.8884,37.9085c-2.428,1.1003-4.4203-.1846-4.4299-2.9135.0481-1.1498.3502-2.3878,1.3157-3.3407,3.2968-3.2536,7.1063-5.7329,11.5421-7.0851,1.895-.5777,3.5023.7427,5.1452,1.496.2922.134.2993.5574.1227.8604-.2405.4127-.4685.8515-.7918,1.1942-3.7551,3.9808-7.8691,7.5071-12.9039,9.7888Zm12.7749-1.0172c.2802.7015-.0236,1.1722-.7792.9959-1.4497-.3382-2.9771-.4107-4.4504-1.1024.487-1.0797,1.3517-1.6956,2.0526-2.4279.8151-.8517,1.5893-1.7703,3.1613-2.7176-.4335,2.1228-.602,3.7051.0157,5.252Zm3.2104,12.4607c-1.5693,1.4656-3.0285,3.0942-5.054,3.9713-.4248.1838-.9342.1724-1.1359.2061-3.7488.0628-5.6229-1.5319-6.1654-4.9221-.2535-1.584-.3694-3.1698-.4426-4.7699-.071-1.5528.5344-2.786,1.4688-3.9374.5936-.7314,1.3344-1.1504,2.2759-1.1262,5.4753.1403,9.0057,3.2199,9.5117,8.7654.0594.6513.0175,1.3683-.4585,1.8129Zm-.2985-21.187c.4832-.7935.9958-1.5023,2.061-1.3185,2.8657.4943,5.7585.305,8.6404.3478,1.0587.0158,1.5138.3301,1.1743,1.4294-.772,2.4994-.4787,4.914.6411,7.247.8135,1.6949.3699,3.1364-.927,4.3498-1.7428,1.6307-3.6941,2.837-6.1968,2.667-1.6697.1207-2.9703-.5605-4.0717-1.7337-3.1345-3.3389-3.7125-9.0613-1.3213-12.9887Zm9.9895,22.5121c-1.7589-.5438-3.5477-.9907-5.3084-1.5292-1.0927-.3342-2.0747-3.1234-1.4854-4.071.1835-.2951.459-.4526.7811-.489.3963-.0449.8031-.0739,1.1986-.0373,3.4412.3189,6.5201-.4958,9.168-2.8877-1.0725,2.6296-2.7016,4.962-2.8267,7.8699-.043.9994-.4225,1.4858-1.5272,1.1442Zm15.7919-6.6955c.198.7678.199,1.5865.2438,1.9753-.0343,4.4321-1.8721,6.7938-5.4917,7.9072-2.4602.7567-4.2812-.2032-5.8318-1.8262-1.5641-1.6373-1.48-3.7379-.6567-5.6462,1.0716-2.4837,2.9178-4.4296,5.2991-5.7309,2.6451-1.4455,5.6116.1185,6.4373,3.3207Zm-2.0662-11.4935c.4744.639.6798,1.4368.6844,2.2571-.0184,1.7589-.8359,2.5577-2.5358,2.2561-2.3111-.4099-4.3306-1.3796-6.125-3.004-1.8081-1.6369-1.26-4.64-.112-6.1142.3935-.5052.9281-.7037,1.4764-.3881,2.4107,1.3877,4.9028,2.6908,6.6119,4.9931Zm-2.3755-20.3145c1.0865,1.7363,1.1827,3.54.2139,5.2538-1.2247,2.1664-2.7335,4.1396-4.7177,5.724-2.9044,2.3191-6.2273,2.7985-9.6293,2.3956-5.6692.2983-10.5402-1.6495-15.158-4.406-1.7916-1.0694-3.6694-2.1241-3.9501-4.5284-.3472-2.9739.0515-5.7336,2.0588-8.1489,1.9982-2.4042,4.6688-3.6334,7.5403-4.4609,1.9978-.5757,4.0719-.9039,6.1255-1.2657,3.8873-.685,7.2778.8754,10.549,2.6076,2.9603,1.5676,5.1886,3.986,6.9677,6.8289Zm-.0427-6.4058c-.6602,1.21-1.5759,1.5178-2.7553.7971-1.0245-.626-1.9601-1.3954-2.9614-2.0618-.8974-.5972-.8333-1.2649-.2534-2.0252.4899-.6423,1.0163-1.2631,1.718-1.6672,1.0847-.6247,2.2721-.9481,3.4444-.3388,1.2913.6711,1.1501,1.9915,1.2103,3.1419-.0331.7684-.0425,1.494-.4026,2.1539Zm7.9853-70.1406c.2105-1.8746-.0446-3.136-.2676-4.4014-.2847-1.6147.1766-2.8947,1.3471-4.1314,3.5539-3.7548,7.8699-6.2963,12.5561-8.3037,1.4011-.6002,2.8306-1.1349,4.2245-1.751,3.0872-1.3644,6.2795-1.7011,9.6369-1.3965,3.2101.2913,6.3718.7763,9.4706,1.6148,2.6282.7111,5.2269,1.5409,7.8122,2.398,2.0135.6675,3.2356,1.9224,3.8347,4.1595.9958,3.7184,2.1214,7.3933,2.7448,11.2048.3967,2.4254.3406,4.7973-.4786,7.1231-.6285,1.7843-1.2332,2.2087-3.0805,1.7802-6.1718-1.4315-12.2791-.7747-18.3829.4072-1.889.3658-3.7814.6321-5.7081.7984-3.5563.3071-6.8147,1.7774-10.0567,3.1603-2.2852.9747-4.4909,2.1419-6.7007,3.2841-.9288.48-1.6264.5728-2.186-.4909-2.6462-5.0295-4.1906-10.377-4.7659-15.4555Zm7.2473,33.196c-.2006.692-.3585,1.4063-.6487,2.0604-.5159,1.1631-1.0036,1.2983-2.0355.5624-2.611-1.8624-3.4056-4.6014-3.2655-7.5892.1452-3.097,1.4016-5.8987,2.9109-8.5779.5367-.9528,1.2328-1.5869,2.3753-1.8265,1.0069-.2112,1.9979-.6224,2.9197-1.0942,5.5646-2.8477,11.518-4.434,17.6556-5.3071,4.1948-.5968,8.3965-1.2533,12.65-1.3026,2.1882-.1509,4.3163.2295,6.4437.6563,1.5813.3173,3.188.5291,4.7355-.0996.7827-.318,1.1812.0463,1.6313.5609,2.0048,2.2916,1.9605,4.7658.7474,7.389-1.1631,2.5151-1.6129,2.6064-3.3283.4225-1.4936-1.9016-3.295-3.4995-4.9736-5.2179-.4401-.4506-.994-.8145-1.5479-1.125-2.0074-1.1256-2.5629-.9303-3.8924,1.0042-2.3842,3.4688-5.1497,6.5536-8.9971,8.4753-2.1367,1.0673-4.2755,1.313-6.3795-.0835-.8535-.5665-1.7936-.666-2.7687-.5565-2.3889.2682-4.7563.6179-7.0967,1.2244-2.9176.7562-4.7279,2.5885-5.6639,5.3461-.566,1.6672-.9808,3.3856-1.4717,5.0786Zm1.3083,4.7116c-.2717-.5971-.1336-1.2592.0488-1.8901.6683-2.3116,1.324-4.6268,1.9878-6.9398.7288-2.5397,2.3787-4.1397,4.9495-4.7354,2.8956-.6708,5.7049-1.1977,8.6833.1382,2.3465,1.0524,4.8484.5023,7.2009-.665,3.7295-1.8505,6.5198-4.6889,8.5311-8.2247.9119-1.6031,1.5891-1.8253,3.0363-.2549,1.304,1.415,2.4341,3.0805,3.9708,4.1704,2.5208,1.7878,3.4413,3.9094,3.3491,7.017-.2087,7.0419-2.5972,12.6654-9.4023,15.2454-6.1397,2.3278-12.645,3.5764-19.3987,3.8083-2.3265.1888-4.7339-.2768-6.964-1.1086-3.0137-1.124-4.7048-3.7302-5.9926-6.561Zm23.4978,7.9053c-.2186,1.5987-.7732,2.6199-1.4497,3.7684-1.2322-.754-2.3411-1.4802-3.4548-2.6136,1.4889-.9597,3.0933-.6936,4.9045-1.1547Zm-23.0255,45.2217c.3381-3.0492,1.4064-5.9118,2.0599-8.8781.3835-1.7408.6674-3.4548.5981-5.2294-.0853-2.1846.2169-4.2469,1.1415-6.3016,1.0822-2.4048,1.8928-4.9291,3.1199-7.2855.4723-.907.6776-1.9658.9176-2.976.1381-.5814-.0797-1.1321-.6818-1.3929-.686-.2972-1.2979-.0748-1.6829.5103-.3478.5284-.5934,1.1353-.817,1.7327-1.2589,3.363-3.6464,6.0183-5.5876,8.9528-.4089.618-.9433.9068-1.6002.3453-3.5338-3.0209-7.3508-5.6115-11.5532-7.3587.0338-.736.382-.9713.67-1.2333,3.5179-3.2004,6.506-6.8745,9.2767-10.7078,1.8148-2.5107,4.4964-3.7996,6.886-5.5139.6405-.4596,1.3624-.3089,2.0849-.1277,1.787.4482,3.5888.8376,5.3758,1.2861,1.1938.2997,1.2839.5771.5844,1.6515-.3056.4693-.6879.8884-.9984,1.3549-1.4102,2.1182-1.2029,3.2264,1.0717,4.4518,1.5453.8324,3.2234,1.4191,4.8468,2.1049.8116.3428,1.6454.635,2.448.9969,1.3671.6164,2.04,1.6973,2.1796,3.1958.29,3.1102.6517,6.2136.961,9.322.0797.8006.1462,1.5963.4351,2.3553.7073,1.8582.6259,3.7674.3934,5.6943-.7001,5.8016-1.6969,11.5744-1.7108,17.444-.0012.4792-.053.9609-.1144,1.4371-.1199.9293-.577,1.4963-1.6005,1.3337-5.1233-.8135-10.3825-.8484-15.3301-2.669-.3761-.1384-.751-.2823-1.118-.4431-2.3828-1.0438-2.538-1.5046-2.2556-4.0524Zm22.339,13.9741c-.0837.9826-.4844,1.6843-1.4112,2.024-.674.247-1.3643.5853-2.0592.6158-3.2669.1437-6.4471,1.3516-9.8658.7732-2.0838.3314-4.2167.0526-6.286-.6353-2.3497-.7811-3.2534-2.0218-3.2264-4.4403.0223-2.0043.8923-3.7123,2.1417-5.2296.7267-.8824,1.7803-.6352,2.6945-.5586,1.2695.1064,2.5186.4393,3.7824.6362,3.3964.529,6.7957,1.0389,10.1943,1.5531,2.7612.4178,4.2777,2.4224,4.0358,5.2615Zm1.6252-36.2963c-.3524-2.6887-.8027-5.3691-1.0275-8.0684-.1959-2.3519-1.3008-3.8395-3.4634-4.6966-2.082-.8253-4.1639-1.6719-6.1695-2.6636-2.1207-1.0486-2.1779-1.4672-1.0047-3.4995.3603-.624.6896-1.2708,1.101-1.8595.8878-1.2703,1.624-1.4078,2.7504-.3539,1.2246,1.1458,2.3221,2.4271,3.4793,3.6451.4399.463.8365.9926,1.3489,1.3568,1.6301,1.1588,2.8499.6154,3.2437-1.4138.1975-1.0175.2318-2.0527.479-3.0758.5054-2.0914,1.5909-3.2465,3.8432-3.6012,3.2892-.5179,3.5629-.4641,4.7129,2.6706.3467.9452.2485,1.6862-.3416,2.451-.7328.95-1.4132,1.9402-2.1434,2.8923-1.2678,1.653-2.1415,3.5946-3.3351,5.2307-2.4439,3.3499-2.9686,7.0975-3.4731,10.9858Zm19.9834,30.8878c-.1482,1.2933-.976,2.1625-1.9974,2.8518-4.0944,2.763-8.5718,4.1747-13.5535,3.8677-1.1057-.0681-1.7941-.3189-1.8462-1.6238-.0629-1.5746-.4025-3.1239-1.282-4.7675,3.6597.5291,6.965-.3224,10.3175-.2521,2.1369.0449,3.9795-1.0708,5.845-1.9939.6099-.3018,1.2451-.9258,1.9688-.3151.6898.582.6389,1.4386.5478,2.2328Zm7.962-34.1826c-1.5363,2.6669-3.1642,5.1833-5.8452,6.893-2.4445,1.5588-2.7203,1.5453-3.7822-1.0734-.7234-1.7841-1.4151-3.5812-2.1118-5.3761-1.1004-2.8348-2.5261-5.4813-4.4155-7.9818-.5323.7817-.228,1.3996.0041,1.9553,2.639,6.3191,4.1998,12.9439,5.6074,19.6132.7358,3.4861,2.102,6.7397,3.8022,9.8411.5506,1.0043.432,1.5606-.4073,2.219-1.8927,1.4849-3.7208,3.0522-5.6152,4.5349-2.0778,1.6262-4.6163,1.7941-7.087,1.9539-4.3883.2838-3.7963.5191-5.4088-3.566-1.7446-4.4197-1.1756-8.8193-.7012-13.2845.5332-5.0188,1.3076-10.0392,1.2126-15.0839-.0858-4.5505,2.1272-7.9487,4.7123-11.2547,1.2321-1.5756,2.6664-2.9919,3.9894-4.4979,1.2955-1.4747,1.336-2.2781.0557-3.7718-.7711-.8995-1.6828-1.6784-2.7054-2.6825.511-.299.7076-.4286.9164-.5341,3.2302-1.6318,3.6122-1.5604,6.0257,1.2542,2.1469,2.5038,3.9812,5.2311,5.6813,8.0518,1.8627,3.0906,3.5584,6.2943,5.8879,9.0755,1.0402,1.2419.9728,2.3464.1845,3.7148Zm215.5323,60.0749c.021.9016-.6891,1.2736-1.4099,1.3912-1.7383.284-3.5104.7339-5.2401.6314-6.1231-.363-11.7227,1.5369-17.285,3.6708-1.5371.5898-3.0758.9436-4.7016.5931-1.4658-.316-1.8508-1.0903-1.2693-2.4665.3474-.822.8987-1.5181,1.506-2.1637,4.3627-4.6377,9.3612-8.2665,15.6135-9.9584,1.5797-.4275,1.7623-.7549,1.0042-2.2101-1.342-2.576-2.2517-5.3069-3.3032-7.9949-.7819-1.9992-2.1505-3.7528-3.8924-5.1198-1.1472-.9002-2.1652-1.9267-2.9298-3.1657-2.2617-3.6649-5.5927-6.1951-9.1816-8.3391-6.6122-3.9501-13.4401-7.5482-19.6019-12.2158-1.0123-.7668-1.9997-.9418-3.1221-.3582-1.0551.5486-2.3116.6863-3.3185,1.6375.2733.9149,1.1026,1.3077,1.8054,1.7581,2.6188,1.678,4.5258,3.892,6.1546,6.5911,2.9786,4.9361,5.2849,10.0712,6.4989,15.7089.3885,1.8037,1.0657,3.5298,1.7571,5.2454.8735,2.1672,1.493,4.3976,1.6417,6.7538.0961,1.5246-.3586,2.6757-1.7781,3.3584-2.9253,1.407-5.3588,3.5153-7.8598,5.525-1.8351,1.4748-3.7625,2.7452-6.1735,3.054-1.8097.2318-3.5533.042-5.0535-1.0566-1.9486-1.4269-4.0114-2.6558-6.1039-3.8511-1.8169-1.0379-3.4545-2.3163-4.9561-3.7936-1.3027-1.2817-1.6448-2.6226-.9814-4.3474.9597-2.4953,2.2949-4.7631,3.8002-6.9534,2.304-3.3525,2.1439-5.1086-.4256-8.148-2.4791-2.9322-5.362-5.5526-7.1341-9.0467-.4575-.9019-1.0512-.8201-1.7183-.1893-1.2402,1.1728-2.257,2.5225-2.9768,4.0554-1.362,2.9005-2.8828,5.7374-3.884,8.7921-.3991,1.2175-1.327,1.7531-2.3325,2.2679-3.1422,1.6087-6.343,3.1001-9.4023,4.874-6.0539,3.5099-11.8575,7.3636-16.9633,12.1846-1.118,1.0556-2.3393,1.6371-3.9002,1.4794-2.0393-.2061-2.8909-.8461-3.2399-2.8809-.6516-3.7989-.9999-7.6538-.759-11.4888.1166-1.8568-.5175-2.9117-1.9431-3.719-2.3052-1.3053-4.671-2.4885-7.116-3.5223-3.0282-1.2803-6.0712-2.5411-8.8716-4.2971-.395-.2476-.8503-.4211-1.0859-.8755.4369-.7997,1.0585-.4075,1.473-.2037,5.4957,2.7012,11.5046,4.0499,17.0876,6.5145.4404.1944.8888.3719,1.3229.5793,2.3632,1.1293,3.8538,2.6876,3.4338,5.6304-.3756,2.6321.2206,5.2772.4408,7.9122.1057,1.265.4684,1.4065,1.4808.6436,2.114-1.593,4.1821-3.2485,6.3222-4.8051,5.0136-3.6466,10.3905-6.7277,16.0162-9.2697,3.2898-1.4865,5.381-3.8502,7.2103-6.7398,1.9725-3.1159,3.9607-6.2397,6.7643-8.7197.3607-.319.7059-.6582,1.0854-.9531,1.3499-1.0487,2.1259-1.0291,3.3348.2233.7771.805,1.4698,1.6993,2.1384,2.5997,1.9795,2.6662,4.6198,4.6711,6.9393,6.9962.8539.856,1.6449,1.7522,2.2821,2.7858,1.4709,2.3858,1.6793,4.7663.2083,7.2632-1.2208,2.0723-2.5095,4.117-3.4366,6.348-.8566,2.0613-.7083,2.4095.9409,3.9557,2.4967,2.3409,5.7055,3.5692,8.4522,5.515.6116.4333,1.217.2701,1.7762-.1569.7653-.5845,1.542-1.1546,2.2932-1.7567,2.2567-1.8088,4.55-3.5546,7.1332-4.8956,1.5607-.8102,1.692-1.188,1.4052-2.8867-.0267-.1581-.0569-.3176-.1069-.4694-2.8301-8.5949-4.6479-17.5517-9.2618-25.5094-1.0095-1.7411-2.4092-2.9703-4.0129-4.0571-1.1943-.8093-2.4702-1.5084-3.454-2.5973-1.2779-1.4143-1.2626-2.4316.3524-3.3029,2.3967-1.293,4.8752-2.4716,7.5359-3.1379,1.379-.3454,2.7254-.0488,3.8785.8226,6.6888,5.0538,14.0669,8.9609,21.408,12.9362,4.2142,2.282,7.9335,5.1544,10.5609,9.2703.6933,1.0862,1.7262,1.8618,2.6729,2.7318,2.0667,1.8994,3.9701,4.0089,4.7613,6.8036.6197,2.1888,1.5883,4.183,2.7541,6.121.7413,1.2322,1.3405,2.5587,1.9099,3.8831.6644,1.5452.2731,2.3637-1.3011,3.0057-.8323.3395-1.7203.3549-2.5974.4555-3.6004.4131-6.639,2.1064-9.4825,4.3146,4.6184-1.2701,9.3409-.2964,13.9333-1.0013,1.0213-.1567,2.0907-.0605,3.0989.2664.7189.233,1.3589.6264,1.3788,1.4746Zm-107.4972-140.8466c2.1033-1.1306,3.5178-2.9358,4.6906-4.9517.1501-.2579.127-.6166.1418-.6971.0699-2.8311-3.5565-8.3287-5.9616-9.2852-1.0555-.4197-1.7166-.1655-2.3002,1.01-.6426,1.2942-.9795,2.6996-1.2983,4.1017-.4546,1.999-.3869,2.0845,1.683,2.4749,2.5121.4737,3.1396,1.9202,1.73,4.0966-.3889.6004-.8663,1.1375-1.1448,1.814-.3631.8818-.0312,1.3642.8264,1.6017.5684.1574,1.1365.1021,1.6331-.1648Zm-1.4714-8.9118c-1.1546-.1226-1.3472-.6163-1.1232-1.5681.0184-.0781.0258-.16.0533-.2346.2695-.7324.2141-1.7645,1.0905-2.0146.9119-.2602,1.4133.6205,1.8821,1.2357,1.1696,1.5347,2.306,3.0995,2.4004,5.15.0297.6451.1353,1.2843-.7723,1.7859.1762-3.2208-.4496-4.0271-3.5307-4.3542Zm-21.9496,13.7546c-1.0371-1.0262-2.2884-1.7782-3.6124-2.3298-2.0321-.8466-5.4696,1.4922-5.4845,3.6389-.0175,2.5331,3.0543,5.7171,5.5667,5.7699,2.1378.0449,5.1111-3.96,4.3666-5.9305-.162-.4287-.5022-.8179-.8364-1.1484Zm-3.0222,4.4162c-.1285.0851-.2872.1246-.4203.1804-1.1088.1124-3.5332-2.5906-3.2822-3.6417.0999-.4185.4056-.6707.729-.9052,1.1363-.8239,2.9476-.3665,3.9685.9985.5217.6976-.0844,2.7656-.995,3.3679Zm86.4454-48.7856c-.0892-1.142,1.1085-1.4264,1.9636-1.8205,2.7536-1.269,5.596-1.4838,8.4057-.3172,4.6322,1.9234,8.7797,4.619,12.3751,8.1448.9104.8928,1.4633,1.908,1.4258,3.1893-.0421,1.4421.1695,2.8673.1364,4.3188-.1078,4.7327-2.9669,8.0295-5.7617,11.3295-2.9641,3.4999-5.6301,7.1657-7.7688,11.2402-1.6416,3.1274-3.3149,6.2286-4.4285,9.5897-.6735,2.0323-.468,2.3705,1.4926,2.9327,1.6439.4713,1.7295.389,1.5495-1.4888-.1461-1.5251.7856-2.4578,2.2863-2.2888,2.5043.2822,4.2012,3.5274,2.9601,5.7078-.6301,1.1069-1.7227,1.4545-2.8882,1.3563-2.7463-.2312-5.3076-1.1963-7.8335-2.2242-.9675-.3938-1.185-1.2581-.9132-2.2177.4367-1.5421.8401-3.0988,1.3811-4.605.9758-2.7168,2.0233-5.4086,3.0786-8.0959.7961-2.0272,1.9888-3.8062,3.2913-5.5619,2.2015-2.9676,4.8099-5.5848,7.0392-8.5193,1.7224-2.2673,2.9566-4.7611,3.4968-7.5796.567-2.9583.1343-5.5283-2.4012-7.5549-3.0212-2.415-6.1628-4.6185-9.7446-6.1005-2.6452-1.0945-4.9563-.8879-7.1187.4755.9836.6569,2.0746.9161,3.1113,1.2582,4.1209,1.3597,7.1708,4.154,9.9668,7.3102.732.8264.744,1.7313.3868,2.697-.5286,1.4293-1.0303,2.8701-1.6089,4.2791-.5472,1.3323-1.1421,2.6035-1.2009,4.1158-.0596,1.5342-2.2684,2.383-3.4861,1.4425-.7925-.6122-.3614-1.3215-.0081-1.9318,1.2518-2.1624,2.0645-4.5205,3.107-6.7748.9829-2.1254.4561-3.8621-.993-5.5172-1.6716-1.9092-3.7043-3.306-5.9987-4.3322-1.097-.4906-2.2468-.8619-3.3563-1.3263-.7084-.2965-1.8738-.2369-1.9436-1.1312Zm-26.0796,96.4265c.4419,1.5151,1.63,2.0506,3.2301,1.826.8994-.1262,1.6669-.5413,2.3835-1.0774,2.3224-1.7371,4.3456-3.7968,6.3224-5.9016.665-.7079,1.1646-1.5368,1.1465-2.5713-.0389-.6609-.3113-1.2457-.6141-1.8105-.9464-1.7659-1.8882-3.5351-2.8764-5.2777-.7159-1.2625-1.7061-2.3136-2.6946-3.3732-1.137-1.2188-2.3386-1.4667-3.8859-.8167-3.1106,1.3068-5.2004,3.676-6.9442,6.424-.4453.7017-.4858,1.4849-.1322,2.3011,1.4647,3.381,3.027,6.719,4.0648,10.2773Zm-.3868-13.0624c1.0673-1.1901,2.0762-2.4228,3.3947-3.3571.8665-.6142,1.6209-.5724,2.2807.2965,1.8994,2.5013,3.1501,5.36,4.4869,8.1699.306.6432.1626,1.2755-.3096,1.7787-1.8441,1.9656-3.6093,4.0247-6.2849,5.6808-.9054-3.4708-2.5059-6.2401-3.9402-9.0793-.6616-1.3096-.6311-2.3706.3724-3.4894Zm-23.1777,10.318c.7607-.306,1.3593-.8796,1.7355-1.6034,1.8916-3.6384,4.4827-6.8194,6.6906-10.2507.5499-.8547.6874-1.5587.1237-2.4117-.882-1.3345-1.7074-2.7068-2.6008-4.0333-1.1466-1.7026-2.2071-1.8602-3.7064-.4377-1.9737,1.8727-3.8527,3.8447-5.791,5.7552-.6768.6672-.9803,1.4426-.9485,2.3927.4216,3.3393,1.416,6.5548,2.3049,9.7869.2767,1.0062,1.2565,1.1783,2.1919.802Zm-.9082-11.7609c1.0891-1.061,2.1385-2.1638,3.2518-3.1982.4874-.4528.9313-1.2317,1.8124-.7126.8492.5002,1.4423,2.1018,1.1105,2.9193-.0298.0737-.0679.1465-.1149.2103-1.9777,2.689-3.8858,5.4267-5.8073,8.7708-1.0203-2.179-1.2907-3.8832-1.2945-5.654-.0021-.9465.3796-1.6906,1.0418-2.3357Zm-78.3155,56.2649c-.55,1.0936-1.2855,2.1241-2.6133,2.2475-1.3163.1223-2.2568-.6588-2.9898-1.694-.6133-.8661-.3303-1.5262.5228-1.9638.8599-.4409,1.7819-.7227,2.6586-.6884.6763.0043,1.2299.0467,1.747.3123.7702.3954,1.0594,1.0214.6746,1.7864Zm-5.2325-5.9106c-.1154,1.1393-1.4349,2.3591-2.3861,2.2267-.8666-.1207-1.1929-.725-1.1763-1.5103.0212-1.0051,1.4646-2.2864,2.4937-2.2128.7922.1336,1.1522.6725,1.0687,1.4965Zm8.811-2.7665c-.0437.8866-.9363,1.5338-2.0775,1.5062-1.0582-.0256-1.7502-.6198-1.7643-1.5148-.0154-.9799.8044-1.6952,1.8994-1.6572,1.1191.0388,1.986.7821,1.9423,1.6658Zm1.1568-24.1674c-1.2652-.1948-2.538-.3501-3.8123-.4736-2.4104-.2337-4.7887-.1037-7.1347.5869-2.6161.7701-3.0248,1.2181-3.2796,4.0001-.1168,1.2745-.2162,2.5506-.3336,3.8251-.226,2.4546.4594,3.4352,2.9528,3.6871,1.7427.176,3.3109-.0184,5.3969-.0184s3.5717.05,5.4-.0976c2.0669-.1668,2.749-.9304,3.1393-2.9805.3461-1.8181.4645-3.6599.4034-5.5016-.0641-1.9348-.8184-2.7326-2.7322-3.0274Zm-1.3372,4.5405q-.4646,4.1539-4.5173,4.855c-3.5282.6105-4.0051.2758-4.6022-3.2289-.6222-3.652.2186-4.6182,4.4747-4.5712.5416.0797,1.5663.2233,2.5886.3828,2.1663.338,2.2875.4932,2.0562,2.5623Zm-83.4578-58.5026c-.2293-1.0193.1741-1.7665,1.0516-2.1782.7147-.3354,1.5054-.5644,2.2866-.6892,1.1349-.1813,1.5229-.7444,1.2203-1.8298-.043-.154-.069-.3129-.0976-.4706-.3667-2.0189-.1975-2.4703,1.0783-2.8814,1.6979-.5472,3.3907-.0677,3.8036,1.447.5522,2.0256,1.7483,2.4678,3.5713,2.193.3846-.058.8074.0026,1.191.0965,1.5881.3884,2.0621,1.8436,1.0513,3.1357-.5859.7489-1.4133,1.0437-2.2916,1.188-1.1553.1899-1.4459.8395-1.1559,1.8896.0849.3076.1451.627.1718.9447.15,1.7903-.5552,2.5466-2.3252,2.5137-1.4932-.0278-2.081-.5046-2.7174-2.2047-.814-2.1741-.8122-2.1638-3.1069-1.7788-.627.1052-1.2672.1718-1.9023.1788-1.0338.0115-1.6058-.5625-1.8289-1.5544Zm6.2773,40.7124c.1738-.5849.7073-.6009,1.1901-.4727,2.1284.5651,4.2497.5179,6.4225.2088,1.2776-.1816,2.5386-.2565,3.6976-.8958.5-.2758,1.1721-.5192,1.5129.0779.4707.8245-.3764,1.0762-.8842,1.3956-.6779.4265-1.3763.8287-2.2013.9178-1.7511.1891-3.5018.3823-4.9153.5369-1.6343-.0219-2.9087-.163-4.1036-.681-.439-.1903-.8895-.5129-.7188-1.0875Zm13.2668-10.2629c.04-1.1741.8462-2.1686,1.774-2.1887.9336-.0201,1.8529,1.0309,1.8474,2.112-.006,1.1756-.8107,1.9777-1.9376,1.9315-1.1033-.0453-1.7223-.7271-1.6838-1.8548Zm-17.896,3.0601c-.0333-1.0076.6122-1.7044,1.5754-1.7237.932-.0187,1.7232.7385,1.7069,1.6335-.0155.8524-.8183,1.5588-1.7947,1.5795-.9871-.0044-1.4562-.5366-1.4877-1.4893Zm-7.5474,59.9116c.3945.0651.785.1705,1.1678.2882,2.9437.9047,6.028.8208,9.0385,1.2531,1.9204.2758,2.4376-.3127,2.7269-2.1521.3862-2.4553.7652-4.9132,1.2327-7.3538.7546-3.9395.4274-4.3603-3.6763-4.6217-2.5543-.1627-5.129-.231-7.4927-1.4506-1.0175-.525-1.9725-.2328-2.4464.7843-1.4925,3.2032-2.7202,6.5028-3.1343,9.38-.0828,3.2136.1275,3.4672,2.5839,3.8726Zm.275-3.069c.4823-2.429.7996-4.8986,1.7177-7.2237.2755-.6977.5769-1.3947,1.5504-.9819,2.1973.9315,4.5128.9348,6.8411.9466,1.6868.0086,1.9011.3003,1.2435,1.8331-.7053,1.644-1.0452,3.3444-1.2498,5.1008-.2918,2.5062-.3141,2.5017-2.7376,2.422-.3995-.0132-.7997-.0019-1.6939-.0019-1.2047.1088-2.855-.209-4.492-.5961-.7582-.1793-1.3634-.5726-1.1794-1.4989Zm2.5887-21.2895c-.1164-.9766.3104-1.5718,1.2925-1.6239,1.308-.0693,2.3478-.3217,2.4882-1.9444.0716-.8271.7692-1.1762,1.5854-1.1318.7319.0397,1.2741.471,1.3132,1.1696.0779,1.3922.8205,1.9308,2.1069,2.1093.812.1127,1.5836.5081,1.6224,1.4912.0394.9969-.5197,1.7201-1.441,1.9805-1.2717.3594-2.4056.718-2.7255,2.2598-.1456.7017-.8518.8857-1.5459.8627-.7334-.0243-1.2855-.3875-1.3717-1.0969-.1602-1.3163-.8951-1.9433-2.1273-2.222-.9403-.2128-1.162-1.0004-1.1973-1.8541Zm-36.0109,18.6601c.2413.3439.3675.7448.0774,1.1024-.2847.351-.7927.4346-1.0835.1755-1.117-.9951-2.1716-1.0896-3.322-.0669-.2214.1968-.6263.1272-.8748-.1368-.2548-.2705-.2209-.5882-.0242-.8681.3214-.4574.6697-.896,1.009-1.3408.3821-.5007.3531-.9664.0743-1.5483-.9282-1.9371-.7041-2.2875,1.4771-2.2946.2443.0204.649.0196,1.04.0928,1.7274.3235,1.9575.8127.9368,2.2574-.4366.618-.5901,1.0959-.0529,1.6871.2681.295.5136.6136.7428.9402Zm-6.349-5.9125c-.6124-.076-1.0633-.3472-1.0647-1.0287-.0015-.7343,1.0418-1.7021,1.7599-1.6293.7011.071.8844.5817.8486,1.1897-.0512.8705-.7171,1.4877-1.5438,1.4683Zm7.964-1.2128c-.084.8358-.5177,1.2541-1.2628,1.2355-.8005-.02-1.4174-.3749-1.4037-1.2818.0101-.6683.4885-.9946,1.1052-1.0336.8156-.0516,1.3647.3287,1.5613,1.08Zm318.8925,49.8161c-.6635-3.2289-1.6234-6.3787-2.7288-9.4797-.9221-2.5869-2.166-3.1144-4.8489-2.2196-1.2255.4088-2.3958.9289-3.4657,1.6555-.9639.6547-1.659.381-2.1313-.6066-.5536-1.1575-1.0857-2.3256-1.6116-3.496-2.1085-4.6924-4.2905-9.3326-8.1339-12.942-.5145-.4832-.8288-1.1738-1.2697-1.7421-2.7988-3.6076-4.2681-7.9019-5.929-12.0435-2.286-5.7008-5.6676-10.7787-8.5354-16.1443-1.1131-2.0826-2.9647-3.7313-5.2598-4.3654-2.2159-.6122-4.4732-1.1976-6.845-1.2403-2.5524-.046-5.0984-.4178-7.2012-1.9759-.0815-.4728.116-.7482.3337-.9718,2.0579-2.1136,1.577-4.3555.3513-6.6343-.6928-1.2882-1.5997-2.3973-2.7699-3.2911-1.3391-1.023-2.6468-2.0873-3.9921-3.1021-1.5161-1.1436-2.5173-2.6374-3.3206-4.3455-1.1844-2.5183-1.5936-5.1801-1.9253-7.9036-.5418-4.4484-1.772-8.7863-1.9193-13.3151-.0771-2.3727-.2814-4.7986-1.0974-7.111-.2851-.8079-.2701-1.7446-.2759-2.6232-.0123-1.8583-.3121-3.675-.6345-5.494-.1932-1.0898-.8746-2.5316-.1163-3.2083.9507-.8486,2.2397.2282,3.3083.6586,2.3826.9596,4.7251,1.9646,7.2857,2.4441,1.9242.3603,3.4637-.0306,4.8423-1.3729,1.7825-1.7355,3.5837-3.4526,5.4043-5.1482,3.1271-2.9126,3.8771-6.9337,4.9603-10.768.3843-1.3605-.2531-2.0065-1.744-2.3337-1.0177-.2233-2.0569-.3471-3.085-.5248-2.3505-.4063-2.4863-.7095-1.6758-3.0408,1.036-2.9797,2.7624-5.6068,4.1766-8.3932,3.4239-6.7462,5.4874-13.8674,5.6737-21.4575.0557-2.2657-.645-4.3722-1.7899-6.4006-1.8345-3.2502-4.107-6.1519-6.7169-8.7543-4.3576-4.3452-9.4922-6.7749-15.8574-5.6492-.9413.1665-1.9128.2089-2.8716.2232-6.5654.0976-4.9966-.6092-10.5568,2.4371-.5929-.7172-.5849-1.6182-.7247-2.4677-.3259-1.9805-.5544-3.9961-1.5026-5.8029-.9811-1.8697-1.538-3.8534-1.994-5.9044-1.0027-4.5098-2.9294-8.3149-7.1306-10.9147-5.0441-3.1215-9.6511-6.9063-14.3376-10.5562-4.0494-3.1536-8.0685-6.3613-12.6279-8.8026-1.6032-.8584-3.2056-1.4393-5.0432-1.2713-1.6169.1478-3.1934-.1005-4.7666-.489-1.0065-.2487-2.0529-.4574-3.0834-.4671-5.9404-.0558-11.8813-.0624-17.822-.0526-2.5544.0042-4.9625.7178-7.0483,2.1451-4.5649,3.1238-9.2216,6.1298-13.0055,10.2735-2.5425,2.7841-5.2891,5.3814-7.9304,8.0759-2.0952,2.1373-3.8227,4.5336-5.0156,7.2939-.449,1.0391-.9637,2.1364-.6378,3.2499.7827,2.673-.5593,4.6074-1.9439,6.634-2.0972,3.0696-5.0844,5.1449-8.1011,7.0634-5.2003,3.3072-8.5322,7.8711-10.494,13.6222-1.9211,5.632-3.4256,11.3442-4.3901,17.229-.9202,5.6144-.2875,10.7047,3.6856,15.0563.5945.6512,1.1995,1.3149,1.233,2.2777.0457,1.3108.7975,2.2241,1.6924,3.0742,1.1058,1.0503,2.1483,2.1697,3.2845,3.185,2.5216,2.2531,5.1808,4.3011,8.3424,5.6303,1.7707.7444,3.4955,1.0137,5.3791.4354,1.9971-.6131,4.0109-1.1843,5.9131-2.0421,2.3707-1.0689,4.879-.6491,7.3293-.8332.747-.0561,1.33.5064,1.9275.9094,3.7739,2.5457,6.2663,5.7564,5.5189,10.6465-.0121.079-.0073.1606-.0164.2402-.1177,1.0218.3886,1.6597,1.2494,2.1187.9391.5007,1.9539.7292,2.9869.8829.9589.1427,1.946.2491,2.7474.8145,3.6665,2.5861,7.8906,3.3734,12.204,4.087,6.6759,1.1045,12.4811-1.1954,18.111-4.2629,2.0347-1.1086,3.8904-2.5411,5.8621-3.771,1.7855-1.1138,2.0087-1.0359,3.2344.7484.2269.3303.4632.6625.6309,1.0237.894,1.9258.4396,3.1887-1.5625,3.9728-2.568,1.0057-5.0129,2.1594-6.8384,4.3292-.2518.2993-.6108.5252-.9539.7283-2.1649,1.2819-2.9018,3.171-2.8732,5.663.0607,5.2842.6495,4.1807-3.2097,7.6068-1.317,1.1692-2.7224,2.4805-2.8801,4.3234-.2862,3.3445-1.0359,6.6925-.4294,10.0646.1961,1.0905-.0422,1.8128-.8842,2.5158-3.3436,2.7914-6.8149,5.3425-10.9875,6.8083-2.6509.9311-5.33,1.7679-7.9943,2.6511-4.5305,1.502-8.9976,1.5265-13.4481-.0945-4.0961-1.4919-7.5139-.5527-10.5558,2.4612-1.3643,1.3518-2.9243,2.506-4.3954,3.7499.1852-1.2812.5945-2.3187,1.0632-3.3286.585-1.2601.2722-2.2712-.6108-3.2941-3.978-4.6084-8.5474-8.385-14.0822-11.0702-2.0984-1.0181-3.7623-.965-5.6258.1163-5.6912,3.3025-11.5107,6.3996-16.6351,10.5955-1.6481,1.3494-1.8726,1.746-1.0295,3.6444.4337.9765.3177,1.6286-.3661,2.3686-1.035,1.1198-2.0194,2.2891-2.6683,3.6948-1.4099,3.0541-.7448,4.9758,2.2595,6.5129.1429.0731.2924.1331.4355.2056,1.8676.9472,1.898.962,1.0287,2.7958-1.0357,2.1848-1.4543,4.538-.8828,6.81.8946,3.5559,1.7784,7.1432,3.9934,10.2479,1.2431,1.7423,2.8538,2.9431,4.5948,3.9854-.2939.9016-.9974,1.2249-1.4813,1.7377-2.1444,2.2725-3.6172,4.9194-4.29,7.9587-.8857,4.0008.6381,6.8438,4.113,7.9483.1161.0369.178.2446.3058.4325-.1074.2548-.1894.5712-.3582.8314-2.6262,4.049-4.7183,8.3829-6.8137,12.7159-.7349,1.5197-.6541,1.8762.9169,2.5798,1.0956.4907,2.235.9088,3.3894,1.2385,4.3057,1.2299,8.4957,2.8371,13.1178,2.8064,7.0261-.0467,13.8872-1.2222,20.7485-2.4998,1.1074-.2062,2.1678-.5873,3.1494-1.1621,1.5812-.9259,1.9208-1.4251,1.1105-3.1201-1.9186-4.0133-2.9711-8.5038-6.5166-11.6519-1.4188-1.2596-1.2584-1.6882.2731-2.9301,1.8911-1.5335,2.4807-3.6045,1.9395-5.8267-1.0984-4.5094-3.2245-8.5473-6.2947-12.0491-1.3238-1.5098-1.3804-1.4943.0441-2.7619,2.4177-2.1514,4.72-4.3766,5.6298-7.6384.2618-.9384.835-.7813,1.4738-.3887,2.2676,1.3936,4.7684,1.7891,7.3853,1.7932,2.8382.0045,5.604-.5621,8.3257-1.1947,5.7861-1.3447,11.6067-.56,17.4403-.6031-2.8315,1.5381-5.7905,2.7408-8.89,3.4506-5.7322,1.3127-11.0661,3.8285-16.7258,5.3381-1.7991.4799-2.859,1.6257-3.3562,3.4155-.7316,2.6335-1.7128,5.1776-2.9243,7.6345-.4973,1.0084-.8748,2.084-.9177,3.2241-.0667,1.775-.3051,3.5307-.7798,5.2301-.8956,3.2057-.0613,5.8246,2.4352,7.9644.0608.0521.1218.1072.1696.1707,1.6049,2.1332,4.1121,3.0269,6.2091,4.4783,1.3413.9284,2.0764,1.9771,2.2763,3.6877.4462,3.8174,1.0794,7.6208,1.8278,11.392.4609,2.3228,1.3614,2.9612,3.6692,3.0332,2.163.0675,4.3311.1021,6.4892-.2202,4.257-.6356,8.4653-.6223,12.5221,1.0941.3687.156.7589.261,1.1379.3931,5.9186,2.0617,11.9894,3.6003,18.0338,5.2269,1.6398.4413,3.3962.8403,4.912-.1548,2.7167-1.7836,5.5983-1.692,8.5832-1.1551,2.2156.3985,4.4437.6657,6.7014.6379,3.2209-.0397,6.4176.3087,9.5724.8853,5.8618,1.0713,11.7568,1.6048,17.7136,1.5554,1.3598-.0113,2.7199.1948,4.0818.2358,3.2046.0964,6.361,1.0073,9.5898.6081,2.6266-.3248,5.2449-.7162,7.8652-1.0906,2.0203-.2887,3.9332-.8879,5.4782-2.2808,1.2549-1.1313,2.6069-1.3184,4.233-.9825,2.1132.4365,4.2397.6559,6.4484.3649,6.0858-.8019,11.5275-3.3081,16.8354-6.151,2.1508-1.1519,4.3838-1.9962,6.7147-2.5889,1.4705-.3739,3.0167-.4387,4.5112-.7325,3.1483-.6191,6.1969-1.7007,9.3934-2.0942,2.4737-.3044,3.9456-2.3531,6.0109-3.3668.5338-.262.6298-.9211.601-1.4954-.04-.7983-.0767-1.6077-.2368-2.3873Zm-81.9917-182.1799c.1447-.7047.2429-1.4266.2776-2.1448.1479-3.0574,1.9891-4.9915,4.6228-5.8287,3.8141-1.2125,7.8181-1.7313,11.8108-2.134,1.1497-.116,2.2355.2412,3.2361.7775,2.6304,1.4099,4.9976,3.1304,7.0416,5.3616,2.463,2.6887,4.4205,5.6873,6.0993,8.8849,1.3104,2.4959,1.3519,5.2422,1.3663,7.9857-.0516,6.421-1.9563,12.3149-5.2264,17.7789-1.6053,2.6822-3.3971,5.2531-5.1176,7.8658-.6213.9435-1.1673,1.9097-1.4473,3.0204-.5499,2.1819-.2376,2.7791,1.923,3.1929,1.1768.2253,2.3906.2496,3.5776.4307,1.4581.2225,1.7292.5507,1.2931,1.9091-.7103,2.2125-1.4554,4.4249-2.3774,6.5546-.6459,1.492-2.0912,2.3994-3.2385,3.5099-.5168.5003-1.1942.8531-1.645,1.3997-1.3609,1.6503-2.9761,1.6395-4.7782.9313-2.9076-1.1425-5.7687-2.4288-8.892-2.9223-.9381-.1483-1.5804-.6638-1.953-1.5771-1.5775-3.8663-2.929-7.7913-3.5959-11.9371-.4313-2.6805-.2357-5.2518.7333-7.7983,2.3792-6.253,3.3763-12.8483,4.6875-19.3626.6755-3.3555-.5609-6.1533-2.8095-8.5542-1.4793-1.5795-3.0153-3.1124-4.6087-4.5759-.8635-.7932-1.213-1.6295-.9793-2.7676Zm-1.896,7.2163c.0814-.6779.2014-1.5406,1.0463-1.736.7281-.1683,1.1006.5259,1.549.9643.1141.1116.2114.2408.3149.3632,4.1823,4.9492,4.5449,4.8919,3.5413,11.4227-.5099,3.3182-.7109,6.685-1.0155,10.0331-.1245,1.3683-.3683,2.7274-.8552,3.9846-1.9739,5.0975-1.3141,10.2189-.4124,15.3887.4244,2.4331,1.0122,4.8289,1.6805,7.8176-2.5726-1.8181-4.493-3.5585-6.9608-4.3976-.3786-.1287-.7363-.4138-1.1141-.4341-2.155-.1163-3.007-1.4177-3.7439-3.3176-1.2175-3.1392-2.2006-6.3594-3.4551-9.4821-.4867-1.2114-.5651-2.5065-.4745-3.7906.2552-3.6212.8547-7.1418,2.7784-10.3369,1.9445-3.2297,3.5369-6.648,5.0239-10.1086.8834-2.056,1.8245-4.098,2.0972-6.3707Zm-88.3966,37.8292c-1.9229,1.0377-4.0159,1.0089-6.1097.7407-1.0336-.1323-2.0534-.3685-3.0837-.5306-.5519-.0869-1.1151-.1765-1.669-.155-.5468.0211-1.2108.0746-1.3004.7927-.0776.6218.5623.6738.946.9213.1193.077.1849.2374.3495.4606-3.1174,1.5798-6.0798,2.072-9.2491-.0223-3.3735-2.2293-6.4266-4.7905-9.2471-7.6637-.7394-.7532-1.0974-1.5825-.7872-2.6104.2338-.7745.1192-1.4161-.5153-1.9471-3.984-3.3342-4.9868-7.821-4.3382-12.6262.9438-6.9924,2.1971-13.9326,4.6057-20.6342,1.499-4.1711,4.093-7.408,7.3608-10.2065,3.1639-2.7096,6.6986-4.9974,9.3762-8.2562,1.8022-2.1933,3.2826-4.5187,3.5891-7.4697.2659-2.5594,1.7904-4.6266,3.1657-6.6788,1.0195-1.5213,2.2589-2.9377,3.5918-4.1984,3.7314-3.5292,6.6791-7.8314,10.799-10.9647,2.6813-2.0392,5.3917-4.0443,8.1556-5.969,1.5395-1.072,3.3411-1.62,5.2234-1.6287,6.1802-.0287,12.3608-.0157,18.5408.0372.8639.0074,1.7288.3113,2.5867.5067,1.016.2314,2.0519.7827,3.032.6909,3.4417-.3225,5.927,1.6124,8.5452,3.2903,4.7484,3.0432,8.9084,6.8405,13.1743,10.4825,2.9393,2.5095,6.025,4.829,9.2007,6.9691,3.7246,2.5099,5.8671,5.7901,6.704,10.0903.3689,1.8956.9943,3.7083,1.7784,5.4822.4821,1.0906.8537,2.2709,1.0316,3.4477.5871,3.885,1.1343,7.7791,1.5557,11.6849.2503,2.3201-.1124,4.5906-.8661,6.848-1.4814,4.4371-3.7512,8.5106-5.6227,12.7657-1.1623,2.6428-2.4285,5.2407-3.68,7.8433-.8909,1.8528-.9505,3.8807-1.3187,5.8445-.0865.461.0049.9709-.5631,1.5367-1.0956-1.0048-1.5413-2.2859-1.6751-3.692-.1063-1.1164-.0292-2.2515-.1557-3.3644-.1364-1.1996-.7165-1.5181-1.8318-1.0799-.5175.2033-.9911.5249-1.4714.8148-4.5244,2.7313-9.2432,2.7816-14.0677.9678-2.3604-.8875-4.3413-2.1899-5.7903-4.4331-1.3198-2.0432-3.5128-3.1589-5.7556-4.1824-4.165-1.9008-8.5104-2.0996-12.9525-1.9283-3.6859.1422-7.3716.1284-10.9969,1.0405-2.0446.5145-4.0162,1.077-5.7535,2.3303-.7093.5117-1.5773.7999-2.3042,1.2915-2.4124,1.6315-4.5421.9393-6.6125-.6802-1.2275-.9601-2.2035-2.1541-2.894-3.506-2.2612-4.4266-4.877-8.6746-6.7281-13.3096-1.1726-2.936-1.6472-6.0282-2.1183-9.1234-.0469-.308-.0556-.6359.424-.9913,2.0543,1.5676,3.6931,3.5651,5.3515,5.6127,4.1912,5.1749,8.507,10.2646,14.4603,13.5746,4.0077,2.2283,8.1776,3.0495,12.736,1.7861,6.7449-1.8695,13.0061-4.5795,18.1968-9.4235.6364-.5939,1.4317-1.0223,2.1708-1.5005,1.4816-.9589,2.9869-1.8719,4.3113-3.0636,3.9557-3.559,8.4271-4.7793,13.5444-2.8387,1.7254.6544,3.4587,1.2925,5.1553,2.0157.7087.3021,1.537.5155,2.1175,1.6841-2.6346.2408-5.0046.5568-7.3836.6534-4.4575.1809-8.462,1.7161-12.2867,3.8525-.681.3804-1.5056.7369-1.4243,1.7359.0437.5373,1.6216.9656,2.5737.6646.4449-.1407.8363-.4561,1.2459-.7023,3.5031-2.1052,7.2361-3.4091,11.379-3.4166,2.8875-.0053,5.7814-.0026,8.635-.5724.6292-.1257,1.269-.1979,1.8989-.3207.7934-.1547,1.6738-.2874,1.8431-1.2615.1632-.9387-.5491-1.4113-1.2287-1.883-3.4702-2.408-7.3843-3.8197-11.3282-5.2136-5.3084-1.8761-10.2695-.8423-15.1361,1.4771-.9494.4525-1.7411,1.1319-2.5942,1.7299-4.0684,2.852-8.0903,5.787-12.3073,8.4052-3.4141,2.1197-7.2491,3.3918-11.1111,4.5491-2.2288.6679-4.2599.3998-6.3032-.5091-3.1981-1.4228-5.8627-3.6168-8.4786-5.8754-1.0929-.9436-2.0787-2.0168-3.2079-2.9117-2.3757-1.8828-3.3052-4.4508-3.686-7.3159-.0528-.3972.0008-.8471-.17-1.1838-1.2734-2.5103-.4951-4.9545.522-7.1943,1.9585-4.3129,4.2192-8.492,7.5917-11.921,3.1318-3.1843,6.7106-5.4924,11.0499-6.9703,4.3231-1.4722,8.8246-2.3902,13.0276-4.223,1.2546-.5471,2.6141-.7301,3.9896-.8278,1.7672-.1254,3.3398.2797,4.724,1.3943.3124.2516.6571.465.9568.73,4.9966,4.4169,10.9255,6.5454,17.4847,7.0991,2.7139.2291,5.1375,1.0731,7.2582,2.8549,1.5942,1.3394,3.316,2.5297,5.0108,3.7449.5807.4164,1.229.7605,1.8882,1.0388.5743.2424,1.2529.5459,1.7719-.0892.4683-.5729.2513-1.2281-.0116-1.8219-.1935-.437-.3884-.925-.7239-1.2394-3.3546-3.1431-6.7805-6.1656-11.6796-6.5986-2.8755-.2542-5.7432-.5967-8.6186-.852-.9065-.0805-1.7191-.2928-2.4614-.8374-2.6457-1.9409-5.3316-3.8278-7.9548-5.7983-2.6444-1.9863-5.6014-2.3217-8.6844-1.621-2.1818.4959-4.3117,1.2104-6.4116,2.0436-1.9993.7933-4.1804,1.1152-6.2209,1.8199-8.2921,2.8638-15.0214,7.8228-19.9708,15.1207-.8558,1.2618-1.8098,2.4604-2.6121,3.7541-1.9568,3.1554-3.6939,6.4028-3.2141,10.915-3.0245-2.4003-5.2705-4.4963-5.3013-8.1088-.0253-2.9521-.0575-5.9029.2859-8.8982-.9863.0131-1.1157.7137-1.3209,1.2655-1.3103,3.5249-1.6456,7.1865-1.3022,10.8986.0963,1.0405.1887,1.732-.9241,2.3676-1.4163.809-2.2628,2.1898-2.7223,3.8169-.5,1.7701-1.2771,3.4661-1.7177,5.2478-.8644,3.4955-.7842,7.0396.2428,10.478,1.3067,4.3749,2.3889,8.8281,4.2133,13.0376-2.1773-.9606-4.5195-3.8029-5.2897-6.5145-.3503-1.2334-.6496-2.4884-.863-3.752-.4207-2.4901-3.2249-2.5906-4.4659-1.2957-1.0702,1.1168-1.9034,2.3632-2.2029,3.9293-.3039,1.5891-.3314,3.1911-.3447,4.7963-.0281,3.3713-.0306,6.7429-.0748,10.114-.0112.8582.097,1.7642-.6997,2.918-.8322-2.4657-2.4732-4.0422-3.9182-5.7722-.5462-.6539-.5049-1.5023-.5135-2.3063-.0256-2.408-.1182-4.8182-.0491-7.2238.1866-6.488,2.5108-11.8636,8.2579-15.3809,1.8662-1.1422,3.1334-2.7238,3.6487-4.8753.2805-1.1707,1.0033-2.1968,1.1291-3.4183.0417-.4052.0574-.8505-.3112-1.0959-.3664-.2439-.772-.0914-1.1237.1375-1.105.7192-1.9637,1.6899-2.5117,2.8636-.934,2.0005-2.1211,3.7289-3.9926,5.0032-1.1279.768-1.9848,1.9022-2.5573,3.154-2.4058,5.2602-4.6212,10.5874-5.2873,16.4116-.2498,2.1848-.2063,4.3319.7708,6.3627,1.2452,2.5881,1.9526,5.4513,3.9255,7.6685.5861.6585,1.1055,1.3876,1.9167,1.8007,2.6103,1.3293,4.7534.2438,5.3003-2.6577.7354-3.9004.4285-7.8435.5089-11.7708.0178-.8745.0026-1.7496.0026-2.662.9572-.0378,1.1852.672,1.5183,1.1381,1.3671,1.9137,3.0829,3.4915,4.8256,5.0287,1.4037,1.2382,3.0298,2.1345,4.9869,2.1273,2.1065-.0078,3.02-1.3065,1.768-2.8818-3.1552-3.9703-4.173-8.8246-5.8425-13.3892-1.7891-4.8914-1.8875-9.8898.2943-14.7758.2277-.5098.3666-1.0591.5462-1.5902.1466-.4335.0222-.9774.7485-1.4147.1968,1.3033.3962,2.512.5594,3.7255.5526,4.1094,1.905,7.9286,3.9357,11.5475.9383,1.6719,1.5549,3.5211,2.387,5.2566,1.504,3.1367,3.2671,6.0065,6.3714,7.952,2.4737,1.5503,5.0197,1.5945,7.6425,1.0813,1.7167-.336,3.4359-.9377,4.9003-1.9407,2.848-1.9507,6.0973-2.3629,9.3846-2.6027,2.0771-.1515,4.1736.023,6.2496-.2744.549-.0787,1.1686-.2236,1.4695.447.22.4902.0232.9909-.3196,1.3291-2.1182,2.0897-3.7014,4.569-6.9583,5.5814-4.256,1.3228-8.2223,3.5709-12.3267,5.3905-2.6414,1.171-5.3151,2.273-7.8484,3.6705-1.2548.6921-2.4922.8549-3.921.4958-3.0244-.7599-6.2185-.7657-9.1387-2.0259-.2102-.0907-.4657-.0599-.6216.204-.0196.5876.4772.7951.8669,1.0328,2.5038,1.5276,4.4227,3.706,6.4216,5.7852,1.4962,1.5563,1.3694,2.2179-.5714,3.2652Zm48.4314,11.1901c-3.4492,3.0065-7.0759,5.7097-11.2231,7.7686-5.5287,2.7447-10.8481,2.1559-16.2062-.2661-1.1687-.5283-2.3693-1.0325-3.4356-1.7305-1.8727-1.2257-3.9323-1.7452-6.1017-2.0366-2.0997-.2819-2.2866-.4333-2.2988-2.5713-.0165-2.8882-1.0427-5.323-2.998-7.3872-1.0958-1.1568-1.8478-2.6141-3.5469-3.5545,3.1583-1.8986,3.2184-2.4985.9444-4.8525-.8637-.8941-1.9182-1.6308-2.5933-2.7471.2352-.1186.3217-.2012.3749-.1835,4.0589,1.3494,7.4568-.2204,10.9291-2.1623,3.491-1.9523,7.159-3.6229,10.8564-5.1595,2.5823-1.0732,5.0556-2.4311,7.8049-3.1243,1.5789-.3981,2.5114-1.679,3.2094-3.0715.5381-1.0738.9522-2.2089,1.4502-3.3038.7437-1.635,1.782-2.2307,3.4678-1.6576,8.1822,2.7814,11.015,8.2904,9.3867,16.1906-.1679.8146-.7167,1.4146-1.259,2.0153-2.1134,2.3413-4.7883,3.7119-7.7693,4.5906-.783.2307-2.1223.1494-1.9408,1.3037.1679,1.0676,1.4225.8538,2.2563.7307,3.6999-.5463,7.2364-1.3854,9.662-4.6852,1.566-2.1304,1.9425-4.5371,2.1275-7.0256.0949-1.2763-.0297-2.5676.0267-3.8484.0549-1.2468.4003-1.4794,1.4814-.8489,1.8216,1.0624,3.6816,1.8278,5.8116,2.1365,3.7683.5459,7.3414.0481,10.8481-1.3259,1.3347-.5229,1.7047-.3945,1.8328.8514.3495,3.3994,2.0822,6.1947,3.7357,9.0359.2418.4155.6391.7769.762,1.2195,1.0397,3.7446,3.5629,6.7864,4.8789,10.4019.6945,1.908,2.0799,3.1423,4.0318,3.8429,1.7515.6287,1.8372,1.0371.5842,2.2919-2.7343,2.7381-5.8265,5.0616-9.2175,6.8831-1.905,1.0233-4.163,1.1464-6.3498.8646-2.3049-.2971-4.6037-.6468-6.8983-1.016-1.3918-.2239-2.4796-1.0127-3.5266-1.9338-1.8195-1.6008-3.1659-3.6136-4.8339-5.3438-2.0963-2.1744-3.9958-2.2684-6.2638-.2914Zm-4.5099,24.8209c.9362-.7839,1.3655-1.4388,1.326-2.5441-.0057-.1603.0181-.323-.0004-.4813-.5057-4.355,1.6627-7.1585,5.2742-9.1446,2.9678-1.6321,6.0516-2.6942,9.4496-3.3082,5.4042-.9766,9.8937,1.2914,14.4768,3.2363,2.4839,1.0541,4.9321,2.3901,7.2026,3.8199,2.744,1.7278,5.4642,3.575,8.0705,5.5261,2.8954,2.1675,3.0459,5.6805,3.5567,8.9053.5807,3.6669-.313,6.995-2.6183,9.9465-1.5308,1.9598-2.9543,4.0034-4.4814,5.9662-2.4775,3.1843-5.5103,4.2458-9.3209,3.0007-4.6578-1.5219-9.4676-2.4441-14.1561-3.8295-.8578-.2535-1.7485-.3585-2.6228-.2361-3.0948.433-6.2612.2728-9.3038,1.1374-1.8698.5314-3.6285.3579-5.293-.757-.8616-.5771-1.8262-1.0072-2.7641-1.4627-2.2052-1.071-3.3422-2.8553-3.7679-5.2373-.2847-1.5931-.4094-3.1793-.3686-5.2704-.9854-4.2677,2.3425-6.7564,5.3411-9.2671Zm-55.5746,35.4679c.9502-.7684,3.7737-2.9844,5.6864-4.4459,2.043-1.561,4.1946-1.8627,6.5695-.9905,3.0422,1.1173,6.156,1.8369,9.4261,1.5599.875-.0741,1.7675-.1559,2.6077-.3921,3.7863-1.0643,7.5223-2.2881,11.2474-3.5546,4.2318-1.4389,7.9202-3.8704,11.6444-6.2183,1.3755-.8672,2.4061-.9327,3.6818.024.8254.6191,1.8257,1.0004,2.7272,1.5236,1.2286.713,1.4526,1.2041.7422,2.3017-1.3936,2.1531-2.8928,4.2387-4.3764,6.3324-.5815.8206-1.485,1.2327-2.3983,1.5385-8.0641,2.701-16.009,5.7636-24.2413,7.9594-1.1376.3034-1.9523.2084-2.8294-.6081-1.8178-1.6919-3.8239-3.1954-5.2244-5.2905-3.2733-4.8965-8.7089-3.8482-12.2514-1.1469-1.1161.8511-2.166,1.7889-3.2609,2.6712-.5868.4728-.768-.4412.2493-1.2639Zm-39.5762,4.8455c-.7328-1.2998-.3339-2.6613.4425-3.8488.431-.6594,1.0028-1.235,1.5588-1.8018.4464-.455.9957-.5368,1.4812-.0466,1.4028,1.4164,2.7922,2.8462,4.1716,4.2853.2305.2405.2429.5626.115.8901-.4354,1.1152-2.7997,2.7141-4.2419,2.681-1.3729-.0817-2.7363-.7562-3.5272-2.1593Zm6.1857,40.8983c-.4974-1.0095-.8166-2.083-.7996-3.2638.5413-3.7187,2.2078-6.7651,5.4367-8.8455,1.1387-.7336,2.1307-.2359,3.0643.4968.9372.7355,1.2708,1.6581.7258,2.7439-1.6095,3.2071-3.1064,6.4921-5.4039,9.2885-1.2395,1.5085-2.1537,1.3447-3.0234-.4199Zm33.8767,17.2701c.2349.8773-.1292,1.4-.9854,1.5856-1.0178.2208-2.0432.4066-3.0638.6146-2.5852.527-5.223.8141-7.6755,1.915-1.0267.4609-2.1798.4653-3.3098.5016-2.4819.0799-4.9622.1033-7.4425.3669-2.3391.2486-4.5977-.573-6.8641-1.0285-1.9562-.3932-3.8417-1.13-5.7693-1.6767-.9714-.2755-1.1527-.7487-.9584-1.7709.9366-4.9269,3.3369-9.1655,6.1535-13.1776,2.7948-3.9811,4.6521-8.3975,6.4796-12.8492.6851-1.6688.3768-3.1082-1.028-4.3795.1204-.168.2408-.3359.3611-.5039,1.8373,0,3.6746.0092,5.5118-.0027,1.7336-.0112,3.3973-.7596,5.0583-.6776.3262.5838.1135.9444-.0264,1.3104-2.0647,5.3998-.5873,9.9055,3.5571,13.6604,1.3631,1.2349,2.8688,2.2657,3.3221,4.2316.1583.6862.8329,1.1609,1.4047,1.6086,3.3385,2.6136,4.2563,6.4683,5.2748,10.2719Zm-7.9222-30.2034c1.9846,3.4926,3.7159,7.0994,4.8264,10.9746.1996.6965.2309,1.4312-.0178,2.1371-.4861,1.3801-1.6557,1.9721-2.8357,1.1551-3.3154-2.2958-6.1441-4.9745-5.9268-10.1135.0037-1.2791.3676-3.0555,1.5412-4.6016.6268-.8256,1.2603-.9183,1.9615-.1138.1579.1812.3339.3558.451.5621Zm4.2547-12.6589c-1.8802,4.726-5.1328,7.8546-10.1514,9.0491-2.8237.672-5.6624,1.1495-8.5792,1.0146-.9629,0-1.9279-.0406-2.8883.0078-2.6367.1328-4.646-1.0043-6.2379-3.01-1.906-2.4013-3.415-5.0228-4.6129-7.8558-1.8835-4.4543-.4186-8.1221,2.4641-11.511.4135-.4861.9739-.8473,1.3867-1.3338.843-.9935,1.6732-1.055,2.9495-.6244,1.8057.6093,3.8145.8419,5.7013.6082,3.8484-.4766,7.6958-.248,11.5419-.3596.6417-.0186,1.2831-.0519,1.9244-.0825,1.2847-.061,2.5997-.39,3.4513-1.2207.5543-.5407,2.2279-1.3434,1.278,1.0424s-1.1317,5.5786-.0007,7.3231c.3929.606.7038,1.2829,1.1786,1.8145,1.4238,1.594,1.3338,3.2797.5945,5.1379Zm.157-24.422c-1.2962,2.4082-2.8795,4.6183-4.4438,6.8482-.8154,1.1622-1.8712,1.6321-3.277,1.6014-2.4829-.0543-4.9679-.0152-7.452-.0152,0-.0098,0-.0195,0-.0293-2.4835,0-4.9671-.0145-7.4504.0058-1.3436.011-2.495-.3785-3.4903-1.3146-2.3911-2.2488-4.8999-4.3868-7.0153-6.9025-1.4167-1.6849-1.3069-1.7924.4036-3.2303,3.0194-2.538,6.3079-4.6589,9.7728-6.5364,2.1111-1.1439,4.1812-2.3765,6.191-3.6898,1.3266-.8669,2.5054-.8766,3.7639.0205,2.7375,1.9515,5.584,3.7419,8.1923,5.8858,1.678,1.3792,3.3137,2.7417,4.6166,4.5096.7299.9905.7548,1.7949.1888,2.8468Zm36.7106,22.236c-2.7018.3262-5.4047-.0915-8.1187-.3586-5.4338-.5349-10.7173.6076-15.9948,1.6005-3.3171.6241-5.8206-.3709-7.74-3.0722-.6508-.9158-1.272-1.8663-2.0258-2.6923-1.2028-1.3179-1.6486-2.8976-1.8988-4.5903-.5027-3.4011.5715-5.2933,3.8494-6.4976.7943-.2919,1.4217-.6961,1.9464-1.3267.6245-.7508,1.3908-1.335,2.254-1.7805,2.735-1.4117,4.465-1.06,6.2379,1.4691,1.2624,1.8009,2.7747,3.3109,4.4799,4.668.5605.446,1.1493.9281,1.5255,1.5204,1.1047,1.7393,2.636,1.8973,4.4169,1.4062,8.4324-2.3252,16.8279-4.7678,25.0411-7.7974.829-.3058,1.6857-.6096,2.576-.5534,1.6912.1067,2.8731-.7217,3.9838-1.8665,1.7631-1.8173,3.0601-3.9329,4.0281-6.2349.564-1.3411,1.3382-1.9992,2.8456-2.1207,1.9108-.154,3.8109-.5551,5.6894-.9686,2.8529-.6281,5.5789-.2984,8.2345.8392,1.2531.5369,2.5125,1.0632,3.741,1.6527,1.8735.899,1.9866,1.2164,1.0187,3.1266-.6169,1.2173-1.1251,2.4857-1.7266,3.6994-1.5273,3.0816-3.0148,6.2189-4.9099,9.0739-2.8239,4.2542-6.9679,6.7446-11.9648,7.8652-6.1994,1.3903-12.4549,2.3096-18.8059,2.5851-2.882.125-5.743.6904-8.683.3533Zm145.2488,50.6653c-1.4472,1.4785-3.2275,1.9725-5.148,2.3518-4.4785.8846-8.949,1.8143-13.4062,2.8-2.2043.4875-4.2808,1.3596-6.1964,2.5775-3.6283,2.3067-7.7839,3.4193-11.7264,4.9658-2.4939.9782-5.3633.9412-8.0662.194-3.0156-.8336-5.6871-.3118-8.0911,1.7504-1.3073,1.1215-2.8929,1.6496-4.632,1.819-3.2617.3177-6.4818,1.2458-9.7897.8519-4.2252-.5032-8.4655-.7834-12.7111-.8699-4.0295-.0821-7.9846-.6547-11.9478-1.2865-2.6119-.4164-5.2415-.8114-7.8779-.9655-4.6422-.2711-9.2809-.4802-13.8993-1.0999-2.3364-.3135-4.6455.1027-6.7617,1.2693-1.1943.6584-2.4117.6395-3.7232.2859-6.1961-1.6707-12.4915-3.0026-18.537-5.1871-4.3455-1.5702-8.7262-1.9628-13.2382-1.0443-1.5881.3234-3.1993.2579-4.8013.2623-1.8201.0051-2.217-.3232-2.6539-2.1023-.1904-.7751-.2846-1.5813-.346-2.3792-.2448-3.1844-1.0947-6.3286-.5233-9.5703.214-1.2137-.4-2.1747-1.4429-2.8321-1.1542-.7277-2.2483-1.5899-3.4802-2.1466-2.2836-1.032-3.8177-2.8575-5.4533-4.6221-1.0634-1.1472-1.5416-2.4313-1.3411-3.9527.252-1.9117.4124-3.8259.4222-5.7549.005-.9813.3098-1.9164.7424-2.7733,1.3447-2.6642,2.3501-5.4565,3.165-8.3142.4926-1.7276,1.5961-2.6871,3.2548-3.2092,5.6579-1.7809,11.1053-4.1773,16.8768-5.6472,2.1611-.5505,4.2568-1.4658,6.2781-2.4327,3.0576-1.4625,6.2935-1.7021,9.5876-1.8924,8.2589-.4773,16.4747-1.241,24.3984-3.8864,4.6725-1.5599,7.8958-4.8696,10.4498-8.8127,1.5189-2.3452,2.8188-4.8511,4.3464-7.2097,1.0073-1.5552,1.8177-3.2171,2.3833-4.9838.3442-1.0754.9142-1.4847,2.1293-1.3729,3.4969.3217,6.8562-.3863,10.0728-1.7646,1.4343-.6146,2.5744-1.6163,3.5132-2.8525,2.4314-3.2015,4.5108-6.6407,6.6145-10.0533,1.6513-2.6789,1.4106-5.7309.9377-8.6828-.3798-2.3713-1.0305-4.6998-1.5764-7.0438-.5109-2.1937-2.0773-3.6006-3.8168-4.7775-2.3263-1.574-4.7374-3.0499-7.3683-4.0614-2.6433-1.0164-5.0245-2.4862-7.6779-4.0146,3.8671-2.1436,7.3583-4.41,10.5626-7.0845,1.16-.9683,2.309-2.0212,2.8057-3.5455.3019-.9268.8395-1.1221,1.6213-.5364.9634.7217,1.9527,1.4164,2.8572,2.207.8682.7589,1.4182,1.7691,1.55,2.9197.2463,2.1498.5114,4.3052.5851,6.4645.0608,1.7795.2385,3.5535.7103,5.2315.5975,2.1255.7461,4.2556.788,6.4232.0529,2.7378.4877,5.4129,1.1056,8.0831.5773,2.4949.9776,5.0369,1.3344,7.5753.4008,2.8513,1.6399,5.3837,3.0131,7.8141,1.1159,1.975,3.1134,3.2026,4.9399,4.5081,1.4493,1.0359,2.8443,2.1138,3.6732,3.7401.9025,1.7706,1.1879,3.4977-.4568,5.062-.3431.3264-.6435.7296-.8611,1.1505-.9869,1.9085-.2484,3.4849,1.8779,3.5451,3.0652.0869,6.0547.697,9.0854.9614,1.7874.156,3.483.5898,5.1642,1.0912,2.1341.6365,3.3859,2.3774,4.4834,4.1583,1.0931,1.7739,1.9514,3.6923,3.0411,5.4684,2.9144,4.7499,4.9075,9.8781,6.6602,15.1465,1.248,3.7513,3.3461,7.1063,6.0427,10.0207,1.7102,1.8483,3.0488,3.9529,4.1788,6.1452,2.0927,4.0605,4.0811,8.1819,5.6693,12.4807.7104,1.9228,2.2933,2.345,3.9971,1.1,1.0355-.7566,1.9754-1.6486,3.0351-2.3663,1.3046-.8836,1.8494-.7328,2.2975.7418.7697,2.532,1.385,5.1106,2.0885,7.6632.2681.9727-.085,1.5832-.7886,2.3021Z"/>
</svg>