<?xml version="1.0" encoding="UTF-8"?>
<svg id="Layer_1" data-name="Layer 1" xmlns="http://www.w3.org/2000/svg" viewBox="0 0 300 150">
  <defs>
    <style>
      .cls-1 {
        fill: #fff;
      }

      .cls-2 {
        fill: #0867e8;
      }

      .cls-3 {
        fill: #cdb78d;
      }

      .cls-4 {
        fill: #c9af85;
      }
    </style>
  </defs>
  <g>
    <polygon class="cls-3" points="0 1.7 10.2 1.8 15.5 .2 38.3 3.8 65.7 3.5 68.7 3.4 270.89999 2.1 288.79999 3.8 296.29999 2.4 300 35.6 298.70001 75 258.20001 72.3 249.89999 72.2 241.89999 71.5 79.3 74 69.9 74 61.5 73.1 4.1 73.1 0 68 2.3 44.7 1.3 41.7 0 1.7"/>
    <polygon class="cls-4" points="38.3 3.8 1.3 41.7 2.3 44.7 38.3 3.8"/>
    <polygon class="cls-4" points="1.3 41.7 10.2 1.8 15.5 .2 1.3 41.7"/>
    <polygon class="cls-4" points="270.89999 2.1 298.70001 75 288.79999 3.8 270.89999 2.1"/>
  </g>
  <g>
    <path class="cls-1" d="m212.95944,90.46432l14.22285.24211-2.9093,2.94132-3.16791,2.92553-5.96368,4.20189-.09685.08114.06443.11316.69498,1.0509,4.84875,5.6401,5.1392,4.94577,5.55981,5.25324,4.34794,5.39754,3.37774,6.15764-9.92355,5.99581-3.18387-3.2808-8.42044-8.87265-4.70295-5.01069-4.00838-5.39797-2.34332-4.97822v-.12896h-.03241l-.35545-2.68297.95319-3.68476,5.62461-10.86042h.04842v-.04869h.22624-.00005,0Zm32.98659-31.79048v-.06535l-.09693-.0478.06448-.06491-2.32682-4.92999-3.99224-5.39753-4.70321-4.99401-4.91332-5.18833-5.57605-5.26815-5.13929-4.94621-4.84875-5.64051-3.49068-5.30104-.0164-.01624v-.03202l-.50085-2.47332v-.06448l.95323-3.65231-5.67264,10.92535-.95363,3.68475.3719,2.78037,2.34332,4.99401,4.00837,5.39798,4.70292,5.0098,4.8812,5.13962.03199.03246,5.55964,5.2528,5.14008,4.94533,4.84795,5.64096.6952,1.05004.06491.11316-.09693.08113-5.96422,4.20189-3.16764,2.92597-2.90887,2.94088,14.22238.24256h.22631l5.67256-10.92535.95354-3.6852-.37107-2.66632h-.00044Z"/>
    <path class="cls-2" d="m247.15791,62.18056v-1.66453h-.80792l-.14517-1.11494h.59782v-1.66453h-1.08248l-1.56759-3.32949h.29081v-1.66452h-1.29303l-2.77991-3.73345h.04825v-1.69743h-1.4382l-3.26501-3.45843v-1.53558h-1.4382l-3.47467-3.6532v-1.53513h-1.51935l-4.04048-3.81415v-1.43863h-1.50311l-3.6366-3.50669v-1.45489h-1.37368l-3.45862-4.0238v-1.60005h-1.22832l-2.40811-3.66898h.1293v-1.66497h-.87279l-.17772-.85661h.53326v-1.68075h-.48484l.51725-2.0198h.92122v-1.66541h-1.6647v1.66453h.25869l-1.05061,2.02067h-.16171v.32325l-3.58801,6.91732h-1.14744v1.66497h.48489l-.51725,2.01978h-.92126v1.66497h.80836l.14527,1.11539h-.59809v1.66451h1.08297l1.56781,3.3295h-.29106v1.66453h1.29311l2.7797,3.73346h-.04846v1.66453h1.4385l3.26493,3.47467v1.53513h1.43802l3.47512,3.65317v1.51892h1.51934l4.04048,3.81503v1.43775h1.50267l3.63652,3.50757v1.45399h1.37417l3.45844,4.02468v1.60005h.77548v.76011l-4.39576,3.11895v-.08114h-1.66452v1.42198l-1.63251,1.50312h-1.5518v1.48732l-1.4382,1.45444h-1.47066v1.66452h1.66496v-.69475l12.78374.22588v.71099h.19386l-2.2948,3.87951h-1.17986v.46887l-12.13766-3.4102v-.93819h-1.66453v1.29346l-.84076.61406v-.04869h-1.66466v1.6654h1.66466v-.17807l10.58625,6.46423v.8088l-.84039.61362v-.04781h-1.66452v.46887l-12.13774-3.41019v-.9382h-1.68106v1.66453h.19417l-2.29525,3.87951h-1.17943v1.66452h.25821l-1.05052,2.02024h-.16137v.32325l-3.58796,6.91734h-1.11539v1.66451h.4848l-.51686,2.02023h-.92121v1.66453h.80792l.14535,1.11581h-.59778v1.66452h1.08258l1.56777,3.32907h-.29063v1.66496h1.29271l2.78009,3.73302h-.04842v1.66497h1.43847l3.26454,3.47467v1.53602h1.43846l3.47467,3.65187v1.51934h1.43834l2.06936,2.18208v1.51891h1.45442l1.71278,1.77813v1.50267h1.66497v-1.16319l8.25859-4.99402v.17764h1.66452v-1.66452h-1.14741l-2.45665-4.49356h.22632v-1.66452h-1.34128l-3.00623-3.73345v-1.66452h-1.51935l-4.04047-3.81416v-1.43864h-1.50267l-3.63656-3.50668v-1.45488h-1.37408l-3.47466-4.04092v-1.60005h-.77587v-.75924l4.39588-3.10317v.08071h1.6647v-1.42198l1.63255-1.50312h1.55137v-1.48732l1.43864-1.45444h1.47066v-1.66453h-1.68075v.69476l-12.78431-.22589v-.71098h-.19377l2.29485-3.87951h1.17982v-.45177l12.13771,3.4102v.93687h1.66452v-1.29259l.84081-.61449v.04869h1.66452v-1.66453h-1.66452v.17721l-10.58621-6.46468v-.80748l.84033-.6145v.04869h1.69694v-.46887l12.13766,3.41019v.93687h1.66451v-1.66453h-.19342l2.2948-3.87864h1.17987v-1.68118h-.25879l1.05048-2.02025h.16185v-.32325l3.58827-6.91688h1.11495v-1.66496h-.48511l.51713-2.02024.95397.01624h-.00094Zm-34.84508,29.36627l-.45238,1.7619h-.45239l.90525-1.76189h-.00048Zm-1.3736,2.65096v.77547h.25869l-3.29699,6.35196v-.7759h-.25856l3.29685-6.35152Zm-3.95951,8.01604h.45238l-.92121,1.76191.46883-1.76191Zm-.63055,3.68564h.59813v-1.66541h-.25861l1.05052-2.02023h.16171v-.32282l3.58801-6.91689h.32308l.17772.85573h-.53322v1.66451h.25865l-4.9456,9.52003h-.25869l-.16172-1.11494.00002.00002Zm.66261,2.7957h.29106v-1.66452h-.25869l4.94559-9.52003h.6791l.56524.85661h-.1293v1.66498h1.08293v1.64872h.77594v1.16364h.14535l-5.89926,9.17967h-.6302l-1.56776-3.32905v-.00002Zm2.60232,4.99402h.04842v-1.66498h-.14531l5.89883-9.17967h.92121l3.45867,4.02425v1.60049h.06486l-6.57784,8.95292h-.9052l-2.76364-3.73302h0Zm11.70116-5.20455l3.63625,3.50713v1.45488h.01667l-6.94982,8.98623h-1.08301l-3.26444-3.47467v-1.53602h-.06487l6.57789-8.95292h1.13134v.01537Zm5.17183,4.9462l4.04047,3.81415v1.38997l-7.53181,8.95336h-1.14719l-3.47467-3.65274v-1.51891h-.01644l6.94978-8.98624h1.17986v.00043h0Zm5.36595,5.26814l3.0058,3.73389v1.42198l-8.17744,7.46734h-1.32592l-2.06849-2.18208v-1.48689l7.53138-8.95423h1.03467Zm6.6103,9.89154h-.22632v1.17986l-8.25904,4.99402v-.17807h-1.45442l-1.71321-1.77769v-1.26057l8.17789-7.46646h1.03467l2.44044,4.50891h0Zm-22.59448-28.49389v-.08026h-1.08293v-.986l5.4304-1.98778-4.34746,3.05405h0Zm-1.08293-1.34127v-.38817h-1.22832l-.56567-.85661h.1293v-.90441l10.31094-2.60272v.24299l-1.63207,1.50267h-1.55132v1.00223l-5.46288,2.00401h.00004Zm11.55598-7.91954v.54914l-1.43864,1.45486h-1.4711v.90531l-10.31094,2.60226v-.4851h-.87279l-.17772-.85661h.53326v-1.66452h-.48484l.51725-2.02024h.92121v-.69519l12.78431.21053v-.00044h-.00001Zm19.07077-33.11639h-.29079v1.66453h.25878l-4.94577,9.52003h-.67897l-.56537-.8566h.12896v-1.66496h-1.08249v-1.6483h-.7759v-1.16364h-.14518l5.89887-9.18011h.63072l1.56715,3.32906h0Zm-2.58604-4.99401h-.04825v1.66495h.14562l-5.91552,9.18011h-.92109l-3.45887-4.02468v-1.59961h-.06449l6.57785-8.95379h.90529l2.77948,3.73302h-.00001Zm-11.71703,5.20454l-3.63652-3.50757v-1.45399h-.01623l6.94979-8.98624h1.08293l3.26457,3.4751v1.53513h.06491l-6.57827,8.95379-1.13118-.01623Zm-5.15586-4.96156l-4.0403-3.81415v-1.3904l7.53164-8.9538h1.1474l3.47467,3.6532v1.51891h.01622l-6.94978,8.98624h-1.17986.00001Zm-5.49517-5.25278l-3.47467-3.65231v-1.51891h-.0161l6.94947-8.98624h1.17986l4.04048,3.81415v1.38952l-7.53124,8.9538h-1.14781Zm-4.89677-5.17124l-3.26493-3.47597v-1.53513h-.06487l6.57832-8.95379h1.13091l3.63699,3.50755v1.454h.01579l-6.94965,8.98626-1.08257.0171Zm-4.62252-30.88605l-.45238,1.76146h-.46883l.92121-1.76146h0Zm-1.37359,2.65051v.77592h.25821l-3.31296,6.36773v-.7759h-.25861s3.31335-6.36775,3.31335-6.36775Zm-3.95995,8.0165h.45243l-.92126,1.76146.46883-1.76146Zm-.64655,3.68475h.59813v-1.66497h-.25861l1.05052-2.01978h.16171v-.32325l3.588-6.91732h.32308l.17781.85661h-.53336v1.66451h.25869l-4.94559,9.51961h-.25869l-.16171-1.11539h0Zm.66261,2.79615h.29101v-1.66453h-.2586l4.94559-9.51959h.679l2.44016,3.66898h-.12934v1.66451h.1457l-5.89921,9.18013h-.63011l-1.58421-3.3295h0Zm2.60227,4.99401h.04842v-1.66451h-.14526l5.89878-9.18013h.92121l3.4587,4.02426v1.59962h.06487l-6.57784,8.95379h-.90524s-2.76365-3.73303-2.76365-3.73303Zm28.33177,32.51813v.08114h1.08336v.98512l-5.43043,1.98866,4.34707-3.05492h0Zm1.08336,1.34171v.38729h1.2281l.56582.85661h-.12939v.90573l-10.31172,2.6014v-.24211l1.63295-1.50355h1.55136v-1.00222l5.46288-2.00314h.00001Zm1.2281,7.45023v.69564l-12.78416-.22765v-.54871l1.43864-1.45442h1.47022v-.88951l10.31172-2.6014v.48467h.87283l.17764.85661h-.53334v1.66495h.48509l-.51756,2.01981h-.9211Zm1.24434-.25834l.45221-1.76189h.45308l-.9053,1.76189Zm1.37417-2.63429v-.7759h-.25878l3.29704-6.35151v.77545h.25834l-3.2966,6.35196h0Zm3.95889-8.03314h-.45176l.92064-1.76102-.46888,1.76102Zm-.743,0h-.16185v.32369l-3.58782,6.91734h-.32326l-.17764-.85661h.53336v-1.66497h-.25879l4.94577-9.51916h.25834l.14562,1.11496h-.59827v1.68076h.25834l-1.0338,2.004h0Z"/>
  </g>
</svg>