<?xml version="1.0" encoding="UTF-8"?>
<svg id="Layer_1" data-name="Layer 1" xmlns="http://www.w3.org/2000/svg" xmlns:xlink="http://www.w3.org/1999/xlink" viewBox="0 0 300 270">
  <defs>
    <style>
      .cls-1 {
        fill: #ef6565;
      }

      .cls-2 {
        fill: #fff;
      }

      .cls-3 {
        fill: #0867e8;
      }

      .cls-4 {
        clip-path: url(#clippath);
      }

      .cls-5 {
        fill: #e06363;
      }

      .cls-6 {
        fill: none;
      }
    </style>
    <clipPath id="clippath">
      <rect class="cls-6" x="44.87212" y="44.87215" width="222.05576" height="222.0557"/>
    </clipPath>
  </defs>
  <g>
    <polygon class="cls-1" points="0 76.7 14.2 74.1 52.6 77.3 245.60001 72.6 270.10001 76.3 296.79999 72.6 300 115.8 298.89999 136.8 300 162.2 289.89999 167.3 6.1 171.3 0 170.39999 3.2 161 0 150 0 76.7"/>
    <polygon class="cls-5" points="52.6 77.3 0 150 14.2 74.1 52.6 77.3"/>
    <polygon class="cls-5" points="245.60001 72.6 300 115.8 270.10001 76.3 245.60001 72.6"/>
    <polygon class="cls-5" points="3.2 161 0 170.39999 6.1 171.3 3.2 161"/>
  </g>
  <g class="cls-4">
    <g>
      <polygon class="cls-2" points="154.76662 197.21965 68.03349 261.09364 68.03349 46.61265 154.76662 110.48654 154.76662 197.21965"/>
      <path class="cls-2" d="m134.42812,129.47495l.39484,3.0106-1.07867,4.1489-6.38324,12.3032-.25269-.004-16.01959-.2771,3.2731-3.3126,3.57559-3.2904,6.71588-4.7258.11639-.0822-.07819-.119-.78162-1.1871-.00488-.008-.00623-.0071-5.45551-6.3463-5.78589-5.5758-6.25751-5.9116-.00671-.0067-.04041-.044h-.00131l-5.495-5.7885-5.29111-5.6349-.00449-.0071-.00491-.0067-4.517-6.0759-2.64651-5.6171-.00381-.0084-.4108-3.1368,1.07849-4.1489,6.3826-12.3028h.0004l-1.06989,4.1156-.00891.0328.00711.0333.56619,2.7864.0054.0275.0155.0239,3.9357,5.9782.0054.008.0062.0071,5.45551,6.3463,5.78589,5.5759,6.26331,5.9178,5.53809,5.8339,5.28979,5.6327.00439.008.00537.0071,4.51752,6.0764,2.61359,5.5478-.0733.0733.1084.0529v.0773h.0177l-.00018-.00011Zm-37.41461,35.81v.07899l-.05771.0004-6.34189,12.22369-1.07831,4.1489.39481,3.01511h.01819v.01469h.00311v.0164h.0058v.11459l2.6394,5.60159,4.517,6.0759.0054.0071.00449.0076,5.2916,5.6349,9.48941,10.0018,3.58041,3.6888,11.17612-6.7527-3.79669-6.94189-4.89899-6.0808-.00131-.0018-6.26291-5.9178-5.78629-5.57581-5.45551-6.3463-.0058-.0071-.0054-.008-.78159-1.1871-.07819-.119.11639-.0817,6.71591-4.7258,3.57559-3.29131,3.2731-3.31219-16.01959-.2767-.23621-.0045h-.00021l-.00012.00003h-.00003Zm75.21777,78.73999c.03693-.0125.0697-.03439.09497-.0636l8.13922-9.25819c.0293-.03329.04797-.0746.05371-.11861l2.17792-17.0979c.0097.0013.0191.0018.02838.0018.08929,0,.17139-.0542.20563-.13901.03778-.0937.00763-.2012-.07373-.26109l6.65631-8.9742c.03912.0293.08569.0435.13239.0435.052,0,.10388-.0182.1452-.0542.07861-.06841.09949-.18159.04968-.27361l5.16589-2.7966c.05292-.0289.09198-.0782.1084-.1364.01599-.0582.00751-.1208-.02307-.17281l-4.87677-8.20979.03857-.2438-.15192-.1692c-.01239,0-.0249.0009-.03778.0031l-.95892-5.5394c-.01239-.0724-.06-.1337-.12659-.16431l-16.64172-7.5761c.02533-.0555.02667-.119.00348-.1759-.02307-.0564-.06842-.1008-.12518-.123l7.35358-18.98801c.03369-.08701.00928-.1857-.06091-.24741l-7.45532-6.5302c.0484-.0551.0661-.1306.04797-.2016l14.073-3.635c.08081-.0209.14301-.0848.16119-.1661l2.14508-9.4831c.01642.0036.03278.0054.04883.0054.07819,0,.15228-.0413.19281-.1115l4.58459,2.6309c.03461.02.07281.0298.11011.0298.07642,0,.15051-.0391.19189-.1093l2.96179-5.0264c.03949-.0671.04089-.1501.00403-.2185l-4.38251-8.093c.06567-.036.10919-.1026.11548-.1772.00623-.0746-.0257-.1475-.0849-.1932l11.35553-14.6055c.03961.0311.08789.0466.13593.0466.03821,0,.07599-.0093.1106-.0293.07819-.0444.12122-.1319.10968-.2211l14.7063-1.9208c.00439.032.01562.0626.03241.0897l-25.56122,16.167c-.09058.0573-.1275.171-.08752.2705.03461.0857.11682.1395.20599.1395.01471,0,.02972-.0018.04437-.0049l19.78522-4.0507v.0004c.0213.1048.11407.1772.21722.1772.01471,0,.02979-.0013.04492-.0045.11987-.0244.1972-.1417.17322-.2616l10.73108-2.1872c.01727.0844.08173.151.16559.1714.01727.004.03461.0062.052.0062.06659,0,.13062-.0302.17322-.0835.04309-.0533,21.24719,17.0015,21.24719,17.0015-.06219.0773-.06519.1865-.00763.2674.0426.06.1106.0933.18073.0933.0249,0,.05017-.0045.07507-.0129l5.95459,16.6222c-.08313.0298-.14032.1057-.14661.19321-.00623.08791.03992.1714.11768.2123l-3.08173,5.83611c-.03333.06219-.03461.1368-.00348.2003l1.86493,3.858c-.06799.03281-.11462.0981-.1239.1727-.00891.0751.02039.1492.07819.1976l-20.323,24.3333c-.03333.03999-.052.09061-.052.1425v10.386c-.09552,0-.1803.06129-.21051.1519l-6.62842-2.2099c-.02307-.008-.04657-.01151-.07019-.01151-.06482,0-.1275.0284-.17059.0795l-12.89478,15.4395c-.04041-.03371-.09058-.0515-.14209-.0515-.01471,0-.02887.0013-.04309.004-.06567.01289-.12207.0551-.15369.11411v.0004l-5.47192-2.8867c-.03241-.01691-.06799-.0253-.10352-.0253-.03241,0-.06482.0071-.09497.0209-.06311.0298-.1084.08749-.12262.1559l-3.77722,18.1768c-.01471-.0031-.02972-.00459-.04492-.00459-.06299,0-.1239.02679-.1665.075-.05292.05969-.06927.1431-.04352.2186v.00031l-27.9151,9.5253c-.03693.0125-.06982.03439-.09552.0636"/>
      <path class="cls-3" d="m249.14827,165.08334h-.45129l-8.14758-16.8567,10.65338,11.01311v1.59039h.19189l-2.24628,4.2533h0l-.00012-.00009Zm1.0437,4.1147l-28.8797-27.157v-.0751l17.4967,5.0722v.9797h1.14581l8.2489,17.0654h-.23901v1.8781h1.14673l1.08099,2.2365h-.00043v.00021Zm-20.01752,35.29939h-.7168v.39211l-5.10419-1.7023v-.8567l5.54828-6.64391h.27271v8.8107h0v.00011Zm-24.88489,11.4532v-1.18311h-1.87811v1.8777h.51691l-3.49158,16.8055h-.90729v1.0247l-26.30341,8.9756v-.1769l6.78021-7.7122h1.4469v-1.6456l9.65277-10.9798h1.46912v-1.67081l18.57721-21.1308h1.46912v-.39169l9.85388,3.286v.8567l-11.70007,14.009h-1.43402v.19279l-4.05212-2.1371h.00049Zm-22.46002,2.25481h.83447v-.18871l7.0329,3.7341v.97839l-9.63098,10.9549h-.20831l1.9718-15.47859h0l.00012-.00009Zm.83447-1.832l5.56207-7.4984h.32861l1.72449,12.18379h-.58221v.18871l-7.03247-3.7341v-1.14h-.00049Zm10.60669-10.6889v.1777h1.87811v-1.1947l10.94598-5.9267v.1777h1.87769v-.39169l1.77069.5907v.811l-18.57709,21.1304h-.43829l-1.72449-12.18381h.58142v-1.1951l3.6861-1.99541h0l-.00012-.00011Zm-3.3526-8.4222h.12299v-1.8777h-.87622l-.69098-3.9966h.55072v-1.8777h-1.87769v.2673l-14.98828-6.82291h14.2627v.7168h1.87811v-.3548l9.17853,3.397v1.0499h1.87769v-1.2462l10.62531-6.4138v.11279h.51691l-3.49597,16.8239h-.90692v1.1951l-10.94598,5.9267v-.1781h-1.23822l-3.99249-6.7216h-.00012l-.00006-.00008Zm-18.18188-15.4684l6.763-17.46201h1.06451v-.9415l2.68109-.66v.4787h.90417l3.79272,18.5847h-.52051v.7168h-14.34747v-.7168h-.33759l.00006.00011Zm10.50848-19.711v.19009l-2.6806.66v-.4792h-1.67432l-5.70679-4.9985,10.06183,4.62759-.00012.00002Zm2.0274-8.697v.4672h.58752l-1.69122,7.47839h-.92371v.2625l-10.42023-4.7924v-.2003l12.44751-3.2154s.00012,0,.00012,0Zm3.12299,28.4081l-3.79272-18.5847h.52051v-1.8777h-.13861l3.46143-5.9791h1.22583v-.4437l14.39368,4.0592v.43829l-13.92023,10.0498h-1.85999v1.8777h1.26038l9.02753,14.5518h-.09497v.3548l-9.17853-3.397v-1.04939h-.9043v.00002Zm.14917-37.7975h.92371v-.1439l3.08972,1.7733v1.2217h1.87811v-.1443l21.08868,12.10249v1.2222h1.87769v-.1443l8.89728,5.106v1.2222h.05109l-5.44922,8.22321h-1.2951v.7168h-10.79102v-.7168h-.9566l-1.06317-4.0401h.46228v-1.1409l6.8949-3.2878v.24561h.50317l-.99658,4.4922h-.9198v1.8781h1.87811v-1.8781h-.50317l.99658-4.4922h.9198v-1.8781h-1.87811v1.1409l-6.8949,3.2878v-.24561h-1.87769v1.8781h.95618l1.06317,4.0401h-.46228v1.8777h1.87811v-.7168h10.79102v.7168h.84027l2.15039,16.1346h-.58978v.9957l-13.03473,4.0152v-.4174h-.51703l3.49561-16.8243h.90729v-1.8781h-1.87769v1.2462l-10.62488,6.41389v-.11279h-1.26038l-9.02753-14.5518h.09497v-1.343l13.9198-10.04939h1.86029v-1.8781h-1.87811v.44321l-14.39368-4.0592v-.9731h-1.87811v1.8781h.13898l-3.21008,5.5452,1.59302-7.0445h.83447v-1.8781h-.40991l1.80438-7.9784h.00031l.00018-.00021Zm7.79419-2.4723h1.23419v-1.3434l7.0014-5.058h1.8595v-.5143l8.92352,1.8817v.91h1.41803l2.6593,3.262v.9495l-9.651,3.9997v-.3096h-1.87811v1.8777h1.23779l6.50531,10.9704h-.1239v.14391l-21.08868-12.1025v-1.2217h-.12793l2.03052-3.4454h0l.00006-.00002Zm-3.49158-8.3991h.1781v-.9042l19.31311-3.9543v.0591l-6.04169,4.9194h-1.74048v1.343l-7.0014,5.058h-1.17639l-3.53113-6.5205v-.0004h0l-.00012-.00011Zm10.41852-14.9559h1.38739v-.8375l13.23761-1.7289-24.84888,15.7167,10.22388-13.1501h0v-.0002Zm20.2395,7.8203v.5214h1.7569l19.83667,15.8725v.0382l-27.8631-5.9857v-.9136h-1.87811v.5139l-8.92352-1.8817v-.449l6.04211-4.919h1.74048v-.9038l9.28857-1.8932h0Zm-3.61023,14.5345l-2.6593-3.262v-.1319l19.59637,8.8725-15.51947-4.4988v-.9797h-1.4176v-.0001Zm-10.11108,6.6558v-1.0876l9.651-4.0001v.3096h.50317l-3.49341,15.7482h-.27979l-6.50531-10.97h.12439l-.00006-.0001Zm14.12579,54.98901h-1.43402v.39211l-9.85388-3.286v-1.0179h-1.87811v.39169l-1.77069-.5903v-.13589l13.03473-4.0148v.4174h1.87769v-.54179l5.57269,1.0183v.7235l-5.54828,6.64349h0l-.00012.0002Zm26.0658-31.2085l-19.08301,22.8486h-1.43402v.54179l-5.57269-1.0188v-.8846h-.8407l-2.1499-16.1346h.58978v-1.8777h-.05017l5.44879-8.22321h1.29462v-1.8781h-1.87811v.14391l-8.89728-5.106v-1.22169h-.50317l3.49341-15.7482h.65552l28.92719,27.20181v1.3568h-.00024v-.00002Zm1.59442-12.0083h-.0271l-10.8559-11.2214v-1.5904h-1.87769v.27l-20.534-9.2966,26.82343,5.7624v.9135h1.03918l5.43152,15.1624h.00061l-.00006.00011Zm1.51129,1.8781v-1.8781h-1.03967l-5.43152-15.1624h.36639v-1.8781h-1.75647l-19.8371-15.873v-1.4056h-1.87769v.9038l-9.28857,1.8932v-.521h-1.87811v.9042l-19.10791,3.9122,24.69128-15.6167v.0826h1.87811v-1.8781h-1.87811v.838l-13.2688,1.7329v-.5925h-1.87769v1.7849l-10.2403,13.171h-1.38788v1.8777h1.19513l3.53113,6.5209h-.1781v1.8781h.12793l-2.03052,3.4454h-1.23462v.1443l-3.08972-1.7733v-1.2217h-1.87769v1.8777h.49921l-1.80487,7.9789h-1.01257v.9517l-12.44708,3.2154v-.4672h-1.87811v1.87811h1.67432l6.06482,5.31239v1.466h.3371l-6.76251,17.46201h-1.06451v1.8777h1.87811v-.2673l15.07269,6.8615v1.1227h.87622l.69153,3.99609h-.55121v1.8781h1.23871l3.99213,6.7216h-.12347v1.1947l-3.68573,1.9959v-.1781h-1.87811v1.83279l-5.56122,7.49789h-1.35938v1.8781h.59552l-1.9718,15.4783h-.83447v1.6956l-6.75848,7.6873h-1.46869v1.87801h1.87811v-1.02451l26.30292-8.9756v.3838h1.87811v-1.87801h-.51691l3.49158-16.8055h.90729v-.19231l4.05212,2.1371v1.18311h1.87769v-1.717l11.70062-14.009h1.43359v-.39169l5.10461,1.7023v1.0174h1.87811v-1.8777h-.71729v-8.8107h.71729v-1.71651l19.08301-22.84911h1.43402v-1.8781h-1.14587l-1.10272-2.2814h.2381v-1.8777h-.19189l2.24628-4.25369h1.18378l-.00018.00023Zm-120.17389-25.1345h-.10217v.1967l-4.12854,7.9576h-.20117l-.19672-.9695h.52136v-1.8781h-.19989l5.57361-10.7151h.13733l.16479,1.2595h-.59198v1.8777h.20166l-1.17816,2.2712s-.00012,0-.00012,0Zm.50049,0l.70392-1.3568-.3526,1.3568h-.35132Zm-4.02899,8.8712v-.7168h-.2016l3.62793-6.993v.7164h.20166l-3.62793,6.9934h-.00006Zm-1.30609,2.5186l.3526-1.3577h.35132l-.70392,1.3577Zm-1.65033.9136v.7004l-14.39459-.2487v-.4286l1.71829-1.7387h1.55481v-.9468l11.62106-2.9293v.4734h.90332l.1972.9695h-.52136v1.8777h.46503l-.58978,2.2712h-.95392v-.0001h-.00006Zm-1.3714-8.3188v.358h1.2915l.63458.9642h-.05511v.9468l-11.62109,2.9294v-.0968l1.94431-1.7897h1.63132v-1.0468l6.1745-2.265h0v-.0001Zm-1.21997-1.5024v.0067h1.21997v1.0228l-5.6051,2.0562s4.38507-3.0857,4.38507-3.08569h.00006Zm-34.75461-42.3372h.25119v-1.8777h-.2002l5.57339-10.7151h.59109l2.7215,4.1316h-.05679v1.8781h.07059l-6.64832,10.3305h-.53699l-1.76559-3.7474h.00012Zm-.75189-3.1372h.59201v-1.8777h-.20169l1.17801-2.2712h.10211v-.1968l4.12851-7.9576h.2012l.1972.9695h-.52179v1.8781h.20029l-5.57361,10.7151h-.13708l-.16501-1.2595h0s-.00015.00009-.00015.0001Zm1.0683-4.1488l-.70401,1.3568.35269-1.3568h.35132Zm4.02859-8.8711v.7168h.2016l-3.6279,6.9934v-.7168h-.2016l3.6279-6.9934Zm1.30649-2.5176l-.35309,1.3568h-.35089l.70389-1.3568h.00009Zm24.66373,51.5191l7.42914-10.1129h.83575l3.16602,4.2542v1.8359h.07062l-6.64789,10.3305h-.85437l-3.99921-4.6525v-1.6552s-.00006,0-.00006,0Zm-24.24799-23.00671l-3.16611-4.2542v-1.836h-.07059l6.64828-10.3305h.85489l3.99829,4.6525v1.6552l-7.42859,10.1129h-.8363s.00012.0001.00012.00009Zm5.1366,5.6349l-3.77579-4.0201v-1.5792l7.42911-10.1124h1.0686l4.20129,4.0489v1.4478l-7.9003,10.215h-1.02292Zm5.52881,5.8325l-4.0126-4.227v-1.5175l7.9003-10.215h1.11609l4.65469,4.3981v1.3541l-8.57449,10.2075h-1.08411s.00012-.0002.00012-.00021Zm6.17889,5.9187l-4.65469-4.398v-1.3541l8.57449-10.2075h1.08411l4.01257,4.2266v1.518l-7.9003,10.215h-1.11609l-.00012.00002s.00003-.00002.00003-.00002Zm5.81079,5.5847l-4.20129-4.0494v-1.4473l7.90033-10.215h1.02283l3.77582,4.0206v1.5788l-7.42914,10.1124h-1.0686l.00012-.00009s-.00006,0-.00006,0Zm15.92535-.23991h-.25092v1.8781h.20032l-5.5741,10.7151h-.59027l-.63507-.9642h.05511v-1.8781h-1.2204v-1.8533h-.86469v-1.3141h-.07062l6.64789-10.3305h.53741l1.76532,3.7474v-.0004h.00006-.00006Zm-21.39331,37.36259v.4286l-1.71869,1.7392h-1.55441v.94679l-11.62149,2.9294v-.4734h-.90329l-.19669-.9695h.52139v-1.8781h-.46539l.59021-2.2708h.95389v-.70081l14.39459.2487h0l-.00012-.00009Zm-13.02359,8.7708v-.358h-1.29099l-.6351-.9646h.05511v-.9464l11.62149-2.92931v.09641l-1.94431,1.78979h-1.6312v1.0472l-6.1749,2.265h0l-.00012-.00009Zm1.2204,1.5024v-.0067h-1.2204v-1.0228l5.6051-2.0562-4.3847,3.08569Zm25.36679,32.179h-.1723v1.2467l-9.29791,5.618v-.1123h-1.54059l-2.0394-2.1011v-1.20531l9.32101-8.5096h.95972l2.76947,5.06371h0v-.00009Zm-20.92789-22.6861l-7.42871,10.1129h-.8363l-3.16611-4.2542v-1.8364h-.07059l6.64828-10.33h.85449l3.99881,4.6525v1.6552h.00012Zm13.46939,11.5394l3.48993,4.32741v1.3728l-9.32141,8.50999h-1.28351l-2.42969-2.5625v-1.44029l8.57449-10.2079h.9704v.0004h-.00009l-.00009.00009h-.00003Zm-6.06519-5.9187l4.65469,4.3976v1.3541l-8.57449,10.2079h-1.0845l-4.01212-4.22701v-1.5175l7.9003-10.215h1.11609l.00003-.00009Zm-5.81079-5.58479l4.20129,4.04939v1.4473l-7.9007,10.215h-1.0224l-3.77579-4.0201v-1.5788l7.42911-10.1129h1.0686l-.00012.00011Zm-15.92542.2394h.25089v-1.8777h-.19989l5.57361-10.7151h.59021l.6351.9642h-.05511v1.8781h1.22v1.8533h.8652v1.3141h.07059l-6.64828,10.33051h-.53699l-1.76529-3.74741h-.00003Zm-.75189-3.13721h.59201v-1.8777h-.20209l1.17819-2.27119h.10211v-.1967l4.12851-7.9576h.2012l.1972.9695h-.52139v1.8781h.19989l-5.57309,10.7151h-.13721l-.16519-1.25951h-.00015Zm1.06812-4.1489l-.70389,1.3568.3526-1.3568h.35129Zm4.02859-8.8712v.7168h.20209l-3.62839,6.99339v-.7168h-.2016l3.6279-6.99339h0Zm1.30649-2.5186l-.3526,1.3577h-.35172l.70432-1.3577Zm38.47333-36.8501h.59161v-1.8777h-1.13562l-1.76581-3.747h.25128v-1.8781h-1.36072l-3.16602-4.2581v-1.832h-1.51617l-3.77539-4.0206v-1.6144h-1.52417l-4.0126-4.227v-1.6059h-1.60989l-4.6543-4.3976v-1.5207h-1.59351l-4.20129-4.0485v-1.5367h-1.45309l-3.99881-4.6525v-1.6907h-1.29141l-2.72021-4.132h.05511v-1.8781h-.90329l-.19669-.969h.52139v-1.8781h-.46539l.59021-2.2712h.95389v-1.8777h-1.87811v1.8777h.2016l-1.17819,2.2712h-.10211v.1967l-4.12799,7.9576h-1.17599v1.8781h.46552l-.59039,2.2708h-.95361v1.8781h.8381l.16501,1.259h-.5921v1.8781h1.13599l1.7655,3.747h-.25131v1.8777h1.36029l3.1665,4.2586v1.832h1.5162l3.77539,4.0201v1.6148h1.5242l4.013,4.227v1.6055h1.6095l4.6543,4.3976v1.5206h1.59351l4.20129,4.0485v1.5366h1.45306l3.99884,4.653v1.6907h.86517v.7643l-4.95453,3.4862v-.0071h-1.87769v1.5015l-1.94431,1.7893h-1.63171v1.5735l-1.71829,1.7392h-1.55481v1.8777h1.87811v-.7004l14.39459.2487v.7332h.1239l-2.591,4.3691h-1.23779v.4437l-13.67419-3.8487v-.9726h-1.87811v1.3594l-.98999.735h-1.83151v1.8777h1.87811v-.1057l11.91501,7.27319v.7332l-.99039.735h-1.83151v.44411l-13.67419-3.84911v-.9726h-1.87811v1.8781h.1239l-2.591,4.36909h-1.2377v1.8777h.2016l-1.17819,2.27119h-.10172v.1963l-4.12851,7.9581h-1.17599v1.8777h.46539l-.5907,2.27119h-.95331v1.8777h.8378l.16519,1.25951h-.5921v1.8777h1.13611l1.76529,3.74699h-.25131v1.8781h1.36069l3.16611,4.2581v1.83189h1.5162l3.77539,4.0206v1.61481h1.5242l4.013,4.22929v1.6032h1.52069l2.4324,2.563v1.6064h1.54059l2.03931,2.1011v1.58771h1.87769v-1.2471l9.29791-5.6176v.11189h1.87811v-1.8777h-1.19958l-2.76898-5.06371h.17194v-1.8781h-1.40961l-3.4903-4.33231v-1.7507h-1.6095l-4.65469-4.3976v-1.52071h-1.59351l-4.20129-4.04849v-1.53661h-1.45309l-3.99881-4.653v-1.6907h-.8652v-.7643l4.9545-3.48579v.0067h1.87769v-1.5015l1.94431-1.78931h1.63171v-1.5735l1.71829-1.7392h1.55481v-1.8777h-1.87811v.70039l-14.39459-.2487v-.7332h-.1239l2.5914-4.36909h1.2373v-.4437l13.67419,3.84869v.9726h1.87811v-1.35941l.98999-.735h1.83148v-1.8777h-1.87769v.1057l-11.91501-7.2732v-.7332l.98999-.735h1.83151v-.4437l13.67419,3.8487v.9726h1.87811v-1.8781h-.1239l2.591-4.3691h1.23779v-1.8777h-.20166l1.17816-2.2712h.10217v-.1963l4.12854-7.9581h1.17554v-1.8777h-.46539l.5907-2.2712h.95349v-1.8777h-.83801l-.16479-1.2595h0l-.00024.00016.00006.00003Zm19.78558,65.9937h-.7168v1.35451l-84.8934,62.51939h-.67871V47.55195h.67841l84.89377,62.5194v1.3545h.7168v84.855h0l-.00006.00009v-.00002ZM68.97249,47.02875v-1.355h-1.8779v1.8781h.71689v212.60291h-.71689v1.8779h1.8779v-1.3546l84.89337-62.5191h1.83948v-1.8781h-.7168v-84.8551h.7168v-1.8781h-1.83911l-84.89389-62.5189s.00015,0,.00015,0Z"/>
    </g>
  </g>
</svg>