<?xml version="1.0" encoding="UTF-8"?>
<svg id="Layer_1" data-name="Layer 1" xmlns="http://www.w3.org/2000/svg" viewBox="0 0 300 250">
  <defs>
    <style>
      .cls-1 {
        fill: #fff;
      }

      .cls-2 {
        fill: #0867e8;
      }

      .cls-3 {
        fill: #f5ead8;
      }

      .cls-4 {
        fill: #967a05;
        isolation: isolate;
        opacity: .05;
      }
    </style>
  </defs>
  <g>
    <polygon class="cls-3" points=".9 72 32.4 68.3 38.8 71.8 247.89999 72.4 267.60001 74.2 300 72.6 298.20001 108.3 300 121.3 300 171.60001 294.70001 174.7 261.39999 172.8 47 175.60001 0 172.60001 2.5 157.60001 5.8 150.3 0 95 .9 72"/>
    <polygon class="cls-4" points="38.8 71.8 39.7 96.7 47 175.60001 32.4 68.3 38.8 71.8"/>
    <polygon class="cls-4" points="47 175.60001 2.5 157.60001 5.8 150.3 47 175.60001"/>
    <polygon class="cls-4" points="298.20001 108.3 300 121.3 247.89999 72.4 267.60001 74.2 298.20001 108.3"/>
  </g>
  <g>
    <path class="cls-1" d="m167.85677,86.71744h0Zm8.25642,1.38521l5.07187-2.92849,2.9285-5.07188v-5.85697l-2.9285-5.07188-2.38267-1.3757,2.6309-4.86454-.35303-2.78053.03699.02186,1.31184-2.27231-2.13837-1.23447.60238.34743,15.9671-27.65581-6.71543-3.87718,7.7768,4.48966,1.31184-2.27229-15.55355-8.97987-1.31184,2.27226,1.06137.61305-15.9671,27.65581-1.53653-.88652-1.31184,2.27176.28974.16753-3.01587.74529-19.59609,33.94201.60971.36369-3.79202,6.56752-11.38123-6.57088-1.6536,2.86403-1.49013-.86016-1.6536,2.86405-2.32724,1.77412,1.11946,1.46817-10.06355,7.67256,4.64274,6.08952,10.06355-7.672,1.11941,1.46816,2.72124-2.07448-.8048,1.46705,1.80702,1.0434-7.15035,12.38466,2.98372,3.02767,4.51078,1.29949,7.15035-12.38469-3.74723-2.16357,5.55436,3.20699.61189-1.06078-.38943,2.77439,4.57875.64329-2.75026-.38665-1.7618,12.5315,7.58346,1.06583,1.76121-12.5315,1.82849.25722.40739-2.89767,1.65365-2.8646-1.49003-.86016.86634-1.50065,3.26415,1.8845,4.5838-7.93983.73465.42419h7.11894l4.2532,22.1928-22.17315,38.40478-5.77012-7.04774,2.19779-3.80657,2.68861,1.55279,2.19779-3.80659-4.93407-2.84891-1.21544-3.99037-3.97468.99408-39.3498-22.71842-2.19755,3.80601,36.91534,21.31303-2.72847-1.57519-2.19752,3.80659,5.03919,2.90944-34.07476,59.01902,44.32946-24.27793,42.05053,24.27793-8.4946-42.65572,16.69671-28.91944-22.2567-45.40208-.00011-.00009Z"/>
    <path class="cls-2" d="m198.32502,28.85165h-1.52361v.23087l-13.26675-7.65967c-.00112-.00111-.00223-.00168-.00329-.00224l-.04368-.02522v-1.52363h-.23032l.01849-.03193h1.52367v-.23088l13.31431,7.68712v1.52363h.22974l-.01849.03195h-.00005Zm-17.02843,27.04332h-1.52367v.23088l-11.19108-6.46105v-1.52419h-.23085l15.02849-26.02908h.10815v-.18716l.01903-.03308,13.06608,7.54481-15.27614,26.45886Zm.22469,3.15936h-1.52367v.23088l-14.26413-8.23572v-1.52366h-.23027l.01903-.03193h.81984v.88705h2.23977v-.23086l11.19108,6.46103v1.52363h1.53653v.88706h.23027l-.01903.0325h.00058Zm-.35303,2.7587h-.69936v.19165l-5.41427-3.52301-.11431.17595.1048-.18158-6.15397-3.56616-.10533.18212.09529-.18717-5.87321-3.00805v-.49144l.48583-.16251v.52282h2.23982v-.23086l14.26413,8.23572v1.52363h1.08715l.08354.5189s-.00011,0-.00011,0Zm-2.45946,5.68773l-1.47605-.85175v-1.52419h-2.23977v.91004h-3.6166v-.91004h-2.23982v1.52419l-2.83269,1.63515v-.23087h-2.23982v2.23978h.23032l-1.63457,2.83211h-1.5242v2.23979h.91002v3.61716h-.91002v2.23979h1.5242l1.63516,2.83266h-.23091v2.23979h2.23982v-.23088l1.26587.73073-5.17332,8.96084h-1.5242v.2303l-17.46106-10.08101v-1.5242h-.22974l18.30211-31.70167h1.52425v-.30989l5.67706,2.90777,6.14563,3.56056,5.63837,3.66929v1.54662h.23027l-1.99037,3.44792s.00005-.00002.00005-.00001Zm1.35664,1.26811v1.5242h1.52361l1.63511,2.83211h-.23027v2.23979h.90944v3.61716h-.90944v2.23979h.23027l-1.63511,2.83266h-1.52361v1.52363l-2.83269,1.63516v-.23087h-2.23977v.91004h-3.6166v-.91004h-2.23982v.23087l-2.83269-1.63516v-1.52363h-1.52367l-1.63511-2.83266h.23085v-2.23979h-.91002v-3.61716h.91002v-2.23979h-.23085l1.63511-2.83211h1.52367v-1.52363l2.83269-1.63515v.23031h2.23982v-.90948h3.6166v.90948h2.23977v-.23031l2.83269,1.63515s0-.00058,0-.00057Zm17.52101,63.61628h-.33677v.23031l-22.76549-13.14397v-1.52365h-1.12073l-3.82396-19.95299h.6915v-2.18657l5.25681-6.58545h.94026l21.15839,43.16231h0Zm-15.50933,28.91946h-.40511l-7.87937-41.11696h.69155v-.23087l22.76549,13.14454v1.52365h.23027l-15.40283,26.67966h0Zm7.65298,42.65532h-.2079l-25.01195-30.5514v-1.34488l16.04273-8.786v.26674h1.12913l8.04804,40.41554h-.00005Zm-40.49333-22.75388v-.77723l13.03361-7.13852v.25442h1.8083l24.96885,30.49893v.14698l-39.81076-22.98458Zm-44.32925,23.02095v-.26707h-.23069l32.78158-56.77939h1.52367v-.23031l5.31957,3.07081v1.52363h1.76515l4.00438,4.89146v2.15629h1.76573l10.43348,12.74387v1.47489l-13.03361,7.13797v-.2673h-2.23977v1.49395l-42.08953,23.05116.00005.00005h0Zm29.03568-60.6715v-1.5242h-.23064l.9045-1.56622h1.52398v-.23088l10.35838,5.9808v1.52365h.23032l-.90444,1.56622h-1.52361v.23031l-5.31957-3.07082v-1.52365h-2.23982v.23088l-2.79915-1.61665.00005.00057h0Zm-31.98935-23.54442v-1.5242h-.23069l.90431-1.56623h1.52393v-.23031l37.11024,21.42508v1.5242h2.23982v-.23031l2.94976,1.70296v1.52363h2.23982v-.23031l2.69425,1.55559v1.52307h.23085l-.90497,1.56622h-1.52308v.23088l-.4489-.25944v-1.52363h-2.23982v.23087l-10.35838-5.9808v-1.52363h-2.24009v.23087l-31.9471-18.44505.00005.00056s0-.00002,0-.00001Zm43.28252,18.01078v.62367h1.24121l.53345,1.7506h-.55981v.23031l-2.94976-1.70296v-.46734l1.73491-.43427h0Zm27.72416-17.83427h.40458l7.87931,41.11696h-.69097v1.49395l-16.04326,8.78544v-.27963h-1.722l-10.47663-12.79599v-2.15574h-.23032s20.87928-36.16498,20.87928-36.16499Zm-9.84789-23.52311v-.90947h-.23085l5.05226-8.75071,1.20252.69429v1.5242h2.23982v-.91004h3.61718v.85568l-5.25739,6.58657h-1.74495v.90947h-4.87859Zm-6.03456,6.60617h-1.52425v.23031l-1.0238-.59118v-.64722h.78678v-2.23979h-2.23982v.23087l-12.8475-7.41759v-1.52363h-.23091l1.88961-3.27197h1.52308v-.23088l16.11165,9.30211v1.5242h.23085s-2.6757,4.63479-2.6757,4.63479Zm-3.41487.47688v-.12161h.86687v-.23087l.60971.35248h-1.47658Zm-.87978,2.86403h-1.52367v.23032l-27.2091-15.70933v-1.52366h-.23048l.36042-.62423h.77387v.86016h2.23987v-.23088l24.22905,13.98901v1.52365h1.49003v.86016h.2308l-.36084.6248h.00005Zm-.86581,2.89766h-.65339v-.25663h-2.23977v.75032l-6.43419-.90444-.01174-.00167-.72625-.10199v-1.06526h-.22193v-.65785h.62932v-.75089l9.00005,1.2653v1.06525h.75033l-.09247.65786s.00005,0,.00005,0Zm-3.58912,12.27429h-1.06525v.75034l-5.3437-.75089v-1.06526h-.75033l1.57075-11.17373,6.28454.88313v1.06526h.74974l-1.44576,10.29115s0-.00002,0-.00001Zm-16.37147-4.22629h-1.52404v.57887l-2.27102-.65451v-1.22385h-1.92851l-1.05521-1.0703v-1.95736h-.2308l5.85759-10.14489h1.52367v-.23087l5.25484,3.03437v1.52366h.23032l-5.85674,10.14488-.00011-.00002h0Zm-14.53479-10.94173v-.00167h-1.70945l-2.93525-3.8503h.00197v-1.70967l7.82367-5.96455v.00225h1.70924l2.93536,3.84973h-.00186v1.70968s-7.82367,5.96454-7.82367,5.96453Zm4.38877-14.76903v.00225h1.70935l5.17401,6.7866h-.0017v1.16668h-.4109v.60802h-.79598v-1.46872h-1.7094l-2.93525-3.84973h.00191v-2.23979h-1.11941v-.93862l.08742-.06669h-.00005Zm9.12148,8.99894v-1.66764h1.2427v-.23032l8.86916,5.12063v.96328h-1.02439v1.18462h-.19668v-1.0434h-2.23982v.23087l-5.25484-3.03438v-1.52365h-1.39623s.00011,0,.00011,0Zm20.32787,6.51595l-9.00063-1.26477v-.50489h1.02433v-2.23977h-2.23977v.23087l-8.86916-5.12063v-1.5242h-2.23982v1.69735h-.71281l-5.17374-6.7866h.00207v-.23032l27.20947,15.70879v.03419s.00005-.00002.00005-.00001Zm-23.93602-20.38058h1.52372v-.2303l9.14167,5.27811v1.52363h2.23982v-.23087l12.8475,7.41757v.64722h-.78673v1.50067h-.86692v.23087l-24.22894-13.98901v-1.52363h-.23048l.36031-.62427h.00005Zm32.19923,9.41531v.23031l-16.11171-9.3021v-.9347l17.33108,10.00648s-1.21937,0-1.21937,0Zm40.83004-67.57639v-2.23978h-2.23982v.23087l-13.31378-7.68712v-1.52363h-2.24035v2.2398h.23085l-.01903.03193h-1.52367v2.24035h1.64637l-15.02791,26.02907h-.82037v-.88706h-2.24035v2.2398h.23085l-.01849.03249h-1.52425v1.27315l-.48583.16308v-.52339h-2.23982v2.2398h.23032l-18.30274,31.70165h-1.5242v3.66033h.23085l-1.88902,3.27142h-1.52361v.23088l-9.14173-5.27811v-1.5242h-2.23987v2.24033h.23038l-.36031.62427h-.77387v-.86073h-2.23987v2.23979h.23059l-.36036.62423h-1.52372v1.7097l-.08742.06667v-.00167h-2.23987v2.23977h1.11941v.93806l-7.82367,5.96399v-.0017h-2.23979v2.23979h1.70953l2.9352,3.8503h-.00197v2.23979h2.23982v-1.70968l7.82367-5.96455v.00224h1.11946v1.46817h2.23987v-.60743h1.48365v1.04284h.23043l-5.85754,10.14546h-1.52329v2.23978h1.92824l1.05542,1.07087v1.9568h2.23987v-.57887l2.27102.65395v1.22384h2.23987v-2.23979h-.23043l5.85722-10.14488h1.09108v1.0434h.22187v1.71359h2.23982v-.75032l.47127.06612-1.57851,11.23313h-1.06525v2.23979h2.23977v-.75032l5.3437.75089v1.06526h2.23982v-2.23978h-.75033l1.44629-10.29171h.65398v.25721h2.23977v-2.23979h-.75027l.09242-.65843h1.06531v-2.23979h-.23091l.36031-.62425h1.52367v-2.23192l.40065.23143v1.52363h2.24035v-2.23979h-.23027l2.67575-4.63479h1.52367v-.64105h1.34936v-.91005h4.87859v.91005h1.12068l3.82396,19.95355h-.6915v2.23978h.23085l-20.87981,36.16443h-1.04958l-4.00438-4.89088v-2.15685h-.23091l.90503-1.56622h1.52361v-.23088l.4489.25944v1.52363h2.23977v-2.23978h-.23027l.90439-1.56622h1.52308v-2.23979h-2.23977v.23031l-2.69425-1.55502v-1.52418h-1.24121l-.53292-1.7506h.55922v-2.23978h-2.23977v1.1835l-1.73491.43373v-.62312h-2.23982v.23087l-37.11019-21.42565v-1.52363h-2.23985v2.23978h.23064l-.90423,1.56623h-1.52393v2.23979h2.23985v-.23031l31.94712,18.44448v1.52365h.23022l-.90434,1.56678h-1.52345v2.23981h2.23987v-.23032l2.79947,1.61609v1.52363h.23032l-32.78144,56.77911h-1.52388v2.23985h2.23985v-1.4936l42.08932-23.05044v.26617h2.23977v-.23031l39.81076,22.98437v1.52381h2.23977v-2.23985h-1.12802l-8.0491-40.41583h.68305v-2.23978h-.23085l15.40395-26.67966h1.52367v-2.23979h-1.43508l-21.15839-43.16231h.33677v-1.5242l2.83215-1.63516v.23088h2.23977v-2.23979h-.23032l1.63516-2.83209h1.52367v-2.23979h-.90949v-3.61718h.90949v-2.23978h-1.52367l-1.63516-2.83211h.23032v-2.24034h-2.23977v.23087l-.99245-.57268,2.11207-3.65808h1.52367v-2.23978h-1.11457l-.08354-.5189h.72684v-2.2398h-.23027l.01849-.03249h1.52367v-2.2398h-1.53653v-.88706h-.23027l15.01951-26.01447v1.21093h2.23977v-2.23978h-.23085l.01903-.0325h1.52367s-.00027.00003-.00027.00003Zm-56.85204,142.92957v-.34742h-2.23982v.34742l-3.43671-1.65531v-1.42613h-1.15995l-.89047-3.9024h.6484v-2.18656l2.18434-2.73907h1.74384v-.90948h4.06103v.90948h1.74384l2.18434,2.73907v2.18656h.64893l-.891,3.9024h-1.15995v1.42613l-3.43671,1.65531h-.00011Zm5.67653-.8411v-2.24034h-.64893l.89041-3.9024h1.16054v-2.23978h-1.74447l-2.18376-2.73796v-2.18767h-2.23977v.91005h-4.06103v-.91005h-2.23977v2.18767l-2.18344,2.73796h-1.74463v2.23978h1.16033l.8911,3.90296h-.64936v2.23979h2.23966v-.34744l3.43671,1.65477v1.42613h2.23982v-1.42556l3.43671-1.65533v.34744h2.23982l.00005-.00003Zm30.69188-93.00643h-.90949v2.23979h.23032l-.55423.95992h-1.5242v1.5242l-.95992.55419v-.23087h-2.23982v.91004h-1.45527v-.91004h-2.23982v.23087l-.96045-.55419v-1.5242h-1.52361l-.55476-.95992h.23085v-2.24035h-.90944v-1.45472h.90944v-2.24035h-.23085l.55476-.9599h1.52361v-1.5242l.96045-.55422v.23088h2.23982v-.91005h1.45527v.91005h2.23982v-.23088l.95992.55422v1.5242h1.5242l.55423.96047h-.23091v2.23979h.91008s0,1.45526,0,1.45526Zm-.7481-4.65553h.23085v-2.23979h-2.23977v.23088l-.96045-.55479v-1.52363h-2.23982v.90948h-1.45527v-.90948h-2.23982v1.52363l-.96045.55479v-.23088h-2.23977v2.23979h.23027l-.55418.96047h-1.52361v2.23979h.91002v1.45526h-.91002v2.23979h1.52361l.55418.95992h-.23027v2.23977h2.23977v-.2303l.96045.55419v1.52363h2.23982v-.90947h1.45527v.90947h2.23982v-1.52363l.96045-.55419v.2303h2.23977v-2.23977h-.23085l.55476-.95992h1.52361v-2.23979h-.90997v-1.45526h.90997v-2.24035h-1.52361l-.55476-.9599s0-.00002,0-.00001Z"/>
  </g>
</svg>