<?xml version="1.0" encoding="UTF-8"?>
<svg id="Layer_1" data-name="Layer 1" xmlns="http://www.w3.org/2000/svg" viewBox="0 0 300 150">
  <defs>
    <style>
      .cls-1 {
        fill: #fff;
      }

      .cls-2 {
        fill: #0867e8;
      }

      .cls-3 {
        fill: #a9d5ed;
      }

      .cls-4 {
        fill: #b5defa;
      }
    </style>
  </defs>
  <g>
    <polygon class="cls-4" points="3.1 20.1 35.5 20.1 240 16 272.20001 17.7 277 17.1 285.39999 20 289.39999 16.8 297.80663 18.6 300 93.6 282.39999 93.6 272.20001 92 13.5 93.6 9.1 92.5 1 94.9 0 85.1 1.7 48.9 0 27.3 3.1 20.1"/>
    <polygon class="cls-3" points="13.5 93.6 9.1 92.5 0 85.1 13.5 93.6"/>
    <polygon class="cls-3" points="1.7 48.9 0 27.3 35.5 20.1 1.7 48.9"/>
    <polygon class="cls-3" points="300 93.6 285.39999 20 289.39999 16.8 300 93.6"/>
    <polygon class="cls-3" points="300 93.6 272.20001 17.7 277 17.1 300 93.6"/>
  </g>
  <polygon class="cls-1" points="266.02807 93.03387 266.02807 92.94204 262.58471 76.41393 262.53879 76.2762 263.22746 76.2762 263.22746 74.48565 261.29917 74.48565 261.25327 74.43974 240.86859 57.31478 240.82269 57.26886 240.82269 55.66196 239.03213 55.66196 239.03213 56.39655 238.8485 56.39655 213.09217 53.22866 212.90854 53.22866 212.90854 52.26452 211.16391 52.26452 211.16391 53.36639 211.07208 53.4123 180.77054 61.76818 180.54098 61.8141 180.54098 61.12542 178.75043 61.12542 178.75043 62.91597 178.70453 62.96188 161.44183 79.99502 161.39591 80.04093 159.65128 80.04093 159.65128 81.78557 160.5236 81.78557 160.5236 98.72689 159.65128 98.72689 159.65128 100.47151 161.39591 100.47151 161.39591 100.19605 161.62547 100.3797 178.84225 112.31667 178.93408 112.36258 178.93408 113.83175 180.77054 113.83175 180.77054 112.54623 180.81644 112.50032 186.87675 109.60789 187.10631 109.51608 187.10631 109.97519 188.89685 109.97519 188.89685 109.69972 189.12641 109.88336 200.83383 118.42289 200.92566 118.51471 200.92566 119.98387 202.6703 119.98387 202.6703 118.79018 202.80803 118.69836 215.11228 112.50032 215.38774 112.36258 215.38774 112.77578 217.04057 112.77578 217.04057 112.82169 232.60453 131.32401 232.60453 131.36991 232.60453 133.29819 234.39508 133.29819 234.39508 132.37996 236.59883 132.37996 236.59883 133.29819 238.34346 133.29819 238.34346 131.50765 237.01204 131.50765 236.96611 131.41582 229.84984 117.45874 229.75804 117.18328 230.35488 117.18328 230.40078 117.22918 237.93027 123.79453 238.0221 123.84043 238.0221 125.49324 239.81263 125.49324 239.81263 124.39138 239.90446 124.34546 248.76536 122.37128 248.94901 122.32536 248.94901 123.01403 250.73954 123.01403 250.73954 121.2694 250.46409 121.2694 250.64774 120.99393 254.73384 115.39273 254.73384 115.30091 256.29484 115.30091 256.29484 113.55627 255.65207 113.55627 255.698 113.32671 256.66213 110.06701 256.70803 109.97519 257.80991 109.97519 257.80991 108.18464 256.06529 108.18464 256.06529 108.68966 255.83573 108.55193 252.34644 107.08276 252.30054 106.99095 252.30054 106.62365 260.6105 106.62365 260.6105 107.49597 262.40106 107.49597 262.40106 105.75133 261.85011 105.75133 261.89604 105.52177 265.84441 94.96214 265.89031 94.82442 267.08403 94.82442 267.08403 93.03387 266.02807 93.03387"/>
  <path class="cls-2" d="m267.20001,94.97756v-2.0966h-1.09945l-3.43658-16.48059h.66205v-2.09662h-2.04105l-20.38421-17.12543v-1.71467h-2.09659v.75567l-25.7579-3.12823v-1.01022h-2.09659v1.1664l-30.31438,8.33734v-.58981h-2.0966v1.852l-17.26152,17.02838h-1.87722v2.0966h.88418v16.56566h-.88418v2.09662h2.0966v-.12395l17.23225,11.91374v1.57365h2.0966v-1.36649l6.06376-2.89199v.36661h2.0966v-.08167l11.71802,8.53556v1.60881h2.0966v-1.33064l12.35349-6.22302v.33636h1.71344l15.48883,18.45989v2.04255h2.09659v-.8842h1.88642v.8842h2.09659v-2.09659h-1.39379l-7.07351-14.00585h.24665l7.57188,6.55685v1.73884h2.09659v-1.11783l8.83027-2.00309v.64249h2.09661v-2.09659h-.08774l4.05189-5.60227h1.60418v-2.09659h-.57787l.93451-3.26719h1.17752v-2.09659h-2.09659v.412l-3.47054-1.51436v-.11418h8.03369v.88406h2.09661v-2.09659h-.4831l3.9438-10.6024h1.26315Zm-14.9285,10.60238h-2.02227v.88434h-22.43848v-.00142l37.29264-12.02322v.16994l-12.83189,10.97036Zm2.0107,7.79285v.88433h-11.05178v-.51614l7.09383-6.06445h1.33105l2.94795,5.69626h-.32105Zm-5.56833,8.27917l-18.4103-5.22245v-.11359l10.83024-1.57631v.72979h1.85005l5.73002,5.81969v.36288Zm-19.55929-6.39758l-1.95252-7.57784h.6087v-.33448l13.32309,6.73332v.33273l-10.83024,1.57627v-.73h-1.14902Zm-26.66612,2.81731h-.80645l-5.24938-23.09414h.64168v-1.27827l42.45373-16.45377v.3207l-37.03955,40.50549h-.00003Zm-15.44905-10.06268l-14.50926-13.33872v-.57679h22.44756v.88405h.30183l-6.96764,13.03147h-1.27248Zm-8.25597-44.91763l-6.87831,11.75263h-1.47161v1.34592l-8.93697,4.07514v-.14526l17.26155-17.02842s.02533,0,.02533,0Zm16.19427,30.67393h-22.44756v-.88436h-.88428v-15.94034h.88428v-.07432l22.44756,16.49638v.40265Zm-33.48114-13.13957l8.93697-4.0752v.39006h.88414v15.94034h-.51017l-9.31094-10.97553s0-1.27968,0-1.27967Zm33.48114,12.2552v.07451l-22.44756-16.49636v-.86453l28.2754-12.89313v.38994h.68985l-5.44451,29.78956h-1.07318Zm6.85131-29.78956h1.07311v-.76113l25.81411,3.00428v.63134l-31.70859,26.91509h-.62313l5.4445-29.78956s0,0,0,0Zm37.06888-5.53114h.82805l.64871,18.0546h-.56843l-8.99342-9.45925v-1.55903l8.08508-7.03633Zm1.42537,0l12.69584,20.00433h-.18836v.72893l-11.20616-1.64242v-1.03624h-.92173l-.64871-18.0546s.26912,0,.26912,0Zm.52177,0l20.38438,17.12543v.8971l-6.30206,2.44512v-.46331h-1.51956l-12.69575-20.00433s.13299,0,.13299,0Zm-43.77074,35.69458l31.70867-26.91525h1.75172l8.9933,9.45919v1.09483l-42.45373,16.45349v-.09226h.00003Zm44.55031-15.54338v-.72875l11.20616,1.64244v.83461l-25.28214,26.1202h-.12428l12.7986-27.8685h1.40169s-.00003,0-.00003,0Zm8.62459,29.59733l-7.09318,6.06402h-2.02222v.33463l-13.32309-6.73312v-.18184h22.43848v.51631Zm-22.43848-1.19076v-.33662l25.28197-26.12022h1.42151l10.58916,13.2221v1.21179l-37.29264,12.02295Zm37.95464-13.23706h-.24329l-10.59474-13.22885v-1.27214l6.30206-2.44506v.46546h1.09934l3.43663,16.48059Zm-26.96122-35.67413l-8.0848,7.03617h-2.0031v.76113l-25.59876-2.97918,35.68667-5.1946v.37648Zm-.19201-.68013l-35.71001,5.19793v-.38432l8.15144-7.16284h1.99268v-.75569l25.56589,3.10492Zm-27.66248-2.93906v.24424l-8.15155,7.16292h-1.99258v.88417h-20.00298s30.14711-8.29132,30.14711-8.29133Zm-10.14413,8.61951v.13352l-28.2754,12.89323v-.38988h-.24472l6.87822-11.75263h1.47165v-.88424h20.17025Zm-40.19321,19.76461h.51009l9.3111,10.97567v1.335l-8.93697,4.58152v-.32652h-.88422v-16.56567Zm.88422,17.26091l8.93697-4.58162v.32649h1.94608l14.50957,13.33754v.2074l-25.39262-8.74916v-.54065Zm19.32885,13.03465v-.36645h-2.0966v.12403l-17.20499-11.89489,25.36535,8.73966v.50566l-6.06376,2.89199Zm8.16036-2.64819v-1.61013h-.30178l6.9678-13.03147h.44433l5.24927,23.09414h-.64159v.08201l-11.71802-8.53455Zm13.81462,8.85111v-.25341l37.03963-40.50539h.02183l-12.79851,27.8685h-1.34921v1.38849l-8.46363,4.22729v-.3413h-2.09661v1.39253l-12.35349,6.22331v-.00002Zm33.53877,12.8866v.8842h-1.88642v-.8842h-1.14893l-3.51103-13.62556,6.88156,13.62556h-.33517Zm-3.3742,0h-.2258l-15.48863-18.45985v-1.33448l8.46363-4.22715v.34117h1.14891l1.95266,7.57784h-.60872v2.09662h1.1491l3.60888,14.00585h-.00003Zm6.91866-7.16453v-.64223h-2.00843l-7.5716-6.55664v-.2228l18.4103,5.22247v.19632l-8.83027,2.00289h0Zm10.43412-3.12067h-1.35717l-5.7301-5.81977v-.66659h11.05178v.88408h.08763l-4.05214,5.60227h0Zm5.49867-12.29258v1.32652h.57765l-.93445,3.26719h-.48702l-2.94767-5.69626h.32097v-.4119l3.47054,1.51444Zm5.82639-3.19914h-1.26324v.88434h-8.03369v-.51606l12.83261-10.97069h.40839l-3.94408,10.6024Z"/>
</svg>