<?xml version="1.0" encoding="UTF-8"?>
<svg id="Layer_1" data-name="Layer 1" xmlns="http://www.w3.org/2000/svg" xmlns:xlink="http://www.w3.org/1999/xlink" viewBox="0 0 300 140">
  <defs>
    <style>
      .cls-1 {
        fill: #ef6565;
      }

      .cls-2 {
        fill: #fff;
      }

      .cls-3 {
        fill: #0867e8;
      }

      .cls-4 {
        clip-path: url(#clippath);
      }

      .cls-5 {
        fill: #e06363;
      }

      .cls-6 {
        fill: none;
      }
    </style>
    <clipPath id="clippath">
      <rect class="cls-6" x="153.85053" y="17.80054" width="119.69896" height="119.69892"/>
    </clipPath>
  </defs>
  <g>
    <polygon class="cls-1" points="0 12.9 11.2 10.8 41.3 13.3 257.29999 9.6 276.5 12.5 297.5 9.6 300 43.6 299.10001 60.1 300 80 292.10001 84 4.8 87.2 0 86.4 2.5 79.1 0 70.4 0 12.9"/>
    <polygon class="cls-5" points="41.3 13.3 0 70.4 11.2 10.8 41.3 13.3"/>
    <polygon class="cls-5" points="257.29999 9.6 300 43.6 276.5 12.5 257.29999 9.6"/>
    <polygon class="cls-5" points="2.5 79.1 0 86.4 4.8 87.2 2.5 79.1"/>
  </g>
  <g class="cls-4">
    <g>
      <polygon class="cls-2" points="213.08907 99.92333 166.33565 134.35454 166.33565 18.73875 213.08907 53.16992 213.08907 99.92333"/>
      <path class="cls-2" d="m202.12562,63.4056l.21284,1.62286-.58146,2.23646-3.44088,6.63203-.13621-.00216-8.63535-.14937,1.76436-1.78565,1.92742-1.77369,3.62019-2.54744.06274-.04431-.04215-.06415-.42133-.63991-.00263-.00431-.00336-.00383-2.94079-3.42097-3.11888-3.00563-3.3731-3.18664-.00362-.00361-.02178-.02372h-.00071l-2.96207-3.12028-2.85217-3.03749-.00242-.00383-.00265-.00361-2.43488-3.27521-1.4266-3.02789-.00206-.00453-.22144-1.69089.58136-2.23646,3.44053-6.63181h.00021l-.57672,2.21851-.0048.01768.00383.01795.30521,1.50201.00291.01482.00836.01288,2.12154,3.22254.00291.00431.00334.00383,2.94079,3.42097,3.11888,3.00568,3.37623,3.18999,2.9853,3.14476,2.85146,3.0363.00237.00431.0029.00383,2.43516,3.27548,1.40885,2.99054-.03951.03951.05843.02852v.04167h.00954l-.0001-.00006Zm-20.16831,19.30335v.04258l-.03111.00021-3.41859,6.58917-.58126,2.23646.21282,1.62529h.0098v.00792h.00168v.00884h.00313v.06177l1.42277,3.01953,2.43488,3.27521.00291.00382.00242.0041,2.85243,3.03749,5.11526,5.39146,1.93002,1.98844,6.02448-3.64004-2.0466-3.74202-2.64079-3.27785-.00071-.00097-3.37602-3.18999-3.11909-3.00563-2.94079-3.42097-.00313-.00382-.00291-.00431-.42131-.63991-.04215-.06415.06274-.04404,3.62021-2.54744,1.92742-1.77418,1.76436-1.78544-8.63535-.14916-.12733-.00243h-.00012l-.00007.00002h-.00002Zm40.54607,42.44472c.01991-.00674.03757-.01854.05119-.03428l4.38744-4.99062c.01579-.01795.02586-.04021.02895-.06393l1.174-9.21661c.00523.0007.0103.00097.0153.00097.04813,0,.09239-.02922.11084-.07493.02037-.05051.00411-.10846-.03974-.14074l3.58808-4.83753c.02109.01579.04619.02345.07136.02345.02803,0,.056-.00981.07827-.02922.04238-.03687.05363-.09789.02678-.14749l2.78467-1.5075c.02853-.01558.04958-.04215.05843-.07353.00862-.03137.00405-.06512-.01244-.09315l-2.62882-4.42548.02079-.13142-.08189-.09121c-.00668,0-.01342.00049-.02037.00167l-.51691-2.98601c-.00668-.03903-.03234-.07207-.06824-.08857l-8.97071-4.08389c.01365-.02992.01438-.06415.00188-.09482-.01244-.0304-.03688-.05434-.06748-.0663l3.96394-10.23547c.01816-.0469.005-.1001-.03284-.13336l-4.01878-3.5201c.02609-.0297.03563-.0704.02586-.10867l7.58604-1.95944c.04356-.01126.07709-.04571.08689-.08954l1.1563-5.11186c.00885.00194.01767.00291.02632.00291.04215,0,.08209-.02226.10393-.06011l2.47132,1.41818c.01865.01078.03925.01606.05935.01606.04119,0,.08113-.02108.10344-.05892l1.59655-2.70948c.02129-.03617.02204-.08091.00217-.11778l-2.36239-4.36253c.0354-.01941.05886-.05531.06225-.09552.00336-.04021-.01385-.07951-.04577-.10414l6.12119-7.87308c.02135.01676.04738.02512.07327.02512.0206,0,.04096-.00501.05962-.01579.04215-.02394.06534-.0711.05912-.11918l7.92742-1.03541c.00237.01725.00842.03374.01747.04835l-13.77875,8.71481c-.04883.03089-.06873.09218-.04718.14581.01865.0462.06297.0752.11104.0752.00793,0,.01602-.00097.02392-.00264l10.6652-2.18352v.00021c.01148.05649.06149.09552.11709.09552.00793,0,.01606-.0007.02422-.00243.06462-.01315.1063-.07638.09337-.14101l5.78458-1.17901c.00931.04549.04405.0814.08926.09239.00931.00216.01865.00334.02803.00334.03589,0,.07041-.01628.09337-.04501.02323-.02873,11.45328,9.16464,11.45328,9.16464-.03353.04167-.03514.10053-.00411.14414.02296.03234.05962.05029.09742.05029.01342,0,.02704-.00243.04047-.00695l3.20982,8.96018c-.04481.01606-.07564.05698-.07903.10415-.00336.04739.02152.09239.06343.11444l-1.6612,3.14595c-.01796.03353-.01865.07374-.00188.10797l1.00529,2.07965c-.03665.01768-.06179.05288-.06679.09309-.0048.04048.01099.08043.04215.10652l-10.95509,13.11684c-.01796.02156-.02803.04884-.02803.07682v5.59856c-.05149,0-.09719.03304-.11348.08188l-3.57304-1.19124c-.01244-.00431-.0251-.0062-.03784-.0062-.03494,0-.06873.01531-.09196.04285l-6.95092,8.32265c-.02178-.01817-.04883-.02776-.07659-.02776-.00793,0-.01556.0007-.02323.00216-.0354.00695-.0658.0297-.08284.06151v.00021l-2.94964-1.55607c-.01747-.00911-.03665-.01364-.0558-.01364-.01747,0-.03494.00382-.05119.01127-.03402.01606-.05843.04716-.0661.08404l-2.03611,9.79819c-.00793-.00167-.01602-.00248-.02422-.00248-.03395,0-.06679.01444-.08975.04043-.02853.03218-.03734.07714-.02346.11783v.00016l-15.04761,5.1346c-.01991.00674-.03764.01854-.05149.03428"/>
      <path class="cls-3" d="m263.96541,82.60028h-.24327l-4.39195-9.08659,5.7427,5.93661v.8573h.10344l-1.21085,2.29274h0l-.00007-.00005Zm.56261,2.21803l-15.56758-14.63896v-.04048l9.43158,2.73416v.52811h.61765l4.44656,9.19909h-.12884v1.01239h.61814l.58271,1.20558h-.00023v.00012Zm-10.79042,19.02811h-.38639v.21136l-2.75141-.91762v-.46181l2.99079-3.58139h.147v4.7494h0v.00006Zm-13.41418,6.17384v-.63775h-1.0124v1.01217h.27864l-1.88213,9.05899h-.48907v.55237l-14.17883,4.83829v-.09536l3.65487-4.15726h.77995v-.88706l5.20332-5.91865h.79193v-.90065l10.01403-11.39054h.79193v-.21114l5.31173,1.77131v.46181l-6.30691,7.55154h-.77301v.10393l-2.18429-1.152h.00026Zm-12.10705,1.21545h.44982v-.10172l3.79108,2.01286v.5274l-5.19157,5.90523h-.11229l1.0629-8.34372h0l.00007-.00005Zm.44982-.98754l2.99823-4.042h.17714l.92958,6.56766h-.31384v.10172l-3.79085-2.01286v-.61452h-.00026Zm5.71753-5.76184v.09579h1.0124v-.644l5.90042-3.19478v.09579h1.01216v-.21114l.95449.31842v.43717l-10.01396,11.39032h-.23626l-.92958-6.56767h.31341v-.64422l1.98699-1.07562h0l-.00007-.00006Zm-1.80722-4.53998h.0663v-1.01217h-.47233l-.37247-2.15436h.29687v-1.01217h-1.01216v.14409l-8.07942-3.67788h7.68829v.38639h1.0124v-.19125l4.94768,1.83115v.56595h1.01216v-.67176l5.72756-3.45735v.0608h.27864l-1.8845,9.06891h-.48888v.64422l-5.90042,3.19478v-.096h-.66746l-2.15215-3.62327h-.00007l-.00003-.00004Zm-9.80093-8.33823l3.64559-9.41288h.57383v-.50751l1.44524-.35577v.25804h.48739l2.04446,10.01807h-.28058v.38639h-7.73399v-.38639h-.18198l.00003.00006Zm5.66459-10.6252v.10247l-1.44498.35577v-.25831h-.90254l-3.07624-2.69444,5.42382,2.4945h-.00007Zm1.09287-4.6881v.25184h.3167l-.91165,4.03122h-.49792v.1415l-5.61701-2.58334v-.10797l6.70982-1.73326s.00007,0,.00007,0Zm1.68344,15.31336l-2.04446-10.01807h.28058v-1.01217h-.07472l1.86588-3.22303h.66078v-.23918l7.7589,2.18811v.23626l-7.50369,5.41733h-1.00262v1.01217h.6794l4.86628,7.84414h-.05119v.19125l-4.94768-1.83115v-.56567h-.48746Zm.08041-20.3747h.49792v-.07757l1.66551.9559v.65856h1.0124v-.07779l11.36784,6.52384v.65883h1.01216v-.07779l4.79607,2.75239v.65883h.02754l-2.9374,4.43271h-.69813v.38639h-5.81689v-.38639h-.51566l-.5731-2.17781h.24919v-.615l3.71669-1.77228v.13239h.27124l-.53721,2.42152h-.49582v1.01239h1.0124v-1.01239h-.27124l.53721-2.42152h.49582v-1.01239h-1.0124v.615l-3.71669,1.77228v-.13239h-1.01216v1.01239h.51543l.5731,2.17781h-.24919v1.01217h1.0124v-.38639h5.81689v.38639h.45295l1.15917,8.69734h-.31792v.53673l-7.02636,2.16439v-.225h-.2787l1.8843-9.06912h.48907v-1.01239h-1.01216v.67176l-5.72733,3.4574v-.0608h-.6794l-4.86628-7.84414h.05119v-.72394l7.50346-5.41712h1.00279v-1.01239h-1.0124v.23891l-7.7589-2.18811v-.52455h-1.0124v1.01239h.07492l-1.73039,2.98914.85871-3.79733h.44982v-1.01239h-.22096l.97265-4.30075h.00016l.0001-.00012Zm4.20145-1.33269h.66529v-.72416l3.7741-2.72651h1.00236v-.27723l4.81022,1.01433v.49054h.76439l1.43349,1.75838v.51183l-5.20236,2.15604v-.16689h-1.0124v1.01217h.66723l3.50668,5.91358h-.06679v.07758l-11.36784-6.52384v-.65856h-.06896l1.09455-1.85724h.00003Zm-1.88213-4.52754h.096v-.48741l10.41071-2.13156v.03186l-3.25677,2.6518h-.9382v.72394l-3.7741,2.72651h-.63413l-1.90345-3.51487v-.00021h0l-.00007-.00006Zm5.61609-8.06197h.74787v-.45145l7.13572-.93196-13.39476,8.47207,5.51117-7.08855h0v-.00011Zm10.91009,4.21552v.28106h.94705l10.69294,8.55606v.02059l-15.01958-3.22659v-.49247h-1.0124v.27702l-4.81022-1.01433v-.24203l3.257-2.65158h.9382v-.48719l5.007-1.02053h0Zm-1.94609,7.83481l-1.43349-1.75838v-.0711l10.56341,4.78271-8.36576-2.42508v-.52811h-.76416v-.00005Zm-5.45037,3.5878v-.58627l5.20236-2.15625v.16689h.27124l-1.88312,8.48905h-.15082l-3.50668-5.91337h.06705l-.00003-.00005Zm7.6145,29.64177h-.77301v.21136l-5.31173-1.77131v-.5487h-1.0124v.21114l-.95449-.3182v-.07325l7.02636-2.16417v.225h1.01216v-.29205l3.00396.54891v.39l-2.99079,3.58117h0l-.00007.00011Zm14.05074-16.82291l-10.28668,12.31652h-.77301v.29205l-3.00396-.54918v-.47684h-.45318l-1.1589-8.69734h.31792v-1.01217h-.02704l2.93717-4.43271h.69786v-1.01239h-1.0124v.07757l-4.79607-2.75239v-.65855h-.27124l1.88312-8.48905h.35336l15.59317,14.66311v.73138h-.00013Zm.85947-6.47307h-.01461l-5.85186-6.04888v-.8573h-1.01216v.14554l-11.06883-5.01132,14.45914,3.10622v.49242h.56017l2.92786,8.17328h.00033l-.00003.00006Zm.81466,1.01239v-1.01239h-.56043l-2.92786-8.17328h.1975v-1.01239h-.94682l-10.69317-8.55633v-.75769h-1.01216v.48719l-5.007,1.02053v-.28085h-1.0124v.48741l-10.3001,2.10887,13.30981-8.41817v.04453h1.0124v-1.01239h-1.0124v.45172l-7.15253.93412v-.31939h-1.01216v.96215l-5.52002,7.09981h-.74813v1.01217h.64423l1.90345,3.51508h-.096v1.01239h.06896l-1.09455,1.85724h-.66552v.07779l-1.66551-.9559v-.65856h-1.01216v1.01217h.2691l-.97291,4.30102h-.54583v.51301l-6.70959,1.73326v-.25184h-1.0124v1.0124h.90254l3.26924,2.86364v.79025h.18171l-3.64533,9.41288h-.57383v1.01217h1.0124v-.14409l8.12492,3.69868v.60519h.47233l.37277,2.15409h-.29713v1.01239h.66772l2.15195,3.62327h-.06656v.644l-1.98679,1.07589v-.096h-1.0124v.98797l-2.99777,4.04173h-.73277v1.01239h.32101l-1.0629,8.34356h-.44982v.91401l-3.64315,4.14383h-.7917v1.01234h1.0124v-.55226l14.17856-4.83829v.20689h1.0124v-1.01234h-.27864l1.88213-9.05899h.48907v-.10366l2.18429,1.152v.63775h1.01216v-.92554l6.30721-7.55154h.77278v-.21114l2.75164.91762v.54843h1.0124v-1.01217h-.38665v-4.7494h.38665v-.92528l10.28668-12.31679h.77301v-1.01239h-.61768l-.59442-1.22979h.12835v-1.01217h-.10344l1.21085-2.29295h.63811l-.0001.00012Zm-64.77963-13.54873h-.05508v.10603l-2.22549,4.28954h-.10844l-.10604-.52261h.28104v-1.01239h-.10775l3.00445-5.77597h.07403l.08883.67893h-.31911v1.01217h.1087l-.63509,1.22429s-.00007,0-.00007,0Zm.26979,0l.37945-.73138-.19007.73138h-.18938Zm-2.17182,4.78201v-.38639h-.10867l1.95563-3.76957v.38617h.1087l-1.95563,3.76979h-.00003Zm-.70405,1.35765l.19007-.73187h.18938l-.37945.73187Zm-.88961.49247v.37755l-7.75939-.13406v-.23103l.92624-.93725h.83812v-.51037l6.26432-1.57904v.25518h.48693l.1063.52261h-.28104v1.01217h.25067l-.31792,1.22429h-.51421v-.00005h-.00003Zm-.73925-4.48424v.19298h.69618l.34207.51975h-.02971v.51037l-6.26434,1.57909v-.05218l1.04808-.96474h.87936v-.56428l3.32836-1.22095h0v-.00005Zm-.65762-.80987v.00361h.65762v.55134l-3.02143,1.10839s2.36377-1.66334,2.36377-1.66334h.00003Zm-18.73444-22.82183h.1354v-1.01217h-.10792l3.00433-5.77596h.31863l1.46702,2.22713h-.03061v1.01239h.03805l-3.58377,5.56865h-.28946l-.95174-2.02003h.00007Zm-.40531-1.6911h.31912v-1.01217h-.10872l.635-1.22429h.05504v-.10608l2.22547-4.28954h.10846l.1063.52261h-.28127v1.01239h.10796l-3.00445,5.77596h-.0739l-.08895-.67893h0s-.00008.00005-.00008.00005Zm.57587-2.23641l-.3795.73138.19012-.73138h.18938Zm2.17161-4.78196v.38639h.10867l-1.95562,3.76979v-.38639h-.10867l1.95562-3.76979Zm.70426-1.35711l-.19033.73138h-.18915l.37943-.73138h.00005Zm13.29496,27.77133l4.00467-5.45135h.45051l1.70664,2.29322v.98964h.03807l-3.58354,5.56865h-.46055l-2.15577-2.50792v-.89223s-.00003,0-.00003,0Zm-13.07086-12.40174l-1.70669-2.29322v-.98969h-.03805l3.58375-5.56865h.46083l2.15528,2.50793v.89223l-4.00437,5.45135h-.45081s.00007.00005.00007.00005Zm2.76888,3.03749l-2.03533-2.16703v-.85127l4.00465-5.45108h.57603l2.2647,2.18255v.78044l-4.25865,5.50639h-.5514Zm2.9803,3.144l-2.16299-2.27856v-.81801l4.25865-5.50638h.60163l2.50911,2.37079v.72993l-4.62207,5.50234h-.58439s.00007-.00011.00007-.00011Zm3.33073,3.19047l-2.50911-2.37074v-.72993l4.62207-5.50234h.58439l2.16297,2.27835v.81828l-4.25865,5.50638h-.60169s.00002,0,.00002,0Zm3.1323,3.01043l-2.2647-2.18283v-.78016l4.25867-5.50638h.55135l2.03535,2.1673v.85105l-4.00467,5.45108h-.57603l.00007-.00005s-.00003,0-.00003,0Zm8.58455-.12932h-.13526v1.01239h.10798l-3.00471,5.77597h-.31819l-.34233-.51975h.02971v-1.01239h-.65785v-.99902h-.46611v-.70837h-.03807l3.58354-5.56865h.28969l.95159,2.02003v-.00021h.00003-.00003Zm-11.53204,20.14027v.23104l-.92646.93751h-.8379v.51037l-6.26455,1.57909v-.25519h-.48692l-.10602-.52261h.28106v-1.01239h-.25087l.31815-1.22407h.51419v-.37777l7.75939.13406h0l-.00007-.00005Zm-7.02035,4.72789v-.19298h-.6959l-.34235-.51997h.02971v-.51015l6.26455-1.57904v.05197l-1.04808.96479h-.87929v.56449l-3.32857,1.22095h0l-.00007-.00005Zm.65785.80987v-.00361h-.65785v-.55134l3.02143-1.10839-2.36357,1.66334Zm13.67395,17.34606h-.09288v.67203l-5.01203,3.02838v-.06054h-.83045l-1.09934-1.1326v-.64972l5.02448-4.58709h.51733l1.49288,2.72959h0v-.00005Zm-11.28116-12.22892l-4.00444,5.45135h-.45081l-1.70669-2.29322v-.98991h-.03805l3.58375-5.56838h.46061l2.15555,2.50792v.89223h.00007Zm7.26066,6.2203l1.88124,2.33269v.74001l-5.0247,4.5873h-.69187l-1.30972-1.38131v-.77639l4.62207-5.50256h.52309v.00021h-.00005l-.00005.00005h-.00002Zm-3.26943-3.19047l2.50911,2.37052v.72992l-4.62207,5.50256h-.5846l-2.16273-2.27856v-.81801l4.25865-5.50638h.60163l.00002-.00005Zm-3.1323-3.01048l2.2647,2.18282v.78016l-4.25886,5.50638h-.55112l-2.03533-2.16703v-.85105l4.00465-5.45135h.57603l-.00007.00006Zm-8.58458.12905h.13524v-1.01217h-.10775l3.00445-5.77597h.31815l.34235.51975h-.02971v1.01239h.65764v.99902h.46639v.70837h.03805l-3.58375,5.56865h-.28946l-.95158-2.02004h-.00002Zm-.40531-1.69111h.31912v-1.01217h-.10894l.6351-1.22429h.05504v-.10603l2.22547-4.28953h.10846l.1063.52261h-.28106v1.01239h.10775l-3.00417,5.77597h-.07396l-.08905-.67894h-.00008Zm.57577-2.23646l-.37943.73138.19007-.73138h.18936Zm2.17161-4.78201v.38639h.10894l-1.95588,3.76978v-.38639h-.10867l1.95562-3.76978h0Zm.70426-1.35765l-.19007.73187h-.18959l.37966-.73187Zm20.73901-19.86401h.31891v-1.01217h-.61216l-.95186-2.01982h.13545v-1.01239h-.73349l-1.70664-2.29533v-.98754h-.81729l-2.03512-2.1673v-.87024h-.8216l-2.16299-2.27856v-.86566h-.86781l-2.50889-2.37052v-.81973h-.85898l-2.2647-2.18234v-.82836h-.78329l-2.15555-2.50793v-.91137h-.69613l-1.46633-2.22735h.02971v-1.01239h-.48692l-.10602-.52234h.28106v-1.01239h-.25087l.31815-1.22429h.51419v-1.01217h-1.0124v1.01217h.10867l-.6351,1.22429h-.05504v.10603l-2.22519,4.28954h-.63392v1.01239h.25094l-.31825,1.22407h-.51404v1.01239h.45178l.08895.67866h-.31917v1.01239h.61235l.95169,2.01982h-.13547v1.01217h.73326l1.7069,2.29559v.98754h.81731l2.03512,2.16703v.87046h.82162l2.1632,2.27856v.86544h.8676l2.50889,2.37052v.81968h.85898l2.2647,2.18234v.8283h.78327l2.15557,2.5082v.91137h.46637v.41199l-2.67073,1.87923v-.00383h-1.01216v.80938l-1.04808.96452h-.87957v.84819l-.92624.93751h-.83812v1.01217h1.0124v-.37755l7.75939.13406v.39523h.06679l-1.39668,2.35516h-.66723v.23918l-7.37106-2.07464v-.52428h-1.0124v.73278l-.53365.3962h-.98728v1.01217h1.0124v-.05698l6.42277,3.92061v.39523l-.53387.3962h-.98728v.2394l-7.37106-2.07486v-.52428h-1.0124v1.01239h.06679l-1.39668,2.35516h-.66718v1.01217h.10867l-.6351,1.22429h-.05483v.10582l-2.22547,4.28981h-.63392v1.01217h.25087l-.31842,1.22429h-.51388v1.01217h.45161l.08905.67894h-.31917v1.01217h.61242l.95158,2.01981h-.13547v1.01239h.73348l1.70669,2.29533v.98748h.81731l2.03512,2.1673v.87046h.82162l2.1632,2.2798v.8642h.81973l1.31118,1.38158v.86593h.83045l1.09929,1.1326v.85585h1.01216v-.67225l5.01203-3.02816v.06032h1.0124v-1.01217h-.64664l-1.49262-2.72959h.09268v-1.01239h-.75985l-1.88144-2.33533v-.94371h-.8676l-2.50911-2.37052v-.81974h-.85898l-2.2647-2.18234v-.82831h-.78329l-2.15555-2.5082v-.91137h-.46639v-.41199l2.67072-1.87901v.00361h1.01216v-.80938l1.04808-.96452h.87957v-.84819l.92624-.93751h.83812v-1.01217h-1.0124v.37755l-7.75939-.13406v-.39523h-.06679l1.39689-2.35516h.66697v-.23918l7.37106,2.07463v.52428h1.0124v-.73279l.53365-.3962h.98726v-1.01217h-1.01216v.05698l-6.42277-3.92061v-.39523l.53365-.3962h.98728v-.23918l7.37106,2.07464v.52428h1.0124v-1.01239h-.06679l1.39668-2.35516h.66723v-1.01217h-.1087l.63509-1.22429h.05508v-.10581l2.22549-4.28981h.63367v-1.01217h-.25087l.31842-1.22429h.51398v-1.01217h-.45173l-.08883-.67893h0l-.00013.00009.00003.00002Zm10.6654,35.57384h-.38639v.73015l-45.76171,33.70102h-.36586V19.24508h.36569l45.76191,33.70103v.73014h.38639v45.74101h0l-.00003.00005h0Zm-46.12746-80.45426v-.73041h-1.01228v1.01239h.38644v114.60341h-.38644v1.01228h1.01228v-.7302l45.7617-33.70087h.99157v-1.01239h-.38639v-45.74107h.38639v-1.01239h-.99137l-45.76198-33.70076s.00008,0,.00008,0Z"/>
    </g>
  </g>
</svg>