<?xml version="1.0" encoding="UTF-8"?>
<svg id="Layer_1" data-name="Layer 1" xmlns="http://www.w3.org/2000/svg" viewBox="0 0 300 250">
  <defs>
    <style>
      .cls-1 {
        fill: #fff;
      }

      .cls-2 {
        fill: #0867e8;
      }

      .cls-3 {
        fill: #cdb78d;
      }

      .cls-4 {
        fill: #c9af85;
      }
    </style>
  </defs>
  <g>
    <polygon class="cls-3" points="0 27.1 14.6 27.1 22 24.8 54.5 30 93.4 29.5 97.6 29.5 258.70001 27.5 284.10001 30 294.70001 28 300 75.3 298.20001 131.2 240.60001 127.3 228.8 127.3 217.39999 126.3 112.7 129.89999 99.4 129.89999 87.4 128.5 5.8 128.5 0 121.3 3.3 88.2 1.8 83.9 0 27.1"/>
    <polygon class="cls-4" points="54.5 30 1.8 83.9 3.3 88.2 54.5 30"/>
    <polygon class="cls-4" points="1.8 83.9 14.6 27.1 22 24.8 1.8 83.9"/>
    <polygon class="cls-4" points="258.70001 27.5 298.20001 131.2 284.10001 30 258.70001 27.5"/>
  </g>
  <g>
    <path class="cls-1" d="m125.8743,171.72793l21.99201.37436-4.49849,4.548-4.89837,4.52358-9.22132,6.49715-.14976.12546.09963.17498,1.07461,1.62495,7.49736,8.72097,7.94646,7.64737,8.59683,8.12279,6.72298,8.34592,5.22282,9.52123-15.34424,9.27099-4.92305-5.07293-13.02007-13.71929-7.27191-7.74775-6.19793-8.34659-3.62335-7.69756v-.1994h-.05012l-.54961-4.14853,1.47386-5.69755,8.69703-16.79288h.07488v-.07528h.34982-.00007,0Zm51.00536-49.15587v-.10104l-.14988-.07392.09969-.10037-3.59783-7.62297-6.17298-8.34591-7.27232-7.72196-7.59719-8.02243-8.62194-8.14585-7.9466-7.64805-7.49736-8.72162-5.39745-8.19671-.02536-.02511v-.04951l-.77443-3.82436v-.09971l1.47393-5.64736-8.77129,16.89327-1.47454,5.69753.57504,4.29913,3.62335,7.72196,6.19792,8.34661,7.27186,7.74638,7.54753,7.94712.04946.05019,8.59657,8.12212,7.94783,7.64669,7.49612,8.72231,1.07496,1.62362.10037.17498-.14988.12545-9.22214,6.49716-4.89795,4.52426-4.49783,4.54732,21.99128.37505h.34994l8.77117-16.89327,1.47441-5.69822-.57377-4.12279h-.00069Z"/>
    <path class="cls-2" d="m178.75352,127.9943v-2.57378h-1.24925l-.22447-1.72397h.92438v-2.57378h-1.67378l-2.42388-5.14821h.44966v-2.57375h-1.99934l-4.29842-5.77283h.07461v-2.62464h-2.22381l-5.04851-5.34758v-2.37438h-2.22381l-5.3727-5.64874v-2.37369h-2.34929l-6.24757-5.89761v-2.22447h-2.32418l-5.62308-5.4222v-2.24961h-2.12404l-5.34787-6.22178v-2.47406h-1.89929l-3.72353-5.67313h.19994v-2.57446h-1.34955l-.2748-1.32453h.82455v-2.59885h-.74967l.79979-3.12311h1.42443v-2.57512h-2.57404v2.57377h.4l-1.62449,3.12445h-.25005v.49983l-5.54794,10.69588h-1.77423v2.57446h.74975l-.7998,3.12308h-1.42449v2.57446h1.24992l.22462,1.72467h-.92479v2.57374h1.67454l2.42422,5.14822h-.45005v2.57377h1.99947l4.2981,5.77284h-.07494v2.57377h2.22428l5.04838,5.37269v2.37369h2.22353l5.37338,5.6487v2.34862h2.34926l6.24758,5.89897v2.22312h2.3235l5.62295,5.42356v2.24822h2.1248l5.3476,6.22315v2.47407h1.19908v1.17532l-6.79692,4.82267v-.12546h-2.57376v2.19872l-2.52426,2.3242h-2.39947v2.29976l-2.22381,2.24891h-2.274v2.57375h2.57444v-1.07426l19.76679.34926v1.09937h.29975l-3.54832,5.99868h-1.82436v.72499l-18.7678-5.273v-1.45066h-2.57377v2.00001l-1.30002.94948v-.07528h-2.57398v2.57512h2.57398v-.27534l16.36893,9.99528v1.2506l-1.29945.94881v-.07393h-2.57376v.72499l-18.76793-5.27299v-1.45068h-2.59933v2.57377h.30023l-3.54902,5.99868h-1.82368v2.57375h.39925l-1.62435,3.12379h-.24952v.49983l-5.54787,10.6959h-1.72466v2.57375h.74962l-.79919,3.12377h-1.42442v2.57378h1.24924l.22475,1.72532h-.92431v2.57376h1.67393l2.42416,5.14755h-.44938v2.57443h1.99885l4.2987,5.77216h-.07488v2.57445h2.22422l5.04777,5.3727v2.37506h2.22421l5.3727,5.64668v2.34927h2.22403l3.19974,3.37403v2.3486h2.24889l2.64837,2.74942v2.3235h2.57445v-1.79857l12.76981-7.72198v.27467h2.57376v-2.57376h-1.77418l-3.79858-6.94814h.34995v-2.57376h-2.07395l-4.64836-5.77283v-2.57376h-2.34929l-6.24756-5.89762v-2.22449h-2.3235l-5.62302-5.42219v-2.24959h-2.12467l-5.37268-6.24825v-2.47407h-1.19968v-1.17397l6.79711-4.79825v.12479h2.57404v-2.19872l2.52433-2.32419h2.39879v-2.29976l2.22449-2.24891h2.27401v-2.57377h-2.59884v1.07426l-19.76768-.34927v-1.09935h-.29962l3.54841-5.99868h1.82429v-.69854l18.76787,5.273v1.44864h2.57376v-1.99866l1.3001-.95015v.07528h2.57376v-2.57378h-2.57376v.27401l-16.36888-9.99597v-1.24857l1.29936-.95016v.07528h2.62389v-.72499l18.7678,5.27299v1.44864h2.57375v-2.57377h-.29907l3.54832-5.99733h1.82437v-2.59951h-.40015l1.6243-3.1238h.25026v-.49983l5.54834-10.69519h1.72399v-2.57444h-.7501l.79962-3.12379,1.47508.02511h-.00145Zm-53.87903,45.40745l-.69949,2.72432h-.6995l1.39973-2.72432h-.00074Zm-2.12392,4.09903v1.19906h.4l-5.09795,9.82168v-1.19974h-.39979l5.09774-9.82101Zm-6.12237,12.39476h.69949l-1.42442,2.72434.72493-2.72434Zm-.97498,5.69891h.92486v-2.57513h-.39987l1.62435-3.12377h.25005v-.49916l5.54795-10.69521h.49956l.2748,1.32317h-.82449v2.57375h.39994l-7.64711,14.7203h-.4l-.25006-1.72398.00002.00003Zm1.02456,4.32284h.45005v-2.57376h-.4l7.6471-14.7203h1.05005l.87399,1.32453h-.19993v2.57446h1.67447v2.54933h1.1998v1.79928h.22475l-9.1217,14.19402h-.97444l-2.42415-5.14752v-.00003Zm4.02382,7.72198h.07488v-2.57446h-.22468l9.12103-14.19402h1.42442l5.34796,6.22248v2.47475h.10029l-10.17095,13.84341h-1.39966l-4.27326-5.77216h0Zm18.09285-8.04751l5.62254,5.42288v2.24959h.02577l-10.74612,13.89492h-1.67461l-5.04763-5.3727v-2.37506h-.10031l10.17103-13.84341h1.74933v.02377Zm7.99692,7.64804l6.24756,5.89761v2.14923l-11.64603,13.84408h-1.77384l-5.3727-5.64804v-2.3486h-.02543l10.74607-13.89493h1.82436v.00067-.00002Zm8.29708,8.14585l4.64771,5.7735v2.19872l-12.64433,11.54633h-2.0502l-3.19839-3.37403v-2.29909l11.64536-13.84544h1.59986Zm10.22115,15.29475h-.34995v1.82436l-12.7705,7.72198v-.27534h-2.24889l-2.64904-2.74874v-1.94915l12.64502-11.54498h1.59986l3.77351,6.97188v-.00002Zm-34.93661-44.05852v-.12411h-1.67447v-1.5246l8.39673-3.07359-6.72225,4.7223h0Zm-1.67447-2.07393v-.60021h-1.89929l-.87467-1.32453h.19993v-1.39844l15.94324-4.02444v.37572l-2.52359,2.3235h-2.39872v1.54969l-8.44695,3.09869h.00005v.00002Zm17.86838-12.24556v.8491l-2.22449,2.24958h-2.27468v1.39983l-15.94324,4.02374v-.75009h-1.34954l-.2748-1.32453h.82455v-2.57376h-.74968l.7998-3.12378h1.42442v-1.07494l19.76768.32553v-.00068h-.00002Zm29.48808-51.20606h-.44963v2.57378h.40014l-7.64737,14.7203h-1.04986l-.8742-1.32452h.1994v-2.57444h-1.6738v-2.54867h-1.19974v-1.79927h-.22449l9.12109-14.1947h.97525l2.4232,5.14754h0Zm-3.99865-7.72197h-.07461v2.57442h.22516l-9.14685,14.1947h-1.42422l-5.34827-6.22315v-2.4734h-.09971l10.17097-13.84475h1.3998l4.29775,5.77217h-.00002Zm-18.11741,8.0475l-5.62295-5.42356v-2.24822h-.0251l10.74608-13.89492h1.67448l5.04783,5.37335v2.37369h.10037l-10.17162,13.84475-1.74908-.02509Zm-7.97223-7.67179l-6.2473-5.89761v-2.1499l11.64576-13.84477h1.77416l5.3727,5.64874v2.3486h.02508l-10.74606,13.89493h-1.82436.00002Zm-8.49688-8.12209l-5.3727-5.64737v-2.3486h-.02489l10.74559-13.89492h1.82435l6.24758,5.89761v2.14853l-11.64514,13.84477h-1.77479v-.00002Zm-7.57161-7.99598l-5.04838-5.37471v-2.37369h-.1003l10.17169-13.84475h1.74867l5.62368,5.42353v2.24824h.02442l-10.74586,13.89495-1.67392.02644Zm-7.14755-47.7574l-.69948,2.72364h-.72493l1.42442-2.72364h0Zm-2.12391,4.09834v1.19976h.39925l-5.12264,9.84607v-1.19973h-.39987s5.12326-9.8461,5.12326-9.8461Zm-6.12306,12.39547h.69957l-1.4245,2.72364.72493-2.72364Zm-.99973,5.69753h.92486v-2.57446h-.39987l1.62436-3.12308h.25005v-.49983l5.54793-10.69588h.49956l.27494,1.32453h-.8247v2.57374h.4l-7.6471,14.71965h-.4l-.25005-1.72467h0Zm1.02456,4.32353h.44997v-2.57377h-.39985l7.6471-14.71962h1.0499l3.77309,5.67314h-.2v2.57374h.22529l-9.12163,14.19473h-.9743l-2.44958-5.14822h0Zm4.02375,7.72196h.07488v-2.57374h-.22461l9.12096-14.19473h1.42442l5.348,6.2225v2.4734h.10031l-10.17095,13.84475h-1.39972s-4.27328-5.77218-4.27328-5.77218Zm43.80786,50.281v.12546h1.67514v1.52324l-8.39677,3.07496,6.72164-4.72366h0Zm1.67514,2.07461v.59885h1.89894l.8749,1.32453h-.20008v1.40048l-15.94445,4.0224v-.37436l2.52494-2.32486h2.39878v-1.54968l8.44696-3.09734.00002-.00002Zm1.89894,11.5199v1.07563l-19.76744-.352v-.84843l2.22449-2.24889h2.27332v-1.3754l15.94445-4.0224v.74943h1.34961l.27467,1.32453h-.82467v2.57442h.75007l-.80027,3.12312h-1.42424Zm1.92405-.39946l.69923-2.72432h.70058l-1.39981,2.72432Zm2.1248-4.07326v-1.19974h-.40014l5.09802-9.821v1.19904h.39946l-5.09735,9.82168h0Zm6.12141-12.42121h-.69853l1.42354-2.72297-.725,2.72297Zm-1.14887,0h-.25026v.5005l-5.54766,10.6959h-.49985l-.27467-1.32453h.8247v-2.57445h-.40015l7.64737-14.71896h.39946l.22516,1.724h-.92506v2.59887h.39946l-1.59851,3.09868h0Z"/>
  </g>
</svg>