<?xml version="1.0" encoding="UTF-8"?>
<svg id="Layer_1" data-name="Layer 1" xmlns="http://www.w3.org/2000/svg" viewBox="0 0 300 250">
  <defs>
    <style>
      .cls-1 {
        fill: #fff;
      }

      .cls-2 {
        fill: #0867e8;
      }

      .cls-3 {
        fill: #a9d5ed;
      }

      .cls-4 {
        fill: #b5defa;
      }
    </style>
  </defs>
  <g>
    <polygon class="cls-4" points="4.1 29.1 47.4 29.1 220 23.6 262.89999 25.8 269.29999 25.1 280.5 28.9 285.89999 24.6 297.59474 27.1 300 127.1 276.5 127.1 262.89999 125 18 127.1 12.2 125.6 1.3 128.8 0 115.8 2.3 67.5 0 38.6 4.1 29.1"/>
    <polygon class="cls-3" points="18 127.1 12.2 125.6 0 115.8 18 127.1"/>
    <polygon class="cls-3" points="2.3 67.5 0 38.6 47.4 29.1 2.3 67.5"/>
    <polygon class="cls-3" points="300 127.1 280.5 28.9 285.89999 24.6 300 127.1"/>
    <polygon class="cls-3" points="300 127.1 262.89999 25.8 269.29999 25.1 300 127.1"/>
  </g>
  <polygon class="cls-1" points="236.03789 136.81588 236.03789 136.66607 230.41996 109.70002 230.34503 109.47531 231.46861 109.47531 231.46861 106.55398 228.32256 106.55398 228.24768 106.47908 194.98953 78.53925 194.91464 78.46435 194.91464 75.84265 191.9933 75.84265 191.9933 77.04114 191.69371 77.04114 149.67159 71.87265 149.37199 71.87265 149.37199 70.29963 146.52559 70.29963 146.52559 72.09736 146.37577 72.17227 96.93801 85.80511 96.56348 85.88001 96.56348 84.75642 93.64214 84.75642 93.64214 87.67775 93.56725 87.75265 65.40271 115.54267 65.3278 115.61757 62.48139 115.61757 62.48139 118.46399 63.90459 118.46399 63.90459 146.1042 62.48139 146.1042 62.48139 148.95059 65.3278 148.95059 65.3278 148.50116 65.70233 148.80079 93.79196 168.27627 93.94178 168.35117 93.94178 170.74816 96.93801 170.74816 96.93801 168.6508 97.0129 168.5759 106.90046 163.85683 107.27499 163.70703 107.27499 164.45609 110.1963 164.45609 110.1963 164.00665 110.57083 164.30626 129.67178 178.23873 129.8216 178.38854 129.8216 180.78551 132.66803 180.78551 132.66803 178.83797 132.89274 178.68817 152.96746 168.5759 153.41687 168.35117 153.41687 169.02533 156.11351 169.02533 156.11351 169.10023 181.50651 199.28724 181.50651 199.36214 181.50651 202.50816 184.42785 202.50816 184.42785 201.01005 188.02331 201.01005 188.02331 202.50816 190.86972 202.50816 190.86972 199.58685 188.69748 199.58685 188.62255 199.43703 177.01217 176.6657 176.86239 176.21627 177.83616 176.21627 177.91104 176.29117 190.19559 187.0027 190.34542 187.07759 190.34542 189.77419 193.26671 189.77419 193.26671 187.97647 193.41653 187.90155 207.87332 184.68063 208.17296 184.60572 208.17296 185.7293 211.09425 185.7293 211.09425 182.88288 210.64484 182.88288 210.94448 182.43346 217.61106 173.29494 217.61106 173.14514 220.15787 173.14514 220.15787 170.29871 219.10917 170.29871 219.18411 169.92418 220.75711 164.60589 220.83199 164.45609 222.62975 164.45609 222.62975 161.53476 219.78334 161.53476 219.78334 162.35872 219.40881 162.13401 213.71595 159.73702 213.64107 159.58722 213.64107 158.98796 227.19898 158.98796 227.19898 160.41118 230.12032 160.41118 230.12032 157.56475 229.22144 157.56475 229.29637 157.19022 235.73825 139.96191 235.81313 139.73721 237.76071 139.73721 237.76071 136.81588 236.03789 136.81588"/>
  <path class="cls-2" d="m237.94994,139.98706v-3.42065h-1.79378l-5.60686-26.88852h1.08015v-3.42069h-3.33002l-33.25737-27.94058v-2.79753h-3.42064v1.23289l-42.02468-5.10379v-1.6482h-3.42064v1.90302l-49.4587,13.60258v-.96229h-3.42066v3.02158l-28.16262,27.78224h-3.06273v3.42065h1.44257v27.02731h-1.44257v3.42069h3.42066v-.20223l28.11487,19.43758v2.56745h3.42066v-2.22947l9.89318-4.71835v.59813h3.42066v-.13325l19.11826,13.92599v2.62481h3.42066v-2.17097l20.15504-10.15303v.54879h2.79552l25.27043,30.11779v3.33248h3.42064v-1.4426h3.07774v1.4426h3.42064v-3.42065h-2.27401l-11.54062-22.85091h.40242l12.35372,10.69766v2.83697h3.42064v-1.82377l14.40682-3.26809v1.04824h3.42068v-3.42065h-.14315l6.61076-9.14025h2.61726v-3.42065h-.94281l1.52468-5.3305h1.92115v-3.42065h-3.42064v.67218l-5.66227-2.47071v-.18628h13.10717v1.44237h3.42068v-3.42065h-.78819l6.43442-17.29809h2.06087v-.00002Zm-24.35624,17.29809h-3.29939v1.44283h-36.60897v-.00232l60.84391-19.6162v.27726l-20.93556,17.89843Zm3.28051,12.71424v1.44281h-18.03127v-.84209l11.57376-9.8943h2.17164l4.80966,9.29359h-.5238Zm-9.08488,13.50768l-30.03689-8.52056v-.18533l17.66982-2.5718v1.19067h3.0184l9.34867,9.49497v.59205Zm-31.9115-10.43782l-3.18559-12.36345h.9931v-.54571l21.73696,10.98559v.54287l-17.66982,2.57173v-1.19102h-1.87465Zm-43.50647,4.59651h-1.31574l-8.5645-37.6787h1.04691v-2.08554l69.26436-26.84475v.52322l-60.43098,66.08576h-.00005Zm-25.20553-16.41752l-23.67224-21.76247v-.94105h36.62378v1.44234h.49244l-11.36789,21.26118h-2.07609Zm-13.46983-73.28427l-11.22214,19.17472h-2.40097v2.1959l-14.58089,6.64869v-.237l28.16267-27.7823s.04133,0,.04133,0Zm26.42138,50.04531h-36.62378v-1.44286h-1.44273v-26.00708h1.44273v-.12125l36.62378,26.91427v.65693Zm-54.62535-21.43755l14.58089-6.64879v.6364h1.4425v26.00707h-.83236l-15.19103-17.90687s0-2.08782,0-2.08782Zm54.62535,19.99469v.12157l-36.62378-26.91423v-1.41051l46.13206-21.03548v.6362h1.12551l-8.88287,48.60245h-1.75092Zm11.17809-48.60245h1.7508v-1.24181l42.11639,4.90156v1.03004l-51.73339,43.91266h-1.01665l8.88284-48.60245s0-.00001,0-.00001Zm60.47885-9.0242h1.35099l1.05839,29.45655h-.92741l-14.67299-15.43301v-2.54359l13.19102-11.47995Zm2.32553,0l20.71359,32.63758h-.30732v1.18926l-18.28313-2.67965v-1.69065h-1.50383l-1.05839-29.45655s.43908,0,.43908,0Zm.85128,0l33.25764,27.94058v1.46365l-10.28198,3.98927v-.75591h-2.47919l-20.71345-32.63759s.21698,0,.21698,0Zm-71.41309,58.23664l51.73353-43.91292h2.85797l14.67281,15.43291v1.78625l-69.26436,26.8443v-.15053h.00005Zm72.68499-25.35943v-1.18897l18.28313,2.67968v1.36169l-41.24847,42.61578h-.20276l20.88124-45.46818h2.2869s-.00005,0-.00005,0Zm14.07124,48.28882l-11.57271,9.89361h-3.2993v.54596l-21.73696-10.98526v-.29668h36.60897v.84237Zm-36.60897-1.94275v-.5492l41.24819-42.61582h2.31922l17.2765,21.5722v1.97707l-60.84391,19.61575Zm61.92397-21.59662h-.39693l-17.28559-21.58321v-2.07554l10.28198-3.98917v.75941h1.79359l5.60695,26.88852Zm-43.98794-58.20327l-13.19056,11.47969h-3.26812v1.24181l-41.76504-4.86061,58.22372-8.47513v.61424Zm-.31327-1.10965l-58.26181,8.48055v-.62702l13.29928-11.68636h3.25111v-1.23292l41.71142,5.06575Zm-45.13205-4.79515v.39848l-13.29946,11.6865h-3.25095v1.44254h-32.63539s49.1858-13.52751,49.1858-13.52751Zm-16.55041,14.06296v.21785l-46.13206,21.03565v-.6361h-.39926l11.222-19.17472h2.40104v-1.44267h32.90828Zm-65.57627,32.24648h.83222l15.19131,17.90709v2.1781l-14.58089,7.47486v-.53273h-1.44263v-27.02732Zm1.44263,28.16163l14.58089-7.47502v.53267h3.17508l23.67274,21.76054v.33838l-41.42871-14.27447v-.88209Zm31.53553,21.26637v-.59786h-3.42066v.20236l-28.07039-19.40682,41.38423,14.25898v.825l-9.89318,4.71835Zm13.31384-4.32059v-2.62697h-.49237l11.36814-21.26118h.72494l8.56432,37.6787h-1.04678v.1338l-19.11826-13.92435Zm22.53891,14.44081v-.41345l60.43112-66.0856h.03561l-20.8811,45.46819h-2.20127v2.26536l-13.80863,6.89693v-.55684h-3.42068v2.27195l-20.15504,10.1535v-.00003Zm54.71938,21.02482v1.4426h-3.07774v-1.4426h-1.87452l-5.72834-22.23046,11.22744,22.23046h-.54684Zm-5.50509,0h-.3684l-25.27011-30.11772v-2.17724l13.80863-6.8967v.55663h1.87447l3.18582,12.36345h-.99315v3.42069h1.87479l5.88799,22.85091h-.00005Zm11.28797-11.68912v-1.04782h-3.2768l-12.35327-10.69733v-.36351l30.03689,8.52059v.32031l-14.40682,3.26777h0Zm17.02353-5.09145h-2.21425l-9.34881-9.49511v-1.08756h18.03127v1.44241h.14296l-6.61117,9.14025h0Zm8.97122-20.05566v2.16426h.94245l-1.52459,5.3305h-.79459l-4.80921-9.29359h.52366v-.67202l5.66227,2.47085Zm9.5059-5.21948h-2.061v1.44283h-13.10717v-.84196l20.93674-17.89896h.66631l-6.43488,17.29809Z"/>
</svg>