<?xml version="1.0" encoding="UTF-8"?>
<svg id="Layer_1" data-name="Layer 1" xmlns="http://www.w3.org/2000/svg" viewBox="0 0 500 250">
  <defs>
    <style>
      .cls-1 {
        fill: #fff;
      }

      .cls-2 {
        fill: #0867e8;
      }

      .cls-3 {
        fill: #f2e8c6;
      }
    </style>
  </defs>
  <rect class="cls-3" x="130.8" y="68.27395" width="369.2" height="131.9"/>
  <path class="cls-1" d="m365.04147,89.95633l6.24368-3.60482,3.60477-6.24365v-7.20959l-3.60477-6.24369-2.93304-1.69339,3.23837-5.98792-.435-3.42273.04611.02661,1.61481-2.79696-2.63263-1.51997h0l.74133.42801,19.65543-34.04417-8.26648-4.77269,9.57312,5.52707,1.61481-2.79696-19.14624-11.0541-1.61481,2.79696,1.30664.75438-19.65543,34.04421-1.8913-1.09196-1.61481,2.79696.35681.20601-3.71246.91774-24.1225,41.78135.75067.44797-4.66772,8.08477-14.01038-8.08889-2.03552,3.52558-1.83429-1.05903-2.03552,3.52562-2.86478,2.18409,1.37799,1.80748-12.38797,9.44437,5.71515,7.49644,12.38797-9.44437,1.37799,1.80752,3.34976-2.55378-.99069,1.80592,2.22446,1.28428-8.80197,15.24548,3.67291,3.727,5.5527,1.59941,8.80197-15.24548-4.61279-2.66321,6.83725,3.94749.75354-1.30516-.47995,3.41481,5.63663.79223-3.38586-.47588-2.16812,15.42585,9.33478,1.31198,2.16812-15.42585,2.25073.31635.5014-3.56731,2.03555-3.52562-1.83429-1.05903,1.06671-1.84761,4.01797,2.31982,5.64288-9.77373.90414.52202h8.763l5.2355,27.31934h-.00003l-27.29434,47.27519-7.10266-8.67558,2.70514-4.68546,3.30963,1.91084,2.70514-4.68546-6.07364-3.50664-1.49594-4.91209-4.89255,1.22374-48.439-27.96627-2.70514,4.68545,45.44168,26.23575-3.35834-1.93892-2.70514,4.68541,6.20306,3.58133-41.94528,72.6514,54.56839-29.88545,51.76309,29.88545-10.45618-52.50801,20.55316-35.59917-27.39743-55.8891v.00003Zm-10.16327-1.70534l.00009.00004h-.00009v-.00004Z"/>
  <path class="cls-2" d="m368.74518,71.66809h.28369v-2.75718h-2.75723v.28402l-1.18201-.68239v-1.87598h-2.75723v1.12004h-1.79144v-1.12004h-2.75717v1.87602l-1.18207.68239v-.28406h-2.75723v2.75718h.28378l-.6824,1.18206h-1.8757v2.75718h1.12009v1.79144h-1.12009v2.75722h1.87573l.6824,1.18206h-.28381v2.75718h2.75723v-.2841l1.18207.68239v1.87602h2.75717v-1.12004h1.79144v1.12004h2.75723v-1.87598l1.18201-.68239v.28406h2.75723v-2.75718h-.28372l.6824-1.18206h1.87564v-2.75722h-1.12v-1.79144h1.12v-2.75718h-1.87561s-.6824-1.18206-.6824-1.18207Zm.92065,5.73068h-1.11984v2.75722h.28391l-.68234,1.18206h-1.87589v1.87586l-1.18201.68235v-.28389h-2.75723v1.11979h-1.79144v-1.11979h-2.75717v.28385l-1.18207-.68235v-1.87581h-1.87582l-.68234-1.18206h.28384v-2.75722h-1.11978v-1.79144h1.11978v-2.75718h-.28391l.68234-1.18206h1.87585v-1.87586l1.18207-.68235v.28389h2.75717v-1.11983h1.79144v1.11983h2.75723v-.28394l1.18201.68235v1.8759h1.87595l.68234,1.18206h-.28394v2.75718h1.11984v1.79144Zm-37.7811,114.48874v-2.75719h-.79889l1.09656-4.80402h1.42813v-2.75722h-2.14758l-2.68799-3.37022v-2.69339h-2.75717v1.12025h-4.99847v-1.12025h-2.75717v2.69301l-2.68796,3.37061h-2.14761v2.75722h1.42834l1.09656,4.80402h-.7991v2.75719h2.75717v-.4277l4.23041,2.03754v1.75523h2.75723v-1.75516l4.23038-2.03749v.4276h2.75723l-.00006-.00002Zm-6.98758,1.03563v-.42776h-2.75723v.42767l-4.23041-2.0377v-1.75502h-1.4278l-1.09628-4.80402h.79831v-2.69188l2.68869-3.37173h2.14691v-1.11961h4.99847v1.11961h2.14658l2.68896,3.37166v2.69196h.79855l-1.09628,4.80402h-1.42807v1.75516l-4.23038,2.03764-.00003.00002ZM394.88055,16.98008v-2.75718h-2.75717v.28432l-16.38901-9.46256v-1.87586h-2.75723v2.75722h.28357l-.02295.03974h-1.87543v2.75722h2.02603l-18.49896,32.04133h-1.00995v-1.09192h-2.75723v2.75718h.28406l-.02295.03979h-1.87595v1.56754l-.59848.20036v-.64416h-2.75723v2.75718h.2836l-22.53024,39.02412h-1.87582v4.50542h.28409l-2.32529,4.02735h-1.87585v.28427l-11.2532-6.49702v-1.87619h-2.75717v2.75722h.28357l-.44354.7684h-.95264v-1.05903h-2.75717v2.75722h.28384l-.44363.7684h-1.87573v2.10418l-.1076.08201v-.00211h-2.75723v2.75718h1.37805v1.15465l-9.6308,7.34196v-.00194h-2.75717v2.75718h2.10443l3.61307,4.73926h-.00241v2.75718h2.75723v-2.10434l9.6308-7.34268v.00269h1.37799v1.80748h2.75717v-.74786h1.82635v1.28432h.28363l-7.21048,12.48826h-1.87515v2.75722h2.3736l1.29926,1.31809v2.40887h2.75723v-.71245l2.79553.80512v1.50679h2.75717v-2.75722h-.28363l7.20993-12.4883h1.34296v1.28432h.27359v2.10961h2.75717v-.92376l.57999.08151-1.9433,13.82729h-1.31122v2.75719h2.75723v-.92372l6.57755.92456v1.31117h2.75717v-2.75722h-.92352l1.78058-12.66867h.8046v.31635h2.75723v-2.75718h-.92377l.11404-.81013h1.3111v-2.75722h-.28372l.4436-.7684h1.87564v-2.74754l.49319.28469v1.87602h2.75723v-2.75722h-.28348l3.29373-5.70537h1.87561v-.78912h1.66119v-1.12h6.00577v1.12h1.37964l4.70688,24.56216h-.85104v2.75719h.28391l-25.70236,44.51797h-1.29187l-4.92947-6.02122v-2.65433h-.28409l1.11356-1.92822h1.8757v-.2841l.55246.31905v1.87585h2.75717v-2.75719h-.28363l1.11343-1.92822h1.87534v-2.75722h-2.75717v.28389l-3.31641-1.91441v-1.87607h-1.52802l-.65634-2.15495h.68842v-2.75719h-2.75723v1.45651l-2.13538.53439v-.76723h-2.75723v.28436l-45.68176-26.37507v-1.87552h-2.75723v2.75718h.28394l-1.11313,1.92823h-1.87595v2.75723h2.75723v-.28346l39.32617,22.70436v1.87595h.28336l-1.11319,1.92822h-1.87531v2.75719h2.75717v-.28322l3.44589,1.98924v1.87535h.28394l-40.35345,69.89417h-1.87582v2.75719h2.75723v-1.83859l51.81119-28.37479v.32793h2.75723v-.28343l49.00592,28.29311v1.87576h2.75717v-2.75719h-1.38889l-9.90784-49.75084h.84058v-2.75719h-.28391l18.96127-32.84198h1.87582v-2.75719h-1.76648l-26.04553-53.13192h.41458v-1.87602l3.48648-2.01277v.28402h2.75717v-2.75722h-.2836l2.01285-3.48647h1.87555v-2.75722h-1.12003v-4.45237h1.12003v-2.75718h-1.8757l-2.01273-3.48647h.2836v-2.75722h-2.75717v.28389l-1.22156-.70529,2.59967-4.50273h1.87564v-2.75722h-1.37207l-.10272-.6389h.89462v-2.75722h-.28381l.02295-.03974h1.8757v-2.75722h-1.8913v-1.09192h-.28397l18.48886-32.02352v1.49092h2.75717v-2.75718h-.28391l.02298-.03979h1.87573l.00003.00005Zm-50.26102,83.18503v.28368l-19.83304-11.45045v-1.1509l21.3345,12.31767h-1.50146Zm-39.6362-11.58965h1.8757v-.28389l11.2532,6.49706v1.87573h2.75717v-.28385l15.81509,9.13088v.79649h-.96881v1.84761h-1.06671v.28419l-29.82547-17.22019v-1.8756h-.28372l.44354-.7684v-.00003Zm29.46439,25.08805l-11.0791-1.55693v-.62189h1.26053v-2.75722h-2.75717v.28419l-10.9173-6.30301v-1.87615h-2.75723v2.0894h-.87744l-6.36884-8.35426h.00253v-.28394l33.49402,19.33746v.04235Zm-25.02283-8.02111v-2.05268h1.52979v-.28389l10.9173,6.30326v1.18631h-1.26053v1.4577h-.24225v-1.28428h-2.75717v.28402l-6.46844-3.73466v-1.87577h-1.71869v-.00002Zm-11.22836-11.07747v.00269h2.10413l6.36911,8.35426h-.00211v1.43623h-.50574v.74786h-.97989v-1.80752h-2.10422l-3.61325-4.73922h.00232v-2.75722h-1.37799v-1.15503l.1076-.08206h.00003Zm-5.40244,18.18037v-.00248h-2.10431l-3.61325-4.73926h.00241v-2.10468l9.6308-7.34213v.00248h2.10406l3.61337,4.73922h-.00226v2.10443l-9.6308,7.34243h-.00003Zm17.89206,13.46899h-1.8761v.71216l-2.79553-.80508v-1.50649h-2.37396l-1.29892-1.318v-2.40899h-.28409l7.21051-12.48826h1.87555v-.28423l6.46844,3.73487v1.87573h.28357l-7.20944,12.4883-.00003-.00002Zm20.15259,5.20264h-1.31128v.92368l-6.57755-.92461v-1.31107h-.92358l1.93353-13.7552,7.73569,1.08745v1.31106h.92343l-1.78024,12.66866v.00003Zm4.41852-15.10949h-.8045v-.31635h-2.75723v.92376l-7.92029-1.11343-.01416-.00202-.89392-.12563v-1.31102h-.27359v-.81013h.77496v-.92389l11.0791,1.55748v1.3111h.92352l-.11398.81013h.00009Zm1.0661-3.56735h-1.87564v.28402l-33.49402-19.33805v-1.8756h-.28369l.44366-.7684h.95261v1.05903h2.75723v-.28419l29.82547,17.22028v1.87548h1.83426v1.05903h.28369l-.44354.7684h-.00003Zm1.08279-3.52557v-.14942h1.06671v-.28402l.75089.43344h-1.8176Zm4.20331-.58686h-1.87582v.28402l-1.2608-.72782v-.79682h.96881v-2.75718h-2.75717v.2841l-15.81509-9.13063v-1.87615h-.28394l2.32556-4.02735h1.87549v-.28444l19.83304,11.45099v1.8759h.28394l-3.29401,5.70537v.00002Zm7.42844-8.13184v-1.11983h-.28381l6.21915-10.7718,1.4801.85454v1.87619h2.75717v-1.12008h4.45236v1.05352l-6.47147,8.10763h-2.14774v1.11983h-6.00577Zm12.12244,28.95668h.49823l9.69904,50.61349h-.85049v1.83902l-19.74841,10.81509v-.34406h-2.12039l-12.89633-15.75204v-2.65352h-.28342l25.70178-44.51797v-.00002Zm-34.12781,21.9536v.76723h1.52823l.65628,2.15495h-.68857v.28384l-3.63129-2.09639v-.57545l2.13538-.53419-.00003.00002Zm-53.27948-22.17126v-1.87581h-.28403l1.11322-1.92823h1.87595v-.28368l45.68176,26.37402v1.87595h2.75723v-.28355l3.63129,2.0966v1.87535h2.75723v-.28343l3.31641,1.91476v1.87531h.28391l-1.11359,1.92822h-1.87543v.28374l-.55246-.31895v-1.8756h-2.75717v.28377l-12.75095-7.36176v-1.87566h-2.75717v.28381l-39.32617-22.70483-.00003-.00003Zm39.3782,28.98241v-1.87595h-.28391l1.11343-1.92822h1.87561v-.28374l12.75095,7.36217v1.87518h.28384l-1.11359,1.92822h-1.8754v.28381l-6.54788-3.78055v-1.87556h-2.75717v.28439l-3.44589-1.98978v.00002Zm-35.74222,74.68555v-.32877h-.28397l40.35333-69.89418h1.87595v-.2836l6.54788,3.77992v1.87595h2.17297l4.92969,6.02122v2.65436h2.17313l12.84351,15.68739v1.81561l-16.04407,8.78682v-.32893h-2.75723v1.83897l-51.81119,28.37524v-.00002Zm54.56839-28.33795v-.95737l16.04407-8.78728v.31306h2.22568l30.73618,37.54381v.18095l-49.00592-28.2932v.00002Zm49.84653,28.00919h-.25601l-30.78922-37.60777v-1.65601l19.74841-10.81551v.32845h1.38937l9.90744,49.75082v.00002Zm-9.42108-52.50801h-.49829l-9.69934-50.61349h.85114v-.28432l28.02396,16.18062v1.87521h.2836l-18.96106,32.84198Zm19.09177-35.59915h-.41428v.2841l-28.02396-16.18011v-1.87552h-1.37946l-4.70734-24.56216h.85129v-2.69141l6.47104-8.10683h1.15717l26.04553,53.13193Zm-21.56802-78.30961v1.87598h1.87598l2.01266,3.48647h-.28384v2.75718h1.11984v4.45237h-1.11984v2.75722h.28397l-2.01276,3.48647h-1.87598v1.87594l-3.48648,2.01265v-.28381h-2.75723v1.11979h-4.45236v-1.11979h-2.75717v.28377l-3.48651-2.01265v-1.8759h-1.87589l-2.01276-3.48647h.28391v-2.75722h-1.11975v-4.45237h1.11975v-2.75718h-.28378l2.01266-3.48647h1.87589v-1.87594l3.48651-2.01265v.28377h2.75717v-1.11979h4.45236v1.11979h2.75723v-.28381l3.48648,2.01265-.00006.00002Zm-1.6702-1.56131l-1.81628-1.04864v-1.87607h-2.75723v1.12004h-4.45236v-1.12004h-2.75717v1.87607l-3.48651,2.01273v-.28402h-2.75717v2.75722h.28369l-2.01273,3.48647h-1.87573v2.75718h1.12009v4.45237h-1.12009v2.75722h1.87561l2.01285,3.48647h-.28369v2.75722h2.75717v-.28402l1.55777.89938-6.3681,11.03048h-1.87582v.28389l-21.49417-12.40987v-1.8756h-.28339l22.52985-39.02412h1.87598v-.38199l6.98853,3.57968,7.56488,4.38265,6.94077,4.51717v1.90406h.28378l-2.4505,4.24405v.00002Zm3.0278-7.00127h-.86108v.23598l-6.66458-4.33718-.14078.21657.12933-.22331-7.57568-4.38973-.13.22398.11789-.23038-7.23035-3.70317v-.60454l.59848-.20041v.64408h2.75723v-.28415l17.55835,10.13741v1.87594h1.33847s.10272.6389.10272.63891Zm.43433-3.39612h-1.87552v.28398l-17.55835-10.1375v-1.87565h-.28342l.02298-.03979h1.00934v1.09196h2.75723v-.28373l13.77573,7.9532v1.87581h1.8913v1.09196h.28363l-.02295.03974.00003.00002Zm-.27612-3.88888h-1.87589v.28381l-13.77573-7.95345v-1.87569h-.28403l18.4996-32.04133h.13321v-.23072l.02325-.04025,16.08432,9.28703-18.80469,32.57059h-.00006Zm20.96146-33.28977h-1.87531v.28385l-16.33142-9.429c-.00134-.00101-.00269-.00168-.00403-.00236l-.05356-.03094v-1.87565h-.28381l.02295-.03974h1.8757v-.28419l16.38901,9.46285v1.87539h.28348l-.02298.03979h-.00003Z"/>
</svg>