<?xml version="1.0" encoding="UTF-8"?> <svg xmlns="http://www.w3.org/2000/svg" xmlns:xlink="http://www.w3.org/1999/xlink" version="1.1" id="Layer_1" x="0px" y="0px" viewBox="0 0 800 300" style="enable-background:new 0 0 800 300;" xml:space="preserve"> <style type="text/css"> .st0{fill:#CDB78D;} .st1{fill:#FFFFFF;} .st2{fill:#0867E8;} </style> <rect id="block" x="207.8" y="89.3" class="st0" width="592.2" height="150"></rect> <path class="st1" d="M560,108.2L560,108.2z M572.2,110.3l7.5-4.3l4.3-7.5v-8.6l-4.3-7.5l-3.5-2l3.9-7.2l-0.5-4.1l0.1,0.1l2-3.4 l-3.1-1.8l0.9,0.5l23.5-40.8l-9.9-5.7l11.5,6.6l2-3.4l-23-13.2l-2,3.4l1.6,0.9L559.4,53l-2.2-1.3l-2,3.4l0.4,0.2l-4.4,1.1 l-28.9,50.1l0.9,0.6l-5.6,9.7l-16.8-9.7l-2.5,4.2l-2.2-1.3l-2.5,4.2l-3.4,2.6l1.7,2.2l-14.8,11.3l6.8,9l14.8-11.3l1.7,2.2l4-3.1 l-1.2,2.2l2.7,1.5L495.3,149l4.4,4.5l6.7,1.9l10.5-18.3l-5.5-3.2l8.2,4.8l0.9-1.6l-0.6,4.1l6.8,1l-4-0.6l-2.6,18.5l11.2,1.6 l2.6-18.5l2.7,0.4l0.6-4.3l2.5-4.2l-2.2-1.3l1.3-2.2l4.8,2.8l6.8-11.7l1.1,0.6h10.5l6.3,32.8l-32.7,56.7l-8.5-10.4l3.2-5.6l4,2.3 l3.2-5.6l-7.3-4.2l-1.8-5.9l-5.9,1.5l-58.1-33.5l-3.2,5.6l54.4,31.4l-4-2.4l-3.2,5.6l7.4,4.3l-50.3,87.1l65.4-35.8l62,35.8 l-12.5-62.9l24.6-42.7L572.2,110.3L572.2,110.3L572.2,110.3z"></path> <path class="st2" d="M605,22.9h-2.2v0.3l-19.6-11.3l0,0l-0.1-0.1V9.6h-0.3V9.5h2.2V9.2l19.7,11.4v2.2L605,22.9 C605,22.8,605,22.9,605,22.9L605,22.9z M579.8,62.7h-2.2v0.3l-16.5-9.5v-2.2h-0.3l22.2-38.4h0.2v-0.3l0.1-0.1l19.2,11.1L579.8,62.7 L579.8,62.7L579.8,62.7z M580.2,67.4h-2.2v0.3l-21.1-12.2v-2.2h-0.3l0.1-0.1h1.2v1.3h3.3v-0.3l16.5,9.5V66h2.2v1.3L580.2,67.4 L580.2,67.4L580.2,67.4z M579.6,71.5h-1v0.3l-8-5.2l-0.2,0.3l0.2-0.3l-9.1-5.3l-0.2,0.3l0.2-0.3l-8.7-4.4v-0.7l0.7-0.2v0.7h3.3v-0.3 l21.1,12.2v2.2h1.6L579.6,71.5L579.6,71.5L579.6,71.5z M576,79.9l-2.2-1.2v-2.2h-3.3v1.3h-5.3v-1.3h-3.3v2.2l-4.2,2.4v-0.3h-3.3V84 h0.3l-2.4,4.2h-2.2v3.3h1.3v5.3h-1.3v3.3h2.2l2.4,4.2h-0.3v3.3h3.3v-0.3l1.8,1.1l-7.6,13.2h-2.2v0.3L523.9,107v-2.2h-0.3l27-46.8 h2.2v-0.4l8.4,4.3l9.1,5.3l8.3,5.4v2.3h0.3L576,79.9L576,79.9L576,79.9z M578,81.8V84h2.2l2.4,4.2h-0.3v3.3h1.3v5.3h-1.3v3.3h0.3 l-2.4,4.2H578v2.2l-4.2,2.4v-0.3h-3.3v1.3h-5.3v-1.3h-3.3v0.3l-4.2-2.4v-2.2h-2.2l-2.4-4.2h0.3v-3.3H552v-5.3h1.3v-3.3H553l2.4-4.2 h2.2v-2.2l4.2-2.4v0.3h3.3v-1.3h5.3v1.3h3.3v-0.3L578,81.8L578,81.8z M603.8,175.6h-0.5v0.3l-33.6-19.4v-2.2h-1.7l-5.7-29.5h1v-3.2 l7.8-9.7h1.4L603.8,175.6z M580.9,218.3h-0.6l-11.6-60.6h1v-0.3l33.6,19.4v2.2h0.3L580.9,218.3L580.9,218.3L580.9,218.3z M592.3,281.3H592l-36.9-45.1v-2l23.7-13v0.4h1.7L592.3,281.3z M532.5,247.7v-1.1l19.3-10.5v0.4h2.7l36.8,45v0.2L532.5,247.7 L532.5,247.7L532.5,247.7z M467.1,281.6v-0.4h-0.3l48.4-83.8h2.2v-0.3l7.8,4.5v2.2h2.6l5.9,7.2v3.2h2.6l15.4,18.8v2.2l-19.3,10.5 v-0.4h-3.3v2.2L467.1,281.6L467.1,281.6L467.1,281.6z M509.9,192.1v-2.2h-0.3l1.3-2.3h2.2v-0.3l15.3,8.8v2.2h0.3l-1.3,2.3h-2.2v0.3 l-7.8-4.5v-2.2h-3.3v0.3L509.9,192.1L509.9,192.1L509.9,192.1z M462.7,157.3v-2.2h-0.3l1.3-2.3h2.2v-0.3l54.8,31.6v2.2h3.3V186 l4.4,2.5v2.2h3.3v-0.3l4,2.3v2.2h0.3l-1.3,2.3h-2.2v0.3l-0.7-0.4v-2.2h-3.3v0.3l-15.3-8.8v-2.2h-3.3v0.3L462.7,157.3L462.7,157.3 L462.7,157.3z M526.6,183.9v0.9h1.8l0.8,2.6h-0.8v0.3l-4.4-2.5v-0.7L526.6,183.9L526.6,183.9L526.6,183.9z M567.5,157.6h0.6 l11.6,60.7h-1v2.2l-23.7,13v-0.4h-2.6L537,214.2V211h-0.3L567.5,157.6L567.5,157.6L567.5,157.6z M553,122.9v-1.3h-0.3l7.4-12.9 l1.8,1v2.2h3.3v-1.3h5.3v1.3l-7.8,9.7h-2.6v1.3H553L553,122.9z M544.1,132.7h-2.2v0.3l-1.5-0.9v-1h1.2v-3.3h-3.3v0.3l-19-10.9V115 h-0.3l2.8-4.8h2.2v-0.4l23.8,13.7v2.2h0.3L544.1,132.7L544.1,132.7L544.1,132.7z M539.1,133.3v-0.2h1.3v-0.3l0.9,0.5H539.1z M537.7,137.6h-2.2v0.3l-40.1-23.2v-2.2H495l0.5-0.9h1.1v1.3h3.3v-0.3l35.8,20.7v2.2h2.2v1.3h0.3L537.7,137.6L537.7,137.6 L537.7,137.6z M536.5,141.8h-1v-0.4h-3.3v1.1l-9.5-1.3l0,0l-1.1-0.2v-1.6h-0.3v-1h1v-1.1l13.3,1.8v1.6h1.1L536.5,141.8L536.5,141.8z M531.2,160h-1.6v1.1l-7.9-1.1v-1.6h-1.1l2.3-16.5l9.3,1.3v1.6h1.1L531.2,160L531.2,160z M507,153.7h-2.2v0.8l-3.4-1v-1.8h-2.9 l-1.6-1.6v-2.9h-0.3l8.6-14.9h2.2V132l7.7,4.5v2.2h0.3L507,153.7L507,153.7L507,153.7z M485.5,137.6H483l-4.3-5.7l0,0v-2.5l11.5-8.8 h2.5l4.3,5.7l0,0v2.5L485.5,137.6L485.5,137.6z M492,115.8h2.5l7.6,10l0,0v1.7h-0.6v0.9h-1.1v-2.2h-2.5l-4.3-5.7l0,0v-3.3h-1.7v-1.4 L492,115.8L492,115.8L492,115.8z M505.5,129.1v-2.5h1.8v-0.3l13.1,7.6v1.4h-1.6v1.7h-0.3v-1.5h-3.3v0.3l-7.7-4.5v-2.2H505.5 L505.5,129.1z M535.5,138.7l-13.3-1.8v-0.7h1.5v-3.4h-3.3v0.3l-13.1-7.6v-2.2H504v2.5H503l-7.6-10l0,0v-0.3L535.5,138.7L535.5,138.7 z M500.2,108.6h2.2v-0.3l13.5,7.8v2.2h3.3V118l19,10.9v1H537v2.2h-1.3v0.3l-35.8-20.7v-2.2h-0.3L500.2,108.6L500.2,108.6 L500.2,108.6z M547.7,122.5v0.3l-23.8-13.7v-1.4l25.6,14.8H547.7z M607.9,22.8v-3.3h-3.3v0.3L585,8.5V6.2h-3.3v3.3h0.3v0.1h-2.2v3.3 h2.4L560,51.3h-1.2V50h-3.3v3.3h0.3v0.1h-2.2v1.9l-0.7,0.2v-0.8h-3.3V58h0.3l-27,46.8h-2.2v5.4h0.3l-2.8,4.8h-2.2v0.3l-13.5-7.7 v-2.2h-3.3v3.3h0.3l-0.5,0.9h-1.1v-1.3h-3.3v3.3h0.3l-0.5,0.9h-2.2v2.5l-0.1,0.1h-3.3v3.3h1.7v1.4l-11.5,8.8h-3.3v3.3h2.5l4.3,5.7 l0,0v3.3h3.3v-2.5l11.5-8.8h1.7v2.2h3.3v-0.9h2.2v1.5h0.3l-8.8,14.9h-2.2v3.3h2.9l1.6,1.6v2.9h3.3v-0.8l3.4,1v1.8h3.3v-3.3h-0.4 l8.6-14.9h1.6v1.5h0.3v2.5h3.3v-1.1l0.7,0.1l-2.4,16.6h-1.6v3.3h3.3v-1.1l7.9,1.1v1.6h3.3v-3.3h-1.1l2.1-15.2h1v0.4h3.3v-3.3H537 l0.1-1h1.6v-3.3h-0.3l0.5-0.9h2.2v-3.3l0.6,0.3v2.2h3.3v-3.3h-0.3l4-6.8h2.2v-1h2v-1.3h7.2v1.3h1.7l5.7,29.5h-1v3.3h0.3L536,211 h-1.6l-5.9-7.2v-3.2h-0.3l1.3-2.3h2.2v-0.3l0.7,0.4v2.2h3.3v-3.3h-0.3l1.3-2.3h2.2v-3.3h-3.2v0.3l-4-2.3v-2.2h-1.8l-0.8-2.6h0.8 v-3.3h-3.3v1.7l-2.6,0.6V183h-3.3v0.3L466,151.7v-2.2h-3.3v3.3h0.3l-1.3,2.3h-2.2v3.3h3.3v-0.3l47.1,27.2v2.2h0.3l-1.3,2.3h-2.2v3.3 h3.3v-0.3l4.1,2.4v2.2h0.3l-48.4,83.8h-2.2v3.3h3.3v-2.2l62.1-34v0.4h3.3v-0.3l58.7,33.9v2.2h3.3v-3.3h-1.7L581,221.6h1v-3.3h-0.3 l22.7-39.4h2.2v-3.3h-2.1l-31.2-63.7h0.5v-2.2l4.2-2.4v0.3h3.3v-3.3H581l2.4-4.2h2.2v-3.3h-1.3v-5.3h1.3v-3.3h-2.2l-2.4-4.2h0.3 v-3.2H578V81l-1.5-0.8l3.1-5.4h2.2v-3.3h-1.6l-0.1-0.8h1.1v-3.3h-0.3v-0.1h2.2v-3.3h-2.2v-1.3h-0.3l22.2-38.4v1.8h3.3v-3.3h-0.3 l0.1-0.1L607.9,22.8L607.9,22.8z M524.1,233.7v-0.5h-3.3v0.5l-5.1-2.5v-2.1h-1.7l-1.3-5.8h1v-3.2l3.2-4h2.6v-1.3h6v1.3h2.6l3.2,4 v3.2h1l-1.3,5.8h-1.7v2.1L524.1,233.7L524.1,233.7L524.1,233.7z M532.4,232.4v-3.3h-1l1.3-5.8h1.7v-3.2h-2.6l-3.2-4v-3.2h-3.3v1.3 h-6v-1.3h-3.2v3.2l-3.2,4h-2.6v3.3h1.7l1.3,5.8h-1v3.3h3.3V232l5.1,2.5v2.1h3.3v-2.1l5.1-2.5v0.5L532.4,232.4L532.4,232.4 L532.4,232.4z M577.7,95.2h-1.3v3.3h0.3l-0.8,1.4h-2.2v2.2l-1.4,0.8v-0.3h-3.3v1.3h-2.1v-1.3h-3.3v0.3l-1.4-0.8v-2.2h-2.2l-0.8-1.4 h0.3v-3.3H558v-2.1h1.3v-3.3H559l0.8-1.4h2.2v-2.2l1.4-0.8v0.3h3.3v-1.3h2.1v1.3h3.3v-0.3l1.4,0.8v2.2h2.2l0.8,1.4h-0.3v3.3h1.3 V95.2z M576.6,88.4h0.3v-3.3h-3.3v0.3l-1.4-0.8v-2.2H569v1.3h-2.1v-1.3h-3.3v2.2l-1.4,0.8v-0.3h-3.3v3.3h0.3l-0.8,1.4h-2.2v3.3h1.3 v2.1h-1.3v3.3h2.2l0.8,1.4h-0.3v3.3h3.3v-0.3l1.4,0.8v2.2h3.3v-1.3h2.1v1.3h3.3v-2.2l1.4-0.8v0.3h3.3v-3.3h-0.3l0.8-1.4h2.2v-3.3 h-1.3v-2.1h1.3v-3.3h-2.2L576.6,88.4L576.6,88.4z"></path> </svg> 