<?xml version="1.0" encoding="UTF-8"?>
<svg id="Layer_1" data-name="Layer 1" xmlns="http://www.w3.org/2000/svg" viewBox="0 0 800 240">
  <defs>
    <style>
      .cls-1 {
        fill: #fff;
      }

      .cls-2 {
        fill: #0867e8;
      }

      .cls-3 {
        fill: #f2e8c6;
      }
    </style>
  </defs>
  <rect class="cls-3" x="207.8125" y="66.09598" width="592.1875" height="112.55115"/>
  <path class="cls-1" d="m577.24103,85.55912h0Zm9.48254,1.59093l5.82507-3.36339,3.3634-5.82508v-6.72676l-3.3634-5.82509-2.73651-1.58,3.02161-5.58695-.40546-3.19346.04248.0251,1.50665-2.60976-2.45593-1.4178.69183.39902,18.33832-31.76287-7.71271-4.45297,8.9317,5.1564,1.50665-2.60974-17.86334-10.31344-1.50665,2.60971,1.21899.70409-18.33832,31.76287-1.76471-1.01817-1.50665,2.60913.33276.19241-3.46375.85597-22.50623,38.98261.70026.4177-4.35516,7.54283-13.07141-7.54669-1.89917,3.28936-1.71143-.9879-1.89917,3.28938-2.67285,2.03758,1.28571,1.6862-11.55804,8.81198,5.33221,6.99385,11.55804-8.81134,1.28564,1.68619,3.12537-2.38255-.92432,1.68491,2.07538,1.19836-8.21222,14.22386,3.42682,3.4773,5.18066,1.49247,8.21222-14.22389-4.30371-2.48488,6.37921,3.68324.70276-1.21831-.44727,3.1864,5.25873.73882-3.15869-.44407-2.02344,14.3925,8.70966,1.22411,2.02277-14.39251,2.10004.29542.4679-3.32799,1.89923-3.29001-1.7113-.9879.995-1.72351,3.7489,2.16436,5.26453-9.11894.84375.48719h8.17615l4.88483,25.48856-25.466,44.10812-6.62701-8.09438,2.52417-4.37187,3.08789,1.78339,2.52417-4.37189-5.66681-3.27199-1.39594-4.58296-4.56494,1.14171-45.19348-26.09224-2.5239,4.37122,42.39749,24.47814-3.13367-1.80911-2.52386,4.37189,5.78754,3.34151-39.13507,67.78371,50.91266-27.88335,48.29529,27.88335-9.7561-48.99036,19.17627-33.21416-25.56195-52.14457-.00012-.00011Z"/>
  <path class="cls-2" d="m612.23401,19.0999h-1.74988v.26515l-15.23694-8.79718c-.00128-.00127-.00256-.00193-.00378-.00257l-.05017-.02897v-1.7499h-.26453l.02124-.03667h1.74994v-.26517l15.29156,8.82871v1.7499h.26385l-.02124.0367h-.00006Zm-19.55725,31.05942h-1.74994v.26517l-12.85303-7.42055v-1.75054h-.26514l17.26031-29.89456h.12421v-.21495l.02185-.03799,15.00647,8.66526-17.54474,30.38816Zm.25806,3.62854h-1.74994v.26517l-16.38245-9.45877v-1.74993h-.26447l.02185-.03667h.94159v1.01878h2.57239v-.26515l12.85303,7.42053v1.7499h1.76471v1.0188h.26447l-.02185.03733h.00067Zm-.40546,3.16837h-.80322v.22011l-6.21832-4.0462-.13129.20208.12036-.20854-7.06787-4.09576-.12097.20917.10944-.21497-6.74542-3.45477v-.56442l.55798-.18664v.60046h2.57245v-.26515l16.38245,9.45877v1.7499h1.2486l.09595.59596h-.00012Zm-2.82471,6.53239l-1.69525-.97824v-1.75054h-2.57239v1.04518h-4.15369v-1.04518h-2.57245v1.75054l-3.25336,1.87798v-.26515h-2.57245v2.5724h.26453l-1.87732,3.25269h-1.75055v2.57242h1.04517v4.15433h-1.04517v2.57242h1.75055l1.87799,3.25333h-.2652v2.57242h2.57245v-.26517l1.45386.83925-5.94159,10.29158h-1.75055v.2645l-20.05414-11.5781v-1.75055h-.26385l21.02008-36.40956h1.75061v-.35591l6.52014,3.33959,7.05829,4.08933,6.47571,4.2142v1.7763h.26447l-2.28595,3.95996.00006-.00002Zm1.55811,1.45643v1.75056h1.74988l1.87793,3.25269h-.26447v2.57242h1.04449v4.15433h-1.04449v2.57242h.26447l-1.87793,3.25333h-1.74988v1.7499l-3.25336,1.87799v-.26516h-2.57239v1.04519h-4.15369v-1.04519h-2.57245v.26516l-3.25336-1.87799v-1.7499h-1.74994l-1.87793-3.25333h.26514v-2.57242h-1.04517v-4.15433h1.04517v-2.57242h-.26514l1.87793-3.25269h1.74994v-1.7499l3.25336-1.87798v.26451h2.57245v-1.04454h4.15369v1.04454h2.57239v-.26451l3.25336,1.87798s0-.00066,0-.00066Zm20.12299,73.06369h-.38678v.26451l-26.1463-15.09593v-1.74992h-1.28717l-4.39185-22.91613h.79419v-2.51128l6.03748-7.56343h1.0799l24.30054,49.57217v.00002Zm-17.81256,33.21416h-.46527l-9.0495-47.22308h.79425v-.26516l26.1463,15.09658v1.74992h.26447l-17.69025,30.64175v-.00002Zm8.78949,48.98991h-.23877l-28.72638-35.08847v-1.5446l18.42517-10.09077v.30635h1.29681l9.24323,46.4175h-.00006Zm-46.50684-26.13297v-.89265l14.96918-8.19864v.29221h2.07684l28.67688,35.02821v.16881l-45.7229-26.39793Zm-50.91241,26.4397v-.30673h-.26495l37.64984-65.21147h1.74994v-.26451l6.10956,3.52684v1.74989h2.02728l4.59906,5.61787v2.47652h2.02795l11.98291,14.63641v1.69392l-14.96918,8.198v-.30699h-2.57239v1.71581l-48.34009,26.4744.00006.00006v-.00002Zm33.34766-69.68158v-1.75055h-.26489l1.03882-1.79881h1.75031v-.26517l11.89667,6.86899v1.74992h.26453l-1.03876,1.79881h-1.74988v.26451l-6.10956-3.52686v-1.74992h-2.57245v.26517l-3.21484-1.85674.00006.00066v-.00002Zm-36.73996-27.04089v-1.75055h-.26495l1.0386-1.79882h1.75024v-.26451l42.62134,24.60683v1.75055h2.57245v-.26451l3.38782,1.95586v1.74989h2.57245v-.26451l3.09436,1.78661v1.74925h.26514l-1.03937,1.79881h-1.74927v.26517l-.51556-.29797v-1.74989h-2.57245v.26515l-11.89667-6.86899v-1.74989h-2.57275v.26515l-36.69144-21.18426.00006.00065v-.00002Zm49.71024,20.68549v.71629h1.42554l.61267,2.01057h-.64294v.26451l-3.38782-1.95586v-.53674l1.99255-.49876v-.00002Zm31.84137-20.48275h.46466l9.04944,47.22308h-.79358v1.71581l-18.42578,10.09013v-.32115h-1.97772l-12.03247-14.69627v-2.47588h-.26453s23.97998-41.53571,23.97998-41.53571Zm-11.31036-27.01644v-1.04453h-.26514l5.80255-10.05024,1.3811.7974v1.75055h2.57245v-1.04518h4.15436v.98276l-6.03815,7.56471h-2.00409v1.04453h-5.60309Zm-6.93073,7.58723h-1.75061v.26451l-1.17584-.67898v-.74333h.90363v-2.57242h-2.57245v.26515l-14.75543-8.51915v-1.7499h-.2652l2.17023-3.75788h1.74927v-.26517l18.50433,10.68353v1.75055h.26514s-3.07306,5.32309-3.07306,5.32308Zm-3.922.5477v-.13967h.99561v-.26515l.70026.40482h-1.69586Zm-1.01044,3.28935h-1.74994v.26452l-31.24982-18.04227v-1.74993h-.26471l.41394-.71693h.88879v.9879h2.57251v-.26517l27.82721,16.06647v1.74992h1.7113v.9879h.26508l-.41443.71758h.00006Zm-.99438,3.32798h-.75043v-.29475h-2.57239v.86175l-7.38971-1.03875-.01349-.00192-.83411-.11714v-1.22346h-.25488v-.75555h.72278v-.8624l10.33661,1.45321v1.22345h.86176l-.1062.75556h.00006Zm-4.12213,14.09709h-1.22345v.86177l-6.13727-.8624v-1.22346h-.86176l1.80402-12.83309,7.21783,1.01428v1.22346h.86108l-1.66046,11.81945v-.00002Zm-18.80273-4.85392h-1.75037v.66483l-2.60828-.75171v-1.40559h-2.2149l-1.21191-1.22925v-2.24804h-.26508l6.72748-11.65147h1.74994v-.26515l6.03522,3.48499v1.74993h.26453l-6.7265,11.65146-.00012-.00002Zm-16.6933-12.56666v-.00192h-1.96332l-3.37115-4.42209h.00226v-1.96356l8.98553-6.85033v.00258h1.96307l3.37128,4.42144h-.00214v1.96358s-8.98553,6.85031-8.98553,6.8503Zm5.04053-16.96233v.00258h1.9632l5.94238,7.79446h-.00195v1.33994h-.47192v.69831h-.91418v-1.68683h-1.96326l-3.37115-4.42144h.0022v-2.57242h-1.28564v-1.07801l.1004-.07659h-.00006Zm10.47607,10.33534v-1.9153h1.42725v-.26452l10.18628,5.88108v1.10633h-1.17651v1.36054h-.22589v-1.19835h-2.57245v.26515l-6.03522-3.48501v-1.74992h-1.60358.00012Zm23.34668,7.48361l-10.33728-1.45259v-.57987h1.17645v-2.57239h-2.57239v.26515l-10.18628-5.88108v-1.75056h-2.57245v1.94942h-.81866l-5.94208-7.79446h.00238v-.26452l31.25024,18.04164v.03927l.00006-.00002Zm-27.49066-23.40722h1.75v-.2645l10.49927,6.06194v1.7499h2.57245v-.26516l14.75543,8.51913v.74334h-.90356v1.72353h-.99567v.26516l-27.82709-16.06647v-1.7499h-.26471l.41382-.71697h.00006Zm36.98102,10.81354v.26451l-18.50439-10.68352v-1.07351l19.90485,11.49251s-1.40045,0-1.40045,0Zm46.89355-77.6119v-2.5724h-2.57245v.26515l-15.29095-8.82871v-1.7499h-2.57306v2.57243h.26514l-.02185.03667h-1.74994v2.57306h1.89087l-17.25964,29.89454h-.9422v-1.0188h-2.57306v2.57243h.26514l-.02124.03731h-1.75061v1.46222l-.55798.1873v-.60112h-2.57245v2.57243h.26453l-21.02081,36.40954h-1.75055v4.20391h.26514l-2.16956,3.75724h-1.74988v.26517l-10.49933-6.06194v-1.75055h-2.57251v2.57304h.26459l-.41382.71697h-.88879v-.98855h-2.57251v2.57242h.26483l-.41388.71693h-1.75v1.9636l-.1004.07657v-.00192h-2.57251v2.57239h1.28564v1.07737l-8.98553,6.84968v-.00195h-2.57242v2.57242h1.96341l3.37109,4.42209h-.00226v2.57242h2.57245v-1.96358l8.98553-6.85033v.00257h1.28571v1.6862h2.57251v-.69764h1.70398v1.19771h.26465l-6.72742,11.65212h-1.74951v2.5724h2.2146l1.21216,1.2299v2.2474h2.57251v-.66483l2.60828.75106v1.40559h2.57251v-2.57242h-.26465l6.72705-11.65146h1.25311v1.19836h.25482v1.96807h2.57245v-.86175l.54126.07594-1.81293,12.90131h-1.22345v2.57242h2.57239v-.86175l6.13727.8624v1.22346h2.57245v-2.5724h-.86176l1.66107-11.82009h.7511v.29541h2.57239v-2.57242h-.86169l.10614-.75621h1.22351v-2.57242h-.2652l.41382-.71696h1.74994v-2.56337l.46014.2658v1.7499h2.57306v-2.57242h-.26447l3.07312-5.32309h1.74994v-.73625h1.54974v-1.0452h5.60309v1.0452h1.28711l4.39185,22.91678h-.79419v2.5724h.26514l-23.98059,41.53506h-1.20544l-4.59906-5.6172v-2.47716h-.2652l1.03943-1.79881h1.74988v-.26517l.51556.29797v1.74989h2.57239v-2.5724h-.26447l1.0387-1.79881h1.74927v-2.57242h-2.57239v.26451l-3.09436-1.78595v-1.75053h-1.42554l-.61206-2.01057h.64227v-2.5724h-2.57239v1.35925l-1.99255.49814v-.71565h-2.57245v.26515l-42.62128-24.60749v-1.7499h-2.57248v2.5724h.26489l-1.03851,1.79883h-1.75024v2.57242h2.57248v-.26451l36.69147,21.18359v1.74992h.2644l-1.03864,1.79945h-1.74969v2.57243h2.57251v-.26453l3.21521,1.85609v1.74989h.26453l-37.64969,65.21115h-1.75018v2.57248h2.57248v-1.71541l48.33984-26.47357v.30569h2.57239v-.26451l45.7229,26.39769v1.75011h2.57239v-2.57248h-1.29553l-9.24445-46.41783h.78448v-2.5724h-.26514l17.69153-30.64175h1.74994v-2.57242h-1.64819l-24.30054-49.57217h.38678v-1.75055l3.25275-1.87799v.26517h2.57239v-2.57242h-.26453l1.87799-3.25268h1.74994v-2.57242h-1.04456v-4.15435h1.04456v-2.5724h-1.74994l-1.87799-3.2527h.26453v-2.57304h-2.57239v.26515l-1.13983-.65773,2.42572-4.20133h1.74994v-2.5724h-1.28009l-.09595-.59596h.83478v-2.57243h-.26447l.02124-.03731h1.74994v-2.57243h-1.76471v-1.0188h-.26447l17.25-29.87778v1.39076h2.57239v-2.5724h-.26514l.02185-.03733h1.74994l-.00031.00003Zm-65.29492,164.15548v-.39902h-2.57245v.39902l-3.94708-1.90114v-1.63792h-1.33221l-1.02271-4.48193h.74469v-2.51128l2.50873-3.14584h2.00281v-1.04454h4.66412v1.04454h2.00281l2.50873,3.14584v2.51128h.7453l-1.02332,4.48193h-1.33221v1.63792l-3.94708,1.90114h-.00012Zm6.51953-.966v-2.57304h-.7453l1.02264-4.48193h1.33289v-2.5724h-2.00354l-2.50806-3.14456v-2.51256h-2.57239v1.0452h-4.66412v-1.0452h-2.57239v2.51256l-2.50769,3.14456h-2.00372v2.5724h1.33264l1.02344,4.48257h-.74579v2.57242h2.57227v-.39903l3.94708,1.90051v1.63792h2.57245v-1.63727l3.94708-1.90115v.39903h2.57245l.00006-.00003Zm35.24982-106.81845h-1.04456v2.57242h.26453l-.63654,1.10247h-1.75055v1.75055l-1.10248.63649v-.26515h-2.57245v1.04518h-1.67139v-1.04518h-2.57245v.26515l-1.10309-.63649v-1.75055h-1.74988l-.63715-1.10247h.26514v-2.57305h-1.04449v-1.67075h1.04449v-2.57306h-.26514l.63715-1.10245h1.74988v-1.75055l1.10309-.63652v.26517h2.57245v-1.0452h1.67139v1.0452h2.57245v-.26517l1.10248.63652v1.75055h1.75055l.63654,1.1031h-.2652v2.57242h1.04523s0,1.67138,0,1.67137Zm-.85919-5.3469h.26514v-2.57242h-2.57239v.26517l-1.10309-.63718v-1.7499h-2.57245v1.04454h-1.67139v-1.04454h-2.57245v1.7499l-1.10309.63718v-.26517h-2.57239v2.57242h.26447l-.63647,1.1031h-1.74988v2.57242h1.04517v1.67138h-1.04517v2.57242h1.74988l.63647,1.10247h-.26447v2.57239h2.57239v-.2645l1.10309.63649v1.7499h2.57245v-1.04453h1.67139v1.04453h2.57245v-1.7499l1.10309-.63649v.2645h2.57239v-2.57239h-.26514l.63715-1.10247h1.74988v-2.57242h-1.0451v-1.67138h1.0451v-2.57306h-1.74988l-.63715-1.10245v-.00002Z"/>
</svg>