<?xml version="1.0" encoding="UTF-8"?> <svg xmlns="http://www.w3.org/2000/svg" id="Isa_Elaine" data-name="Isa Elaine" viewBox="0 0 384.4651 225"><defs><style> .cls-1 { fill: #fff; } </style></defs><path id="logo" class="cls-1" d="m175.107,163.5648c3.345.0904,7.765-2.0934,9.923-5.0727-1.102-2.3773-2.162-4.769-3.151-7.1824-2.127-5.2282-4.02-10.5214-5.542-15.8978-4.901-16.4239-5.27-33.3433-5.346-50.4483-.005-5.644-.217-11.33-.685-17.006h.002c-.879-10.668-1.568-12.702-7.237-20.208-5.532-7.322-9.102-11.38-12.036-13.074-13.841-7.99-35.321,1.96-50.539,28.317l-3.3049,5.722-12.651,21.913-21.4297-27.553c14.5004-10.527,26.5819-23.666,36.4761-38.611-1.5945-2.942-5.6964-5.677-9.3536-6.056-1.5095,2.142-3.0498,4.255-4.6461,6.32-3.4637,4.456-7.101,8.74-10.995,12.748-11.7743,12.456-26.2421,21.235-41.0191,29.853-4.8847,2.825-9.7025,5.853-14.3847,9.096v-.001c-8.8004,6.094-10.2177,7.708-13.8821,16.371-3.5758,8.452-5.3059,13.573-5.3059,16.9609,0,15.981,19.3598,29.61,49.7941,29.61h31.9096l-13.141,32.3217c-16.3678-7.2944-33.7914-11.174-51.6814-12.2713-1.7518,2.8527-2.0682,7.7717-.5677,11.1306,2.6105.235,5.2101.5116,7.7953.8642,5.5915.7701,11.1216,1.7788,16.5396,3.1473,16.6733,3.9682,31.51,12.1087,46.3611,20.5963,4.8901,2.8166,9.9212,5.4759,15.0694,7.9092,9.679,4.5755,11.784,4.995,21.121,3.838,9.104-1.1299,14.406-2.1929,17.339-3.8868,13.84-7.9905,15.964-31.5697.746-57.9275l-3.303-5.7217-12.651-21.9123,34.562-4.7799c1.866,17.8213,7.219,34.8508,15.214,50.8915m-22.744-120.4472v-.001c3.851,6.887,5.33,18.289,5.804,24.918.01.14.016.277.025.414l-33.079-17.924c9.362-8.046,19.164-9.923,27.25-7.407m-30.906,10.894l37.044,20.071c.219,5.081.293,10.136.371,15.214l-50.939-10.737c.148-3.821,1.528-7.294,3.937-11.466,3.034-5.256,6.265-9.584,9.587-13.082m-62.2876,11.822l22.7765,29.286-3.6246,6.28c-6.1158,10.5922-10.4057,17.0117-14.6577,20.8316l-16.0533-49.1126c2.4387-1.475,4.8775-2.974,7.3108-4.527,1.4408-.893,2.8509-1.817,4.2483-2.758M6.6491,104.3846h-.0036c4.0404-6.778,13.1771-13.759,18.68-17.485.1157-.078.2314-.152.3453-.23l1.0178,37.6116c-11.6513-4.0856-18.1757-11.6386-20.0395-19.8966m41.0082,23.0802c-6.067,0-11.4307-.6346-16.122-1.7626l-1.1389-42.1166c4.2899-2.728,8.6305-5.32,12.9891-7.927l16.1726,49.4813c-3.386,1.7825-7.0812,2.3249-11.9008,2.3249m49.5338-35.6802l20.8119,36.0453h-41.6233l20.8114-36.0453Zm-24.2697,81.9418l13.9689-34.3609h7.2492c12.2315,0,19.9405.5026,25.3765,2.2742l-34.5113,38.4629c-2.4948-1.374-5.013-2.737-7.5747-4.0676-1.4932-.8008-2.9973-1.5674-4.5086-2.3086m59.6426,26.2168l.002.0018c-7.891-.1085-18.504-4.5303-24.483-7.4337-.125-.0596-.248-.1247-.37-.1862l32.061-19.6851c2.289,12.1339-.989,21.5598-7.21,27.3032m6.019-32.2114l-35.905,22.0443c-4.5089-2.3501-8.9235-4.8142-13.3599-7.2836l34.7679-38.7503c3.236,2.041,5.553,4.9733,7.961,9.1475,3.036,5.2535,5.167,10.2141,6.536,14.8421m-15.846-54.771l-3.632-6.2892c-6.11-10.587-9.523-17.511-10.706-23.1l50.559,10.655c.058,2.847.138,5.709.266,8.592.053,1.694.141,3.379.257,5.0604l-36.744,5.0818h0Z"></path><path class="cls-1" d="m245.0921,139.3655h-15.75v-60.3755h9.75c6.582,0,11.25.668,14,2,2.582,1.084,4.729,2.8965,6.438,5.4375,1.707,2.543,2.5625,5.3125,2.5625,8.3125,0,2.418-.543,4.543-1.625,6.375-.668,1.168-1.334,2.125-2,2.875-.668.75-1.231,1.3125-1.688,1.6875-.459.375-1.4375,1.0625-2.9375,2.0625,8.8325,2.834,13.25,7.9185,13.25,15.2505,0,5.584-2,9.668-5.9995,12.25-2.418,1.668-4.731,2.7715-6.938,3.3125-2.209.543-5.2305.8125-9.0625.8125Zm-6.125-54.7505h-3.25v21.5h4.375c2.832,0,5.291-.207,7.375-.625,5.25-1.416,7.875-4.791,7.875-10.125,0-5-1.959-8.082-5.875-9.25-2.834-1-6.334-1.5-10.5-1.5Zm3.625,27.125h-6.875v22.0005h11.625c3.332-.25,5.582-.707,6.75-1.375,4.0825-2,6.1255-5.207,6.1255-9.625,0-2.582-.5625-4.582-1.6875-6-1.1255-1.416-2.688-2.625-4.688-3.625-1.084-.5825-2.418-.9165-4-1.0005-2.084-.25-4.5-.375-7.25-.375Zm47.749-32.75h6.25v60.3755h-6.25v-60.3755Zm94.124,30c0,9.0005-3.043,16.4185-9.125,22.2505-6.084,5.918-13.418,8.875-22,8.875-8.75,0-16.125-3-22.125-9s-9-13.332-9-22.0005c0-8.416,2.916-15.666,8.75-21.75,5.832-6.082,13.291-9.125,22.375-9.125,9,0,16.457,3,22.375,9,5.832,5.918,8.75,13.168,8.75,21.75Zm-6.875-.125c0-6.582-2.25-12.291-6.75-17.125-4.5-4.916-10.293-7.375-17.375-7.375-7,0-12.793,2.418-17.375,7.25-4.668,4.834-7,10.709-7,17.625,0,6.8345,2.291,12.6685,6.875,17.5005,4.582,4.834,10.332,7.25,17.25,7.25,6.75,0,12.457-2.291,17.125-6.875,4.832-4.582,7.25-10.666,7.25-18.2505Z"></path></svg> 