<?xml version="1.0" encoding="UTF-8"?> <svg xmlns="http://www.w3.org/2000/svg" id="Isa_Elaine" data-name="Isa Elaine" viewBox="0 0 600 225"><defs><style> .cls-1 { fill: #6096ef; } </style></defs><path id="logo" class="cls-1" d="m206.6835,163.5648c3.345.0904,7.765-2.0934,9.923-5.0727-1.102-2.3773-2.162-4.769-3.151-7.1824-2.127-5.2282-4.02-10.5214-5.542-15.8978-4.901-16.4239-5.27-33.3433-5.346-50.4483-.005-5.644-.217-11.33-.685-17.006h.002c-.879-10.668-1.568-12.702-7.237-20.208-5.532-7.322-9.102-11.38-12.036-13.074-13.841-7.99-35.321,1.96-50.539,28.317l-3.3049,5.722-12.651,21.913-21.4297-27.553c14.5004-10.527,26.5819-23.666,36.4761-38.611-1.5945-2.942-5.6964-5.677-9.3536-6.056-1.5095,2.142-3.0498,4.255-4.6461,6.32-3.4637,4.456-7.101,8.74-10.995,12.748-11.7743,12.456-26.2421,21.235-41.0191,29.853-4.8847,2.825-9.7025,5.853-14.3847,9.096v-.001c-8.8004,6.094-10.2177,7.708-13.8821,16.371-3.5758,8.452-5.3059,13.573-5.3059,16.9609,0,15.981,19.3598,29.61,49.7941,29.61h31.9096l-13.141,32.3217c-16.3678-7.2944-33.7914-11.174-51.6814-12.2713-1.7518,2.8527-2.0682,7.7717-.5677,11.1306,2.6105.235,5.2101.5116,7.7953.8642,5.5915.7701,11.1216,1.7788,16.5396,3.1473,16.6733,3.9682,31.51,12.1087,46.3611,20.5963,4.8901,2.8166,9.9212,5.4759,15.0694,7.9092,9.679,4.5755,11.784,4.995,21.121,3.838,9.104-1.1299,14.406-2.1929,17.339-3.8868,13.84-7.9905,15.964-31.5697.746-57.9275l-3.303-5.7217-12.651-21.9123,34.562-4.7799c1.866,17.8213,7.219,34.8508,15.214,50.8915m-22.744-120.4472v-.001c3.851,6.887,5.33,18.289,5.804,24.918.01.14.016.277.025.414l-33.079-17.924c9.362-8.046,19.164-9.923,27.25-7.407m-30.906,10.894l37.044,20.071c.219,5.081.293,10.136.371,15.214l-50.939-10.737c.148-3.821,1.528-7.294,3.937-11.466,3.034-5.256,6.265-9.584,9.587-13.082m-62.2876,11.822l22.7765,29.286-3.6246,6.28c-6.1158,10.5922-10.4057,17.0117-14.6577,20.8316l-16.0533-49.1126c2.4387-1.475,4.8775-2.974,7.3108-4.527,1.4408-.893,2.8509-1.817,4.2483-2.758m-52.5203,38.551h-.0036c4.0404-6.778,13.1771-13.759,18.68-17.485.1157-.078.2314-.152.3453-.23l1.0178,37.6116c-11.6513-4.0856-18.1757-11.6386-20.0395-19.8966m41.0082,23.0802c-6.067,0-11.4307-.6346-16.122-1.7626l-1.1389-42.1166c4.2899-2.728,8.6305-5.32,12.9891-7.927l16.1726,49.4813c-3.386,1.7825-7.0812,2.3249-11.9008,2.3249m49.5338-35.6802l20.8119,36.0453h-41.6233l20.8114-36.0453Zm-24.2697,81.9418l13.9689-34.3609h7.2492c12.2315,0,19.9405.5026,25.3765,2.2742l-34.5113,38.4629c-2.4948-1.374-5.013-2.737-7.5747-4.0676-1.4932-.8008-2.9973-1.5674-4.5086-2.3086m59.6426,26.2168l.002.0018c-7.891-.1085-18.504-4.5303-24.483-7.4337-.125-.0596-.248-.1247-.37-.1862l32.061-19.6851c2.289,12.1339-.989,21.5598-7.21,27.3032m6.019-32.2114l-35.905,22.0443c-4.5089-2.3501-8.9235-4.8142-13.3599-7.2836l34.7679-38.7503c3.236,2.041,5.553,4.9733,7.961,9.1475,3.036,5.2535,5.167,10.2141,6.536,14.8421m-15.846-54.771l-3.632-6.2892c-6.11-10.587-9.523-17.511-10.706-23.1l50.559,10.655c.058,2.847.138,5.709.266,8.592.053,1.694.141,3.379.257,5.0604l-36.744,5.0818h0Z"></path><path id="type" class="cls-1" d="m260.9186,65.4723h4.6065v26.8065h-4.6065v-26.8065Zm23.366-.3335c-2.405,0-4.329.685-5.772,2.054-1.443,1.369-2.165,3.126-2.165,5.272,0,1.924.518,3.423,1.554,4.496,1.147,1.147,3.201,2.608,6.161,4.384,2.035,1.369,3.052,2.757,3.052,4.163,0,.851-.351,1.554-1.054,2.109-.666.518-1.462.777-2.387.777-2.072,0-3.866-.666-5.383-1.998-.333-.259-.962-.851-1.887-1.776v5.661c2.257,1.554,4.699,2.331,7.326,2.331,2.294,0,4.162-.703,5.605-2.109s2.165-3.201,2.165-5.384c0-3.108-1.61-5.642-4.829-7.603-2.553-1.517-4.199-2.59-4.939-3.219-.703-.592-1.055-1.369-1.055-2.331,0-.74.315-1.351.944-1.832.629-.481,1.48-.721,2.553-.721,1.665,0,3.2.425,4.606,1.276l1.721,1.166v-4.995c-1.924-1.147-3.996-1.721-6.216-1.721Zm31.246,16.539h-7.215l3.497-9.213,3.718,9.213Zm9.546,10.601l-11.655-26.973h-3.219l-11.155,26.973h4.773l2.83-6.66h10.656l2.997,6.66h4.773Zm45.344-26.807h-15.207v26.807h15.54v-4.274h-10.934v-7.104h10.268v-4.218h-10.268v-6.937h10.601v-4.274Zm10.656,26.807h15.928v-4.274h-11.322v-22.533h-4.606v26.807Zm39.127-10.601h-7.215l3.497-9.213,3.718,9.213Zm9.546,10.601l-11.655-26.973h-3.219l-11.155,26.973h4.773l2.83-6.66h10.656l2.997,6.66h4.773Zm9.158,0h4.6065v-26.8065h-4.6065v26.8065Zm36.241-7.659l-15.817-19.148h-3.885v26.807h4.662v-18.981l15.595,18.981h4.052v-26.807h-4.607v19.148Zm31.746-19.148h-15.207v26.807h15.54v-4.274h-10.933v-7.104h10.267v-4.218h-10.267v-6.937h10.6v-4.274Zm-231.601,47.087h-14.375v26.8067h4.607v-12.0435h9.768v-4.2732h-9.768v-6.216h9.768v-4.274Zm16.539,6.882c1.628-1.887,3.866-2.83,6.715-2.83,2.738,0,4.921.925,6.549,2.775,1.665,1.85,2.498,4.014,2.498,6.4932,0,2.886-.888,5.18-2.664,6.882-1.739,1.702-3.885,2.553-6.438,2.553-2.516,0-4.644-.851-6.383-2.553-1.776-1.702-2.664-3.9405-2.664-6.7155,0-2.5527.796-4.7547,2.387-6.6047Zm-3.441,16.3172c2.627,2.627,5.92,3.9405,9.879,3.9405,4.218,0,7.64-1.3135,10.267-3.9405,2.664-2.664,3.996-5.9385,3.996-9.8235,0-3.6997-1.313-6.9187-3.94-9.6567-2.59-2.701-5.976-4.052-10.157-4.052-4.144,0-7.511,1.351-10.101,4.052-2.553,2.738-3.829,5.994-3.829,9.7677,0,3.885,1.295,7.1225,3.885,9.7125Zm52.503-8.0475c0,1.591-.093,2.7565-.278,3.4965-.185.74-.573,1.48-1.165,2.22-1.036,1.369-2.794,2.0535-5.273,2.0535-2.22,0-3.959-.6845-5.217-2.0535-.592-.592-.98-1.2765-1.165-2.0535s-.278-1.998-.278-3.663v-15.1517h-4.606v15.1517c0,2.257.203,4.0515.61,5.3835.444,1.258,1.184,2.4605,2.22,3.6075.925.962,2.165,1.702,3.719,2.22,1.591.518,3.219.777,4.884.777,3.33,0,6.031-.962,8.103-2.886,1.11-.999,1.887-2.183,2.331-3.552.481-1.369.721-3.219.721-5.55v-15.1517h-4.606v15.1517Zm35.686,3.996l-15.817-19.1477h-3.885v26.8067h4.662v-18.9807l15.595,18.9807h4.052v-26.8067h-4.607v19.1477Zm32.634-12.9867c2.146,1.813,3.219,4.162,3.219,7.0482,0,1.332-.314,2.7195-.943,4.1625-.592,1.406-1.425,2.516-2.498,3.33-1.591,1.184-3.977,1.776-7.159,1.776h-4.107v-18.2037h3.996c3.589,0,6.086.629,7.492,1.887Zm1.61,18.5367c1.813-1.073,3.33-2.6085,4.551-4.6065,1.221-1.998,1.831-4.255,1.831-6.771,0-2.0352-.444-3.9772-1.332-5.8272-.851-1.85-2.053-3.386-3.607-4.607-2.294-1.924-5.698-2.886-10.212-2.886h-8.991v26.8067h8.491c3.922,0,7.012-.703,9.269-2.109Zm28.86-8.4915h-7.215l3.496-9.2132,3.719,9.2132Zm9.546,10.6005l-11.655-26.9727h-3.219l-11.156,26.9727h4.773l2.831-6.66h10.656l2.997,6.66h4.773Zm4.329-22.7547h8.713v22.7547h4.607v-22.7547h8.658v-4.052h-21.978v4.052Zm31.912,22.7547h4.6065v-26.8065h-4.6065v26.8065Zm22.866-19.9247c1.628-1.887,3.867-2.83,6.716-2.83,2.738,0,4.921.925,6.549,2.775,1.665,1.85,2.497,4.014,2.497,6.4932,0,2.886-.888,5.18-2.664,6.882-1.739,1.702-3.885,2.553-6.438,2.553-2.516,0-4.643-.851-6.382-2.553-1.776-1.702-2.664-3.9405-2.664-6.7155,0-2.5527.795-4.7547,2.386-6.6047Zm-3.441,16.3172c2.627,2.627,5.92,3.9405,9.879,3.9405,4.218,0,7.641-1.3135,10.268-3.9405,2.664-2.664,3.996-5.9385,3.996-9.8235,0-3.6997-1.314-6.9187-3.941-9.6567-2.59-2.701-5.975-4.052-10.156-4.052-4.144,0-7.511,1.351-10.101,4.052-2.553,2.738-3.83,5.994-3.83,9.7677,0,3.885,1.295,7.1225,3.885,9.7125Zm54.612-4.0515l-15.817-19.1477h-3.885v26.8067h4.662v-18.9807l15.595,18.9807h4.052v-26.8067h-4.607v19.1477Z"></path></svg> 