<?xml version="1.0" encoding="UTF-8"?>
<svg id="Layer_1" data-name="Layer 1" xmlns="http://www.w3.org/2000/svg" viewBox="0 0 500 137.96">
  <defs>
    <style>
      .cls-1 {
        fill: #6096ef;
        fill-rule: evenodd;
      }
    </style>
  </defs>
  <path class="cls-1" d="m500,82.05c-16.26,2.56-32.77,3.62-48.84,3.8-14.37.17-33.31-2.12-47.09-10.09,10.55-4.89,23.71-12.77,26.08-24.02,1.72-9.77-7.16-15.34-15.27-16.67-12.14-1.89-25.91-2.12-35.19,7.58-7.79,8.56-6.49,19.99-1.28,29.15-32.5,8.6-67.52,3.53-100.19-3.75-39.6-8.83-78.62-20.12-118.59-27.91C107.35,29.25,53,25.58,0,32.2v3.47c79.38-7.64,152.46,8.06,236.45,32.31,48.45,12.92,101.07,28.85,150.55,14.19,18.57,16.72,45.17,20.79,69.31,20.6,14.24-.14,28.99-1.03,43.69-3.04v-17.69Zm-82.65-32.51c0-.06,0-.06,0,0h0Zm-26.88,13.45c-5.88-10.82,3.31-15.47,13.08-15.59,4.7.08,9.56.06,13.5,2.18.11.06.19.13.26.18-.1.37-.41,1.09-.92,1.83-5.15,6.81-13.92,11.18-21.99,14.75-.39.17-.78.33-1.17.49-1.01-1.21-1.93-2.49-2.75-3.85Z"/>
</svg>