<?xml version="1.0" encoding="utf-8"?>
<!-- Generator: Adobe Illustrator 27.2.0, SVG Export Plug-In . SVG Version: 6.00 Build 0)  -->
<svg version="1.1" id="Layer_1" xmlns="http://www.w3.org/2000/svg" xmlns:xlink="http://www.w3.org/1999/xlink" x="0px" y="0px"
	 viewBox="0 0 2134.6 1136.5" style="enable-background:new 0 0 2134.6 1136.5;" xml:space="preserve">
<style type="text/css">
	.st0{fill:#FFFFFF;}
	.st1{fill:#6096EF;}
	.st2{opacity:5.000000e-02;enable-background:new    ;}
	.st3{fill-opacity:0;}
	.st4{opacity:0.5;enable-background:new    ;}
	.st5{opacity:0.3;enable-background:new    ;}
	.st6{opacity:0.25;enable-background:new    ;}
	.st7{opacity:0.4;enable-background:new    ;}
	.st8{opacity:0.35;enable-background:new    ;}
	.st9{opacity:0.45;enable-background:new    ;}
	.st10{opacity:0.1;enable-background:new    ;}
	.st11{opacity:0.15;enable-background:new    ;}
	.st12{opacity:0.2;enable-background:new    ;}
	.st13{fill:#181E2B;}
	.st14{fill:#A06D1A;}
	.st15{fill:#FFFFFF;fill-opacity:0;}
	.st16{opacity:0.6;fill:#FFFFFF;enable-background:new    ;}
	.st17{opacity:0.3;fill:#FFFFFF;enable-background:new    ;}
	.st18{opacity:0.15;fill:#FFFFFF;enable-background:new    ;}
	.st19{fill:#5082CC;}
	.st20{fill:#375B9B;}
	.st21{fill:#21375D;}
</style>
<path class="st0" d="M253.2,334.1h53.1V200.5h-53.1v-33.1h145.1v33.1h-54v133.7h54v33.1H253.2V334.1z M438,167.3h40.9l76.8,132h1.7
	v-132H594v200h-41.4l-76.3-132h-1.7v132H438V167.3L438,167.3z M250,538.5h36.9c0.3,18,15.1,32,40.3,32c21.4,0,35.1-9.1,35.1-24.3
	c0-45.7-106.3-8.9-106.3-90.6c0-31.7,25.1-57.7,69.1-57.7c38,0,70.3,20,71.4,61.7h-38c-0.3-16.6-12-27.7-33.4-27.7
	s-31.4,10.6-31.4,23.1c0,41.7,107.7,7.4,107.7,88.3c0,35.4-27.4,62-75.4,62S250,578.2,250,538.5L250,538.5z M453.1,401.7H576v32.9
	h-85.1v49.7h72.8v32.6h-72.8v52h88v32.8H453.1V401.7L453.1,401.7z M743.7,562.2h-76.3l-12.3,39.4h-38.8l66-200H730l66.3,200H756
	L743.7,562.2L743.7,562.2z M733.1,528.2l-26.3-85.1h-2.3l-26.6,85.1H733.1L733.1,528.2z M820.8,401.7h75.4c40.8,0,68.8,26,68.8,63.7
	c0,27.7-16.3,48.8-37.4,58.3l44,78H929l-37.4-71.4h-32.8v71.4h-38V401.7L820.8,401.7z M893.3,497.6c18.8,0,32.8-11.1,32.8-32.3
	c0-18-12.3-31.1-33.4-31.1h-34v63.4H893.3L893.3,497.6z M1010.5,533.4V470c0-41.1,30.6-72,76-72s74.6,28.9,76,71.1h-38
	c-1.4-18.3-14-34.6-38-34.6s-38,18.3-38,37.4v59.4c0,19.4,12.6,37.4,38,37.4c24,0,36.6-15.7,38-34.3h38c-1.4,42.3-32,70.8-76,70.8
	S1010.5,574.5,1010.5,533.4z M1197.9,401.7h38v80.8h81.4v-80.8h38v200h-38v-83.1h-81.4v83.1h-38V401.7L1197.9,401.7z M249.7,767.7
	v-63.4c0-41.1,30.6-72,76-72s76,30.8,76,72v63.4c0,41.1-30.6,72-76,72S249.7,808.9,249.7,767.7z M363.7,765.7v-59.4
	c0-19.1-12.9-37.4-38-37.4s-38,18.3-38,37.4v59.4c0,19.4,12.6,37.4,38,37.4S363.7,785.1,363.7,765.7z M454.6,636h122.8v32.8h-84.8
	v53.4H570v32.6h-77.4V836h-38V636L454.6,636z M933.6,796.6h-76.3L845.1,836h-38.8l66-200H920l66.3,200H946L933.6,796.6L933.6,796.6z
	 M923.1,762.6l-26.3-85.1h-2.3l-26.6,85.1H923.1L923.1,762.6z M1200.4,767.7v-63.4c0-41.1,30.6-72,76-72s74.6,28.8,76,71.1h-38
	c-1.4-18.3-14-34.6-38-34.6s-38,18.3-38,37.4v59.4c0,19.4,12.6,37.4,38,37.4c24,0,36.6-15.7,38-34.3h38c-1.4,42.3-32,70.8-76,70.8
	S1200.4,808.8,1200.4,767.7L1200.4,767.7z M1387.5,761.4V636h38v125.1c0,26.6,14,42.8,41.1,42.8s41.4-16.3,41.4-43.1V636h37.7v125.1
	c0,46.8-30.6,78.6-79.1,78.6S1387.5,808.3,1387.5,761.4L1387.5,761.4z M1581.5,636h75.4c40.8,0,68.8,26,68.8,63.7
	c0,27.7-16.3,48.8-37.4,58.3l44,78h-42.6l-37.4-71.4h-32.8V836h-38V636L1581.5,636z M1654.1,732c18.8,0,32.8-11.1,32.8-32.3
	c0-18-12.3-31.1-33.4-31.1h-34V732H1654.1L1654.1,732z M1784.3,636h122.8v32.8H1822v49.7h72.8v32.6H1822v52h88V836h-125.7V636z
	 M254.1,895H246v-5.6h8.1v-5.2c0-8.7,6.1-14,14.8-14h4.1v5.7h-4.1c-5.8,0-8.1,3.7-8.1,8.3v5.1h12.6v5.6h-12.6v37.6h-6.6L254.1,895
	L254.1,895z M277.5,911c0-13,9.7-22.7,22.6-22.7s22.5,9.7,22.5,22.7s-9.6,22.7-22.6,22.7S277.5,924.2,277.5,911z M315.9,911
	c0-9.5-6.6-16.7-15.9-16.7s-15.8,7.2-15.8,16.7s6.6,16.7,15.8,16.7S315.9,920.7,315.9,911z M333.1,889.4h6.5v8.1h0.5
	c1.2-3.7,5.5-8.1,11.8-8.1h3.6v6.6h-3.6c-7.9,0-12.3,6.2-12.3,14.4v22.3H333v-43.3H333.1z M403.7,874.5h7.9l22.3,58.1h-7.1
	l-5.2-13.8h-28.1l-5.2,13.8h-7.1L403.7,874.5L403.7,874.5z M419.3,912.7l-11.5-30.4h-0.5l-11.5,30.4H419.3L419.3,912.7z
	 M441.9,923.4v-53.1h6.6v53.1c0,2.2,1.1,3.4,3.2,3.4h2v5.8h-3.2C445,932.6,441.9,929.3,441.9,923.4z M462.4,927.1l24.5-31.6V895
	h-23.8v-5.6h31.7v5.6l-24.5,31.6v0.5h24.9v5.6h-32.9L462.4,927.1L462.4,927.1z M506.6,870.3h6.6v25.4h0.5c1.8-3.9,6.7-7.4,13.4-7.4
	c10,0,16.3,7.6,16.3,17.1v27.2h-6.6v-26.7c0-6.9-5.2-11.4-11.3-11.4c-6.7,0-12.3,4.9-12.3,11.9v26.2h-6.6L506.6,870.3L506.6,870.3z
	 M552.8,911c0-13.8,9.4-22.7,21.2-22.7c13.1,0,20.9,9.6,20.9,22.1v2.9h-35.2c0.3,8.6,5.9,14.4,14.8,14.4c5.7,0,11.2-2.7,13.2-7.8
	h6.8c-2.4,8.1-10,13.8-20.1,13.8C561.2,933.7,552.8,924,552.8,911L552.8,911z M588,907.5c-0.6-8.6-6.6-13.2-14-13.2
	s-13.5,5.2-14.1,13.2H588z M604.1,876.8c0-2.7,2-4.7,4.7-4.7s4.8,2.1,4.8,4.7s-2,4.8-4.8,4.8S604.1,879.6,604.1,876.8z M605.4,889.4
	h6.6v43.2h-6.6V889.4z M624.9,889.4h6.6v6.2h0.5c2.1-4,6.2-7.3,12.6-7.3s11.2,3.2,13.6,7.9h0.6c2.9-5.6,7.6-7.9,13.7-7.9
	c9.6,0,15.9,6.8,15.9,16.3v28h-6.6v-25.8c0-8.1-4.1-12.3-10.5-12.3c-6.1,0-11.4,4.3-11.4,12.4v25.8h-6.6v-27.1c0-6.9-4.7-11-10.7-11
	s-11.2,4.8-11.2,12.1v26h-6.6L624.9,889.4L624.9,889.4z M698,911c0-13.8,9.4-22.7,21.2-22.7c13.1,0,20.9,9.6,20.9,22.1v2.9h-35.2
	c0.3,8.6,5.9,14.4,14.8,14.4c5.7,0,11.2-2.7,13.2-7.8h6.8c-2.4,8.1-10,13.8-20.1,13.8C706.4,933.7,698,924,698,911L698,911z
	 M733.1,907.6c-0.6-8.6-6.6-13.2-14-13.2s-13.5,5.2-14.1,13.2H733.1z M750.6,889.4h6.5v8.1h0.5c1.2-3.7,5.5-8.1,11.8-8.1h3.7v6.6
	h-3.6c-7.9,0-12.3,6.2-12.3,14.4v22.3h-6.6L750.6,889.4L750.6,889.4z M782.4,874.5h7.2l-3.8,18.6H781L782.4,874.5L782.4,874.5z
	 M791.9,920.1h6.4c0.8,5.2,4.4,7.9,10.7,7.9s10-3.2,10-7.6c0-12.1-25.8-2.9-25.8-20c0-7.3,6.6-12,15.6-12c8,0,14.6,4.7,15.3,12.5
	h-6.3c-0.6-4.1-3.7-6.8-9.4-6.8c-5.4,0-8.9,2.7-8.9,6.4c0,11,25.9,1.8,25.9,19.7c0,8.1-6.7,13.6-16.8,13.6S792.7,928.1,791.9,920.1
	L791.9,920.1z M855.9,911.1c0-13.3,8.8-22.8,21-22.8c9,0,13.9,5.8,15.2,8.1h0.5v-7h6.6v43.2h-6.3v-6.8h-0.5c-1.1,1.6-5.6,7.9-15,7.9
	C864.7,933.7,855.9,924.3,855.9,911.1z M892.8,911.1c0-10.6-6.7-16.8-15.2-16.8s-15,7-15,16.8s6.2,16.7,15.2,16.7
	S892.8,920.2,892.8,911.1z M912.1,889.4h6.6v6.3h0.5c1.8-3.9,6.5-7.4,13.2-7.4c10,0,16.1,7.6,16.1,17.1v27.2h-6.6v-26.7
	c0-6.9-5.1-11.4-11.1-11.4c-6.8,0-12.1,5.2-12.1,12.4v25.8h-6.6L912.1,889.4L912.1,889.4z M958.1,911.1c0-13.3,8.8-22.8,21-22.8
	c9,0,13.9,5.8,15.2,8.1h0.5v-26.1h6.6v62.3h-6.3v-6.8h-0.5c-1.1,1.6-5.6,7.9-15,7.9C966.9,933.7,958.1,924.3,958.1,911.1
	L958.1,911.1z M995.1,911.1c0-10.6-6.7-16.8-15.2-16.8s-15,7-15,16.8s6.2,16.7,15.2,16.7S995.1,920.2,995.1,911.1z M1037.2,874.5
	h20.8c10.6,0,17.8,6.9,17.8,17.4s-7.6,17.7-17.8,17.7h-14.1v23h-6.7L1037.2,874.5L1037.2,874.5z M1057.4,903.6c7,0,11.5-5,11.5-11.7
	s-4.5-11.5-11.5-11.5h-13.5v23.2H1057.4L1057.4,903.6z M1080.4,911.1c0-13.3,8.8-22.8,21-22.8c9.1,0,13.9,5.8,15.2,8.1h0.5v-7h6.6
	v43.2h-6.3v-6.8h-0.5c-1.1,1.6-5.6,7.9-14.9,7.9C1089.2,933.7,1080.4,924.3,1080.4,911.1z M1117.3,911.1c0-10.6-6.7-16.8-15.2-16.8
	s-15,7-15,16.8s6.2,16.7,15.2,16.7S1117.3,920.2,1117.3,911.1z M1136.6,889.4h6.5v8.1h0.5c1.2-3.7,5.5-8.1,11.8-8.1h3.7v6.6h-3.6
	c-7.9,0-12.3,6.2-12.3,14.4v22.3h-6.6V889.4z M1196.1,932.6l-13.7-21.6l-7.2,7.7v13.9h-6.6v-62.3h6.6v39.5h0.5l18.5-20.3h8.3
	l-15.7,16.8l16.8,26.4L1196.1,932.6L1196.1,932.6z M1210.2,876.8c0-2.7,2-4.7,4.7-4.7s4.8,2.1,4.8,4.7s-2,4.8-4.8,4.8
	S1210.2,879.6,1210.2,876.8z M1211.5,889.4h6.6v43.2h-6.6V889.4z M1230.9,889.4h6.6v6.3h0.5c1.8-3.9,6.5-7.4,13.2-7.4
	c10.1,0,16.1,7.6,16.1,17.1v27.2h-6.6v-26.7c0-6.9-5.1-11.4-11.1-11.4c-6.8,0-12.1,5.2-12.1,12.4v25.8h-6.6V889.4L1230.9,889.4z
	 M1277.8,920.1h6.4c0.8,5.2,4.4,7.9,10.7,7.9s10.1-3.2,10.1-7.6c0-12.1-25.8-2.9-25.8-20c0-7.3,6.6-12,15.6-12
	c8,0,14.6,4.7,15.3,12.5h-6.3c-0.6-4.1-3.7-6.8-9.4-6.8c-5.4,0-8.9,2.7-8.9,6.4c0,11,25.9,1.8,25.9,19.7c0,8.1-6.7,13.6-16.8,13.6
	S1278.5,928.1,1277.8,920.1L1277.8,920.1z M1319.7,911c0-13,9.7-22.7,22.6-22.7s22.5,9.7,22.5,22.7s-9.6,22.7-22.6,22.7
	S1319.7,924.2,1319.7,911z M1358.1,911c0-9.5-6.6-16.7-15.9-16.7s-15.8,7.2-15.8,16.7s6.6,16.7,15.8,16.7S1358.1,920.7,1358.1,911z
	 M1375.3,889.4h6.6v6.3h0.5c1.8-3.9,6.5-7.4,13.2-7.4c10.1,0,16.1,7.6,16.1,17.1v27.2h-6.6v-26.7c0-6.9-5.1-11.4-11.1-11.4
	c-6.8,0-12.1,5.2-12.1,12.4v25.8h-6.6V889.4L1375.3,889.4z M1420.2,874.5h7.2l-3.8,18.6h-4.8L1420.2,874.5L1420.2,874.5z
	 M1429.7,920.1h6.4c0.8,5.2,4.4,7.9,10.7,7.9s10.1-3.2,10.1-7.6c0-12.1-25.8-2.9-25.8-20c0-7.3,6.6-12,15.6-12
	c8,0,14.6,4.7,15.3,12.5h-6.3c-0.6-4.1-3.7-6.8-9.4-6.8c-5.4,0-8.9,2.7-8.9,6.4c0,11,25.9,1.8,25.9,19.7c0,8.1-6.7,13.6-16.8,13.6
	S1430.5,928.1,1429.7,920.1L1429.7,920.1z"/>
<g>
	<path class="st0" d="M1144.9,720.2l-105.6-76.7l3.4-7.5h2.5c63.8,0,107.2,4.5,129.1,13.4l0.9,0.4L1144.9,720.2L1144.9,720.2z"/>
	<path class="st1" d="M1139.7,482.1c-111.9,0-207.4,74.8-207.4,85.7s95.5,85.7,207.4,85.7c85.9,0,129.2-57,129.2-85.7
		S1225.6,482.1,1139.7,482.1L1139.7,482.1z"/>
	<path class="st0" d="M1153.9,548.5c7,0,14,0.7,19.5,6.6c2.5,2.6,5.3,7.4,5.3,15c0,6.9-2.4,12.4-6.1,16.1c-3.2,3.1-7.6,5.2-11.7,5.9
		l18.9,29.8H1160l-17.7-28.9l-3.5,28.9h-16.9l9-73.4L1153.9,548.5L1153.9,548.5z M1143.7,581.8h4.2c2.8,0,6.9-0.3,9.9-2.6
		s3.7-5.5,3.7-8.6c0-2.3-0.6-5.3-3.5-7.2c-2.2-1.4-5.4-1.8-9.2-1.8h-2.5L1143.7,581.8L1143.7,581.8z M1202.6,562.8h-10.4l1.8-14.3
		h27.4l-9,73.4h-16.9L1202.6,562.8L1202.6,562.8z"/>
	<g>
		<path class="st2" d="M1058.9,517.2l20.4-28.2c-36.5,8.2-69.1,22.5-94.3,36.8l-9.9,11.5L1058.9,517.2L1058.9,517.2z"/>
		<path class="st3" d="M1060.3,517l117.9-5.2l-15.5-28.3c-7.3-0.9-14.9-1.4-22.9-1.4c-20.8,0-41,2.6-60.1,6.8
			c0.4-0.1,0.8-0.2,1.2-0.3L1060.3,517L1060.3,517z"/>
		<path class="st4" d="M959.9,594c6.5,4.6,14,9.4,22.5,14.3l-9-10.4L959.9,594L959.9,594z"/>
		<path class="st4" d="M982.4,527.3c-8.4,4.9-16,9.7-22.5,14.3l13.5-4L982.4,527.3L982.4,527.3z"/>
		<path class="st5" d="M932.4,568.3c0.8,3.7,9.8,12.9,25,23.9l15.6,4.6l-6.2-28.5H932.4L932.4,568.3z"/>
		<path class="st5" d="M975.1,598.3l9.9,11.5c25.2,14.3,57.8,28.6,94.3,36.8l-20.4-28.2L975.1,598.3L975.1,598.3z"/>
		<path class="st5" d="M1060.3,618.6l20.5,28.4c-0.4-0.1-0.8-0.2-1.2-0.3c19.1,4.3,39.3,6.8,60.1,6.8c8,0,15.6-0.5,22.9-1.4
			l15.5-28.3L1060.3,618.6L1060.3,618.6z"/>
		<path class="st6" d="M1247.2,567.3h21.7c-0.1-6.5-2.4-14.4-6.8-22.7l-21.6-12.5L1247.2,567.3L1247.2,567.3z"/>
		<polygon class="st7" points="1185.8,568.3 1179.5,622.6 1239.3,604.1 1246.2,568.3 		"/>
		<path class="st8" d="M1247.2,568.3l-6.7,35.2l21.6-12.5c4.5-8.3,6.7-16.2,6.8-22.7H1247.2L1247.2,568.3z"/>
		<polygon class="st9" points="1051.2,568.3 1059.7,617.6 1178.5,622.8 1184.8,568.3 		"/>
		<polygon class="st7" points="967.9,568.3 974.1,597.1 1058.6,617.4 1050.2,568.3 		"/>
		<path class="st2" d="M932.4,567.3c0.8-3.7,9.8-12.9,25-23.9l15.6-4.6l-6.2,28.5H932.4L932.4,567.3z"/>
		<polygon class="st10" points="967.9,567.3 974.1,538.5 1058.6,518.3 1050.2,567.3 		"/>
		<polygon class="st11" points="1184.8,567.3 1178.5,512.8 1059.7,518.1 1051.2,567.3 		"/>
		<polygon class="st12" points="1246.2,567.3 1239.3,531.5 1179.5,513 1185.8,567.3 		"/>
		<path class="st12" d="M1226.7,506.8l13.5,23.9l21,12.1C1254.2,530.7,1242.7,517.7,1226.7,506.8L1226.7,506.8z"/>
		<path class="st10" d="M1163.8,483.7l15.4,28.2l59.4,18.4l-13.9-24.6C1208.8,495.2,1188.5,487,1163.8,483.7L1163.8,483.7z"/>
		<path class="st12" d="M1224.8,630l13.9-24.6l-59.4,18.4l-15.4,28.2C1188.5,648.6,1208.8,640.4,1224.8,630L1224.8,630L1224.8,630z"
			/>
		<path class="st6" d="M1261.1,592.7l-21,12.1l-13.5,23.9C1242.7,617.9,1254.2,605,1261.1,592.7z"/>
	</g>
	<g>
		<path class="st13" d="M1268.9,568.3c0-0.2,0-0.3,0-0.5s0-0.3,0-0.5h-21.7l-6.7-35.2l21.6,12.5c-0.3-0.6-0.6-1.1-0.9-1.7l-21-12.1
			l-13.5-23.9c-0.6-0.4-1.2-0.8-1.8-1.2l13.9,24.7l-59.4-18.4l-15.4-28.2c-0.4-0.1-0.8-0.1-1.2-0.2l15.5,28.3l-117.9,5.2l20.5-28.4
			c-0.5,0.1-1,0.2-1.5,0.3l-20.4,28.2l-83.8,20.1l9.9-11.5c-0.9,0.5-1.8,1-2.6,1.5l-9,10.4l-13.5,4c-0.8,0.6-1.7,1.2-2.5,1.8
			l15.6-4.6l-6.2,28.5h-34.5c0,0.2-0.1,0.3-0.1,0.5l0,0c0,0.2,0,0.3,0.1,0.5h34.5l6.2,28.5l-15.6-4.6c0.8,0.6,1.6,1.2,2.5,1.8
			l13.5,4l9,10.4c0.9,0.5,1.7,1,2.6,1.5l-9.9-11.5l83.8,20.1l20.4,28.2c0.5,0.1,1,0.2,1.5,0.3l-20.5-28.4l117.9,5.2l-15.5,28.3
			c0.4,0,0.8-0.1,1.2-0.2l15.4-28.2l59.4-18.4l-13.9,24.7c0.6-0.4,1.2-0.8,1.8-1.2l13.5-23.9l21-12.1c0.3-0.6,0.6-1.1,0.9-1.7
			l-21.6,12.5l6.7-35.2L1268.9,568.3L1268.9,568.3z M1239.3,531.5l6.8,35.8h-60.4l-6.2-54.3L1239.3,531.5L1239.3,531.5z
			 M1059.7,518.1l118.8-5.2l6.2,54.5h-133.6L1059.7,518.1z M974.1,538.5l84.5-20.3l-8.5,49.1h-82.3L974.1,538.5L974.1,538.5z
			 M974.1,597.1l-6.3-28.8h82.3l8.5,49.1L974.1,597.1z M1178.5,622.8l-118.8-5.2l-8.5-49.2h133.6L1178.5,622.8z M1239.3,604.1
			l-59.8,18.5l6.2-54.3h60.4L1239.3,604.1L1239.3,604.1z"/>
		<path class="st13" d="M1179.2,623.3l-2.2,3.9l-3.1-4.2l5.4-4.5L1179.2,623.3L1179.2,623.3z M1246.2,565.6l-4.1,2.2l3.9,4l1.2-3.9
			L1246.2,565.6L1246.2,565.6z M1184.9,564.7l-5.9,2.8l5.6,5.9l0.8-5.8L1184.9,564.7z M1051.2,564.7l-0.6,2.8l1.1,5.9l5.3-5.8
			L1051.2,564.7z M967.8,564.7l-0.4,2.8l0.8,5.9l3.9-5.8L967.8,564.7z M1179.2,512.3l-2.2-3.9l-3.1,4.2l5.4,4.5L1179.2,512.3
			L1179.2,512.3z M1239.4,531.2l1.6,6l3.1-3.4l-3.6-2.3L1239.4,531.2L1239.4,531.2z M1240.6,604.1l3.6-2.3l-3.1-3.4l-1.6,6
			L1240.6,604.1L1240.6,604.1z"/>
	</g>
	<path class="st14" d="M1144.9,720.2l-105.6-76.7l3.4-7.5h2.5c63.8,0,107.2,4.5,129.1,13.4l0.9,0.4L1144.9,720.2L1144.9,720.2z"/>
	<g id="glass">
		<path class="st15" d="M1103.8,639.5l-8.9,41.9l15.1,11l12.4-51.3C1116.6,640.5,1110.4,640,1103.8,639.5L1103.8,639.5z"/>
		<path class="st16" d="M1061.8,638.1l-2.5,17.4l16,11.6l5-28.7C1074.3,638.3,1068.2,638.1,1061.8,638.1L1061.8,638.1z"/>
		<path class="st0" d="M1045.2,637.9h-1.2l-2.2,4.9l15.3,11.1l2.2-15.9C1054.7,638,1050,637.9,1045.2,637.9L1045.2,637.9z"/>
		<path class="st17" d="M1082.7,638.5l-5.4,30.1l15.5,11.3l8.4-40.5C1095.4,639.1,1089.2,638.8,1082.7,638.5L1082.7,638.5z"/>
		<path class="st18" d="M1124.9,641.3l-13,52.5l14.7,10.7l16.9-60.8C1137.8,642.8,1131.7,642,1124.9,641.3L1124.9,641.3z"/>
		<path class="st17" d="M1128.6,705.9l15.4,11.2l28.5-66.3c-6.8-2.7-15.7-4.9-26.6-6.8L1128.6,705.9L1128.6,705.9z"/>
	</g>
	<path id="windframe" class="st13" d="M1175.2,649.7l-0.9-0.4c-7-2.9-16.3-5.3-27.8-7.2l0,0c0,0,0,0-0.1,0c-0.8-0.1-1.6-0.3-2.4-0.4
		l0,0l0,0c-5.7-0.9-11.9-1.7-18.7-2.4l0,0c-0.8-0.1-1.7-0.2-2.5-0.2l0,0c-6.6-0.7-13.7-1.2-21.2-1.6l0,0l0,0c-6-0.4-12.4-0.7-19-0.9
		c-0.7,0-1.4,0-2.1-0.1l0,0c-6.7-0.2-13.7-0.4-21-0.5l0,0l0,0c-4.7,0-9.5-0.1-14.4-0.1h-2.5l-3.4,7.5l17.4,12.7l0,0l2.2,1.6l0,0
		l16,11.6l0,0l2.1,1.5l0,0l15.5,11.2l0,0l1.5,1.1l50.9,37L1175.2,649.7L1175.2,649.7z M1143.5,643.7l-16.9,60.8l-14.7-10.7l13-52.5
		C1131.7,642,1137.9,642.8,1143.5,643.7L1143.5,643.7z M1110,692.4l-15.1-11l8.9-41.9c6.6,0.4,12.8,0.9,18.6,1.5L1110,692.4
		L1110,692.4z M1041.8,642.8l2.2-4.9h1.2c4.8,0,9.5,0,14.1,0.1l-2.2,15.9L1041.8,642.8L1041.8,642.8z M1059.2,655.5l2.5-17.4
		c6.4,0.1,12.6,0.2,18.5,0.4l-5,28.7L1059.2,655.5L1059.2,655.5z M1077.4,668.6l5.4-30.1c6.5,0.2,12.7,0.5,18.6,0.8l-8.4,40.5
		L1077.4,668.6L1077.4,668.6z M1128.6,705.9l17.4-61.8c10.9,1.8,19.8,4.1,26.6,6.8l-28.5,66.3L1128.6,705.9L1128.6,705.9z"/>
	<path class="st19" d="M1046.2,694.1c-5.2-14.6-37.9-21.7-53.3-24.7l-8.1-34.9c48,3.2,107.2,19.9,134.6,29.8
		c15.4,5.6,22.6,20.3,28.5,29.8L1046.2,694.1L1046.2,694.1z"/>
	<path class="st20" d="M1078.1,694.1h69.8c-5.9-9.5-13.1-24.2-28.5-29.8c-27.4-9.9-86.6-26.6-134.6-29.8l5.1,22.1
		C1040.7,662.4,1067.7,673.9,1078.1,694.1L1078.1,694.1z"/>
	<path class="st7" d="M1111.2,694.1h36.7c-5.9-9.5-13.1-24.2-28.5-29.8c-27.4-9.9-86.6-26.6-134.6-29.8l2.5,10.5
		C1037.9,649.9,1099.6,663.7,1111.2,694.1L1111.2,694.1z"/>
	<path class="st13" d="M1086,676.8c0,2.8-2.3,5.1-5.1,5.1s-5.1-2.3-5.1-5.1s2.3-5.1,5.1-5.1S1086,674,1086,676.8z M1113,674.3
		c-2.8,0-5.1,2.3-5.1,5.1s2.3,5.1,5.1,5.1s5.1-2.3,5.1-5.1S1115.8,674.3,1113,674.3z"/>
	<path class="st1" d="M1069,728.2c-4.6,0-14.6-4.3-14.6-7.8c0-4.6,57.8-43.5,57.8-43.5c1.6-1,2.6,0.7,1.5,1.6l-14.8,13.6
		C1098.9,692.2,1073.7,728.2,1069,728.2L1069,728.2z"/>
	<path class="st1" d="M1046.6,694.5c17.3-9.3,33.9-16.9,33.9-16.9c1.2-0.5,0.7-3.5-2-2.1c0,0-23.2,11.7-47,19.1
		c-29.7,9.3-56.1,18.2-56.1,20.7c0,1.7,5.8,3.5,17.7,3.5C1000.8,718.7,1006.1,716.2,1046.6,694.5L1046.6,694.5z"/>
	<path class="st1" d="M880,616.2c-29.3-15.1,83.5-38.3,83.5-38.3c44.4,19.1,60.9,24.8,115.1,38.3
		C1132.8,629.6,909.4,631.3,880,616.2L880,616.2z"/>
	<path class="st21" d="M880,519.4c-29.3,15.1,83.5,38.3,83.5,38.3c44.4-19.1,60.9-24.8,115.1-38.3C1132.8,506,909.4,504.3,880,519.4
		L880,519.4z"/>
</g>
<path class="st1" d="M0,593.8c80.4-29,168.4-29.2,251.4-11.8c41.6,8.1,82.3,19.9,123.5,29.1c39.7,8.8,82.7,14.6,121-1.8
	c8.4-3.7,17.5-8.3,22.9-15.4c0.7-0.9,1-1.8,1-2.1c0-0.1,0-0.1,0,0.1c0.2,0.5,0.2,0.2-0.3,0c-4.1-2.2-9.2-2.2-14.1-2.3
	c-10.2,0.1-19.8,5-13.6,16.2c11.7,19.3,42.2,24.1,63.2,23.8c48.2-0.6,100.2-8.6,138.5-39.7c9.6-8,18.3-18,23.1-29.3
	c2.1-4.9,4-12.1,2-16.2c-0.8-0.1-1.3,0-2.7,0.5c-1.9,0.8-4.3,2.3-6.6,4.1c-12.3,10.3-21.6,24.4-29,38.7c-7.2,14.4-16,37.1-9.1,52.2
	c3.4,7,11.1,9.7,18.7,10.5c16.2,1.3,32.5-1.6,47.9-7c18.7-6.7,36.4-17.4,51.2-30.8c7-6.6,13.9-13.9,18-22.3c0.8-1.7,1.3-3.1,1.4-4.6
	c0-0.2,0-0.2,0.1-0.1c0.1,0.2,0.4,0.4,0.5,0.5c0.2,0.1,0.1,0-0.2-0.1c-2.6-0.4-6.1-0.2-7.7,2c-1,1.2-1.4,3.5-0.9,6
	c1.8,8.8,9.8,14.9,18.5,17.5c12.8,3.9,27.3,1,39.9-3.5l0.7,1.4c-6.3,3.5-12.9,6.3-20,8.1c-7.2,1.8-14.8,2.4-22.3,1.1
	c-13.6-2.2-28.5-13.6-28-29c0.1-5.2,3.2-10.7,7.8-13.4c11.1-6.5,26.8-2.5,24.5,12.7c-3.4,18.5-24.3,38.1-38.8,49
	c-24.6,18.4-54.5,30.5-85.6,31.1c-22.9,0.8-43-9.1-46.5-33.5c-3.3-26.5,9.9-54.3,24-75.8c8.8-12.5,19.6-26.3,34.2-32.8
	c12.8-5.5,26.5,0.7,29.4,14.7c3.3,17.2-6,34-16.1,46.7c-38.8,46.1-104.2,58.4-161.6,59c-26.3,0.2-55.4-4.5-74.8-24
	c-9.9-9.9-15.7-26.9-5-38.7c9.7-10.1,24-9.9,36.7-7.9c8.5,1.4,17.7,7.2,15.9,17.4c-2.9,13.6-21,22.5-32.3,27.3
	c-55.1,22.5-114.9,4.2-169.5-10.3C214.9,577.3,118.5,559.4,0,593.8L0,593.8L0,593.8z"/>
</svg>
