<?xml version="1.0" encoding="UTF-8"?> <svg xmlns="http://www.w3.org/2000/svg" id="Layer_1" data-name="Layer 1" viewBox="0 0 1600 3200"><defs><style> .cls-1 { fill: #fff; } .cls-2 { fill: #6096ef; } </style></defs><path class="cls-1" d="m206.21,2829.61h-15.73l-2.99,8.09h-2.99l12.14-32.19h3.45l12.1,32.19h-2.99l-2.99-8.09Zm-.97-2.62l-6.76-18.4h-.28l-6.76,18.4h13.8Zm12.6-1.2c0-7.4,4.74-12.6,11.54-12.6,5.24,0,8.14,3.31,9.01,5.43h.28v-15.41h2.76v34.49h-2.67v-4.74h-.28c-.78,1.79-3.54,5.33-8.88,5.33-7.04,0-11.77-5.2-11.77-12.51Zm20.93,0c0-6.12-3.77-10.07-9.06-10.07s-9.06,4.14-9.06,10.07,3.63,10.03,9.11,10.03,9.01-4.55,9.01-10.03Zm11.08-12h2.99l7.86,20.56h.28l7.86-20.56h3.04l-9.52,23.92h-2.99l-9.52-23.92Zm30.49,12c0-7.4,4.74-12.6,11.54-12.6,5.24,0,8.14,3.31,9.01,5.43h.28v-4.83h2.76v23.92h-2.67v-4.74h-.28c-.78,1.79-3.54,5.33-8.88,5.33-7.04,0-11.77-5.2-11.77-12.51Zm20.93,0c0-6.12-3.73-10.07-9.06-10.07s-9.01,4.14-9.01,10.07,3.63,10.03,9.06,10.03,9.01-4.55,9.01-10.03Zm12.32-12h2.76v3.91h.28c1.06-2.39,3.82-4.51,7.63-4.51,5.61,0,9.01,4.09,9.01,9.2v15.31h-2.76v-15.13c0-3.96-2.99-6.81-6.85-6.81-4.23,0-7.31,3.31-7.31,7.4v14.53h-2.76v-23.92Zm29.34,11.96c0-7.08,5.2-12.56,12.23-12.56,5.2,0,10.07,3.17,11.31,8.46h-2.85c-.97-3.59-4.51-5.93-8.37-5.93-5.66,0-9.47,4.46-9.47,10.03s3.96,10.03,9.52,10.03c3.86,0,7.45-2.35,8.37-5.93h2.85c-1.2,5.29-6.12,8.46-11.31,8.46-7.17,0-12.28-5.47-12.28-12.55Zm53.16,9.61v2.35h-20.24v-2.35h8.97v-19.22h-8.09v-2.35h10.85v21.57h8.51Zm-12.05-28.74c0-1.24.97-2.16,2.21-2.16s2.25.92,2.25,2.16-.97,2.25-2.25,2.25-2.21-.97-2.21-2.25Zm23.36,7.17h2.76v3.91h.28c1.06-2.39,3.82-4.51,7.63-4.51,5.61,0,9.01,4.09,9.01,9.2v15.31h-2.76v-15.13c0-3.96-2.99-6.81-6.85-6.81-4.23,0-7.31,3.31-7.31,7.4v14.53h-2.76v-23.92Zm31.41,27.78h2.62c.69,3.22,3.63,4.88,7.54,4.88,5.7,0,8.69-3.17,8.69-8.28v-5.2h-.28c-.78,1.79-3.54,5.33-8.88,5.33-7.04,0-11.77-5.2-11.77-12.51s4.74-12.6,11.54-12.6c5.24,0,8.14,3.31,9.01,5.43h.28v-4.83h2.76v24.38c0,6.76-4.42,10.72-11.36,10.72-5.84,0-9.43-3.04-10.16-7.31Zm18.86-15.77c0-6.12-3.77-10.07-9.06-10.07s-9.06,4.14-9.06,10.07,3.63,10.03,9.11,10.03,9.01-4.55,9.01-10.03Zm42.49-20.28h10.72c6.35,0,10.26,3.68,10.26,9.34,0,4.83-3.13,8.28-7.04,9.24l7.86,13.61h-3.31l-7.54-13.34h-8.09v13.34h-2.85v-32.19Zm10.72,16.33c4.23,0,7.31-2.48,7.31-6.99,0-3.96-2.67-6.81-7.45-6.81h-7.73v13.8h7.86Zm19.87,3.91c0-7.63,5.2-12.56,11.64-12.56,7.27,0,11.59,5.24,11.59,12.14v1.43h-20.33c.14,5.2,3.59,9.01,9.01,9.01,3.82,0,7.13-2.02,8.19-5.1h2.9c-1.33,4.46-5.52,7.63-11.13,7.63-7.17,0-11.87-5.38-11.87-12.55Zm20.28-1.47c-.23-5.47-3.77-8.55-8.65-8.55-4.51,0-8.37,3.4-8.69,8.55h17.34Zm13.29,6.71h2.71c.32,3.22,2.94,4.88,6.67,4.88,4.05,0,6.48-1.89,6.48-4.74,0-7.41-15.13-2.02-15.13-11.41,0-3.91,3.59-6.53,8.6-6.53,4.42,0,8.14,2.48,8.51,6.76h-2.67c-.32-2.71-2.58-4.37-6.07-4.37s-5.7,1.75-5.7,4.14c0,6.81,15.18,1.43,15.18,11.27,0,4.42-3.73,7.31-9.34,7.31s-8.88-2.99-9.24-7.31Zm28.97-5.24c0-7.63,5.2-12.56,11.64-12.56,7.27,0,11.59,5.24,11.59,12.14v1.43h-20.33c.14,5.2,3.59,9.01,9.01,9.01,3.82,0,7.13-2.02,8.19-5.1h2.9c-1.33,4.46-5.52,7.63-11.13,7.63-7.17,0-11.87-5.38-11.87-12.55Zm20.28-1.47c-.23-5.47-3.77-8.55-8.65-8.55-4.51,0-8.37,3.4-8.69,8.55h17.34Zm10.76,1.52c0-7.4,4.74-12.6,11.54-12.6,5.24,0,8.14,3.31,9.01,5.43h.28v-4.83h2.76v23.92h-2.67v-4.74h-.28c-.78,1.79-3.54,5.33-8.88,5.33-7.04,0-11.77-5.2-11.77-12.51Zm20.93,0c0-6.12-3.73-10.07-9.06-10.07s-9.01,4.14-9.01,10.07,3.63,10.03,9.06,10.03,9.01-4.55,9.01-10.03Zm21.66-.97v10.53h10.99v2.35h-21.29v-2.35h7.54v-19.22h-7.04v-2.35h9.75v4.78h.28c.78-2.3,3.17-4.78,6.85-4.78h3.91v2.76h-3.86c-4.65,0-7.13,3.72-7.13,8.28Zm20,.92c0-7.08,5.2-12.56,12.23-12.56,5.2,0,10.07,3.17,11.31,8.46h-2.85c-.97-3.59-4.51-5.93-8.37-5.93-5.66,0-9.47,4.46-9.47,10.03s3.96,10.03,9.52,10.03c3.86,0,7.45-2.35,8.37-5.93h2.85c-1.2,5.29-6.12,8.46-11.31,8.46-7.17,0-12.28-5.47-12.28-12.55Zm33.11-22.54h2.76v14.53h.28c1.06-2.44,3.86-4.55,7.73-4.55,5.61,0,9.11,4.09,9.11,9.2v15.31h-2.76v-15.13c0-3.96-3.08-6.81-6.94-6.81-4.19,0-7.4,3.17-7.4,7.22v14.72h-2.76v-34.49Zm60.7,22.58c0-7.4,4.74-12.6,11.54-12.6,5.24,0,8.14,3.31,9.01,5.43h.28v-15.41h2.76v34.49h-2.67v-4.74h-.28c-.78,1.79-3.54,5.33-8.88,5.33-7.04,0-11.77-5.2-11.77-12.51Zm20.93,0c0-6.12-3.77-10.07-9.06-10.07s-9.06,4.14-9.06,10.07,3.63,10.03,9.11,10.03,9.01-4.55,9.01-10.03Zm32.24,9.57v2.35h-20.24v-2.35h8.97v-19.22h-8.09v-2.35h10.85v21.57h8.51Zm-12.05-28.74c0-1.24.97-2.16,2.21-2.16s2.25.92,2.25,2.16-.97,2.25-2.25,2.25-2.21-.97-2.21-2.25Zm23.91,24.37h2.71c.32,3.22,2.94,4.88,6.67,4.88,4.05,0,6.48-1.89,6.48-4.74,0-7.41-15.13-2.02-15.13-11.41,0-3.91,3.59-6.53,8.6-6.53,4.42,0,8.14,2.48,8.51,6.76h-2.67c-.32-2.71-2.58-4.37-6.07-4.37s-5.7,1.75-5.7,4.14c0,6.81,15.18,1.43,15.18,11.27,0,4.42-3.73,7.31-9.34,7.31s-8.88-2.99-9.24-7.31Zm28.79-5.24c0-7.08,5.2-12.56,12.23-12.56,5.2,0,10.07,3.17,11.31,8.46h-2.85c-.97-3.59-4.51-5.93-8.37-5.93-5.66,0-9.47,4.46-9.47,10.03s3.96,10.03,9.52,10.03c3.86,0,7.45-2.35,8.37-5.93h2.85c-1.2,5.29-6.12,8.46-11.31,8.46-7.17,0-12.28-5.47-12.28-12.55Zm30.63,0c0-7.22,5.33-12.56,12.42-12.56s12.42,5.38,12.42,12.56-5.33,12.55-12.46,12.55-12.37-5.33-12.37-12.55Zm21.98,0c0-5.75-4.05-10.03-9.61-10.03s-9.57,4.32-9.57,10.03,4.05,10.03,9.57,10.03,9.61-4.23,9.61-10.03Zm10.67-11.96h2.99l7.86,20.56h.28l7.86-20.56h3.04l-9.52,23.92h-2.99l-9.52-23.92Zm30.72,11.96c0-7.63,5.2-12.56,11.64-12.56,7.27,0,11.59,5.24,11.59,12.14v1.43h-20.33c.14,5.2,3.59,9.01,9.01,9.01,3.82,0,7.13-2.02,8.19-5.1h2.9c-1.33,4.46-5.52,7.63-11.13,7.63-7.17,0-11.87-5.38-11.87-12.55Zm20.28-1.47c-.23-5.47-3.77-8.55-8.65-8.55-4.51,0-8.37,3.4-8.69,8.55h17.34Zm22.07.55v10.53h10.99v2.35h-21.29v-2.35h7.54v-19.22h-7.04v-2.35h9.75v4.78h.28c.78-2.3,3.17-4.78,6.85-4.78h3.91v2.76h-3.86c-4.64,0-7.13,3.72-7.13,8.28Zm41.89,10.53v2.35h-20.24v-2.35h8.97v-19.22h-8.09v-2.35h10.85v21.57h8.51Zm-12.05-28.74c0-1.24.97-2.16,2.21-2.16s2.25.92,2.25,2.16-.97,2.25-2.25,2.25-2.21-.97-2.21-2.25Zm21.61,19.13c0-7.63,5.2-12.56,11.64-12.56,7.27,0,11.59,5.24,11.59,12.14v1.43h-20.33c.14,5.2,3.59,9.01,9.01,9.01,3.82,0,7.13-2.02,8.19-5.1h2.9c-1.33,4.46-5.52,7.63-11.13,7.63-7.17,0-11.87-5.38-11.87-12.55Zm20.28-1.47c-.23-5.47-3.77-8.55-8.65-8.55-4.51,0-8.37,3.4-8.69,8.55h17.34Zm13.29,6.71h2.71c.32,3.22,2.94,4.88,6.67,4.88,4.05,0,6.48-1.89,6.48-4.74,0-7.41-15.13-2.02-15.13-11.41,0-3.91,3.59-6.53,8.6-6.53,4.42,0,8.14,2.48,8.51,6.76h-2.67c-.32-2.71-2.58-4.37-6.07-4.37s-5.7,1.75-5.7,4.14c0,6.81,15.18,1.43,15.18,11.27,0,4.42-3.73,7.31-9.34,7.31s-8.88-2.99-9.24-7.31Zm59.42-5.24c0-7.22,5.33-12.56,12.42-12.56s12.42,5.38,12.42,12.56-5.33,12.55-12.46,12.55-12.37-5.33-12.37-12.55Zm21.98,0c0-5.75-4.05-10.03-9.61-10.03s-9.57,4.32-9.57,10.03,4.05,10.03,9.57,10.03,9.61-4.23,9.61-10.03Zm11.86-11.96h2.76v3.91h.28c1.06-2.39,3.82-4.51,7.63-4.51,5.61,0,9.01,4.09,9.01,9.2v15.31h-2.76v-15.13c0-3.96-2.99-6.81-6.85-6.81-4.23,0-7.31,3.31-7.31,7.4v14.53h-2.76v-23.92Zm60.79,12.88v-21.16h2.81v21.11c0,5.61,3.27,9.06,8.74,9.06s8.88-3.45,8.88-9.11v-21.06h2.76v21.11c0,7.13-4.51,11.68-11.64,11.68s-11.54-4.46-11.54-11.64Zm53.44,8.6v2.44h-8.09c-2.53,0-4.05-1.61-4.05-4.46v-27.69h-9.01v-2.34h11.77v30.03c0,1.24.6,2.02,1.79,2.02h7.59Zm18.07-4.74v-14.39h-7.73v-2.35h6.9c.55,0,1.01-.37,1.01-1.01v-5.93h2.58v6.94h10.16v2.35h-10.16v14.35c0,3.04,1.38,4.78,4.46,4.78h4.88v2.44h-5.06c-4.32,0-7.04-2.44-7.04-7.17Zm33.39-5.7v10.53h10.99v2.35h-21.29v-2.35h7.54v-19.22h-7.04v-2.35h9.75v4.78h.28c.78-2.3,3.17-4.78,6.85-4.78h3.91v2.76h-3.86c-4.64,0-7.13,3.72-7.13,8.28Zm19.96.97c0-7.4,4.74-12.6,11.54-12.6,5.24,0,8.14,3.31,9.01,5.43h.28v-4.83h2.76v23.92h-2.67v-4.74h-.28c-.78,1.79-3.54,5.33-8.88,5.33-7.04,0-11.77-5.2-11.77-12.51Zm20.92,0c0-6.12-3.72-10.07-9.06-10.07s-9.01,4.14-9.01,10.07,3.63,10.03,9.06,10.03,9.01-4.55,9.01-10.03Zm16.28-3.13h11.73v2.58h-11.73v-2.58Zm-1146.4,55.11h10.72c6.35,0,10.26,3.68,10.26,9.34,0,4.83-3.13,8.28-7.04,9.24l7.86,13.61h-3.31l-7.54-13.34h-8.09v13.34h-2.85v-32.19Zm10.72,16.33c4.23,0,7.31-2.48,7.31-6.99,0-3.96-2.67-6.81-7.45-6.81h-7.73v13.8h7.86Zm19.64,3.96c0-7.4,4.74-12.6,11.54-12.6,5.24,0,8.14,3.31,9.01,5.43h.28v-4.83h2.76v23.92h-2.67v-4.74h-.28c-.78,1.79-3.54,5.33-8.88,5.33-7.04,0-11.77-5.2-11.77-12.51Zm20.93,0c0-6.12-3.73-10.07-9.06-10.07s-9.01,4.14-9.01,10.07,3.63,10.03,9.06,10.03,9.01-4.55,9.01-10.03Zm21.66-.97v10.53h10.99v2.35h-21.29v-2.35h7.54v-19.22h-7.04v-2.35h9.75v4.78h.28c.78-2.3,3.17-4.78,6.85-4.78h3.91v2.76h-3.86c-4.65,0-7.13,3.72-7.13,8.28Zm20.19.92c0-7.63,5.2-12.56,11.64-12.56,7.27,0,11.59,5.24,11.59,12.14v1.43h-20.33c.14,5.2,3.59,9.01,9.01,9.01,3.82,0,7.13-2.02,8.19-5.1h2.9c-1.33,4.46-5.52,7.63-11.13,7.63-7.17,0-11.87-5.38-11.87-12.55Zm20.28-1.47c-.23-5.47-3.77-8.55-8.65-8.55-4.51,0-8.37,3.4-8.69,8.55h17.34Zm43.41-18.76h11.13c5.75,0,9.75,3.73,9.75,9.57s-4.09,9.61-9.75,9.61h-8.32v13.02h-2.81v-32.19Zm10.9,16.65c4.28,0,7.08-2.99,7.08-7.08s-2.81-7.04-7.08-7.04h-8.09v14.12h8.09Zm19.22,3.59c0-7.63,5.2-12.56,11.64-12.56,7.27,0,11.59,5.24,11.59,12.14v1.43h-20.33c.14,5.2,3.59,9.01,9.01,9.01,3.82,0,7.13-2.02,8.19-5.1h2.9c-1.33,4.46-5.52,7.63-11.13,7.63-7.17,0-11.87-5.38-11.87-12.55Zm20.28-1.47c-.23-5.47-3.77-8.55-8.65-8.55-4.51,0-8.37,3.4-8.69,8.55h17.34Zm10.81,1.52c0-7.4,4.74-12.6,11.54-12.6,5.24,0,8.14,3.31,9.01,5.43h.28v-15.41h2.76v34.49h-2.67v-4.74h-.28c-.78,1.79-3.54,5.33-8.88,5.33-7.04,0-11.77-5.2-11.77-12.51Zm20.93,0c0-6.12-3.77-10.07-9.06-10.07s-9.06,4.14-9.06,10.07,3.63,10.03,9.11,10.03,9.01-4.55,9.01-10.03Zm32.24,9.57v2.35h-20.24v-2.35h8.97v-19.22h-8.09v-2.35h10.85v21.57h8.51Zm-12.05-28.74c0-1.24.97-2.16,2.21-2.16s2.25.92,2.25,2.16-.97,2.25-2.25,2.25-2.21-.97-2.21-2.25Zm21.38,19.18c0-7.4,4.74-12.6,11.54-12.6,5.24,0,8.14,3.31,9.01,5.43h.28v-4.83h2.76v23.92h-2.67v-4.74h-.28c-.78,1.79-3.54,5.33-8.88,5.33-7.04,0-11.77-5.2-11.77-12.51Zm20.93,0c0-6.12-3.73-10.07-9.06-10.07s-9.01,4.14-9.01,10.07,3.63,10.03,9.06,10.03,9.01-4.55,9.01-10.03Zm19.54,4.74v-14.39h-7.73v-2.35h6.9c.55,0,1.01-.37,1.01-1.01v-5.93h2.58v6.94h10.16v2.35h-10.16v14.35c0,3.04,1.38,4.78,4.46,4.78h4.87v2.44h-5.06c-4.32,0-7.04-2.44-7.04-7.17Zm33.39-5.7v10.53h10.99v2.35h-21.29v-2.35h7.54v-19.22h-7.04v-2.35h9.75v4.78h.28c.78-2.3,3.17-4.78,6.85-4.78h3.91v2.76h-3.86c-4.65,0-7.13,3.72-7.13,8.28Zm41.89,10.53v2.35h-20.24v-2.35h8.97v-19.22h-8.09v-2.35h10.85v21.57h8.51Zm-12.05-28.74c0-1.24.97-2.16,2.21-2.16s2.25.92,2.25,2.16-.97,2.25-2.25,2.25-2.21-.97-2.21-2.25Zm21.43,19.13c0-7.08,5.2-12.56,12.23-12.56,5.2,0,10.07,3.17,11.31,8.46h-2.85c-.97-3.59-4.51-5.93-8.37-5.93-5.66,0-9.47,4.46-9.47,10.03s3.96,10.03,9.52,10.03c3.86,0,7.45-2.35,8.37-5.93h2.85c-1.2,5.29-6.12,8.46-11.31,8.46-7.17,0-12.28-5.47-12.28-12.55Zm62.77-20.24h2.94l17.15,27.18h.28v-27.18h2.71v32.19h-3.08l-17.02-27.18h-.28v27.18h-2.71v-32.19Zm31.22,20.24c0-7.63,5.2-12.56,11.64-12.56,7.27,0,11.59,5.24,11.59,12.14v1.43h-20.33c.14,5.2,3.59,9.01,9.01,9.01,3.82,0,7.13-2.02,8.19-5.1h2.9c-1.33,4.46-5.52,7.63-11.13,7.63-7.17,0-11.87-5.38-11.87-12.55Zm20.28-1.47c-.23-5.47-3.77-8.55-8.65-8.55-4.51,0-8.37,3.4-8.69,8.55h17.34Zm12.74,4.83v-15.31h2.76v15.18c0,4,2.99,6.81,6.85,6.81,4.23,0,7.31-3.27,7.31-7.4v-14.58h2.76v23.92h-2.76v-3.91h-.28c-1.01,2.35-3.82,4.51-7.63,4.51-5.61,0-9.01-4.09-9.01-9.2Zm40.61-4.28v10.53h10.99v2.35h-21.29v-2.35h7.54v-19.22h-7.04v-2.35h9.75v4.78h.28c.78-2.3,3.17-4.78,6.85-4.78h3.91v2.76h-3.86c-4.64,0-7.13,3.72-7.13,8.28Zm19.36.92c0-7.22,5.33-12.56,12.42-12.56s12.42,5.38,12.42,12.56-5.33,12.55-12.46,12.55-12.37-5.33-12.37-12.55Zm21.98,0c0-5.75-4.05-10.03-9.61-10.03s-9.57,4.32-9.57,10.03,4.05,10.03,9.57,10.03,9.61-4.23,9.61-10.03Zm9.93.05c0-7.4,4.74-12.6,11.54-12.6,5.24,0,8.14,3.31,9.01,5.43h.28v-15.41h2.76v34.49h-2.67v-4.74h-.28c-.78,1.79-3.54,5.33-8.88,5.33-7.04,0-11.77-5.2-11.77-12.51Zm20.93,0c0-6.12-3.77-10.07-9.06-10.07s-9.06,4.14-9.06,10.07,3.63,10.03,9.11,10.03,9.01-4.55,9.01-10.03Zm10.53-.05c0-7.63,5.2-12.56,11.64-12.56,7.27,0,11.59,5.24,11.59,12.14v1.43h-20.33c.14,5.2,3.59,9.01,9.01,9.01,3.82,0,7.13-2.02,8.19-5.1h2.9c-1.33,4.46-5.52,7.63-11.13,7.63-7.17,0-11.87-5.38-11.87-12.55Zm20.28-1.47c-.23-5.47-3.77-8.55-8.65-8.55-4.51,0-8.37,3.4-8.69,8.55h17.34Zm12.88,17.29h2.62c.69,3.22,3.63,4.88,7.54,4.88,5.7,0,8.69-3.17,8.69-8.28v-5.2h-.28c-.78,1.79-3.54,5.33-8.88,5.33-7.04,0-11.77-5.2-11.77-12.51s4.74-12.6,11.54-12.6c5.24,0,8.14,3.31,9.01,5.43h.28v-4.83h2.76v24.38c0,6.76-4.42,10.72-11.36,10.72-5.84,0-9.43-3.04-10.16-7.31Zm18.86-15.77c0-6.12-3.77-10.07-9.06-10.07s-9.06,4.14-9.06,10.07,3.63,10.03,9.11,10.03,9.01-4.55,9.01-10.03Zm10.53-.05c0-7.63,5.2-12.56,11.64-12.56,7.27,0,11.59,5.24,11.59,12.14v1.43h-20.33c.14,5.2,3.59,9.01,9.01,9.01,3.82,0,7.13-2.02,8.19-5.1h2.9c-1.33,4.46-5.52,7.63-11.13,7.63-7.17,0-11.87-5.38-11.87-12.55Zm20.28-1.47c-.23-5.47-3.77-8.55-8.65-8.55-4.51,0-8.37,3.4-8.69,8.55h17.34Zm12.74-10.49h2.76v3.91h.28c1.06-2.39,3.82-4.51,7.63-4.51,5.61,0,9.01,4.09,9.01,9.2v15.31h-2.76v-15.13c0-3.96-2.99-6.81-6.85-6.81-4.23,0-7.31,3.31-7.31,7.4v14.53h-2.76v-23.92Zm29.52,11.96c0-7.63,5.2-12.56,11.64-12.56,7.27,0,11.59,5.24,11.59,12.14v1.43h-20.33c.14,5.2,3.59,9.01,9.01,9.01,3.82,0,7.13-2.02,8.19-5.1h2.9c-1.33,4.46-5.52,7.63-11.13,7.63-7.17,0-11.87-5.38-11.87-12.55Zm20.28-1.47c-.23-5.47-3.77-8.55-8.65-8.55-4.51,0-8.37,3.4-8.69,8.55h17.34Zm22.07.55v10.53h10.99v2.35h-21.29v-2.35h7.54v-19.22h-7.04v-2.35h9.75v4.78h.28c.78-2.3,3.17-4.78,6.85-4.78h3.91v2.76h-3.86c-4.64,0-7.13,3.72-7.13,8.28Zm19.96.97c0-7.4,4.74-12.6,11.54-12.6,5.24,0,8.14,3.31,9.01,5.43h.28v-4.83h2.76v23.92h-2.67v-4.74h-.28c-.78,1.79-3.54,5.33-8.88,5.33-7.04,0-11.77-5.2-11.77-12.51Zm20.92,0c0-6.12-3.72-10.07-9.06-10.07s-9.01,4.14-9.01,10.07,3.63,10.03,9.06,10.03,9.01-4.55,9.01-10.03Zm19.54,4.74v-14.39h-7.73v-2.35h6.9c.55,0,1.01-.37,1.01-1.01v-5.93h2.58v6.94h10.16v2.35h-10.16v14.35c0,3.04,1.38,4.78,4.46,4.78h4.88v2.44h-5.06c-4.32,0-7.04-2.44-7.04-7.17Zm44.01,4.83v2.35h-20.24v-2.35h8.97v-19.22h-8.09v-2.35h10.85v21.57h8.51Zm-12.05-28.74c0-1.24.97-2.16,2.21-2.16s2.25.92,2.25,2.16-.97,2.25-2.25,2.25-2.21-.97-2.21-2.25Zm20.79,19.13c0-7.22,5.33-12.56,12.42-12.56s12.42,5.38,12.42,12.56-5.33,12.55-12.46,12.55-12.37-5.33-12.37-12.55Zm21.98,0c0-5.75-4.05-10.03-9.61-10.03s-9.57,4.32-9.57,10.03,4.05,10.03,9.57,10.03,9.61-4.23,9.61-10.03Zm11.86-11.96h2.76v3.91h.28c1.06-2.39,3.82-4.51,7.63-4.51,5.61,0,9.01,4.09,9.01,9.2v15.31h-2.76v-15.13c0-3.96-2.99-6.81-6.85-6.81-4.23,0-7.31,3.31-7.31,7.4v14.53h-2.76v-23.92Zm69.76,16.74v-14.39h-7.73v-2.35h6.9c.55,0,1.01-.37,1.01-1.01v-5.93h2.58v6.94h10.16v2.35h-10.16v14.35c0,3.04,1.38,4.78,4.46,4.78h4.88v2.44h-5.06c-4.32,0-7.04-2.44-7.04-7.17Zm21.48-4.78c0-7.22,5.33-12.56,12.42-12.56s12.42,5.38,12.42,12.56-5.33,12.55-12.46,12.55-12.37-5.33-12.37-12.55Zm21.98,0c0-5.75-4.05-10.03-9.61-10.03s-9.57,4.32-9.57,10.03,4.05,10.03,9.57,10.03,9.61-4.23,9.61-10.03Zm-1131.41,73.46v-10.67c0-6.67,4.92-11.36,11.68-11.36s11.5,4.46,11.77,10.85h-2.81c-.28-4.51-3.59-8.14-8.97-8.14-5.7,0-8.88,4.05-8.88,8.83v10.3c0,4.78,3.13,8.83,8.88,8.83,5.38,0,8.69-3.59,8.97-8.09h2.81c-.28,6.35-5.24,10.81-11.77,10.81s-11.68-4.69-11.68-11.36Zm30.58-1.2c0-7.22,5.33-12.56,12.42-12.56s12.42,5.38,12.42,12.56-5.33,12.55-12.46,12.55-12.37-5.33-12.37-12.55Zm21.98,0c0-5.75-4.05-10.03-9.61-10.03s-9.57,4.32-9.57,10.03,4.05,10.03,9.57,10.03,9.61-4.23,9.61-10.03Zm8.92-11.96h2.76v3.36h.28c.55-2.21,2.12-3.96,4.83-3.96,3.54,0,4.88,2.39,5.29,4.51h.32c.41-2.16,2.21-4.51,5.52-4.51,3.86,0,6.02,2.85,6.02,7.54v16.97h-2.76v-16.6c0-3.31-1.33-5.33-4.19-5.33s-4.14,2.25-4.14,5.11v16.83h-2.76v-16.6c0-3.04-1.15-5.33-4.23-5.33-2.81,0-4.19,2.25-4.19,5.15v16.79h-2.76v-23.92Zm35.23,19.18h-.28v4.74h-2.67v-34.49h2.76v15.41h.28c.87-2.12,3.77-5.43,9.01-5.43,6.81,0,11.54,5.2,11.54,12.6s-4.74,12.51-11.77,12.51c-5.33,0-8.09-3.54-8.88-5.33Zm17.8-7.17c0-5.93-3.63-10.07-9.01-10.07s-9.06,3.96-9.06,10.07c0,5.47,3.36,10.03,9.01,10.03s9.06-4,9.06-10.03Zm10.48,0c0-7.4,4.74-12.6,11.54-12.6,5.24,0,8.14,3.31,9.01,5.43h.28v-4.83h2.76v23.92h-2.67v-4.74h-.28c-.78,1.79-3.54,5.33-8.88,5.33-7.04,0-11.77-5.2-11.77-12.51Zm20.93,0c0-6.12-3.73-10.07-9.06-10.07s-9.01,4.14-9.01,10.07,3.63,10.03,9.06,10.03,9.01-4.55,9.01-10.03Zm19.54,4.74v-14.39h-7.73v-2.35h6.9c.55,0,1.01-.37,1.01-1.01v-5.93h2.58v6.94h10.16v2.35h-10.16v14.35c0,3.04,1.38,4.78,4.46,4.78h4.88v2.44h-5.06c-4.32,0-7.04-2.44-7.04-7.17Zm73.03-.92h-15.73l-2.99,8.09h-2.99l12.14-32.19h3.45l12.1,32.19h-2.99l-2.99-8.09Zm-.97-2.62l-6.76-18.4h-.28l-6.76,18.4h13.8Zm34.95,8.28v2.44h-8.09c-2.53,0-4.05-1.61-4.05-4.46v-27.69h-9.01v-2.34h11.77v30.03c0,1.24.6,2.02,1.79,2.02h7.59Zm31.27,0v2.44h-8.09c-2.53,0-4.05-1.61-4.05-4.46v-27.69h-9.01v-2.34h11.77v30.03c0,1.24.6,2.02,1.79,2.02h7.59Zm40.42-29.76h2.94l17.15,27.18h.28v-27.18h2.71v32.19h-3.08l-17.02-27.18h-.28v27.18h-2.71v-32.19Zm31.22,20.24c0-7.63,5.2-12.56,11.64-12.56,7.27,0,11.59,5.24,11.59,12.14v1.43h-20.33c.14,5.2,3.59,9.01,9.01,9.01,3.82,0,7.13-2.02,8.19-5.1h2.9c-1.33,4.46-5.52,7.63-11.13,7.63-7.17,0-11.87-5.38-11.87-12.55Zm20.28-1.47c-.23-5.47-3.77-8.55-8.65-8.55-4.51,0-8.37,3.4-8.69,8.55h17.34Zm12.74,4.83v-15.31h2.76v15.18c0,4,2.99,6.81,6.85,6.81,4.23,0,7.31-3.27,7.31-7.4v-14.58h2.76v23.92h-2.76v-3.91h-.28c-1.01,2.35-3.82,4.51-7.63,4.51-5.61,0-9.01-4.09-9.01-9.2Zm40.61-4.28v10.53h10.99v2.35h-21.29v-2.35h7.54v-19.22h-7.04v-2.35h9.75v4.78h.28c.78-2.3,3.17-4.78,6.85-4.78h3.91v2.76h-3.86c-4.65,0-7.13,3.72-7.13,8.28Zm19.36.92c0-7.22,5.33-12.56,12.42-12.56s12.42,5.38,12.42,12.56-5.33,12.55-12.46,12.55-12.37-5.33-12.37-12.55Zm21.98,0c0-5.75-4.05-10.03-9.61-10.03s-9.57,4.32-9.57,10.03,4.05,10.03,9.57,10.03,9.61-4.23,9.61-10.03Zm9.93.05c0-7.4,4.74-12.6,11.54-12.6,5.24,0,8.14,3.31,9.01,5.43h.28v-15.41h2.76v34.49h-2.67v-4.74h-.28c-.78,1.79-3.54,5.33-8.88,5.33-7.04,0-11.77-5.2-11.77-12.51Zm20.93,0c0-6.12-3.77-10.07-9.06-10.07s-9.06,4.14-9.06,10.07,3.63,10.03,9.11,10.03,9.01-4.55,9.01-10.03Zm10.53-.05c0-7.63,5.2-12.56,11.64-12.56,7.27,0,11.59,5.24,11.59,12.14v1.43h-20.33c.14,5.2,3.59,9.01,9.01,9.01,3.82,0,7.13-2.02,8.19-5.1h2.9c-1.33,4.46-5.52,7.63-11.13,7.63-7.17,0-11.87-5.38-11.87-12.55Zm20.28-1.47c-.23-5.47-3.77-8.55-8.65-8.55-4.51,0-8.37,3.4-8.69,8.55h17.34Zm12.88,17.29h2.62c.69,3.22,3.63,4.88,7.54,4.88,5.7,0,8.69-3.17,8.69-8.28v-5.2h-.28c-.78,1.79-3.54,5.33-8.88,5.33-7.04,0-11.77-5.2-11.77-12.51s4.74-12.6,11.54-12.6c5.24,0,8.14,3.31,9.01,5.43h.28v-4.83h2.76v24.38c0,6.76-4.42,10.72-11.36,10.72-5.84,0-9.43-3.04-10.16-7.31Zm18.86-15.77c0-6.12-3.77-10.07-9.06-10.07s-9.06,4.14-9.06,10.07,3.63,10.03,9.11,10.03,9.01-4.55,9.01-10.03Zm10.53-.05c0-7.63,5.2-12.56,11.64-12.56,7.27,0,11.59,5.24,11.59,12.14v1.43h-20.33c.14,5.2,3.59,9.01,9.01,9.01,3.82,0,7.13-2.02,8.19-5.1h2.9c-1.33,4.46-5.52,7.63-11.13,7.63-7.17,0-11.87-5.38-11.87-12.55Zm20.28-1.47c-.23-5.47-3.77-8.55-8.65-8.55-4.51,0-8.37,3.4-8.69,8.55h17.34Zm12.74-10.49h2.76v3.91h.28c1.06-2.39,3.82-4.51,7.63-4.51,5.61,0,9.01,4.09,9.01,9.2v15.31h-2.76v-15.13c0-3.96-2.99-6.81-6.85-6.81-4.23,0-7.31,3.31-7.31,7.4v14.53h-2.76v-23.92Zm29.52,11.96c0-7.63,5.2-12.56,11.64-12.56,7.27,0,11.59,5.24,11.59,12.14v1.43h-20.33c.14,5.2,3.59,9.01,9.01,9.01,3.82,0,7.13-2.02,8.19-5.1h2.9c-1.33,4.46-5.52,7.63-11.13,7.63-7.17,0-11.87-5.38-11.87-12.55Zm20.28-1.47c-.23-5.47-3.77-8.55-8.65-8.55-4.51,0-8.37,3.4-8.69,8.55h17.34Zm22.07.55v10.53h10.99v2.35h-21.29v-2.35h7.54v-19.22h-7.04v-2.35h9.75v4.78h.28c.78-2.3,3.17-4.78,6.85-4.78h3.91v2.76h-3.86c-4.64,0-7.13,3.72-7.13,8.28Zm19.96.97c0-7.4,4.74-12.6,11.54-12.6,5.24,0,8.14,3.31,9.01,5.43h.28v-4.83h2.76v23.92h-2.67v-4.74h-.28c-.78,1.79-3.54,5.33-8.88,5.33-7.04,0-11.77-5.2-11.77-12.51Zm20.92,0c0-6.12-3.72-10.07-9.06-10.07s-9.01,4.14-9.01,10.07,3.63,10.03,9.06,10.03,9.01-4.55,9.01-10.03Zm19.54,4.74v-14.39h-7.73v-2.35h6.9c.55,0,1.01-.37,1.01-1.01v-5.93h2.58v6.94h10.16v2.35h-10.16v14.35c0,3.04,1.38,4.78,4.46,4.78h4.88v2.44h-5.06c-4.32,0-7.04-2.44-7.04-7.17Zm44.01,4.83v2.35h-20.24v-2.35h8.97v-19.22h-8.09v-2.35h10.85v21.57h8.51Zm-12.05-28.74c0-1.24.97-2.16,2.21-2.16s2.25.92,2.25,2.16-.97,2.25-2.25,2.25-2.21-.97-2.21-2.25Zm22.16,7.17h2.99l7.86,20.56h.28l7.86-20.56h3.04l-9.52,23.92h-2.99l-9.52-23.92Zm30.72,11.96c0-7.63,5.2-12.56,11.64-12.56,7.27,0,11.59,5.24,11.59,12.14v1.43h-20.33c.14,5.2,3.59,9.01,9.01,9.01,3.82,0,7.13-2.02,8.19-5.1h2.9c-1.33,4.46-5.52,7.63-11.13,7.63-7.17,0-11.87-5.38-11.87-12.55Zm20.28-1.47c-.23-5.47-3.77-8.55-8.65-8.55-4.51,0-8.37,3.4-8.69,8.55h17.34Zm43.5-18.76h8.88c6.76,0,11.82,4.65,11.82,11.27v9.98c0,6.67-5.06,10.95-11.82,10.95h-8.88v-32.19Zm8.88,29.66c5.75,0,9.01-3.77,9.01-8.6v-9.61c0-4.78-3.31-8.88-9.01-8.88h-6.02v27.09h6.02Zm42.86.18v2.35h-20.24v-2.35h8.97v-19.22h-8.09v-2.35h10.85v21.57h8.51Zm-12.05-28.74c0-1.24.97-2.16,2.21-2.16s2.25.92,2.25,2.16-.97,2.25-2.25,2.25-2.21-.97-2.21-2.25Zm23.91,24.37h2.71c.32,3.22,2.94,4.88,6.67,4.88,4.05,0,6.48-1.89,6.48-4.74,0-7.41-15.13-2.02-15.13-11.41,0-3.91,3.59-6.53,8.6-6.53,4.42,0,8.14,2.48,8.51,6.76h-2.67c-.32-2.71-2.58-4.37-6.07-4.37s-5.7,1.75-5.7,4.14c0,6.81,15.18,1.43,15.18,11.27,0,4.42-3.73,7.31-9.34,7.31s-8.88-2.99-9.24-7.31Zm28.97-5.24c0-7.63,5.2-12.56,11.64-12.56,7.27,0,11.59,5.24,11.59,12.14v1.43h-20.33c.14,5.2,3.59,9.01,9.01,9.01,3.82,0,7.13-2.02,8.19-5.1h2.9c-1.33,4.46-5.52,7.63-11.13,7.63-7.17,0-11.87-5.38-11.87-12.55Zm20.28-1.47c-.23-5.47-3.77-8.55-8.65-8.55-4.51,0-8.37,3.4-8.69,8.55h17.34Zm10.76,1.52c0-7.4,4.74-12.6,11.54-12.6,5.24,0,8.14,3.31,9.01,5.43h.28v-4.83h2.76v23.92h-2.67v-4.74h-.28c-.78,1.79-3.54,5.33-8.88,5.33-7.04,0-11.77-5.2-11.77-12.51Zm20.92,0c0-6.12-3.72-10.07-9.06-10.07s-9.01,4.14-9.01,10.07,3.63,10.03,9.06,10.03,9.01-4.55,9.01-10.03Zm12.88,5.2h2.71c.32,3.22,2.94,4.88,6.67,4.88,4.05,0,6.48-1.89,6.48-4.74,0-7.41-15.13-2.02-15.13-11.41,0-3.91,3.59-6.53,8.6-6.53,4.42,0,8.14,2.48,8.51,6.76h-2.67c-.32-2.71-2.58-4.37-6.07-4.37s-5.7,1.75-5.7,4.14c0,6.81,15.18,1.43,15.18,11.27,0,4.42-3.73,7.31-9.34,7.31s-8.88-2.99-9.24-7.31Zm28.97-5.24c0-7.63,5.2-12.56,11.64-12.56,7.27,0,11.59,5.24,11.59,12.14v1.43h-20.33c.14,5.2,3.59,9.01,9.01,9.01,3.82,0,7.13-2.02,8.19-5.1h2.9c-1.33,4.46-5.52,7.63-11.13,7.63-7.17,0-11.87-5.38-11.87-12.55Zm20.28-1.47c-.23-5.47-3.77-8.55-8.65-8.55-4.51,0-8.37,3.4-8.69,8.55h17.34Zm13.29,6.71h2.71c.32,3.22,2.94,4.88,6.67,4.88,4.05,0,6.48-1.89,6.48-4.74,0-7.41-15.13-2.02-15.13-11.41,0-3.91,3.59-6.53,8.6-6.53,4.42,0,8.14,2.48,8.51,6.76h-2.67c-.32-2.71-2.58-4.37-6.07-4.37s-5.7,1.75-5.7,4.14c0,6.81,15.18,1.43,15.18,11.27,0,4.42-3.73,7.31-9.34,7.31s-8.88-2.99-9.24-7.31Zm38.35,5.15c0-1.24,1.01-2.21,2.21-2.21s2.21.97,2.21,2.21-.97,2.16-2.21,2.16-2.21-.97-2.21-2.16Z"></path><path class="cls-2" d="m693.19,1104.46h3.3l2.81,24.16h.24l3.1-24.16h4.74l3.1,24.16h.24l2.81-24.16h3.3l-3.74,28.15h-4.87l-3.1-23.76h-.24l-3.1,23.76h-4.86l-3.74-28.15Zm29.87,0h8.08c6.19,0,10.49,4.22,10.49,10.01v8.52c0,5.79-4.3,9.61-10.49,9.61h-8.08v-28.15Zm8.08,25.25c5.03,0,7.28-3.26,7.28-6.92v-8.12c0-3.62-2.29-7.28-7.28-7.28h-4.83v22.31h4.83Zm18.77-25.25h9.65c5.75,0,9.17,3.38,9.17,8.32,0,4.14-2.69,7.2-5.87,8.12l6.59,11.7h-3.78l-6.23-11.38h-6.27v11.38h-3.26v-28.15Zm9.65,13.87c3.3,0,5.79-1.85,5.79-5.55,0-2.98-2.01-5.43-5.99-5.43h-6.19v10.98h6.39Zm30.15,7.16h-12.3v-2.57l8.97-18.46h3.42l-8.6,17.89v.24h8.52v-6.35h3.22v6.35h3.7v2.9h-3.7v7.12h-3.22v-7.12Zm15.43-.2h3.06c.52,3.1,2.85,4.83,5.95,4.83,3.38,0,6.11-2.61,6.11-6.39s-2.57-6.15-6.43-6.15c-3.14,0-4.66,1.97-5.15,2.77h-2.98l.97-15.88h15.12v2.98h-12.26l-.6,9.05h.24s1.73-1.89,5.23-1.89c5.35,0,9.17,4.22,9.17,9.13,0,5.35-4.1,9.41-9.29,9.41-4.87,0-8.76-3.1-9.13-7.84Z"></path><path class="cls-2" d="m1503.19,2728.87h-381.17V532.44c0-1.1-.9-2-2-2h-82.52v-50.3c0-1.1-.9-2-2-2h-104.59c-1.1,0-2,.9-2,2v104.59c0,1.1.9,2,2,2h104.59c1.1,0,2-.9,2-2v-50.3h80.52v2194.43h-29.49V915.12c0-1.1-.9-2-2-2H402.87v-31.3c0-1.1-.9-2-2-2h-66.61c-1.1,0-2,.9-2,2v66.61c0,1.1.9,2,2,2h66.61c1.1,0,2-.9,2-2v-31.3h681.66v1811.75h-29.48v-1609.26c0-1.1-.9-2-2-2h-217.01v-72.35c0-1.1-.9-2-2-2h-148.7c-1.1,0-2,.9-2,2v148.7c0,1.1.9,2,2,2h148.7c1.1,0,2-.9,2-2v-72.35h215.01v1607.26H97.1c-1.1,0-2,.9-2,2v351.83c0,1.1.9,2,2,2h1406.09c1.1,0,2-.9,2-2v-351.83c0-1.1-.9-2-2-2Zm-469.69-2146.13h-100.59v-100.59h100.59v100.59Zm-634.63,363.69h-62.61v-62.61h62.61v62.61Zm433.16,245.53h-144.7v-144.7h144.7v144.7Zm669.15,1888.75H99.1v-347.83h1402.09v347.83Z"></path></svg> 